<svg version="1.1" xmlns="http://www.w3.org/2000/svg" xmlns:xlink="http://www.w3.org/1999/xlink" width="144.52855" height="141.19929" viewBox="0,0,144.52855,141.19929"><g transform="translate(-167.73574,-91.46229)"><g stroke="none" stroke-miterlimit="10"><g stroke-width="0"><path d="M181.82056,117.29074v-22.55208h22.55208v22.55208z" fill="#9966ff"/><path d="M193.0966,106.37889v-11.64023h11.27604v11.64023z" fill="#000000"/><path d="M181.82056,117.29074v-10.91185h11.27604v10.91185z" fill="#000000"/></g><path d="M173.02337,127.64905c-2.92028,0 -5.28763,-1.30925 -5.28763,-2.9243v0c0,-1.61504 2.36735,-2.9243 5.28763,-2.9243h133.95329c2.92028,0 5.28763,1.30925 5.28763,2.9243v0c0,1.61504 -2.36735,2.9243 -5.28763,2.9243z" fill="#ffffff" stroke-width="0.5"/><text transform="translate(214.45702,105.67765) scale(0.32679,0.32679)" font-size="40" xml:space="preserve" fill="#ffffff" stroke-width="1" font-family="Sans Serif" font-weight="normal" text-anchor="start"><tspan x="0" dy="0">Dev Pack</tspan></text><text transform="translate(214.17497,114.94168) scale(0.23586,0.23586)" font-size="40" xml:space="preserve" fill="#323232" stroke-width="1" font-family="Sans Serif" font-weight="normal" text-anchor="start"><tspan x="0" dy="0">Dev Collection</tspan></text><g><path d="M202.5,232.66157v-102.14286h75v102.14286z" fill="#ffffff" stroke-width="0"/><text transform="translate(206.191,185.27907) scale(0.30741,0.30741)" font-size="40" xml:space="preserve" fill="#000000" stroke-width="1" font-family="Archivo Black" font-weight="normal" text-anchor="start"><tspan x="0" dy="0">DEV PACK</tspan></text></g></g></g></svg>