<svg version="1.1" xmlns="http://www.w3.org/2000/svg" xmlns:xlink="http://www.w3.org/1999/xlink" width="63.96114" height="87.93828" viewBox="0,0,63.96114,87.93828"><defs><linearGradient x1="240" y1="138.03086" x2="240" y2="221.96914" gradientUnits="userSpaceOnUse" id="color-1"><stop offset="0" stop-color="#0f7687"/><stop offset="1" stop-color="#151329"/></linearGradient></defs><g transform="translate(-208.01943,-136.03086)"><g stroke-miterlimit="10"><path d="M213.01943,221.96914c-1.65685,0 -3,-1.34315 -3,-3v-77.93828c0,-1.65685 1.34315,-3 3,-3h53.96114c1.65685,0 3,1.34315 3,3v77.93828c0,1.65685 -1.34315,3 -3,3z" fill="#9763ff" stroke="#000000" stroke-width="4" stroke-linecap="butt"/><path d="M213.01943,221.96914c-1.65685,0 -3,-1.34315 -3,-3v-77.93828c0,-1.65685 1.34315,-3 3,-3h53.96114c1.65685,0 3,1.34315 3,3v77.93828c0,1.65685 -1.34315,3 -3,3z" fill="url(#color-1)" stroke="none" stroke-width="0" stroke-linecap="butt"/><g><path d="M216.85207,217.75247c0,0 -0.47946,-6.41536 -0.6905,-10.86001c-0.24367,-5.13154 -3.38407,-18.874 -2.72672,-25.88631c0.29856,-3.1849 4.83892,-3.91781 4.83892,-3.91781l15.07581,-0.34435c0,0 3.97921,0.69567 4.38806,3.5421c0.89621,6.2396 -0.23276,19.30482 0.00716,24.35768c0.24257,5.10868 -1.40132,12.49564 -1.40132,12.49564z" fill="#212121" stroke="none" stroke-width="0" stroke-linecap="butt"/><g fill="#000000" stroke="none" stroke-width="0" stroke-linecap="butt"><path d="M237.06301,183.776l-2.53783,-5.97278c0,0 2.82143,-1.03339 4.92867,1.11312c1.06263,1.08244 2.95386,2.12698 4.62316,4.45004c0.93956,1.30752 1.94248,3.10454 2.86647,4.57379c3.17147,5.043 5.87164,9.91276 5.87164,9.91276l-4.05908,3.20324c0,0 -1.4326,-2.01304 -3.08023,-4.56125c-1.00278,-1.55091 -1.94164,-3.31791 -3.10099,-4.89835c-1.57818,-2.15138 -3.53002,-3.70614 -4.22308,-4.73034c-0.95415,-1.41009 -1.28875,-3.09025 -1.28875,-3.09025z"/><path d="M248.86281,201.19149c-0.88454,-1.12088 -0.69297,-2.7466 0.42792,-3.63115c1.12089,-0.88455 2.7466,-0.69297 3.63115,0.42792c0.88454,1.12088 0.69297,2.7466 -0.42792,3.63115c-1.12088,0.88455 -2.7466,0.69297 -3.63116,-0.42792z"/></g><g fill="#000000" stroke="none" stroke-width="0" stroke-linecap="butt"><path d="M227.72779,204.99057c0,0 1.61204,-0.17126 5.01477,-1.28107c1.33774,-0.4363 3.95934,-1.54557 5.34846,-2.04973c2.6769,-0.97152 5.18474,-2.35764 6.61756,-2.81842c2.19413,-0.70563 5.49857,-1.07996 5.49857,-1.07996l1.58303,4.92248c0,0 -3.09673,1.62546 -5.21534,2.30678c-1.4058,0.45211 -3.7516,1.3398 -6.43523,2.10354c-2.03439,0.57895 -4.9804,2.32384 -6.76303,2.89109c-2.62838,0.83637 -4.06573,-0.07222 -4.06573,-0.07222l-1.58303,-4.92248z"/><path d="M250.37123,197.7086c1.35931,-0.43714 2.81561,0.31042 3.25276,1.66971c0.43714,1.35932 -0.31043,2.81561 -1.66973,3.25277c-1.35931,0.43714 -2.81561,-0.31043 -3.25276,-1.66973c-0.43714,-1.35932 0.31042,-2.81561 1.66972,-3.25276z"/></g><g><path d="M236.04006,166.79381c-0.0556,5.66361 -3.9203,10.21736 -8.63204,10.17111c-3.51727,-0.03454 -6.52133,-1.70346 -7.79067,-5.36943c-0.22918,-0.66189 -1.04622,0.11611 -2.06515,-0.95095c-0.89762,-0.94002 -2.07588,-5.01198 -1.43269,-5.54015c1.17049,-0.9612 3.05352,-0.83529 3.38101,-1.90522c1.21341,-3.96431 4.3985,-6.78041 8.10888,-6.74398c4.71174,0.04625 8.48628,4.67501 8.43068,10.33862z" fill="#eda164" stroke="#000000" stroke-width="1" stroke-linecap="butt"/><path d="M218.80238,169.81638c-0.86175,-0.00846 -0.85329,-0.87021 -0.85329,-0.87021l0.06972,-0.00456c-0.38553,-0.93216 -0.98195,-2.19062 -0.46778,-3.21245c0.01816,-0.0361 0.03728,-0.07154 0.05727,-0.10644l-0.01648,-0.00725l0.2609,-0.59264c-0.19636,-0.15983 -0.3208,-0.40432 -0.3181,-0.67719l0.00899,-0.91542c-0.0942,-0.24604 -0.18841,-0.49211 -0.28261,-0.73815c0,0 -0.29466,-0.80985 0.51519,-1.10451c0.11033,-0.04015 0.21113,-0.05979 0.30289,-0.06379c0.04783,-0.04476 0.09333,-0.08793 0.136,-0.12936l0.54389,-0.74587c0.00975,-0.01373 0.0199,-0.02717 0.03041,-0.04028c-0.01979,-0.1621 -0.03863,-0.3208 -0.06367,-0.46811c-0.29751,-1.74954 1.17057,-3.75853 1.96951,-5.15873l0.15551,-0.06471l-0.04017,-0.04918l0.69066,-0.56416c0.15131,-0.1254 0.34611,-0.19999 0.55803,-0.1979c0.32323,0.00318 0.60314,0.18389 0.74802,0.4486c0.11933,-0.0605 0.25456,-0.09402 0.3976,-0.09262c0.28156,0.00276 0.53024,0.14024 0.68544,0.3506c0.30393,-0.11218 0.59573,-0.19679 0.82733,-0.23248c0.20643,-0.2199 0.45305,-0.46472 0.75694,-0.76271l0.69617,-0.68263c0.15747,-0.15442 0.37386,-0.24875 0.61183,-0.24641c0.47594,0.00468 0.85796,0.39428 0.85329,0.87021c-0.00169,0.17253 -0.05398,0.33273 -0.14263,0.46663l-0.35822,0.5608l0.44101,-0.04462c0.0353,-0.00405 0.07123,-0.00595 0.10768,-0.00561c0.28277,0.00277 0.53237,0.14142 0.68744,0.35334l0.80688,-0.19333c0.07275,-0.01912 0.14922,-0.02896 0.22806,-0.02818c0.47594,0.00468 0.85796,0.39428 0.85329,0.87021c-0.0004,0.04159 -0.00376,0.08246 -0.00985,0.12243c0.11555,-0.04468 0.23205,-0.08659 0.3495,-0.12551l0.89367,-0.32515c0.09965,-0.03891 0.20826,-0.05981 0.32179,-0.05868c0.47594,0.00468 0.85796,0.39427 0.85328,0.8702c-0.00118,0.12005 -0.02686,0.23412 -0.07223,0.33752l-0.35735,0.86856c0.07792,-0.02921 0.15633,-0.05652 0.23503,-0.08195l0.03434,0.00144l-0.00234,-0.00976l0.90266,-0.21628c0.07275,-0.01912 0.14922,-0.02896 0.22806,-0.02818c0.47594,0.00468 0.85796,0.39428 0.85328,0.87021c-0.00131,0.13407 -0.03319,0.26071 -0.08892,0.37333c0.08572,0.05101 0.17559,0.10832 0.26981,0.17238c0.22494,0.15293 0.36796,0.34396 0.44673,0.56058c0.41789,0.0631 0.73628,0.42581 0.73201,0.86054c-0.00038,0.03896 -0.00335,0.07729 -0.00873,0.11482c0.00465,0.03763 0.00686,0.07601 0.00647,0.11498c-0.00128,0.13129 -0.03188,0.25544 -0.08548,0.3663l-0.45382,0.99466c-0.13306,0.30984 -0.4424,0.52545 -0.80067,0.52192c-0.00885,-0.00009 -0.01766,-0.0003 -0.02644,-0.00066c-0.08853,0.08916 -0.17898,0.17657 -0.27103,0.26244l0.0811,0.05798l-0.80858,1.13129c-0.15732,0.22631 -0.42022,0.37336 -0.7166,0.37045c-0.16334,-0.0016 -0.31562,-0.04855 -0.44501,-0.12878c-0.04191,0.00583 -0.08478,0.00864 -0.12837,0.00822c-0.45566,-0.00448 -0.82524,-0.36177 -0.85181,-0.80986c-0.11292,0.03151 -0.223,0.05922 -0.32201,0.08581c-0.17858,0.04798 -0.37472,0.08142 -0.58208,0.10491c-0.34829,0.23774 -0.65599,0.55968 -1.06074,0.65745c-0.60234,0.1455 -1.23901,-0.02883 -1.85852,-0.04322l-0.11647,-0.4511c-0.49075,0.11787 -0.95552,0.36472 -1.44412,0.49498c-0.0978,0.06361 -0.19463,0.12803 -0.2815,0.20057l-0.8768,0.20522c-0.06713,0.02508 -0.13822,0.04203 -0.21203,0.04963l-0.77633,0.18171c-0.07271,0.05004 -0.13913,0.08842 -0.19648,0.11322c-0.11929,0.05157 -0.2437,0.04813 -0.37103,0.01962l-0.12944,0.03031c0.00971,-0.01907 0.01942,-0.03816 0.02914,-0.05723c-0.10248,-0.0315 -0.20643,-0.07393 -0.31077,-0.11218l-0.15791,0.23188l-0.04182,-0.02847c-0.05811,0.11245 -0.11582,0.22281 -0.17331,0.33137c-0.26092,0.87126 -0.47887,1.74544 -0.47246,2.54473l-0.00902,0.91921c-0.00468,0.47594 -0.39427,0.85797 -0.8702,0.85329c-0.22967,-0.00226 -0.43747,-0.09416 -0.59051,-0.24213c-0.12983,0.07583 -0.28119,0.11866 -0.44248,0.11708c-0.14714,-0.00145 -0.28529,-0.03969 -0.40583,-0.10588c-0.02395,0.20555 -0.15451,0.78985 -0.86485,0.78287z" fill="#5f4128" stroke="none" stroke-width="0.5" stroke-linecap="butt"/><g stroke-width="1"><g fill="#353535" stroke-linecap="butt"><path d="M221.87994,171.5325c-0.81789,-1.18506 -0.18749,-1.89204 -0.15893,-3.56314c0.01158,-0.67783 -2.20614,-1.72902 -2.35172,-2.55869c-0.14513,-0.8271 0.46184,-1.61818 0.72277,-2.17806c0.44192,-0.94825 2.82729,-1.09811 3.58573,-1.21278c2.62543,-0.39695 6.82822,-0.40286 10.25054,0.51112c0.63935,0.17075 2.10493,0.57925 2.65249,1.68784c0.19878,0.40247 0.45267,0.92569 0.41757,1.49016c-0.0416,0.66928 -0.39619,1.3975 -0.41157,2.06425c-0.03806,1.64906 0.54876,2.66879 -0.2524,3.90122c-1.02606,1.57838 -2.64449,2.19906 -6.31503,2.53524c-0.10132,0.00928 -1.38756,0.16318 -2.913,-0.14966c-2.09735,-0.43014 -4.64829,-1.68979 -5.22644,-2.5275z" stroke="#000000"/><path d="M224.49155,155.99012c0.1598,-0.18094 0.39434,-0.2941 0.65467,-0.29155c0.47594,0.00468 0.85796,0.39427 0.85329,0.8702c-0.00208,0.21191 -0.08046,0.4052 -0.20883,0.55403l-0.22284,0.26213c-0.05421,0.11448 -0.13289,0.21505 -0.22922,0.29499l-0.07553,0.06346l-0.013,0.01531c-0.2678,0.462 -0.49527,0.91246 -0.67752,1.36243l0.00794,0.03335c0.12984,1.18014 0.55997,2.24932 0.93579,3.36708c0.17547,0.52187 0.68057,1.07364 0.47151,1.58298c-0.21868,0.5328 -0.9242,0.75019 -1.48427,0.88444c-1.00588,0.2411 -2.94057,-0.1745 -3.68647,-1.18387c-0.12183,-0.16485 -0.21193,-0.34554 -0.26111,-0.5418c-0.12835,-0.51222 0.23051,-1.0322 0.393,-1.53464c0.11819,-0.36542 0.27454,-0.75829 0.45091,-1.15831c0.15348,-0.84418 0.68012,-1.69827 1.21431,-2.4405c0.00562,-0.01062 0.01119,-0.02119 0.01678,-0.03172c0.19024,-0.35964 0.33322,-0.85171 0.71652,-0.98815c0.01362,-0.00485 0.02715,-0.00853 0.04055,-0.01113c0.01363,-0.01821 0.02712,-0.03627 0.04043,-0.05416l-0.00543,-0.00645l0.02709,-0.02276c0.00586,-0.00792 0.01168,-0.0158 0.01746,-0.02364l0.01558,-0.00413l0.07292,-0.06128l-0.00782,-0.00958l0.4286,-0.3501z" stroke="#000000"/><path d="M233.90634,156.97216l0.32013,0.45144l-0.01009,0.00716l0.05402,0.07847l0.01392,0.00811c0.00349,0.00911 0.007,0.01825 0.01055,0.02744l0.02006,0.02914l-0.00694,0.00476c0.00807,0.02078 0.01626,0.04177 0.02458,0.06297c0.01224,0.00607 0.02428,0.0132 0.03613,0.0215c0.33325,0.23341 0.34029,0.74579 0.42808,1.14307c0.00258,0.01164 0.00515,0.02333 0.00775,0.03504c0.31768,0.85751 0.59836,1.82086 0.52193,2.67546c0.06368,0.43252 0.10999,0.8528 0.12679,1.23652c0.0231,0.52755 0.23084,1.12423 -0.02904,1.58389c-0.70926,1.25448 -3.21076,1.19572 -4.26427,0.61429c-0.50424,-0.27828 -1.12659,-0.67539 -1.19579,-1.24714c-0.06616,-0.54658 0.56746,-0.94425 0.87531,-1.4007c0.6594,-0.97766 1.35826,-1.89404 1.79713,-2.99721l0.01651,-0.03004c-0.05609,-0.48226 -0.15564,-0.97693 -0.29101,-1.49351l-0.00846,-0.0182l-0.05593,-0.08125c-0.0716,-0.10269 -0.12072,-0.22054 -0.14254,-0.34531l-0.14515,-0.31193c-0.08418,-0.17759 -0.10837,-0.38477 -0.05403,-0.58961c0.12199,-0.46006 0.59386,-0.7341 1.05389,-0.61209c0.25166,0.06673 0.44767,0.23816 0.55362,0.45507z" stroke="#000000"/><path d="M235.99901,165.70821c-0.09386,0.06896 -0.18433,0.11591 -0.27065,0.14556c-0.01276,0.22101 -0.07289,0.42778 -0.20214,0.60322c-0.33575,0.45577 -1.13335,-0.01521 -1.69686,-0.0692c-1.71143,-0.16399 -3.275,-0.82775 -4.9158,-1.29788c-0.38562,-0.11049 -0.82063,-0.26275 -1.26455,-0.40179c-0.09479,0.08165 -0.20752,0.143 -0.33138,0.17734c0.04483,0.10577 0.06913,0.22228 0.06792,0.34449c-0.00431,0.4389 -0.33597,0.79793 -0.76081,0.84749l-0.95397,0.12674l-0.0024,-0.01816c-0.02826,0.00888 -0.05669,0.01732 -0.08531,0.02528c-0.72965,0.20297 -1.51273,-0.08522 -2.27,-0.0963l-0.09075,-0.04705l-0.0071,0.02892l-1.15228,-0.28311c-0.3328,-0.07428 -0.59231,-0.34078 -0.65739,-0.67592c-0.22949,0.09021 -0.72599,0.19928 -1.05824,-0.3527c-0.44443,-0.73835 0.09936,-1.43094 0.09936,-1.43094c1.55337,-0.9246 2.54581,-1.11111 4.17034,-0.87469c0.22636,-0.06134 1.11784,-0.33128 1.35231,-0.33102c0.77745,0.00089 1.54544,0.69236 2.3762,0.94271c0.09892,-0.17053 0.25457,-0.30388 0.44087,-0.37444l0.81215,-0.32908l0.01409,0.03476c0.05873,-0.03236 0.1191,-0.06195 0.18145,-0.08826c0.62846,-0.26529 1.67104,0.29013 2.22928,0.45757c1.47355,0.44194 2.52768,0.28022 3.8062,1.2965l0.35366,0.43514c0,0 0.51028,0.69447 -0.1842,1.20476z" stroke="none"/></g><path d="M227.76022,167.42798l-0.34808,0.34132l-0.69052,0.10813l-1.49258,-0.12957l-1.14392,-0.52833l-0.6235,-0.86795l1.03918,-0.50689l1.03411,0.01015l1.434,0.24391z" fill="none" stroke="#000000" stroke-linecap="round"/><path d="M232.31232,166.09374l1.43851,-0.2157l1.0341,0.01016l1.02905,0.5272l-0.64041,0.85555l-1.15408,0.50577l-1.49484,0.10023l-0.68827,-0.12167l-0.34132,-0.34808z" fill="none" stroke="#000000" stroke-linecap="round"/><path d="M229.33573,173.82103l-0.01524,1.55115" fill="none" stroke="#000000" stroke-linecap="round"/><path d="M228.24796,175.36143l-0.0228,-1.55105" fill="none" stroke="#000000" stroke-linecap="round"/><path d="M227.19671,173.54159l-0.04088,1.55069" fill="none" stroke="#000000" stroke-linecap="round"/><path d="M226.17752,173.30179l-0.04323,1.55062" fill="none" stroke="#000000" stroke-linecap="round"/><path d="M225.10526,173.00446l-0.07617,1.54936" fill="none" stroke="#000000" stroke-linecap="round"/><path d="M224.02314,174.17029l0.08466,-1.54891" fill="none" stroke="#000000" stroke-linecap="round"/><path d="M223.13544,172.0368l-0.059,1.5501" fill="none" stroke="#000000" stroke-linecap="round"/><path d="M222.06409,172.85638l0.14449,-1.54448" fill="none" stroke="#000000" stroke-linecap="round"/><path d="M230.36856,173.74729l0.1039,1.54774" fill="none" stroke="#000000" stroke-linecap="round"/><path d="M231.55747,173.61332l0.02692,1.551" fill="none" stroke="#000000" stroke-linecap="round"/><path d="M232.54338,173.48229l0.12611,1.5461" fill="none" stroke="#000000" stroke-linecap="round"/><path d="M233.90418,174.69807l-0.06087,-1.55004" fill="none" stroke="#000000" stroke-linecap="round"/><path d="M235.13517,174.30831l-0.04461,-1.55059" fill="none" stroke="#000000" stroke-linecap="round"/><path d="M236.14554,173.52656l-0.13315,-1.5455" fill="none" stroke="#000000" stroke-linecap="round"/></g></g><path d="M230.91489,212.30405c-2.25061,1.77114 -3.59262,0.024 -4.26446,-2.23561c-0.77588,1.174 -1.70036,2.31008 -2.60377,3.18164c-0.39049,0.93574 -1.31857,1.58923 -2.39489,1.57866c-1.41747,-0.01391 -2.55527,-1.17429 -2.54137,-2.59176c0.00332,-0.33756 0.07164,-0.65926 0.19297,-0.95331c0.78874,-2.40657 3.7771,-6.10798 5.23177,-7.20801c0.65887,-0.49826 1.86205,-0.54581 2.78042,-0.21269c0.38823,-0.2284 0.84159,-0.3575 1.3248,-0.35276c0.47524,0.00466 0.91904,0.1382 1.29855,0.36709c0.44289,-0.34801 1.00278,-0.5533 1.60985,-0.54734c1.2483,0.01226 2.27969,0.91365 2.49862,2.09674c1.37658,1.40122 2.7144,3.13545 2.99549,4.32853c0.48648,2.06488 -1.04724,4.05001 -3.19192,3.49142c-0.52797,-0.13752 -1.27178,-0.84106 -2.02123,-1.79484c-0.21929,0.31336 -0.55074,0.56572 -0.91481,0.85221z" fill="#212121" stroke="none" stroke-width="0.5" stroke-linecap="butt"/><path d="M232.42556,203.60094l4.33372,5.89806" fill="none" stroke="#000000" stroke-width="1.5" stroke-linecap="round"/><path d="M224.07219,204.34628l-5.66127,6.80556" fill="none" stroke="#000000" stroke-width="1.5" stroke-linecap="round"/><g fill="#000000" stroke="none" stroke-width="0" stroke-linecap="butt"><path d="M216.25138,184.63273c0,0 0.80525,1.51209 0.95996,3.20763c0.11239,1.23155 -0.41332,3.67093 -0.27198,6.33535c0.10381,1.95732 0.49647,3.91935 0.70277,5.75466c0.33894,3.01549 0.50531,5.48064 0.50531,5.48064l-5.16995,0.09207c0,0 -0.99483,-5.47866 -1.73466,-11.38992c-0.21554,-1.72221 -0.57761,-3.74803 -0.67868,-5.35496c-0.17955,-2.85498 0.6224,-4.86115 0.75912,-6.37183c0.27116,-2.99574 3.10903,-3.98307 3.10903,-3.98307l1.81906,6.22942z"/><path d="M218.15051,205.58335c0.02542,1.42764 -1.1113,2.60557 -2.53895,2.63098c-1.42764,0.02542 -2.60556,-1.11129 -2.63099,-2.53894c-0.02542,-1.42764 1.1113,-2.60557 2.53897,-2.631c1.42764,-0.02542 2.60558,1.11131 2.63099,2.53896z"/></g><g fill="#eda164" stroke="#000000" stroke-width="0.5" stroke-linecap="butt"><path d="M227.82619,184.00756c0.15972,-0.36372 1.09834,-1.1477 1.90064,-1.21953c0.53786,-0.04814 0.94566,0.50615 1.27277,0.66922c0.75524,0.37639 0.20531,1.70681 -0.54746,1.59417c-0.44961,-0.06727 -1.02425,-0.49584 -1.2433,0.00293c-0.58577,1.33373 0.34213,3.02508 -0.4827,2.66284c-0.8248,-0.3622 -1.48578,-2.37587 -0.90002,-3.70963z"/><path d="M229.9378,181.08454c0.17435,-1.305 0.6882,-2.31315 1.1477,-2.25177c0.45949,0.06138 0.69065,1.16906 0.51632,2.47405c-0.17435,1.305 -0.68821,2.31315 -1.14771,2.25176c-0.45949,-0.06138 -0.69066,-1.16906 -0.51632,-2.47406z"/><path d="M231.79446,180.73803c0.5546,-1.19408 1.34508,-2.00376 1.76553,-1.80846c0.42043,0.19528 0.31169,1.3216 -0.2429,2.51566c-0.55461,1.19408 -1.34506,2.00377 -1.76548,1.80848c-0.42044,-0.19527 -0.31167,-1.32159 0.24293,-2.51567z"/><path d="M231.35351,183.87662c0.55461,-1.19409 1.34508,-2.00379 1.76551,-1.80853c0.42044,0.19527 0.31172,1.32159 -0.2429,2.51567c-0.5546,1.19408 -1.34507,2.0038 -1.76549,1.80849c-0.42044,-0.19527 -0.31168,-1.3216 0.2429,-2.51567z"/><path d="M232.53464,184.20307c0.5546,-1.19409 1.34506,-2.00379 1.76552,-1.80852c0.42044,0.19527 0.31168,1.32156 -0.24291,2.51565c-0.5546,1.19409 -1.34507,2.00378 -1.7655,1.80849c-0.42043,-0.19528 -0.31169,-1.32158 0.2429,-2.51566z"/><path d="M232.32045,183.19087c1.32021,0.61321 1.81804,2.3427 1.11195,3.86292c-0.70611,1.52026 -2.34874,2.25555 -3.66891,1.64236c-1.32021,-0.6132 -1.81802,-2.34267 -1.11195,-3.86291c0.70611,-1.52026 2.34877,-2.25556 3.66895,-1.64237z"/></g><g fill="#000000" stroke="none" stroke-width="0" stroke-linecap="butt"><path d="M227.67094,184.87579l4.19248,3.02654c0,0 0.42,1.64775 -1.18756,3.88911c-1.09031,1.52016 -3.66007,3.78286 -4.83928,5.53882c-1.55554,2.31634 -3.12464,4.27306 -3.98898,5.47038c-1.3026,1.80442 -3.80536,4.24739 -3.80536,4.24739l-4.19249,-3.02654c0,0 1.37702,-3.02707 2.72608,-4.89583c0.88096,-1.22034 2.97415,-3.17715 4.72525,-5.42289c0.9087,-1.16538 2.7737,-3.31594 3.602,-4.45342c2.1069,-2.89331 2.76788,-4.37354 2.76788,-4.37354z"/><path d="M217.35839,203.57825c1.15773,0.83574 1.41873,2.4518 0.58298,3.60951c-0.83574,1.15773 -2.4518,1.41873 -3.60951,0.58298c-1.15773,-0.83574 -1.41871,-2.45179 -0.58298,-3.60951c0.83574,-1.15773 2.45179,-1.41872 3.60951,-0.58298z"/></g></g><g><path d="M234.39099,215.62356c0,1.63102 -0.75928,2.95323 -1.69591,2.95323c-0.93663,0 -1.69591,-1.3222 -1.69591,-2.95323c0,-1.63102 0.75928,-2.95323 1.69591,-2.95323c0.93663,0 1.69591,1.3222 1.69591,2.95323z" fill="#ffd2a4" stroke="#000000" stroke-width="1.5" stroke-linecap="butt"/><g><path d="M240.49005,174.97864c0.65308,-7.0836 6.92489,-12.29656 14.00849,-11.64348c7.0836,0.65308 12.29655,6.92489 11.64347,14.00848c-0.65308,7.0836 -6.92489,12.29656 -14.00848,11.64348c-7.0836,-0.65308 -12.29656,-6.92489 -11.64348,-14.00849z" fill="#ffc387" stroke="#000000" stroke-width="2.5" stroke-linecap="butt"/><path d="M242.00046,175.67629c0.59243,-6.42583 6.3639,-11.14717 12.89093,-10.54541c6.52703,0.60176 11.33797,6.29875 10.74553,12.72459c-0.59243,6.42583 -6.3639,11.14717 -12.89092,10.54541c-6.52703,-0.60176 -11.33797,-6.29876 -10.74553,-12.72459z" fill="#ffd2a4" stroke="#000000" stroke-width="0" stroke-linecap="butt"/><path d="M243.64067,168.33108c0,0 -1.69933,-9.00071 0.06051,-6.8221c2.32303,2.87582 9.04852,-1.85192 17.27156,1.59236c8.22305,3.44428 3.18689,5.51087 3.18689,5.51087z" fill="#000000" stroke="none" stroke-width="0" stroke-linecap="butt"/><path d="M243.13053,166.77486c-0.48198,-0.04444 -0.43754,-0.52641 -0.43754,-0.52641l0.03529,-0.0057c-0.42929,-1.47311 -0.15803,-3.0621 -0.26925,-4.57834c0,0 -0.02881,-0.39282 0.3199,-0.49573c0.01569,-0.05546 0.04393,-0.11422 0.08887,-0.17554c0.28608,-0.39043 0.67652,-0.10434 0.67652,-0.10434c2.26216,1.66809 5.51913,1.12663 8.0818,0.69382c0.6386,-0.10785 1.19518,0.00362 1.83536,-0.12109c1.45648,-0.10483 2.68054,0.36228 4.08236,0.65198c0.9766,0.20183 1.90784,0.2154 2.80994,0.66952l0.21425,0.13104c0,0 0.41122,0.25528 0.15593,0.66651c-0.25528,0.41122 -0.66651,0.15593 -0.66651,0.15593l-0.1442,-0.09148c-0.79953,-0.41633 -1.69515,-0.40421 -2.56953,-0.58439c-1.28224,-0.26422 -2.42581,-0.73917 -3.75697,-0.63922c-0.6191,0.1133 -1.18282,0.00201 -1.78648,0.11344c-2.66421,0.49179 -5.90676,0.89856 -8.35638,-0.55453c0.03884,1.32046 -0.16871,2.73145 0.21241,3.98694l0.00065,0.37007c0,0 -0.04444,0.48198 -0.52641,0.43754z" fill="#2d2d2d" stroke="none" stroke-width="0.5" stroke-linecap="butt"/><path d="M248.24824,197.92299l0.81763,-8.86838l5.01256,0.46214l-0.81763,8.86838z" fill="#ffd2a4" stroke="#000000" stroke-width="2.5" stroke-linecap="butt"/><path d="M239.16169,216.38586l2.46021,-26.6846c0,0 5.93303,-0.0335 6.76706,2.45926c0.37404,1.11792 2.04019,0.94513 2.93509,1.02764c1.39127,0.12827 1.91088,0.59347 3.57553,-0.65977c2.78938,-2.1 7.67182,-0.89566 7.67182,-0.89566l-2.46021,26.6846z" fill="#00fffa" stroke="#00d7d3" stroke-width="1.5" stroke-linecap="butt"/><path d="M249.27625,215.10866l1.88201,-21.81913" fill="none" stroke="#515151" stroke-width="2.5" stroke-linecap="round"/><path d="M231.92208,212.51054l7.51054,-22.17763c0,0 0.58047,-0.28924 0.768,-0.22365c0.46275,0.16185 2.40692,0.84183 2.40692,0.84183l-7.88325,22.53955z" fill="#00fffa" stroke="#00d7d3" stroke-width="1.5" stroke-linecap="butt"/><path d="M264.87781,216.45815l-3.42391,-23.16318c0,0 0.38482,-0.52203 0.58163,-0.54913c0.48565,-0.06687 2.52606,-0.34782 2.52606,-0.34782l2.78907,20.62068z" fill="#00fffa" stroke="#00d7d3" stroke-width="1.5" stroke-linecap="butt"/><path d="M250.66899,174.80838c-0.21458,2.32746 -1.20888,4.13862 -2.22081,4.04532c-1.01194,-0.0933 -1.65833,-2.05572 -1.44374,-4.38318c0.21458,-2.32746 1.20888,-4.13862 2.22081,-4.04532c1.01194,0.0933 1.65833,2.05571 1.44374,4.38318z" fill="#000000" stroke="none" stroke-width="0" stroke-linecap="butt"/><path d="M258.98419,175.85623c-0.21458,2.32746 -1.20888,4.13862 -2.22081,4.04532c-1.01194,-0.0933 -1.65833,-2.05572 -1.44374,-4.38318c0.21458,-2.32746 1.20888,-4.13862 2.22081,-4.04532c1.01194,0.0933 1.65833,2.05572 1.44374,4.38318z" fill="#000000" stroke="none" stroke-width="0" stroke-linecap="butt"/><path d="M254.22349,182.83153l-0.20115,0.15395c-0.17963,0.18808 -0.26661,0.48618 -0.23425,0.74423c-0.0505,0.36465 0.02538,0.7711 -0.1515,1.09395c-0.38929,0.71059 -1.44338,0.57879 -2.0945,0.67937c-1.56564,0.24187 -3.21772,0.56337 -4.63913,-0.3913c-1.30725,-0.878 -1.67665,-2.68441 -1.90094,-4.13324c0,0 -0.06472,-0.41961 0.29991,-0.5619c0.11193,-0.3914 0.54786,-0.35121 0.54786,-0.35121c2.67619,0.24673 5.37016,0.54768 7.97105,1.16143l0.42788,0.03416c0,0 0.52212,0.04814 0.47398,0.57025c-0.02537,0.27514 -0.18235,0.39192 -0.32519,0.44084c0.11554,0.3188 -0.174,0.55946 -0.174,0.55946z" fill="#000000" stroke="none" stroke-width="0.5" stroke-linecap="butt"/></g></g><path d="M213.01943,221.96914c-1.65685,0 -3,-1.34315 -3,-3v-77.93828c0,-1.65685 1.34315,-3 3,-3h53.96114c1.65685,0 3,1.34315 3,3v77.93828c0,1.65685 -1.34315,3 -3,3zM262.96734,217.21427c1.38071,0 2.5,-1.11929 2.5,-2.5v-69.42854c0,-1.38071 -1.11929,-2.5 -2.5,-2.5h-45.93468c-1.38071,0 -2.5,1.11929 -2.5,2.5v69.42854c0,1.38071 1.11929,2.5 2.5,2.5z" fill="#181ed2" stroke="none" stroke-width="0" stroke-linecap="butt"/><path d="M214.07078,221.72212l0.26613,-1.63154l-1.12736,-1.15546l1.55798,-0.23804l0.69675,-1.48442l0.69675,1.48442l1.55798,0.23804l-1.12736,1.15546l0.26613,1.63154l-1.3935,-0.77031z" fill="#000000" stroke="none" stroke-width="0" stroke-linecap="butt"/><text transform="translate(214.5139,142.06931) scale(0.10938,0.10938)" font-size="40" xml:space="preserve" fill="#000000" stroke="none" stroke-width="1" stroke-linecap="butt" font-family="Sans Serif" font-weight="normal" text-anchor="start"><tspan x="0" dy="0">Axl and Classic Axl</tspan></text><text transform="translate(218.38029,221.37117) scale(0.0984,0.0984)" font-size="40" xml:space="preserve" fill="#000000" stroke="none" stroke-width="1" stroke-linecap="butt" font-family="Sans Serif" font-weight="normal" text-anchor="start"><tspan x="0" dy="0">12/27</tspan></text><text transform="translate(239.57666,220.8475) scale(0.09461,0.09461)" font-size="40" xml:space="preserve" fill="#000000" stroke="none" stroke-width="1" stroke-linecap="butt" font-family="Sans Serif" font-weight="normal" text-anchor="start"><tspan x="0" dy="0">Core Collection</tspan></text></g></g></svg>