<svg version="1.1" xmlns="http://www.w3.org/2000/svg" xmlns:xlink="http://www.w3.org/1999/xlink" width="72.1039" height="93.43041" viewBox="0,0,72.1039,93.43041"><defs><linearGradient x1="240" y1="138.03086" x2="240" y2="221.96914" gradientUnits="userSpaceOnUse" id="color-1"><stop offset="0" stop-color="#e2a820"/><stop offset="1" stop-color="#cc741d"/></linearGradient><linearGradient x1="240" y1="169.94463" x2="240" y2="221.96914" gradientUnits="userSpaceOnUse" id="color-2"><stop offset="0" stop-color="#cc741d" stop-opacity="0"/><stop offset="1" stop-color="#cc741d"/></linearGradient><linearGradient x1="240" y1="169.94463" x2="240" y2="221.96914" gradientUnits="userSpaceOnUse" id="color-3"><stop offset="0" stop-color="#cc741d" stop-opacity="0"/><stop offset="1" stop-color="#cc741d"/></linearGradient><linearGradient x1="240" y1="169.94463" x2="240" y2="221.96914" gradientUnits="userSpaceOnUse" id="color-4"><stop offset="0" stop-color="#cc741d" stop-opacity="0"/><stop offset="1" stop-color="#cc741d"/></linearGradient><linearGradient x1="240" y1="168.65847" x2="240" y2="220.68298" gradientUnits="userSpaceOnUse" id="color-5"><stop offset="0" stop-color="#cc741d" stop-opacity="0"/><stop offset="1" stop-color="#cc741d"/></linearGradient></defs><g transform="translate(-203.94805,-133.28478)"><g stroke-miterlimit="10"><path d="M213.01943,221.96914c-1.65685,0 -3,-1.34315 -3,-3v-77.93828c0,-1.65685 1.34315,-3 3,-3h53.96114c1.65685,0 3,1.34315 3,3v77.93828c0,1.65685 -1.34315,3 -3,3z" fill="#9763ff" stroke="#000000" stroke-width="4" stroke-linecap="butt"/><path d="M213.01943,221.96914c-1.65685,0 -3,-1.34315 -3,-3v-77.93828c0,-1.65685 1.34315,-3 3,-3h53.96114c1.65685,0 3,1.34315 3,3v77.93828c0,1.65685 -1.34315,3 -3,3z" fill="url(#color-1)" stroke="#000000" stroke-width="0" stroke-linecap="butt"/><g><path d="M231.75257,208.3483c0,0 -1.04398,-6.17853 -1.64979,-10.47003c-0.69944,-4.95473 -4.98537,-17.99912 -4.98073,-24.85918c0.00211,-3.11575 4.33934,-4.23633 4.33934,-4.23633l14.58987,-1.69456c0,0 3.92194,0.31556 4.57534,3.0392c1.4323,5.97046 1.51655,18.74336 2.20525,23.62212c0.69632,4.93265 -0.23129,12.2451 -0.23129,12.2451z" fill="#212121" stroke="none" stroke-width="0" stroke-linecap="butt"/><g fill="#000000" stroke="none" stroke-width="0" stroke-linecap="butt"><path d="M226.60919,175.00399c0,0 -0.00192,1.66863 -0.64694,3.19639c-0.4685,1.10969 -2.03942,2.96436 -3.14047,5.31844c-0.80886,1.72933 -1.37172,3.59523 -2.03655,5.26675c-1.09235,2.74637 -2.08047,4.94072 -2.08047,4.94072l-4.48417,-2.29298c0,0 1.65898,-5.16362 3.73552,-10.58192c0.60499,-1.57859 1.2234,-3.48527 1.87386,-4.91228c1.15565,-2.53534 2.76514,-3.89105 3.57574,-5.12628c1.60748,-2.44948 4.49874,-1.9957 4.49874,-1.9957l-1.29527,6.18684z"/><path d="M218.62832,193.87577c-0.63319,1.23827 -2.1503,1.72878 -3.38857,1.09559c-1.23827,-0.63319 -1.72878,-2.1503 -1.09559,-3.38857c0.63319,-1.23827 2.1503,-1.72878 3.38859,-1.09559c1.23827,0.63319 1.72878,2.15031 1.09559,3.38858z"/></g><g fill="#000000" stroke="none" stroke-width="0" stroke-linecap="butt"><path d="M239.44169,195.75738l-1.06513,4.9225c0,0 -1.30664,1.01777 -3.93419,0.45768c-1.78209,-0.37989 -4.80414,-1.79035 -6.83135,-2.15757c-2.67417,-0.48441 -5.0327,-1.12124 -6.4385,-1.42543c-2.11861,-0.45842 -5.27539,-1.73877 -5.27539,-1.73877l1.06513,-4.92251c0,0 3.23881,0.04777 5.43296,0.52254c1.43283,0.31003 3.99594,1.41455 6.6834,2.10104c1.39461,0.35624 4.0416,1.18152 5.37992,1.47689c3.40422,0.75133 4.98317,0.76364 4.98317,0.76364z"/><path d="M218.72685,193.8516c-0.29412,1.35931 -1.63451,2.22281 -2.99382,1.92868c-1.35931,-0.29412 -2.22281,-1.63451 -1.92869,-2.99381c0.29412,-1.35931 1.63451,-2.22281 2.99382,-1.92869c1.35931,0.29412 2.22282,1.63451 1.92869,2.99382z"/></g><g fill="#000000" stroke="none" stroke-width="0" stroke-linecap="butt"><path d="M248.28729,173.5729l-3.00031,-5.56353c0,0 2.64304,-1.25685 4.88043,0.63472c1.12826,0.95388 3.0567,1.79622 4.88529,3.89853c1.02922,1.18328 2.16406,2.83556 3.19278,4.17709c3.53092,4.60462 6.58912,9.08375 6.58912,9.08375l-3.64751,3.47293c0,0 -1.57105,-1.82301 -3.39895,-4.14563c-1.1125,-1.41362 -2.18249,-3.04257 -3.44951,-4.47069c-1.72473,-1.94403 -3.75801,-3.27573 -4.52259,-4.20648c-1.05263,-1.28143 -1.52876,-2.8807 -1.52876,-2.8807z"/><path d="M261.30285,189.39799c-0.95902,-1.00723 -0.91995,-2.60119 0.08729,-3.56022c1.00724,-0.95903 2.60119,-0.91995 3.56022,0.08729c0.95902,1.00723 0.91995,2.60119 -0.08729,3.56022c-1.00723,0.95902 -2.60119,0.91995 -3.56022,-0.08729z"/></g><g fill="#000000" stroke="none" stroke-width="0" stroke-linecap="butt"><path d="M241.14837,194.9899c0,0 1.54795,-0.31158 4.74785,-1.69501c1.258,-0.54386 3.70039,-1.85627 5.0021,-2.47059c2.50845,-1.1838 4.81552,-2.75444 6.16353,-3.33063c2.06424,-0.88236 5.2352,-1.54362 5.2352,-1.54362l1.97953,4.63109c0,0 -2.85659,1.85591 -4.84979,2.70788c-1.32259,0.56534 -3.5175,1.63796 -6.05122,2.62086c-1.92075,0.74509 -4.6204,2.7032 -6.29806,3.41423c-2.4736,1.04835 -3.94958,0.2969 -3.94958,0.2969l-1.97953,-4.63109z"/><path d="M262.45141,185.88405c1.27884,-0.54663 2.75868,0.04694 3.30531,1.32577c0.54663,1.27885 -0.04694,2.75868 -1.32578,3.30532c-1.27884,0.54663 -2.75868,-0.04694 -3.30532,-1.32578c-0.54663,-1.27885 0.04694,-2.75868 1.32578,-3.30532z"/></g><g><path d="M245.76255,157.19542c0.45722,5.49774 -2.87989,10.2629 -7.45364,10.64328c-3.41427,0.28395 -6.47831,-1.06351 -8.04021,-4.50431c-0.282,-0.62123 -1.00418,0.20703 -2.08866,-0.73587c-0.95538,-0.83065 -2.46558,-4.67341 -1.88947,-5.24369c1.04843,-1.03784 2.88601,-1.08568 3.10705,-2.15287c0.81901,-3.95421 3.65385,-6.97281 7.25557,-7.27234c4.57375,-0.38038 8.65216,3.76807 9.10938,9.26581z" fill="#e1e1e1" stroke="#000000" stroke-width="1" stroke-linecap="butt"/><path d="M229.31775,161.68251c-0.83651,0.06957 -0.90608,-0.76694 -0.90608,-0.76694l0.06721,-0.01071c-0.45802,-0.86924 -1.15003,-2.0359 -0.7436,-3.07331c0.01435,-0.03664 0.0297,-0.07274 0.04594,-0.10839l-0.01664,-0.00555l0.19954,-0.5983c-0.20486,-0.13729 -0.34761,-0.36318 -0.36963,-0.62806l-0.0739,-0.88862c-0.11356,-0.23012 -0.22714,-0.46025 -0.34071,-0.69037c0,0 -0.35886,-0.75883 0.39996,-1.11768c0.10338,-0.0489 0.19935,-0.07704 0.28799,-0.08919c0.04235,-0.04773 0.08259,-0.09371 0.12023,-0.13774l0.46017,-0.77245c0.00822,-0.0142 0.01685,-0.02814 0.02586,-0.04181c-0.03383,-0.15543 -0.06642,-0.30764 -0.104,-0.44825c-0.44643,-1.6699 0.79605,-3.75077 1.44451,-5.18083l0.14497,-0.07679l-0.0434,-0.04407l0.61891,-0.60947c0.13543,-0.13527 0.31762,-0.22518 0.52333,-0.24229c0.31376,-0.02609 0.60153,0.1239 0.76594,0.36755c0.11027,-0.06945 0.2384,-0.11416 0.37725,-0.12571c0.27331,-0.02273 0.52689,0.08816 0.6964,0.27816c0.28463,-0.13623 0.55999,-0.24462 0.78138,-0.30013c0.18036,-0.2319 0.39744,-0.4916 0.66526,-0.80801l0.61355,-0.72486c0.13879,-0.16397 0.34013,-0.27499 0.57113,-0.2942c0.462,-0.03842 0.86766,0.30495 0.90608,0.76694c0.01393,0.16748 -0.02232,0.32757 -0.09621,0.46543l-0.29679,0.57621l0.42368,-0.08308c0.03387,-0.00711 0.06854,-0.0122 0.10392,-0.01515c0.27448,-0.02283 0.52908,0.08911 0.69859,0.28063l0.76509,-0.26032c0.06883,-0.02511 0.1421,-0.04155 0.21863,-0.04791c0.462,-0.03842 0.86766,0.30495 0.90608,0.76694c0.00336,0.04037 0.0038,0.08031 0.0015,0.11962c0.10803,-0.05376 0.21724,-0.10492 0.32763,-0.15326l0.83736,-0.396c0.09313,-0.04673 0.19658,-0.0768 0.30678,-0.08596c0.462,-0.03842 0.86766,0.30495 0.90608,0.76694c0.00969,0.11653 -0.00491,0.22948 -0.03958,0.33385l-0.26819,0.87461c0.07293,-0.03536 0.14651,-0.06893 0.22054,-0.10069l0.03344,-0.00171l-0.00315,-0.00925l0.85591,-0.29122c0.06883,-0.02511 0.1421,-0.04155 0.21863,-0.04791c0.462,-0.03842 0.86766,0.30495 0.90608,0.76694c0.01082,0.13015 -0.00866,0.25584 -0.05255,0.37009c0.08774,0.04173 0.18007,0.08921 0.27722,0.14283c0.23196,0.12802 0.3879,0.30037 0.48385,0.50336c0.41097,0.02348 0.75249,0.34651 0.78758,0.76851c0.00315,0.03782 0.00373,0.07526 0.0019,0.11215c0.0079,0.03608 0.01351,0.0731 0.01665,0.11092c0.0106,0.12745 -0.00786,0.25061 -0.04984,0.36296l-0.35035,1.00561c-0.10108,0.3125 -0.38164,0.54952 -0.72941,0.57844c-0.00859,0.00071 -0.01716,0.0013 -0.0257,0.00175c-0.07782,0.09445 -0.15764,0.18739 -0.23917,0.27898l0.08388,0.0489l-0.68208,1.17014c-0.13215,0.23368 -0.37384,0.40002 -0.66154,0.42395c-0.15856,0.01319 -0.31048,-0.0186 -0.44321,-0.08472c-0.04012,0.00944 -0.08144,0.01604 -0.12375,0.01956c-0.44231,0.03678 -0.83299,-0.27638 -0.8992,-0.70855c-0.10668,0.04075 -0.21093,0.07756 -0.30455,0.11229c-0.16886,0.06264 -0.35606,0.11277 -0.55505,0.15427c-0.31632,0.262 -0.58569,0.602 -0.9694,0.73335c-0.57104,0.19547 -1.20423,0.08387 -1.80634,0.12581l-0.15366,-0.42698c-0.46531,0.15861 -0.89377,0.43995 -1.35588,0.61038c-0.08911,0.07052 -0.1772,0.14173 -0.25491,0.21993l-0.83182,0.27817c-0.06285,0.03038 -0.13026,0.05323 -0.20116,0.06726l-0.7365,0.24629c-0.066,0.0551 -0.12696,0.09831 -0.18034,0.12754c-0.11103,0.06078 -0.232,0.06867 -0.35806,0.05251l-0.1228,0.04107c0.0077,-0.01937 0.01539,-0.03876 0.02309,-0.05813c-0.10223,-0.0213 -0.20688,-0.05307 -0.31152,-0.08075l-0.13222,0.23914l-0.04312,-0.02384c-0.04621,0.11431 -0.09222,0.22654 -0.13818,0.33701c-0.17442,0.86852 -0.3069,1.73599 -0.22854,2.51059l0.07421,0.89229c0.03842,0.462 -0.30495,0.86766 -0.76694,0.90608c-0.22294,0.01854 -0.43276,-0.05183 -0.59454,-0.18153c-0.11907,0.08526 -0.262,0.14046 -0.41856,0.15348c-0.14283,0.01188 -0.28027,-0.01274 -0.40314,-0.06606c-0.00468,0.20151 -0.07857,0.77996 -0.7681,0.8373z" fill="#5e5e5e" stroke="none" stroke-width="0.5" stroke-linecap="butt"/><g stroke-width="1"><g fill="#353535" stroke-linecap="butt"><path d="M232.45733,163.0691c-0.90016,-1.07549 -0.35259,-1.81803 -0.47571,-3.44129c-0.04994,-0.65843 -2.29562,-1.47775 -2.51169,-2.26925c-0.2154,-0.78904 0.30186,-1.61103 0.50439,-2.17757c0.34301,-0.95952 2.64287,-1.32015 3.36809,-1.49981c2.5104,-0.62193 6.58584,-1.00696 9.9874,-0.42943c0.63547,0.10789 2.0937,0.3718 2.72479,1.39753c0.22911,0.37239 0.52256,0.8569 0.53946,1.40751c0.02006,0.65284 -0.25812,1.39109 -0.21286,2.03911c0.11192,1.60275 0.77307,2.53874 0.10731,3.80629c-0.85265,1.62336 -2.36623,2.37138 -5.89569,3.02869c-0.09743,0.01815 -1.33097,0.28349 -2.83862,0.11776c-2.07289,-0.22787 -4.66055,-1.2193 -5.29686,-1.97954z" stroke="#000000"/><path d="M233.58742,147.75996c0.13865,-0.18991 0.35589,-0.32082 0.6086,-0.34184c0.462,-0.03842 0.86766,0.30495 0.90608,0.76694c0.01711,0.2057 -0.04147,0.40023 -0.15252,0.55616l-0.19246,0.27433c-0.04224,0.11593 -0.10947,0.22055 -0.19567,0.30678l-0.06752,0.06836l-0.01123,0.01602c-0.21802,0.47223 -0.39798,0.92962 -0.53412,1.38247l0.0107,0.03162c0.23244,1.13282 0.74608,2.13092 1.21145,3.18103c0.21727,0.49028 0.75693,0.97983 0.60015,1.49266c-0.164,0.53646 -0.82861,0.81096 -1.35966,0.99171c-0.95377,0.32461 -2.8676,0.09615 -3.68209,-0.81544c-0.13303,-0.14889 -0.23672,-0.31599 -0.30214,-0.50189c-0.17071,-0.48518 0.1304,-1.02186 0.24264,-1.5238c0.08164,-0.36507 0.19783,-0.76019 0.33276,-1.16406c0.07266,-0.83256 0.50633,-1.70842 0.95741,-2.47646c0.00449,-0.0108 0.00895,-0.02156 0.01341,-0.03228c0.15205,-0.36597 0.24629,-0.85609 0.60572,-1.02301c0.01278,-0.00593 0.02555,-0.01072 0.03832,-0.01445c0.01158,-0.0189 0.02303,-0.03762 0.03432,-0.05617l-0.00584,-0.00577l0.02422,-0.02452c0.00497,-0.00821 0.00991,-0.01638 0.01481,-0.02451l0.01474,-0.00541l0.0652,-0.06601l-0.00846,-0.00859l0.38407,-0.37822z" stroke="#000000"/><path d="M242.80678,147.86267l0.35122,0.40892l-0.00915,0.00786l0.05947,0.07122l0.01424,0.00661c0.00421,0.00852 0.00844,0.01707 0.01272,0.02566l0.02209,0.02645l-0.0063,0.00525c0.0097,0.01942 0.01954,0.03903 0.02952,0.05884c0.01242,0.00478 0.02474,0.01061 0.03698,0.01759c0.34426,0.1963 0.39733,0.69257 0.51833,1.06994c0.00355,0.01106 0.0071,0.02216 0.01068,0.03329c0.38549,0.80296 0.74464,1.71192 0.74765,2.54764c0.1008,0.41372 0.18364,0.81714 0.23457,1.18776c0.07002,0.50954 0.32534,1.06947 0.11478,1.53872c-0.57464,1.28065 -3.00597,1.44942 -4.08017,0.98062c-0.51414,-0.22438 -1.15355,-0.55333 -1.27227,-1.1016c-0.11349,-0.52412 0.46512,-0.96698 0.72249,-1.43743c0.55127,-1.00767 1.14633,-1.95948 1.4724,-3.06898l0.0133,-0.03062c-0.09792,-0.46264 -0.23912,-0.93341 -0.41702,-1.42219l-0.00985,-0.01689l-0.06158,-0.07375c-0.07871,-0.09313 -0.13698,-0.20299 -0.16941,-0.32203l-0.16892,-0.28942c-0.09766,-0.16464 -0.13982,-0.36338 -0.10562,-0.56694c0.07679,-0.45719 0.50969,-0.76555 0.96686,-0.68874c0.25009,0.04201 0.45565,0.19057 0.57799,0.39138z" stroke="#000000"/><path d="M245.62475,156.14627c-0.0848,0.07535 -0.16831,0.12905 -0.24935,0.1656c0.00757,0.2155 -0.03209,0.42146 -0.1416,0.60327c-0.28449,0.47232 -1.10053,0.08754 -1.65191,0.08603c-1.67459,-0.00458 -3.25089,-0.5072 -4.88462,-0.81506c-0.38395,-0.07235 -0.81958,-0.18076 -1.26266,-0.27554c-0.08457,0.08775 -0.18836,0.15741 -0.30538,0.2019c0.05303,0.09853 0.08711,0.20933 0.09697,0.32796c0.03543,0.42605 -0.25382,0.80418 -0.66137,0.89059l-0.91374,0.20901l-0.00397,-0.01739c-0.02661,0.01116 -0.05342,0.02191 -0.08045,0.03221c-0.68931,0.2627 -1.47479,0.05387 -2.2102,0.11148l-0.09226,-0.03744l-0.00428,0.02869l-1.14307,-0.17056c-0.32946,-0.04201 -0.60519,-0.27705 -0.69855,-0.5962c-0.21443,0.10821 -0.68611,0.25878 -1.05815,-0.24655c-0.49766,-0.67596 -0.03278,-1.39673 -0.03278,-1.39673c1.42306,-1.0369 2.36873,-1.30735 3.96558,-1.22467c0.214,-0.07993 1.05422,-0.42217 1.28164,-0.44308c0.75408,-0.0693 1.5613,0.53199 2.38958,0.69981c0.08054,-0.17431 0.21947,-0.31768 0.39378,-0.40293l0.75795,-0.39245l0.0168,0.03244c0.05403,-0.03668 0.10992,-0.07083 0.16801,-0.10198c0.58556,-0.31401 1.6468,0.13056 2.20331,0.24257c1.46898,0.29562 2.47671,0.04364 3.80838,0.91388l0.38226,0.39009c0,0 0.55756,0.62747 -0.06991,1.18504z" stroke="none"/></g><path d="M237.78975,158.55772l-0.30678,0.36243l-0.65993,0.16719l-1.45924,0.00905l-1.15709,-0.40915l-0.68302,-0.78549l0.96208,-0.58539l1.00382,-0.08348l1.41274,0.10712z" fill="none" stroke="#000000" stroke-linecap="round"/><path d="M242.08409,156.85289l1.37564,-0.33902l1.00382,-0.08348l1.04557,0.41842l-0.54387,0.88753l-1.07362,0.59467l-1.44069,0.23212l-0.67849,-0.05588l-0.36243,-0.30678z" fill="none" stroke="#000000" stroke-linecap="round"/><path d="M239.89471,164.61568l0.12522,1.50573" fill="none" stroke="#000000" stroke-linecap="round"/><path d="M238.97878,166.20778l-0.1621,-1.5022" fill="none" stroke="#000000" stroke-linecap="round"/><path d="M237.89531,166.04532l-0.1003,-1.50759" fill="none" stroke="#000000" stroke-linecap="round"/><path d="M236.88294,165.90488l-0.09802,-1.50774" fill="none" stroke="#000000" stroke-linecap="round"/><path d="M235.78414,165.71504l-0.06596,-1.50949" fill="none" stroke="#000000" stroke-linecap="round"/><path d="M234.71624,163.92405l0.05768,1.50982" fill="none" stroke="#000000" stroke-linecap="round"/><path d="M233.72046,163.44487l0.08268,1.50866" fill="none" stroke="#000000" stroke-linecap="round"/><path d="M232.7554,164.33641l0.00075,-1.51092" fill="none" stroke="#000000" stroke-linecap="round"/><path d="M241.13017,165.94262l-0.24045,-1.49167" fill="none" stroke="#000000" stroke-linecap="round"/><path d="M242.03066,164.21373l0.16609,1.50177" fill="none" stroke="#000000" stroke-linecap="round"/><path d="M243.23685,165.48574l-0.26184,-1.48807" fill="none" stroke="#000000" stroke-linecap="round"/><path d="M244.40447,165.05396l-0.19893,-1.49778" fill="none" stroke="#000000" stroke-linecap="round"/><path d="M245.56315,164.56486l-0.18321,-1.49978" fill="none" stroke="#000000" stroke-linecap="round"/><path d="M246.20387,162.22865l0.26862,1.48685" fill="none" stroke="#000000" stroke-linecap="round"/></g></g><path d="M244.89936,201.79509c-2.02286,1.92082 -3.48206,0.34751 -4.33756,-1.78329c-0.64651,1.2086 -1.44057,2.39384 -2.23807,3.32065c-0.29425,0.94275 -1.13535,1.66028 -2.18015,1.74717c-1.37596,0.11443 -2.58416,-0.90824 -2.6986,-2.2842c-0.02725,-0.32767 0.00998,-0.64583 0.10112,-0.94196c0.54775,-2.40514 3.11189,-6.26459 4.42338,-7.46271c0.59402,-0.54268 1.75661,-0.6974 2.67734,-0.4572c0.3559,-0.25655 0.78392,-0.42267 1.25299,-0.46168c0.46132,-0.03837 0.90378,0.05109 1.2925,0.23882c0.39811,-0.37748 0.92259,-0.6271 1.51187,-0.67611c1.21174,-0.10077 2.29337,0.68033 2.61246,1.80797c1.46151,1.2347 2.91548,2.79587 3.29576,3.92759c0.65816,1.95867 -0.65012,4.02234 -2.78051,3.67416c-0.52445,-0.08572 -1.30932,-0.7009 -2.12223,-1.55827c-0.18439,0.3237 -0.48307,0.59835 -0.8103,0.90906z" fill="#212121" stroke="none" stroke-width="0.5" stroke-linecap="butt"/><path d="M245.57899,193.21823l4.73527,5.32898" fill="none" stroke="#000000" stroke-width="1.5" stroke-linecap="round"/><path d="M237.54492,194.69498l-4.87625,7.11115" fill="none" stroke="#000000" stroke-width="1.5" stroke-linecap="round"/><g fill="none" stroke="none" stroke-width="1" stroke-linecap="butt" font-family="sans-serif" font-weight="normal" font-size="12" text-anchor="start"/><g fill="none" stroke="none" stroke-width="1" stroke-linecap="butt" font-family="sans-serif" font-weight="normal" font-size="12" text-anchor="start"/></g><path d="M212.51943,221.96914c-1.38071,0 -2.5,-1.11929 -2.5,-2.5v-47.02451c0,-1.38071 1.11929,-2.5 2.5,-2.5h54.96114c1.38071,0 2.5,1.11929 2.5,2.5v47.02451c0,1.38071 -1.11929,2.5 -2.5,2.5z" fill="url(#color-2)" stroke="none" stroke-width="0" stroke-linecap="butt"/><path d="M212.51943,221.96914c-1.38071,0 -2.5,-1.11929 -2.5,-2.5v-47.02451c0,-1.38071 1.11929,-2.5 2.5,-2.5h54.96114c1.38071,0 2.5,1.11929 2.5,2.5v47.02451c0,1.38071 -1.11929,2.5 -2.5,2.5z" fill="url(#color-3)" stroke="none" stroke-width="0" stroke-linecap="butt"/><path d="M212.51943,221.96914c-1.38071,0 -2.5,-1.11929 -2.5,-2.5v-47.02451c0,-1.38071 1.11929,-2.5 2.5,-2.5h54.96114c1.38071,0 2.5,1.11929 2.5,2.5v47.02451c0,1.38071 -1.11929,2.5 -2.5,2.5z" fill="url(#color-4)" stroke="none" stroke-width="0" stroke-linecap="butt"/><g stroke="none" stroke-linecap="butt"><path d="M212.51943,220.68298c-1.38071,0 -2.5,-1.11929 -2.5,-2.5v-47.02451c0,-1.38071 1.11929,-2.5 2.5,-2.5h54.96114c1.38071,0 2.5,1.11929 2.5,2.5v47.02451c0,1.38071 -1.11929,2.5 -2.5,2.5z" fill="url(#color-5)" stroke-width="0"/><path d="M242.84149,222.29773l27.3738,-34.37208v4.78895l-23.5599,29.58313zM252.69006,222.29773l17.52524,-22.00568v4.78895l-13.71134,17.21672zM261.74237,222.29773l8.47293,-10.63908v4.78895l-4.65902,5.85014zM209.7847,148.40736l8.5255,-10.70509h3.8139l-12.3394,15.49405zM209.7847,160.77377l18.37406,-23.0715h3.81391l-22.18797,27.86046z" fill="#000000" stroke-width="NaN"/></g><path d="M214.07078,221.72212l0.26613,-1.63154l-1.12736,-1.15546l1.55798,-0.23804l0.69675,-1.48442l0.69675,1.48442l1.55798,0.23804l-1.12736,1.15546l0.26613,1.63154l-1.3935,-0.77031z" fill="#000000" stroke="none" stroke-width="0" stroke-linecap="butt"/><path d="M219.24056,221.72212l0.26613,-1.63154l-1.12736,-1.15546l1.55798,-0.23804l0.69675,-1.48442l0.69675,1.48442l1.55798,0.23804l-1.12737,1.15546l0.26614,1.63154l-1.3935,-0.77031z" fill="#000000" stroke="none" stroke-width="0" stroke-linecap="butt"/><path d="M224.45301,221.72212l0.26613,-1.63154l-1.12736,-1.15546l1.55798,-0.23804l0.69675,-1.48442l0.69675,1.48442l1.55798,0.23804l-1.12737,1.15546l0.26614,1.63154l-1.3935,-0.77031z" fill="#000000" stroke="none" stroke-width="0" stroke-linecap="butt"/><path d="M229.65681,221.76306l0.26613,-1.63154l-1.12736,-1.15546l1.55798,-0.23804l0.69675,-1.48442l0.69675,1.48442l1.55798,0.23804l-1.12737,1.15546l0.26614,1.63154l-1.3935,-0.77031z" fill="#000000" stroke="none" stroke-width="0" stroke-linecap="butt"/><text transform="translate(220.47015,209.59594) rotate(-8.4395) scale(0.4003,0.4003)" font-size="40" xml:space="preserve" fill="#481500" stroke="none" stroke-width="1" stroke-linecap="butt" font-family="Marker" font-weight="normal" text-anchor="start"><tspan x="0" dy="0">Axl</tspan></text><text transform="translate(240.71404,141.71091) scale(0.09461,0.09461)" font-size="40" xml:space="preserve" fill="#000000" stroke="none" stroke-width="1" stroke-linecap="butt" font-family="Sans Serif" font-weight="normal" text-anchor="start"><tspan x="0" dy="0">Core Collection</tspan></text><text transform="translate(234.28388,221.37117) scale(0.0984,0.0984)" font-size="40" xml:space="preserve" fill="#000000" stroke="none" stroke-width="1" stroke-linecap="butt" font-family="Sans Serif" font-weight="normal" text-anchor="start"><tspan x="0" dy="0">21/27</tspan></text><path d="M203.94805,226.7152v-93.43041h72.1039v93.43041z" fill="none" stroke="none" stroke-width="0" stroke-linecap="butt"/></g></g></svg>