<svg version="1.1" xmlns="http://www.w3.org/2000/svg" xmlns:xlink="http://www.w3.org/1999/xlink" width="55.3339" height="109.58361" viewBox="0,0,55.3339,109.58361"><g transform="translate(-212.33305,-125.33319)"><g stroke="#262626" stroke-miterlimit="10"><g><path d="M240,127.08319c14.31354,0 25.91695,11.60342 25.91695,25.91695c0,14.31354 -11.60342,25.91695 -25.91695,25.91695c-14.31354,0 -25.91695,-11.60342 -25.91695,-25.91695c0,-14.31354 11.60342,-25.91695 25.91695,-25.91695z" fill="#f1f1f1" stroke-width="3.5" stroke-linecap="butt"/><path d="M239.25,180.1668v38" fill="none" stroke-width="4" stroke-linecap="round"/><path d="M217,203.6668l22.25,-15.75l23.75,14.5" fill="none" stroke-width="4" stroke-linecap="round"/><path d="M228.25,232.16681l10.5,-16l8.25,16.75" fill="none" stroke-width="4" stroke-linecap="round"/></g><g fill="none"><path d="M231.31995,148.96297v11.7867" stroke-width="3.5" stroke-linecap="round"/><path d="M252.41194,153.51222h-12.82062" stroke-width="3.5" stroke-linecap="round"/><path d="M253.23908,154.0714c0,3.00309 -1.71274,5.43757 -3.82551,5.43757c-2.11277,0 -3.82551,-2.43448 -3.82551,-5.43757c0,-0.15641 7.65101,-0.2206 7.65101,0z" stroke-width="2" stroke-linecap="butt"/><path d="M261.68005,147.96623v11.7867" stroke-width="3.5" stroke-linecap="round"/></g></g></g></svg>