<svg viewBox="0,0,56.23664,57.11393" height="57.11393" width="56.23664" xmlns:xlink="http://www.w3.org/1999/xlink" xmlns="http://www.w3.org/2000/svg" version="1.1"><g transform="translate(-212.29415,-151.11518)"><g style="mix-blend-mode: normal" stroke-dashoffset="0" stroke-dasharray="" stroke-miterlimit="10" stroke-linejoin="miter" fill-rule="nonzero" data-paper-data="{&quot;isPaintingLayer&quot;:true}"><path stroke-linecap="butt" stroke-width="3.5" stroke="#909090" fill="#bebebe" d="M214.08305,180.00001c0,-14.31354 11.60342,-25.91695 25.91695,-25.91695c14.31354,0 25.91695,11.60342 25.91695,25.91695c0,14.31354 -11.60342,25.91695 -25.91695,25.91695c-14.31354,0 -25.91695,-11.60342 -25.91695,-25.91695z"></path><path stroke-linecap="round" stroke-width="3.5" stroke="#909090" fill="none" d="M245.00897,180.88176h20.8894"></path><path stroke-linecap="round" stroke-width="3.5" stroke="#909090" fill="none" d="M255.73596,172.1308c0,0 1.41145,5.43433 1.41145,9.59783c0,4.21055 -1.69374,7.9041 -1.69374,7.9041"></path><path stroke-linecap="butt" stroke-width="3.5" stroke="#373737" fill="#4b4b4b" d="M229.20879,180.89368c0.137,-12.43837 -4.86225,-21.75255 -0.17344,-24.74071c5.27643,-3.36264 17.46186,-5.36389 26.19147,0.15765c8.41603,5.32319 10.99117,21.48633 10.99117,24.21551c0,2.35296 -0.90115,16.41036 -11.42883,22.5446c-9.92926,5.78555 -22.4728,2.8579 -26.61639,0.98491c-5.06648,-2.29017 0.81484,-3.0818 1.03601,-23.16195z"></path><path stroke-linecap="butt" stroke-width="2.5" stroke="#373737" fill="#ab0000" d="M240.94027,174.25024l-4.95195,-12.10202l5.82267,-2.38254l4.95195,12.10203z"></path><path stroke-linecap="butt" stroke-width="2.5" stroke="#373737" fill="#ab0000" data-paper-data="{&quot;index&quot;:null}" d="M246.76294,185.68674l-4.95195,12.10203l-5.82267,-2.38255l4.95195,-12.10202z"></path><path stroke-linecap="butt" stroke-width="3.5" stroke="#555555" fill="#676767" d="M252.26028,186.63798l0.76423,-13.60343l9.47655,-5.96106c0,0 4.27973,8.58526 4.27973,12.68635c0,4.15204 -3.66834,14.52051 -3.66834,14.52051z"></path><path stroke-linecap="round" stroke-width="3.5" stroke="#555555" fill="none" d="M256.99855,176.39719l9.01801,0.15285"></path><path stroke-linecap="round" stroke-width="3.5" stroke="#555555" fill="none" d="M266.12544,180.63295l-9.01801,-0.15285"></path><path stroke-linecap="round" stroke-width="3.5" stroke="#555555" fill="none" d="M256.75777,184.56302l9.018,0.15285"></path><path stroke-linecap="butt" stroke-width="3.5" stroke="#212121" fill="#333333" d="M223.04445,205.14323c-2.81596,-1.25722 -7.56561,-8.65927 -9.0003,-17.97856c-1.31461,-8.53926 0.48416,-18.93542 2.1512,-22.48292c1.87836,-3.99719 5.06194,-7.94492 6.84908,-9.29123c3.67456,-2.76815 8.8407,-3.695 10.10981,3.0754c0.5899,3.14702 0.88546,12.96488 0.6012,22.71195c-0.27144,9.30725 -1.09424,18.56936 -1.75446,21.09312c0,0 -0.27732,3.16629 -1.94067,4.02273c-1.89511,0.97577 -5.2987,-0.38385 -7.01587,-1.15049z"></path></g></g></svg>