<svg viewBox="0,0,55.3339,56.22923" height="56.22923" width="55.3339" xmlns:xlink="http://www.w3.org/1999/xlink" xmlns="http://www.w3.org/2000/svg" version="1.1"><g transform="translate(-212.33305,-151.43773)"><g style="mix-blend-mode: normal" stroke-dashoffset="0" stroke-dasharray="" stroke-miterlimit="10" stroke-linejoin="miter" fill-rule="nonzero" data-paper-data="{&quot;isPaintingLayer&quot;:true}"><path stroke-linecap="butt" stroke-width="3.5" stroke="#909090" fill="#bebebe" d="M214.08305,180.00001c0,-14.31354 11.60342,-25.91695 25.91695,-25.91695c14.31354,0 25.91695,11.60342 25.91695,25.91695c0,14.31354 -11.60342,25.91695 -25.91695,25.91695c-14.31354,0 -25.91695,-11.60342 -25.91695,-25.91695z"></path><path stroke-linecap="round" stroke-width="3.5" stroke="#909090" fill="none" d="M265.89837,180.88176h-20.8894"></path><path stroke-linecap="round" stroke-width="3.5" stroke="#909090" fill="none" d="M255.73596,172.1308c0,0 1.41145,5.43433 1.41145,9.59783c0,4.21055 -1.69374,7.9041 -1.69374,7.9041"></path><path stroke-linecap="round" stroke-width="1.5" stroke="#940000" fill="none" d="M240.93256,157.93311l12.29153,5.38486"></path><path stroke-linecap="round" stroke-width="1.5" stroke="#940000" fill="none" d="M241.28374,163.08385l12.29153,6.43842"></path><path stroke-linecap="butt" stroke-width="3.5" stroke="#0e5500" fill="#008437" d="M226.07439,205.02617c-3.71848,-1.25722 -9.99041,-8.65927 -11.88492,-17.97856c-1.73594,-8.53926 0.63934,-18.93542 2.84067,-22.48292c2.48038,-3.99719 6.68431,-7.94492 9.04424,-9.29123c4.85227,-2.76815 11.67417,-3.695 13.35003,3.0754c0.77897,3.14702 1.16926,12.96488 0.79389,22.71195c-0.35843,9.30725 -1.44495,18.56936 -2.31678,21.09312c0,0 -0.64846,2.37574 -1.98039,2.98058c-2.56872,1.16646 -7.04287,0.83964 -9.84674,-0.10834z"></path><path stroke-linecap="butt" stroke-width="3.5" stroke="#877c00" fill="#c2b200" d="M225.4771,193.47555c0,-3.52589 2.8583,-6.3842 6.3842,-6.3842c3.52589,0 6.3842,2.8583 6.3842,6.3842c0,3.52589 -2.8583,6.3842 -6.3842,6.3842c-3.52589,0 -6.3842,-2.8583 -6.3842,-6.3842z"></path></g></g></svg>