<svg version="1.1" xmlns="http://www.w3.org/2000/svg" xmlns:xlink="http://www.w3.org/1999/xlink" width="63.96114" height="87.93828" viewBox="0,0,63.96114,87.93828"><defs><linearGradient x1="240" y1="138.03086" x2="240" y2="221.96914" gradientUnits="userSpaceOnUse" id="color-1"><stop offset="0" stop-color="#868686"/><stop offset="1" stop-color="#292929"/></linearGradient><linearGradient x1="240" y1="138.03086" x2="240" y2="221.96914" gradientUnits="userSpaceOnUse" id="color-2"><stop offset="0" stop-color="#707070"/><stop offset="1" stop-color="#a5a5a5"/></linearGradient></defs><g transform="translate(-208.01943,-136.03086)"><g stroke-miterlimit="10"><path d="M213.01943,221.96914c-1.65685,0 -3,-1.34315 -3,-3v-77.93828c0,-1.65685 1.34315,-3 3,-3h53.96114c1.65685,0 3,1.34315 3,3v77.93828c0,1.65685 -1.34315,3 -3,3z" fill="#9763ff" stroke="#000000" stroke-width="4" stroke-linecap="butt"/><path d="M213.01943,221.96914c-1.65685,0 -3,-1.34315 -3,-3v-77.93828c0,-1.65685 1.34315,-3 3,-3h53.96114c1.65685,0 3,1.34315 3,3v77.93828c0,1.65685 -1.34315,3 -3,3z" fill="url(#color-1)" stroke="none" stroke-width="0" stroke-linecap="butt"/><g><path d="M235.43043,172.94418l-3.5243,45.22858" fill="none" stroke="#000000" stroke-width="2" stroke-linecap="round"/><path d="M220.15845,189.97832l12.92245,-0.58738l11.74768,1.17477" fill="none" stroke="#000000" stroke-width="2" stroke-linecap="round"/><path d="M253.63934,162.07757c0,7.62348 -5.65409,13.80353 -12.62876,13.80353c-6.97467,0 -12.62876,-6.18005 -12.62876,-13.80353c0,-7.62348 5.65409,-13.80353 12.62876,-13.80353c6.97467,0 12.62876,6.18005 12.62876,13.80353z" fill="#fffaab" stroke="#000000" stroke-width="2" stroke-linecap="butt"/><path d="M248.64658,159.43435c0,-0.81101 0.65745,-1.46846 1.46846,-1.46846c0.81101,0 1.46846,0.65745 1.46846,1.46846c0,0.81101 -0.65745,1.46846 -1.46846,1.46846c-0.81101,0 -1.46846,-0.65745 -1.46846,-1.46846z" fill="#000000" stroke="none" stroke-width="0.5" stroke-linecap="butt"/><path d="M239.83582,159.43435c0,-0.81101 0.65745,-1.46846 1.46846,-1.46846c0.81101,0 1.46846,0.65745 1.46846,1.46846c0,0.81101 -0.65745,1.46846 -1.46846,1.46846c-0.81101,0 -1.46846,-0.65745 -1.46846,-1.46846z" fill="#000000" stroke="none" stroke-width="0.5" stroke-linecap="butt"/></g><path d="M213.01943,221.96914c-1.65685,0 -3,-1.34315 -3,-3v-77.93828c0,-1.65685 1.34315,-3 3,-3h53.96114c1.65685,0 3,1.34315 3,3v77.93828c0,1.65685 -1.34315,3 -3,3zM262.96734,217.21427c1.38071,0 2.5,-1.11929 2.5,-2.5v-69.42854c0,-1.38071 -1.11929,-2.5 -2.5,-2.5h-45.93468c-1.38071,0 -2.5,1.11929 -2.5,2.5v69.42854c0,1.38071 1.11929,2.5 2.5,2.5z" fill="url(#color-2)" stroke="none" stroke-width="0" stroke-linecap="butt"/><g fill="#ffffff" stroke="#000000" stroke-linecap="butt"><path d="M216.42853,215.15254c-1.38071,0 -2.5,-1.11929 -2.5,-2.5v-21.95028c0,-1.38071 1.11929,-2.5 2.5,-2.5h47.14294c1.38071,0 2.5,1.11929 2.5,2.5v21.95028c0,1.38071 -1.11929,2.5 -2.5,2.5z" stroke-width="4"/><path d="M216.42853,215.15254c-1.38071,0 -2.5,-1.11929 -2.5,-2.5v-21.95028c0,-1.38071 1.11929,-2.5 2.5,-2.5h47.14294c1.38071,0 2.5,1.11929 2.5,2.5v21.95028c0,1.38071 -1.11929,2.5 -2.5,2.5z" stroke-width="0"/></g><path d="M214.07078,221.72212l0.26613,-1.63154l-1.12736,-1.15546l1.55798,-0.23804l0.69675,-1.48442l0.69675,1.48442l1.55798,0.23804l-1.12736,1.15546l0.26613,1.63154l-1.3935,-0.77031z" fill="#000000" stroke="none" stroke-width="0" stroke-linecap="butt"/><path d="M219.24056,221.72212l0.26613,-1.63154l-1.12736,-1.15546l1.55798,-0.23804l0.69675,-1.48442l0.69675,1.48442l1.55798,0.23804l-1.12737,1.15546l0.26614,1.63154l-1.3935,-0.77031z" fill="#000000" stroke="none" stroke-width="0" stroke-linecap="butt"/><path d="M224.45301,221.72212l0.26613,-1.63154l-1.12736,-1.15546l1.55798,-0.23804l0.69675,-1.48442l0.69675,1.48442l1.55798,0.23804l-1.12737,1.15546l0.26614,1.63154l-1.3935,-0.77031z" fill="#000000" stroke="none" stroke-width="0" stroke-linecap="butt"/><text transform="translate(239.57666,220.8475) scale(0.09461,0.09461)" font-size="40" xml:space="preserve" fill="#000000" stroke="none" stroke-width="1" stroke-linecap="butt" font-family="Sans Serif" font-weight="normal" text-anchor="start"><tspan x="0" dy="0">Core Collection</tspan></text><text transform="translate(214.5139,142.06931) scale(0.10939,0.10938)" font-size="40" xml:space="preserve" fill="#000000" stroke="none" stroke-width="1" stroke-linecap="butt" font-family="Sans Serif" font-weight="normal" text-anchor="start"><tspan x="0" dy="0">Dude Guy</tspan></text><text transform="translate(228.5168,221.37117) scale(0.0984,0.0984)" font-size="40" xml:space="preserve" fill="#000000" stroke="none" stroke-width="1" stroke-linecap="butt" font-family="Sans Serif" font-weight="normal" text-anchor="start"><tspan x="0" dy="0">20/27</tspan></text><g fill="#000000" stroke="none" stroke-width="0.5" stroke-linecap="butt"><g><path d="M242.4144,208.54562c-0.87974,-0.14662 -0.73312,-1.02636 -0.73312,-1.02636l0.15856,-0.95133c0.06782,-0.40491 0.12454,-0.81193 0.1698,-1.22014c-0.74444,0.08424 -1.55735,0.03097 -2.37624,-0.0763c-0.11271,2.46649 -0.86993,4.4584 -1.26641,6.90129l-0.31986,0.7279c0,0 -0.39886,0.79772 -1.19657,0.39886c-0.79772,-0.39886 -0.39886,-1.19657 -0.39886,-1.19657l0.15581,-0.22343c0.41981,-2.4643 1.1888,-4.38933 1.25213,-6.89594c-0.49776,-0.08874 -0.98001,-0.17481 -1.43135,-0.23767c-0.09827,-0.01369 -0.19932,-0.01823 -0.30127,-0.01959c-0.19494,0.62051 -0.35393,1.24598 -0.5252,1.87887c-0.01554,0.18693 -0.12454,0.84268 -0.88929,0.84268c-0.89187,0 -0.89187,-0.89187 -0.89187,-0.89187l0.03143,-0.31395c0.19861,-0.72807 0.38165,-1.44568 0.60891,-2.15829c-0.18901,-0.19492 -0.34423,-0.41871 -0.43924,-0.66452c-0.52848,-1.36724 0.82619,-4.72896 1.17325,-6.11721c0,0 0.13391,-0.53566 0.61247,-0.65868c0.256,-0.59681 0.95434,-0.48042 0.95434,-0.48042l0.91515,0.15328c1.72319,0.1436 6.3759,0.16037 7.34006,1.82105c0.43802,0.75445 -0.25747,2.54865 -0.39365,3.36801c-0.17447,0.69788 -0.31125,2.81244 -0.77282,3.27737c-0.00134,0.00135 -0.00269,0.0027 -0.00404,0.00404c0.00286,0.06113 -0.00032,0.09926 -0.00032,0.09926c-0.0556,0.6612 -0.13829,1.32064 -0.24689,1.97522l-0.15856,0.95133c0,0 -0.14662,0.87974 -1.02636,0.73312zM236.86041,197.98742c-0.40735,1.54059 -1.06307,3.34726 -1.13999,4.88746c-0.00427,0.08556 2.61412,0.31169 2.82861,0.3385c0.95042,0.1188 1.8244,0.18833 2.78062,0.23174c0.40525,0.0184 0.983,0.46358 1.21029,0.12757c0.19164,-0.28332 0.22542,-1.98404 0.33707,-2.43063c0.02811,-0.1682 0.60978,-2.09017 0.55768,-2.18142c-0.21776,-0.38142 -0.85905,-0.19196 -1.29567,-0.2395c-1.56899,-0.17082 -3.09991,-0.50298 -4.68292,-0.63489z"/><path d="M238.41877,200.848c0,-0.49257 0.39931,-0.89187 0.89187,-0.89187c0.49257,0 0.89187,0.39931 0.89187,0.89187c0,0.49257 -0.39931,0.89187 -0.89187,0.89187c-0.49257,0 -0.89187,-0.39931 -0.89187,-0.89187z"/><path d="M244.63518,195.25063c-0.11062,0.88499 -0.99561,0.77436 -0.99561,0.77436l-0.75827,-0.10382c-1.79662,-0.49877 -3.70234,-0.36496 -5.5526,-0.36496c0,0 -0.89187,0 -0.89187,-0.89187c0,-0.89187 0.89187,-0.89187 0.89187,-0.89187c2.02225,0 4.05485,-0.10066 6.02194,0.42781l0.51018,0.05474c0,0 0.88499,0.11062 0.77436,0.99561z"/></g><path d="M239.48964,191.91443c0,-0.69036 0.55964,-1.25 1.25,-1.25c0.69036,0 1.25,0.55964 1.25,1.25c0,0.69036 -0.55964,1.25 -1.25,1.25c-0.69036,0 -1.25,-0.55964 -1.25,-1.25z"/></g></g></g></svg>