<svg version="1.1" xmlns="http://www.w3.org/2000/svg" xmlns:xlink="http://www.w3.org/1999/xlink" width="45.34771" height="98.13515" viewBox="0,0,45.34771,98.13515"><g transform="translate(-216.68634,-134.78348)"><g stroke-miterlimit="10"><g fill="#151515"><path d="M230.35265,195.08814c0,0 -0.51188,-6.2438 -0.75221,-10.57074c-0.27748,-4.99565 -3.36827,-18.35038 -2.81293,-25.18645c0.25223,-3.10486 4.52999,-3.86212 4.52999,-3.86212l14.22322,-0.47954c0,0 3.76146,0.63952 4.17364,3.40794c0.90353,6.06863 -0.04079,18.80457 0.23242,23.72362c0.27624,4.97339 -1.20659,12.1838 -1.20659,12.1838z" stroke="#000000" stroke-width="1.5"/><path d="M230.35265,195.08814c0,0 -0.51188,-6.2438 -0.75221,-10.57074c-0.27748,-4.99565 -3.36827,-18.35038 -2.81293,-25.18645c0.25223,-3.10486 4.52999,-3.86212 4.52999,-3.86212l14.22322,-0.47954c0,0 3.76146,0.63952 4.17364,3.40794c0.90353,6.06863 -0.04079,18.80457 0.23242,23.72362c0.27624,4.97339 -1.20659,12.1838 -1.20659,12.1838z" stroke="none" stroke-width="0"/></g><path d="M248.6706,145.27238c0,5.51672 -3.72056,9.98891 -8.3101,9.98891c-3.42606,0 -6.36788,-1.59677 -7.63924,-5.15518c-0.12517,-0.35035 -0.62482,-2.43936 -0.67453,-4.43606c-0.04144,-1.66476 0.34008,-3.26536 0.48045,-3.74058c1.14391,-3.87273 4.21918,-6.64599 7.83333,-6.64599c4.58954,0 8.3101,4.47219 8.3101,9.98891z" fill="#151515" stroke="#000000" stroke-width="1"/><g fill="#151515"><g><path d="M247.60175,231.78583c-1.36404,-0.17082 -4.44915,-1.97384 -4.44915,-1.97384l-2.20418,-35.55988c0,0 0.69566,-0.07002 1.94825,-0.64295c1.22886,-0.56208 3.00845,-1.62671 3.68662,-1.68637c0.85914,-0.0756 1.7908,1.67596 1.7908,1.67596l2.30309,37.15551c0,0 -2.00114,1.16609 -3.07544,1.03156z" stroke="#000000" stroke-width="1.5"/><path d="M247.60175,231.78583c-1.36404,-0.17082 -4.44915,-1.97384 -4.44915,-1.97384l-2.20418,-35.55988c0,0 0.69566,-0.07002 1.94825,-0.64295c1.22886,-0.56208 3.00845,-1.62671 3.68662,-1.68637c0.85914,-0.0756 1.7908,1.67596 1.7908,1.67596l2.30309,37.15551c0,0 -2.00114,1.16609 -3.07544,1.03156z" stroke="none" stroke-width="0"/></g><g><path d="M241.03539,230.25609c0,0 1.23231,-3.97703 2.73587,-4.83769c1.80691,-1.03431 7.36375,-0.94349 7.36375,-0.94349c0,0 8.03865,-0.21131 7.84936,1.69827c-0.05885,0.59364 0.96907,3.92957 -0.48306,4.80881c-2.54607,1.54158 -8.22512,0.62709 -8.59051,0.63443c-1.88542,0.03791 -8.8754,-1.36033 -8.8754,-1.36033z" stroke="#000000" stroke-width="1.5"/><path d="M241.03539,230.25609c0,0 1.23231,-3.97703 2.73587,-4.83769c1.80691,-1.03431 7.36375,-0.94349 7.36375,-0.94349c0,0 8.03865,-0.21131 7.84936,1.69827c-0.05885,0.59364 0.96907,3.92957 -0.48306,4.80881c-2.54607,1.54158 -8.22512,0.62709 -8.59051,0.63443c-1.88542,0.03791 -8.8754,-1.36033 -8.8754,-1.36033z" stroke="none" stroke-width="0"/></g></g><g fill="#151515"><g><path d="M235.15632,231.70677c-1.3488,-0.26558 -4.30058,-2.27946 -4.30058,-2.27946l0.28235,-35.62701c0,0 0.69885,-0.02131 1.98836,-0.50545c1.26508,-0.47497 3.11461,-1.41283 3.7953,-1.42503c0.86232,-0.01547 1.6695,1.79683 1.6695,1.79683l-0.29502,37.22565c0,0 -2.07762,1.02362 -3.13992,0.81446z" stroke="#000000" stroke-width="1.5"/><path d="M235.15632,231.70677c-1.3488,-0.26558 -4.30058,-2.27946 -4.30058,-2.27946l0.28235,-35.62701c0,0 0.69885,-0.02131 1.98836,-0.50545c1.26508,-0.47497 3.11461,-1.41283 3.7953,-1.42503c0.86232,-0.01547 1.6695,1.79683 1.6695,1.79683l-0.29502,37.22565c0,0 -2.07762,1.02362 -3.13992,0.81446z" stroke="none" stroke-width="0"/></g><g><path d="M231.82686,224.95467c1.87405,-0.90699 7.41134,-0.43246 7.41134,-0.43246c0,0 8.03404,0.34461 7.71326,2.23654c-0.09973,0.58816 0.69525,3.98713 -0.81416,4.76394c-2.6465,1.36198 -8.24879,0.0573 -8.61382,0.03937c-1.88353,-0.09245 -8.7602,-1.9703 -8.7602,-1.9703c0,0 1.50415,-3.88237 3.06358,-4.63709z" stroke="#000000" stroke-width="1.5"/><path d="M228.76328,229.59177c0,0 1.50415,-3.88238 3.06358,-4.6371c1.87405,-0.90699 7.41134,-0.43246 7.41134,-0.43246c0,0 8.03404,0.34461 7.71326,2.23654c-0.09973,0.58816 0.69525,3.98713 -0.81416,4.76394c-2.6465,1.36198 -8.24879,0.0573 -8.61382,0.03937c-1.88353,-0.09245 -8.7602,-1.9703 -8.7602,-1.9703z" stroke="none" stroke-width="0"/></g></g><g fill="#151515"><g stroke="#000000" stroke-width="1.5"><path d="M228.3244,161.78358c0,0 0.16762,1.66019 -0.31884,3.24558c-0.35333,1.15154 -1.72769,3.15623 -2.58387,5.60998c-0.62897,1.80256 -0.99935,3.71599 -1.49092,5.44641c-0.80767,2.84314 -1.56773,5.12653 -1.56773,5.12653l-4.69393,-1.82552c0,0 1.12578,-5.30545 2.64108,-10.90669c0.44148,-1.63189 0.86297,-3.59154 1.36508,-5.07725c0.89208,-2.63964 2.3555,-4.15185 3.03641,-5.46305c1.3503,-2.60013 4.2727,-2.44244 4.2727,-2.44244l-0.65999,6.28642z"/><path d="M222.30218,181.36856c-0.50411,1.29619 -1.96353,1.93831 -3.25972,1.4342c-1.29619,-0.50411 -1.93831,-1.96353 -1.4342,-3.25972c0.50411,-1.29619 1.96353,-1.93831 3.25974,-1.4342c1.29619,0.50411 1.93831,1.96354 1.4342,3.25973z"/></g><g stroke="none" stroke-width="0"><path d="M228.3244,161.78358c0,0 0.16762,1.66019 -0.31884,3.24558c-0.35333,1.15154 -1.72769,3.15623 -2.58387,5.60998c-0.62897,1.80256 -0.99935,3.71599 -1.49092,5.44641c-0.80767,2.84314 -1.56773,5.12653 -1.56773,5.12653l-4.69393,-1.82552c0,0 1.12578,-5.30545 2.64108,-10.90669c0.44148,-1.63189 0.86297,-3.59154 1.36508,-5.07725c0.89208,-2.63964 2.3555,-4.15185 3.03641,-5.46305c1.3503,-2.60013 4.2727,-2.44244 4.2727,-2.44244l-0.65999,6.28642z"/><path d="M222.30218,181.36856c-0.50411,1.29619 -1.96353,1.93831 -3.25972,1.4342c-1.29619,-0.50411 -1.93831,-1.96353 -1.4342,-3.25972c0.50411,-1.29619 1.96353,-1.93831 3.25974,-1.4342c1.29619,0.50411 1.93831,1.96354 1.4342,3.25973z"/></g></g><g fill="#151515"><g stroke="#000000" stroke-width="1.5"><path d="M232.14186,200.6316l-4.54864,2.16227c0,0 -1.60386,-0.41329 -2.76474,-2.83612c-0.78733,-1.64325 -1.51568,-4.89774 -2.46272,-6.72737c-1.24928,-2.41353 -2.18512,-4.67017 -2.80264,-5.9692c-0.93063,-1.9577 -1.84427,-5.23944 -1.84427,-5.23944l4.54865,-2.16228c0,0 1.93985,2.59406 2.90366,4.62157c0.62939,1.32401 1.31978,4.02824 2.41715,6.57568c0.56946,1.32196 1.5322,3.9221 2.1155,5.16231c1.48369,3.15466 2.43808,4.41259 2.43808,4.41259z"/><path d="M221.00222,183.0633c-1.25607,0.5971 -2.75836,0.06288 -3.35545,-1.19319c-0.5971,-1.25607 -0.06288,-2.75836 1.19318,-3.35545c1.25607,-0.5971 2.75836,-0.06288 3.35546,1.19319c0.5971,1.25607 0.06289,2.75837 -1.19319,3.35546z"/></g><g stroke="none" stroke-width="0"><path d="M232.14186,200.6316l-4.54864,2.16227c0,0 -1.60386,-0.41329 -2.76474,-2.83612c-0.78733,-1.64325 -1.51568,-4.89774 -2.46272,-6.72737c-1.24928,-2.41353 -2.18512,-4.67017 -2.80264,-5.9692c-0.93063,-1.9577 -1.84427,-5.23944 -1.84427,-5.23944l4.54865,-2.16228c0,0 1.93985,2.59406 2.90366,4.62157c0.62939,1.32401 1.31978,4.02824 2.41715,6.57568c0.56946,1.32196 1.5322,3.9221 2.1155,5.16231c1.48369,3.15466 2.43808,4.41259 2.43808,4.41259z"/><path d="M221.00222,183.0633c-1.25607,0.5971 -2.75836,0.06288 -3.35545,-1.19319c-0.5971,-1.25607 -0.06288,-2.75836 1.19318,-3.35545c1.25607,-0.5971 2.75836,-0.06288 3.35546,1.19319c0.5971,1.25607 0.06289,2.75837 -1.19319,3.35546z"/></g></g><g fill="#151515"><g stroke="#000000" stroke-width="1.5"><path d="M248.73064,161.86982l-1.17471,-6.21086c0,0 2.89954,-0.39748 4.45908,2.0828c0.78643,1.25075 2.36925,2.63751 3.47538,5.19485c0.62258,1.43939 1.2038,3.35774 1.77798,4.9478c1.97078,5.45765 3.52903,10.65256 3.52903,10.65256l-4.52791,2.20534c0,0 -0.94525,-2.21316 -1.98399,-4.98025c-0.63219,-1.68413 -1.15868,-3.56062 -1.93375,-5.30536c-1.05507,-2.37504 -2.58962,-4.25992 -3.03645,-5.3785c-0.61517,-1.54002 -0.58465,-3.20838 -0.58465,-3.20838z"/><path d="M256.34299,180.89324c-0.60898,-1.25035 -0.08907,-2.75764 1.16129,-3.36663c1.25036,-0.60899 2.75764,-0.08907 3.36663,1.16129c0.60898,1.25035 0.08907,2.75764 -1.16129,3.36663c-1.25035,0.60898 -2.75764,0.08907 -3.36663,-1.16129z"/></g><g stroke="none" stroke-width="0"><path d="M248.73064,161.86982l-1.17471,-6.21086c0,0 2.89954,-0.39748 4.45908,2.0828c0.78643,1.25075 2.36925,2.63751 3.47538,5.19485c0.62258,1.43939 1.2038,3.35774 1.77798,4.9478c1.97078,5.45765 3.52903,10.65256 3.52903,10.65256l-4.52791,2.20534c0,0 -0.94525,-2.21316 -1.98399,-4.98025c-0.63219,-1.68413 -1.15868,-3.56062 -1.93375,-5.30536c-1.05507,-2.37504 -2.58962,-4.25992 -3.03645,-5.3785c-0.61517,-1.54002 -0.58465,-3.20838 -0.58465,-3.20838z"/><path d="M256.34299,180.89324c-0.60898,-1.25035 -0.08907,-2.75764 1.16129,-3.36663c1.25036,-0.60899 2.75764,-0.08907 3.36663,1.16129c0.60898,1.25035 0.08907,2.75764 -1.16129,3.36663c-1.25035,0.60898 -2.75764,0.08907 -3.36663,-1.16129z"/></g></g><g fill="#151515"><g stroke="#000000" stroke-width="1.5"><path d="M249.53454,200.61433c0,0 0.76296,-1.38244 1.77607,-4.71813c0.3983,-1.31138 0.97589,-4.02321 1.3487,-5.41349c0.71842,-2.6791 1.01152,-5.45463 1.44333,-6.85558c0.66125,-2.14532 2.20662,-4.99208 2.20662,-4.99208l4.81298,1.48351c0,0 -0.43069,3.3792 -1.06919,5.45068c-0.42367,1.37454 -1.02422,3.74255 -1.91226,6.31106c-0.67321,1.94711 -0.92447,5.27264 -1.46652,7.01226c-0.79924,2.56495 -2.32671,3.20527 -2.32671,3.20527l-4.81298,-1.48351z"/><path d="M256.35868,178.47462c0.40966,-1.32906 1.81918,-2.07439 3.14824,-1.66474c1.32907,0.40966 2.07439,1.81918 1.66474,3.14825c-0.40966,1.32906 -1.81918,2.07439 -3.14825,1.66474c-1.32907,-0.40966 -2.07439,-1.81918 -1.66474,-3.14825z"/></g><g stroke="none" stroke-width="0"><path d="M249.53454,200.61433c0,0 0.76296,-1.38244 1.77607,-4.71813c0.3983,-1.31138 0.97589,-4.02321 1.3487,-5.41349c0.71842,-2.6791 1.01152,-5.45463 1.44333,-6.85558c0.66125,-2.14532 2.20662,-4.99208 2.20662,-4.99208l4.81298,1.48351c0,0 -0.43069,3.3792 -1.06919,5.45068c-0.42367,1.37454 -1.02422,3.74255 -1.91226,6.31106c-0.67321,1.94711 -0.92447,5.27264 -1.46652,7.01226c-0.79924,2.56495 -2.32671,3.20527 -2.32671,3.20527l-4.81298,-1.48351z"/><path d="M256.35868,178.47462c0.40966,-1.32906 1.81918,-2.07439 3.14824,-1.66474c1.32907,0.40966 2.07439,1.81918 1.66474,3.14825c-0.40966,1.32906 -1.81918,2.07439 -3.14825,1.66474c-1.32907,-0.40966 -2.07439,-1.81918 -1.66474,-3.14825z"/></g></g><g fill="#151515" stroke="#000000" stroke-width="0.5"><path d="M231.85825,201.6872c0.22512,-0.32729 1.29417,-0.92124 2.09569,-0.84127c0.53734,0.05363 0.8339,0.67459 1.12461,0.89613c0.67121,0.51141 -0.11857,1.71502 -0.83684,1.46315c-0.429,-0.15044 -0.91303,-0.67921 -1.22177,-0.23039c-0.8256,1.20014 -0.23151,3.03555 -0.97373,2.52498c-0.74219,-0.51052 -1.01363,-2.61244 -0.18803,-3.81261z"/><path d="M235.80281,205.23664c0.91106,0.95047 1.37831,1.98105 1.04364,2.30184c-0.33465,0.32079 -1.34452,-0.18967 -2.25558,-1.14012c-0.91106,-0.95047 -1.3783,-1.98106 -1.04363,-2.30185c0.33465,-0.32079 1.34452,0.18967 2.25558,1.14013z"/><path d="M234.7922,207.09936c0.67492,1.13044 0.89934,2.23952 0.50129,2.47716c-0.39803,0.23763 -1.26785,-0.48612 -1.94277,-1.61654c-0.67492,-1.13045 -0.89937,-2.23952 -0.50134,-2.47713c0.39803,-0.23765 1.26784,0.48612 1.94276,1.61657z"/><path d="M233.13759,207.63139c0.58713,1.17844 0.7267,2.30137 0.31179,2.50811c-0.41492,0.20673 -1.22729,-0.58097 -1.81441,-1.75941c-0.58713,-1.17843 -0.72672,-2.30137 -0.31177,-2.50806c0.41492,-0.20673 1.22727,0.58101 1.81441,1.75941z"/><path d="M231.48807,208.09175c0.34078,1.27173 0.25402,2.39997 -0.19378,2.51997c-0.44778,0.11999 -1.08702,-0.81368 -1.4278,-2.0854c-0.34078,-1.27173 -0.25399,-2.39997 0.19379,-2.51994c0.44777,-0.11998 1.08704,0.81368 1.42781,2.0854z"/><path d="M232.18092,206.2614c-1.30293,0.64913 -2.9651,-0.0409 -3.71259,-1.5412c-0.7475,-1.50034 -0.29724,-3.2428 1.00564,-3.89191c1.30292,-0.64913 2.96507,0.0409 3.71258,1.54119c0.7475,1.50034 0.29723,3.24283 -1.00566,3.89194z"/></g><g fill="#151515" stroke="#000000" stroke-width="0.5"><path d="M250.44512,200.99753c0.82559,1.20018 0.55416,3.30209 -0.18803,3.81261c-0.74222,0.51057 -0.14813,-1.32485 -0.97374,-2.52498c-0.30874,-0.44882 -0.79277,0.07995 -1.22177,0.23039c-0.71827,0.25187 -1.50805,-0.95174 -0.83684,-1.46314c0.29071,-0.22154 0.58727,-0.8425 1.12461,-0.89613c0.80152,-0.07997 1.87058,0.51398 2.09569,0.84127z"/><path d="M246.50045,204.54698c0.91106,-0.95047 1.92093,-1.46092 2.25559,-1.14013c0.33467,0.32079 -0.13258,1.35137 -1.04363,2.30185c-0.91106,0.95045 -1.92092,1.46091 -2.25557,1.14012c-0.33466,-0.3208 0.13259,-1.35137 1.04364,-2.30184z"/><path d="M247.51115,206.40977c0.67491,-1.13045 1.54472,-1.85422 1.94276,-1.61657c0.39803,0.23762 0.17357,1.34669 -0.50134,2.47713c-0.67491,1.13042 -1.54474,1.85416 -1.94277,1.61653c-0.39805,-0.23764 -0.17363,-1.34672 0.50129,-2.47716z"/><path d="M249.16568,206.94177c0.58713,-1.1784 1.39948,-1.96615 1.8144,-1.75941c0.41494,0.20669 0.27535,1.32964 -0.31177,2.50806c-0.58712,1.17845 -1.39948,1.96615 -1.8144,1.75941c-0.41491,-0.20673 -0.27534,-1.32967 0.31179,-2.50811z"/><path d="M250.8152,207.40212c0.34077,-1.27172 0.98003,-2.20538 1.42781,-2.0854c0.44778,0.11997 0.53457,1.2482 0.19379,2.51994c-0.34079,1.27173 -0.98003,2.20539 -1.42781,2.0854c-0.4478,-0.12 -0.53455,-1.24823 -0.19377,-2.51997z"/><path d="M250.12239,205.57177c-1.30289,-0.64911 -1.75317,-2.3916 -1.00567,-3.89194c0.74751,-1.5003 2.40966,-2.19033 3.71258,-1.54119c1.30289,0.64911 1.75315,2.39156 1.00565,3.8919c-0.74748,1.5003 -2.40966,2.19033 -3.71259,1.5412z"/></g><path d="M247.51597,147.37136c-0.48589,0.71222 -1.19811,0.22633 -1.19811,0.22633l-0.158,-0.1228l-0.8925,-0.40908l-0.85701,-0.48817l-0.75695,-0.34631l-0.08277,0.06952l0.07869,0.1072l0.50852,0.609l0.73569,0.65542l0.87627,0.9143l0.54251,1.19395c0,0 0.34836,0.78866 -0.4403,1.13702c-0.78866,0.34836 -1.13702,-0.4403 -1.13702,-0.4403l-0.39289,-0.9237l-0.64001,-0.63475l-0.78265,-0.70205l-0.62664,-0.74437l-0.02425,-0.03308l-0.35911,0.41219l-0.58294,0.76019l-0.60007,0.68581l-0.6042,0.68887l-0.7461,0.72817l-1.68116,0.69682l-0.59367,-1.56469l-0.09002,-0.91071l0.00841,-0.90982l0.01024,-0.95792l0.01002,-0.81443l-0.08313,-0.81558l-0.08739,-0.87173l-0.06292,-0.79265l-0.0529,-0.02419l-0.82008,-0.28207c0,0 -0.81497,-0.28137 -0.5336,-1.09634c0.28137,-0.81497 1.09634,-0.5336 1.09634,-0.5336l0.36274,0.12566l0.04239,-0.35189l0.16249,-1.17884l1.42867,-1.29953l1.16093,1.1833l0.43503,0.71756l0.56759,0.67668l0.51782,0.84444l0.43542,0.81245l0.50588,0.60311l0.35,0.12135l0.7469,0.17437l0.01727,-0.01691l0.55964,-0.63992l0.20655,-0.35929c0,0 0.45146,-0.73452 1.18598,-0.28306c0.73452,0.45147 0.28307,1.18598 0.28307,1.18598l-0.37844,0.59249l-0.15447,0.17612l0.2647,0.121l0.857,0.48817l0.82355,0.37568l0.41266,0.26651c0,0 0.71223,0.48589 0.22634,1.19811zM240.18779,145.12777l-0.85803,-0.39238l-0.73587,-0.25311l0.07868,0.78402l0.09002,0.91072l-0.00841,0.90982l-0.01023,0.95792l-0.01003,0.81443l0.00701,0.06876l0.12872,-0.12645l0.55964,-0.63993l0.56376,-0.64298l0.58294,-0.76019l0.64554,-0.73388l0.05673,-0.04784l-0.09181,-0.15029l-0.23209,-0.43305zM239.07241,142.82338l0.3139,0.10874l-0.13065,-0.21536l-0.56758,-0.67668l-0.08506,-0.13862l-0.08992,0.72777l-0.00002,0.00176z" fill="#ffffff" stroke="none" stroke-width="0.5"/></g></g></svg>