<svg viewBox="0,0,158,234" height="234" width="158" xmlns:xlink="http://www.w3.org/1999/xlink" xmlns="http://www.w3.org/2000/svg" version="1.1"><g transform="translate(-172.625,-63)"><g style="mix-blend-mode: normal" stroke-dashoffset="0" stroke-dasharray="" stroke-miterlimit="10" stroke-linejoin="miter" stroke-width="2" stroke="#000000" fill-rule="nonzero" data-paper-data="{&quot;isPaintingLayer&quot;:true}"><path stroke-linecap="butt" fill="#fffaab" data-paper-data="{&quot;index&quot;:null}" d="M218.625,233v-110h64v110z"></path><path stroke-linecap="butt" fill="#fffaab" data-paper-data="{&quot;index&quot;:null}" d="M295.125,162c-10.76955,0 -19.5,-8.73045 -19.5,-19.5c0,-10.76955 8.73045,-19.5 19.5,-19.5c10.76955,0 19.5,8.73045 19.5,19.5c0,10.76955 -8.73045,19.5 -19.5,19.5z"></path><path stroke-linecap="butt" fill="#fffaab" data-paper-data="{&quot;index&quot;:null}" d="M308.625,177c-9.38884,0 -17,-7.61116 -17,-17c0,-9.38884 7.61116,-17 17,-17c9.38884,0 17,7.61116 17,17c0,9.38884 -7.61116,17 -17,17z"></path><path stroke-linecap="butt" fill="#fffaab" data-paper-data="{&quot;index&quot;:null}" d="M318.125,194c-6.35127,0 -11.5,-5.14873 -11.5,-11.5c0,-6.35127 5.14873,-11.5 11.5,-11.5c6.35127,0 11.5,5.14873 11.5,11.5c0,6.35127 -5.14873,11.5 -11.5,11.5z"></path><path stroke-linecap="butt" fill="#fffaab" data-paper-data="{&quot;index&quot;:null}" d="M188.625,141.5c0,-10.76955 8.73044,-19.5 19.5,-19.5c10.76956,0 19.5,8.73045 19.5,19.5c0,10.76955 -8.73044,19.5 -19.5,19.5c-10.76956,0 -19.5,-8.73045 -19.5,-19.5z"></path><path stroke-linecap="butt" fill="#fffaab" data-paper-data="{&quot;index&quot;:null}" d="M177.625,159c0,-9.38884 7.61116,-17 17,-17c9.38884,0 17,7.61116 17,17c0,9.38884 -7.61116,17 -17,17c-9.38884,0 -17,-7.61116 -17,-17z"></path><path stroke-linecap="butt" fill="#fffaab" data-paper-data="{&quot;index&quot;:null}" d="M173.625,181.5c0,-6.35127 5.14873,-11.5 11.5,-11.5c6.35127,0 11.5,5.14873 11.5,11.5c0,6.35127 -5.14873,11.5 -11.5,11.5c-6.35127,0 -11.5,-5.14873 -11.5,-11.5z"></path><path stroke-linecap="butt" fill="#fffaab" data-paper-data="{&quot;index&quot;:null}" d="M255.625,72c14.91169,0 27,12.53602 27,28c0,15.46398 -12.08831,28 -27,28c-14.91169,0 -27,-12.53602 -27,-28c0,-15.46398 12.08831,-28 27,-28z"></path><path stroke-linecap="round" fill="none" data-paper-data="{&quot;index&quot;:null}" d="M275.625,101v-13"></path><path stroke-linecap="round" fill="none" data-paper-data="{&quot;index&quot;:null}" d="M266.625,87v20"></path><path stroke-linecap="round" fill="none" data-paper-data="{&quot;index&quot;:null}" d="M287.625,69l-17,9l-13,-14"></path><path stroke-linecap="round" fill="none" data-paper-data="{&quot;index&quot;:null}" d="M278.625,108l-13,7l-13,-9"></path><path stroke-linecap="round" fill="none" data-paper-data="{&quot;index&quot;:null}" d="M266.625,232l5,64"></path><path stroke-linecap="round" fill="none" data-paper-data="{&quot;index&quot;:null}" d="M235.625,233l-7,60"></path></g></g></svg>