<svg version="1.1" xmlns="http://www.w3.org/2000/svg" xmlns:xlink="http://www.w3.org/1999/xlink" width="111.40632" height="94.07414" viewBox="0,0,111.40632,94.07414"><g transform="translate(-154.55408,-130.81931)"><g stroke="#000000" stroke-width="2.5" stroke-miterlimit="10"><path d="M215.28961,191.47974v-34.21439h14.25599v34.21439z" fill="#0f00ff"/><path d="M261.16443,214.66585c0,9.97294 -3.62374,8.39192 -7.82288,8.39192c-4.19913,0 -7.38352,1.58102 -7.38352,-8.39192c0,-5.18953 -1.23327,-13.39415 0.24259,-16.68799c1.36037,-3.03608 5.34653,-2.15324 7.3606,-2.15324c2.07714,0 5.72293,-1.15634 7.0952,2.05011c1.4019,3.27568 0.508,11.7514 0.508,16.79113z" fill="#0f00ff"/><path d="M240.6961,215.15991c0,9.97294 -3.62375,8.39192 -7.82288,8.39192c-4.19913,0 -7.38352,1.58102 -7.38352,-8.39192c0,-5.18953 -1.23327,-13.39415 0.24259,-16.68799c1.36037,-3.03608 5.34654,-2.15324 7.3606,-2.15324c2.07714,0 5.72293,-1.15634 7.0952,2.05011c1.4019,3.27568 0.508,11.75141 0.508,16.79113z" fill="#0f00ff"/><path d="M264.7104,179.57782c0,23.87044 -9.94276,20.40044 -21.62159,20.40044c-11.67883,0 -20.67119,3.47001 -20.67119,-20.40044c0,-23.87044 9.46756,-43.22126 21.14639,-43.22126c11.67883,0 21.14639,19.35082 21.14639,43.22126z" fill="#0f00ff"/><path d="M241.9008,164.86855v-10.9296h19.48319v10.9296z" fill="#00ffe5"/><path d="M155.80408,187.19249v-34.21439h14.25599v34.21439z" fill="#ff0000"/><path d="M201.6789,210.3786c0,9.97294 -3.62374,8.39192 -7.82288,8.39192c-4.19913,0 -7.38352,1.58102 -7.38352,-8.39192c0,-5.18953 -1.23327,-13.39415 0.24259,-16.68799c1.36037,-3.03608 5.34653,-2.15324 7.3606,-2.15324c2.07714,0 5.72293,-1.15634 7.0952,2.05011c1.4019,3.27568 0.508,11.7514 0.508,16.79113z" fill="#ff0000"/><path d="M181.21057,210.87266c0,9.97294 -3.62375,8.39192 -7.82288,8.39192c-4.19913,0 -7.38352,1.58102 -7.38352,-8.39192c0,-5.18953 -1.23327,-13.39415 0.24259,-16.68799c1.36037,-3.03608 5.34654,-2.15324 7.3606,-2.15324c2.07714,0 5.72293,-1.15634 7.0952,2.05011c1.4019,3.27568 0.508,11.75141 0.508,16.79113z" fill="#ff0000"/><path d="M205.22487,175.29057c0,23.87044 -9.94276,20.40044 -21.62159,20.40044c-11.67883,0 -20.67119,3.47001 -20.67119,-20.40044c0,-23.87044 9.46756,-43.22126 21.14639,-43.22126c11.67883,0 21.14639,19.35082 21.14639,43.22126z" fill="#ff0000"/><path d="M182.41527,160.5813v-10.9296h19.48319v10.9296z" fill="#00ffe5"/></g></g></svg>