<svg version="1.1" xmlns="http://www.w3.org/2000/svg" xmlns:xlink="http://www.w3.org/1999/xlink" width="493.33333" height="348.27526" viewBox="0,0,493.33333,348.27526"><defs><linearGradient x1="240.92744" y1="0.00001" x2="240.92744" y2="62.27395" gradientUnits="userSpaceOnUse" id="color-1"><stop offset="0" stop-color="#636363" stop-opacity="0.74902"/><stop offset="1" stop-color="#ababab" stop-opacity="0.50196"/></linearGradient><linearGradient x1="424.62612" y1="22.33417" x2="436.14785" y2="22.33417" gradientUnits="userSpaceOnUse" id="color-2"><stop offset="0" stop-color="#ebda85"/><stop offset="1" stop-color="#b0a236"/></linearGradient><linearGradient x1="4.37968" y1="93.11068" x2="67.60836" y2="93.11068" gradientUnits="userSpaceOnUse" id="color-3"><stop offset="0.01887" stop-color="#8a8a8a"/><stop offset="0.49292" stop-color="#555555"/><stop offset="1" stop-color="#8a8a8a"/></linearGradient><linearGradient x1="4.37968" y1="93.11068" x2="67.60836" y2="93.11068" gradientUnits="userSpaceOnUse" id="color-4"><stop offset="0.01887" stop-color="#8a8a8a"/><stop offset="0.49292" stop-color="#555555"/><stop offset="1" stop-color="#8a8a8a"/></linearGradient><linearGradient x1="72.43457" y1="93.11068" x2="135.66324" y2="93.11068" gradientUnits="userSpaceOnUse" id="color-5"><stop offset="0.01887" stop-color="#8a8a8a"/><stop offset="0.49292" stop-color="#555555"/><stop offset="1" stop-color="#8a8a8a"/></linearGradient><linearGradient x1="72.43457" y1="93.11068" x2="135.66324" y2="93.11068" gradientUnits="userSpaceOnUse" id="color-6"><stop offset="0.01887" stop-color="#8a8a8a"/><stop offset="0.49292" stop-color="#555555"/><stop offset="1" stop-color="#8a8a8a"/></linearGradient><linearGradient x1="140.44932" y1="93.11068" x2="203.67802" y2="93.11068" gradientUnits="userSpaceOnUse" id="color-7"><stop offset="0.01887" stop-color="#8a8a8a"/><stop offset="0.49292" stop-color="#555555"/><stop offset="1" stop-color="#8a8a8a"/></linearGradient><linearGradient x1="140.44932" y1="93.11068" x2="203.67802" y2="93.11068" gradientUnits="userSpaceOnUse" id="color-8"><stop offset="0.01887" stop-color="#8a8a8a"/><stop offset="0.49292" stop-color="#555555"/><stop offset="1" stop-color="#8a8a8a"/></linearGradient><linearGradient x1="208.36994" y1="93.11068" x2="271.59861" y2="93.11068" gradientUnits="userSpaceOnUse" id="color-9"><stop offset="0.01887" stop-color="#8a8a8a"/><stop offset="0.49292" stop-color="#555555"/><stop offset="1" stop-color="#8a8a8a"/></linearGradient><linearGradient x1="208.36994" y1="93.11068" x2="271.59861" y2="93.11068" gradientUnits="userSpaceOnUse" id="color-10"><stop offset="0.01887" stop-color="#8a8a8a"/><stop offset="0.49292" stop-color="#555555"/><stop offset="1" stop-color="#8a8a8a"/></linearGradient><linearGradient x1="276.38468" y1="93.11068" x2="339.61336" y2="93.11068" gradientUnits="userSpaceOnUse" id="color-11"><stop offset="0.01887" stop-color="#8a8a8a"/><stop offset="0.49292" stop-color="#555555"/><stop offset="1" stop-color="#8a8a8a"/></linearGradient><linearGradient x1="276.38468" y1="93.11068" x2="339.61336" y2="93.11068" gradientUnits="userSpaceOnUse" id="color-12"><stop offset="0.01887" stop-color="#8a8a8a"/><stop offset="0.49292" stop-color="#555555"/><stop offset="1" stop-color="#8a8a8a"/></linearGradient><linearGradient x1="344.43519" y1="93.11068" x2="407.66386" y2="93.11068" gradientUnits="userSpaceOnUse" id="color-13"><stop offset="0.01887" stop-color="#8a8a8a"/><stop offset="0.49292" stop-color="#555555"/><stop offset="1" stop-color="#8a8a8a"/></linearGradient><linearGradient x1="344.43519" y1="93.11068" x2="407.66386" y2="93.11068" gradientUnits="userSpaceOnUse" id="color-14"><stop offset="0.01887" stop-color="#8a8a8a"/><stop offset="0.49292" stop-color="#555555"/><stop offset="1" stop-color="#8a8a8a"/></linearGradient><linearGradient x1="412.4862" y1="92.96709" x2="475.71487" y2="92.96709" gradientUnits="userSpaceOnUse" id="color-15"><stop offset="0.01887" stop-color="#8a8a8a"/><stop offset="0.49292" stop-color="#555555"/><stop offset="1" stop-color="#8a8a8a"/></linearGradient><linearGradient x1="412.4862" y1="92.96709" x2="475.71487" y2="92.96709" gradientUnits="userSpaceOnUse" id="color-16"><stop offset="0.01887" stop-color="#8a8a8a"/><stop offset="0.49292" stop-color="#555555"/><stop offset="1" stop-color="#8a8a8a"/></linearGradient><linearGradient x1="4.31668" y1="151.16337" x2="67.54533" y2="151.16337" gradientUnits="userSpaceOnUse" id="color-17"><stop offset="0.01887" stop-color="#8a8a8a"/><stop offset="0.49292" stop-color="#555555"/><stop offset="1" stop-color="#8a8a8a"/></linearGradient><linearGradient x1="4.31668" y1="151.16337" x2="67.54533" y2="151.16337" gradientUnits="userSpaceOnUse" id="color-18"><stop offset="0.01887" stop-color="#8a8a8a"/><stop offset="0.49292" stop-color="#555555"/><stop offset="1" stop-color="#8a8a8a"/></linearGradient><linearGradient x1="72.37158" y1="151.16337" x2="135.60026" y2="151.16337" gradientUnits="userSpaceOnUse" id="color-19"><stop offset="0.01887" stop-color="#8a8a8a"/><stop offset="0.49292" stop-color="#555555"/><stop offset="1" stop-color="#8a8a8a"/></linearGradient><linearGradient x1="72.37158" y1="151.16337" x2="135.60026" y2="151.16337" gradientUnits="userSpaceOnUse" id="color-20"><stop offset="0.01887" stop-color="#8a8a8a"/><stop offset="0.49292" stop-color="#555555"/><stop offset="1" stop-color="#8a8a8a"/></linearGradient><linearGradient x1="140.38634" y1="151.16337" x2="203.61502" y2="151.16337" gradientUnits="userSpaceOnUse" id="color-21"><stop offset="0.01887" stop-color="#8a8a8a"/><stop offset="0.49292" stop-color="#555555"/><stop offset="1" stop-color="#8a8a8a"/></linearGradient><linearGradient x1="140.38634" y1="151.16337" x2="203.61502" y2="151.16337" gradientUnits="userSpaceOnUse" id="color-22"><stop offset="0.01887" stop-color="#8a8a8a"/><stop offset="0.49292" stop-color="#555555"/><stop offset="1" stop-color="#8a8a8a"/></linearGradient><linearGradient x1="208.30692" y1="151.16337" x2="271.53559" y2="151.16337" gradientUnits="userSpaceOnUse" id="color-23"><stop offset="0.01887" stop-color="#8a8a8a"/><stop offset="0.49292" stop-color="#555555"/><stop offset="1" stop-color="#8a8a8a"/></linearGradient><linearGradient x1="208.30692" y1="151.16337" x2="271.53559" y2="151.16337" gradientUnits="userSpaceOnUse" id="color-24"><stop offset="0.01887" stop-color="#8a8a8a"/><stop offset="0.49292" stop-color="#555555"/><stop offset="1" stop-color="#8a8a8a"/></linearGradient><linearGradient x1="276.32168" y1="151.16337" x2="339.55034" y2="151.16337" gradientUnits="userSpaceOnUse" id="color-25"><stop offset="0.01887" stop-color="#8a8a8a"/><stop offset="0.49292" stop-color="#555555"/><stop offset="1" stop-color="#8a8a8a"/></linearGradient><linearGradient x1="276.32168" y1="151.16337" x2="339.55034" y2="151.16337" gradientUnits="userSpaceOnUse" id="color-26"><stop offset="0.01887" stop-color="#8a8a8a"/><stop offset="0.49292" stop-color="#555555"/><stop offset="1" stop-color="#8a8a8a"/></linearGradient><linearGradient x1="344.37218" y1="151.16337" x2="407.60086" y2="151.16337" gradientUnits="userSpaceOnUse" id="color-27"><stop offset="0.01887" stop-color="#8a8a8a"/><stop offset="0.49292" stop-color="#555555"/><stop offset="1" stop-color="#8a8a8a"/></linearGradient><linearGradient x1="344.37218" y1="151.16337" x2="407.60086" y2="151.16337" gradientUnits="userSpaceOnUse" id="color-28"><stop offset="0.01887" stop-color="#8a8a8a"/><stop offset="0.49292" stop-color="#555555"/><stop offset="1" stop-color="#8a8a8a"/></linearGradient><linearGradient x1="412.42319" y1="151.01978" x2="475.65187" y2="151.01978" gradientUnits="userSpaceOnUse" id="color-29"><stop offset="0.01887" stop-color="#8a8a8a"/><stop offset="0.49292" stop-color="#555555"/><stop offset="1" stop-color="#8a8a8a"/></linearGradient><linearGradient x1="412.42319" y1="151.01978" x2="475.65187" y2="151.01978" gradientUnits="userSpaceOnUse" id="color-30"><stop offset="0.01887" stop-color="#8a8a8a"/><stop offset="0.49292" stop-color="#555555"/><stop offset="1" stop-color="#8a8a8a"/></linearGradient><linearGradient x1="4.28515" y1="209.09431" x2="67.51385" y2="209.09431" gradientUnits="userSpaceOnUse" id="color-31"><stop offset="0.01887" stop-color="#8a8a8a"/><stop offset="0.49292" stop-color="#555555"/><stop offset="1" stop-color="#8a8a8a"/></linearGradient><linearGradient x1="4.28515" y1="209.09431" x2="67.51385" y2="209.09431" gradientUnits="userSpaceOnUse" id="color-32"><stop offset="0.01887" stop-color="#8a8a8a"/><stop offset="0.49292" stop-color="#555555"/><stop offset="1" stop-color="#8a8a8a"/></linearGradient><linearGradient x1="72.34008" y1="209.09431" x2="135.56875" y2="209.09431" gradientUnits="userSpaceOnUse" id="color-33"><stop offset="0.01887" stop-color="#8a8a8a"/><stop offset="0.49292" stop-color="#555555"/><stop offset="1" stop-color="#8a8a8a"/></linearGradient><linearGradient x1="72.34008" y1="209.09431" x2="135.56875" y2="209.09431" gradientUnits="userSpaceOnUse" id="color-34"><stop offset="0.01887" stop-color="#8a8a8a"/><stop offset="0.49292" stop-color="#555555"/><stop offset="1" stop-color="#8a8a8a"/></linearGradient><linearGradient x1="140.35483" y1="209.09431" x2="203.58351" y2="209.09431" gradientUnits="userSpaceOnUse" id="color-35"><stop offset="0.01887" stop-color="#8a8a8a"/><stop offset="0.49292" stop-color="#555555"/><stop offset="1" stop-color="#8a8a8a"/></linearGradient><linearGradient x1="140.35483" y1="209.09431" x2="203.58351" y2="209.09431" gradientUnits="userSpaceOnUse" id="color-36"><stop offset="0.01887" stop-color="#8a8a8a"/><stop offset="0.49292" stop-color="#555555"/><stop offset="1" stop-color="#8a8a8a"/></linearGradient><linearGradient x1="208.27542" y1="209.09431" x2="271.50408" y2="209.09431" gradientUnits="userSpaceOnUse" id="color-37"><stop offset="0.01887" stop-color="#8a8a8a"/><stop offset="0.49292" stop-color="#555555"/><stop offset="1" stop-color="#8a8a8a"/></linearGradient><linearGradient x1="208.27542" y1="209.09431" x2="271.50408" y2="209.09431" gradientUnits="userSpaceOnUse" id="color-38"><stop offset="0.01887" stop-color="#8a8a8a"/><stop offset="0.49292" stop-color="#555555"/><stop offset="1" stop-color="#8a8a8a"/></linearGradient><linearGradient x1="276.29016" y1="209.09431" x2="339.51885" y2="209.09431" gradientUnits="userSpaceOnUse" id="color-39"><stop offset="0.01887" stop-color="#8a8a8a"/><stop offset="0.49292" stop-color="#555555"/><stop offset="1" stop-color="#8a8a8a"/></linearGradient><linearGradient x1="276.29016" y1="209.09431" x2="339.51885" y2="209.09431" gradientUnits="userSpaceOnUse" id="color-40"><stop offset="0.01887" stop-color="#8a8a8a"/><stop offset="0.49292" stop-color="#555555"/><stop offset="1" stop-color="#8a8a8a"/></linearGradient><linearGradient x1="344.34068" y1="209.09431" x2="407.56935" y2="209.09431" gradientUnits="userSpaceOnUse" id="color-41"><stop offset="0.01887" stop-color="#8a8a8a"/><stop offset="0.49292" stop-color="#555555"/><stop offset="1" stop-color="#8a8a8a"/></linearGradient><linearGradient x1="344.34068" y1="209.09431" x2="407.56935" y2="209.09431" gradientUnits="userSpaceOnUse" id="color-42"><stop offset="0.01887" stop-color="#8a8a8a"/><stop offset="0.49292" stop-color="#555555"/><stop offset="1" stop-color="#8a8a8a"/></linearGradient><linearGradient x1="412.39169" y1="208.95072" x2="475.62036" y2="208.95072" gradientUnits="userSpaceOnUse" id="color-43"><stop offset="0.01887" stop-color="#8a8a8a"/><stop offset="0.49292" stop-color="#555555"/><stop offset="1" stop-color="#8a8a8a"/></linearGradient><linearGradient x1="412.39169" y1="208.95072" x2="475.62036" y2="208.95072" gradientUnits="userSpaceOnUse" id="color-44"><stop offset="0.01887" stop-color="#8a8a8a"/><stop offset="0.49292" stop-color="#555555"/><stop offset="1" stop-color="#8a8a8a"/></linearGradient><linearGradient x1="4.36393" y1="267.03292" x2="67.5926" y2="267.03292" gradientUnits="userSpaceOnUse" id="color-45"><stop offset="0.01887" stop-color="#8a8a8a"/><stop offset="0.49292" stop-color="#555555"/><stop offset="1" stop-color="#8a8a8a"/></linearGradient><linearGradient x1="4.36393" y1="267.03292" x2="67.5926" y2="267.03292" gradientUnits="userSpaceOnUse" id="color-46"><stop offset="0.01887" stop-color="#8a8a8a"/><stop offset="0.49292" stop-color="#555555"/><stop offset="1" stop-color="#8a8a8a"/></linearGradient><linearGradient x1="72.41881" y1="267.03292" x2="135.64752" y2="267.03292" gradientUnits="userSpaceOnUse" id="color-47"><stop offset="0.01887" stop-color="#8a8a8a"/><stop offset="0.49292" stop-color="#555555"/><stop offset="1" stop-color="#8a8a8a"/></linearGradient><linearGradient x1="72.41881" y1="267.03292" x2="135.64752" y2="267.03292" gradientUnits="userSpaceOnUse" id="color-48"><stop offset="0.01887" stop-color="#8a8a8a"/><stop offset="0.49292" stop-color="#555555"/><stop offset="1" stop-color="#8a8a8a"/></linearGradient><linearGradient x1="140.43356" y1="267.03292" x2="203.66227" y2="267.03292" gradientUnits="userSpaceOnUse" id="color-49"><stop offset="0.01887" stop-color="#8a8a8a"/><stop offset="0.49292" stop-color="#555555"/><stop offset="1" stop-color="#8a8a8a"/></linearGradient><linearGradient x1="140.43356" y1="267.03292" x2="203.66227" y2="267.03292" gradientUnits="userSpaceOnUse" id="color-50"><stop offset="0.01887" stop-color="#8a8a8a"/><stop offset="0.49292" stop-color="#555555"/><stop offset="1" stop-color="#8a8a8a"/></linearGradient><linearGradient x1="208.35418" y1="267.03292" x2="271.58285" y2="267.03292" gradientUnits="userSpaceOnUse" id="color-51"><stop offset="0.01887" stop-color="#8a8a8a"/><stop offset="0.49292" stop-color="#555555"/><stop offset="1" stop-color="#8a8a8a"/></linearGradient><linearGradient x1="208.35418" y1="267.03292" x2="271.58285" y2="267.03292" gradientUnits="userSpaceOnUse" id="color-52"><stop offset="0.01887" stop-color="#8a8a8a"/><stop offset="0.49292" stop-color="#555555"/><stop offset="1" stop-color="#8a8a8a"/></linearGradient><linearGradient x1="276.36893" y1="267.03292" x2="339.59761" y2="267.03292" gradientUnits="userSpaceOnUse" id="color-53"><stop offset="0.01887" stop-color="#8a8a8a"/><stop offset="0.49292" stop-color="#555555"/><stop offset="1" stop-color="#8a8a8a"/></linearGradient><linearGradient x1="276.36893" y1="267.03292" x2="339.59761" y2="267.03292" gradientUnits="userSpaceOnUse" id="color-54"><stop offset="0.01887" stop-color="#8a8a8a"/><stop offset="0.49292" stop-color="#555555"/><stop offset="1" stop-color="#8a8a8a"/></linearGradient><linearGradient x1="344.41944" y1="267.03292" x2="407.64811" y2="267.03292" gradientUnits="userSpaceOnUse" id="color-55"><stop offset="0.01887" stop-color="#8a8a8a"/><stop offset="0.49292" stop-color="#555555"/><stop offset="1" stop-color="#8a8a8a"/></linearGradient><linearGradient x1="344.41944" y1="267.03292" x2="407.64811" y2="267.03292" gradientUnits="userSpaceOnUse" id="color-56"><stop offset="0.01887" stop-color="#8a8a8a"/><stop offset="0.49292" stop-color="#555555"/><stop offset="1" stop-color="#8a8a8a"/></linearGradient><linearGradient x1="412.47045" y1="266.88933" x2="475.69912" y2="266.88933" gradientUnits="userSpaceOnUse" id="color-57"><stop offset="0.01887" stop-color="#8a8a8a"/><stop offset="0.49292" stop-color="#555555"/><stop offset="1" stop-color="#8a8a8a"/></linearGradient><linearGradient x1="412.47045" y1="266.88933" x2="475.69912" y2="266.88933" gradientUnits="userSpaceOnUse" id="color-58"><stop offset="0.01887" stop-color="#8a8a8a"/><stop offset="0.49292" stop-color="#555555"/><stop offset="1" stop-color="#8a8a8a"/></linearGradient><linearGradient x1="294.27994" y1="328.70397" x2="476.30674" y2="328.70397" gradientUnits="userSpaceOnUse" id="color-59"><stop offset="0" stop-color="#404040"/><stop offset="0.49057" stop-color="#2b2b2b"/><stop offset="1" stop-color="#404040"/></linearGradient><linearGradient x1="5.05746" y1="328.704" x2="187.08429" y2="328.704" gradientUnits="userSpaceOnUse" id="color-60"><stop offset="0" stop-color="#404040"/><stop offset="0.49057" stop-color="#2b2b2b"/><stop offset="1" stop-color="#404040"/></linearGradient><linearGradient x1="268.79841" y1="45.48232" x2="281.84474" y2="45.48232" gradientUnits="userSpaceOnUse" id="color-61"><stop offset="0" stop-color="#ebda85"/><stop offset="1" stop-color="#b0a236"/></linearGradient><linearGradient x1="149.48765" y1="30.03264" x2="240.43936" y2="30.03264" gradientUnits="userSpaceOnUse" id="color-62"><stop offset="0" stop-color="#ffffff" stop-opacity="0"/><stop offset="0.49292" stop-color="#ffffff" stop-opacity="0.25098"/><stop offset="1" stop-color="#ffffff" stop-opacity="0"/></linearGradient></defs><g transform="translate(5.73925,-0.00001)"><g stroke-miterlimit="10"><path d="M-5.73924,62.27395v-62.27393h493.33333v62.27393z" fill="url(#color-1)" stroke="none" stroke-width="0" stroke-linecap="butt"/><text transform="translate(154.65531,35.65463) scale(0.39157,0.39157)" font-size="40" xml:space="preserve" fill="#f1f1f1" stroke="none" stroke-width="1" stroke-linecap="butt" font-family="&quot;HeadingNowTrial-63Book&quot;, Sans Serif" font-weight="normal" text-anchor="start"><tspan x="0" dy="0">INVENTORY</tspan></text><path d="M145.1589,41.65892v-21.0439" fill="none" stroke-opacity="0.74902" stroke="#e0e0e0" stroke-width="1" stroke-linecap="round"/><path d="M244.76669,41.65894v-21.04391" fill="none" stroke-opacity="0.74902" stroke="#e0e0e0" stroke-width="1" stroke-linecap="round"/><text transform="translate(90.66887,35.65463) scale(0.39157,0.39157)" font-size="40" xml:space="preserve" fill="#f1f1f1" stroke="none" stroke-width="1" stroke-linecap="butt" font-family="&quot;HeadingNowTrial-63Book&quot;, Sans Serif" font-weight="normal" text-anchor="start"><tspan x="0" dy="0">STORE</tspan></text><text transform="translate(254.16897,35.65462) scale(0.39157,0.39157)" font-size="40" xml:space="preserve" fill="#f1f1f1" stroke="none" stroke-width="1" stroke-linecap="butt" font-family="&quot;HeadingNowTrial-63Book&quot;, Sans Serif" font-weight="normal" text-anchor="start"><tspan x="0" dy="0">NEWS</tspan></text><path d="M305.11314,41.65894v-21.04391" fill="none" stroke-opacity="0.74902" stroke="#e0e0e0" stroke-width="1" stroke-linecap="round"/><text transform="translate(314.52825,35.65462) scale(0.39157,0.39157)" font-size="40" xml:space="preserve" fill="#f1f1f1" stroke="none" stroke-width="1" stroke-linecap="butt" font-family="&quot;HeadingNowTrial-63Book&quot;, Sans Serif" font-weight="normal" text-anchor="start"><tspan x="0" dy="0">SETTINGS</tspan></text><path d="M80.60581,41.65892v-21.0439" fill="none" stroke-opacity="0.74902" stroke="#e0e0e0" stroke-width="1" stroke-linecap="round"/><path d="M80.62426,41.65892v-21.0439" fill="none" stroke-opacity="0.74902" stroke="#e0e0e0" stroke-width="1" stroke-linecap="round"/><text transform="translate(12.33544,35.65462) scale(0.39157,0.39157)" font-size="40" xml:space="preserve" fill="#f1f1f1" stroke="none" stroke-width="1" stroke-linecap="butt" font-family="&quot;HeadingNowTrial-63Book&quot;, Sans Serif" font-weight="normal" text-anchor="start"><tspan x="0" dy="0">MARKET</tspan></text><path d="M391.02078,62.27394v-62.27393h89.95238v62.27394z" fill-opacity="0.74902" fill="#636363" stroke="none" stroke-width="0" stroke-linecap="butt"/><path d="M430.38699,16.5733l5.76087,11.52174h-11.52174z" fill="url(#color-2)" stroke="none" stroke-width="0" stroke-linecap="butt"/><path d="M400.02923,51.65077h71.93548" fill="none" stroke="#052700" stroke-width="5" stroke-linecap="round"/><path d="M441.64213,51.65077h-41.6129" fill="none" stroke="#42b533" stroke-width="5" stroke-linecap="round"/><text transform="translate(400.16704,47.16394) scale(0.1988,0.1988)" font-size="40" xml:space="preserve" fill="#42b533" stroke="none" stroke-width="1" stroke-linecap="butt" font-family="Sans Serif" font-weight="normal" text-anchor="start"><tspan x="0" dy="0">1000/1000</tspan></text><text transform="translate(438.31817,25.67227) scale(0.19881,0.19881)" font-size="40" xml:space="preserve" fill="#b0a236" stroke="none" stroke-width="1" stroke-linecap="butt" font-family="Sans Serif" font-weight="normal" text-anchor="start"><tspan x="0" dy="0">1,000,000</tspan></text><path d="M396.32858,33.37985v-25h25v25z" fill="#555555" stroke="none" stroke-width="0" stroke-linecap="butt"/><path d="M398.30661,31.40181v-21.04392h21.04392v21.04392z" fill="#8a8a8a" stroke="none" stroke-width="0" stroke-linecap="butt"/><g stroke-linecap="butt"><g><path d="M9.82148,119.93104c-3.00543,0 -5.44181,-2.43638 -5.44181,-5.44181v-42.7571c0,-3.00543 2.43638,-5.44181 5.44181,-5.44181h52.34506c3.00543,0 5.44181,2.43638 5.44181,5.44181v42.7571c0,3.00543 -2.43638,5.44181 -5.44181,5.44181z" fill-opacity="0.50196" fill="#545454" stroke="url(#color-3)" stroke-width="0.5"/><path d="M9.82148,119.93104c-3.00543,0 -5.44181,-2.43638 -5.44181,-5.44181v-7.02976h63.22868v7.02976c0,3.00543 -2.43638,5.44181 -5.44181,5.44181z" fill="#8a8a8a" stroke="url(#color-4)" stroke-width="0"/><text transform="translate(7.75994,116.64966) scale(0.25607,0.25607)" font-size="40" xml:space="preserve" fill="#000000" stroke="none" stroke-width="1" font-family="Sans Serif" font-weight="normal" text-anchor="start"><tspan x="0" dy="0">Card</tspan></text></g><g><path d="M77.8764,119.93104c-3.00543,0 -5.44181,-2.43638 -5.44181,-5.44181v-42.7571c0,-3.00543 2.43638,-5.44181 5.44181,-5.44181h52.34506c3.00543,0 5.44181,2.43638 5.44181,5.44181v42.7571c0,3.00543 -2.43638,5.44181 -5.44181,5.44181z" fill-opacity="0.50196" fill="#545454" stroke="url(#color-5)" stroke-width="0.5"/><path d="M77.8764,119.93104c-3.00543,0 -5.44181,-2.43638 -5.44181,-5.44181v-7.02976h63.22868v7.02976c0,3.00543 -2.43638,5.44181 -5.44181,5.44181z" fill="#8a8a8a" stroke="url(#color-6)" stroke-width="0"/><text transform="translate(75.81485,116.64966) scale(0.25607,0.25607)" font-size="40" xml:space="preserve" fill="#000000" stroke="none" stroke-width="1" font-family="Sans Serif" font-weight="normal" text-anchor="start"><tspan x="0" dy="0">Card</tspan></text></g><g><path d="M145.89116,119.93104c-3.00543,0 -5.44181,-2.43638 -5.44181,-5.44181v-42.7571c0,-3.00543 2.43638,-5.44181 5.44181,-5.44181h52.34506c3.00543,0 5.44181,2.43638 5.44181,5.44181v42.7571c0,3.00543 -2.43638,5.44181 -5.44181,5.44181z" fill-opacity="0.50196" fill="#545454" stroke="url(#color-7)" stroke-width="0.5"/><path d="M145.89116,119.93104c-3.00543,0 -5.44181,-2.43638 -5.44181,-5.44181v-7.02976h63.22868v7.02976c0,3.00543 -2.43638,5.44181 -5.44181,5.44181z" fill="#8a8a8a" stroke="url(#color-8)" stroke-width="0"/><text transform="translate(143.82959,116.64966) scale(0.25607,0.25607)" font-size="40" xml:space="preserve" fill="#000000" stroke="none" stroke-width="1" font-family="Sans Serif" font-weight="normal" text-anchor="start"><tspan x="0" dy="0">Card</tspan></text></g><g><path d="M213.81175,119.93104c-3.00543,0 -5.44181,-2.43638 -5.44181,-5.44181v-42.7571c0,-3.00543 2.43638,-5.44181 5.44181,-5.44181h52.34505c3.00543,0 5.44181,2.43638 5.44181,5.44181v42.7571c0,3.00543 -2.43638,5.44181 -5.44181,5.44181z" fill-opacity="0.50196" fill="#545454" stroke="url(#color-9)" stroke-width="0.5"/><path d="M213.81175,119.93104c-3.00543,0 -5.44181,-2.43638 -5.44181,-5.44181v-7.02976h63.22868v7.02976c0,3.00543 -2.43638,5.44181 -5.44181,5.44181z" fill="#8a8a8a" stroke="url(#color-10)" stroke-width="0"/><text transform="translate(211.7502,116.64966) scale(0.25607,0.25607)" font-size="40" xml:space="preserve" fill="#000000" stroke="none" stroke-width="1" font-family="Sans Serif" font-weight="normal" text-anchor="start"><tspan x="0" dy="0">Card</tspan></text></g><g><path d="M281.82648,119.93104c-3.00543,0 -5.44181,-2.43638 -5.44181,-5.44181v-42.7571c0,-3.00543 2.43638,-5.44181 5.44181,-5.44181h52.34506c3.00543,0 5.44181,2.43638 5.44181,5.44181v42.7571c0,3.00543 -2.43638,5.44181 -5.44181,5.44181z" fill-opacity="0.50196" fill="#545454" stroke="url(#color-11)" stroke-width="0.5"/><path d="M281.82648,119.93104c-3.00543,0 -5.44181,-2.43638 -5.44181,-5.44181v-7.02976h63.22868v7.02976c0,3.00543 -2.43638,5.44181 -5.44181,5.44181z" fill="#8a8a8a" stroke="url(#color-12)" stroke-width="0"/><text transform="translate(279.76491,116.64966) scale(0.25607,0.25607)" font-size="40" xml:space="preserve" fill="#000000" stroke="none" stroke-width="1" font-family="Sans Serif" font-weight="normal" text-anchor="start"><tspan x="0" dy="0">Card</tspan></text></g><g><path d="M349.877,119.93104c-3.00543,0 -5.44181,-2.43638 -5.44181,-5.44181v-42.7571c0,-3.00543 2.43638,-5.44181 5.44181,-5.44181h52.34506c3.00543,0 5.44181,2.43638 5.44181,5.44181v42.7571c0,3.00543 -2.43638,5.44181 -5.44181,5.44181z" fill-opacity="0.50196" fill="#545454" stroke="url(#color-13)" stroke-width="0.5"/><path d="M349.877,119.93104c-3.00543,0 -5.44181,-2.43638 -5.44181,-5.44181v-7.02976h63.22868v7.02976c0,3.00543 -2.43638,5.44181 -5.44181,5.44181z" fill="#8a8a8a" stroke="url(#color-14)" stroke-width="0"/><text transform="translate(347.81545,116.64966) scale(0.25607,0.25607)" font-size="40" xml:space="preserve" fill="#000000" stroke="none" stroke-width="1" font-family="Sans Serif" font-weight="normal" text-anchor="start"><tspan x="0" dy="0">Card</tspan></text></g><g><path d="M417.92801,119.78745c-3.00543,0 -5.44181,-2.43638 -5.44181,-5.44181v-42.7571c0,-3.00543 2.43638,-5.44181 5.44181,-5.44181h52.34506c3.00543,0 5.44181,2.43638 5.44181,5.44181v42.7571c0,3.00543 -2.43638,5.44181 -5.44181,5.44181z" fill-opacity="0.50196" fill="#545454" stroke="url(#color-15)" stroke-width="0.5"/><path d="M417.92801,119.78745c-3.00543,0 -5.44181,-2.43638 -5.44181,-5.44181v-7.02976h63.22868v7.02976c0,3.00543 -2.43638,5.44181 -5.44181,5.44181z" fill="#8a8a8a" stroke="url(#color-16)" stroke-width="0"/><text transform="translate(415.86646,116.50607) scale(0.25607,0.25607)" font-size="40" xml:space="preserve" fill="#000000" stroke="none" stroke-width="1" font-family="Sans Serif" font-weight="normal" text-anchor="start"><tspan x="0" dy="0">Card</tspan></text></g></g><g stroke-linecap="butt"><g><path d="M9.75846,177.98373c-3.00543,0 -5.44181,-2.43638 -5.44181,-5.44181v-42.7571c0,-3.00543 2.43638,-5.44181 5.44181,-5.44181h52.34506c3.00543,0 5.44181,2.43638 5.44181,5.44181v42.7571c0,3.00543 -2.43638,5.44181 -5.44181,5.44181z" fill-opacity="0.50196" fill="#545454" stroke="url(#color-17)" stroke-width="0.5"/><path d="M9.75846,177.98373c-3.00543,0 -5.44181,-2.43638 -5.44181,-5.44181v-7.02976h63.22868v7.02976c0,3.00543 -2.43638,5.44181 -5.44181,5.44181z" fill="#8a8a8a" stroke="url(#color-18)" stroke-width="0"/><text transform="translate(7.69693,174.70236) scale(0.25607,0.25607)" font-size="40" xml:space="preserve" fill="#000000" stroke="none" stroke-width="1" font-family="Sans Serif" font-weight="normal" text-anchor="start"><tspan x="0" dy="0">Card</tspan></text></g><g><path d="M77.81337,177.98373c-3.00543,0 -5.44181,-2.43638 -5.44181,-5.44181v-42.7571c0,-3.00543 2.43638,-5.44181 5.44181,-5.44181h52.34506c3.00543,0 5.44181,2.43638 5.44181,5.44181v42.7571c0,3.00543 -2.43638,5.44181 -5.44181,5.44181z" fill-opacity="0.50196" fill="#545454" stroke="url(#color-19)" stroke-width="0.5"/><path d="M77.81337,177.98373c-3.00543,0 -5.44181,-2.43638 -5.44181,-5.44181v-7.02976h63.22868v7.02976c0,3.00543 -2.43638,5.44181 -5.44181,5.44181z" fill="#8a8a8a" stroke="url(#color-20)" stroke-width="0"/><text transform="translate(75.75185,174.70236) scale(0.25607,0.25607)" font-size="40" xml:space="preserve" fill="#000000" stroke="none" stroke-width="1" font-family="Sans Serif" font-weight="normal" text-anchor="start"><tspan x="0" dy="0">Card</tspan></text></g><g><path d="M145.82814,177.98373c-3.00543,0 -5.44181,-2.43638 -5.44181,-5.44181v-42.7571c0,-3.00543 2.43638,-5.44181 5.44181,-5.44181h52.34506c3.00543,0 5.44181,2.43638 5.44181,5.44181v42.7571c0,3.00543 -2.43638,5.44181 -5.44181,5.44181z" fill-opacity="0.50196" fill="#545454" stroke="url(#color-21)" stroke-width="0.5"/><path d="M145.82814,177.98373c-3.00543,0 -5.44181,-2.43638 -5.44181,-5.44181v-7.02976h63.22868v7.02976c0,3.00543 -2.43638,5.44181 -5.44181,5.44181z" fill="#8a8a8a" stroke="url(#color-22)" stroke-width="0"/><text transform="translate(143.76657,174.70236) scale(0.25607,0.25607)" font-size="40" xml:space="preserve" fill="#000000" stroke="none" stroke-width="1" font-family="Sans Serif" font-weight="normal" text-anchor="start"><tspan x="0" dy="0">Card</tspan></text></g><g><path d="M213.74873,177.98373c-3.00543,0 -5.44181,-2.43638 -5.44181,-5.44181v-42.7571c0,-3.00543 2.43638,-5.44181 5.44181,-5.44181h52.34506c3.00543,0 5.44181,2.43638 5.44181,5.44181v42.7571c0,3.00543 -2.43638,5.44181 -5.44181,5.44181z" fill-opacity="0.50196" fill="#545454" stroke="url(#color-23)" stroke-width="0.5"/><path d="M213.74873,177.98373c-3.00543,0 -5.44181,-2.43638 -5.44181,-5.44181v-7.02976h63.22867v7.02976c0,3.00543 -2.43638,5.44181 -5.44181,5.44181z" fill="#8a8a8a" stroke="url(#color-24)" stroke-width="0"/><text transform="translate(211.68719,174.70236) scale(0.25607,0.25607)" font-size="40" xml:space="preserve" fill="#000000" stroke="none" stroke-width="1" font-family="Sans Serif" font-weight="normal" text-anchor="start"><tspan x="0" dy="0">Card</tspan></text></g><g><path d="M281.76348,177.98373c-3.00543,0 -5.44181,-2.43638 -5.44181,-5.44181v-42.7571c0,-3.00543 2.43638,-5.44181 5.44181,-5.44181h52.34506c3.00543,0 5.44181,2.43638 5.44181,5.44181v42.7571c0,3.00543 -2.43638,5.44181 -5.44181,5.44181z" fill-opacity="0.50196" fill="#545454" stroke="url(#color-25)" stroke-width="0.5"/><path d="M281.76348,177.98373c-3.00543,0 -5.44181,-2.43638 -5.44181,-5.44181v-7.02976h63.22867v7.02976c0,3.00543 -2.43638,5.44181 -5.44181,5.44181z" fill="#8a8a8a" stroke="url(#color-26)" stroke-width="0"/><text transform="translate(279.70193,174.70236) scale(0.25607,0.25607)" font-size="40" xml:space="preserve" fill="#000000" stroke="none" stroke-width="1" font-family="Sans Serif" font-weight="normal" text-anchor="start"><tspan x="0" dy="0">Card</tspan></text></g><g><path d="M349.81399,177.98373c-3.00543,0 -5.44181,-2.43638 -5.44181,-5.44181v-42.7571c0,-3.00543 2.43638,-5.44181 5.44181,-5.44181h52.34506c3.00543,0 5.44181,2.43638 5.44181,5.44181v42.7571c0,3.00543 -2.43638,5.44181 -5.44181,5.44181z" fill-opacity="0.50196" fill="#545454" stroke="url(#color-27)" stroke-width="0.5"/><path d="M349.81399,177.98373c-3.00543,0 -5.44181,-2.43638 -5.44181,-5.44181v-7.02976h63.22868v7.02976c0,3.00543 -2.43638,5.44181 -5.44181,5.44181z" fill="#8a8a8a" stroke="url(#color-28)" stroke-width="0"/><text transform="translate(347.75243,174.70236) scale(0.25607,0.25607)" font-size="40" xml:space="preserve" fill="#000000" stroke="none" stroke-width="1" font-family="Sans Serif" font-weight="normal" text-anchor="start"><tspan x="0" dy="0">Card</tspan></text></g><g><path d="M417.865,177.84014c-3.00543,0 -5.44181,-2.43638 -5.44181,-5.44181v-42.7571c0,-3.00543 2.43638,-5.44181 5.44181,-5.44181h52.34506c3.00543,0 5.44181,2.43638 5.44181,5.44181v42.7571c0,3.00543 -2.43638,5.44181 -5.44181,5.44181z" fill-opacity="0.50196" fill="#545454" stroke="url(#color-29)" stroke-width="0.5"/><path d="M417.865,177.84014c-3.00543,0 -5.44181,-2.43638 -5.44181,-5.44181v-7.02976h63.22868v7.02976c0,3.00543 -2.43638,5.44181 -5.44181,5.44181z" fill="#8a8a8a" stroke="url(#color-30)" stroke-width="0"/><text transform="translate(415.80345,174.55877) scale(0.25607,0.25607)" font-size="40" xml:space="preserve" fill="#000000" stroke="none" stroke-width="1" font-family="Sans Serif" font-weight="normal" text-anchor="start"><tspan x="0" dy="0">Card</tspan></text></g></g><g stroke-linecap="butt"><g><path d="M9.72698,235.91467c-3.00543,0 -5.44181,-2.43638 -5.44181,-5.44181v-42.7571c0,-3.00543 2.43638,-5.44181 5.44181,-5.44181h52.34506c3.00543,0 5.44181,2.43638 5.44181,5.44181v42.7571c0,3.00543 -2.43638,5.44181 -5.44181,5.44181z" fill-opacity="0.50196" fill="#545454" stroke="url(#color-31)" stroke-width="0.5"/><path d="M9.72698,235.91467c-3.00543,0 -5.44181,-2.43638 -5.44181,-5.44181v-7.02976h63.22868v7.02976c0,3.00543 -2.43638,5.44181 -5.44181,5.44181z" fill="#8a8a8a" stroke="url(#color-32)" stroke-width="0"/><text transform="translate(7.66543,232.6333) scale(0.25607,0.25607)" font-size="40" xml:space="preserve" fill="#000000" stroke="none" stroke-width="1" font-family="Sans Serif" font-weight="normal" text-anchor="start"><tspan x="0" dy="0">Card</tspan></text></g><g><path d="M77.78189,235.91467c-3.00543,0 -5.44181,-2.43638 -5.44181,-5.44181v-42.7571c0,-3.00543 2.43638,-5.44181 5.44181,-5.44181h52.34505c3.00543,0 5.44181,2.43638 5.44181,5.44181v42.7571c0,3.00543 -2.43638,5.44181 -5.44181,5.44181z" fill-opacity="0.50196" fill="#545454" stroke="url(#color-33)" stroke-width="0.5"/><path d="M77.78189,235.91467c-3.00543,0 -5.44181,-2.43638 -5.44181,-5.44181v-7.02976h63.22868v7.02976c0,3.00543 -2.43638,5.44181 -5.44181,5.44181z" fill="#8a8a8a" stroke="url(#color-34)" stroke-width="0"/><text transform="translate(75.72034,232.6333) scale(0.25607,0.25607)" font-size="40" xml:space="preserve" fill="#000000" stroke="none" stroke-width="1" font-family="Sans Serif" font-weight="normal" text-anchor="start"><tspan x="0" dy="0">Card</tspan></text></g><g><path d="M145.79664,235.91467c-3.00543,0 -5.44181,-2.43638 -5.44181,-5.44181v-42.7571c0,-3.00543 2.43638,-5.44181 5.44181,-5.44181h52.34506c3.00543,0 5.44181,2.43638 5.44181,5.44181v42.7571c0,3.00543 -2.43638,5.44181 -5.44181,5.44181z" fill-opacity="0.50196" fill="#545454" stroke="url(#color-35)" stroke-width="0.5"/><path d="M145.79664,235.91467c-3.00543,0 -5.44181,-2.43638 -5.44181,-5.44181v-7.02976h63.22867v7.02976c0,3.00543 -2.43638,5.44181 -5.44181,5.44181z" fill="#8a8a8a" stroke="url(#color-36)" stroke-width="0"/><text transform="translate(143.7351,232.6333) scale(0.25607,0.25607)" font-size="40" xml:space="preserve" fill="#000000" stroke="none" stroke-width="1" font-family="Sans Serif" font-weight="normal" text-anchor="start"><tspan x="0" dy="0">Card</tspan></text></g><g><path d="M213.71724,235.91467c-3.00543,0 -5.44181,-2.43638 -5.44181,-5.44181v-42.7571c0,-3.00543 2.43638,-5.44181 5.44181,-5.44181h52.34506c3.00543,0 5.44181,2.43638 5.44181,5.44181v42.7571c0,3.00543 -2.43638,5.44181 -5.44181,5.44181z" fill-opacity="0.50196" fill="#545454" stroke="url(#color-37)" stroke-width="0.5"/><path d="M213.71724,235.91467c-3.00543,0 -5.44181,-2.43638 -5.44181,-5.44181v-7.02976h63.22867v7.02976c0,3.00543 -2.43638,5.44181 -5.44181,5.44181z" fill="#8a8a8a" stroke="url(#color-38)" stroke-width="0"/><text transform="translate(211.65568,232.6333) scale(0.25607,0.25607)" font-size="40" xml:space="preserve" fill="#000000" stroke="none" stroke-width="1" font-family="Sans Serif" font-weight="normal" text-anchor="start"><tspan x="0" dy="0">Card</tspan></text></g><g><path d="M281.73197,235.91467c-3.00543,0 -5.44181,-2.43638 -5.44181,-5.44181v-42.7571c0,-3.00543 2.43638,-5.44181 5.44181,-5.44181h52.34506c3.00543,0 5.44181,2.43638 5.44181,5.44181v42.7571c0,3.00543 -2.43638,5.44181 -5.44181,5.44181z" fill-opacity="0.50196" fill="#545454" stroke="url(#color-39)" stroke-width="0.5"/><path d="M281.73197,235.91467c-3.00543,0 -5.44181,-2.43638 -5.44181,-5.44181v-7.02976h63.22868v7.02976c0,3.00543 -2.43638,5.44181 -5.44181,5.44181z" fill="#8a8a8a" stroke="url(#color-40)" stroke-width="0"/><text transform="translate(279.67043,232.6333) scale(0.25607,0.25607)" font-size="40" xml:space="preserve" fill="#000000" stroke="none" stroke-width="1" font-family="Sans Serif" font-weight="normal" text-anchor="start"><tspan x="0" dy="0">Card</tspan></text></g><g><path d="M349.78249,235.91467c-3.00543,0 -5.44181,-2.43638 -5.44181,-5.44181v-42.7571c0,-3.00543 2.43638,-5.44181 5.44181,-5.44181h52.34506c3.00543,0 5.44181,2.43638 5.44181,5.44181v42.7571c0,3.00543 -2.43638,5.44181 -5.44181,5.44181z" fill-opacity="0.50196" fill="#545454" stroke="url(#color-41)" stroke-width="0.5"/><path d="M349.78249,235.91467c-3.00543,0 -5.44181,-2.43638 -5.44181,-5.44181v-7.02976h63.22868v7.02976c0,3.00543 -2.43638,5.44181 -5.44181,5.44181z" fill="#8a8a8a" stroke="url(#color-42)" stroke-width="0"/><text transform="translate(347.72094,232.6333) scale(0.25607,0.25607)" font-size="40" xml:space="preserve" fill="#000000" stroke="none" stroke-width="1" font-family="Sans Serif" font-weight="normal" text-anchor="start"><tspan x="0" dy="0">Card</tspan></text></g><g><path d="M417.8335,235.77108c-3.00543,0 -5.44181,-2.43638 -5.44181,-5.44181v-42.7571c0,-3.00543 2.43638,-5.44181 5.44181,-5.44181h52.34505c3.00543,0 5.44181,2.43638 5.44181,5.44181v42.7571c0,3.00543 -2.43638,5.44181 -5.44181,5.44181z" fill-opacity="0.50196" fill="#545454" stroke="url(#color-43)" stroke-width="0.5"/><path d="M417.8335,235.77108c-3.00543,0 -5.44181,-2.43638 -5.44181,-5.44181v-7.02976h63.22868v7.02976c0,3.00543 -2.43638,5.44181 -5.44181,5.44181z" fill="#8a8a8a" stroke="url(#color-44)" stroke-width="0"/><text transform="translate(415.77195,232.48971) scale(0.25607,0.25607)" font-size="40" xml:space="preserve" fill="#000000" stroke="none" stroke-width="1" font-family="Sans Serif" font-weight="normal" text-anchor="start"><tspan x="0" dy="0">Card</tspan></text></g></g><g stroke-linecap="butt"><g><path d="M9.80571,293.85328c-3.00543,0 -5.44181,-2.43638 -5.44181,-5.44181v-42.7571c0,-3.00543 2.43638,-5.44181 5.44181,-5.44181h52.34506c3.00543,0 5.44181,2.43638 5.44181,5.44181v42.7571c0,3.00543 -2.43638,5.44181 -5.44181,5.44181z" fill-opacity="0.50196" fill="#545454" stroke="url(#color-45)" stroke-width="0.5"/><path d="M9.80571,293.85328c-3.00543,0 -5.44181,-2.43638 -5.44181,-5.44181v-7.02976h63.22868v7.02976c0,3.00543 -2.43638,5.44181 -5.44181,5.44181z" fill="#8a8a8a" stroke="url(#color-46)" stroke-width="0"/><text transform="translate(7.74418,290.5719) scale(0.25607,0.25607)" font-size="40" xml:space="preserve" fill="#000000" stroke="none" stroke-width="1" font-family="Sans Serif" font-weight="normal" text-anchor="start"><tspan x="0" dy="0">Card</tspan></text></g><g><path d="M77.86064,293.85328c-3.00543,0 -5.44181,-2.43638 -5.44181,-5.44181v-42.7571c0,-3.00543 2.43638,-5.44181 5.44181,-5.44181h52.34505c3.00543,0 5.44181,2.43638 5.44181,5.44181v42.7571c0,3.00543 -2.43638,5.44181 -5.44181,5.44181z" fill-opacity="0.50196" fill="#545454" stroke="url(#color-47)" stroke-width="0.5"/><path d="M77.86064,293.85328c-3.00543,0 -5.44181,-2.43638 -5.44181,-5.44181v-7.02976h63.22868v7.02976c0,3.00543 -2.43638,5.44181 -5.44181,5.44181z" fill="#8a8a8a" stroke="url(#color-48)" stroke-width="0"/><text transform="translate(75.79909,290.5719) scale(0.25607,0.25607)" font-size="40" xml:space="preserve" fill="#000000" stroke="none" stroke-width="1" font-family="Sans Serif" font-weight="normal" text-anchor="start"><tspan x="0" dy="0">Card</tspan></text></g><g><path d="M145.8754,293.85328c-3.00543,0 -5.44181,-2.43638 -5.44181,-5.44181v-42.7571c0,-3.00543 2.43638,-5.44181 5.44181,-5.44181h52.34505c3.00543,0 5.44181,2.43638 5.44181,5.44181v42.7571c0,3.00543 -2.43638,5.44181 -5.44181,5.44181z" fill-opacity="0.50196" fill="#545454" stroke="url(#color-49)" stroke-width="0.5"/><path d="M145.8754,293.85328c-3.00543,0 -5.44181,-2.43638 -5.44181,-5.44181v-7.02976h63.22867v7.02976c0,3.00543 -2.43638,5.44181 -5.44181,5.44181z" fill="#8a8a8a" stroke="url(#color-50)" stroke-width="0"/><text transform="translate(143.81384,290.5719) scale(0.25607,0.25607)" font-size="40" xml:space="preserve" fill="#000000" stroke="none" stroke-width="1" font-family="Sans Serif" font-weight="normal" text-anchor="start"><tspan x="0" dy="0">Card</tspan></text></g><g><path d="M213.79599,293.85328c-3.00543,0 -5.44181,-2.43638 -5.44181,-5.44181v-42.7571c0,-3.00543 2.43638,-5.44181 5.44181,-5.44181h52.34506c3.00543,0 5.44181,2.43638 5.44181,5.44181v42.7571c0,3.00543 -2.43638,5.44181 -5.44181,5.44181z" fill-opacity="0.50196" fill="#545454" stroke="url(#color-51)" stroke-width="0.5"/><path d="M213.79599,293.85328c-3.00543,0 -5.44181,-2.43638 -5.44181,-5.44181v-7.02976h63.22868v7.02976c0,3.00543 -2.43638,5.44181 -5.44181,5.44181z" fill="#8a8a8a" stroke="url(#color-52)" stroke-width="0"/><text transform="translate(211.73444,290.5719) scale(0.25607,0.25607)" font-size="40" xml:space="preserve" fill="#000000" stroke="none" stroke-width="1" font-family="Sans Serif" font-weight="normal" text-anchor="start"><tspan x="0" dy="0">Card</tspan></text></g><g><path d="M281.81074,293.85328c-3.00543,0 -5.44181,-2.43638 -5.44181,-5.44181v-42.7571c0,-3.00543 2.43638,-5.44181 5.44181,-5.44181h52.34506c3.00543,0 5.44181,2.43638 5.44181,5.44181v42.7571c0,3.00543 -2.43638,5.44181 -5.44181,5.44181z" fill-opacity="0.50196" fill="#545454" stroke="url(#color-53)" stroke-width="0.5"/><path d="M281.81074,293.85328c-3.00543,0 -5.44181,-2.43638 -5.44181,-5.44181v-7.02976h63.22868v7.02976c0,3.00543 -2.43638,5.44181 -5.44181,5.44181z" fill="#8a8a8a" stroke="url(#color-54)" stroke-width="0"/><text transform="translate(279.74917,290.5719) scale(0.25607,0.25607)" font-size="40" xml:space="preserve" fill="#000000" stroke="none" stroke-width="1" font-family="Sans Serif" font-weight="normal" text-anchor="start"><tspan x="0" dy="0">Card</tspan></text></g><g><path d="M349.86125,293.85328c-3.00543,0 -5.44181,-2.43638 -5.44181,-5.44181v-42.7571c0,-3.00543 2.43638,-5.44181 5.44181,-5.44181h52.34506c3.00543,0 5.44181,2.43638 5.44181,5.44181v42.7571c0,3.00543 -2.43638,5.44181 -5.44181,5.44181z" fill-opacity="0.50196" fill="#545454" stroke="url(#color-55)" stroke-width="0.5"/><path d="M349.86125,293.85328c-3.00543,0 -5.44181,-2.43638 -5.44181,-5.44181v-7.02976h63.22867v7.02976c0,3.00543 -2.43638,5.44181 -5.44181,5.44181z" fill="#8a8a8a" stroke="url(#color-56)" stroke-width="0"/><text transform="translate(347.7997,290.5719) scale(0.25607,0.25607)" font-size="40" xml:space="preserve" fill="#000000" stroke="none" stroke-width="1" font-family="Sans Serif" font-weight="normal" text-anchor="start"><tspan x="0" dy="0">Card</tspan></text></g><g><path d="M417.91226,293.70968c-3.00543,0 -5.44181,-2.43638 -5.44181,-5.44181v-42.7571c0,-3.00543 2.43638,-5.44181 5.44181,-5.44181h52.34506c3.00543,0 5.44181,2.43638 5.44181,5.44181v42.7571c0,3.00543 -2.43638,5.44181 -5.44181,5.44181z" fill-opacity="0.50196" fill="#545454" stroke="url(#color-57)" stroke-width="0.5"/><path d="M417.91226,293.70968c-3.00543,0 -5.44181,-2.43638 -5.44181,-5.44181v-7.02976h63.22868v7.02976c0,3.00543 -2.43638,5.44181 -5.44181,5.44181z" fill="#8a8a8a" stroke="url(#color-58)" stroke-width="0"/><text transform="translate(415.85071,290.42831) scale(0.25607,0.25607)" font-size="40" xml:space="preserve" fill="#000000" stroke="none" stroke-width="1" font-family="Sans Serif" font-weight="normal" text-anchor="start"><tspan x="0" dy="0">Card</tspan></text></g></g><path d="M311.05894,348.02524c-9.2668,0 -16.77901,-7.51221 -16.77901,-16.77901v-5.08455c0,-9.2668 7.51221,-16.77901 16.77901,-16.77901h148.46879c9.2668,0 16.77901,7.51221 16.77901,16.77901v5.08455c0,9.2668 -7.51221,16.77901 -16.77901,16.77901z" fill-opacity="0.50196" fill="#2c2c2c" stroke="url(#color-59)" stroke-width="0.5" stroke-linecap="butt"/><text transform="translate(318.12129,336.94256) scale(0.68655,0.68655)" font-size="40" xml:space="preserve" fill="#9c9c9c" stroke="none" stroke-width="1" stroke-linecap="butt" font-family="Sans Serif" font-weight="normal" text-anchor="start"><tspan x="0" dy="0">Next Page</tspan></text><path d="M21.83649,348.02527c-9.2668,0 -16.779,-7.5122 -16.779,-16.779v-5.08456c0,-9.2668 7.5122,-16.779 16.779,-16.779h148.46879c9.2668,0 16.779,7.5122 16.779,16.779v5.08456c0,9.2668 -7.5122,16.779 -16.779,16.779z" fill-opacity="0.50196" fill="#2c2c2c" stroke="url(#color-60)" stroke-width="0.5" stroke-linecap="butt"/><text transform="translate(28.55558,336.94259) scale(0.68655,0.68655)" font-size="40" xml:space="preserve" fill="#9c9c9c" stroke="none" stroke-width="1" stroke-linecap="butt" font-family="Sans Serif" font-weight="normal" text-anchor="start"><tspan x="0" dy="0">Back Page</tspan></text><g stroke="none" stroke-linecap="butt"><path d="M271.29841,52.00548c-1.38071,0 -2.5,-1.11929 -2.5,-2.5v-8.04631c0,-1.38071 1.11929,-2.5 2.5,-2.5h8.04631c1.38071,0 2.5,1.11929 2.5,2.5v8.04631c0,1.38071 -1.11929,2.5 -2.5,2.5z" fill="url(#color-61)" stroke-width="0"/><text transform="translate(277.21792,50.31996) rotate(-180) scale(0.34605,-0.34605)" font-size="40" xml:space="preserve" fill="#303030" stroke-width="1" font-family="Sans Serif" font-weight="normal" text-anchor="start"><tspan x="0" dy="0">!</tspan></text></g><path d="M149.48765,38.35426v-16.64323h90.95171v16.64323z" fill="url(#color-62)" stroke="none" stroke-width="0" stroke-linecap="butt"/></g></g></svg>