<svg version="1.1" xmlns="http://www.w3.org/2000/svg" xmlns:xlink="http://www.w3.org/1999/xlink" width="72.1039" height="93.43041" viewBox="0,0,72.1039,93.43041"><defs><linearGradient x1="240" y1="138.03086" x2="240" y2="221.96914" gradientUnits="userSpaceOnUse" id="color-1"><stop offset="0" stop-color="#877070"/><stop offset="1" stop-color="#292929"/></linearGradient><linearGradient x1="240" y1="138.03086" x2="240" y2="221.96914" gradientUnits="userSpaceOnUse" id="color-2"><stop offset="0" stop-color="#ffe0e0"/><stop offset="1" stop-color="#664d4d"/></linearGradient><linearGradient x1="240" y1="137.76678" x2="240" y2="222.23322" gradientUnits="userSpaceOnUse" id="color-3"><stop offset="0" stop-color="#880872" stop-opacity="0.49804"/><stop offset="0.25472" stop-color="#0d378d" stop-opacity="0.49804"/><stop offset="0.49057" stop-color="#238d0d" stop-opacity="0.49804"/><stop offset="0.72406" stop-color="#886408" stop-opacity="0.49804"/><stop offset="1" stop-color="#880808" stop-opacity="0.49804"/></linearGradient></defs><g transform="translate(-203.94805,-133.28478)"><g stroke-miterlimit="10"><path d="M213.01943,221.96914c-1.65685,0 -3,-1.34315 -3,-3v-77.93828c0,-1.65685 1.34315,-3 3,-3h53.96114c1.65685,0 3,1.34315 3,3v77.93828c0,1.65685 -1.34315,3 -3,3z" fill="#9763ff" stroke="#000000" stroke-width="4" stroke-linecap="butt"/><path d="M213.01943,221.96914c-1.65685,0 -3,-1.34315 -3,-3v-77.93828c0,-1.65685 1.34315,-3 3,-3h53.96114c1.65685,0 3,1.34315 3,3v77.93828c0,1.65685 -1.34315,3 -3,3z" fill="url(#color-1)" stroke="none" stroke-width="0" stroke-linecap="butt"/><g stroke="#000000" stroke-width="2.5"><path d="M248.30964,192.04553c0,11.40255 -4.03591,20.64613 -9.01446,20.64613c-4.97855,0 -9.01446,-9.24359 -9.01446,-20.64613c0,-11.40255 4.03591,-20.64613 9.01446,-20.64613c4.97855,0 9.01446,9.24359 9.01446,20.64613z" fill="#1c1c1c" stroke-linecap="butt"/><path d="M235.17248,183.73179c0,2.71931 -1.48385,4.51014 -4.07954,4.51014c-2.5957,0 -0.63114,-9.84747 1.96456,-9.84747c2.5957,0 2.11498,2.61803 2.11498,5.33733z" fill="#990000" stroke-linecap="butt"/><path d="M246.27302,161.36177c0.75425,6.07177 -1.99031,11.41081 -6.13016,11.92507c-4.13985,0.51426 -8.10729,-3.99099 -8.86154,-10.06276c-0.75425,-6.07177 1.99031,-11.41081 6.13016,-11.92507c4.13985,-0.51426 8.10729,3.99099 8.86154,10.06276z" fill="#ffd567" stroke-linecap="butt"/><path d="M245.41658,154.96776c0.49248,3.6753 -2.30957,2.34174 -6.71993,2.93272c-2.72313,0.3649 -4.9323,1.18333 -6.33996,0.891c-0.60188,-0.12499 -5.94323,1.74919 -8.48513,1.36045c-0.80234,-0.1227 -1.15895,-1.95704 -1.21495,-2.23197c-0.02367,-0.11621 8.09238,-1.1937 8.07503,-1.32315c-0.03324,-0.24805 -0.05259,-0.49319 -0.05843,-0.73486c-0.0807,-3.33918 2.41878,-6.01691 6.53148,-6.56801c4.41036,-0.59098 7.71942,1.99852 8.2119,5.67382z" fill="#181818" stroke-linecap="butt"/><path d="M237.83464,166.60319l0.12512,-4.68344" fill="none" stroke-linecap="round"/><path d="M242.75297,161.64645l-0.12512,4.68344" fill="none" stroke-linecap="round"/><path d="M245.50053,177.70757c2.5957,0 4.56027,9.84747 1.96457,9.84747c-2.5957,0 -4.07955,-1.79084 -4.07955,-4.51014c0,-2.7193 -0.48072,-5.33733 2.11498,-5.33733z" fill="#990000" stroke-linecap="butt"/><path d="M257.50442,196.10728c2.41787,10.57339 2.39993,19.59714 -0.04008,20.15512c-2.44001,0.55797 -6.37811,-7.56113 -8.79599,-18.13452c-2.41787,-10.57339 -2.39993,-19.59714 0.04008,-20.15512c2.44001,-0.55797 6.37811,7.56113 8.79599,18.13452z" fill="#990000" stroke-linecap="butt"/><path d="M231.13589,198.39331c-1.48556,10.74411 -4.6998,19.17601 -7.17921,18.83319c-2.47941,-0.34282 -3.28508,-9.33055 -1.79952,-20.07466c1.48556,-10.74411 4.6998,-19.17601 7.17921,-18.83319c2.47941,0.34282 3.28508,9.33055 1.79952,20.07466z" fill="#990000" stroke-linecap="butt"/><path d="M239.04312,174.05202v37.42021" fill="none" stroke-linecap="round"/></g><path d="M213.01943,221.96914c-1.65685,0 -3,-1.34315 -3,-3v-77.93828c0,-1.65685 1.34315,-3 3,-3h53.96114c1.65685,0 3,1.34315 3,3v77.93828c0,1.65685 -1.34315,3 -3,3zM263.23302,197.97227c1.38071,0 2.5,-1.11929 2.5,-2.5v-48.59004c0,-1.38071 -1.11929,-2.5 -2.5,-2.5h-46.46605c-1.38071,0 -2.5,1.11929 -2.5,2.5v48.59004c0,1.38071 1.11929,2.5 2.5,2.5z" fill="url(#color-2)" stroke="none" stroke-width="0" stroke-linecap="butt"/><path d="M213.01943,221.96914c-1.65685,0 -3,-1.34315 -3,-3v-77.93828c0,-1.65685 1.34315,-3 3,-3h53.96114c1.65685,0 3,1.34315 3,3v77.93828c0,1.65685 -1.34315,3 -3,3z" fill="url(#color-3)" stroke="none" stroke-width="NaN" stroke-linecap="butt"/><path d="M213.09723,218.72632l2.51526,-2.51526l2.51526,2.51526l-2.51526,2.51526z" fill="#000000" stroke="none" stroke-width="0" stroke-linecap="butt"/><path d="M218.72934,218.72632l2.51526,-2.51526l2.51526,2.51526l-2.51526,2.51526z" fill="#000000" stroke="none" stroke-width="0" stroke-linecap="butt"/><text transform="translate(224.65998,220.40272) scale(0.0984,0.0984)" font-size="40" xml:space="preserve" fill="#000000" stroke="none" stroke-width="1" stroke-linecap="butt" font-family="Sans Serif" font-weight="normal" text-anchor="start"><tspan x="0" dy="0">11/27</tspan></text><text transform="translate(214.5139,143.14162) scale(0.13917,0.13917)" font-size="40" xml:space="preserve" fill="#000000" stroke="none" stroke-width="1" stroke-linecap="butt" font-family="Sans Serif" font-weight="normal" text-anchor="start"><tspan x="0" dy="0">DJ Tyler</tspan></text><text transform="translate(213.87227,203.13362) scale(0.11215,0.11215)" font-size="40" xml:space="preserve" fill="#000000" stroke="none" stroke-width="1" stroke-linecap="butt" font-family="Sans Serif" font-weight="normal" text-anchor="start"><tspan x="0" dy="0">Most hype DJ on all of</tspan><tspan x="0" dy="48px">Earth. Forgets to restock</tspan><tspan x="0" dy="48px">the food sometimes</tspan></text><text transform="translate(239.57666,220.8475) scale(0.09461,0.09461)" font-size="40" xml:space="preserve" fill="#000000" stroke="none" stroke-width="1" stroke-linecap="butt" font-family="Sans Serif" font-weight="normal" text-anchor="start"><tspan x="0" dy="0">Core Collection</tspan></text><path d="M203.94805,226.7152v-93.43041h72.1039v93.43041z" fill="none" stroke="none" stroke-width="0" stroke-linecap="butt"/></g></g></svg>