<svg version="1.1" xmlns="http://www.w3.org/2000/svg" xmlns:xlink="http://www.w3.org/1999/xlink" width="72.1039" height="93.43041" viewBox="0,0,72.1039,93.43041"><defs><linearGradient x1="240" y1="138.03086" x2="240" y2="221.96914" gradientUnits="userSpaceOnUse" id="color-1"><stop offset="0" stop-color="#868686"/><stop offset="1" stop-color="#292929"/></linearGradient><linearGradient x1="240" y1="138.03086" x2="240" y2="221.96914" gradientUnits="userSpaceOnUse" id="color-2"><stop offset="0" stop-color="#008cea"/><stop offset="1" stop-color="#00daff"/></linearGradient></defs><g transform="translate(-203.94805,-133.28478)"><g stroke-miterlimit="10"><path d="M213.01943,221.96914c-1.65685,0 -3,-1.34315 -3,-3v-77.93828c0,-1.65685 1.34315,-3 3,-3h53.96114c1.65685,0 3,1.34315 3,3v77.93828c0,1.65685 -1.34315,3 -3,3z" fill="#9763ff" stroke="#000000" stroke-width="4" stroke-linecap="butt"/><path d="M213.01943,221.96914c-1.65685,0 -3,-1.34315 -3,-3v-77.93828c0,-1.65685 1.34315,-3 3,-3h53.96114c1.65685,0 3,1.34315 3,3v77.93828c0,1.65685 -1.34315,3 -3,3z" fill="url(#color-1)" stroke="none" stroke-width="0" stroke-linecap="butt"/><g><path d="M223.26005,165.8421c0,-8.96966 7.27135,-16.24101 16.24101,-16.24101c8.96966,0 16.241,7.27134 16.241,16.24101c0,8.96966 -7.27134,16.24101 -16.241,16.24101c-8.96966,0 -16.24101,-7.27134 -16.24101,-16.24101z" fill="#ffc387" stroke="#000000" stroke-width="2.5" stroke-linecap="butt"/><path d="M225.23725,166.54322c0,-8.13676 6.70003,-14.73291 14.96493,-14.73291c8.2649,0 14.96493,6.59614 14.96493,14.73291c0,8.13676 -6.70002,14.73291 -14.96492,14.73291c-8.2649,0 -14.96493,-6.59615 -14.96493,-14.73291z" fill="#ffd2a4" stroke="#000000" stroke-width="0" stroke-linecap="butt"/><path d="M226.44639,157.13081c0,0 -3.17558,-11.10445 -0.71375,-8.57273c3.24967,3.34193 11.14681,-3.3727 21.87026,0c10.72345,3.3727 4.63934,6.55045 4.63934,6.55045z" fill="#000000" stroke="none" stroke-width="0" stroke-linecap="butt"/><path d="M225.62573,155.23589c-0.61031,0 -0.61031,-0.61031 -0.61031,-0.61031l0.04365,-0.01125c-0.70954,-1.79993 -0.55289,-3.82643 -0.86805,-5.71733c0,0 -0.08165,-0.48989 0.34428,-0.65947c0.01328,-0.07146 0.04194,-0.1485 0.09126,-0.23069c0.314,-0.52334 0.83734,-0.20933 0.83734,-0.20933c3.03344,1.83256 7.06015,0.77569 10.22771,-0.0644c0.78933,-0.20934 1.50106,-0.13381 2.29043,-0.36451c1.81661,-0.30022 3.40759,0.14457 5.20123,0.34605c1.24958,0.14037 2.4204,0.04961 3.60562,0.51536l0.28419,0.13974c0,0 0.54587,0.27293 0.27294,0.81881c-0.27293,0.54587 -0.81881,0.27294 -0.81881,0.27294l-0.19164,-0.09818c-1.05208,-0.43018 -2.1752,-0.31129 -3.29391,-0.4363c-1.64055,-0.18332 -3.13138,-0.64727 -4.79119,-0.36769c-0.76421,0.21392 -1.4849,0.13945 -2.22995,0.34924c-3.28822,0.92589 -7.31243,1.81198 -10.55635,0.27107c0.20162,1.65346 0.10437,3.4491 0.72823,4.98136l0.04365,0.46458c0,0 0,0.61031 -0.61031,0.61031z" fill="#2d2d2d" stroke="none" stroke-width="0.5" stroke-linecap="butt"/><path d="M235.65714,193.75261v-11.22966h6.3472v11.22966z" fill="#ffd2a4" stroke="#000000" stroke-width="2.5" stroke-linecap="butt"/><path d="M226.38545,217.98619v-33.78959c0,0 7.44555,-0.72887 8.78131,2.30445c0.59904,1.36035 2.67104,0.95052 3.80422,0.95052c1.76171,0 2.46797,0.52395 4.41301,-1.2423c3.25922,-2.95962 9.52894,-2.01267 9.52894,-2.01267v33.78959z" fill="#00fffa" stroke="#00d7d3" stroke-width="1.5" stroke-linecap="butt"/><path d="M238.9373,215.21169l-0.16275,-27.61366" fill="none" stroke="#515151" stroke-width="2.5" stroke-linecap="round"/><path d="M222.58628,214.55559l-0.29295,-29.5226c0,0 0.57048,-0.5859 0.82098,-0.5859c0.61814,0 3.21518,0 3.21518,0v30.1085z" fill="#00fffa" stroke="#00d7d3" stroke-width="1.5" stroke-linecap="butt"/><path d="M253.34577,215.36933l-0.29295,-29.5226c0,0 0.57048,-0.5859 0.82098,-0.5859c0.61814,0 3.21518,0 3.21518,0v30.1085z" fill="#00fffa" stroke="#00d7d3" stroke-width="1.5" stroke-linecap="butt"/><path d="M236.02087,164.45002c0,2.94717 -1.03876,5.33633 -2.32014,5.33633c-1.28138,0 -2.32014,-2.38916 -2.32014,-5.33633c0,-2.94717 1.03876,-5.33633 2.32014,-5.33633c1.28138,0 2.32014,2.38915 2.32014,5.33633z" fill="#000000" stroke="none" stroke-width="0" stroke-linecap="butt"/><path d="M246.5826,164.80312c0,2.94717 -1.03876,5.33633 -2.32014,5.33633c-1.28138,0 -2.32014,-2.38916 -2.32014,-5.33633c0,-2.94717 1.03876,-5.33633 2.32014,-5.33633c1.28138,0 2.32014,2.38916 2.32014,5.33633z" fill="#000000" stroke="none" stroke-width="0" stroke-linecap="butt"/><path d="M239.70472,173.25282c0,0.61031 -0.61031,0.61031 -0.61031,0.61031l-0.49445,-0.00831c-2.61492,0.43582 -5.20258,0.12726 -7.83256,0.12726c0,0 -0.61031,0 -0.61031,-0.61031c0,-0.61031 0.61031,-0.61031 0.61031,-0.61031c2.56014,0 5.08772,0.31338 7.63189,-0.11066l0.69512,-0.0083c0,0 0.61031,0 0.61031,0.61031z" fill="#000000" stroke="none" stroke-width="0.5" stroke-linecap="butt"/></g><path d="M213.01943,221.96914c-1.65685,0 -3,-1.34315 -3,-3v-77.93828c0,-1.65685 1.34315,-3 3,-3h53.96114c1.65685,0 3,1.34315 3,3v77.93828c0,1.65685 -1.34315,3 -3,3zM262.96734,217.21427c1.38071,0 2.5,-1.11929 2.5,-2.5v-69.42854c0,-1.38071 -1.11929,-2.5 -2.5,-2.5h-45.93468c-1.38071,0 -2.5,1.11929 -2.5,2.5v69.42854c0,1.38071 1.11929,2.5 2.5,2.5z" fill="url(#color-2)" stroke="none" stroke-width="0" stroke-linecap="butt"/><g fill="#00daff" stroke="#000000" stroke-linecap="butt"><path d="M216.42853,215.15254c-1.38071,0 -2.5,-1.11929 -2.5,-2.5v-21.95028c0,-1.38071 1.11929,-2.5 2.5,-2.5h47.14294c1.38071,0 2.5,1.11929 2.5,2.5v21.95028c0,1.38071 -1.11929,2.5 -2.5,2.5z" stroke-width="4"/><path d="M216.42853,215.15254c-1.38071,0 -2.5,-1.11929 -2.5,-2.5v-21.95028c0,-1.38071 1.11929,-2.5 2.5,-2.5h47.14294c1.38071,0 2.5,1.11929 2.5,2.5v21.95028c0,1.38071 -1.11929,2.5 -2.5,2.5z" stroke-width="0"/></g><path d="M214.07078,221.72212l0.26613,-1.63154l-1.12736,-1.15546l1.55798,-0.23804l0.69675,-1.48442l0.69675,1.48442l1.55798,0.23804l-1.12736,1.15546l0.26613,1.63154l-1.3935,-0.77031z" fill="#000000" stroke="none" stroke-width="0" stroke-linecap="butt"/><path d="M219.24056,221.72212l0.26613,-1.63154l-1.12736,-1.15546l1.55798,-0.23804l0.69675,-1.48442l0.69675,1.48442l1.55798,0.23804l-1.12737,1.15546l0.26614,1.63154l-1.3935,-0.77031z" fill="#000000" stroke="none" stroke-width="0" stroke-linecap="butt"/><path d="M224.45301,221.72212l0.26613,-1.63154l-1.12736,-1.15546l1.55798,-0.23804l0.69675,-1.48442l0.69675,1.48442l1.55798,0.23804l-1.12737,1.15546l0.26614,1.63154l-1.3935,-0.77031z" fill="#000000" stroke="none" stroke-width="0" stroke-linecap="butt"/><text transform="translate(239.57666,220.8475) scale(0.09461,0.09461)" font-size="40" xml:space="preserve" fill="#000000" stroke="none" stroke-width="1" stroke-linecap="butt" font-family="Sans Serif" font-weight="normal" text-anchor="start"><tspan x="0" dy="0">Core Collection</tspan></text><text transform="translate(214.5139,142.06931) scale(0.10939,0.10938)" font-size="40" xml:space="preserve" fill="#000000" stroke="none" stroke-width="1" stroke-linecap="butt" font-family="Sans Serif" font-weight="normal" text-anchor="start"><tspan x="0" dy="0">Classic Axl</tspan></text><text transform="translate(228.5168,221.37117) scale(0.0984,0.0984)" font-size="40" xml:space="preserve" fill="#000000" stroke="none" stroke-width="1" stroke-linecap="butt" font-family="Sans Serif" font-weight="normal" text-anchor="start"><tspan x="0" dy="0">19/27</tspan></text><g fill="#000000" stroke="none" stroke-width="0.5" stroke-linecap="butt"><path d="M236.8136,204.81208c-0.15039,0.30078 -0.34445,0.47055 -0.54414,0.56003c0.04776,1.03965 0.04042,2.0926 0.04042,3.17875l-0.44489,1.01797c0,0 -0.64238,0.96357 -1.60595,0.32119c-0.96357,-0.64238 -0.32119,-1.60595 -0.32119,-1.60595l0.0559,0.26679c0,-1.20063 0.02198,-2.36053 -0.05022,-3.50796c-1.41723,-0.26714 -2.83867,-0.52794 -4.23138,-0.89036c-0.78785,1.31172 -1.43522,2.60555 -1.54578,3.88759c0,0 -0.11523,1.15232 -1.26755,1.03709c-1.15232,-0.11523 -1.03709,-1.26755 -1.03709,-1.26755c0.4409,-3.99811 3.88629,-7.19161 4.51408,-11.32384c0.12085,-0.79547 0.54108,-3.27241 1.5858,-3.35047c0.88172,-0.06588 1.52116,0.99127 2.01571,1.7242c0.15188,0.22509 0.21752,2.26396 0.30382,2.68221c0.22877,1.10879 0.85875,2.18198 1.21815,3.25631c0.26305,0.79386 0.44098,1.57846 0.56125,2.36256l0.23517,0.09776c0,0 1.03581,0.5179 0.5179,1.55371zM233.30199,201.53048c-0.19462,-0.58619 -0.54428,-1.31866 -0.87001,-2.09463c-0.37398,0.89471 -0.88859,1.7786 -1.43155,2.6534c0.86285,0.20413 1.73602,0.37362 2.60969,0.53733c-0.08361,-0.3643 -0.18507,-0.72937 -0.30813,-1.0961z"/><path d="M238.9652,208.86895c-0.81888,-0.81888 0,-1.63776 0,-1.63776l0.65593,-0.64329c0.11144,-0.14253 0.21916,-0.28696 0.32343,-0.43317c-1.56549,-1.41751 -2.83809,-3.063 -3.06655,-5.13602c0,0 -0.10484,-1.15331 1.04847,-1.25816c1.15331,-0.10484 1.25816,1.04847 1.25816,1.04847c0.07705,1.23413 0.88508,2.36132 1.93507,3.36646c0.63456,-1.27742 1.11554,-2.63398 1.57202,-4.00342c0,0 0.36622,-1.09864 1.46485,-0.73242c1.09864,0.36622 0.73242,1.46485 0.73242,1.46485c-0.55041,1.65122 -1.14594,3.26601 -1.94923,4.77854c0.78138,0.58159 1.55387,1.10503 2.17141,1.56579l-0.19405,-0.23162c0,0 1.15807,0 1.15807,1.15807c0,1.15807 -1.15807,1.15807 -1.15807,1.15807l-1.19562,-0.23162c-0.63184,-0.47604 -1.30929,-0.96419 -1.9837,-1.47736c-0.09373,0.12964 -0.18984,0.25816 -0.28843,0.38552l-0.84642,0.85908c0,0 -0.81888,0.81888 -1.63776,0z"/><path d="M248.40553,209.33627c-1.03581,-0.5179 -0.5179,-1.55371 -0.5179,-1.55371l0.00868,0.15228c0.41646,-4.16459 1.51518,-8.49328 1.49661,-12.65482c0,0 0,-1.15807 1.15807,-1.15807c1.15807,0 1.15807,1.15807 1.15807,1.15807c-0.01609,4.25759 -1.08242,8.62837 -1.50811,12.88528l-0.24171,0.65307c0,0 -0.5179,1.03581 -1.55371,0.5179z"/></g><path d="M203.94805,226.7152v-93.43041h72.1039v93.43041z" fill="none" stroke="none" stroke-width="0" stroke-linecap="butt"/></g></g></svg>