<svg version="1.1" xmlns="http://www.w3.org/2000/svg" xmlns:xlink="http://www.w3.org/1999/xlink" width="63.96114" height="87.93828" viewBox="0,0,63.96114,87.93828"><defs><linearGradient x1="240" y1="138.03086" x2="240" y2="221.96914" gradientUnits="userSpaceOnUse" id="color-1"><stop offset="0" stop-color="#868686"/><stop offset="1" stop-color="#292929"/></linearGradient><linearGradient x1="240" y1="137.76678" x2="240" y2="222.23322" gradientUnits="userSpaceOnUse" id="color-2"><stop offset="0" stop-color="#880872" stop-opacity="0.49804"/><stop offset="0.25472" stop-color="#0d378d" stop-opacity="0.49804"/><stop offset="0.49057" stop-color="#238d0d" stop-opacity="0.49804"/><stop offset="0.72406" stop-color="#886408" stop-opacity="0.49804"/><stop offset="1" stop-color="#880808" stop-opacity="0.49804"/></linearGradient></defs><g transform="translate(-208.01943,-136.03086)"><g stroke-miterlimit="10"><path d="M213.01943,221.96914c-1.65685,0 -3,-1.34315 -3,-3v-77.93828c0,-1.65685 1.34315,-3 3,-3h53.96114c1.65685,0 3,1.34315 3,3v77.93828c0,1.65685 -1.34315,3 -3,3z" fill="#9763ff" stroke="#000000" stroke-width="4"/><path d="M213.01943,221.96914c-1.65685,0 -3,-1.34315 -3,-3v-77.93828c0,-1.65685 1.34315,-3 3,-3h53.96114c1.65685,0 3,1.34315 3,3v77.93828c0,1.65685 -1.34315,3 -3,3z" fill="url(#color-1)" stroke="none" stroke-width="0"/><path d="M213.01943,221.96914c-1.65685,0 -3,-1.34315 -3,-3v-77.93828c0,-1.65685 1.34315,-3 3,-3h53.96114c1.65685,0 3,1.34315 3,3v77.93828c0,1.65685 -1.34315,3 -3,3zM263.23302,197.97227c1.38071,0 2.5,-1.11929 2.5,-2.5v-48.59004c0,-1.38071 -1.11929,-2.5 -2.5,-2.5h-46.46605c-1.38071,0 -2.5,1.11929 -2.5,2.5v48.59004c0,1.38071 1.11929,2.5 2.5,2.5z" fill="#ffffff" stroke="none" stroke-width="0"/><path d="M213.01943,221.96914c-1.65685,0 -3,-1.34315 -3,-3v-77.93828c0,-1.65685 1.34315,-3 3,-3h53.96114c1.65685,0 3,1.34315 3,3v77.93828c0,1.65685 -1.34315,3 -3,3z" fill="url(#color-2)" stroke="none" stroke-width="NaN"/><path d="M213.09723,218.72632l2.51526,-2.51526l2.51526,2.51526l-2.51526,2.51526z" fill="#000000" stroke="none" stroke-width="0"/><path d="M218.72934,218.72632l2.51526,-2.51526l2.51526,2.51526l-2.51526,2.51526z" fill="#000000" stroke="none" stroke-width="0"/><text transform="translate(214.5139,143.14162) scale(0.13917,0.13917)" font-size="40" xml:space="preserve" fill="#000000" stroke="none" stroke-width="1" font-family="Sans Serif" font-weight="normal" text-anchor="start"><tspan x="0" dy="0">Name</tspan></text><text transform="translate(213.87227,203.13362) scale(0.11215,0.11215)" font-size="40" xml:space="preserve" fill="#000000" stroke="none" stroke-width="1" font-family="Sans Serif" font-weight="normal" text-anchor="start"><tspan x="0" dy="0">desription</tspan></text><text transform="translate(224.65998,220.40272) scale(0.0984,0.0984)" font-size="40" xml:space="preserve" fill="#000000" stroke="none" stroke-width="1" font-family="Sans Serif" font-weight="normal" text-anchor="start"><tspan x="0" dy="0">0/0</tspan></text><text transform="translate(243.22444,220.77705) scale(0.09461,0.09461)" font-size="40" xml:space="preserve" fill="#000000" stroke="none" stroke-width="1" font-family="Sans Serif" font-weight="normal" text-anchor="start"><tspan x="0" dy="0">Collection 002</tspan></text></g></g></svg>