<svg version="1.1" xmlns="http://www.w3.org/2000/svg" xmlns:xlink="http://www.w3.org/1999/xlink" width="33.9" height="40.79341" viewBox="0,0,33.9,40.79341"><g transform="translate(-221.87564,-85.27128)"><g data-paper-data="{&quot;isPaintingLayer&quot;:true}" fill-rule="nonzero" stroke-linejoin="miter" stroke-miterlimit="10" stroke-dasharray="" stroke-dashoffset="0" style="mix-blend-mode: normal"><path d="M232.66776,102.62574c0,6.03625 -2.12754,10.9296 -4.752,10.9296c-2.62446,0 -4.752,-4.89335 -4.752,-10.9296c0,-6.03625 2.12754,-10.92959 4.752,-10.92959c2.62446,0 4.752,4.89334 4.752,10.92959z" fill="#000000" stroke="none" stroke-width="0" stroke-linecap="butt"/><path d="M254.29975,103.34894c0,6.03625 -2.12754,10.92959 -4.75199,10.92959c-2.62446,0 -4.752,-4.89335 -4.752,-10.92959c0,-6.03625 2.12754,-10.9296 4.752,-10.9296c2.62446,0 4.75199,4.89335 4.75199,10.9296z" fill="#000000" stroke="none" stroke-width="0" stroke-linecap="butt"/><path d="M232.71682,122.26469c0,-2.09868 1.70132,-3.8 3.8,-3.8c2.09868,0 3.8,1.70132 3.8,3.8c0,2.09868 -1.70132,3.8 -3.8,3.8c-2.09868,0 -3.8,-1.70132 -3.8,-3.8z" fill="#000000" stroke="none" stroke-width="0" stroke-linecap="butt"/><path d="M223.12564,86.52128l8.2,0.2" fill="none" stroke="#000000" stroke-width="2.5" stroke-linecap="round"/><path d="M244.72564,87.12128h9.8" fill="none" stroke="#000000" stroke-width="2.5" stroke-linecap="round"/></g></g></svg>