<svg version="1.1" xmlns="http://www.w3.org/2000/svg" xmlns:xlink="http://www.w3.org/1999/xlink" width="52.47534" height="96.36627" viewBox="0,0,52.47534,96.36627"><g transform="translate(-213.76233,-131.81686)"><g stroke-miterlimit="10"><g><path d="M230.46929,195.08814c0,0 -0.52832,-6.2438 -0.77637,-10.57074c-0.28639,-4.99565 -3.47647,-18.35038 -2.90329,-25.18645c0.26033,-3.10486 4.67551,-3.86212 4.67551,-3.86212l14.68012,-0.47954c0,0 3.88229,0.63952 4.30771,3.40794c0.93255,6.06863 -0.0421,18.80457 0.23989,23.72362c0.28511,4.97339 -1.24535,12.1838 -1.24535,12.1838z" fill="#212121" stroke="none" stroke-width="0" stroke-linecap="butt"/><g fill="#000000" stroke="none" stroke-width="0" stroke-linecap="butt"><path d="M228.10715,161.43227c0,0 -0.14021,1.66273 -0.90963,3.13178c-0.55886,1.06704 -2.27809,2.78514 -3.57045,5.03986c-0.9494,1.65634 -1.66497,3.46917 -2.46605,5.07984c-1.31621,2.64639 -2.48279,4.7513 -2.48279,4.7513l-4.2787,-2.65673c0,0 2.08123,-5.00836 4.59969,-10.23592c0.73374,-1.52302 1.50805,-3.37189 2.27454,-4.74008c1.3618,-2.43084 3.07811,-3.64849 3.9883,-4.81229c1.80496,-2.30783 4.64866,-1.61598 4.64866,-1.61598l-1.80357,6.0582z"/><path d="M218.58966,179.57768c-0.73364,1.18153 -2.28618,1.54462 -3.46771,0.81098c-1.18153,-0.73364 -1.54462,-2.28618 -0.81098,-3.46771c0.73364,-1.18153 2.28618,-1.54462 3.46773,-0.81098c1.18153,0.73364 1.54462,2.28619 0.81098,3.46772z"/></g><g fill="#000000" stroke="none" stroke-width="0" stroke-linecap="butt"><path d="M239.17548,183.1778l-1.46944,4.81729c0,0 -1.3865,0.90598 -3.95859,0.13004c-1.74447,-0.52628 -4.63923,-2.18235 -6.62903,-2.71632c-2.62482,-0.70438 -4.92246,-1.53449 -6.29821,-1.95414c-2.07333,-0.63243 -5.11313,-2.17001 -5.11313,-2.17001l1.46944,-4.8173c0,0 3.22371,0.31603 5.37096,0.97102c1.40221,0.42772 3.86496,1.74086 6.48628,2.64772c1.36029,0.4706 3.92977,1.51242 5.23901,1.91769c3.33024,1.03088 4.90274,1.17401 4.90274,1.17401z"/><path d="M218.68986,179.56175c-0.40577,1.33026 -1.81311,2.0797 -3.14337,1.67392c-1.33026,-0.40577 -2.0797,-1.81311 -1.67393,-3.14336c0.40577,-1.33026 1.81311,-2.0797 3.14337,-1.67393c1.33026,0.40577 2.07971,1.81311 1.67393,3.14337z"/></g><g fill="#000000" stroke="none" stroke-width="0" stroke-linecap="butt"><path d="M249.82927,161.80276l-2.52889,-5.79305c0,0 2.73811,-1.03347 4.81103,1.03702c1.04532,1.04411 2.89731,2.04338 4.54538,4.29001c0.92761,1.26451 1.92161,3.00516 2.8356,4.42733c3.13715,4.88142 5.8136,9.5986 5.8136,9.5986l-3.92279,3.15868c0,0 -1.41456,-1.94695 -3.04367,-4.41307c-0.99151,-1.50096 -1.92282,-3.21299 -3.06712,-4.7412c-1.55768,-2.08029 -3.47359,-3.57592 -4.1584,-4.56684c-0.94281,-1.36426 -1.28475,-2.99749 -1.28475,-2.99749z"/><path d="M261.48849,178.65212c-0.87224,-1.08325 -0.7012,-2.66849 0.38206,-3.54074c1.08326,-0.87225 2.66849,-0.7012 3.54074,0.38206c0.87224,1.08325 0.7012,2.66849 -0.38206,3.54074c-1.08325,0.87224 -2.66849,0.7012 -3.54074,-0.38206z"/></g><g fill="#000000" stroke="none" stroke-width="0" stroke-linecap="butt"><path d="M240.9399,182.55441c0,0 1.56845,-0.18222 4.872,-1.29568c1.29875,-0.43773 3.8415,-1.5432 5.18965,-2.04752c2.59793,-0.97183 5.02724,-2.34586 6.41836,-2.80835c2.13027,-0.70824 5.34512,-1.10442 5.34512,-1.10442l1.5889,4.77922c0,0 -3.00058,1.61277 -5.05753,2.29662c-1.36489,0.45378 -3.64115,1.3408 -6.24762,2.11032c-1.97589,0.58334 -4.82854,2.31097 -6.55936,2.88051c-2.55198,0.83973 -3.9606,-0.03146 -3.9606,-0.03146l-1.5889,-4.77922z"/><path d="M262.92433,175.24546c1.31974,-0.43876 2.7453,0.27542 3.18406,1.59515c0.43876,1.31975 -0.27542,2.7453 -1.59516,3.18407c-1.31974,0.43876 -2.7453,-0.27542 -3.18407,-1.59516c-0.43876,-1.31975 0.27542,-2.7453 1.59516,-3.18407z"/></g><g><path d="M248.67057,145.27238c0,5.51672 -3.72056,9.98891 -8.3101,9.98891c-3.42606,0 -6.36788,-1.59677 -7.63924,-5.15518c-0.22954,-0.64246 -1.01788,0.12309 -2.02049,-0.90644c-0.88325,-0.90697 -2.06977,-4.86168 -1.44838,-5.38225c1.13084,-0.94738 2.96606,-0.84276 3.27479,-1.88795c1.14391,-3.87273 4.21918,-6.64599 7.83333,-6.64599c4.58954,0 8.3101,4.47219 8.3101,9.98891z" fill="#eda164" stroke="#000000" stroke-width="1" stroke-linecap="butt"/><path d="M231.91046,148.3811c-0.8394,0 -0.8394,-0.8394 -0.8394,-0.8394l0.06787,-0.0051c-0.3844,-0.90421 -0.97734,-2.12421 -0.48633,-3.12437c0.01734,-0.03532 0.03563,-0.07003 0.05477,-0.10421l-0.01612,-0.00691l0.24844,-0.5797c-0.19278,-0.1538 -0.31631,-0.39074 -0.31631,-0.65653v-0.89169c-0.0941,-0.23874 -0.18821,-0.47749 -0.28232,-0.71623c0,0 -0.29473,-0.78596 0.49122,-1.08069c0.10708,-0.04016 0.20505,-0.06025 0.29439,-0.06501c0.04616,-0.04406 0.09007,-0.08654 0.13123,-0.1273l0.52261,-0.73165c0.00937,-0.01347 0.01912,-0.02665 0.02924,-0.03952c-0.02083,-0.1577 -0.04069,-0.31209 -0.06649,-0.45533c-0.3065,-1.70115 1.10417,-3.67189 1.86892,-5.04329l0.15084,-0.06451l-0.0396,-0.04752l0.66729,-0.55608c0.14618,-0.12358 0.33519,-0.19808 0.54161,-0.19808c0.31484,0 0.58919,0.17333 0.73284,0.42977c0.11565,-0.06007 0.24704,-0.09401 0.38637,-0.09401c0.27425,0 0.51777,0.13152 0.67095,0.33492c0.29494,-0.11217 0.57834,-0.19737 0.80357,-0.23434c0.19896,-0.21615 0.43682,-0.45697 0.72994,-0.75009l0.67152,-0.67152c0.1519,-0.1519 0.36175,-0.24585 0.59355,-0.24585c0.46359,0 0.8394,0.37581 0.8394,0.8394c0,0.16806 -0.04939,0.32459 -0.13445,0.45586l-0.34352,0.54963l0.42911,-0.04768c0.03434,-0.00428 0.06932,-0.00648 0.10482,-0.00648c0.27543,0 0.51987,0.13265 0.67293,0.33756l0.78403,-0.19601c0.07067,-0.01932 0.14505,-0.02963 0.22185,-0.02963c0.46359,0 0.8394,0.37581 0.8394,0.8394c0,0.04051 -0.00287,0.08035 -0.00842,0.11933c0.11211,-0.04462 0.22519,-0.08655 0.3392,-0.12558l0.8673,-0.32524c0.09668,-0.03885 0.20227,-0.06024 0.31285,-0.06024c0.46359,0 0.8394,0.37581 0.8394,0.8394c0,0.11693 -0.02391,0.22828 -0.06711,0.32942l-0.33975,0.84937c0.07561,-0.02919 0.15172,-0.05655 0.22813,-0.08207l0.03347,0.00107l-0.00237,-0.00948l0.8771,-0.21928c0.07067,-0.01932 0.14505,-0.02963 0.22185,-0.02963c0.46359,0 0.8394,0.37581 0.8394,0.8394c0,0.1306 -0.02983,0.25424 -0.08304,0.36446c0.08398,0.04886 0.17206,0.10383 0.26443,0.16531c0.22055,0.1468 0.36167,0.33149 0.44047,0.54173c0.40761,0.05746 0.72118,0.40768 0.72118,0.83114c0,0.03795 -0.00252,0.07531 -0.0074,0.11192c0.00488,0.03661 0.0074,0.07397 0.0074,0.11192c0,0.12789 -0.0286,0.2491 -0.07975,0.35758l-0.43249,0.97311c-0.12663,0.30305 -0.42587,0.516 -0.77484,0.516c-0.00862,0 -0.01721,-0.00013 -0.02576,-0.00039c-0.08538,0.08768 -0.17263,0.17368 -0.26147,0.2582l0.07954,0.05568l-0.77671,1.10958c-0.15106,0.22192 -0.40571,0.36766 -0.6944,0.36766c-0.15911,0 -0.30787,-0.04427 -0.43466,-0.12116c-0.04076,0.00608 -0.08249,0.00924 -0.12495,0.00924c-0.44384,0 -0.80722,-0.34447 -0.83738,-0.78064c-0.10969,0.03177 -0.21663,0.05981 -0.31281,0.08666c-0.17347,0.04843 -0.36418,0.08287 -0.56593,0.10774c-0.33695,0.23488 -0.63357,0.55139 -1.02684,0.65048c-0.58528,0.14747 -1.20704,-0.01622 -1.81055,-0.02433l-0.11774,-0.43825c-0.47685,0.1195 -0.92716,0.36436 -1.4018,0.49591c-0.09465,0.06289 -0.18834,0.12656 -0.27226,0.19805l-0.85201,0.20827c-0.06515,0.02507 -0.13422,0.04225 -0.20604,0.05036l-0.75438,0.1844c-0.07034,0.04944 -0.13467,0.08745 -0.19029,0.11215c-0.11569,0.05137 -0.23689,0.04921 -0.36118,0.02265l-0.12578,0.03075c0.00928,-0.01867 0.01855,-0.03735 0.02783,-0.05602c-0.10011,-0.0297 -0.20177,-0.07003 -0.30376,-0.10629l-0.15158,0.22736l-0.041,-0.02733c-0.05553,0.11009 -0.11068,0.21812 -0.16564,0.3244c-0.2458,0.85108 -0.44972,1.70458 -0.43583,2.48301v0.89537c0,0.46359 -0.37581,0.8394 -0.8394,0.8394c-0.22371,0 -0.42698,-0.08752 -0.57745,-0.23018c-0.12573,0.0751 -0.27274,0.11826 -0.42984,0.11826c-0.14332,0 -0.27825,-0.03592 -0.39628,-0.09924c-0.02136,0.20043 -0.14294,0.77076 -0.83485,0.77076z" fill="#5f4128" stroke="none" stroke-width="0.5" stroke-linecap="butt"/><g stroke-width="1"><g fill="#353535" stroke-linecap="butt"><path d="M234.92432,150.02313c-0.80793,-1.14639 -0.2007,-1.841 -0.18886,-3.46888c0.0048,-0.6603 -2.16525,-1.66292 -2.31498,-2.46961c-0.14926,-0.80418 0.43434,-1.58047 0.68313,-2.12828c0.42135,-0.92779 2.74319,-1.09657 3.48081,-1.21551c2.55331,-0.41173 6.64664,-0.45767 9.98863,0.39979c0.62434,0.16019 2.05568,0.54404 2.59959,1.61855c0.19746,0.3901 0.44974,0.89726 0.42095,1.44738c-0.03412,0.65226 -0.37252,1.36491 -0.38113,2.01445c-0.0213,1.60651 0.56,2.59408 -0.20852,3.80209c-0.98426,1.54711 -2.55463,2.16711 -6.12642,2.52964c-0.0986,0.01001 -1.34989,0.17221 -2.83861,-0.11791c-2.04687,-0.39888 -4.54346,-1.60137 -5.11457,-2.41173z" stroke="#000000"/><path d="M237.31933,134.86032c0.15391,-0.17777 0.38125,-0.29022 0.63484,-0.29022c0.46359,0 0.8394,0.37581 0.8394,0.8394c0,0.20641 -0.0745,0.39542 -0.19809,0.54161l-0.21453,0.25744c-0.0517,0.11203 -0.12737,0.21072 -0.22042,0.28951l-0.07295,0.06253l-0.01252,0.01503c-0.25641,0.45254 -0.47366,0.89344 -0.64686,1.33345l0.00804,0.0324c0.13775,1.14819 0.56691,2.18542 0.94364,3.27049c0.17589,0.5066 0.67312,1.03919 0.47438,1.53726c-0.2079,0.52102 -0.89297,0.7395 -1.43717,0.87561c-0.97739,0.24445 -2.8657,-0.14184 -3.60184,-1.1178c-0.12023,-0.1594 -0.20972,-0.33452 -0.2595,-0.5252c-0.12991,-0.49766 0.21464,-1.00754 0.3681,-1.49845c0.11162,-0.35705 0.26015,-0.74118 0.42809,-1.13248c0.14141,-0.82367 0.64618,-1.66058 1.15936,-2.38859c0.00537,-0.01039 0.01071,-0.02074 0.01604,-0.03106c0.18186,-0.35211 0.31639,-0.83273 0.68842,-0.96929c0.01323,-0.00485 0.02635,-0.00857 0.03939,-0.01122c0.01311,-0.01787 0.02607,-0.03558 0.03886,-0.05313l-0.00534,-0.00623l0.02617,-0.02243c0.00563,-0.00777 0.01123,-0.0155 0.01679,-0.0232l0.01514,-0.00417l0.07045,-0.06038l-0.00772,-0.00926l0.4141,-0.34509z" stroke="#000000"/><path d="M246.49846,135.72676l0.31612,0.43662l-0.00977,0.00707l0.05336,0.0759l0.01364,0.00777c0.00349,0.00884 0.007,0.01771 0.01055,0.02663l0.01982,0.02819l-0.00671,0.00471c0.00806,0.02016 0.01624,0.04052 0.02454,0.06108c0.01198,0.00579 0.02378,0.01262 0.0354,0.02059c0.32681,0.22416 0.33856,0.72312 0.42787,1.10922c0.00262,0.01132 0.00524,0.02267 0.00788,0.03406c0.31762,0.83215 0.6002,1.76775 0.53393,2.60084c0.06616,0.42065 0.11528,0.82955 0.13532,1.20311c0.02755,0.51359 0.23558,1.09275 -0.01314,1.54294c-0.6788,1.22862 -3.11575,1.1953 -4.14741,0.63909c-0.49377,-0.26622 -1.10372,-0.64703 -1.17659,-1.20325c-0.06966,-0.53172 0.54366,-0.9251 0.83914,-1.37261c0.63289,-0.95851 1.30479,-1.85773 1.72169,-2.93639l0.01579,-0.02941c-0.05924,-0.46916 -0.16094,-0.95002 -0.29772,-1.45186l-0.00842,-0.01765l-0.05526,-0.0786c-0.07072,-0.09933 -0.11969,-0.21364 -0.14214,-0.33496l-0.14435,-0.30242c-0.08368,-0.17217 -0.10922,-0.37372 -0.05827,-0.57374c0.11442,-0.44925 0.57138,-0.72067 1.02062,-0.60624c0.24575,0.06259 0.43829,0.22768 0.54356,0.43794z" stroke="#000000"/><path d="M248.6202,144.21541c-0.09075,0.06806 -0.17843,0.11466 -0.26222,0.14436c-0.01032,0.21539 -0.06691,0.41735 -0.19111,0.58946c-0.32266,0.44712 -1.104,-0.00397 -1.65336,-0.05117c-1.66845,-0.14335 -3.19767,-0.77489 -4.80026,-1.21709c-0.37663,-0.10392 -0.80178,-0.24806 -1.23548,-0.37924c-0.09155,0.08044 -0.20076,0.14126 -0.32106,0.1759c0.04468,0.10259 0.06946,0.21583 0.06946,0.33487c0,0.42752 -0.3196,0.78038 -0.73291,0.83271l-0.92792,0.13256l-0.00252,-0.01766c-0.02744,0.00892 -0.05505,0.01741 -0.08284,0.02543c-0.70871,0.20467 -1.47418,-0.06854 -2.21184,-0.07208l-0.08884,-0.04496l-0.00664,0.02824l-1.125,-0.26471c-0.32484,-0.06917 -0.58015,-0.32625 -0.64673,-0.65204c-0.22266,0.09007 -0.7052,0.20103 -1.03408,-0.3334c-0.43993,-0.71488 0.08309,-1.39464 0.08309,-1.39464c1.5041,-0.91539 2.46893,-1.10653 4.05344,-0.89179c0.21989,-0.06192 1.08558,-0.33335 1.31395,-0.33533c0.75723,-0.00656 1.51184,0.65956 2.32336,0.89545c0.09471,-0.16704 0.24504,-0.2984 0.42582,-0.36891l0.78787,-0.32828l0.01405,0.03372c0.05688,-0.03208 0.11541,-0.06148 0.17588,-0.0877c0.60957,-0.2644 1.63031,0.2666 2.17563,0.42434c1.43943,0.41635 2.46457,0.24876 3.71954,1.22637l0.34861,0.42043c0,0 0.50364,0.67152 -0.16788,1.17517z" stroke="none"/></g><path d="M240.61229,145.96921l-0.33576,0.33576l-0.67152,0.11192l-1.45497,-0.11192l-1.1192,-0.50364l-0.61557,-0.8394l1.00729,-0.50364h1.00729l1.399,0.22384z" fill="none" stroke="#000000" stroke-linecap="round"/><path d="M245.03315,144.62616l1.399,-0.22384h1.00729l1.00729,0.50364l-0.61556,0.8394l-1.11921,0.50364l-1.45497,0.11192l-0.67152,-0.11192l-0.33576,-0.33576z" fill="none" stroke="#000000" stroke-linecap="round"/><path d="M242.20793,153.69172v-1.51093" fill="none" stroke="#000000" stroke-linecap="round"/><path d="M241.1632,153.6915l-0.03704,-1.51047" fill="none" stroke="#000000" stroke-linecap="round"/><path d="M240.09692,153.4398l0.02499,-1.51072" fill="none" stroke="#000000" stroke-linecap="round"/><path d="M239.09968,153.21594l0.02728,-1.51068" fill="none" stroke="#000000" stroke-linecap="round"/><path d="M238.02039,152.93568l0.05937,-1.50976" fill="none" stroke="#000000" stroke-linecap="round"/><path d="M237.03695,152.57176l0.06765,-1.50941" fill="none" stroke="#000000" stroke-linecap="round"/><path d="M236.15196,150.50229l-0.04264,1.51032" fill="none" stroke="#000000" stroke-linecap="round"/><path d="M235.2423,149.80512l-0.12597,1.50566" fill="none" stroke="#000000" stroke-linecap="round"/><path d="M243.21318,152.09909l0.11599,1.50647" fill="none" stroke="#000000" stroke-linecap="round"/><path d="M244.4109,153.46761l-0.04105,-1.51037" fill="none" stroke="#000000" stroke-linecap="round"/><path d="M245.32886,151.8202l0.13761,1.50465" fill="none" stroke="#000000" stroke-linecap="round"/><path d="M246.59174,151.48221l0.07411,1.50911" fill="none" stroke="#000000" stroke-linecap="round"/><path d="M247.86108,152.59994l-0.05828,-1.5098" fill="none" stroke="#000000" stroke-linecap="round"/><path d="M248.69322,150.32486l0.14447,1.504" fill="none" stroke="#000000" stroke-linecap="round"/></g></g><path d="M244.11398,189.64707c-2.1751,1.74656 -3.49888,0.05773 -4.17484,-2.13665c-0.74445,1.15086 -1.63401,2.26621 -2.50558,3.12374c-0.37137,0.91512 -1.26905,1.56047 -2.31745,1.56047c-1.38071,0 -2.5,-1.11929 -2.5,-2.5c0,-0.3288 0.06347,-0.64278 0.17884,-0.93034c0.7452,-2.35147 3.62039,-5.98513 5.02666,-7.07043c0.63695,-0.49158 1.80837,-0.54941 2.70602,-0.23373c0.37594,-0.22617 0.81625,-0.35625 1.28694,-0.35625c0.46291,0 0.89644,0.12582 1.26826,0.34512c0.42803,-0.34319 0.97139,-0.54848 1.5627,-0.54848c1.21592,0 2.2291,0.86806 2.45363,2.01827c1.35415,1.35158 2.67373,3.02788 2.95891,4.18723c0.49356,2.00648 -0.98125,3.95462 -3.07545,3.43107c-0.51554,-0.12889 -1.24673,-0.807 -1.98578,-1.7288c-0.21058,0.3073 -0.531,0.55626 -0.88285,0.83878z" fill="#212121" stroke="none" stroke-width="0.5" stroke-linecap="butt"/><path d="M245.50211,181.15604l4.27732,5.7031" fill="none" stroke="#000000" stroke-width="1.5" stroke-linecap="round"/><path d="M237.37329,181.96185l-5.44884,6.68255" fill="none" stroke="#000000" stroke-width="1.5" stroke-linecap="round"/><g fill="#000000" stroke="none" stroke-width="0" stroke-linecap="butt"><path d="M247.71973,227.36776c-1.86399,-0.13712 -6.04221,-1.86645 -6.04221,-1.86645l-2.0752,-35.56863c0,0 0.95481,-0.08749 2.68586,-0.69268c1.69827,-0.59373 4.16428,-1.70462 5.09485,-1.7813c1.17889,-0.09715 2.40862,1.63432 2.40862,1.63432l2.16832,37.16465c0,0 -2.7722,1.21807 -4.24024,1.11008z"/><path d="M241.03536,225.71064c0,0 1.23231,-3.97703 2.73587,-4.83769c1.80691,-1.03431 7.36375,-0.94349 7.36375,-0.94349c0,0 8.03865,-0.21131 7.84936,1.69827c-0.05885,0.59364 0.96907,3.92957 -0.48306,4.80881c-2.54607,1.54158 -8.22512,0.62709 -8.59051,0.63443c-1.88542,0.03791 -8.8754,-1.36033 -8.8754,-1.36033z"/></g><g fill="#000000" stroke="none" stroke-width="0" stroke-linecap="butt"><path d="M234.64405,227.74739c-1.85006,-0.26558 -5.89881,-2.27946 -5.89881,-2.27946l0.38728,-35.62701c0,0 0.95857,-0.02131 2.7273,-0.50545c1.73523,-0.47497 4.2721,-1.41283 5.20575,-1.42503c1.18279,-0.01547 2.28994,1.79683 2.28994,1.79683l-0.40466,37.22565c0,0 -2.84973,1.02362 -4.30681,0.81446z"/><path d="M228.09015,225.63239c0,0 1.50415,-3.88238 3.06358,-4.6371c1.87405,-0.90699 7.41134,-0.43246 7.41134,-0.43246c0,0 8.03404,0.34461 7.71326,2.23654c-0.09973,0.58816 0.69525,3.98713 -0.81416,4.76394c-2.6465,1.36198 -8.24879,0.0573 -8.61382,0.03937c-1.88353,-0.09245 -8.7602,-1.9703 -8.7602,-1.9703z"/></g></g></g></g></svg>