<svg version="1.1" xmlns="http://www.w3.org/2000/svg" xmlns:xlink="http://www.w3.org/1999/xlink" width="120.08147" height="157.14166" viewBox="0,0,120.08147,157.14166"><g transform="translate(-179.95926,-101.42917)"><g stroke="none" stroke-miterlimit="10"><g><path d="M233.97556,101.42917l11.8183,26.04484l-13.35425,3.32726z" fill="#058b00" stroke-width="0"/><path d="M212.77833,111.28878l18.86339,19.88317l-11.56582,8.33184z" fill="#058b00" stroke-width="0"/><path d="M195.32079,131.22641l24.46571,8.80556l-7.36654,13.17214z" fill="#058b00" stroke-width="0"/><path d="M259.3273,132.8539l-13.01836,-4.7611l13.92335,-24.64531z" fill="#058b00" stroke-width="0"/><path d="M270.91414,142.85858l-10.82327,-9.54911l20.42609,-17.74705z" fill="#058b00" stroke-width="0"/><path d="M277.40026,157.32778l-6.2418,-13.912l25.08518,-6.11155z" fill="#058b00" stroke-width="0"/><g><path d="M213.68162,221.73255c-12.93435,11.40266 -27.32552,16.21591 -32.14354,10.75067c-4.81802,-5.46522 1.76157,-19.13934 14.69592,-30.542c12.93435,-11.40266 27.32551,-16.21591 32.14354,-10.75069c4.81802,5.46522 -1.76157,19.13936 -14.69592,30.54202z" fill="#05a300" stroke-width="0"/><path d="M291.97855,203.41655c8.70693,14.88313 10.66737,29.9307 4.37871,33.6097c-6.28866,3.67899 -18.44499,-5.40376 -27.15192,-20.28691c-8.70693,-14.88313 -10.66737,-29.9307 -4.37871,-33.60968c6.28866,-3.67899 18.44499,5.40376 27.15192,20.28689z" fill="#05a300" stroke-width="0"/><path d="M244.3892,225.21793c-2.54616,17.0539 -10.45172,30.00668 -17.6576,28.93083c-7.20588,-1.07585 -10.98333,-15.7729 -8.43716,-32.8268c2.54616,-17.0539 10.45172,-30.00668 17.6576,-28.93083c7.20588,1.07585 10.98333,15.7729 8.43716,32.8268z" fill="#05a300" stroke-width="0"/><path d="M273.35657,224.2006c6.83027,15.83242 6.9442,31.00673 0.25443,33.89277c-6.68977,2.88604 -17.64993,-7.60909 -24.4802,-23.44152c-6.83027,-15.83242 -6.9442,-31.00673 -0.25443,-33.89277c6.68977,-2.88604 17.64993,7.60909 24.4802,23.44152z" fill="#05a300" stroke-width="0"/><path d="M287.33038,175.33903c0,26.71438 -18.70314,48.37067 -41.77467,48.37067c-23.07151,0 -41.77467,-21.65629 -41.77467,-48.37067c0,-26.71438 18.70316,-48.37067 41.77467,-48.37067c23.07153,0 41.77467,21.65629 41.77467,48.37067z" fill="#07c500" stroke-width="NaN"/><path d="M240.71865,163.46623c0,-10.92861 8.8594,-19.788 19.788,-19.788c10.92861,0 19.788,8.8594 19.788,19.788c0,10.92861 -8.8594,19.788 -19.788,19.788c-10.92861,0 -19.788,-8.8594 -19.788,-19.788z" fill="#ffffff" stroke-width="0"/><g stroke-width="0"><path d="M254.50526,165.92482c0,-6.31431 5.11876,-11.43307 11.43307,-11.43307c6.31431,0 11.43307,5.11876 11.43307,11.43307c0,6.31431 -5.11876,11.43307 -11.43307,11.43307c-6.31431,0 -11.43307,-5.11876 -11.43307,-11.43307z" fill="#ff0000"/><path d="M259.78206,165.92482c0,-3.40002 2.75625,-6.15627 6.15627,-6.15627c3.40002,0 6.15627,2.75625 6.15627,6.15627c0,3.40002 -2.75625,6.15627 -6.15627,6.15627c-3.40002,0 -6.15627,-2.75625 -6.15627,-6.15627z" fill="#000000"/></g></g></g></g></g></svg>