<svg version="1.1" xmlns="http://www.w3.org/2000/svg" xmlns:xlink="http://www.w3.org/1999/xlink" width="36.99942" height="148.71942" viewBox="0,0,36.99942,148.71942"><g transform="translate(-221.51275,-104.64609)"><g stroke="#000000" stroke-width="2.5" stroke-miterlimit="10"><path d="M256.76275,223.86551c0,14.2213 -5.3726,25.75 -12,25.75c-6.6274,0 -12,-11.5287 -12,-25.75c0,-14.2214 5.3726,-25.75 12,-25.75c6.6274,0 12,11.5286 12,25.75z" fill="#bbbbbb" stroke-linecap="butt"/><path d="M251.76275,245.36551c0,3.7279 -6.4919,6.75 -14.5,6.75c-8.0081,0 -14.5,-3.0221 -14.5,-6.75c0,-3.7279 6.4919,-6.75 14.5,-6.75c8.0081,0 14.5,3.0221 14.5,6.75z" fill="#bbbbbb" stroke-linecap="butt"/><path d="M256.26275,182.36551c0,16.4304 -5.4845,29.75 -12.25,29.75c-6.7655,0 -12.25,-13.3196 -12.25,-29.75c0,-16.4305 5.4845,-29.75 12.25,-29.75c6.7655,0 12.25,13.3195 12.25,29.75z" fill="#bbbbbb" stroke-linecap="butt"/><path d="M249.76275,183.11551c0,9.665 -2.4625,17.5 -5.5,17.5c-3.0376,0 -5.5,-7.835 -5.5,-17.5c0,-9.665 2.4624,-17.5 5.5,-17.5c3.0375,0 5.5,7.835 5.5,17.5z" fill="#bbbbbb" stroke-linecap="butt"/><path d="M237.76275,199.86551c0,-3.7279 3.0221,-6.75 6.75,-6.75c3.7279,0 6.75,3.0221 6.75,6.75c0,3.7279 -3.0221,6.75 -6.75,6.75c-3.7279,0 -6.75,-3.0221 -6.75,-6.75z" fill="#bbbbbb" stroke-linecap="butt"/><path d="M257.22715,138.68168c-0.27232,9.85398 -5.97556,17.69074 -12.73843,17.50391c-6.76292,-0.18696 -12.02456,-8.3267 -11.75224,-18.18068c0.27232,-9.85398 5.97547,-17.69078 12.73839,-17.50382c6.76286,0.18683 12.02459,8.32661 11.75227,18.18059z" fill="#bbbbbb" stroke-linecap="butt"/><path d="M240.4027,138.21356c-0.19042,3.72314 -1.35095,6.68979 -2.59194,6.62627c-1.24099,-0.06353 -2.09269,-3.13311 -1.90221,-6.85612c0.19052,-3.7231 1.35105,-6.68976 2.59204,-6.62623c1.24099,0.06353 2.0926,3.13307 1.90211,6.85608z" fill="#00ff2d" stroke-linecap="butt"/><path d="M244.76275,173.61551l-1,13.5" fill="none" stroke-linecap="round"/><path d="M230.76275,244.61551h14" fill="none" stroke-linecap="round"/><path d="M243.44938,148.11287l-6.66354,0.77285" fill="none" stroke-linecap="round"/><path d="M244.11916,124.77425l3.95263,-9.91283l-0.65909,-6.97693l7.09519,6.83068l-4.89266,9.57173z" fill="#bbbbbb" stroke-linecap="round"/><path d="M236.93113,140.5119l0.19099,-5.41104" fill="none" stroke-linecap="round"/></g></g></svg>