<svg version="1.1" xmlns="http://www.w3.org/2000/svg" xmlns:xlink="http://www.w3.org/1999/xlink" width="31.13599" height="37.05919" viewBox="0,0,31.13599,37.05919"><g transform="translate(-223.16373,-89.29614)"><g data-paper-data="{&quot;isPaintingLayer&quot;:true}" fill="#000000" fill-rule="nonzero" stroke="none" stroke-width="0" stroke-linecap="butt" stroke-linejoin="miter" stroke-miterlimit="10" stroke-dasharray="" stroke-dashoffset="0" style="mix-blend-mode: normal"><path d="M232.66774,101.42572c0,6.69899 -2.12754,12.1296 -4.752,12.1296c-2.62446,0 -4.752,-5.43061 -4.752,-12.1296c0,-6.69899 2.12754,-12.12959 4.752,-12.12959c2.62446,0 4.752,5.4306 4.752,12.12959z"/><path d="M254.29973,101.94893c0,6.80945 -2.12754,12.32959 -4.75199,12.32959c-2.62446,0 -4.752,-5.52015 -4.752,-12.32959c0,-6.80945 2.12754,-12.3296 4.752,-12.3296c2.62446,0 4.75199,5.52015 4.75199,12.3296z"/><path d="M240.86773,120.72573c0,3.10914 -2.12754,5.6296 -4.752,5.6296c-2.62446,0 -4.752,-2.52046 -4.752,-5.6296c0,-3.10914 2.12754,-5.62959 4.752,-5.62959c2.62446,0 4.752,2.52045 4.752,5.62959z"/></g></g></svg>