<svg version="1.1" xmlns="http://www.w3.org/2000/svg" xmlns:xlink="http://www.w3.org/1999/xlink" width="203.90983" height="457.28973" viewBox="0,0,203.90983,457.28973"><g transform="translate(-64.23489,-125.39556)"><g stroke-miterlimit="10"><g><g stroke="#262626"><path d="M65.98489,534.52217c0.13361,-14.31291 11.84485,-25.80751 26.15777,-25.67389c14.31291,0.13361 25.80751,11.84485 25.67389,26.15777c-0.13361,14.31291 -11.84485,25.80751 -26.15777,25.67389c-14.31291,-0.13361 -25.80751,-11.84485 -25.67389,-26.15777z" fill="#f1f1f1" stroke-width="3.5" stroke-linecap="butt"/><path d="M157.05753,536.12242l-37.99834,-0.35474" fill="none" stroke-width="4" stroke-linecap="round"/><path d="M142.35041,558.23606l-15.54162,-22.39604l14.72108,-23.6136" fill="none" stroke-width="4" stroke-linecap="round"/><path d="M170.95422,547.2526l-15.90129,-10.64889l16.82625,-8.09328" fill="none" stroke-width="4" stroke-linecap="round"/></g><g fill="none" stroke="#262626"><path d="M86.84379,542.69811l-5.17903,-10.58792" stroke-width="3.5" stroke-linecap="round"/><path d="M91.09376,532.56231l11.51669,-5.63331" stroke-width="3.5" stroke-linecap="round"/><path d="M103.59916,527.06788c1.31954,2.69764 0.85069,5.63713 -1.04717,6.56545c-1.89788,0.92835 -4.50613,-0.50597 -5.82568,-3.20362c-0.06874,-0.1405 6.7759,-3.56 6.87285,-3.36182z" stroke-width="2" stroke-linecap="butt"/><path d="M113.6781,528.46261l-5.17903,-10.58792" stroke-width="3.5" stroke-linecap="round"/></g><g fill="none" stroke-linecap="round"><path d="M100.9017,580.40752l6.73805,-3.59306" stroke="#fff68e" stroke-width="3.5"/><path d="M145.07603,556.70666l-38.71089,20.64254" stroke="#ffea00" stroke-width="5"/><path d="M154.63311,551.59516l-10.11541,5.39405" stroke="#cccccc" stroke-width="5"/><path d="M153.55674,551.91928l4.08505,-2.17836" stroke="#ff5858" stroke-width="5"/><path d="M99.26672,581.43529l0.66773,-0.35608" stroke="#000000" stroke-width="2.5"/></g></g><g><g><g stroke="#262626"><path d="M237.97607,127.20901c14.27908,-0.99258 26.65922,9.77825 27.6518,24.05735c0.99258,14.27908 -9.77825,26.65922 -24.05735,27.6518c-14.27908,0.99258 -26.65922,-9.77825 -27.6518,-24.05735c-0.99258,-14.27908 9.77825,-26.65922 24.05735,-27.6518z" fill="#f1f1f1" stroke-width="3.5" stroke-linecap="butt"/><path d="M240.909,180.21684l2.63513,37.90852" fill="none" stroke-width="4" stroke-linecap="round"/><path d="M220.34218,205.20315l21.10422,-17.25503l24.69832,12.81815" fill="none" stroke-width="4" stroke-linecap="round"/><path d="M233.54145,232.85444l9.36519,-16.68961l9.39167,16.13755" fill="none" stroke-width="4" stroke-linecap="round"/></g><g fill="none" stroke="none" stroke-width="1" stroke-linecap="butt" font-family="sans-serif" font-weight="normal" font-size="12" text-anchor="start"/><g fill="none" stroke="none" stroke-width="1" stroke-linecap="butt" font-family="sans-serif" font-weight="normal" font-size="12" text-anchor="start"/></g><g fill="none" stroke="#262626" stroke-width="3.5" stroke-linecap="round"><path d="M218.90879,159.27186l-0.13063,-11.78598"/><path d="M240.01902,160.80054l-12.81983,0.14209"/><path d="M249.25598,157.9387l-0.13063,-11.78598"/></g></g></g></g></svg>