<svg version="1.1" xmlns="http://www.w3.org/2000/svg" xmlns:xlink="http://www.w3.org/1999/xlink" width="63.96114" height="87.93828" viewBox="0,0,63.96114,87.93828"><defs><linearGradient x1="240" y1="138.03086" x2="240" y2="221.96914" gradientUnits="userSpaceOnUse" id="color-1"><stop offset="0" stop-color="#868686"/><stop offset="1" stop-color="#292929"/></linearGradient></defs><g transform="translate(-208.01943,-136.03086)"><g stroke-miterlimit="10"><path d="M213.01943,221.96914c-1.65685,0 -3,-1.34315 -3,-3v-77.93828c0,-1.65685 1.34315,-3 3,-3h53.96114c1.65685,0 3,1.34315 3,3v77.93828c0,1.65685 -1.34315,3 -3,3z" fill="#9763ff" stroke="#000000" stroke-width="4" stroke-linecap="butt"/><path d="M213.01943,221.96914c-1.65685,0 -3,-1.34315 -3,-3v-77.93828c0,-1.65685 1.34315,-3 3,-3h53.96114c1.65685,0 3,1.34315 3,3v77.93828c0,1.65685 -1.34315,3 -3,3z" fill="url(#color-1)" stroke="none" stroke-width="0" stroke-linecap="butt"/><g><path d="M234.68969,174.05529l-3.5243,45.22858" fill="none" stroke="#000000" stroke-width="2" stroke-linecap="round"/><path d="M219.41771,191.08943l12.92245,-0.58738l11.74768,1.17477" fill="none" stroke="#000000" stroke-width="2" stroke-linecap="round"/><path d="M252.8986,163.18868c0,7.62348 -5.65409,13.80353 -12.62876,13.80353c-6.97467,0 -12.62876,-6.18005 -12.62876,-13.80353c0,-7.62348 5.65409,-13.80353 12.62876,-13.80353c6.97467,0 12.62876,6.18005 12.62876,13.80353z" fill="#fffaab" stroke="#000000" stroke-width="2" stroke-linecap="butt"/><path d="M247.90584,160.54546c0,-0.81101 0.65745,-1.46846 1.46846,-1.46846c0.81101,0 1.46846,0.65745 1.46846,1.46846c0,0.81101 -0.65745,1.46846 -1.46846,1.46846c-0.81101,0 -1.46846,-0.65745 -1.46846,-1.46846z" fill="#000000" stroke="none" stroke-width="0.5" stroke-linecap="butt"/><path d="M239.09508,160.54546c0,-0.81101 0.65745,-1.46846 1.46846,-1.46846c0.81101,0 1.46846,0.65745 1.46846,1.46846c0,0.81101 -0.65745,1.46846 -1.46846,1.46846c-0.81101,0 -1.46846,-0.65745 -1.46846,-1.46846z" fill="#000000" stroke="none" stroke-width="0.5" stroke-linecap="butt"/></g><path d="M213.01943,221.96914c-1.65685,0 -3,-1.34315 -3,-3v-77.93828c0,-1.65685 1.34315,-3 3,-3h53.96114c1.65685,0 3,1.34315 3,3v77.93828c0,1.65685 -1.34315,3 -3,3zM263.23302,197.97227c1.38071,0 2.5,-1.11929 2.5,-2.5v-48.59004c0,-1.38071 -1.11929,-2.5 -2.5,-2.5h-46.46605c-1.38071,0 -2.5,1.11929 -2.5,2.5v48.59004c0,1.38071 1.11929,2.5 2.5,2.5z" fill="#ffffff" stroke="none" stroke-width="0" stroke-linecap="butt"/><path d="M213.68572,218.72632c0,-1.06413 0.86265,-1.92677 1.92677,-1.92677c1.06413,0 1.92677,0.86265 1.92677,1.92677c0,1.06413 -0.86265,1.92677 -1.92677,1.92677c-1.06413,0 -1.92677,-0.86265 -1.92677,-1.92677z" fill="#000000" stroke="none" stroke-width="0" stroke-linecap="butt"/><text transform="translate(214.5139,143.14162) scale(0.13917,0.13917)" font-size="40" xml:space="preserve" fill="#000000" stroke="none" stroke-width="1" stroke-linecap="butt" font-family="Sans Serif" font-weight="normal" text-anchor="start"><tspan x="0" dy="0">Dude Guy</tspan></text><text transform="translate(218.94522,220.40272) scale(0.0984,0.0984)" font-size="40" xml:space="preserve" fill="#000000" stroke="none" stroke-width="1" stroke-linecap="butt" font-family="Sans Serif" font-weight="normal" text-anchor="start"><tspan x="0" dy="0">4/27</tspan></text><text transform="translate(213.87227,203.13362) scale(0.11215,0.11215)" font-size="40" xml:space="preserve" fill="#000000" stroke="none" stroke-width="1" stroke-linecap="butt" font-family="Sans Serif" font-weight="normal" text-anchor="start"><tspan x="0" dy="0">Dude Guy. Don't</tspan><tspan x="0" dy="48px">underestimate him</tspan></text><text transform="translate(239.57666,220.8475) scale(0.09461,0.09461)" font-size="40" xml:space="preserve" fill="#000000" stroke="none" stroke-width="1" stroke-linecap="butt" font-family="Sans Serif" font-weight="normal" text-anchor="start"><tspan x="0" dy="0">Core Collection</tspan></text></g></g></svg>