<svg version="1.1" xmlns="http://www.w3.org/2000/svg" xmlns:xlink="http://www.w3.org/1999/xlink" width="72.1039" height="93.43041" viewBox="0,0,72.1039,93.43041"><defs><linearGradient x1="240" y1="138.03086" x2="240" y2="221.96914" gradientUnits="userSpaceOnUse" id="color-1"><stop offset="0" stop-color="#868686"/><stop offset="1" stop-color="#292929"/></linearGradient></defs><g transform="translate(-203.94805,-133.28478)"><g stroke-miterlimit="10"><path d="M213.01943,221.96914c-1.65685,0 -3,-1.34315 -3,-3v-77.93828c0,-1.65685 1.34315,-3 3,-3h53.96114c1.65685,0 3,1.34315 3,3v77.93828c0,1.65685 -1.34315,3 -3,3z" fill="#9763ff" stroke="#000000" stroke-width="4" stroke-linecap="butt"/><path d="M213.01943,221.96914c-1.65685,0 -3,-1.34315 -3,-3v-77.93828c0,-1.65685 1.34315,-3 3,-3h53.96114c1.65685,0 3,1.34315 3,3v77.93828c0,1.65685 -1.34315,3 -3,3z" fill="url(#color-1)" stroke="none" stroke-width="0" stroke-linecap="butt"/><g stroke="#000000" stroke-width="2"><path d="M226.30075,220.19465v-47.73869h27.77524v47.73869z" fill="#fffaab" stroke-linecap="butt"/><path d="M212.41314,180.91873c0,-4.67386 3.78891,-8.46277 8.46276,-8.46277c4.67386,0 8.46277,3.78892 8.46277,8.46277c0,4.67386 -3.78892,8.46277 -8.46277,8.46277c-4.67386,0 -8.46276,-3.78891 -8.46276,-8.46277z" fill="#fffaab" stroke-linecap="butt"/><path d="M212.4624,187.99209c0,-3.08308 -2.93202,-5.20304 -0.2465,-6.30602c0.86371,-0.35474 1.80959,-0.55035 2.80116,-0.55035c4.07465,0 7.3778,3.30315 7.3778,7.3778c0,4.07465 -3.30316,7.3778 -7.3778,7.3778c-0.78378,0 -1.53901,-0.12222 -2.24768,-0.34864c-2.9755,-0.95067 -0.30698,-4.25972 -0.30698,-7.55058z" fill="#fffaab" stroke-linecap="butt"/><path d="M211.76929,199.19073c0,-1.65417 -1.97731,-5.90335 -0.87511,-5.90335c2.75637,0 4.99087,2.23449 4.99087,4.99086c0,2.75637 -0.40952,5.12122 -3.1659,5.12122c-2.75637,0 -0.94986,-1.45236 -0.94986,-4.20873z" fill="#fffaab" stroke-linecap="butt"/><path d="M258.63286,188.94751c-4.67386,0 -8.46277,-3.78892 -8.46277,-8.46277c0,-4.67386 3.78891,-8.46276 8.46277,-8.46276c4.67386,0 8.46277,3.78891 8.46277,8.46276c0,4.67386 -3.78891,8.46277 -8.46277,8.46277z" fill="#fffaab" stroke-linecap="butt"/><path d="M264.4917,195.45733c-4.07464,0 -7.37779,-3.30315 -7.37779,-7.37779c0,-4.07465 3.30315,-7.3778 7.37779,-7.3778c0.98692,0 1.92858,0.19378 2.789,0.54537c2.69197,1.1 1.19957,3.22328 1.19957,6.31101c0,2.84012 1.78442,5.82684 -0.56787,7.05999c-1.02247,0.53601 -2.18618,0.83923 -3.4207,0.83923z" fill="#fffaab" stroke-linecap="butt"/><path d="M266.2682,201.79228c-1.2534,0 -0.0525,0.5808 -0.92904,-0.18226c-1.05107,-0.91499 -1.71543,-2.26279 -1.71543,-3.76576c0,-2.75637 2.23449,-4.99086 4.99087,-4.99086c0.72743,0 0.40998,8.93888 -2.34639,8.93888z" fill="#fffaab" stroke-linecap="butt"/><path d="M249.73611,162.47423c0,6.71119 -5.24618,12.15167 -11.71768,12.15167c-6.4715,0 -11.71768,-5.44048 -11.71768,-12.15167c0,-6.71118 5.24618,-12.15167 11.71768,-12.15167c6.4715,0 11.71768,5.44048 11.71768,12.15167z" fill="#fffaab" stroke-linecap="butt"/><path d="M229.33867,157.26638v5.64184" fill="none" stroke-linecap="round"/><path d="M233.24456,156.83238v8.67977" fill="none" stroke-linecap="round"/><path d="M237.15046,146.85066l-5.64184,6.07583l-7.3778,-3.90589" fill="none" stroke-linecap="round"/><path d="M239.3204,165.07816l-5.64184,3.90589l-5.64184,-3.03791" fill="none" stroke-linecap="round"/></g><path d="M213.01943,221.96914c-1.65685,0 -3,-1.34315 -3,-3v-77.93828c0,-1.65685 1.34315,-3 3,-3h53.96114c1.65685,0 3,1.34315 3,3v77.93828c0,1.65685 -1.34315,3 -3,3zM263.23302,197.97227c1.38071,0 2.5,-1.11929 2.5,-2.5v-48.59004c0,-1.38071 -1.11929,-2.5 -2.5,-2.5h-46.46605c-1.38071,0 -2.5,1.11929 -2.5,2.5v48.59004c0,1.38071 1.11929,2.5 2.5,2.5z" fill="#ffffff" stroke="none" stroke-width="0" stroke-linecap="butt"/><path d="M213.68572,218.72632c0,-1.06413 0.86265,-1.92677 1.92677,-1.92677c1.06413,0 1.92677,0.86265 1.92677,1.92677c0,1.06413 -0.86265,1.92677 -1.92677,1.92677c-1.06413,0 -1.92677,-0.86265 -1.92677,-1.92677z" fill="#000000" stroke="none" stroke-width="0" stroke-linecap="butt"/><text transform="translate(214.5139,143.14162) scale(0.13917,0.13917)" font-size="40" xml:space="preserve" fill="#000000" stroke="none" stroke-width="1" stroke-linecap="butt" font-family="Sans Serif" font-weight="normal" text-anchor="start"><tspan x="0" dy="0">Buff Guy</tspan></text><text transform="translate(218.94522,220.40272) scale(0.0984,0.0984)" font-size="40" xml:space="preserve" fill="#000000" stroke="none" stroke-width="1" stroke-linecap="butt" font-family="Sans Serif" font-weight="normal" text-anchor="start"><tspan x="0" dy="0">5/27</tspan></text><text transform="translate(213.87227,203.13362) scale(0.11215,0.11215)" font-size="40" xml:space="preserve" fill="#000000" stroke="none" stroke-width="1" stroke-linecap="butt" font-family="Sans Serif" font-weight="normal" text-anchor="start"><tspan x="0" dy="0">Strongest man on Earth.</tspan><tspan x="0" dy="48px">Underestimates</tspan><tspan x="0" dy="48px">everyone</tspan></text><text transform="translate(239.57666,220.8475) scale(0.09461,0.09461)" font-size="40" xml:space="preserve" fill="#000000" stroke="none" stroke-width="1" stroke-linecap="butt" font-family="Sans Serif" font-weight="normal" text-anchor="start"><tspan x="0" dy="0">Core Collection</tspan></text><path d="M203.94805,226.7152v-93.43041h72.1039v93.43041z" fill="none" stroke="none" stroke-width="0" stroke-linecap="butt"/></g></g></svg>