<svg version="1.1" xmlns="http://www.w3.org/2000/svg" xmlns:xlink="http://www.w3.org/1999/xlink" width="45.34771" height="102.63763" viewBox="0,0,45.34771,102.63763"><defs><linearGradient x1="234.837" y1="139.66158" x2="234.08091" y2="148.4081" gradientUnits="userSpaceOnUse" id="color-1"><stop offset="0" stop-color="#332315"/><stop offset="1" stop-color="#332315" stop-opacity="0"/></linearGradient></defs><g transform="translate(-216.68633,-130.281)"><g stroke-miterlimit="10"><g><g fill="#2e2012" stroke-linecap="butt"><path d="M234.16764,147.17531h0.05763l0.05798,-0.01558l0.01933,0.01558h1.26714l0.39581,0.11962l0.15257,-0.0503l0.22786,0.16527l0.23377,0.07065l0.22882,-0.0922l0.02464,-0.00229l0.02115,-0.01545l0.91136,-0.33899l0.02144,-0.00138l0.0186,-0.01298l0.49073,-0.16949l0.16121,-0.0065l0.15042,-0.07039l0.56083,-0.08475l0.00521,0.00077l0.00491,-0.00226l1.7526,-0.25423l0.12458,0.019l0.12182,-0.03681h0.35052l0.16769,0.05068l0.1723,-0.01667l0.23125,0.04659l0.01419,-0.01144l0.05799,0.01558h0.05763l0.461,0.13932l0.11231,0.03017h0.19783l1.03403,0.3125l0.04051,0.08571l0.08154,0.00548l0.69366,0.97828l0.07986,0.19308l0.02017,0.01393l0.0144,0.06966l0.02577,0.0623l0.10309,0.56076l0.11525,0.55728v0.06966l0.01288,0.07009l-0.01288,0.02337v1.96189l0.01288,0.02336l-0.01288,0.0701v0.06966l-0.06692,0.32357l0.00797,0.01926l-0.03984,0.13485l-0.01646,0.07959l-0.10309,0.56076l-0.02577,0.06231l-0.0144,0.06966l-0.02017,0.01394l-0.00976,0.02359l-0.08505,0.11995l-0.04395,0.14878l-0.14021,0.25423l-0.64137,0.70484l-0.04534,0.09591l-0.05785,0.01748l-0.04412,0.04849l-0.09117,-0.0076l-0.8409,0.25413h-0.07538l-0.01933,0.01558l-0.05109,-0.01373l-0.00042,0.00025l-0.01153,0.02438l-0.05763,0.01741l-0.05154,0.03116l-0.46387,0.12461l-0.461,0.13932h-0.05763l-0.05798,0.01558l-0.01933,-0.01558h-0.03676l-0.0743,0.10479l-0.03165,0.00213l-0.18759,0.15118l-0.12306,0.05313l-0.09922,0.10281l-0.01952,0.0118l-0.01153,0.02438l-0.05763,0.01741l-0.05154,0.03115l-0.46388,0.12462l-0.06584,0.0199l-0.11155,0.04816l-0.01594,-0.00964l-0.26766,0.08089h-0.05763l-0.05799,0.01557l-0.01933,-0.01557h-0.28569l-0.28042,-0.08474h-0.03983l-0.00478,0.00385l-0.05471,0.02362l-0.01784,0.01373l-0.05773,0.02326l-0.09201,0.09534l-0.01951,0.01179l-0.01153,0.02439l-0.05763,0.01741l-0.05154,0.03115l-0.46387,0.12461l-0.06584,0.0199l-0.11155,0.04816l-0.01594,-0.00964l-0.26766,0.0809h-0.05763l-0.05799,0.01557l-0.01933,-0.01557h-0.50127l-0.01933,0.01557l-0.05799,-0.01557h-0.05763l-0.23326,-0.0705l-0.00164,0.00133l-0.05799,-0.01558h-0.05763l-0.461,-0.13932l-0.25416,-0.06827l-0.12609,0.03811h-0.05763l-0.05799,0.01557l-0.01933,-0.01557h-0.71158l-0.01933,0.01557l-0.05799,-0.01557h-0.05763l-0.46099,-0.13932l-0.46387,-0.12461l-0.05155,-0.03115l-0.05763,-0.01741l-0.01152,-0.02438l-0.29993,-0.18129l-0.38156,-0.39536l-0.58638,0.40506l-0.6538,-0.45163l-0.27107,0.0182l-0.18303,-0.33189l-0.70166,-0.48469l-0.25851,-1.25v-0.00637l-0.01289,-0.02336l0.01289,-0.0701v-0.06966l0.11525,-0.55728l0.10308,-0.56076l0.02577,-0.06231l0.01441,-0.06966l0.02017,-0.01393l0.02668,-0.06451l0.04051,-0.13469l-0.13556,-0.65551v-0.42373l0.09895,-0.47848l-0.04161,-0.18443l0.13672,-0.27545l0.06445,-0.31164l0.1373,-0.09485l0.20991,-0.42292l0.13562,-0.16394l0.00882,-0.016c0.18974,-0.35516 0.45194,-0.64846 0.7613,-0.84935l0.04516,-0.04964l0.03104,0.00259c0.27235,-0.15961 0.57805,-0.24912 0.90103,-0.24912c0.18966,0 0.37337,0.03087 0.54786,0.08867z" stroke="#000000" stroke-width="1.5"/><path d="M234.16764,147.17531h0.05763l0.05798,-0.01558l0.01933,0.01558h1.26714l0.39581,0.11962l0.15257,-0.0503l0.22786,0.16527l0.23377,0.07065l0.22882,-0.0922l0.02464,-0.00229l0.02115,-0.01545l0.91136,-0.33899l0.02144,-0.00138l0.0186,-0.01298l0.49073,-0.16949l0.16121,-0.0065l0.15042,-0.07039l0.56083,-0.08475l0.00521,0.00077l0.00491,-0.00226l1.7526,-0.25423l0.12458,0.019l0.12182,-0.03681h0.35052l0.16769,0.05068l0.1723,-0.01667l0.23125,0.04659l0.01419,-0.01144l0.05799,0.01558h0.05763l0.461,0.13932l0.11231,0.03017h0.19783l1.03403,0.3125l0.04051,0.08571l0.08154,0.00548l0.69366,0.97828l0.07986,0.19308l0.02017,0.01393l0.0144,0.06966l0.02577,0.0623l0.10309,0.56076l0.11525,0.55728v0.06966l0.01288,0.07009l-0.01288,0.02337v1.96189l0.01288,0.02336l-0.01288,0.0701v0.06966l-0.06692,0.32357l0.00797,0.01926l-0.03984,0.13485l-0.01646,0.07959l-0.10309,0.56076l-0.02577,0.06231l-0.0144,0.06966l-0.02017,0.01394l-0.00976,0.02359l-0.08505,0.11995l-0.04395,0.14878l-0.14021,0.25423l-0.64137,0.70484l-0.04534,0.09591l-0.05785,0.01748l-0.04412,0.04849l-0.09117,-0.0076l-0.8409,0.25413h-0.07538l-0.01933,0.01558l-0.05109,-0.01373l-0.00042,0.00025l-0.01153,0.02438l-0.05763,0.01741l-0.05154,0.03116l-0.46387,0.12461l-0.461,0.13932h-0.05763l-0.05798,0.01558l-0.01933,-0.01558h-0.03676l-0.0743,0.10479l-0.03165,0.00213l-0.18759,0.15118l-0.12306,0.05313l-0.09922,0.10281l-0.01952,0.0118l-0.01153,0.02438l-0.05763,0.01741l-0.05154,0.03115l-0.46388,0.12462l-0.06584,0.0199l-0.11155,0.04816l-0.01594,-0.00964l-0.26766,0.08089h-0.05763l-0.05799,0.01557l-0.01933,-0.01557h-0.28569l-0.28042,-0.08474h-0.03983l-0.00478,0.00385l-0.05471,0.02362l-0.01784,0.01373l-0.05773,0.02326l-0.09201,0.09534l-0.01951,0.01179l-0.01153,0.02439l-0.05763,0.01741l-0.05154,0.03115l-0.46387,0.12461l-0.06584,0.0199l-0.11155,0.04816l-0.01594,-0.00964l-0.26766,0.0809h-0.05763l-0.05799,0.01557l-0.01933,-0.01557h-0.50127l-0.01933,0.01557l-0.05799,-0.01557h-0.05763l-0.23326,-0.0705l-0.00164,0.00133l-0.05799,-0.01558h-0.05763l-0.461,-0.13932l-0.25416,-0.06827l-0.12609,0.03811h-0.05763l-0.05799,0.01557l-0.01933,-0.01557h-0.71158l-0.01933,0.01557l-0.05799,-0.01557h-0.05763l-0.46099,-0.13932l-0.46387,-0.12461l-0.05155,-0.03115l-0.05763,-0.01741l-0.01152,-0.02438l-0.29993,-0.18129l-0.38156,-0.39536l-0.58638,0.40506l-0.6538,-0.45163l-0.27107,0.0182l-0.18303,-0.33189l-0.70166,-0.48469l-0.25851,-1.25v-0.00637l-0.01289,-0.02336l0.01289,-0.0701v-0.06966l0.11525,-0.55728l0.10308,-0.56076l0.02577,-0.06231l0.01441,-0.06966l0.02017,-0.01393l0.02668,-0.06451l0.04051,-0.13469l-0.13556,-0.65551v-0.42373l0.09895,-0.47848l-0.04161,-0.18443l0.13672,-0.27545l0.06445,-0.31164l0.1373,-0.09485l0.20991,-0.42292l0.13562,-0.16394l0.00882,-0.016c0.18974,-0.35516 0.45194,-0.64846 0.7613,-0.84935l0.04516,-0.04964l0.03104,0.00259c0.27235,-0.15961 0.57805,-0.24912 0.90103,-0.24912c0.18966,0 0.37337,0.03087 0.54786,0.08867z" stroke="none" stroke-width="0.5"/></g><g fill="#999999" stroke-linecap="butt"><path d="M230.35264,195.08814c0,0 -0.51188,-6.2438 -0.75221,-10.57074c-0.27748,-4.99565 -3.36827,-18.35038 -2.81293,-25.18645c0.25223,-3.10486 4.52999,-3.86212 4.52999,-3.86212l14.22322,-0.47954c0,0 3.76146,0.63952 4.17364,3.40794c0.90353,6.06863 -0.04079,18.80457 0.23242,23.72362c0.27624,4.97339 -1.20659,12.1838 -1.20659,12.1838z" stroke="#000000" stroke-width="1.5"/><path d="M230.35264,195.08814c0,0 -0.51188,-6.2438 -0.75221,-10.57074c-0.27748,-4.99565 -3.36827,-18.35038 -2.81293,-25.18645c0.25223,-3.10486 4.52999,-3.86212 4.52999,-3.86212l14.22322,-0.47954c0,0 3.76146,0.63952 4.17364,3.40794c0.90353,6.06863 -0.04079,18.80457 0.23242,23.72362c0.27624,4.97339 -1.20659,12.1838 -1.20659,12.1838z" stroke="none" stroke-width="0"/></g><path d="M248.67059,145.27238c0,5.51672 -3.72056,9.98891 -8.3101,9.98891c-3.42606,0 -6.36788,-1.59677 -7.63924,-5.15518c-0.22954,-0.64246 -1.01788,0.12309 -2.02049,-0.90644c-0.88325,-0.90697 -2.06977,-4.86168 -1.44838,-5.38225c1.13084,-0.94738 2.96606,-0.84276 3.27479,-1.88795c1.14391,-3.87273 4.21918,-6.64599 7.83333,-6.64599c4.58954,0 8.3101,4.47219 8.3101,9.98891z" fill="#eda164" stroke="#000000" stroke-width="1" stroke-linecap="butt"/><path d="M236.30258,143.53488l-0.01932,0.08268l-0.00206,0.02381l0.00839,0.02206l-0.01634,0.06992l-0.00593,0.06856l-0.05088,0.20205l0.00394,0.01035l-0.01634,0.06992l-0.00593,0.06856l-0.0592,0.23509l-0.005,0.05789l-0.14021,0.5568l-0.1307,0.55934l-0.02605,0.06319l-0.19512,0.77488l-0.06125,0.05334l-0.01203,0.09733l-0.26929,0.32924l-0.08379,0.17634l-0.00539,0.04364l-0.08869,0.10844l-0.00199,0.00276l-0.07128,0.15002l-0.08837,0.12283l-0.10601,0.09616l-0.08016,0.12654l-0.06947,0.01187l-0.21695,0.26525l-0.06334,0.04935l-0.01135,0.02483l-0.04788,0.02131l-0.04415,0.03439l-0.0996,0.04051l-0.05337,0.0484l-0.03651,-0.01184l-0.19461,0.07916l-0.38303,0.17051l-0.0464,0.00417l-0.04801,0.01953l-0.03086,-0.0302l-0.75906,-0.21911l-0.17631,-0.56671l-0.36836,-0.29976l-0.1018,-1.21147l-0.83585,-3.97699c0.03772,-0.41263 1.37733,-0.10142 1.53012,-0.45294l0.01801,-0.07151l0.02356,-0.02051c0.33332,-0.71068 0.86705,-1.22743 1.44111,-1.32771l0.04467,-0.08972l0.04364,-0.0164l0.21226,-0.33508l0.76602,-0.13087l0.19018,-0.07736l0.03904,0.0382l0.24981,-0.04268l0.18657,-0.07013l0.0192,0.03497l0.23656,-0.04041l0.48151,1.26657l0.06466,0.06326l-0.00996,0.08061l0.04643,0.12214l0.12081,0.22005l-0.00989,0.07172l0.05893,0.15502l-0.19584,0.83807l-0.02832,0.20545l-0.05419,0.1772l-0.013,0.02612l-0.00182,0.00777l-0.04919,0.11931l-0.05726,0.09038l-0.0905,0.18179l-0.0233,0.18849l-0.11411,0.13951z" fill="url(#color-1)" stroke="none" stroke-width="0.5" stroke-linecap="butt"/><path d="M244.92761,146.17531v0.667" fill="none" stroke="#000000" stroke-width="2" stroke-linecap="round"/><path d="M240.33938,145.89515v1.00599" fill="none" stroke="#000000" stroke-width="2" stroke-linecap="round"/><path d="M244.62192,151.56429l-0.40116,-0.00479c-1.46827,-0.24471 -2.92695,-0.06386 -4.40443,-0.06386c0,0 -0.35221,0 -0.35221,-0.35221c0,-0.35221 0.35221,-0.35221 0.35221,-0.35221c1.51778,0 3.01115,-0.17807 4.52024,0.07344l0.28535,-0.00479c0,0 0.35221,0 0.35221,0.35221c0,0.35221 -0.35221,0.35221 -0.35221,0.35221z" fill="#000000" stroke="none" stroke-width="0.5" stroke-linecap="butt"/><g fill="#787878" stroke-linecap="butt"><g><path d="M247.60174,231.78583c-1.36404,-0.17082 -4.44915,-1.97384 -4.44915,-1.97384l-2.20418,-35.55988c0,0 0.69566,-0.07002 1.94825,-0.64295c1.22886,-0.56208 3.00845,-1.62671 3.68662,-1.68637c0.85914,-0.0756 1.7908,1.67596 1.7908,1.67596l2.30309,37.15551c0,0 -2.00114,1.16609 -3.07544,1.03156z" stroke="#000000" stroke-width="1.5"/><path d="M247.60174,231.78583c-1.36404,-0.17082 -4.44915,-1.97384 -4.44915,-1.97384l-2.20418,-35.55988c0,0 0.69566,-0.07002 1.94825,-0.64295c1.22886,-0.56208 3.00845,-1.62671 3.68662,-1.68637c0.85914,-0.0756 1.7908,1.67596 1.7908,1.67596l2.30309,37.15551c0,0 -2.00114,1.16609 -3.07544,1.03156z" stroke="none" stroke-width="0"/></g><g><path d="M241.03538,230.25609c0,0 1.23231,-3.97703 2.73587,-4.83769c1.80691,-1.03431 7.36375,-0.94349 7.36375,-0.94349c0,0 8.03865,-0.21131 7.84936,1.69827c-0.05885,0.59364 0.96907,3.92957 -0.48306,4.80881c-2.54607,1.54158 -8.22512,0.62709 -8.59051,0.63443c-1.88542,0.03791 -8.8754,-1.36033 -8.8754,-1.36033z" stroke="#000000" stroke-width="1.5"/><path d="M241.03538,230.25609c0,0 1.23231,-3.97703 2.73587,-4.83769c1.80691,-1.03431 7.36375,-0.94349 7.36375,-0.94349c0,0 8.03865,-0.21131 7.84936,1.69827c-0.05885,0.59364 0.96907,3.92957 -0.48306,4.80881c-2.54607,1.54158 -8.22512,0.62709 -8.59051,0.63443c-1.88542,0.03791 -8.8754,-1.36033 -8.8754,-1.36033z" stroke="none" stroke-width="0"/></g></g><g fill="#787878" stroke-linecap="butt"><g><path d="M235.15631,231.70677c-1.3488,-0.26558 -4.30058,-2.27946 -4.30058,-2.27946l0.28235,-35.62701c0,0 0.69885,-0.02131 1.98836,-0.50545c1.26508,-0.47497 3.11461,-1.41283 3.7953,-1.42503c0.86232,-0.01547 1.6695,1.79683 1.6695,1.79683l-0.29502,37.22565c0,0 -2.07762,1.02362 -3.13992,0.81446z" stroke="#000000" stroke-width="1.5"/><path d="M235.15631,231.70677c-1.3488,-0.26558 -4.30058,-2.27946 -4.30058,-2.27946l0.28235,-35.62701c0,0 0.69885,-0.02131 1.98836,-0.50545c1.26508,-0.47497 3.11461,-1.41283 3.7953,-1.42503c0.86232,-0.01547 1.6695,1.79683 1.6695,1.79683l-0.29502,37.22565c0,0 -2.07762,1.02362 -3.13992,0.81446z" stroke="none" stroke-width="0"/></g><g><path d="M231.82685,224.95467c1.87405,-0.90699 7.41134,-0.43246 7.41134,-0.43246c0,0 8.03404,0.34461 7.71326,2.23654c-0.09973,0.58816 0.69525,3.98713 -0.81416,4.76394c-2.6465,1.36198 -8.24879,0.0573 -8.61382,0.03937c-1.88353,-0.09245 -8.7602,-1.9703 -8.7602,-1.9703c0,0 1.50415,-3.88237 3.06358,-4.63709z" stroke="#000000" stroke-width="1.5"/><path d="M228.76327,229.59177c0,0 1.50415,-3.88238 3.06358,-4.6371c1.87405,-0.90699 7.41134,-0.43246 7.41134,-0.43246c0,0 8.03404,0.34461 7.71326,2.23654c-0.09973,0.58816 0.69525,3.98713 -0.81416,4.76394c-2.6465,1.36198 -8.24879,0.0573 -8.61382,0.03937c-1.88353,-0.09245 -8.7602,-1.9703 -8.7602,-1.9703z" stroke="none" stroke-width="0"/></g></g><g fill="#999999" stroke-linecap="butt"><g stroke="#000000" stroke-width="1.5"><path d="M228.32439,161.78358c0,0 0.16762,1.66019 -0.31884,3.24558c-0.35333,1.15154 -1.72769,3.15623 -2.58387,5.60998c-0.62897,1.80256 -0.99935,3.71599 -1.49092,5.44641c-0.80767,2.84314 -1.56773,5.12653 -1.56773,5.12653l-4.69393,-1.82552c0,0 1.12578,-5.30545 2.64108,-10.90669c0.44148,-1.63189 0.86297,-3.59154 1.36508,-5.07725c0.89208,-2.63964 2.3555,-4.15185 3.03641,-5.46305c1.3503,-2.60013 4.2727,-2.44244 4.2727,-2.44244l-0.65999,6.28642z"/><path d="M222.30217,181.36856c-0.50411,1.29619 -1.96353,1.93831 -3.25972,1.4342c-1.29619,-0.50411 -1.93831,-1.96353 -1.4342,-3.25972c0.50411,-1.29619 1.96353,-1.93831 3.25974,-1.4342c1.29619,0.50411 1.93831,1.96354 1.4342,3.25973z"/></g><g stroke="none" stroke-width="0"><path d="M228.32439,161.78358c0,0 0.16762,1.66019 -0.31884,3.24558c-0.35333,1.15154 -1.72769,3.15623 -2.58387,5.60998c-0.62897,1.80256 -0.99935,3.71599 -1.49092,5.44641c-0.80767,2.84314 -1.56773,5.12653 -1.56773,5.12653l-4.69393,-1.82552c0,0 1.12578,-5.30545 2.64108,-10.90669c0.44148,-1.63189 0.86297,-3.59154 1.36508,-5.07725c0.89208,-2.63964 2.3555,-4.15185 3.03641,-5.46305c1.3503,-2.60013 4.2727,-2.44244 4.2727,-2.44244l-0.65999,6.28642z"/><path d="M222.30217,181.36856c-0.50411,1.29619 -1.96353,1.93831 -3.25972,1.4342c-1.29619,-0.50411 -1.93831,-1.96353 -1.4342,-3.25972c0.50411,-1.29619 1.96353,-1.93831 3.25974,-1.4342c1.29619,0.50411 1.93831,1.96354 1.4342,3.25973z"/></g></g><g fill="#eda164" stroke-linecap="butt"><g stroke="#000000" stroke-width="1.5"><path d="M232.14185,200.6316l-4.54864,2.16227c0,0 -1.60386,-0.41329 -2.76474,-2.83612c-0.78733,-1.64325 -1.51568,-4.89774 -2.46272,-6.72737c-1.24928,-2.41353 -2.18512,-4.67017 -2.80264,-5.9692c-0.93063,-1.9577 -1.84427,-5.23944 -1.84427,-5.23944l4.54865,-2.16228c0,0 1.93985,2.59406 2.90366,4.62157c0.62939,1.32401 1.31978,4.02824 2.41715,6.57568c0.56946,1.32196 1.5322,3.9221 2.1155,5.16231c1.48369,3.15466 2.43808,4.41259 2.43808,4.41259z"/><path d="M221.00221,183.0633c-1.25607,0.5971 -2.75836,0.06288 -3.35545,-1.19319c-0.5971,-1.25607 -0.06288,-2.75836 1.19318,-3.35545c1.25607,-0.5971 2.75836,-0.06288 3.35546,1.19319c0.5971,1.25607 0.06289,2.75837 -1.19319,3.35546z"/></g><g stroke="none" stroke-width="0"><path d="M232.14185,200.6316l-4.54864,2.16227c0,0 -1.60386,-0.41329 -2.76474,-2.83612c-0.78733,-1.64325 -1.51568,-4.89774 -2.46272,-6.72737c-1.24928,-2.41353 -2.18512,-4.67017 -2.80264,-5.9692c-0.93063,-1.9577 -1.84427,-5.23944 -1.84427,-5.23944l4.54865,-2.16228c0,0 1.93985,2.59406 2.90366,4.62157c0.62939,1.32401 1.31978,4.02824 2.41715,6.57568c0.56946,1.32196 1.5322,3.9221 2.1155,5.16231c1.48369,3.15466 2.43808,4.41259 2.43808,4.41259z"/><path d="M221.00221,183.0633c-1.25607,0.5971 -2.75836,0.06288 -3.35545,-1.19319c-0.5971,-1.25607 -0.06288,-2.75836 1.19318,-3.35545c1.25607,-0.5971 2.75836,-0.06288 3.35546,1.19319c0.5971,1.25607 0.06289,2.75837 -1.19319,3.35546z"/></g></g><g fill="#999999" stroke-linecap="butt"><g stroke="#000000" stroke-width="1.5"><path d="M248.73063,161.86982l-1.17471,-6.21086c0,0 2.89954,-0.39748 4.45908,2.0828c0.78643,1.25075 2.36925,2.63751 3.47538,5.19485c0.62258,1.43939 1.2038,3.35774 1.77798,4.9478c1.97078,5.45765 3.52903,10.65256 3.52903,10.65256l-4.52791,2.20534c0,0 -0.94525,-2.21316 -1.98399,-4.98025c-0.63219,-1.68413 -1.15868,-3.56062 -1.93375,-5.30536c-1.05507,-2.37504 -2.58962,-4.25992 -3.03645,-5.3785c-0.61517,-1.54002 -0.58465,-3.20838 -0.58465,-3.20838z"/><path d="M256.34298,180.89324c-0.60898,-1.25035 -0.08907,-2.75764 1.16129,-3.36663c1.25036,-0.60899 2.75764,-0.08907 3.36663,1.16129c0.60898,1.25035 0.08907,2.75764 -1.16129,3.36663c-1.25035,0.60898 -2.75764,0.08907 -3.36663,-1.16129z"/></g><g stroke="none" stroke-width="0"><path d="M248.73063,161.86982l-1.17471,-6.21086c0,0 2.89954,-0.39748 4.45908,2.0828c0.78643,1.25075 2.36925,2.63751 3.47538,5.19485c0.62258,1.43939 1.2038,3.35774 1.77798,4.9478c1.97078,5.45765 3.52903,10.65256 3.52903,10.65256l-4.52791,2.20534c0,0 -0.94525,-2.21316 -1.98399,-4.98025c-0.63219,-1.68413 -1.15868,-3.56062 -1.93375,-5.30536c-1.05507,-2.37504 -2.58962,-4.25992 -3.03645,-5.3785c-0.61517,-1.54002 -0.58465,-3.20838 -0.58465,-3.20838z"/><path d="M256.34298,180.89324c-0.60898,-1.25035 -0.08907,-2.75764 1.16129,-3.36663c1.25036,-0.60899 2.75764,-0.08907 3.36663,1.16129c0.60898,1.25035 0.08907,2.75764 -1.16129,3.36663c-1.25035,0.60898 -2.75764,0.08907 -3.36663,-1.16129z"/></g></g><g fill="#eda164" stroke-linecap="butt"><g stroke="#000000" stroke-width="1.5"><path d="M249.53453,200.61433c0,0 0.76296,-1.38244 1.77607,-4.71813c0.3983,-1.31138 0.97589,-4.02321 1.3487,-5.41349c0.71842,-2.6791 1.01152,-5.45463 1.44333,-6.85558c0.66125,-2.14532 2.20662,-4.99208 2.20662,-4.99208l4.81298,1.48351c0,0 -0.43069,3.3792 -1.06919,5.45068c-0.42367,1.37454 -1.02422,3.74255 -1.91226,6.31106c-0.67321,1.94711 -0.92447,5.27264 -1.46652,7.01226c-0.79924,2.56495 -2.32671,3.20527 -2.32671,3.20527l-4.81298,-1.48351z"/><path d="M256.35867,178.47462c0.40966,-1.32906 1.81918,-2.07439 3.14824,-1.66474c1.32907,0.40966 2.07439,1.81918 1.66474,3.14825c-0.40966,1.32906 -1.81918,2.07439 -3.14825,1.66474c-1.32907,-0.40966 -2.07439,-1.81918 -1.66474,-3.14825z"/></g><g stroke="none" stroke-width="0"><path d="M249.53453,200.61433c0,0 0.76296,-1.38244 1.77607,-4.71813c0.3983,-1.31138 0.97589,-4.02321 1.3487,-5.41349c0.71842,-2.6791 1.01152,-5.45463 1.44333,-6.85558c0.66125,-2.14532 2.20662,-4.99208 2.20662,-4.99208l4.81298,1.48351c0,0 -0.43069,3.3792 -1.06919,5.45068c-0.42367,1.37454 -1.02422,3.74255 -1.91226,6.31106c-0.67321,1.94711 -0.92447,5.27264 -1.46652,7.01226c-0.79924,2.56495 -2.32671,3.20527 -2.32671,3.20527l-4.81298,-1.48351z"/><path d="M256.35867,178.47462c0.40966,-1.32906 1.81918,-2.07439 3.14824,-1.66474c1.32907,0.40966 2.07439,1.81918 1.66474,3.14825c-0.40966,1.32906 -1.81918,2.07439 -3.14825,1.66474c-1.32907,-0.40966 -2.07439,-1.81918 -1.66474,-3.14825z"/></g></g><g fill="#eda164" stroke="#000000" stroke-width="0.5" stroke-linecap="butt"><path d="M231.85824,201.6872c0.22512,-0.32729 1.29417,-0.92124 2.09569,-0.84127c0.53734,0.05363 0.8339,0.67459 1.12461,0.89613c0.67121,0.51141 -0.11857,1.71502 -0.83684,1.46315c-0.429,-0.15044 -0.91303,-0.67921 -1.22177,-0.23039c-0.8256,1.20014 -0.23151,3.03555 -0.97373,2.52498c-0.74219,-0.51052 -1.01363,-2.61244 -0.18803,-3.81261z"/><path d="M235.8028,205.23664c0.91106,0.95047 1.37831,1.98105 1.04364,2.30184c-0.33465,0.32079 -1.34452,-0.18967 -2.25558,-1.14012c-0.91106,-0.95047 -1.3783,-1.98106 -1.04363,-2.30185c0.33465,-0.32079 1.34452,0.18967 2.25558,1.14013z"/><path d="M234.79219,207.09936c0.67492,1.13044 0.89934,2.23952 0.50129,2.47716c-0.39803,0.23763 -1.26785,-0.48612 -1.94277,-1.61654c-0.67492,-1.13045 -0.89937,-2.23952 -0.50134,-2.47713c0.39803,-0.23765 1.26784,0.48612 1.94276,1.61657z"/><path d="M233.13758,207.63139c0.58713,1.17844 0.7267,2.30137 0.31179,2.50811c-0.41492,0.20673 -1.22729,-0.58097 -1.81441,-1.75941c-0.58713,-1.17843 -0.72672,-2.30137 -0.31177,-2.50806c0.41492,-0.20673 1.22727,0.58101 1.81441,1.75941z"/><path d="M231.48806,208.09175c0.34078,1.27173 0.25402,2.39997 -0.19378,2.51997c-0.44778,0.11999 -1.08702,-0.81368 -1.4278,-2.0854c-0.34078,-1.27173 -0.25399,-2.39997 0.19379,-2.51994c0.44777,-0.11998 1.08704,0.81368 1.42781,2.0854z"/><path d="M232.18091,206.2614c-1.30293,0.64913 -2.9651,-0.0409 -3.71259,-1.5412c-0.7475,-1.50034 -0.29724,-3.2428 1.00564,-3.89191c1.30292,-0.64913 2.96507,0.0409 3.71258,1.54119c0.7475,1.50034 0.29723,3.24283 -1.00566,3.89194z"/></g><g fill="#eda164" stroke="#000000" stroke-width="0.5" stroke-linecap="butt"><path d="M250.44511,200.99753c0.82559,1.20018 0.55416,3.30209 -0.18803,3.81261c-0.74222,0.51057 -0.14813,-1.32485 -0.97374,-2.52498c-0.30874,-0.44882 -0.79277,0.07995 -1.22177,0.23039c-0.71827,0.25187 -1.50805,-0.95174 -0.83684,-1.46314c0.29071,-0.22154 0.58727,-0.8425 1.12461,-0.89613c0.80152,-0.07997 1.87058,0.51398 2.09569,0.84127z"/><path d="M246.50044,204.54698c0.91106,-0.95047 1.92093,-1.46092 2.25559,-1.14013c0.33467,0.32079 -0.13258,1.35137 -1.04363,2.30185c-0.91106,0.95045 -1.92092,1.46091 -2.25557,1.14012c-0.33466,-0.3208 0.13259,-1.35137 1.04364,-2.30184z"/><path d="M247.51114,206.40977c0.67491,-1.13045 1.54472,-1.85422 1.94276,-1.61657c0.39803,0.23762 0.17357,1.34669 -0.50134,2.47713c-0.67491,1.13042 -1.54474,1.85416 -1.94277,1.61653c-0.39805,-0.23764 -0.17363,-1.34672 0.50129,-2.47716z"/><path d="M249.16567,206.94177c0.58713,-1.1784 1.39948,-1.96615 1.8144,-1.75941c0.41494,0.20669 0.27535,1.32964 -0.31177,2.50806c-0.58712,1.17845 -1.39948,1.96615 -1.8144,1.75941c-0.41491,-0.20673 -0.27534,-1.32967 0.31179,-2.50811z"/><path d="M250.81519,207.40212c0.34077,-1.27172 0.98003,-2.20538 1.42781,-2.0854c0.44778,0.11997 0.53457,1.2482 0.19379,2.51994c-0.34079,1.27173 -0.98003,2.20539 -1.42781,2.0854c-0.4478,-0.12 -0.53455,-1.24823 -0.19377,-2.51997z"/><path d="M250.12238,205.57177c-1.30289,-0.64911 -1.75317,-2.3916 -1.00567,-3.89194c0.74751,-1.5003 2.40966,-2.19033 3.71258,-1.54119c1.30289,0.64911 1.75315,2.39156 1.00565,3.8919c-0.74748,1.5003 -2.40966,2.19033 -3.71259,1.5412z"/></g><g fill="#999999" stroke-linecap="butt"><path d="M223.82607,138.74308c0.07957,-0.8269 1.54329,-2.0466 2.02043,-2.79396c4.15358,-6.50596 13.24689,-6.019 19.12088,-1.67245c1.43166,1.05938 6.14582,6.54529 3.784,8.19244c-1.01116,0.70519 -1.97603,-0.18774 -3.02014,-0.154c-1.62728,0.0526 -3.36727,0.44234 -4.97818,0.64754c-1.86055,0.23699 -5.30223,0.2628 -6.91117,1.38189c-0.33228,0.23111 -1.59127,1.20241 -2.08198,0.82288c0,0 -0.59134,-0.84712 -0.69821,-1.52603c-0.14989,-0.95224 0.06897,-1.88304 -0.91719,-2.39625c-2.29003,-1.19178 -6.51023,-0.50897 -6.31844,-2.50206z" stroke="#000000" stroke-width="1.5"/><path d="M223.82607,138.74308c0.07957,-0.8269 1.54329,-2.04661 2.02042,-2.79396c4.15358,-6.50596 13.24689,-6.01899 19.12088,-1.67245c1.43166,1.05938 6.14582,6.54529 3.784,8.19245c-1.01116,0.70519 -1.97603,-0.18775 -3.02014,-0.154c-1.62729,0.0526 -3.36727,0.44235 -4.97818,0.64754c-1.86055,0.23699 -5.30224,0.26279 -6.91117,1.38189c-0.33228,0.23112 -1.59127,1.20241 -2.08198,0.82288c0,0 -0.59135,-0.84712 -0.69821,-1.52603c-0.14989,-0.95224 0.06897,-1.88304 -0.91718,-2.39626c-2.29003,-1.19178 -6.51023,-0.50897 -6.31843,-2.50206z" stroke="none" stroke-width="0.5"/></g></g></g></g></svg>