<svg version="1.1" xmlns="http://www.w3.org/2000/svg" xmlns:xlink="http://www.w3.org/1999/xlink" width="45.34771" height="98.79229" viewBox="0,0,45.34771,98.79229"><defs><radialGradient cx="242.74828" cy="145.95283" r="6.35276" gradientUnits="userSpaceOnUse" id="color-1"><stop offset="0.12028" stop-color="#470000"/><stop offset="0.4033" stop-color="#a50000"/><stop offset="0.625" stop-color="#e3c116"/><stop offset="1" stop-color="#ffffff"/></radialGradient><radialGradient cx="242.74828" cy="145.95283" r="6.35277" gradientUnits="userSpaceOnUse" id="color-2"><stop offset="0.12028" stop-color="#470000"/><stop offset="0.4033" stop-color="#a50000"/><stop offset="0.625" stop-color="#e3c116"/><stop offset="1" stop-color="#ffffff"/></radialGradient></defs><g transform="translate(-216.68633,-134.12635)"><g stroke-miterlimit="10"><g><g fill="#141414" stroke-linecap="butt"><path d="M249.64551,153.31683c0,2.51039 -5.02662,4.54545 -11.22727,4.54545c-6.20065,0 -11.22727,-2.03507 -11.22727,-4.54545c0,-2.51039 5.02662,-4.54545 11.22727,-4.54545c6.20065,0 11.22727,2.03507 11.22727,4.54545z" stroke="#000000" stroke-width="1.5"/><path d="M249.64551,153.31683c0,2.51039 -5.02662,4.54546 -11.22727,4.54546c-6.20065,0 -11.22728,-2.03507 -11.22728,-4.54546c0,-2.51039 5.02663,-4.54546 11.22728,-4.54546c6.20065,0 11.22727,2.03507 11.22727,4.54546z" stroke="none" stroke-width="0"/></g><g stroke-linecap="butt"><path d="M230.35264,195.08814c0,0 -0.51188,-6.2438 -0.75221,-10.57074c-0.27748,-4.99565 -3.36827,-18.35038 -2.81293,-25.18645c0.25223,-3.10486 4.52999,-3.86212 4.52999,-3.86212l14.22322,-0.47954c0,0 3.76146,0.63952 4.17364,3.40794c0.90353,6.06863 -0.04079,18.80457 0.23242,23.72362c0.27624,4.97339 -1.20659,12.1838 -1.20659,12.1838z" fill="#eda164" stroke="#000000" stroke-width="1.5"/><path d="M230.35264,195.08814c0,0 -0.51188,-6.2438 -0.75221,-10.57074c-0.27748,-4.99565 -3.36827,-18.35038 -2.81293,-25.18645c0.25223,-3.10486 4.52999,-3.86212 4.52999,-3.86212l14.22322,-0.47954c0,0 3.76146,0.63952 4.17364,3.40794c0.90353,6.06863 -0.04079,18.80457 0.23242,23.72362c0.27624,4.97339 -1.20659,12.1838 -1.20659,12.1838z" fill="#141414" stroke="none" stroke-width="0"/></g><g fill="#7e7e7e" stroke-linecap="butt"><g><path d="M247.60174,231.78583c-1.36404,-0.17082 -4.44915,-1.97384 -4.44915,-1.97384l-2.20418,-35.55988c0,0 0.69566,-0.07002 1.94825,-0.64295c1.22886,-0.56208 3.00845,-1.62671 3.68662,-1.68637c0.85914,-0.0756 1.7908,1.67596 1.7908,1.67596l2.30309,37.15551c0,0 -2.00114,1.16609 -3.07544,1.03156z" stroke="#000000" stroke-width="1.5"/><path d="M247.60174,231.78583c-1.36404,-0.17082 -4.44915,-1.97384 -4.44915,-1.97384l-2.20418,-35.55988c0,0 0.69566,-0.07002 1.94825,-0.64295c1.22886,-0.56208 3.00845,-1.62671 3.68662,-1.68637c0.85914,-0.0756 1.7908,1.67596 1.7908,1.67596l2.30309,37.15551c0,0 -2.00114,1.16609 -3.07544,1.03156z" stroke="none" stroke-width="0"/></g><g><path d="M241.03538,230.25609c0,0 1.23231,-3.97703 2.73587,-4.83769c1.80691,-1.03431 7.36375,-0.94349 7.36375,-0.94349c0,0 8.03865,-0.21131 7.84936,1.69827c-0.05885,0.59364 0.96907,3.92957 -0.48306,4.80881c-2.54607,1.54158 -8.22512,0.62709 -8.59051,0.63443c-1.88542,0.03791 -8.8754,-1.36033 -8.8754,-1.36033z" stroke="#000000" stroke-width="1.5"/><path d="M241.03538,230.25609c0,0 1.23231,-3.97703 2.73587,-4.83769c1.80691,-1.03431 7.36375,-0.94349 7.36375,-0.94349c0,0 8.03865,-0.21131 7.84936,1.69827c-0.05885,0.59364 0.96907,3.92957 -0.48306,4.80881c-2.54607,1.54158 -8.22512,0.62709 -8.59051,0.63443c-1.88542,0.03791 -8.8754,-1.36033 -8.8754,-1.36033z" stroke="none" stroke-width="0"/></g></g><g fill="#7e7e7e" stroke-linecap="butt"><g><path d="M235.15631,231.70677c-1.3488,-0.26558 -4.30058,-2.27946 -4.30058,-2.27946l0.28235,-35.62701c0,0 0.69885,-0.02131 1.98836,-0.50545c1.26508,-0.47497 3.11461,-1.41283 3.7953,-1.42503c0.86232,-0.01547 1.6695,1.79683 1.6695,1.79683l-0.29502,37.22565c0,0 -2.07762,1.02362 -3.13992,0.81446z" stroke="#000000" stroke-width="1.5"/><path d="M235.15631,231.70677c-1.3488,-0.26558 -4.30058,-2.27946 -4.30058,-2.27946l0.28235,-35.62701c0,0 0.69885,-0.02131 1.98836,-0.50545c1.26508,-0.47497 3.11461,-1.41283 3.7953,-1.42503c0.86232,-0.01547 1.6695,1.79683 1.6695,1.79683l-0.29502,37.22565c0,0 -2.07762,1.02362 -3.13992,0.81446z" stroke="none" stroke-width="0"/></g><g><path d="M231.82685,224.95467c1.87405,-0.90699 7.41134,-0.43246 7.41134,-0.43246c0,0 8.03404,0.34461 7.71326,2.23654c-0.09973,0.58816 0.69525,3.98713 -0.81416,4.76394c-2.6465,1.36198 -8.24879,0.0573 -8.61382,0.03937c-1.88353,-0.09245 -8.7602,-1.9703 -8.7602,-1.9703c0,0 1.50415,-3.88237 3.06358,-4.63709z" stroke="#000000" stroke-width="1.5"/><path d="M228.76327,229.59177c0,0 1.50415,-3.88238 3.06358,-4.6371c1.87405,-0.90699 7.41134,-0.43246 7.41134,-0.43246c0,0 8.03404,0.34461 7.71326,2.23654c-0.09973,0.58816 0.69525,3.98713 -0.81416,4.76394c-2.6465,1.36198 -8.24879,0.0573 -8.61382,0.03937c-1.88353,-0.09245 -8.7602,-1.9703 -8.7602,-1.9703z" stroke="none" stroke-width="0"/></g></g><g fill="#141414" stroke-linecap="butt"><g stroke="#000000" stroke-width="1.5"><path d="M228.32439,161.78358c0,0 0.16762,1.66019 -0.31884,3.24558c-0.35333,1.15154 -1.72769,3.15623 -2.58387,5.60998c-0.62897,1.80256 -0.99935,3.71599 -1.49092,5.44641c-0.80767,2.84314 -1.56773,5.12653 -1.56773,5.12653l-4.69393,-1.82552c0,0 1.12578,-5.30545 2.64108,-10.90669c0.44148,-1.63189 0.86297,-3.59154 1.36508,-5.07725c0.89208,-2.63964 2.3555,-4.15185 3.03641,-5.46305c1.3503,-2.60013 4.2727,-2.44244 4.2727,-2.44244l-0.65999,6.28642z"/><path d="M222.30217,181.36856c-0.50411,1.29619 -1.96353,1.93831 -3.25972,1.4342c-1.29619,-0.50411 -1.93831,-1.96353 -1.4342,-3.25972c0.50411,-1.29619 1.96353,-1.93831 3.25974,-1.4342c1.29619,0.50411 1.93831,1.96354 1.4342,3.25973z"/></g><g stroke="none" stroke-width="0"><path d="M228.32439,161.78358c0,0 0.16762,1.66019 -0.31884,3.24558c-0.35333,1.15154 -1.72769,3.15623 -2.58387,5.60998c-0.62897,1.80256 -0.99935,3.71599 -1.49092,5.44641c-0.80767,2.84314 -1.56773,5.12653 -1.56773,5.12653l-4.69393,-1.82552c0,0 1.12578,-5.30545 2.64108,-10.90669c0.44148,-1.63189 0.86297,-3.59154 1.36508,-5.07725c0.89208,-2.63964 2.3555,-4.15185 3.03641,-5.46305c1.3503,-2.60013 4.2727,-2.44244 4.2727,-2.44244l-0.65999,6.28642z"/><path d="M222.30217,181.36856c-0.50411,1.29619 -1.96353,1.93831 -3.25972,1.4342c-1.29619,-0.50411 -1.93831,-1.96353 -1.4342,-3.25972c0.50411,-1.29619 1.96353,-1.93831 3.25974,-1.4342c1.29619,0.50411 1.93831,1.96354 1.4342,3.25973z"/></g></g><g fill="#141414" stroke-linecap="butt"><g stroke="#000000" stroke-width="1.5"><path d="M232.14185,200.6316l-4.54864,2.16227c0,0 -1.60386,-0.41329 -2.76474,-2.83612c-0.78733,-1.64325 -1.51568,-4.89774 -2.46272,-6.72737c-1.24928,-2.41353 -2.18512,-4.67017 -2.80264,-5.9692c-0.93063,-1.9577 -1.84427,-5.23944 -1.84427,-5.23944l4.54865,-2.16228c0,0 1.93985,2.59406 2.90366,4.62157c0.62939,1.32401 1.31978,4.02824 2.41715,6.57568c0.56946,1.32196 1.5322,3.9221 2.1155,5.16231c1.48369,3.15466 2.43808,4.41259 2.43808,4.41259z"/><path d="M221.00221,183.0633c-1.25607,0.5971 -2.75836,0.06288 -3.35545,-1.19319c-0.5971,-1.25607 -0.06288,-2.75836 1.19318,-3.35545c1.25607,-0.5971 2.75836,-0.06288 3.35546,1.19319c0.5971,1.25607 0.06289,2.75837 -1.19319,3.35546z"/></g><g stroke="none" stroke-width="0"><path d="M232.14185,200.6316l-4.54864,2.16227c0,0 -1.60386,-0.41329 -2.76474,-2.83612c-0.78733,-1.64325 -1.51568,-4.89774 -2.46272,-6.72737c-1.24928,-2.41353 -2.18512,-4.67017 -2.80264,-5.9692c-0.93063,-1.9577 -1.84427,-5.23944 -1.84427,-5.23944l4.54865,-2.16228c0,0 1.93985,2.59406 2.90366,4.62157c0.62939,1.32401 1.31978,4.02824 2.41715,6.57568c0.56946,1.32196 1.5322,3.9221 2.1155,5.16231c1.48369,3.15466 2.43808,4.41259 2.43808,4.41259z"/><path d="M221.00221,183.0633c-1.25607,0.5971 -2.75836,0.06288 -3.35545,-1.19319c-0.5971,-1.25607 -0.06288,-2.75836 1.19318,-3.35545c1.25607,-0.5971 2.75836,-0.06288 3.35546,1.19319c0.5971,1.25607 0.06289,2.75837 -1.19319,3.35546z"/></g></g><g fill="#141414" stroke-linecap="butt"><g stroke="#000000" stroke-width="1.5"><path d="M248.73063,161.86982l-1.17471,-6.21086c0,0 2.89954,-0.39748 4.45908,2.0828c0.78643,1.25075 2.36925,2.63751 3.47538,5.19485c0.62258,1.43939 1.2038,3.35774 1.77798,4.9478c1.97078,5.45765 3.52903,10.65256 3.52903,10.65256l-4.52791,2.20534c0,0 -0.94525,-2.21316 -1.98399,-4.98025c-0.63219,-1.68413 -1.15868,-3.56062 -1.93375,-5.30536c-1.05507,-2.37504 -2.58962,-4.25992 -3.03645,-5.3785c-0.61517,-1.54002 -0.58465,-3.20838 -0.58465,-3.20838z"/><path d="M256.34298,180.89324c-0.60898,-1.25035 -0.08907,-2.75764 1.16129,-3.36663c1.25036,-0.60899 2.75764,-0.08907 3.36663,1.16129c0.60898,1.25035 0.08907,2.75764 -1.16129,3.36663c-1.25035,0.60898 -2.75764,0.08907 -3.36663,-1.16129z"/></g><g stroke="none" stroke-width="0"><path d="M248.73063,161.86982l-1.17471,-6.21086c0,0 2.89954,-0.39748 4.45908,2.0828c0.78643,1.25075 2.36925,2.63751 3.47538,5.19485c0.62258,1.43939 1.2038,3.35774 1.77798,4.9478c1.97078,5.45765 3.52903,10.65256 3.52903,10.65256l-4.52791,2.20534c0,0 -0.94525,-2.21316 -1.98399,-4.98025c-0.63219,-1.68413 -1.15868,-3.56062 -1.93375,-5.30536c-1.05507,-2.37504 -2.58962,-4.25992 -3.03645,-5.3785c-0.61517,-1.54002 -0.58465,-3.20838 -0.58465,-3.20838z"/><path d="M256.34298,180.89324c-0.60898,-1.25035 -0.08907,-2.75764 1.16129,-3.36663c1.25036,-0.60899 2.75764,-0.08907 3.36663,1.16129c0.60898,1.25035 0.08907,2.75764 -1.16129,3.36663c-1.25035,0.60898 -2.75764,0.08907 -3.36663,-1.16129z"/></g></g><g fill="#141414" stroke-linecap="butt"><g stroke="#000000" stroke-width="1.5"><path d="M249.53453,200.61433c0,0 0.76296,-1.38244 1.77607,-4.71813c0.3983,-1.31138 0.97589,-4.02321 1.3487,-5.41349c0.71842,-2.6791 1.01152,-5.45463 1.44333,-6.85558c0.66125,-2.14532 2.20662,-4.99208 2.20662,-4.99208l4.81298,1.48351c0,0 -0.43069,3.3792 -1.06919,5.45068c-0.42367,1.37454 -1.02422,3.74255 -1.91226,6.31106c-0.67321,1.94711 -0.92447,5.27264 -1.46652,7.01226c-0.79924,2.56495 -2.32671,3.20527 -2.32671,3.20527l-4.81298,-1.48351z"/><path d="M256.35867,178.47462c0.40966,-1.32906 1.81918,-2.07439 3.14824,-1.66474c1.32907,0.40966 2.07439,1.81918 1.66474,3.14825c-0.40966,1.32906 -1.81918,2.07439 -3.14825,1.66474c-1.32907,-0.40966 -2.07439,-1.81918 -1.66474,-3.14825z"/></g><g stroke="none" stroke-width="0"><path d="M249.53453,200.61433c0,0 0.76296,-1.38244 1.77607,-4.71813c0.3983,-1.31138 0.97589,-4.02321 1.3487,-5.41349c0.71842,-2.6791 1.01152,-5.45463 1.44333,-6.85558c0.66125,-2.14532 2.20662,-4.99208 2.20662,-4.99208l4.81298,1.48351c0,0 -0.43069,3.3792 -1.06919,5.45068c-0.42367,1.37454 -1.02422,3.74255 -1.91226,6.31106c-0.67321,1.94711 -0.92447,5.27264 -1.46652,7.01226c-0.79924,2.56495 -2.32671,3.20527 -2.32671,3.20527l-4.81298,-1.48351z"/><path d="M256.35867,178.47462c0.40966,-1.32906 1.81918,-2.07439 3.14824,-1.66474c1.32907,0.40966 2.07439,1.81918 1.66474,3.14825c-0.40966,1.32906 -1.81918,2.07439 -3.14825,1.66474c-1.32907,-0.40966 -2.07439,-1.81918 -1.66474,-3.14825z"/></g></g><g fill="#333333" stroke="#000000" stroke-width="0.5" stroke-linecap="butt"><path d="M231.85824,201.6872c0.22512,-0.32729 1.29417,-0.92124 2.09569,-0.84127c0.53734,0.05363 0.8339,0.67459 1.12461,0.89613c0.67121,0.51141 -0.11857,1.71502 -0.83684,1.46315c-0.429,-0.15044 -0.91303,-0.67921 -1.22177,-0.23039c-0.8256,1.20014 -0.23151,3.03555 -0.97373,2.52498c-0.74219,-0.51052 -1.01363,-2.61244 -0.18803,-3.81261z"/><path d="M235.8028,205.23664c0.91106,0.95047 1.37831,1.98105 1.04364,2.30184c-0.33465,0.32079 -1.34452,-0.18967 -2.25558,-1.14012c-0.91106,-0.95047 -1.3783,-1.98106 -1.04363,-2.30185c0.33465,-0.32079 1.34452,0.18967 2.25558,1.14013z"/><path d="M234.79219,207.09936c0.67492,1.13044 0.89934,2.23952 0.50129,2.47716c-0.39803,0.23763 -1.26785,-0.48612 -1.94277,-1.61654c-0.67492,-1.13045 -0.89937,-2.23952 -0.50134,-2.47713c0.39803,-0.23765 1.26784,0.48612 1.94276,1.61657z"/><path d="M233.13758,207.63139c0.58713,1.17844 0.7267,2.30137 0.31179,2.50811c-0.41492,0.20673 -1.22729,-0.58097 -1.81441,-1.75941c-0.58713,-1.17843 -0.72672,-2.30137 -0.31177,-2.50806c0.41492,-0.20673 1.22727,0.58101 1.81441,1.75941z"/><path d="M231.48806,208.09175c0.34078,1.27173 0.25402,2.39997 -0.19378,2.51997c-0.44778,0.11999 -1.08702,-0.81368 -1.4278,-2.0854c-0.34078,-1.27173 -0.25399,-2.39997 0.19379,-2.51994c0.44777,-0.11998 1.08704,0.81368 1.42781,2.0854z"/><path d="M232.18091,206.2614c-1.30293,0.64913 -2.9651,-0.0409 -3.71259,-1.5412c-0.7475,-1.50034 -0.29724,-3.2428 1.00564,-3.89191c1.30292,-0.64913 2.96507,0.0409 3.71258,1.54119c0.7475,1.50034 0.29723,3.24283 -1.00566,3.89194z"/></g><g fill="#333333" stroke="#000000" stroke-width="0.5" stroke-linecap="butt"><path d="M250.44511,200.99753c0.82559,1.20018 0.55416,3.30209 -0.18803,3.81261c-0.74222,0.51057 -0.14813,-1.32485 -0.97374,-2.52498c-0.30874,-0.44882 -0.79277,0.07995 -1.22177,0.23039c-0.71827,0.25187 -1.50805,-0.95174 -0.83684,-1.46314c0.29071,-0.22154 0.58727,-0.8425 1.12461,-0.89613c0.80152,-0.07997 1.87058,0.51398 2.09569,0.84127z"/><path d="M246.50044,204.54698c0.91106,-0.95047 1.92093,-1.46092 2.25559,-1.14013c0.33467,0.32079 -0.13258,1.35137 -1.04363,2.30185c-0.91106,0.95045 -1.92092,1.46091 -2.25557,1.14012c-0.33466,-0.3208 0.13259,-1.35137 1.04364,-2.30184z"/><path d="M247.51114,206.40977c0.67491,-1.13045 1.54472,-1.85422 1.94276,-1.61657c0.39803,0.23762 0.17357,1.34669 -0.50134,2.47713c-0.67491,1.13042 -1.54474,1.85416 -1.94277,1.61653c-0.39805,-0.23764 -0.17363,-1.34672 0.50129,-2.47716z"/><path d="M249.16567,206.94177c0.58713,-1.1784 1.39948,-1.96615 1.8144,-1.75941c0.41494,0.20669 0.27535,1.32964 -0.31177,2.50806c-0.58712,1.17845 -1.39948,1.96615 -1.8144,1.75941c-0.41491,-0.20673 -0.27534,-1.32967 0.31179,-2.50811z"/><path d="M250.81519,207.40212c0.34077,-1.27172 0.98003,-2.20538 1.42781,-2.0854c0.44778,0.11997 0.53457,1.2482 0.19379,2.51994c-0.34079,1.27173 -0.98003,2.20539 -1.42781,2.0854c-0.4478,-0.12 -0.53455,-1.24823 -0.19377,-2.51997z"/><path d="M250.12238,205.57177c-1.30289,-0.64911 -1.75317,-2.3916 -1.00567,-3.89194c0.74751,-1.5003 2.40966,-2.19033 3.71258,-1.54119c1.30289,0.64911 1.75315,2.39156 1.00565,3.8919c-0.74748,1.5003 -2.40966,2.19033 -3.71259,1.5412z"/></g><g><path d="M248.67059,145.27238c0,5.51672 -3.72056,9.98891 -8.3101,9.98891c-3.42606,0 -6.36788,-1.59677 -7.63924,-5.15518c-0.22954,-0.64246 -0.50281,-7.13145 -0.19408,-8.17664c1.14391,-3.87273 4.21918,-6.64599 7.83333,-6.64599c4.58954,0 8.3101,4.47219 8.3101,9.98891z" fill="#eda164" stroke="#000000" stroke-width="1" stroke-linecap="butt"/><path d="M244.92761,144.14141v3.29412" fill="none" stroke="#000000" stroke-width="2" stroke-linecap="round"/><path d="M240.33938,147.49436v-3.29412" fill="none" stroke="#000000" stroke-width="2" stroke-linecap="round"/><path d="M244.62192,151.56429l-0.40116,-0.00479c-1.46827,-0.24471 -2.92695,-0.06386 -4.40443,-0.06386c0,0 -0.35221,0 -0.35221,-0.35221c0,-0.35221 0.35221,-0.35221 0.35221,-0.35221c1.51778,0 3.01115,-0.17807 4.52024,0.07344l0.28535,-0.00479c0,0 0.35221,0 0.35221,0.35221c0,0.35221 -0.35221,0.35221 -0.35221,0.35221z" fill="#000000" stroke="none" stroke-width="0.5" stroke-linecap="butt"/></g><g fill="#1d2933" stroke-linecap="butt"><path d="M232.40746,147.24338c0,0 1.46085,0.27476 3.21157,0.96601c1.31411,0.51886 2.79153,1.45648 3.93706,1.67277c0.63977,0.12079 1.7695,-0.3963 2.9732,-0.55125c0.92289,-0.1188 2.15505,0.18449 2.85229,0.1914c1.99502,0.01977 2.66415,0.67368 2.66415,0.67368c0,0 -0.97352,2.40348 -3.05371,3.71904c-2.26501,1.43245 -5.70793,1.77633 -7.18846,1.4928c-1.35663,-0.25981 -4.39879,-2.18553 -5.43956,-4.24794c-0.94655,-1.8757 0.04347,-3.91652 0.04347,-3.91652z" stroke="#000000" stroke-width="1.5"/><path d="M232.40746,147.24338c0,0 1.46085,0.27476 3.21157,0.96601c1.31411,0.51886 2.79154,1.45648 3.93706,1.67276c0.63977,0.12079 1.7695,-0.39629 2.9732,-0.55124c0.92289,-0.11881 2.15505,0.18448 2.85229,0.1914c1.99501,0.01977 2.66414,0.67369 2.66414,0.67369c0,0 -0.97352,2.40347 -3.05372,3.71904c-2.26502,1.43246 -5.70793,1.77634 -7.18846,1.4928c-1.35663,-0.25981 -4.39879,-2.18553 -5.43956,-4.24794c-0.94655,-1.8757 0.04348,-3.91652 0.04348,-3.91652z" stroke="none" stroke-width="0"/></g><g fill="#333333" stroke-linecap="butt"><path d="M236.29344,143.21879c-1.84798,1.30507 0.76472,4.29819 -0.70788,6.01622c-1.42785,1.66583 -5.101,1.93443 -5.73196,-0.58939c-0.61861,-2.47442 -0.68027,-5.36754 -0.06024,-7.84766c1.49419,-5.97675 10.12952,-6.61245 14.84379,-5.42986c0.81353,0.20408 3.18899,1.38582 4.20108,3.23259c0.63284,1.15475 0.604,3.26657 0.604,3.41026c0,0.82843 -0.24989,1.1988 -1.07831,1.1988c-0.19305,0 -0.79926,-0.09671 -0.96876,-0.16313c-2.9838,0.47977 -8.44266,-1.70569 -11.10171,0.17218z" stroke="#000000" stroke-width="1.5"/><path d="M236.29344,143.21879c-1.84798,1.30507 0.76471,4.29819 -0.70789,6.01622c-1.42785,1.66583 -5.101,1.93444 -5.73196,-0.58939c-0.61861,-2.47442 -0.68027,-5.36754 -0.06024,-7.84767c1.49419,-5.97675 10.12951,-6.61245 14.84378,-5.42986c0.81354,0.20408 3.189,1.38583 4.20109,3.23259c0.63284,1.15474 0.604,3.26657 0.604,3.41026c0,0.82843 -0.24989,1.1988 -1.07832,1.1988c-0.19305,0 -0.79926,-0.09671 -0.96876,-0.16313c-2.9838,0.47976 -8.44266,-1.70569 -11.10171,0.17218z" stroke="none" stroke-width="0.5"/></g><g fill="#949494" stroke-linecap="butt"><path d="M236.18267,143.28946c0.06666,0.01666 0.13358,0.03595 0.2005,0.05773c0.53333,0.00979 0.99865,0.29794 1.25678,0.72528c0.85076,0.75577 1.2723,1.88899 0.26973,2.89156c-0.53858,0.53858 -2.72355,0.05383 -3.22126,0.01509c-1.7845,-0.13893 -7.97715,-3.32007 -5.11782,-5.22629c1.20841,-0.8056 5.14233,1.32787 6.60373,1.53664z" stroke="#000000" stroke-width="1.5"/><path d="M236.18267,143.28946c0.06666,0.01666 0.13359,0.03595 0.2005,0.05773c0.53333,0.00979 0.99864,0.29794 1.25678,0.72529c0.85076,0.75577 1.2723,1.88898 0.26973,2.89155c-0.53858,0.53858 -2.72355,0.05384 -3.22126,0.01509c-1.78449,-0.13893 -7.97715,-3.32007 -5.11782,-5.2263c1.2084,-0.80561 5.14233,1.32787 6.60373,1.53664z" stroke="none" stroke-width="0.5"/></g><g stroke-linecap="butt"><path d="M237.64432,143.07288l0.5,-0.125h0.37195l0.07859,-0.01965h0.12311l0.11943,-0.02986h0.15287l0.13672,-0.01051l0.15595,-0.03899h0.12442l0.07859,-0.01964h0.12311l0.11943,-0.02986h2.45951l0.00934,-0.00623l0.02803,0.00623h0.02787l0.19802,0.0495h0.34654l0.15595,0.03899l0.13672,0.01051h0.38465l0.00934,-0.00623l0.02804,0.00623h0.02787l0.19802,0.04951h0.57831l0.00935,-0.00623l0.02804,0.00623h0.02787l0.19802,0.0495h0.19802l0.11943,0.02986h0.12311l0.19802,0.0495l0.03683,0.01964h0.29895l0.00934,-0.00623l0.02804,0.00623h0.02786l0.18657,0.04665l0.00505,-0.00337l0.02804,0.00623h0.02786l0.18657,0.04665l0.00505,-0.00337l0.02804,0.00623h0.02786l0.19802,0.0495h0.24752l0.15595,0.03899l0.08213,0.00632l0.00305,-0.00203l0.01559,0.00346l0.03596,0.00277h0.00435l0.00194,0.00048l0.01727,0.00133l0.03585,0.01196l0.16787,0.04197l0.19476,0.04328h0.06163l0.00934,-0.00623l0.02804,0.00623h0.02787l0.22291,0.05573l0.2243,0.04985l0.02492,0.01246l0.02787,0.00697l0.00558,0.00975l0.16458,0.0823l0.22588,0.05647l0.01959,0.03429l0.03943,0.00219l0.33541,0.39131l0.16884,0.33768l0.00976,0.00557l0.00696,0.02786l0.01246,0.02492l0.04985,0.2243l0.0367,0.14682l0.01246,0.02492l0.04985,0.2243l0.05573,0.22292v0.02786l0.00623,0.02804l-0.00623,0.00934v1.07337l-0.03899,0.15595l-0.01233,0.16027l-0.04951,0.14852l-0.02531,0.03977l-0.02239,0.08955v0.13277l0.00623,0.00934l-0.00623,0.02804v0.02786l-0.05573,0.22292l-0.04985,0.2243l-0.01246,0.02492l-0.00697,0.02786l-0.00975,0.00557l-0.02033,0.04065l-0.05313,0.06199l-0.00277,0.04981l-0.15051,0.12901l-0.12901,0.1505l-0.02227,0.00124l-0.12624,0.14728l-0.03942,0.0022l-0.01959,0.03428l-0.04569,0.01143l-0.04381,0.05111l-0.04981,0.00277l-0.06199,0.05313l-0.04065,0.02032l-0.00557,0.00975l-0.02787,0.00697l-0.02492,0.01246l-0.2243,0.04985l-0.22291,0.05572h-0.02787l-0.02804,0.00623l-0.00934,-0.00623h-0.06951l-0.14308,0.0477l-0.16028,0.01233l-0.15595,0.03898h-0.74258l-0.15595,-0.03898l-0.16028,-0.01233l-0.14308,-0.0477h-0.02l-0.00934,0.00623l-0.02804,-0.00623h-0.02786l-0.22291,-0.05572l-0.2243,-0.04985l-0.02493,-0.01246l-0.02786,-0.00697l-0.00557,-0.00975l-0.01607,-0.00804l-0.04781,-0.01195l-0.2243,-0.04985l-0.02492,-0.01246l-0.02787,-0.00697l-0.00557,-0.00975l-0.06557,-0.03279l-0.22588,-0.05647l-0.01959,-0.03428l-0.03942,-0.0022l-0.17995,-0.20994l-0.03796,-0.02278l-0.01681,-0.00841l-0.00654,-0.00561l-0.05534,-0.0332l-0.01517,-0.01516l-0.03476,-0.00193l-0.12901,-0.1505l-0.1505,-0.12901l-0.00274,-0.04918l-0.0515,-0.01145l-0.02492,-0.01246l-0.02787,-0.00697l-0.00558,-0.00975l-0.21408,-0.10704l-0.02292,-0.00573h-0.04951l-0.22093,0.05523l-0.09124,0.04562l-0.11834,0.071l-0.01698,0.01081l-0.00111,0.01992l-0.07054,0.06046l-0.06046,0.07053l-0.01659,0.00092l-0.00092,0.0166l-0.07054,0.06046l-0.06045,0.07054l-0.02228,0.00124l-0.12624,0.14728l-0.04981,0.00277l-0.06199,0.05313l-0.02433,0.01216l-0.11139,0.12995l-0.04981,0.00277l-0.06199,0.05313l-1.12976,0.56488l-0.00557,0.00975l-0.02786,0.00697l-0.02492,0.01246l-0.2243,0.04985l-0.22292,0.05572h-0.02786l-0.02804,0.00623l-0.00934,-0.00623h-0.61208l-0.00935,0.00623l-0.02804,-0.00623h-0.02786l-0.22292,-0.05572l-0.2243,-0.04985l-0.02492,-0.01246l-0.02786,-0.00697l-0.00557,-0.00975l-0.04065,-0.02033l-0.06199,-0.05313l-0.04981,-0.00277l-0.04381,-0.05111l-0.04568,-0.01143l-0.03794,-0.06639l-0.0446,-0.02676l-0.1617,-0.03593l-0.02492,-0.01246l-0.02786,-0.00697l-0.00557,-0.00975l-0.23867,-0.11934l-0.12205,-0.10461l-0.05916,-0.03549l-0.11583,-0.05791l-0.12205,-0.10461l-0.05916,-0.0355l-0.01681,-0.0084l-0.00654,-0.00561l-0.05534,-0.0332l-0.01516,-0.01516l-0.03477,-0.00194l-0.11139,-0.12995l-0.02433,-0.01217l-0.06199,-0.05313l-0.04981,-0.00276l-0.129,-0.15051l-0.1505,-0.12901l-0.00277,-0.04981l-0.05313,-0.06199l-0.01217,-0.02433l-0.12995,-0.11139l-0.00277,-0.04981l-0.05313,-0.06199l-0.26785,-0.5357l-0.00975,-0.00557l-0.00696,-0.02786l-0.01246,-0.02492l-0.04985,-0.2243l-0.05573,-0.22291v-0.02786l-0.00623,-0.02804l0.00623,-0.00934v-0.65569l-0.00905,-0.04073l-0.03864,-0.06072l-0.02029,-0.06088l-0.00503,-0.00288l-0.00697,-0.02786l-0.01246,-0.02492l-0.04985,-0.2243l-0.01196,-0.04781l-0.00803,-0.01606l-0.00975,-0.00557l-0.00697,-0.02786l-0.01246,-0.02492l-0.04985,-0.2243l-0.05573,-0.22291v-0.02786l-0.00623,-0.02804l0.00623,-0.00935v-0.3803c0,-0.17045 0.04264,-0.33093 0.11784,-0.47137l0.00716,-0.02863l0.01318,-0.00753c0.17395,-0.29474 0.49479,-0.49247 0.86182,-0.49247c0.07409,0 0.1463,0.00806 0.2158,0.02335z" fill="url(#color-1)" stroke="#000000" stroke-width="1.5"/><path d="M237.64432,143.07288l0.5,-0.125h0.37194l0.07859,-0.01965h0.12311l0.11943,-0.02986h0.15287l0.13672,-0.01052l0.15595,-0.03899h0.12442l0.07859,-0.01965h0.12311l0.11943,-0.02986h2.4595l0.00935,-0.00623l0.02804,0.00623h0.02786l0.19802,0.0495h0.34653l0.15595,0.03899l0.13672,0.01052h0.38465l0.00935,-0.00623l0.02804,0.00623h0.02786l0.19802,0.0495h0.57832l0.00935,-0.00623l0.02804,0.00623h0.02786l0.19802,0.0495h0.19802l0.11943,0.02986h0.12311l0.19802,0.0495l0.03684,0.01965h0.29894l0.00935,-0.00623l0.02804,0.00623h0.02786l0.18657,0.04664l0.00505,-0.00337l0.02804,0.00623h0.02786l0.18657,0.04664l0.00505,-0.00337l0.02804,0.00623h0.02786l0.19802,0.0495h0.24752l0.15595,0.03899l0.08213,0.00632l0.00305,-0.00203l0.01559,0.00346l0.03596,0.00277h0.00435l0.00194,0.00048l0.01726,0.00133l0.03585,0.01195l0.16786,0.04197l0.19477,0.04328h0.06163l0.00935,-0.00623l0.02804,0.00623h0.02786l0.22291,0.05573l0.2243,0.04984l0.02492,0.01246l0.02786,0.00697l0.00557,0.00975l0.16458,0.08229l0.22588,0.05647l0.01959,0.03428l0.03943,0.00219l0.33541,0.39131l0.16884,0.33768l0.00975,0.00557l0.00697,0.02786l0.01246,0.02492l0.04984,0.2243l0.0367,0.14682l0.01246,0.02492l0.04984,0.2243l0.05573,0.22291v0.02786l0.00623,0.02804l-0.00623,0.00935v1.07337l-0.03899,0.15595l-0.01233,0.16028l-0.0495,0.14851l-0.02531,0.03977l-0.02239,0.08955v0.13277l0.00623,0.00935l-0.00623,0.02804v0.02786l-0.05573,0.22291l-0.04984,0.2243l-0.01246,0.02492l-0.00697,0.02786l-0.00975,0.00557l-0.02033,0.04065l-0.05313,0.06199l-0.00277,0.04981l-0.1505,0.129l-0.129,0.1505l-0.02228,0.00124l-0.12624,0.14728l-0.03943,0.00219l-0.01959,0.03428l-0.04569,0.01142l-0.04381,0.05111l-0.04981,0.00277l-0.06199,0.05313l-0.04065,0.02033l-0.00557,0.00975l-0.02786,0.00697l-0.02492,0.01246l-0.2243,0.04984l-0.22291,0.05573h-0.02786l-0.02804,0.00623l-0.00935,-0.00623h-0.0695l-0.14308,0.04769l-0.16028,0.01233l-0.15595,0.03899h-0.74257l-0.15595,-0.03899l-0.16028,-0.01233l-0.14308,-0.04769h-0.02l-0.00935,0.00623l-0.02804,-0.00623h-0.02786l-0.22291,-0.05573l-0.2243,-0.04984l-0.02492,-0.01246l-0.02786,-0.00697l-0.00557,-0.00975l-0.01607,-0.00803l-0.04781,-0.01195l-0.2243,-0.04984l-0.02492,-0.01246l-0.02786,-0.00697l-0.00557,-0.00975l-0.06557,-0.03279l-0.22588,-0.05647l-0.01959,-0.03428l-0.03943,-0.00219l-0.17995,-0.20994l-0.03797,-0.02278l-0.01682,-0.00841l-0.00654,-0.00561l-0.05533,-0.0332l-0.01516,-0.01516l-0.03477,-0.00193l-0.129,-0.1505l-0.1505,-0.129l-0.00273,-0.04918l-0.0515,-0.01144l-0.02492,-0.01246l-0.02786,-0.00697l-0.00557,-0.00975l-0.21409,-0.10704l-0.02291,-0.00573h-0.0495l-0.22093,0.05523l-0.09124,0.04562l-0.11834,0.071l-0.01698,0.01081l-0.00111,0.01992l-0.07054,0.06046l-0.06046,0.07054l-0.0166,0.00092l-0.00092,0.0166l-0.07054,0.06046l-0.06046,0.07054l-0.02228,0.00124l-0.12624,0.14728l-0.04981,0.00277l-0.06199,0.05313l-0.02434,0.01217l-0.11139,0.12995l-0.04981,0.00277l-0.06199,0.05313l-1.12976,0.56488l-0.00557,0.00975l-0.02786,0.00697l-0.02492,0.01246l-0.2243,0.04984l-0.22291,0.05573h-0.02786l-0.02804,0.00623l-0.00935,-0.00623h-0.61208l-0.00935,0.00623l-0.02804,-0.00623h-0.02786l-0.22291,-0.05573l-0.2243,-0.04984l-0.02492,-0.01246l-0.02786,-0.00697l-0.00557,-0.00975l-0.04065,-0.02033l-0.06199,-0.05313l-0.04981,-0.00277l-0.04381,-0.05111l-0.04569,-0.01142l-0.03794,-0.06639l-0.0446,-0.02676l-0.1617,-0.03593l-0.02492,-0.01246l-0.02786,-0.00697l-0.00557,-0.00975l-0.23867,-0.11934l-0.12205,-0.10461l-0.05915,-0.03549l-0.11583,-0.05791l-0.12205,-0.10461l-0.05915,-0.03549l-0.01682,-0.00841l-0.00654,-0.00561l-0.05533,-0.0332l-0.01516,-0.01516l-0.03477,-0.00193l-0.11139,-0.12995l-0.02434,-0.01217l-0.06199,-0.05313l-0.04981,-0.00277l-0.129,-0.1505l-0.1505,-0.129l-0.00277,-0.04981l-0.05313,-0.06199l-0.01217,-0.02434l-0.12995,-0.11139l-0.00277,-0.04981l-0.05313,-0.06199l-0.26785,-0.5357l-0.00975,-0.00557l-0.00697,-0.02786l-0.01246,-0.02492l-0.04984,-0.2243l-0.05573,-0.22291v-0.02786l-0.00623,-0.02804l0.00623,-0.00935v-0.65569l-0.00905,-0.04073l-0.03864,-0.06072l-0.02029,-0.06088l-0.00503,-0.00288l-0.00697,-0.02786l-0.01246,-0.02492l-0.04984,-0.2243l-0.01195,-0.04781l-0.00803,-0.01607l-0.00975,-0.00557l-0.00697,-0.02786l-0.01246,-0.02492l-0.04984,-0.2243l-0.05573,-0.22291v-0.02786l-0.00623,-0.02804l0.00623,-0.00935v-0.3803c0,-0.17045 0.04264,-0.33093 0.11784,-0.47137l0.00716,-0.02863l0.01318,-0.00753c0.17395,-0.29474 0.49479,-0.49247 0.86182,-0.49247c0.07409,0 0.1463,0.00806 0.2158,0.02334z" fill="url(#color-2)" stroke="none" stroke-width="0.5"/></g><g fill="#141414" stroke-linecap="butt"><path d="M240.36273,159.0198c-0.57969,1.4986 -4.05032,1.55272 -7.75186,0.12088c-3.70154,-1.43184 -6.2323,-3.80742 -5.65261,-5.30602c0.57969,-1.4986 4.05032,-1.55272 7.75186,-0.12088c3.70154,1.43184 6.2323,3.80742 5.65261,5.30602z" stroke="#000000" stroke-width="1.5"/><path d="M240.36272,159.0198c-0.57969,1.4986 -4.05031,1.55272 -7.75185,0.12089c-3.70154,-1.43184 -6.2323,-3.80742 -5.65261,-5.30602c0.57969,-1.4986 4.05032,-1.55272 7.75186,-0.12088c3.70154,1.43184 6.2323,3.80742 5.65261,5.30602z" stroke="none" stroke-width="0"/></g><g fill="#141414" stroke-linecap="butt"><path d="M242.8836,154.42155c3.70154,-1.43184 7.17216,-1.37772 7.75185,0.12088c0.57969,1.4986 -1.95106,3.87419 -5.6526,5.30603c-3.70154,1.43184 -7.17217,1.37771 -7.75186,-0.12089c-0.57969,-1.4986 1.95107,-3.87419 5.65261,-5.30602z" stroke="#000000" stroke-width="1.5"/><path d="M242.8836,154.42155c3.70154,-1.43184 7.17216,-1.37772 7.75185,0.12088c0.57969,1.4986 -1.95106,3.87419 -5.6526,5.30603c-3.70154,1.43184 -7.17217,1.37771 -7.75186,-0.12089c-0.57969,-1.4986 1.95107,-3.87419 5.65261,-5.30602z" stroke="none" stroke-width="0"/></g><path d="M240.34098,158.48906c-0.48937,0.51862 -0.22721,1.63191 -1.07006,1.84205c-0.53362,0.13304 -1.34836,0.06727 -2.10861,-0.10815c-0.85863,-0.19813 -1.63074,-0.27791 -1.99438,-0.62735c-0.64246,-0.61737 -0.03007,-2.49257 0.68105,-2.67035c0.18033,-0.57883 0.67838,-1.24194 1.30578,-1.28453c0.94917,-0.63278 4.25057,1.72038 3.18623,2.84833z" fill="#141414" stroke="none" stroke-width="0.5" stroke-linecap="butt"/><path d="M237.99257,159.8689l0.20001,-0.77699c0.37407,-0.95547 0.39646,-1.86989 0.46916,-2.88765c0,0 0.05344,-0.74809 0.80153,-0.69466c0.74809,0.05344 0.69466,0.80153 0.69466,0.80153c-0.0837,1.17184 -0.14579,2.21233 -0.56533,3.31925l-0.14482,0.60232c0,0 -0.03769,0.15077 -0.1474,0.29789c0.48733,0.24772 0.82121,0.75386 0.82121,1.33798c0,0.11452 -0.01283,0.22605 -0.03714,0.33321c0.59394,1.81051 0.03509,4.27168 0.03714,6.15595c0.00647,5.93372 1.41935,11.90799 1.49123,17.8968c0.02609,2.17411 0.25127,4.03231 -0.24608,6.0217c-0.14296,0.57184 -1.4897,1.1951 -2.10018,0.84626c-1.49673,-0.85528 -0.64561,-6.66691 -0.68298,-6.89719c-0.48489,-2.98803 -0.54599,-6.33708 -0.5848,-9.37647c-0.03585,-2.80743 -0.88385,-5.60337 -0.87719,-8.41146c0.00423,-1.78345 0.08356,-2.92779 0.08772,-4.37788c0.0002,-0.06969 -0.09517,-1.15316 -0.07442,-1.99032c-0.00877,-0.06562 -0.0133,-0.13258 -0.0133,-0.20059c0,-0.15655 0.02398,-0.3075 0.06847,-0.44937c0.1365,-0.43528 0.46606,-0.78514 0.88835,-0.94926c-0.16834,-0.27107 -0.08584,-0.60105 -0.08584,-0.60105z" fill="#333333" stroke="none" stroke-width="0.5" stroke-linecap="butt"/></g></g></g></svg>