<svg version="1.1" xmlns="http://www.w3.org/2000/svg" xmlns:xlink="http://www.w3.org/1999/xlink" width="72.1039" height="93.43041" viewBox="0,0,72.1039,93.43041"><defs><linearGradient x1="240" y1="138.03086" x2="240" y2="221.96914" gradientUnits="userSpaceOnUse" id="color-1"><stop offset="0" stop-color="#e2a820"/><stop offset="1" stop-color="#cc741d"/></linearGradient><linearGradient x1="240" y1="169.94463" x2="240" y2="221.96914" gradientUnits="userSpaceOnUse" id="color-2"><stop offset="0" stop-color="#cc741d" stop-opacity="0"/><stop offset="1" stop-color="#cc741d"/></linearGradient><linearGradient x1="240" y1="169.94463" x2="240" y2="221.96914" gradientUnits="userSpaceOnUse" id="color-3"><stop offset="0" stop-color="#cc741d" stop-opacity="0"/><stop offset="1" stop-color="#cc741d"/></linearGradient><linearGradient x1="240" y1="169.94463" x2="240" y2="221.96914" gradientUnits="userSpaceOnUse" id="color-4"><stop offset="0" stop-color="#cc741d" stop-opacity="0"/><stop offset="1" stop-color="#cc741d"/></linearGradient><linearGradient x1="240" y1="168.65847" x2="240" y2="220.68298" gradientUnits="userSpaceOnUse" id="color-5"><stop offset="0" stop-color="#cc741d" stop-opacity="0"/><stop offset="1" stop-color="#cc741d"/></linearGradient><linearGradient x1="240" y1="168.65847" x2="240" y2="220.68298" gradientUnits="userSpaceOnUse" id="color-6"><stop offset="0" stop-color="#cc741d" stop-opacity="0"/><stop offset="1" stop-color="#cc741d"/></linearGradient></defs><g transform="translate(-203.94805,-133.28478)"><g stroke-miterlimit="10"><path d="M213.01943,221.96914c-1.65685,0 -3,-1.34315 -3,-3v-77.93828c0,-1.65685 1.34315,-3 3,-3h53.96114c1.65685,0 3,1.34315 3,3v77.93828c0,1.65685 -1.34315,3 -3,3z" fill="#9763ff" stroke="#000000" stroke-width="4" stroke-linecap="butt"/><path d="M213.01943,221.96914c-1.65685,0 -3,-1.34315 -3,-3v-77.93828c0,-1.65685 1.34315,-3 3,-3h53.96114c1.65685,0 3,1.34315 3,3v77.93828c0,1.65685 -1.34315,3 -3,3z" fill="url(#color-1)" stroke="#000000" stroke-width="0" stroke-linecap="butt"/><g stroke="#000000" stroke-width="2"><path d="M223.1424,217.13528l-5.60455,-35.46364l32.37562,-5.11653l6.154,38.94039z" fill="#ffffff" stroke-linecap="butt"/><path d="M259.35472,195.28468c-5.44798,0.86098 -10.56241,-2.85752 -11.42339,-8.30551c-0.86098,-5.44798 2.85752,-10.56241 8.30551,-11.42339c5.44798,-0.86098 10.56241,2.85752 11.42339,8.30551c0.86098,5.44798 -2.85752,10.56241 -8.30551,11.42339z" fill="#ffffff" stroke-linecap="butt"/><path d="M267.38314,201.79345c-4.74952,0.7506 -9.20825,-2.49117 -9.95885,-7.2407c-0.7506,-4.74952 2.49117,-9.20825 7.2407,-9.95885c2.17466,-0.34368 6.01307,1.24141 6.01307,1.24141l-0.2185,14.85304c0,0 -1.9562,0.92807 -3.07642,1.10511z" fill="#ffffff" stroke-linecap="butt"/><path d="M209.50001,182.80846c0,0 1.70803,-0.65498 2.64627,-0.80326c5.44799,-0.86098 10.56241,2.85752 11.42339,8.30551c0.86098,5.44798 -2.85752,10.56241 -8.30551,11.42339c-0.85812,0.13561 -1.99418,0.01232 -3.05138,-0.1854c-1.60103,-0.29943 -3.02119,-0.76954 -3.02119,-0.76954z" fill="#ffffff" stroke-linecap="butt"/><path d="M209.1863,192.90821c0,0 7.05948,3.43778 7.68851,7.41806c0.7506,4.74952 -2.49117,9.20825 -7.2407,9.95885c-0.27613,0.04364 -0.35966,0.09092 -0.35966,0.09092z" fill="#ffffff" stroke-linecap="butt"/><path d="M232.17777,152.91432c7.54336,-1.19213 14.66067,4.18305 15.89695,12.0058c1.23628,7.82275 -3.87662,15.13074 -11.41999,16.32287c-7.54336,1.19213 -14.66067,-4.18305 -15.89695,-12.0058c-1.23628,-7.82275 3.87662,-15.13074 11.41999,-16.32287z" fill="#ffffff" stroke-linecap="butt"/><path d="M243.57429,159.40931l1.03929,6.5763" fill="none" stroke-linecap="round"/><path d="M238.94152,159.62295l1.59892,10.11738" fill="none" stroke-linecap="round"/><path d="M248.12575,148.83845l-7.88026,5.9119l-7.69554,-6.04287" fill="none" stroke-linecap="round"/><path d="M246.69081,169.28685l-6.01668,4.58038l-7.29581,-3.51353" fill="none" stroke-linecap="round"/></g><path d="M212.51943,221.96914c-1.38071,0 -2.5,-1.11929 -2.5,-2.5v-47.02451c0,-1.38071 1.11929,-2.5 2.5,-2.5h54.96114c1.38071,0 2.5,1.11929 2.5,2.5v47.02451c0,1.38071 -1.11929,2.5 -2.5,2.5z" fill="url(#color-2)" stroke="none" stroke-width="0" stroke-linecap="butt"/><path d="M212.51943,221.96914c-1.38071,0 -2.5,-1.11929 -2.5,-2.5v-47.02451c0,-1.38071 1.11929,-2.5 2.5,-2.5h54.96114c1.38071,0 2.5,1.11929 2.5,2.5v47.02451c0,1.38071 -1.11929,2.5 -2.5,2.5z" fill="url(#color-3)" stroke="none" stroke-width="0" stroke-linecap="butt"/><path d="M212.51943,221.96914c-1.38071,0 -2.5,-1.11929 -2.5,-2.5v-47.02451c0,-1.38071 1.11929,-2.5 2.5,-2.5h54.96114c1.38071,0 2.5,1.11929 2.5,2.5v47.02451c0,1.38071 -1.11929,2.5 -2.5,2.5z" fill="url(#color-4)" stroke="none" stroke-width="0" stroke-linecap="butt"/><g stroke="none" stroke-linecap="butt"><path d="M212.51943,220.68298c-1.38071,0 -2.5,-1.11929 -2.5,-2.5v-47.02451c0,-1.38071 1.11929,-2.5 2.5,-2.5h54.96114c1.38071,0 2.5,1.11929 2.5,2.5v47.02451c0,1.38071 -1.11929,2.5 -2.5,2.5z" fill="url(#color-5)" stroke-width="0"/><path d="M242.84149,222.29773l27.3738,-34.37208v4.78895l-23.5599,29.58313zM252.69006,222.29773l17.52524,-22.00568v4.78895l-13.71134,17.21672zM261.74237,222.29773l8.47293,-10.63908v4.78895l-4.65902,5.85014zM209.7847,148.40736l8.5255,-10.70509h3.8139l-12.3394,15.49405zM209.7847,160.77377l18.37406,-23.0715h3.81391l-22.18797,27.86046z" fill="#000000" stroke-width="NaN"/></g><g stroke="none" stroke-linecap="butt"><path d="M212.51943,220.68298c-1.38071,0 -2.5,-1.11929 -2.5,-2.5v-47.02451c0,-1.38071 1.11929,-2.5 2.5,-2.5h54.96114c1.38071,0 2.5,1.11929 2.5,2.5v47.02451c0,1.38071 -1.11929,2.5 -2.5,2.5z" fill="url(#color-6)" stroke-width="0"/><path d="M242.84149,222.29773l27.3738,-34.37208v4.78895l-23.5599,29.58313zM252.69006,222.29773l17.52524,-22.00568v4.78895l-13.71134,17.21672zM261.74237,222.29773l8.47293,-10.63908v4.78895l-4.65902,5.85014zM209.7847,148.40736l8.5255,-10.70509h3.8139l-12.3394,15.49405zM209.7847,160.77377l18.37406,-23.0715h3.81391l-22.18797,27.86046z" fill="#000000" stroke-width="NaN"/></g><path d="M214.07078,221.72212l0.26613,-1.63154l-1.12736,-1.15546l1.55798,-0.23804l0.69675,-1.48442l0.69675,1.48442l1.55798,0.23804l-1.12736,1.15546l0.26613,1.63154l-1.3935,-0.77031z" fill="#000000" stroke="none" stroke-width="0" stroke-linecap="butt"/><path d="M219.24056,221.72212l0.26613,-1.63154l-1.12736,-1.15546l1.55798,-0.23804l0.69675,-1.48442l0.69675,1.48442l1.55798,0.23804l-1.12737,1.15546l0.26614,1.63154l-1.3935,-0.77031z" fill="#000000" stroke="none" stroke-width="0" stroke-linecap="butt"/><path d="M224.45301,221.72212l0.26613,-1.63154l-1.12736,-1.15546l1.55798,-0.23804l0.69675,-1.48442l0.69675,1.48442l1.55798,0.23804l-1.12737,1.15546l0.26614,1.63154l-1.3935,-0.77031z" fill="#000000" stroke="none" stroke-width="0" stroke-linecap="butt"/><path d="M229.65681,221.76306l0.26613,-1.63154l-1.12736,-1.15546l1.55798,-0.23804l0.69675,-1.48442l0.69675,1.48442l1.55798,0.23804l-1.12737,1.15546l0.26614,1.63154l-1.3935,-0.77031z" fill="#000000" stroke="none" stroke-width="0" stroke-linecap="butt"/><text transform="translate(240.71404,141.71091) scale(0.09461,0.09461)" font-size="40" xml:space="preserve" fill="#000000" stroke="none" stroke-width="1" stroke-linecap="butt" font-family="Sans Serif" font-weight="normal" text-anchor="start"><tspan x="0" dy="0">Core Collection</tspan></text><text transform="translate(234.28388,221.37117) scale(0.0984,0.0984)" font-size="40" xml:space="preserve" fill="#000000" stroke="none" stroke-width="1" stroke-linecap="butt" font-family="Sans Serif" font-weight="normal" text-anchor="start"><tspan x="0" dy="0">27/27</tspan></text><text transform="translate(212.18295,205.12683) rotate(-8.44038) scale(0.27575,0.27575)" font-size="40" xml:space="preserve" fill="#481500" stroke="none" stroke-width="1" stroke-linecap="butt" font-family="Marker" font-weight="normal" text-anchor="start"><tspan x="0" dy="0">Buff Guy</tspan></text><path d="M203.94805,226.7152v-93.43041h72.1039v93.43041z" fill="none" stroke="none" stroke-width="0" stroke-linecap="butt"/></g></g></svg>