<svg viewBox="0,0,54.87399,90.30758" height="90.30758" width="54.87399" xmlns:xlink="http://www.w3.org/1999/xlink" xmlns="http://www.w3.org/2000/svg" version="1.1"><g transform="translate(-213.66992,-142.51008)"><g style="mix-blend-mode: normal" stroke-dashoffset="0" stroke-dasharray="" stroke-miterlimit="10" stroke-linejoin="miter" stroke-linecap="butt" stroke-width="2.5" stroke="#000000" fill-rule="nonzero" data-paper-data="{&quot;isPaintingLayer&quot;:true}"><path fill="#ff0000" data-paper-data="{&quot;index&quot;:null}" d="M214.91992,198.88326v-34.21439h14.25599v34.21439z"></path><path fill="#ff0000" data-paper-data="{&quot;index&quot;:null}" d="M267.29391,221.66317c0,9.97294 -3.62374,8.39192 -7.82288,8.39192c-4.19913,0 -7.38352,1.58102 -7.38352,-8.39192c0,-5.18953 -1.23327,-13.39415 0.24259,-16.68799c1.36037,-3.03608 5.34653,-2.15324 7.3606,-2.15324c2.07714,0 5.72293,-1.15634 7.0952,2.05011c1.4019,3.27568 0.508,11.7514 0.508,16.79113z"></path><path fill="#ff0000" data-paper-data="{&quot;index&quot;:null}" d="M234.72786,225.20416c-3.98899,9.14043 -6.67786,6.24196 -10.52646,4.56238c-3.8486,-1.67957 -7.39955,-1.50423 -3.41055,-10.64466c2.07572,-4.75632 4.22709,-12.76933 6.89723,-15.1979c2.46119,-2.23851 5.76148,0.16502 7.60742,0.97061c1.90375,0.83082 5.70771,1.22925 5.68291,4.71692c-0.02534,3.56297 -4.23475,10.97363 -6.25055,15.59265z"></path><path fill="#ff0000" data-paper-data="{&quot;index&quot;:null}" d="M264.34071,186.98134c0,23.87044 -9.94276,20.40044 -21.62159,20.40044c-11.67883,0 -20.67119,3.47001 -20.67119,-20.40044c0,-23.87044 9.46756,-43.22126 21.14639,-43.22126c11.67883,0 21.14639,19.35082 21.14639,43.22126z"></path><path fill="#00ffe5" data-paper-data="{&quot;index&quot;:null}" d="M241.53111,172.27207v-10.9296c0,0 6.02722,-6.49917 9.26212,-6.49917c3.25932,0 10.22107,6.49917 10.22107,6.49917v10.9296c0,0 -5.81265,-4.46818 -9.00248,-4.46818c-3.30077,0 -10.48071,4.46818 -10.48071,4.46818z"></path></g></g></svg>