<svg version="1.1" xmlns="http://www.w3.org/2000/svg" xmlns:xlink="http://www.w3.org/1999/xlink" width="63.96114" height="87.93828" viewBox="0,0,63.96114,87.93828"><defs><linearGradient x1="240" y1="138.03086" x2="240" y2="221.96914" gradientUnits="userSpaceOnUse" id="color-1"><stop offset="0" stop-color="#e2a820"/><stop offset="1" stop-color="#cc741d"/></linearGradient><linearGradient x1="240" y1="169.94463" x2="240" y2="221.96914" gradientUnits="userSpaceOnUse" id="color-2"><stop offset="0" stop-color="#cc741d" stop-opacity="0"/><stop offset="1" stop-color="#cc741d"/></linearGradient><linearGradient x1="240" y1="169.94463" x2="240" y2="221.96914" gradientUnits="userSpaceOnUse" id="color-3"><stop offset="0" stop-color="#cc741d" stop-opacity="0"/><stop offset="1" stop-color="#cc741d"/></linearGradient><linearGradient x1="240" y1="169.94463" x2="240" y2="221.96914" gradientUnits="userSpaceOnUse" id="color-4"><stop offset="0" stop-color="#cc741d" stop-opacity="0"/><stop offset="1" stop-color="#cc741d"/></linearGradient><linearGradient x1="240" y1="168.65847" x2="240" y2="220.68298" gradientUnits="userSpaceOnUse" id="color-5"><stop offset="0" stop-color="#cc741d" stop-opacity="0"/><stop offset="1" stop-color="#cc741d"/></linearGradient></defs><g transform="translate(-208.01943,-136.03086)"><g stroke-miterlimit="10"><path d="M213.01943,221.96914c-1.65685,0 -3,-1.34315 -3,-3v-77.93828c0,-1.65685 1.34315,-3 3,-3h53.96114c1.65685,0 3,1.34315 3,3v77.93828c0,1.65685 -1.34315,3 -3,3z" fill="#9763ff" stroke="#000000" stroke-width="4"/><path d="M213.01943,221.96914c-1.65685,0 -3,-1.34315 -3,-3v-77.93828c0,-1.65685 1.34315,-3 3,-3h53.96114c1.65685,0 3,1.34315 3,3v77.93828c0,1.65685 -1.34315,3 -3,3z" fill="url(#color-1)" stroke="#000000" stroke-width="0"/><path d="M212.51943,221.96914c-1.38071,0 -2.5,-1.11929 -2.5,-2.5v-47.02451c0,-1.38071 1.11929,-2.5 2.5,-2.5h54.96114c1.38071,0 2.5,1.11929 2.5,2.5v47.02451c0,1.38071 -1.11929,2.5 -2.5,2.5z" fill="url(#color-2)" stroke="none" stroke-width="0"/><path d="M212.51943,221.96914c-1.38071,0 -2.5,-1.11929 -2.5,-2.5v-47.02451c0,-1.38071 1.11929,-2.5 2.5,-2.5h54.96114c1.38071,0 2.5,1.11929 2.5,2.5v47.02451c0,1.38071 -1.11929,2.5 -2.5,2.5z" fill="url(#color-3)" stroke="none" stroke-width="0"/><path d="M212.51943,221.96914c-1.38071,0 -2.5,-1.11929 -2.5,-2.5v-47.02451c0,-1.38071 1.11929,-2.5 2.5,-2.5h54.96114c1.38071,0 2.5,1.11929 2.5,2.5v47.02451c0,1.38071 -1.11929,2.5 -2.5,2.5z" fill="url(#color-4)" stroke="none" stroke-width="0"/><g stroke="none"><path d="M212.51943,220.68298c-1.38071,0 -2.5,-1.11929 -2.5,-2.5v-47.02451c0,-1.38071 1.11929,-2.5 2.5,-2.5h54.96114c1.38071,0 2.5,1.11929 2.5,2.5v47.02451c0,1.38071 -1.11929,2.5 -2.5,2.5z" fill="url(#color-5)" stroke-width="0"/><path d="M242.84149,222.29773l27.3738,-34.37208v4.78895l-23.5599,29.58313zM252.69006,222.29773l17.52524,-22.00568v4.78895l-13.71134,17.21672zM261.74237,222.29773l8.47293,-10.63908v4.78895l-4.65902,5.85014zM209.7847,148.40736l8.5255,-10.70509h3.8139l-12.3394,15.49405zM209.7847,160.77377l18.37406,-23.0715h3.81391l-22.18797,27.86046z" fill="#000000" stroke-width="NaN"/></g><path d="M214.07078,221.72212l0.26613,-1.63154l-1.12736,-1.15546l1.55798,-0.23804l0.69675,-1.48442l0.69675,1.48442l1.55798,0.23804l-1.12736,1.15546l0.26613,1.63154l-1.3935,-0.77031z" fill="#000000" stroke="none" stroke-width="0"/><path d="M219.24056,221.72212l0.26613,-1.63154l-1.12736,-1.15546l1.55798,-0.23804l0.69675,-1.48442l0.69675,1.48442l1.55798,0.23804l-1.12737,1.15546l0.26614,1.63154l-1.3935,-0.77031z" fill="#000000" stroke="none" stroke-width="0"/><path d="M224.45301,221.72212l0.26613,-1.63154l-1.12736,-1.15546l1.55798,-0.23804l0.69675,-1.48442l0.69675,1.48442l1.55798,0.23804l-1.12737,1.15546l0.26614,1.63154l-1.3935,-0.77031z" fill="#000000" stroke="none" stroke-width="0"/><path d="M229.65681,221.76306l0.26613,-1.63154l-1.12736,-1.15546l1.55798,-0.23804l0.69675,-1.48442l0.69675,1.48442l1.55798,0.23804l-1.12737,1.15546l0.26614,1.63154l-1.3935,-0.77031z" fill="#000000" stroke="none" stroke-width="0"/><text transform="translate(214.10642,210.0065) rotate(-8.43948) scale(0.4003,0.4003)" font-size="40" xml:space="preserve" fill="#481500" stroke="none" stroke-width="1" font-family="Marker" font-weight="normal" text-anchor="start"><tspan x="0" dy="0">Name</tspan></text><text transform="translate(248.8911,141.71091) scale(0.09461,0.09461)" font-size="40" xml:space="preserve" fill="#000000" stroke="none" stroke-width="1" font-family="Sans Serif" font-weight="normal" text-anchor="start"><tspan x="0" dy="0">Collection</tspan></text><text transform="translate(234.28388,221.37117) scale(0.0984,0.0984)" font-size="40" xml:space="preserve" fill="#000000" stroke="none" stroke-width="1" font-family="Sans Serif" font-weight="normal" text-anchor="start"><tspan x="0" dy="0">0/0</tspan></text></g></g></svg>