<svg version="1.1" xmlns="http://www.w3.org/2000/svg" xmlns:xlink="http://www.w3.org/1999/xlink" width="63.96114" height="87.93828" viewBox="0,0,63.96114,87.93828"><defs><linearGradient x1="240" y1="138.03086" x2="240" y2="221.96914" gradientUnits="userSpaceOnUse" id="color-1"><stop offset="0" stop-color="#e2a820"/><stop offset="1" stop-color="#cc741d"/></linearGradient><linearGradient x1="240" y1="169.94463" x2="240" y2="221.96914" gradientUnits="userSpaceOnUse" id="color-2"><stop offset="0" stop-color="#cc741d" stop-opacity="0"/><stop offset="1" stop-color="#cc741d"/></linearGradient><linearGradient x1="240" y1="169.94463" x2="240" y2="221.96914" gradientUnits="userSpaceOnUse" id="color-3"><stop offset="0" stop-color="#cc741d" stop-opacity="0"/><stop offset="1" stop-color="#cc741d"/></linearGradient><linearGradient x1="240" y1="169.94463" x2="240" y2="221.96914" gradientUnits="userSpaceOnUse" id="color-4"><stop offset="0" stop-color="#cc741d" stop-opacity="0"/><stop offset="1" stop-color="#cc741d"/></linearGradient><linearGradient x1="240" y1="168.65847" x2="240" y2="220.68298" gradientUnits="userSpaceOnUse" id="color-5"><stop offset="0" stop-color="#cc741d" stop-opacity="0"/><stop offset="1" stop-color="#cc741d"/></linearGradient><linearGradient x1="240" y1="168.65847" x2="240" y2="220.68298" gradientUnits="userSpaceOnUse" id="color-6"><stop offset="0" stop-color="#cc741d" stop-opacity="0"/><stop offset="1" stop-color="#cc741d"/></linearGradient></defs><g transform="translate(-208.01943,-136.03086)"><g stroke-miterlimit="10"><path d="M213.01943,221.96914c-1.65685,0 -3,-1.34315 -3,-3v-77.93828c0,-1.65685 1.34315,-3 3,-3h53.96114c1.65685,0 3,1.34315 3,3v77.93828c0,1.65685 -1.34315,3 -3,3z" fill="#9763ff" stroke="#000000" stroke-width="4" stroke-linecap="butt"/><path d="M213.01943,221.96914c-1.65685,0 -3,-1.34315 -3,-3v-77.93828c0,-1.65685 1.34315,-3 3,-3h53.96114c1.65685,0 3,1.34315 3,3v77.93828c0,1.65685 -1.34315,3 -3,3z" fill="url(#color-1)" stroke="#000000" stroke-width="0" stroke-linecap="butt"/><g stroke="#000000" stroke-width="2.5"><path d="M248.50261,189.46035c1.07026,11.35221 -2.08023,20.9338 -7.0368,21.40109c-4.95657,0.46729 -9.84228,-8.35668 -10.91253,-19.70888c-1.07026,-11.35221 2.08023,-20.9338 7.0368,-21.40109c4.95657,-0.46729 9.84228,8.35668 10.91253,19.70888z" fill="#1c1c1c" stroke-linecap="butt"/><path d="M234.64312,182.41638c0.25523,2.7073 -1.05398,4.6295 -3.6382,4.87314c-2.58424,0.24364 -1.55264,-9.74475 1.0316,-9.98839c2.58424,-0.24364 2.35137,2.40796 2.60661,5.11525z" fill="#999999" stroke-linecap="butt"/><path d="M243.59498,159.10321c1.32082,5.97417 -0.91049,11.54724 -4.9838,12.4478c-4.07331,0.90056 -8.4461,-3.21241 -9.76692,-9.18658c-1.32082,-5.97417 0.91049,-11.54725 4.9838,-12.44781c4.07331,-0.90056 8.4461,3.21242 9.76692,9.18659z" fill="#ffffff" stroke-linecap="butt"/><path d="M242.14217,152.81781c0.83527,3.61285 -2.07958,2.54819 -6.415,3.55052c-2.67686,0.61889 -4.79945,1.64105 -6.22834,1.48214c-0.61095,-0.06795 -5.75282,2.29931 -8.31998,2.15087c-0.81032,-0.04685 -1.33752,-1.83962 -1.41908,-2.10808c-0.03447,-0.11347 7.94461,-1.94799 7.91519,-2.07524c-0.05638,-0.24383 -0.09864,-0.48607 -0.12714,-0.72613c-0.39376,-3.31687 1.84335,-6.21738 5.88617,-7.15206c4.33542,-1.00233 7.87292,1.26514 8.70819,4.87799z" fill="#181818" stroke-linecap="butt"/><path d="M235.3708,160.43901l0.31502,4.67451" fill="none" stroke-linecap="round"/><path d="M240.11719,159.71702l0.31503,4.67451" fill="none" stroke-linecap="round"/><path d="M244.36013,175.44935c2.58424,-0.24364 5.46443,9.37596 2.88019,9.6196c-2.58424,0.24364 -4.22963,-1.40002 -4.48486,-4.10732c-0.25523,-2.70729 -0.97957,-5.26864 1.60467,-5.51228z" fill="#999999" stroke-linecap="butt"/><path d="M258.03804,192.64114c3.39963,10.29977 4.22874,19.28537 1.85187,20.06991c-2.37687,0.78453 -7.05964,-6.92909 -10.45928,-17.22886c-3.39962,-10.29977 -4.22874,-19.28537 -1.85188,-20.06991c2.37687,-0.78453 7.05965,6.92909 10.45928,17.22886z" fill="#999999" stroke-linecap="butt"/><path d="M232.00049,197.39205c-0.47055,10.83612 -2.87918,19.53248 -5.37982,19.4239c-2.50064,-0.10859 -4.14635,-8.98102 -3.6758,-19.81713c0.47055,-10.83612 2.87917,-19.53248 5.37981,-19.42389c2.50064,0.10859 4.14635,8.98101 3.6758,19.81713z" fill="#999999" stroke-linecap="butt"/><path d="M241.10042,209.67105l-3.5123,-37.25501" fill="none" stroke-linecap="round"/></g><path d="M212.51943,221.96914c-1.38071,0 -2.5,-1.11929 -2.5,-2.5v-47.02451c0,-1.38071 1.11929,-2.5 2.5,-2.5h54.96114c1.38071,0 2.5,1.11929 2.5,2.5v47.02451c0,1.38071 -1.11929,2.5 -2.5,2.5z" fill="url(#color-2)" stroke="none" stroke-width="0" stroke-linecap="butt"/><path d="M212.51943,221.96914c-1.38071,0 -2.5,-1.11929 -2.5,-2.5v-47.02451c0,-1.38071 1.11929,-2.5 2.5,-2.5h54.96114c1.38071,0 2.5,1.11929 2.5,2.5v47.02451c0,1.38071 -1.11929,2.5 -2.5,2.5z" fill="url(#color-3)" stroke="none" stroke-width="0" stroke-linecap="butt"/><path d="M212.51943,221.96914c-1.38071,0 -2.5,-1.11929 -2.5,-2.5v-47.02451c0,-1.38071 1.11929,-2.5 2.5,-2.5h54.96114c1.38071,0 2.5,1.11929 2.5,2.5v47.02451c0,1.38071 -1.11929,2.5 -2.5,2.5z" fill="url(#color-4)" stroke="none" stroke-width="0" stroke-linecap="butt"/><g stroke="none" stroke-linecap="butt"><path d="M212.51943,220.68298c-1.38071,0 -2.5,-1.11929 -2.5,-2.5v-47.02451c0,-1.38071 1.11929,-2.5 2.5,-2.5h54.96114c1.38071,0 2.5,1.11929 2.5,2.5v47.02451c0,1.38071 -1.11929,2.5 -2.5,2.5z" fill="url(#color-5)" stroke-width="0"/><path d="M242.84149,222.29773l27.3738,-34.37208v4.78895l-23.5599,29.58313zM252.69006,222.29773l17.52524,-22.00568v4.78895l-13.71134,17.21672zM261.74237,222.29773l8.47293,-10.63908v4.78895l-4.65902,5.85014zM209.7847,148.40736l8.5255,-10.70509h3.8139l-12.3394,15.49405zM209.7847,160.77377l18.37406,-23.0715h3.81391l-22.18797,27.86046z" fill="#000000" stroke-width="NaN"/></g><g stroke="none" stroke-linecap="butt"><path d="M212.51943,220.68298c-1.38071,0 -2.5,-1.11929 -2.5,-2.5v-47.02451c0,-1.38071 1.11929,-2.5 2.5,-2.5h54.96114c1.38071,0 2.5,1.11929 2.5,2.5v47.02451c0,1.38071 -1.11929,2.5 -2.5,2.5z" fill="url(#color-6)" stroke-width="0"/><path d="M242.84149,222.29773l27.3738,-34.37208v4.78895l-23.5599,29.58313zM252.69006,222.29773l17.52524,-22.00568v4.78895l-13.71134,17.21672zM261.74237,222.29773l8.47293,-10.63908v4.78895l-4.65902,5.85014zM209.7847,148.40736l8.5255,-10.70509h3.8139l-12.3394,15.49405zM209.7847,160.77377l18.37406,-23.0715h3.81391l-22.18797,27.86046z" fill="#000000" stroke-width="NaN"/></g><path d="M214.07078,221.72212l0.26613,-1.63154l-1.12736,-1.15546l1.55798,-0.23804l0.69675,-1.48442l0.69675,1.48442l1.55798,0.23804l-1.12736,1.15546l0.26613,1.63154l-1.3935,-0.77031z" fill="#000000" stroke="none" stroke-width="0" stroke-linecap="butt"/><path d="M219.24056,221.72212l0.26613,-1.63154l-1.12736,-1.15546l1.55798,-0.23804l0.69675,-1.48442l0.69675,1.48442l1.55798,0.23804l-1.12737,1.15546l0.26614,1.63154l-1.3935,-0.77031z" fill="#000000" stroke="none" stroke-width="0" stroke-linecap="butt"/><path d="M224.45301,221.72212l0.26613,-1.63154l-1.12736,-1.15546l1.55798,-0.23804l0.69675,-1.48442l0.69675,1.48442l1.55798,0.23804l-1.12737,1.15546l0.26614,1.63154l-1.3935,-0.77031z" fill="#000000" stroke="none" stroke-width="0" stroke-linecap="butt"/><path d="M229.65681,221.76306l0.26613,-1.63154l-1.12736,-1.15546l1.55798,-0.23804l0.69675,-1.48442l0.69675,1.48442l1.55798,0.23804l-1.12737,1.15546l0.26614,1.63154l-1.3935,-0.77031z" fill="#000000" stroke="none" stroke-width="0" stroke-linecap="butt"/><text transform="translate(240.71404,141.71091) scale(0.09461,0.09461)" font-size="40" xml:space="preserve" fill="#000000" stroke="none" stroke-width="1" stroke-linecap="butt" font-family="Sans Serif" font-weight="normal" text-anchor="start"><tspan x="0" dy="0">Core Collection</tspan></text><text transform="translate(234.28388,221.37117) scale(0.0984,0.0984)" font-size="40" xml:space="preserve" fill="#000000" stroke="none" stroke-width="1" stroke-linecap="butt" font-family="Sans Serif" font-weight="normal" text-anchor="start"><tspan x="0" dy="0">24/27</tspan></text><text transform="translate(213.36048,205.65401) rotate(-8.44038) scale(0.30383,0.30383)" font-size="40" xml:space="preserve" fill="#481500" stroke="none" stroke-width="1" stroke-linecap="butt" font-family="Marker" font-weight="normal" text-anchor="start"><tspan x="0" dy="0">DJ Tyler</tspan></text></g></g></svg>