<svg version="1.1" xmlns="http://www.w3.org/2000/svg" xmlns:xlink="http://www.w3.org/1999/xlink" width="63.96114" height="87.93828" viewBox="0,0,63.96114,87.93828"><defs><linearGradient x1="240" y1="138.03086" x2="240" y2="221.96914" gradientUnits="userSpaceOnUse" id="color-1"><stop offset="0" stop-color="#e2a820"/><stop offset="1" stop-color="#cc741d"/></linearGradient><linearGradient x1="240" y1="169.94463" x2="240" y2="221.96914" gradientUnits="userSpaceOnUse" id="color-2"><stop offset="0" stop-color="#cc741d" stop-opacity="0"/><stop offset="1" stop-color="#cc741d"/></linearGradient><linearGradient x1="240" y1="169.94463" x2="240" y2="221.96914" gradientUnits="userSpaceOnUse" id="color-3"><stop offset="0" stop-color="#cc741d" stop-opacity="0"/><stop offset="1" stop-color="#cc741d"/></linearGradient><linearGradient x1="240" y1="169.94463" x2="240" y2="221.96914" gradientUnits="userSpaceOnUse" id="color-4"><stop offset="0" stop-color="#cc741d" stop-opacity="0"/><stop offset="1" stop-color="#cc741d"/></linearGradient><linearGradient x1="240" y1="168.65847" x2="240" y2="220.68298" gradientUnits="userSpaceOnUse" id="color-5"><stop offset="0" stop-color="#cc741d" stop-opacity="0"/><stop offset="1" stop-color="#cc741d"/></linearGradient></defs><g transform="translate(-208.01943,-136.03086)"><g stroke-miterlimit="10"><path d="M213.01943,221.96914c-1.65685,0 -3,-1.34315 -3,-3v-77.93828c0,-1.65685 1.34315,-3 3,-3h53.96114c1.65685,0 3,1.34315 3,3v77.93828c0,1.65685 -1.34315,3 -3,3z" fill="#9763ff" stroke="#000000" stroke-width="4" stroke-linecap="butt"/><path d="M213.01943,221.96914c-1.65685,0 -3,-1.34315 -3,-3v-77.93828c0,-1.65685 1.34315,-3 3,-3h53.96114c1.65685,0 3,1.34315 3,3v77.93828c0,1.65685 -1.34315,3 -3,3z" fill="url(#color-1)" stroke="#000000" stroke-width="0" stroke-linecap="butt"/><g><path d="M223.21045,167.15882c-0.9685,-8.91722 5.47522,-16.93118 14.39244,-17.89968c8.91722,-0.9685 16.93117,5.47521 17.89967,14.39244c0.9685,8.91722 -5.47521,16.93118 -14.39243,17.89968c-8.91722,0.9685 -16.93118,-5.47521 -17.89968,-14.39244z" fill="#b7b7b7" stroke="#000000" stroke-width="2.5" stroke-linecap="butt"/><path d="M225.25179,167.64235c-0.31456,-2.89624 0.24607,-5.68888 1.47263,-8.12179c2.19922,-4.3622 6.5393,-7.56793 11.81402,-8.14082c8.21658,-0.8924 15.58966,4.94174 16.46822,13.03094c0.87857,8.08919 -5.07006,15.37021 -13.28664,16.26261c-8.21658,0.8924 -15.58966,-4.94175 -16.46822,-13.03094z" fill="#ffffff" stroke="#000000" stroke-width="0" stroke-linecap="butt"/><path d="M225.43756,158.15442c0,0 -4.35602,-10.69665 -1.63522,-8.44554c3.59152,2.97151 10.71747,-4.55656 21.7424,-2.36144c11.02492,2.19512 5.3195,6.01122 5.3195,6.01122z" fill="#000000" stroke="none" stroke-width="0" stroke-linecap="butt"/><path d="M224.41709,156.35919c-0.60674,0.0659 -0.67264,-0.54084 -0.67264,-0.54084l0.04218,-0.0159c-0.89974,-1.71279 -0.96282,-3.74436 -1.4803,-5.59018c0,0 -0.13407,-0.47821 0.27106,-0.69279c0.00549,-0.07248 0.02566,-0.15216 0.06582,-0.2392c0.25566,-0.55418 0.80984,-0.29852 0.80984,-0.29852c3.21358,1.49431 7.10263,0.00884 10.16096,-1.16836c0.76211,-0.29334 1.47784,-0.2951 2.23768,-0.60969c1.77357,-0.49461 3.40328,-0.22421 5.20819,-0.21758c1.25743,0.00463 2.41161,-0.21202 3.64019,0.12303l0.29762,0.10824c0,0 0.57215,0.21239 0.35976,0.78455c-0.21239,0.57215 -0.78455,0.35976 -0.78455,0.35976l-0.20112,-0.07691c-1.09238,-0.31407 -2.19609,-0.0746 -3.32176,-0.07809c-1.65075,-0.00511 -3.18296,-0.30538 -4.80288,0.15179c-0.73664,0.29518 -1.46116,0.29897 -2.1792,0.58798c-3.16902,1.27552 -7.07403,2.59095 -10.46536,1.40931c0.37897,1.62202 0.47618,3.41767 1.26183,4.87361l0.09356,0.45715c0,0 0.0659,0.60674 -0.54084,0.67264z" fill="#2d2d2d" stroke="none" stroke-width="0.5" stroke-linecap="butt"/><path d="M238.54869,193.56758l-1.21252,-11.16401l6.31009,-0.68534l1.21252,11.16401z" fill="#ffffff" stroke="#000000" stroke-width="2.5" stroke-linecap="butt"/><path d="M231.94783,218.66059l-3.64843,-33.59204c0,0 7.32332,-1.52854 8.97879,1.34282c0.74242,1.28772 2.75806,0.65656 3.88461,0.5342c1.75141,-0.19022 2.51011,0.25441 4.25307,-1.71153c2.9206,-3.29423 9.25591,-3.02979 9.25591,-3.02979l3.64843,33.59204z" fill="#dcdcdc" stroke="#1b1b1b" stroke-width="1.5" stroke-linecap="butt"/><path d="M244.12672,214.54703l-3.14338,-27.43465" fill="none" stroke="#515151" stroke-width="2.5" stroke-linecap="round"/><path d="M227.80045,215.66026l-3.47894,-29.31837c0,0 0.50388,-0.64407 0.75292,-0.67112c0.61453,-0.06674 3.19638,-0.34716 3.19638,-0.34716l3.25096,29.93247z" fill="#dcdcdc" stroke="#1b1b1b" stroke-width="1.5" stroke-linecap="butt"/><path d="M258.46797,213.14799l-3.47894,-29.31837c0,0 0.50388,-0.64407 0.75292,-0.67112c0.61453,-0.06674 3.19638,-0.34716 3.19638,-0.34716l3.25096,29.93247z" fill="#dcdcdc" stroke="#1b1b1b" stroke-width="1.5" stroke-linecap="butt"/><path d="M235.74635,164.39703c0.31822,2.92994 -0.4565,5.41729 -1.73039,5.55565c-1.27389,0.13836 -2.56454,-2.12468 -2.88277,-5.05461c-0.31822,-2.92994 0.4565,-5.41729 1.73039,-5.55565c1.27389,-0.13836 2.56454,2.12467 2.88277,5.05461z" fill="#000000" stroke="none" stroke-width="0" stroke-linecap="butt"/><path d="M246.28446,163.60767c0.31822,2.92994 -0.4565,5.41729 -1.73039,5.55565c-1.27389,0.13836 -2.56454,-2.12468 -2.88277,-5.05461c-0.31822,-2.92994 0.4565,-5.41729 1.73039,-5.55565c1.27389,-0.13836 2.56454,2.12468 2.88277,5.05461z" fill="#000000" stroke="none" stroke-width="0" stroke-linecap="butt"/><path d="M240.35915,172.7506c0.0659,0.60674 -0.54084,0.67264 -0.54084,0.67264l-0.49246,0.04513c-2.55257,0.71562 -5.15842,0.68826 -7.77303,0.97224c0,0 -0.60674,0.0659 -0.67264,-0.54084c-0.0659,-0.60674 0.54084,-0.67264 0.54084,-0.67264c2.54517,-0.27643 5.09181,-0.2378 7.57532,-0.93407l0.69016,-0.08331c0,0 0.60674,-0.0659 0.67264,0.54084z" fill="#000000" stroke="none" stroke-width="0.5" stroke-linecap="butt"/></g><path d="M212.51943,221.96914c-1.38071,0 -2.5,-1.11929 -2.5,-2.5v-47.02451c0,-1.38071 1.11929,-2.5 2.5,-2.5h54.96114c1.38071,0 2.5,1.11929 2.5,2.5v47.02451c0,1.38071 -1.11929,2.5 -2.5,2.5z" fill="url(#color-2)" stroke="none" stroke-width="0" stroke-linecap="butt"/><path d="M212.51943,221.96914c-1.38071,0 -2.5,-1.11929 -2.5,-2.5v-47.02451c0,-1.38071 1.11929,-2.5 2.5,-2.5h54.96114c1.38071,0 2.5,1.11929 2.5,2.5v47.02451c0,1.38071 -1.11929,2.5 -2.5,2.5z" fill="url(#color-3)" stroke="none" stroke-width="0" stroke-linecap="butt"/><path d="M212.51943,221.96914c-1.38071,0 -2.5,-1.11929 -2.5,-2.5v-47.02451c0,-1.38071 1.11929,-2.5 2.5,-2.5h54.96114c1.38071,0 2.5,1.11929 2.5,2.5v47.02451c0,1.38071 -1.11929,2.5 -2.5,2.5z" fill="url(#color-4)" stroke="none" stroke-width="0" stroke-linecap="butt"/><g stroke="none" stroke-linecap="butt"><path d="M212.51943,220.68298c-1.38071,0 -2.5,-1.11929 -2.5,-2.5v-47.02451c0,-1.38071 1.11929,-2.5 2.5,-2.5h54.96114c1.38071,0 2.5,1.11929 2.5,2.5v47.02451c0,1.38071 -1.11929,2.5 -2.5,2.5z" fill="url(#color-5)" stroke-width="0"/><path d="M242.84149,222.29773l27.3738,-34.37208v4.78895l-23.5599,29.58313zM252.69006,222.29773l17.52524,-22.00568v4.78895l-13.71134,17.21672zM261.74237,222.29773l8.47293,-10.63908v4.78895l-4.65902,5.85014zM209.7847,148.40736l8.5255,-10.70509h3.8139l-12.3394,15.49405zM209.7847,160.77377l18.37406,-23.0715h3.81391l-22.18797,27.86046z" fill="#000000" stroke-width="NaN"/></g><path d="M214.07078,221.72212l0.26613,-1.63154l-1.12736,-1.15546l1.55798,-0.23804l0.69675,-1.48442l0.69675,1.48442l1.55798,0.23804l-1.12736,1.15546l0.26613,1.63154l-1.3935,-0.77031z" fill="#000000" stroke="none" stroke-width="0" stroke-linecap="butt"/><path d="M219.24056,221.72212l0.26613,-1.63154l-1.12736,-1.15546l1.55798,-0.23804l0.69675,-1.48442l0.69675,1.48442l1.55798,0.23804l-1.12737,1.15546l0.26614,1.63154l-1.3935,-0.77031z" fill="#000000" stroke="none" stroke-width="0" stroke-linecap="butt"/><path d="M224.45301,221.72212l0.26613,-1.63154l-1.12736,-1.15546l1.55798,-0.23804l0.69675,-1.48442l0.69675,1.48442l1.55798,0.23804l-1.12737,1.15546l0.26614,1.63154l-1.3935,-0.77031z" fill="#000000" stroke="none" stroke-width="0" stroke-linecap="butt"/><path d="M229.65681,221.76306l0.26613,-1.63154l-1.12736,-1.15546l1.55798,-0.23804l0.69675,-1.48442l0.69675,1.48442l1.55798,0.23804l-1.12737,1.15546l0.26614,1.63154l-1.3935,-0.77031z" fill="#000000" stroke="none" stroke-width="0" stroke-linecap="butt"/><text transform="translate(212.53991,198.0365) rotate(-8.4395) scale(0.26209,0.26209)" font-size="40" xml:space="preserve" fill="#481500" stroke="none" stroke-width="1" stroke-linecap="butt" font-family="Marker" font-weight="normal" text-anchor="start"><tspan x="0" dy="0">Classic</tspan></text><text transform="translate(240.71404,141.71091) scale(0.09461,0.09461)" font-size="40" xml:space="preserve" fill="#000000" stroke="none" stroke-width="1" stroke-linecap="butt" font-family="Sans Serif" font-weight="normal" text-anchor="start"><tspan x="0" dy="0">Core Collection</tspan></text><text transform="translate(234.28388,221.37117) scale(0.0984,0.0984)" font-size="40" xml:space="preserve" fill="#000000" stroke="none" stroke-width="1" stroke-linecap="butt" font-family="Sans Serif" font-weight="normal" text-anchor="start"><tspan x="0" dy="0">22/27</tspan></text><text transform="translate(227.07015,209.79594) rotate(-8.4395) scale(0.4003,0.4003)" font-size="40" xml:space="preserve" fill="#481500" stroke="none" stroke-width="1" stroke-linecap="butt" font-family="Marker" font-weight="normal" text-anchor="start"><tspan x="0" dy="0">Axl</tspan></text></g></g></svg>