<svg version="1.1" xmlns="http://www.w3.org/2000/svg" xmlns:xlink="http://www.w3.org/1999/xlink" width="27.41281" height="104.5278" viewBox="0,0,27.41281,104.5278"><g transform="translate(-226.29636,-127.70672)"><g stroke="#000000" stroke-width="2.5" stroke-miterlimit="10"><path d="M252.45917,179.62342c0,11.0457 -4.2533,20 -9.5,20c-5.2467,0 -9.5,-8.9543 -9.5,-20c0,-11.0457 4.2533,-20 9.5,-20c5.2467,0 9.5,8.9543 9.5,20z" fill="#00ffcd" stroke-linecap="butt"/><g stroke-linecap="butt"><path d="M246.46087,175.43063c-0.6158,5.7662 -2.8958,10.2505 -5.0924,10.0159c-2.1966,-0.2346 -3.4782,-5.0992 -2.8624,-10.8654c0.6159,-5.7662 2.8958,-10.2504 5.0924,-10.0159c2.1967,0.2346 3.4782,5.0992 2.8624,10.8654z" fill="#00ffcd"/><path d="M244.99186,189.18583c-0.2542,2.3797 -2.2409,4.1186 -4.4376,3.884c-2.1966,-0.2346 -3.7713,-2.3539 -3.5172,-4.7336c0.2542,-2.3797 2.2409,-4.1186 4.4376,-3.884c2.1966,0.2346 3.7713,2.3539 3.5172,4.7336z" fill="#ffc400"/></g><g stroke-linecap="butt"><path d="M249.04287,209.52473c0.6994,9.9165 -1.8598,18.1759 -5.7162,18.4479c-3.8564,0.2721 -7.5497,-7.5463 -8.2491,-17.4628c-0.6995,-9.9165 1.8597,-18.1759 5.7162,-18.4479c3.8564,-0.272 7.5496,7.5464 8.2491,17.4628z" fill="#0048ff"/><path d="M248.82676,225.41272c0.1879,2.6627 -4.4237,5.1573 -10.3001,5.5718c-5.8765,0.4145 -10.7925,-1.4081 -10.9803,-4.0709c-0.1878,-2.6627 4.4237,-5.1573 10.3001,-5.5718c5.8765,-0.4145 10.7925,1.4081 10.9803,4.0709z" fill="#000000"/></g><path d="M252.45917,146.62342c0,7.5478 -4.7756,13.6666 -10.6667,13.6666c-5.891,0 -10.6666,-6.1187 -10.6666,-13.6666c0,-7.5479 4.7756,-13.6667 10.6666,-13.6667c5.8911,0 10.6667,6.1188 10.6667,13.6667z" fill="#ffc400" stroke-linecap="butt"/><path d="M235.79247,141.62342l0.3334,9.6666" fill="none" stroke-linecap="round"/><path d="M252.12586,135.12342c0,3.4057 -4.1787,6.1666 -9.3333,6.1666c-5.1547,0 -9.3334,-2.7609 -9.3334,-6.1666c0,-3.4058 4.1787,-6.1667 9.3334,-6.1667c5.1546,0 9.3333,2.7609 9.3333,6.1667z" fill="#8e6d00" stroke-linecap="butt"/></g></g></svg>