<svg version="1.1" xmlns="http://www.w3.org/2000/svg" xmlns:xlink="http://www.w3.org/1999/xlink" width="493.33333" height="295.71486" viewBox="0,0,493.33333,295.71486"><defs><linearGradient x1="240.92751" y1="0.00001" x2="240.92751" y2="62.27395" gradientUnits="userSpaceOnUse" id="color-1"><stop offset="0" stop-color="#636363" stop-opacity="0.74902"/><stop offset="1" stop-color="#ababab" stop-opacity="0.50196"/></linearGradient><linearGradient x1="424.62619" y1="22.33417" x2="436.14792" y2="22.33417" gradientUnits="userSpaceOnUse" id="color-2"><stop offset="0" stop-color="#ebda85"/><stop offset="1" stop-color="#b0a236"/></linearGradient><linearGradient x1="314.52831" y1="30.24816" x2="382.20722" y2="30.24816" gradientUnits="userSpaceOnUse" id="color-3"><stop offset="0" stop-color="#ffffff" stop-opacity="0"/><stop offset="0.49292" stop-color="#ffffff" stop-opacity="0.25098"/><stop offset="1" stop-color="#ffffff" stop-opacity="0"/></linearGradient><linearGradient x1="20.63803" y1="77.14221" x2="144.6498" y2="77.14221" gradientUnits="userSpaceOnUse" id="color-4"><stop offset="0" stop-color="#ffffff" stop-opacity="0.25098"/><stop offset="1" stop-color="#ffffff" stop-opacity="0"/></linearGradient><linearGradient x1="268.79841" y1="45.48232" x2="281.84476" y2="45.48232" gradientUnits="userSpaceOnUse" id="color-5"><stop offset="0" stop-color="#ebda85"/><stop offset="1" stop-color="#b0a236"/></linearGradient><linearGradient x1="137.94686" y1="214.96861" x2="342.05314" y2="214.96861" gradientUnits="userSpaceOnUse" id="color-6"><stop offset="0" stop-color="#eb3636" stop-opacity="0.50196"/><stop offset="1" stop-color="#eb2a2a" stop-opacity="0.50196"/></linearGradient><linearGradient x1="137.94686" y1="214.96861" x2="342.05314" y2="214.96861" gradientUnits="userSpaceOnUse" id="color-7"><stop offset="0" stop-color="#e88d8d"/><stop offset="0.49057" stop-color="#eb3737"/><stop offset="1" stop-color="#e88d8d"/></linearGradient><linearGradient x1="137.94686" y1="273.79996" x2="342.05314" y2="273.79996" gradientUnits="userSpaceOnUse" id="color-8"><stop offset="0" stop-color="#eb3737"/><stop offset="1" stop-color="#eb2b2b"/></linearGradient><linearGradient x1="137.94686" y1="273.79996" x2="342.05314" y2="273.79996" gradientUnits="userSpaceOnUse" id="color-9"><stop offset="0" stop-color="#e88d8d"/><stop offset="0.49057" stop-color="#eb3737"/><stop offset="1" stop-color="#e88d8d"/></linearGradient><linearGradient x1="137.94686" y1="158.50563" x2="342.05314" y2="158.50563" gradientUnits="userSpaceOnUse" id="color-10"><stop offset="0" stop-color="#404040"/><stop offset="0.49057" stop-color="#2b2b2b"/><stop offset="1" stop-color="#404040"/></linearGradient></defs><g transform="translate(5.73919,-0.00001)"><g stroke-miterlimit="10"><path d="M-5.73918,62.27395v-62.27393h493.33333v62.27393z" fill="url(#color-1)" stroke="none" stroke-width="0" stroke-linecap="butt"/><text transform="translate(154.65535,35.65463) scale(0.39157,0.39157)" font-size="40" xml:space="preserve" fill="#f1f1f1" stroke="none" stroke-width="1" stroke-linecap="butt" font-family="&quot;HeadingNowTrial-63Book&quot;, Sans Serif" font-weight="normal" text-anchor="start"><tspan x="0" dy="0">INVENTORY</tspan></text><path d="M145.15894,20.61502v21.0439" fill="none" stroke-opacity="0.74902" stroke="#e0e0e0" stroke-width="1" stroke-linecap="round"/><path d="M244.76675,20.61503v21.04391" fill="none" stroke-opacity="0.74902" stroke="#e0e0e0" stroke-width="1" stroke-linecap="round"/><text transform="translate(90.66894,35.65463) scale(0.39157,0.39157)" font-size="40" xml:space="preserve" fill="#f1f1f1" stroke="none" stroke-width="1" stroke-linecap="butt" font-family="&quot;HeadingNowTrial-63Book&quot;, Sans Serif" font-weight="normal" text-anchor="start"><tspan x="0" dy="0">STORE</tspan></text><text transform="translate(254.16904,35.65462) scale(0.39157,0.39157)" font-size="40" xml:space="preserve" fill="#f1f1f1" stroke="none" stroke-width="1" stroke-linecap="butt" font-family="&quot;HeadingNowTrial-63Book&quot;, Sans Serif" font-weight="normal" text-anchor="start"><tspan x="0" dy="0">NEWS</tspan></text><path d="M305.11316,20.61503v21.04391" fill="none" stroke-opacity="0.74902" stroke="#e0e0e0" stroke-width="1" stroke-linecap="round"/><text transform="translate(314.52831,35.65462) scale(0.39157,0.39157)" font-size="40" xml:space="preserve" fill="#f1f1f1" stroke="none" stroke-width="1" stroke-linecap="butt" font-family="&quot;HeadingNowTrial-63Book&quot;, Sans Serif" font-weight="normal" text-anchor="start"><tspan x="0" dy="0">SETTINGS</tspan></text><path d="M80.60586,41.65892v-21.0439" fill="none" stroke-opacity="0.74902" stroke="#e0e0e0" stroke-width="1" stroke-linecap="round"/><path d="M80.62431,20.61502v21.0439" fill="none" stroke-opacity="0.74902" stroke="#e0e0e0" stroke-width="1" stroke-linecap="round"/><text transform="translate(12.3355,35.65462) scale(0.39157,0.39157)" font-size="40" xml:space="preserve" fill="#f1f1f1" stroke="none" stroke-width="1" stroke-linecap="butt" font-family="&quot;HeadingNowTrial-63Book&quot;, Sans Serif" font-weight="normal" text-anchor="start"><tspan x="0" dy="0">MARKET</tspan></text><path d="M391.02085,62.27394v-62.27393h89.95238v62.27394z" fill-opacity="0.74902" fill="#636363" stroke="none" stroke-width="0" stroke-linecap="butt"/><path d="M430.38706,16.5733l5.76087,11.52174h-11.52174z" fill="url(#color-2)" stroke="none" stroke-width="0" stroke-linecap="butt"/><path d="M400.0293,51.65077h71.93548" fill="none" stroke="#052700" stroke-width="5" stroke-linecap="round"/><path d="M441.6422,51.65077h-41.6129" fill="none" stroke="#42b533" stroke-width="5" stroke-linecap="round"/><text transform="translate(400.16711,47.16394) scale(0.1988,0.1988)" font-size="40" xml:space="preserve" fill="#42b533" stroke="none" stroke-width="1" stroke-linecap="butt" font-family="Sans Serif" font-weight="normal" text-anchor="start"><tspan x="0" dy="0">1000/1000</tspan></text><text transform="translate(438.31824,25.67227) scale(0.19881,0.19881)" font-size="40" xml:space="preserve" fill="#b0a236" stroke="none" stroke-width="1" stroke-linecap="butt" font-family="Sans Serif" font-weight="normal" text-anchor="start"><tspan x="0" dy="0">1,000,000</tspan></text><path d="M396.32865,33.37985v-25h25v25z" fill="#555555" stroke="none" stroke-width="0" stroke-linecap="butt"/><path d="M398.30668,31.40181v-21.04392h21.04392v21.04392z" fill="#8a8a8a" stroke="none" stroke-width="0" stroke-linecap="butt"/><path d="M314.52831,38.56978v-16.64323h67.67895v16.64323z" fill="url(#color-3)" stroke="none" stroke-width="0" stroke-linecap="butt"/><text transform="translate(27.26271,83.90346) scale(0.43842,0.43842)" font-size="40" xml:space="preserve" fill="#f1f1f1" stroke="none" stroke-width="1" stroke-linecap="butt" font-family="&quot;HeadingNowTrial-63Book&quot;, Sans Serif" font-weight="normal" text-anchor="start"><tspan x="0" dy="0">Settings</tspan></text><path d="M20.63803,87.66416v-21.0439h124.01179v21.0439z" fill="url(#color-4)" stroke="none" stroke-width="0" stroke-linecap="butt"/><g stroke="none" stroke-linecap="butt"><path d="M271.29841,52.00548c-1.38071,0 -2.5,-1.11929 -2.5,-2.5v-8.04631c0,-1.38071 1.11929,-2.5 2.5,-2.5h8.04631c1.38071,0 2.5,1.11929 2.5,2.5v8.04631c0,1.38071 -1.11929,2.5 -2.5,2.5z" fill="url(#color-5)" stroke-width="0"/><text transform="translate(277.21792,50.31996) rotate(-180) scale(0.34605,-0.34605)" font-size="40" xml:space="preserve" fill="#303030" stroke-width="1" font-family="Sans Serif" font-weight="normal" text-anchor="start"><tspan x="0" dy="0">!</tspan></text></g><path d="M156.76113,236.63351c-10.39084,0 -18.81426,-8.42342 -18.81426,-18.81426v-5.7013c0,-10.39084 8.42342,-18.81426 18.81426,-18.81426h166.47774c10.39084,0 18.81426,8.42342 18.81426,18.81426v5.7013c0,10.39084 -8.42342,18.81426 -18.81426,18.81426z" fill="url(#color-6)" stroke="url(#color-7)" stroke-width="0.5" stroke-linecap="butt"/><text transform="translate(179.1219,224.20655) scale(0.76983,0.76983)" font-size="40" xml:space="preserve" fill="#ffffff" stroke="none" stroke-width="1" stroke-linecap="butt" font-family="Sans Serif" font-weight="normal" text-anchor="start"><tspan x="0" dy="0">Sign out</tspan></text><path d="M156.76113,295.46487c-10.39084,0 -18.81426,-8.42342 -18.81426,-18.81426v-5.7013c0,-10.39084 8.42342,-18.81426 18.81426,-18.81426h166.47774c10.39084,0 18.81426,8.42342 18.81426,18.81426v5.7013c0,10.39084 -8.42342,18.81426 -18.81426,18.81426z" fill="url(#color-8)" stroke="url(#color-9)" stroke-width="0.5" stroke-linecap="butt"/><text transform="translate(154.29564,280.89273) scale(0.59106,0.59106)" font-size="40" xml:space="preserve" fill="#ffffff" stroke="none" stroke-width="1" stroke-linecap="butt" font-family="Sans Serif" font-weight="normal" text-anchor="start"><tspan x="0" dy="0">Delete Account</tspan></text><path d="M156.76113,180.17056c-10.39084,0 -18.81426,-8.42342 -18.81426,-18.81426v-5.7013c0,-10.39084 8.42342,-18.81426 18.81426,-18.81426h166.47774c10.39084,0 18.81426,8.42342 18.81426,18.81426v5.7013c0,10.39084 -8.42342,18.81426 -18.81426,18.81426z" fill="#2b2b2b" stroke="url(#color-10)" stroke-width="0.5" stroke-linecap="butt"/><text transform="translate(189.20666,167.7436) scale(0.76983,0.76983)" font-size="40" xml:space="preserve" fill="#ffffff" stroke="none" stroke-width="1" stroke-linecap="butt" font-family="Sans Serif" font-weight="normal" text-anchor="start"><tspan x="0" dy="0">Option</tspan></text></g></g></svg>