<svg version="1.1" xmlns="http://www.w3.org/2000/svg" xmlns:xlink="http://www.w3.org/1999/xlink" width="48.01763" height="102.92506" viewBox="0,0,48.01763,102.92506"><g transform="translate(-214.94753,-129.99358)"><g stroke-miterlimit="10"><g fill="#2e2012" stroke-linecap="butt"><path d="M234.16765,147.17531h0.05763l0.05798,-0.01558l0.01933,0.01558h1.26714l0.39581,0.11962l0.15257,-0.0503l0.22786,0.16527l0.23377,0.07065l0.22882,-0.0922l0.02464,-0.00229l0.02115,-0.01545l0.91136,-0.33899l0.02144,-0.00138l0.0186,-0.01298l0.49073,-0.16949l0.16121,-0.0065l0.15042,-0.07039l0.56083,-0.08475l0.00521,0.00077l0.00491,-0.00226l1.7526,-0.25423l0.12458,0.019l0.12182,-0.03681h0.35052l0.16769,0.05068l0.1723,-0.01667l0.23125,0.04659l0.01419,-0.01144l0.05799,0.01558h0.05763l0.461,0.13932l0.11231,0.03017h0.19783l1.03403,0.3125l0.04051,0.08571l0.08154,0.00548l0.69366,0.97828l0.07986,0.19308l0.02017,0.01393l0.0144,0.06966l0.02577,0.0623l0.10309,0.56076l0.11525,0.55728v0.06966l0.01288,0.07009l-0.01288,0.02337v1.96189l0.01288,0.02336l-0.01288,0.0701v0.06966l-0.06692,0.32357l0.00797,0.01926l-0.03984,0.13485l-0.01646,0.07959l-0.10309,0.56076l-0.02577,0.06231l-0.0144,0.06966l-0.02017,0.01394l-0.00976,0.02359l-0.08505,0.11995l-0.04395,0.14878l-0.14021,0.25423l-0.64137,0.70484l-0.04534,0.09591l-0.05785,0.01748l-0.04412,0.04849l-0.09117,-0.0076l-0.8409,0.25413h-0.07538l-0.01933,0.01558l-0.05109,-0.01373l-0.00042,0.00025l-0.01153,0.02438l-0.05763,0.01741l-0.05154,0.03116l-0.46387,0.12461l-0.461,0.13932h-0.05763l-0.05798,0.01558l-0.01933,-0.01558h-0.03676l-0.0743,0.10479l-0.03165,0.00213l-0.18759,0.15118l-0.12306,0.05313l-0.09922,0.10281l-0.01952,0.0118l-0.01153,0.02438l-0.05763,0.01741l-0.05154,0.03115l-0.46388,0.12462l-0.06584,0.0199l-0.11155,0.04816l-0.01594,-0.00964l-0.26766,0.08089h-0.05763l-0.05799,0.01557l-0.01933,-0.01557h-0.28569l-0.28042,-0.08474h-0.03983l-0.00478,0.00385l-0.05471,0.02362l-0.01784,0.01373l-0.05773,0.02326l-0.09201,0.09534l-0.01951,0.01179l-0.01153,0.02439l-0.05763,0.01741l-0.05154,0.03115l-0.46387,0.12461l-0.06584,0.0199l-0.11155,0.04816l-0.01594,-0.00964l-0.26766,0.0809h-0.05763l-0.05799,0.01557l-0.01933,-0.01557h-0.50127l-0.01933,0.01557l-0.05799,-0.01557h-0.05763l-0.23326,-0.0705l-0.00164,0.00133l-0.05799,-0.01558h-0.05763l-0.461,-0.13932l-0.25416,-0.06827l-0.12609,0.03811h-0.05763l-0.05799,0.01557l-0.01933,-0.01557h-0.71158l-0.01933,0.01557l-0.05799,-0.01557h-0.05763l-0.46099,-0.13932l-0.46387,-0.12461l-0.05155,-0.03115l-0.05763,-0.01741l-0.01152,-0.02438l-0.29993,-0.18129l-0.38156,-0.39536l-0.58638,0.40506l-0.6538,-0.45163l-0.27107,0.0182l-0.18303,-0.33189l-0.70166,-0.48469l-0.25851,-1.25v-0.00637l-0.01289,-0.02336l0.01289,-0.0701v-0.06966l0.11525,-0.55728l0.10308,-0.56076l0.02577,-0.06231l0.01441,-0.06966l0.02017,-0.01393l0.02668,-0.06451l0.04051,-0.13469l-0.13556,-0.65551v-0.42373l0.09895,-0.47848l-0.04161,-0.18443l0.13672,-0.27545l0.06445,-0.31164l0.1373,-0.09485l0.20991,-0.42292l0.13562,-0.16394l0.00882,-0.016c0.18974,-0.35516 0.45194,-0.64846 0.7613,-0.84935l0.04516,-0.04964l0.03104,0.00259c0.27235,-0.15961 0.57805,-0.24912 0.90103,-0.24912c0.18966,0 0.37337,0.03087 0.54786,0.08867z" stroke="#000000" stroke-width="1.5"/><path d="M234.16765,147.17531h0.05763l0.05798,-0.01558l0.01933,0.01558h1.26714l0.39581,0.11962l0.15257,-0.0503l0.22786,0.16527l0.23377,0.07065l0.22882,-0.0922l0.02464,-0.00229l0.02115,-0.01545l0.91136,-0.33899l0.02144,-0.00138l0.0186,-0.01298l0.49073,-0.16949l0.16121,-0.0065l0.15042,-0.07039l0.56083,-0.08475l0.00521,0.00077l0.00491,-0.00226l1.7526,-0.25423l0.12458,0.019l0.12182,-0.03681h0.35052l0.16769,0.05068l0.1723,-0.01667l0.23125,0.04659l0.01419,-0.01144l0.05799,0.01558h0.05763l0.461,0.13932l0.11231,0.03017h0.19783l1.03403,0.3125l0.04051,0.08571l0.08154,0.00548l0.69366,0.97828l0.07986,0.19308l0.02017,0.01393l0.0144,0.06966l0.02577,0.0623l0.10309,0.56076l0.11525,0.55728v0.06966l0.01288,0.07009l-0.01288,0.02337v1.96189l0.01288,0.02336l-0.01288,0.0701v0.06966l-0.06692,0.32357l0.00797,0.01926l-0.03984,0.13485l-0.01646,0.07959l-0.10309,0.56076l-0.02577,0.06231l-0.0144,0.06966l-0.02017,0.01394l-0.00976,0.02359l-0.08505,0.11995l-0.04395,0.14878l-0.14021,0.25423l-0.64137,0.70484l-0.04534,0.09591l-0.05785,0.01748l-0.04412,0.04849l-0.09117,-0.0076l-0.8409,0.25413h-0.07538l-0.01933,0.01558l-0.05109,-0.01373l-0.00042,0.00025l-0.01153,0.02438l-0.05763,0.01741l-0.05154,0.03116l-0.46387,0.12461l-0.461,0.13932h-0.05763l-0.05798,0.01558l-0.01933,-0.01558h-0.03676l-0.0743,0.10479l-0.03165,0.00213l-0.18759,0.15118l-0.12306,0.05313l-0.09922,0.10281l-0.01952,0.0118l-0.01153,0.02438l-0.05763,0.01741l-0.05154,0.03115l-0.46388,0.12462l-0.06584,0.0199l-0.11155,0.04816l-0.01594,-0.00964l-0.26766,0.08089h-0.05763l-0.05799,0.01557l-0.01933,-0.01557h-0.28569l-0.28042,-0.08474h-0.03983l-0.00478,0.00385l-0.05471,0.02362l-0.01784,0.01373l-0.05773,0.02326l-0.09201,0.09534l-0.01951,0.01179l-0.01153,0.02439l-0.05763,0.01741l-0.05154,0.03115l-0.46387,0.12461l-0.06584,0.0199l-0.11155,0.04816l-0.01594,-0.00964l-0.26766,0.0809h-0.05763l-0.05799,0.01557l-0.01933,-0.01557h-0.50127l-0.01933,0.01557l-0.05799,-0.01557h-0.05763l-0.23326,-0.0705l-0.00164,0.00133l-0.05799,-0.01558h-0.05763l-0.461,-0.13932l-0.25416,-0.06827l-0.12609,0.03811h-0.05763l-0.05799,0.01557l-0.01933,-0.01557h-0.71158l-0.01933,0.01557l-0.05799,-0.01557h-0.05763l-0.46099,-0.13932l-0.46387,-0.12461l-0.05155,-0.03115l-0.05763,-0.01741l-0.01152,-0.02438l-0.29993,-0.18129l-0.38156,-0.39536l-0.58638,0.40506l-0.6538,-0.45163l-0.27107,0.0182l-0.18303,-0.33189l-0.70166,-0.48469l-0.25851,-1.25v-0.00637l-0.01289,-0.02336l0.01289,-0.0701v-0.06966l0.11525,-0.55728l0.10308,-0.56076l0.02577,-0.06231l0.01441,-0.06966l0.02017,-0.01393l0.02668,-0.06451l0.04051,-0.13469l-0.13556,-0.65551v-0.42373l0.09895,-0.47848l-0.04161,-0.18443l0.13672,-0.27545l0.06445,-0.31164l0.1373,-0.09485l0.20991,-0.42292l0.13562,-0.16394l0.00882,-0.016c0.18974,-0.35516 0.45194,-0.64846 0.7613,-0.84935l0.04516,-0.04964l0.03104,0.00259c0.27235,-0.15961 0.57805,-0.24912 0.90103,-0.24912c0.18966,0 0.37337,0.03087 0.54786,0.08867z" stroke="none" stroke-width="0.5"/></g><g fill="#131313" stroke-linecap="butt"><path d="M230.35266,195.08814c0,0 -0.51188,-6.2438 -0.75221,-10.57074c-0.27748,-4.99565 -3.36827,-18.35038 -2.81293,-25.18645c0.25223,-3.10486 4.52999,-3.86212 4.52999,-3.86212l14.22322,-0.47954c0,0 3.76146,0.63952 4.17364,3.40794c0.90353,6.06863 -0.04079,18.80457 0.23242,23.72362c0.27624,4.97339 -1.20659,12.1838 -1.20659,12.1838z" stroke="#000000" stroke-width="1.5"/><path d="M230.35266,195.08814c0,0 -0.51188,-6.2438 -0.75221,-10.57074c-0.27748,-4.99565 -3.36827,-18.35038 -2.81293,-25.18645c0.25223,-3.10486 4.52999,-3.86212 4.52999,-3.86212l14.22322,-0.47954c0,0 3.76146,0.63952 4.17364,3.40794c0.90353,6.06863 -0.04079,18.80457 0.23242,23.72362c0.27624,4.97339 -1.20659,12.1838 -1.20659,12.1838z" stroke="none" stroke-width="0"/></g><g fill="#424242" stroke-linecap="butt"><g><path d="M247.60176,231.78583c-1.36404,-0.17082 -4.44915,-1.97384 -4.44915,-1.97384l-2.20418,-35.55988c0,0 0.69566,-0.07002 1.94825,-0.64295c1.22886,-0.56208 3.00845,-1.62671 3.68662,-1.68637c0.85914,-0.0756 1.7908,1.67596 1.7908,1.67596l2.30309,37.15551c0,0 -2.00114,1.16609 -3.07544,1.03156z" stroke="#000000" stroke-width="1.5"/><path d="M247.60176,231.78583c-1.36404,-0.17082 -4.44915,-1.97384 -4.44915,-1.97384l-2.20418,-35.55988c0,0 0.69566,-0.07002 1.94825,-0.64295c1.22886,-0.56208 3.00845,-1.62671 3.68662,-1.68637c0.85914,-0.0756 1.7908,1.67596 1.7908,1.67596l2.30309,37.15551c0,0 -2.00114,1.16609 -3.07544,1.03156z" stroke="none" stroke-width="0"/></g><g><path d="M241.0354,230.25609c0,0 1.23231,-3.97703 2.73587,-4.83769c1.80691,-1.03431 7.36375,-0.94349 7.36375,-0.94349c0,0 8.03865,-0.21131 7.84936,1.69827c-0.05885,0.59364 0.96907,3.92957 -0.48306,4.80881c-2.54607,1.54158 -8.22512,0.62709 -8.59051,0.63443c-1.88542,0.03791 -8.8754,-1.36033 -8.8754,-1.36033z" stroke="#000000" stroke-width="1.5"/><path d="M241.0354,230.25609c0,0 1.23231,-3.97703 2.73587,-4.83769c1.80691,-1.03431 7.36375,-0.94349 7.36375,-0.94349c0,0 8.03865,-0.21131 7.84936,1.69827c-0.05885,0.59364 0.96907,3.92957 -0.48306,4.80881c-2.54607,1.54158 -8.22512,0.62709 -8.59051,0.63443c-1.88542,0.03791 -8.8754,-1.36033 -8.8754,-1.36033z" stroke="none" stroke-width="0"/></g></g><g fill="#424242" stroke-linecap="butt"><g><path d="M235.15633,231.70677c-1.3488,-0.26558 -4.30058,-2.27946 -4.30058,-2.27946l0.28235,-35.62701c0,0 0.69885,-0.02131 1.98836,-0.50545c1.26508,-0.47497 3.11461,-1.41283 3.7953,-1.42503c0.86232,-0.01547 1.6695,1.79683 1.6695,1.79683l-0.29502,37.22565c0,0 -2.07762,1.02362 -3.13992,0.81446z" stroke="#000000" stroke-width="1.5"/><path d="M235.15633,231.70677c-1.3488,-0.26558 -4.30058,-2.27946 -4.30058,-2.27946l0.28235,-35.62701c0,0 0.69885,-0.02131 1.98836,-0.50545c1.26508,-0.47497 3.11461,-1.41283 3.7953,-1.42503c0.86232,-0.01547 1.6695,1.79683 1.6695,1.79683l-0.29502,37.22565c0,0 -2.07762,1.02362 -3.13992,0.81446z" stroke="none" stroke-width="0"/></g><g><path d="M231.82687,224.95467c1.87405,-0.90699 7.41134,-0.43246 7.41134,-0.43246c0,0 8.03404,0.34461 7.71326,2.23654c-0.09973,0.58816 0.69525,3.98713 -0.81416,4.76394c-2.6465,1.36198 -8.24879,0.0573 -8.61382,0.03937c-1.88353,-0.09245 -8.7602,-1.9703 -8.7602,-1.9703c0,0 1.50415,-3.88237 3.06358,-4.63709z" stroke="#000000" stroke-width="1.5"/><path d="M228.76329,229.59177c0,0 1.50415,-3.88238 3.06358,-4.6371c1.87405,-0.90699 7.41134,-0.43246 7.41134,-0.43246c0,0 8.03404,0.34461 7.71326,2.23654c-0.09973,0.58816 0.69525,3.98713 -0.81416,4.76394c-2.6465,1.36198 -8.24879,0.0573 -8.61382,0.03937c-1.88353,-0.09245 -8.7602,-1.9703 -8.7602,-1.9703z" stroke="none" stroke-width="0"/></g></g><g stroke="#000000" stroke-linecap="butt"><g fill="#c70000" stroke-width="1.5"><path d="M235.38853,165.94097c-0.01586,4.88968 -0.81368,10.33463 -0.63565,15.24284c0.11468,3.16144 1.28687,5.93508 1.28687,9.39496c0,3.56801 -2.5159,7.91013 -6.81668,5.75975c-2.4491,-1.22455 -1.39884,-4.42838 -1.37713,-6.63703c0.04071,-4.1407 0.00518,-8.2818 0,-12.42269c-0.00703,-5.61692 -0.63458,-11.18523 0.50852,-16.74741c0.28293,-1.3767 0.38935,-4.30499 1.86523,-5.08995c0.66827,-0.35543 2.52238,-0.10482 2.96209,-0.12924c0.39131,-0.25403 0.85814,-0.40157 1.35943,-0.40157c1.38071,0 2.5,1.11929 2.5,2.5c0,0.5157 -0.15615,0.99493 -0.42374,1.393c0.01626,1.9614 -1.21862,3.95822 -1.22893,7.13736z"/><path d="M243.31314,155.03774c0.08911,0 0.17714,0.00466 0.26384,0.01375l0.07834,-0.14688l0.45837,-0.12891l0.24262,-0.36393l0.87793,0.04878l0.20142,-0.05665l0.02606,-0.01737l0.01995,0.00444l0.59902,-0.16848l0.31579,0.30263l0.47541,0.02642l0.49854,0.58163l0.58162,0.49853l0.00548,0.09857l0.08571,0.04898l0.02993,0.11972l0.13314,0.11412l0.00314,0.05656l0.00198,0.00232l0.00232,0.00198l0.05656,0.00314l0.14649,0.1709l0.1709,0.14648l0.00314,0.05657l0.00199,0.00232l0.37626,0.32251l0.00691,0.12453l0.13284,0.15498l0.05418,0.10836l0.02438,0.01393l0.01741,0.06966l0.03115,0.0623l0.00103,0.00461l0.11348,0.09727l0.00548,0.09857l0.08571,0.04898l0.14455,0.57818l0.03115,0.0623l0.10171,0.45767l0.20673,0.41347l0.02438,0.01393l0.01741,0.06966l0.03116,0.06231l0.12461,0.56076l0.13932,0.55728v0.04548l0.04451,0.08901l0.02438,0.01393l0.01741,0.06966l0.03115,0.0623l0.12462,0.56076l0.13932,0.55728v0.04547l0.0445,0.08902l0.02438,0.01394l0.01741,0.06966l0.03116,0.0623l0.12461,0.56075l0.09697,0.38788l0.11124,0.06357l0.07791,0.31163l0.16527,0.27545l-0.03324,0.12188l0.14706,0.29413l0.02438,0.01394l0.01741,0.06966l0.03115,0.06231l0.03593,0.16165l0.07858,0.06735l0.00692,0.12453l0.13284,0.15497l0.05418,0.10837l0.02438,0.01393l0.01741,0.06966l0.03116,0.06231l0.10171,0.45766l0.02542,0.05086l0.1017,0.45766l0.02543,0.05085l0.03904,0.17566l0.09661,0.15181l0.12713,0.38139l0.03082,0.40069l0.09747,0.38988v0.12713l0.12713,0.50852v0.06966l0.01558,0.07009l-0.01558,0.02337v0.09114l0.12713,0.50852v0.06966l0.01557,0.07009l-0.01557,0.02337v3.7779l-0.09747,0.38987l-0.02966,0.38558v0.96836l0.01558,0.02336l-0.01558,0.0701v0.06966l-0.12713,0.50852v0.72679l0.01558,0.02336l-0.01558,0.0701v0.06966l-0.12713,0.50851v2.12521l0.01557,0.02337l-0.01557,0.07009v0.06966l-0.12713,0.50852v1.77981l0.12713,0.50852v0.06966l0.01557,0.07009l-0.01557,0.02337v0.3454l0.12713,0.50852v0.06966l0.01558,0.0701l-0.01558,0.02336v0.47253l0.02274,0.09096l0.02177,0.04353l0.02438,0.01394l0.01741,0.06966l0.03115,0.06231l0.10171,0.45766l0.02542,0.05085l0.12461,0.56075l0.13932,0.55728v0.06966l0.01558,0.0701l-0.01558,0.02336v1.07219l0.01558,0.02336l-0.01558,0.0701v0.06966l-0.12713,0.50852v4.44953l-0.09747,0.38987l-0.02966,0.38558v0.58697l0.01557,0.02337l-0.01557,0.07009v0.06966l-0.13932,0.55728l-0.12461,0.56076l-0.03115,0.0623l-0.01741,0.06966l-0.02439,0.01394l-0.05418,0.10836l-0.83852,0.97828l-0.09857,0.00547l-0.04898,0.08571l-1.25,0.3125h-0.98104l-0.02336,0.01557l-0.0701,-0.01557h-0.06966l-0.50852,-0.12713h-0.09114l-0.02337,0.01558l-0.07009,-0.01558h-0.06966l-0.50852,-0.12713h-2.1612l-1.25,-0.3125l-0.34091,-0.59659l-0.59659,-0.34091l-0.3125,-1.25v-0.47252l-0.01557,-0.02337l0.01557,-0.07009v-0.06966l0.13932,-0.55728l0.11494,-0.51722v-0.1608l-0.01558,-0.02337l0.01558,-0.07009v-0.06966l0.13932,-0.55728l0.11494,-0.51722v-1.76782l-0.04451,-0.08901l-0.02438,-0.01393l-0.01741,-0.06966l-0.03116,-0.0623l-0.1017,-0.45767l-0.15256,-0.30511l-0.03903,-0.17566l-0.09661,-0.15181l-0.12712,-0.38138l-0.03083,-0.4007l-0.09747,-0.38987v-14.61989l-0.12713,-0.50851v-0.06966l-0.01558,-0.0701l0.01558,-0.02336v-0.33272l-0.02966,-0.38558l-0.07316,-0.29265l-0.02314,-0.06943l-0.03082,-0.40069l-0.09746,-0.38987v-0.87723l-0.01685,-0.21898l-0.02766,-0.05532l-0.02438,-0.01393l-0.01741,-0.06966l-0.03115,-0.0623l-0.12461,-0.56076l-0.13932,-0.55728v-0.04548l-0.04451,-0.08901l-0.02438,-0.01393l-0.01741,-0.06966l-0.03115,-0.0623l-0.12461,-0.56076l-0.13932,-0.55728v-0.06966l-0.01558,-0.07009l0.01558,-0.02337v-0.09114l-0.10282,-0.41129l-0.02314,-0.06943l-0.01085,-0.14104l-0.00589,-0.0265l0.00346,-0.00518l-0.01754,-0.22797l-0.09747,-0.38987v-0.50852l-0.12713,-0.50852v-0.06966l-0.01558,-0.07009l0.01558,-0.02337v-0.45985l-0.02426,-0.31543l-0.22884,-0.6865l-0.03082,-0.40069l-0.09747,-0.38988v-1.27129l-0.12713,-0.50852v-0.06966l-0.01558,-0.0701l0.01558,-0.02336v-0.34539c0,-0.42612 0.10661,-0.82733 0.29461,-1.17843l0.01789,-0.07157l0.03296,-0.01884c0.43488,-0.73685 1.23699,-1.23116 2.15454,-1.23116zM247.84721,185.29743l0.04451,0.08902l0.02438,0.01393l0.01741,0.06966l0.03115,0.06231l0.09485,0.42683v-0.3713l-0.04451,-0.08901l-0.02438,-0.01394l-0.01741,-0.06966l-0.03115,-0.06231l-0.09485,-0.42682z"/></g><path d="M235.38853,165.94097c-0.01586,4.88968 -0.81368,10.33463 -0.63565,15.24284c0.11468,3.16144 1.28687,5.93508 1.28687,9.39496c0,3.56801 -2.5159,7.91013 -6.81668,5.75975c-2.4491,-1.22455 -1.39884,-4.42838 -1.37713,-6.63703c0.04071,-4.1407 0.00518,-8.2818 0,-12.42269c-0.00703,-5.61692 -0.63458,-11.18523 0.50852,-16.74741c0.28293,-1.3767 0.38935,-4.30499 1.86523,-5.08995c0.66827,-0.35543 2.52238,-0.10482 2.96209,-0.12924c0.39131,-0.25403 0.85814,-0.40157 1.35943,-0.40157c1.38071,0 2.5,1.11929 2.5,2.5c0,0.5157 -0.15615,0.99493 -0.42374,1.393c0.01626,1.9614 -1.21862,3.95822 -1.22893,7.13736z" fill="#b5c7b2" stroke-width="0"/><path d="M243.31314,155.03774c0.08911,0 0.17714,0.00466 0.26384,0.01375l0.07834,-0.14688l0.45837,-0.12891l0.24262,-0.36393l0.87793,0.04878l0.20142,-0.05665l0.02606,-0.01737l0.01995,0.00444l0.59902,-0.16848l0.31579,0.30263l0.47541,0.02642l0.49854,0.58163l0.58162,0.49853l0.00548,0.09857l0.08571,0.04898l0.02993,0.11972l0.13314,0.11412l0.00314,0.05656l0.00198,0.00232l0.00232,0.00198l0.05656,0.00314l0.14649,0.1709l0.1709,0.14648l0.00314,0.05657l0.00199,0.00232l0.37626,0.32251l0.00691,0.12453l0.13284,0.15498l0.05418,0.10836l0.02438,0.01393l0.01741,0.06966l0.03115,0.0623l0.00103,0.00461l0.11348,0.09727l0.00548,0.09857l0.08571,0.04898l0.14455,0.57818l0.03115,0.0623l0.10171,0.45767l0.20673,0.41347l0.02438,0.01393l0.01741,0.06966l0.03116,0.06231l0.12461,0.56076l0.13932,0.55728v0.04548l0.04451,0.08901l0.02438,0.01393l0.01741,0.06966l0.03115,0.0623l0.12462,0.56076l0.13932,0.55728v0.04547l0.0445,0.08902l0.02438,0.01394l0.01741,0.06966l0.03116,0.0623l0.12461,0.56075l0.09697,0.38788l0.11124,0.06357l0.07791,0.31163l0.16527,0.27545l-0.03324,0.12188l0.14706,0.29413l0.02438,0.01394l0.01741,0.06966l0.03115,0.06231l0.03593,0.16165l0.07858,0.06735l0.00692,0.12453l0.13284,0.15497l0.05418,0.10837l0.02438,0.01393l0.01741,0.06966l0.03116,0.06231l0.10171,0.45766l0.02542,0.05086l0.1017,0.45766l0.02543,0.05085l0.03904,0.17566l0.09661,0.15181l0.12713,0.38139l0.03082,0.40069l0.09747,0.38988v0.12713l0.12713,0.50852v0.06966l0.01558,0.07009l-0.01558,0.02337v0.09114l0.12713,0.50852v0.06966l0.01557,0.07009l-0.01557,0.02337v3.7779l-0.09747,0.38987l-0.02966,0.38558v0.96836l0.01558,0.02336l-0.01558,0.0701v0.06966l-0.12713,0.50852v0.72679l0.01558,0.02336l-0.01558,0.0701v0.06966l-0.12713,0.50851v2.12521l0.01557,0.02337l-0.01557,0.07009v0.06966l-0.12713,0.50852v1.77981l0.12713,0.50852v0.06966l0.01557,0.07009l-0.01557,0.02337v0.3454l0.12713,0.50852v0.06966l0.01558,0.0701l-0.01558,0.02336v0.47253l0.02274,0.09096l0.02177,0.04353l0.02438,0.01394l0.01741,0.06966l0.03115,0.06231l0.10171,0.45766l0.02542,0.05085l0.12461,0.56075l0.13932,0.55728v0.06966l0.01558,0.0701l-0.01558,0.02336v1.07219l0.01558,0.02336l-0.01558,0.0701v0.06966l-0.12713,0.50852v4.44953l-0.09747,0.38987l-0.02966,0.38558v0.58697l0.01557,0.02337l-0.01557,0.07009v0.06966l-0.13932,0.55728l-0.12461,0.56076l-0.03115,0.0623l-0.01741,0.06966l-0.02439,0.01394l-0.05418,0.10836l-0.83852,0.97828l-0.09857,0.00547l-0.04898,0.08571l-1.25,0.3125h-0.98104l-0.02336,0.01557l-0.0701,-0.01557h-0.06966l-0.50852,-0.12713h-0.09114l-0.02337,0.01558l-0.07009,-0.01558h-0.06966l-0.50852,-0.12713h-2.1612l-1.25,-0.3125l-0.34091,-0.59659l-0.59659,-0.34091l-0.3125,-1.25v-0.47252l-0.01557,-0.02337l0.01557,-0.07009v-0.06966l0.13932,-0.55728l0.11494,-0.51722v-0.1608l-0.01558,-0.02337l0.01558,-0.07009v-0.06966l0.13932,-0.55728l0.11494,-0.51722v-1.76782l-0.04451,-0.08901l-0.02438,-0.01393l-0.01741,-0.06966l-0.03116,-0.0623l-0.1017,-0.45767l-0.15256,-0.30511l-0.03903,-0.17566l-0.09661,-0.15181l-0.12712,-0.38138l-0.03083,-0.4007l-0.09747,-0.38987v-14.61989l-0.12713,-0.50851v-0.06966l-0.01558,-0.0701l0.01558,-0.02336v-0.33272l-0.02966,-0.38558l-0.07316,-0.29265l-0.02314,-0.06943l-0.03082,-0.40069l-0.09746,-0.38987v-0.87723l-0.01685,-0.21898l-0.02766,-0.05532l-0.02438,-0.01393l-0.01741,-0.06966l-0.03115,-0.0623l-0.12461,-0.56076l-0.13932,-0.55728v-0.04548l-0.04451,-0.08901l-0.02438,-0.01393l-0.01741,-0.06966l-0.03115,-0.0623l-0.12461,-0.56076l-0.13932,-0.55728v-0.06966l-0.01558,-0.07009l0.01558,-0.02337v-0.09114l-0.10282,-0.41129l-0.02314,-0.06943l-0.01085,-0.14104l-0.00589,-0.0265l0.00346,-0.00518l-0.01754,-0.22797l-0.09747,-0.38987v-0.50852l-0.12713,-0.50852v-0.06966l-0.01558,-0.07009l0.01558,-0.02337v-0.45985l-0.02426,-0.31543l-0.22884,-0.6865l-0.03082,-0.40069l-0.09747,-0.38988v-1.27129l-0.12713,-0.50852v-0.06966l-0.01558,-0.0701l0.01558,-0.02336v-0.34539c0,-0.42612 0.10661,-0.82733 0.29461,-1.17843l0.01789,-0.07157l0.03296,-0.01884c0.43488,-0.73685 1.23699,-1.23116 2.15454,-1.23116z" fill="#b5c7b2" stroke-width="0"/></g><path d="M248.67061,145.27238c0,5.51672 -3.72056,9.98891 -8.3101,9.98891c-3.42606,0 -6.36788,-1.59677 -7.63924,-5.15518c-0.22954,-0.64246 -1.01788,0.12309 -2.02049,-0.90644c-0.88325,-0.90697 -2.06977,-4.86168 -1.44838,-5.38225c1.13084,-0.94738 2.96606,-0.84276 3.27479,-1.88795c1.14391,-3.87273 4.21918,-6.64599 7.83333,-6.64599c4.58954,0 8.3101,4.47219 8.3101,9.98891z" fill="#eda164" stroke="#000000" stroke-width="1" stroke-linecap="butt"/><path d="M244.92763,144.14141v3.29412" fill="none" stroke="#000000" stroke-width="2" stroke-linecap="round"/><path d="M240.3394,144.20024v3.29412" fill="none" stroke="#000000" stroke-width="2" stroke-linecap="round"/><path d="M244.62194,151.56429l-0.40116,-0.00479c-1.46827,-0.24471 -2.92695,-0.06386 -4.40443,-0.06386c0,0 -0.35221,0 -0.35221,-0.35221c0,-0.35221 0.35221,-0.35221 0.35221,-0.35221c1.51778,0 3.01115,-0.17807 4.52024,0.07344l0.28535,-0.00479c0,0 0.35221,0 0.35221,0.35221c0,0.35221 -0.35221,0.35221 -0.35221,0.35221z" fill="#000000" stroke="none" stroke-width="0.5" stroke-linecap="butt"/><g fill="#131313" stroke-linecap="butt"><g stroke="#000000" stroke-width="1.5"><path d="M228.32441,161.78358c0,0 0.16762,1.66019 -0.31884,3.24558c-0.35333,1.15154 -1.72769,3.15623 -2.58387,5.60998c-0.62897,1.80256 -0.99935,3.71599 -1.49092,5.44641c-0.80767,2.84314 -1.56773,5.12653 -1.56773,5.12653l-4.69393,-1.82552c0,0 1.12578,-5.30545 2.64108,-10.90669c0.44148,-1.63189 0.86297,-3.59154 1.36508,-5.07725c0.89208,-2.63964 2.3555,-4.15185 3.03641,-5.46305c1.3503,-2.60013 4.2727,-2.44244 4.2727,-2.44244l-0.65999,6.28642z"/><path d="M222.30219,181.36856c-0.50411,1.29619 -1.96353,1.93831 -3.25972,1.4342c-1.29619,-0.50411 -1.93831,-1.96353 -1.4342,-3.25972c0.50411,-1.29619 1.96353,-1.93831 3.25974,-1.4342c1.29619,0.50411 1.93831,1.96354 1.4342,3.25973z"/></g><g stroke="none" stroke-width="0"><path d="M228.32441,161.78358c0,0 0.16762,1.66019 -0.31884,3.24558c-0.35333,1.15154 -1.72769,3.15623 -2.58387,5.60998c-0.62897,1.80256 -0.99935,3.71599 -1.49092,5.44641c-0.80767,2.84314 -1.56773,5.12653 -1.56773,5.12653l-4.69393,-1.82552c0,0 1.12578,-5.30545 2.64108,-10.90669c0.44148,-1.63189 0.86297,-3.59154 1.36508,-5.07725c0.89208,-2.63964 2.3555,-4.15185 3.03641,-5.46305c1.3503,-2.60013 4.2727,-2.44244 4.2727,-2.44244l-0.65999,6.28642z"/><path d="M222.30219,181.36856c-0.50411,1.29619 -1.96353,1.93831 -3.25972,1.4342c-1.29619,-0.50411 -1.93831,-1.96353 -1.4342,-3.25972c0.50411,-1.29619 1.96353,-1.93831 3.25974,-1.4342c1.29619,0.50411 1.93831,1.96354 1.4342,3.25973z"/></g></g><g fill="#eda164" stroke-linecap="butt"><g stroke="#000000" stroke-width="1.5"><path d="M232.14187,200.6316l-4.54864,2.16227c0,0 -1.60386,-0.41329 -2.76474,-2.83612c-0.78733,-1.64325 -1.51568,-4.89774 -2.46272,-6.72737c-1.24928,-2.41353 -2.18512,-4.67017 -2.80264,-5.9692c-0.93063,-1.9577 -1.84427,-5.23944 -1.84427,-5.23944l4.54865,-2.16228c0,0 1.93985,2.59406 2.90366,4.62157c0.62939,1.32401 1.31978,4.02824 2.41715,6.57568c0.56946,1.32196 1.5322,3.9221 2.1155,5.16231c1.48369,3.15466 2.43808,4.41259 2.43808,4.41259z"/><path d="M221.00223,183.0633c-1.25607,0.5971 -2.75836,0.06288 -3.35545,-1.19319c-0.5971,-1.25607 -0.06288,-2.75836 1.19318,-3.35545c1.25607,-0.5971 2.75836,-0.06288 3.35546,1.19319c0.5971,1.25607 0.06289,2.75837 -1.19319,3.35546z"/></g><g stroke="none" stroke-width="0"><path d="M232.14187,200.6316l-4.54864,2.16227c0,0 -1.60386,-0.41329 -2.76474,-2.83612c-0.78733,-1.64325 -1.51568,-4.89774 -2.46272,-6.72737c-1.24928,-2.41353 -2.18512,-4.67017 -2.80264,-5.9692c-0.93063,-1.9577 -1.84427,-5.23944 -1.84427,-5.23944l4.54865,-2.16228c0,0 1.93985,2.59406 2.90366,4.62157c0.62939,1.32401 1.31978,4.02824 2.41715,6.57568c0.56946,1.32196 1.5322,3.9221 2.1155,5.16231c1.48369,3.15466 2.43808,4.41259 2.43808,4.41259z"/><path d="M221.00223,183.0633c-1.25607,0.5971 -2.75836,0.06288 -3.35545,-1.19319c-0.5971,-1.25607 -0.06288,-2.75836 1.19318,-3.35545c1.25607,-0.5971 2.75836,-0.06288 3.35546,1.19319c0.5971,1.25607 0.06289,2.75837 -1.19319,3.35546z"/></g></g><g fill="#131313" stroke-linecap="butt"><g stroke="#000000" stroke-width="1.5"><path d="M248.73065,161.86982l-1.17471,-6.21086c0,0 2.89954,-0.39748 4.45908,2.0828c0.78643,1.25075 2.36925,2.63751 3.47538,5.19485c0.62258,1.43939 1.2038,3.35774 1.77798,4.9478c1.97078,5.45765 3.52903,10.65256 3.52903,10.65256l-4.52791,2.20534c0,0 -0.94525,-2.21316 -1.98399,-4.98025c-0.63219,-1.68413 -1.15868,-3.56062 -1.93375,-5.30536c-1.05507,-2.37504 -2.58962,-4.25992 -3.03645,-5.3785c-0.61517,-1.54002 -0.58465,-3.20838 -0.58465,-3.20838z"/><path d="M256.34299,180.89324c-0.60898,-1.25035 -0.08907,-2.75764 1.16129,-3.36663c1.25036,-0.60899 2.75764,-0.08907 3.36663,1.16129c0.60898,1.25035 0.08907,2.75764 -1.16129,3.36663c-1.25035,0.60898 -2.75764,0.08907 -3.36663,-1.16129z"/></g><g stroke="none" stroke-width="0"><path d="M248.73065,161.86982l-1.17471,-6.21086c0,0 2.89954,-0.39748 4.45908,2.0828c0.78643,1.25075 2.36925,2.63751 3.47538,5.19485c0.62258,1.43939 1.2038,3.35774 1.77798,4.9478c1.97078,5.45765 3.52903,10.65256 3.52903,10.65256l-4.52791,2.20534c0,0 -0.94525,-2.21316 -1.98399,-4.98025c-0.63219,-1.68413 -1.15868,-3.56062 -1.93375,-5.30536c-1.05507,-2.37504 -2.58962,-4.25992 -3.03645,-5.3785c-0.61517,-1.54002 -0.58465,-3.20838 -0.58465,-3.20838z"/><path d="M256.34299,180.89324c-0.60898,-1.25035 -0.08907,-2.75764 1.16129,-3.36663c1.25036,-0.60899 2.75764,-0.08907 3.36663,1.16129c0.60898,1.25035 0.08907,2.75764 -1.16129,3.36663c-1.25035,0.60898 -2.75764,0.08907 -3.36663,-1.16129z"/></g></g><g fill="#eda164" stroke-linecap="butt"><g stroke="#000000" stroke-width="1.5"><path d="M249.53455,200.61433c0,0 0.76296,-1.38244 1.77607,-4.71813c0.3983,-1.31138 0.97589,-4.02321 1.3487,-5.41349c0.71842,-2.6791 1.01152,-5.45463 1.44333,-6.85558c0.66125,-2.14532 2.20662,-4.99208 2.20662,-4.99208l4.81298,1.48351c0,0 -0.43069,3.3792 -1.06919,5.45068c-0.42367,1.37454 -1.02422,3.74255 -1.91226,6.31106c-0.67321,1.94711 -0.92447,5.27264 -1.46652,7.01226c-0.79924,2.56495 -2.32671,3.20527 -2.32671,3.20527l-4.81298,-1.48351z"/><path d="M256.35868,178.47462c0.40966,-1.32906 1.81918,-2.07439 3.14824,-1.66474c1.32907,0.40966 2.07439,1.81918 1.66474,3.14825c-0.40966,1.32906 -1.81918,2.07439 -3.14825,1.66474c-1.32907,-0.40966 -2.07439,-1.81918 -1.66474,-3.14825z"/></g><g stroke="none" stroke-width="0"><path d="M249.53455,200.61433c0,0 0.76296,-1.38244 1.77607,-4.71813c0.3983,-1.31138 0.97589,-4.02321 1.3487,-5.41349c0.14877,-0.55479 0.2793,-1.1137 0.3966,-1.66369c0.44915,-2.10596 0.70434,-4.08104 1.04673,-5.19189c0.66125,-2.14532 2.20662,-4.99208 2.20662,-4.99208l4.81298,1.48351c0,0 -0.43069,3.3792 -1.06919,5.45068c-0.42367,1.37454 -1.02422,3.74255 -1.91226,6.31106c-0.67321,1.94711 -0.92447,5.27264 -1.46652,7.01226c-0.79924,2.56495 -2.32671,3.20527 -2.32671,3.20527l-4.81298,-1.48351z"/><path d="M256.35868,178.47462c0.40966,-1.32906 1.81918,-2.07439 3.14824,-1.66474c1.32907,0.40966 2.07439,1.81918 1.66474,3.14825c-0.40966,1.32906 -1.81918,2.07439 -3.14825,1.66474c-1.32907,-0.40966 -2.07439,-1.81918 -1.66474,-3.14825z"/></g></g><g stroke="#000000" stroke-width="0.5" stroke-linecap="butt"><path d="M231.85826,201.6872c0.22512,-0.32729 1.29417,-0.92124 2.09569,-0.84127c0.53734,0.05363 0.8339,0.67459 1.12461,0.89613c0.67121,0.51141 -0.11857,1.71502 -0.83684,1.46315c-0.429,-0.15044 -0.91303,-0.67921 -1.22177,-0.23039c-0.8256,1.20014 -0.23151,3.03555 -0.97373,2.52498c-0.74219,-0.51052 -1.01363,-2.61244 -0.18803,-3.81261z" fill="#eda164"/><path d="M235.80282,205.23664c0.91106,0.95047 1.37831,1.98105 1.04364,2.30184c-0.33465,0.32079 -1.34452,-0.18967 -2.25558,-1.14012c-0.91106,-0.95047 -1.3783,-1.98106 -1.04363,-2.30185c0.33465,-0.32079 1.34452,0.18967 2.25558,1.14013z" fill="#eda164"/><path d="M234.79221,207.09936c0.67492,1.13044 0.89934,2.23952 0.50129,2.47716c-0.39803,0.23763 -1.26785,-0.48612 -1.94277,-1.61654c-0.67492,-1.13045 -0.89937,-2.23952 -0.50134,-2.47713c0.39803,-0.23765 1.26784,0.48612 1.94276,1.61657z" fill="#eda164"/><path d="M233.1376,207.63139c0.58713,1.17844 0.7267,2.30137 0.31179,2.50811c-0.41492,0.20673 -1.22729,-0.58097 -1.81441,-1.75941c-0.58713,-1.17843 -0.72672,-2.30137 -0.31177,-2.50806c0.41492,-0.20673 1.22727,0.58101 1.81441,1.75941z" fill="#eda164"/><path d="M231.48808,208.09175c0.34078,1.27173 0.25402,2.39997 -0.19378,2.51997c-0.44778,0.11999 -1.08702,-0.81368 -1.4278,-2.0854c-0.34078,-1.27173 -0.25399,-2.39997 0.19379,-2.51994c0.44777,-0.11998 1.08704,0.81368 1.42781,2.0854z" fill="#eda164"/><path d="M232.18093,206.2614c-1.30293,0.64913 -2.9651,-0.0409 -3.71259,-1.5412c-0.7475,-1.50034 -0.29724,-3.2428 1.00564,-3.89191c1.30292,-0.64913 2.96507,0.0409 3.71258,1.54119c0.7475,1.50034 0.29723,3.24283 -1.00566,3.89194z" fill="#131313"/></g><g stroke="#000000" stroke-width="0.5" stroke-linecap="butt"><path d="M250.44513,200.99753c0.82559,1.20018 0.55416,3.30209 -0.18803,3.81261c-0.74222,0.51057 -0.14813,-1.32485 -0.97374,-2.52498c-0.30874,-0.44882 -0.79277,0.07995 -1.22177,0.23039c-0.71827,0.25187 -1.50805,-0.95174 -0.83684,-1.46314c0.29071,-0.22154 0.58727,-0.8425 1.12461,-0.89613c0.80152,-0.07997 1.87058,0.51398 2.09569,0.84127z" fill="#eda164"/><path d="M246.50046,204.54698c0.91106,-0.95047 1.92093,-1.46092 2.25559,-1.14013c0.33467,0.32079 -0.13258,1.35137 -1.04363,2.30185c-0.91106,0.95045 -1.92092,1.46091 -2.25557,1.14012c-0.33466,-0.3208 0.13259,-1.35137 1.04364,-2.30184z" fill="#eda164"/><path d="M247.51116,206.40977c0.67491,-1.13045 1.54472,-1.85422 1.94276,-1.61657c0.39803,0.23762 0.17357,1.34669 -0.50134,2.47713c-0.67491,1.13042 -1.54474,1.85416 -1.94277,1.61653c-0.39805,-0.23764 -0.17363,-1.34672 0.50129,-2.47716z" fill="#eda164"/><path d="M249.16569,206.94177c0.58713,-1.1784 1.39948,-1.96615 1.8144,-1.75941c0.41494,0.20669 0.27535,1.32964 -0.31177,2.50806c-0.58712,1.17845 -1.39948,1.96615 -1.8144,1.75941c-0.41491,-0.20673 -0.27534,-1.32967 0.31179,-2.50811z" fill="#eda164"/><path d="M250.81521,207.40212c0.34077,-1.27172 0.98003,-2.20538 1.42781,-2.0854c0.44778,0.11997 0.53457,1.2482 0.19379,2.51994c-0.34079,1.27173 -0.98003,2.20539 -1.42781,2.0854c-0.4478,-0.12 -0.53455,-1.24823 -0.19377,-2.51997z" fill="#eda164"/><path d="M250.1224,205.57177c-1.30289,-0.64911 -1.75317,-2.3916 -1.00567,-3.89194c0.74751,-1.5003 2.40966,-2.19033 3.71258,-1.54119c1.30289,0.64911 1.75315,2.39156 1.00565,3.8919c-0.74748,1.5003 -2.40966,2.19033 -3.71259,1.5412z" fill="#131313"/></g><g stroke-linecap="butt"><g fill="#9c0000" stroke="#000000" stroke-width="1.5"><path d="M236.92238,156.92839c-0.18961,1.37111 -2.26365,0.05699 -3.75236,-1.13998c-1.67389,0.53162 -3.85455,-0.51985 -2.83881,-2.55066c0.39928,-0.7983 1.28988,-0.9091 2.13669,-0.6421c0.03008,0.00645 0.86128,0.16573 1.55092,0.60851c1.37519,0.88293 3.06986,2.52174 2.90357,3.72423z"/><path d="M243.85117,153.9549c0.68964,-0.44278 1.52084,-0.60206 1.55092,-0.60851c0.8468,-0.267 1.7374,-0.1562 2.13669,0.6421c1.01574,2.03081 -1.16492,3.08228 -2.83881,2.55066c-1.48871,1.19697 -3.56275,2.51108 -3.75236,1.13997c-0.16629,-1.20249 1.52838,-2.8413 2.90357,-3.72422z"/></g><g fill="#b5c7b2" stroke="none" stroke-width="0.5"><path d="M236.92238,156.92839c-0.18961,1.37111 -2.26365,0.05699 -3.75236,-1.13998c-1.67389,0.53162 -3.85455,-0.51985 -2.83881,-2.55066c0.39928,-0.7983 1.28988,-0.9091 2.13669,-0.6421c0.03008,0.00645 0.86128,0.16573 1.55092,0.60851c1.37519,0.88293 3.06986,2.52174 2.90357,3.72423z"/><path d="M243.85117,153.9549c0.68964,-0.44278 1.52084,-0.60206 1.55092,-0.60851c0.8468,-0.267 1.7374,-0.1562 2.13669,0.6421c1.01574,2.03081 -1.16492,3.08228 -2.83881,2.55066c-1.48871,1.19697 -3.56275,2.51108 -3.75236,1.13997c-0.16629,-1.20249 1.52838,-2.8413 2.90357,-3.72422z"/></g></g><path d="M234.42881,159.81412c0,-0.41422 0.33578,-0.75 0.75,-0.75c0.41422,0 0.75,0.33578 0.75,0.75c0,0.41422 -0.33578,0.75 -0.75,0.75c-0.41422,0 -0.75,-0.33578 -0.75,-0.75z" fill="#9c9c9c" stroke="none" stroke-width="0.5" stroke-linecap="butt"/><path d="M233.58878,162.87425c0,-0.41422 0.33578,-0.75 0.75,-0.75c0.41422,0 0.75,0.33578 0.75,0.75c0,0.41422 -0.33578,0.75 -0.75,0.75c-0.41422,0 -0.75,-0.33578 -0.75,-0.75z" fill="#9c9c9c" stroke="none" stroke-width="0.5" stroke-linecap="butt"/><path d="M233.10876,166.23438c0,-0.41422 0.33578,-0.75 0.75,-0.75c0.41422,0 0.75,0.33578 0.75,0.75c0,0.41422 -0.33578,0.75 -0.75,0.75c-0.41422,0 -0.75,-0.33578 -0.75,-0.75z" fill="#9c9c9c" stroke="none" stroke-width="0.5" stroke-linecap="butt"/><path d="M232.38873,170.19454c0,-0.41422 0.33578,-0.75 0.75,-0.75c0.41422,0 0.75,0.33578 0.75,0.75c0,0.41422 -0.33578,0.75 -0.75,0.75c-0.41422,0 -0.75,-0.33578 -0.75,-0.75z" fill="#9c9c9c" stroke="none" stroke-width="0.5" stroke-linecap="butt"/><path d="M232.20872,174.75473c0,-0.41422 0.33578,-0.75 0.75,-0.75c0.41422,0 0.75,0.33578 0.75,0.75c0,0.41422 -0.33578,0.75 -0.75,0.75c-0.41422,0 -0.75,-0.33578 -0.75,-0.75z" fill="#9c9c9c" stroke="none" stroke-width="0.5" stroke-linecap="butt"/><path d="M232.20872,179.0749c0,-0.41422 0.33578,-0.75 0.75,-0.75c0.41422,0 0.75,0.33578 0.75,0.75c0,0.41422 -0.33578,0.75 -0.75,0.75c-0.41422,0 -0.75,-0.33578 -0.75,-0.75z" fill="#9c9c9c" stroke="none" stroke-width="0.5" stroke-linecap="butt"/><path d="M232.50874,182.91505c0,-0.41422 0.33578,-0.75 0.75,-0.75c0.41422,0 0.75,0.33578 0.75,0.75c0,0.41422 -0.33578,0.75 -0.75,0.75c-0.41422,0 -0.75,-0.33578 -0.75,-0.75z" fill="#9c9c9c" stroke="none" stroke-width="0.5" stroke-linecap="butt"/><path d="M233.10876,187.71524c0,-0.41422 0.33578,-0.75 0.75,-0.75c0.41422,0 0.75,0.33578 0.75,0.75c0,0.41422 -0.33578,0.75 -0.75,0.75c-0.41422,0 -0.75,-0.33578 -0.75,-0.75z" fill="#9c9c9c" stroke="none" stroke-width="0.5" stroke-linecap="butt"/><path d="M233.82879,191.79541c0,-0.41422 0.33578,-0.75 0.75,-0.75c0.41422,0 0.75,0.33578 0.75,0.75c0,0.41422 -0.33578,0.75 -0.75,0.75c-0.41422,0 -0.75,-0.33578 -0.75,-0.75z" fill="#9c9c9c" stroke="none" stroke-width="0.5" stroke-linecap="butt"/><path d="M232.62874,194.55552c0,-0.41422 0.33578,-0.75 0.75,-0.75c0.41422,0 0.75,0.33578 0.75,0.75c0,0.41422 -0.33578,0.75 -0.75,0.75c-0.41422,0 -0.75,-0.33578 -0.75,-0.75z" fill="#9c9c9c" stroke="none" stroke-width="0.5" stroke-linecap="butt"/><path d="M244.98924,194.25551c0,-0.41422 0.33578,-0.75 0.75,-0.75c0.41422,0 0.75,0.33578 0.75,0.75c0,0.41422 -0.33578,0.75 -0.75,0.75c-0.41422,0 -0.75,-0.33578 -0.75,-0.75z" fill="#9c9c9c" stroke="none" stroke-width="0.5" stroke-linecap="butt"/><path d="M244.26921,191.5554c0,-0.41422 0.33578,-0.75 0.75,-0.75c0.41422,0 0.75,0.33578 0.75,0.75c0,0.41422 -0.33578,0.75 -0.75,0.75c-0.41422,0 -0.75,-0.33578 -0.75,-0.75z" fill="#9c9c9c" stroke="none" stroke-width="0.5" stroke-linecap="butt"/><path d="M244.1492,188.49528c0,-0.41422 0.33578,-0.75 0.75,-0.75c0.41422,0 0.75,0.33578 0.75,0.75c0,0.41422 -0.33578,0.75 -0.75,0.75c-0.41422,0 -0.75,-0.33578 -0.75,-0.75z" fill="#9c9c9c" stroke="none" stroke-width="0.5" stroke-linecap="butt"/><path d="M243.96919,185.25515c0,-0.41422 0.33578,-0.75 0.75,-0.75c0.41422,0 0.75,0.33578 0.75,0.75c0,0.41422 -0.33578,0.75 -0.75,0.75c-0.41422,0 -0.75,-0.33578 -0.75,-0.75z" fill="#9c9c9c" stroke="none" stroke-width="0.5" stroke-linecap="butt"/><path d="M243.66918,182.25503c0,-0.41422 0.33578,-0.75 0.75,-0.75c0.41422,0 0.75,0.33578 0.75,0.75c0,0.41422 -0.33578,0.75 -0.75,0.75c-0.41422,0 -0.75,-0.33578 -0.75,-0.75z" fill="#9c9c9c" stroke="none" stroke-width="0.5" stroke-linecap="butt"/><path d="M243.90919,179.0149c0,-0.41422 0.33578,-0.75 0.75,-0.75c0.41422,0 0.75,0.33578 0.75,0.75c0,0.41422 -0.33578,0.75 -0.75,0.75c-0.41422,0 -0.75,-0.33578 -0.75,-0.75z" fill="#9c9c9c" stroke="none" stroke-width="0.5" stroke-linecap="butt"/><path d="M244.0892,174.93473c0,-0.41422 0.33578,-0.75 0.75,-0.75c0.41422,0 0.75,0.33578 0.75,0.75c0,0.41422 -0.33578,0.75 -0.75,0.75c-0.41422,0 -0.75,-0.33578 -0.75,-0.75z" fill="#9c9c9c" stroke="none" stroke-width="0.5" stroke-linecap="butt"/><path d="M243.54918,170.61456c0,-0.41422 0.33578,-0.75 0.75,-0.75c0.41422,0 0.75,0.33578 0.75,0.75c0,0.41422 -0.33578,0.75 -0.75,0.75c-0.41422,0 -0.75,-0.33578 -0.75,-0.75z" fill="#9c9c9c" stroke="none" stroke-width="0.5" stroke-linecap="butt"/><path d="M242.76915,167.19442c0,-0.41422 0.33578,-0.75 0.75,-0.75c0.41422,0 0.75,0.33578 0.75,0.75c0,0.41422 -0.33578,0.75 -0.75,0.75c-0.41422,0 -0.75,-0.33578 -0.75,-0.75z" fill="#9c9c9c" stroke="none" stroke-width="0.5" stroke-linecap="butt"/><path d="M242.22912,163.47427c0,-0.41422 0.33578,-0.75 0.75,-0.75c0.41422,0 0.75,0.33578 0.75,0.75c0,0.41422 -0.33578,0.75 -0.75,0.75c-0.41422,0 -0.75,-0.33578 -0.75,-0.75z" fill="#9c9c9c" stroke="none" stroke-width="0.5" stroke-linecap="butt"/><path d="M242.16912,160.71416c0,-0.41422 0.33578,-0.75 0.75,-0.75c0.41422,0 0.75,0.33578 0.75,0.75c0,0.41422 -0.33578,0.75 -0.75,0.75c-0.41422,0 -0.75,-0.33578 -0.75,-0.75z" fill="#9c9c9c" stroke="none" stroke-width="0.5" stroke-linecap="butt"/><path d="M234.54882,156.15398c0,-0.41422 0.33578,-0.75 0.75,-0.75c0.41422,0 0.75,0.33578 0.75,0.75c0,0.41422 -0.33578,0.75 -0.75,0.75c-0.41422,0 -0.75,-0.33578 -0.75,-0.75z" fill="#9c9c9c" stroke="none" stroke-width="0.5" stroke-linecap="butt"/><path d="M231.90871,153.93389c0,-0.41422 0.33578,-0.75 0.75,-0.75c0.41422,0 0.75,0.33578 0.75,0.75c0,0.41422 -0.33578,0.75 -0.75,0.75c-0.41422,0 -0.75,-0.33578 -0.75,-0.75z" fill="#9c9c9c" stroke="none" stroke-width="0.5" stroke-linecap="butt"/><path d="M241.38909,156.81401c0,-0.41422 0.33578,-0.75 0.75,-0.75c0.41422,0 0.75,0.33578 0.75,0.75c0,0.41422 -0.33578,0.75 -0.75,0.75c-0.41422,0 -0.75,-0.33578 -0.75,-0.75z" fill="#9c9c9c" stroke="none" stroke-width="0.5" stroke-linecap="butt"/><path d="M244.44921,155.19394c0,-0.41422 0.33578,-0.75 0.75,-0.75c0.41422,0 0.75,0.33578 0.75,0.75c0,0.41422 -0.33578,0.75 -0.75,0.75c-0.41422,0 -0.75,-0.33578 -0.75,-0.75z" fill="#9c9c9c" stroke="none" stroke-width="0.5" stroke-linecap="butt"/><path d="M232.02872,158.49408c0,-0.41422 0.33578,-0.75 0.75,-0.75c0.41422,0 0.75,0.33578 0.75,0.75c0,0.41422 -0.33578,0.75 -0.75,0.75c-0.41422,0 -0.75,-0.33578 -0.75,-0.75z" fill="#9c9c9c" stroke="none" stroke-width="0.5" stroke-linecap="butt"/><path d="M244.80923,159.63412c0,-0.41422 0.33578,-0.75 0.75,-0.75c0.41422,0 0.75,0.33578 0.75,0.75c0,0.41422 -0.33578,0.75 -0.75,0.75c-0.41422,0 -0.75,-0.33578 -0.75,-0.75z" fill="#9c9c9c" stroke="none" stroke-width="0.5" stroke-linecap="butt"/><g stroke-linecap="butt"><g><path d="M224.96937,201.81883l-2.08507,-3.66341l7.32683,-4.17014l2.08507,3.66341z" fill="#c70000" stroke="#000000" stroke-width="1.5"/><path d="M224.96937,201.81883l-2.08507,-3.66341l7.32682,-4.17014l2.08507,3.66341z" fill="#b5c7b2" stroke="none" stroke-width="0"/></g><path d="M226.93843,198.27304c-0.20489,-0.35999 -0.07916,-0.81792 0.28083,-1.02281c0.35999,-0.20489 0.81792,-0.07916 1.02281,0.28083c0.20489,0.35999 0.07916,0.81792 -0.28083,1.02281c-0.35999,0.20489 -0.81792,0.07916 -1.02281,-0.28083z" fill="#9c9c9c" stroke="none" stroke-width="0.5"/><path d="M224.5105,199.65492c-0.20489,-0.35999 -0.07916,-0.81792 0.28083,-1.02281c0.35999,-0.20489 0.81792,-0.07916 1.02281,0.28083c0.20489,0.35999 0.07916,0.81792 -0.28083,1.02281c-0.35999,0.20489 -0.81792,0.07916 -1.02281,-0.28083z" fill="#9c9c9c" stroke="none" stroke-width="0.5"/><path d="M229.10244,197.04137c-0.20489,-0.35999 -0.07916,-0.81792 0.28083,-1.02281c0.35999,-0.20489 0.81792,-0.07916 1.02281,0.28083c0.20489,0.35999 0.07916,0.81792 -0.28083,1.02281c-0.35999,0.20489 -0.81792,0.07916 -1.02281,-0.28083z" fill="#9c9c9c" stroke="none" stroke-width="0.5"/></g><g stroke-linecap="butt"><g><path d="M249.65995,197.61911l1.43455,-3.9636l7.92722,2.8691l-1.43455,3.96361z" fill="#c70000" stroke="#000000" stroke-width="1.5"/><path d="M249.65996,197.61911l1.43455,-3.96361l7.92721,2.86911l-1.43455,3.96361z" fill="#b5c7b2" stroke="none" stroke-width="0"/></g><path d="M254.08559,197.77709c-0.38949,-0.14097 -0.59095,-0.57099 -0.44999,-0.96048c0.14097,-0.38949 0.57099,-0.59095 0.96048,-0.44998c0.38949,0.14097 0.59095,0.57098 0.44999,0.96047c-0.14097,0.38949 -0.57099,0.59095 -0.96048,0.44999z" fill="#9c9c9c" stroke="none" stroke-width="0.5"/><path d="M256.71247,198.72784c-0.38949,-0.14097 -0.59095,-0.57099 -0.44999,-0.96048c0.14097,-0.38949 0.57098,-0.59095 0.96047,-0.44999c0.38949,0.14097 0.59095,0.57099 0.44999,0.96048c-0.14097,0.38949 -0.57098,0.59095 -0.96047,0.44999z" fill="#9c9c9c" stroke="none" stroke-width="0.5"/><path d="M251.74425,196.92968c-0.38949,-0.14097 -0.59095,-0.57099 -0.44998,-0.96047c0.14097,-0.38949 0.57098,-0.59095 0.96047,-0.44999c0.38949,0.14097 0.59095,0.57098 0.44999,0.96047c-0.14097,0.38949 -0.57099,0.59095 -0.96048,0.44999z" fill="#9c9c9c" stroke="none" stroke-width="0.5"/></g><g stroke-linecap="butt"><g><path d="M229.81783,155.43153c0,0.27481 -0.0739,0.53237 -0.20292,0.75387l0.01542,0.00881l0.1875,0.75v1.11228l0.00934,0.01402l-0.00934,0.04206v0.0418l-0.08359,0.33437l-0.07477,0.33645l-0.01869,0.03739l-0.01045,0.0418l-0.01463,0.00836l-0.08837,0.17675l-0.01999,0.07997l-0.04138,0.18623l0.00775,0.02841l-0.02234,0.03724l-0.01879,0.08457l-0.0187,0.03739l-0.01045,0.0418l-0.01463,0.00836l-0.03186,0.06373l-0.15693,0.18308l-0.0615,0.1025l-0.23539,0.47077l-0.0797,0.09298l-0.00415,0.07472l-0.22501,0.19286l-0.00189,0.03404l-0.10358,0.08879l-0.08878,0.10358l-0.03404,0.00189l-0.19287,0.22501l-0.05361,0.00298l-0.02679,0.02679l-0.0807,0.04843l-0.0066,0.00565l-0.01696,0.00849l-0.08482,0.05089l-0.11345,0.11345l-0.0807,0.04842l-0.0066,0.00566l-0.01696,0.00848l-0.08482,0.05089l-0.11345,0.11345l-0.08071,0.04842l-0.0066,0.00566l-0.01696,0.00849l-0.14948,0.08969l-0.05691,0.09959l-0.18698,0.04674l-0.16527,0.09916l-0.052,-0.01418l-0.03444,0.02066l-0.29077,0.18504l-0.03965,0.01322l-0.03695,0.02217l-0.01626,-0.00444l-0.13405,0.04469l-0.08288,0.00637l-0.01964,0.03437l-0.3278,0.08194l-0.3182,0.11365l-0.04546,-0.02273l-0.05855,0.01464h-2.49592l-0.23392,-0.05848l-0.24042,-0.01849l-0.2269,-0.07564l-0.00982,-0.00625l-0.00147,-0.00037l-0.33646,-0.07476l-0.03738,-0.01869l-0.0418,-0.01045l-0.00836,-0.01463l-0.51753,-0.25877l-0.07197,-0.06169l-0.08926,-0.03188l-0.1492,-0.09947l-0.06774,-0.03387l-0.58697,-0.50312l-0.00329,-0.05914l-0.05142,-0.02938l-0.1875,-0.75v-0.65847l-0.00934,-0.01402l0.00934,-0.04205v-0.0418l0.08359,-0.33437l0.07477,-0.33645l0.01869,-0.03739l0.01045,-0.0418l0.01462,-0.00836l0.13546,-0.27092l0.04192,-0.12577l0.05797,-0.09108l0.02342,-0.10539l0.02796,-0.05592l0.04192,-0.12577l0.05796,-0.09108l0.02342,-0.1054l0.52944,-1.05888l0.0797,-0.09298l0.00415,-0.07472l0.07886,-0.0676l0.0177,-0.07078l0.05142,-0.02939l0.00329,-0.05913l0.34793,-0.29823l0.29823,-0.34794l0.05914,-0.00329l0.02939,-0.05142l0.38638,-0.0966l0.21228,-0.14151l0.18868,-0.06739l0.16902,-0.10756l0.12578,-0.04192l0.05592,-0.02796l0.10539,-0.02342l0.09108,-0.05797l0.12578,-0.04192l0.11965,-0.05983l0.00835,-0.01463l0.0418,-0.01045l0.03738,-0.01869l0.33645,-0.07477l0.16911,-0.04227l0.21325,-0.0853l0.04469,-0.00609l0.03805,-0.02421l0.2269,-0.07564l0.11863,-0.00913l0.10912,-0.04744l0.33771,-0.05629l0.34215,-0.11405l0.05864,-0.00451l0.0519,-0.02768l0.05048,-0.01262l0.01072,-0.00715l0.05684,-0.0203l0.02522,-0.04413l0.3278,-0.08195l0.3182,-0.11364l0.0189,0.00946l0.1755,-0.06267l0.22651,-0.12081l0.14279,-0.0357l0.004,-0.002l0.03594,-0.00799l0.11981,-0.02995h0.01497l0.16573,-0.03683l0.33437,-0.08359h0.04179l0.04206,-0.00935l0.01402,0.00935h0.35593c0.25567,0 0.4964,0.06396 0.70706,0.17676l0.04294,0.01074l0.0113,0.01977c0.44211,0.26092 0.7387,0.74219 0.7387,1.29273z" fill="#c70000" stroke="#000000" stroke-width="1.5"/><path d="M229.81783,155.43153c0,0.27481 -0.0739,0.53237 -0.20292,0.75387l0.01542,0.00881l0.1875,0.75v1.11228l0.00934,0.01402l-0.00934,0.04206v0.0418l-0.08359,0.33437l-0.07477,0.33645l-0.01869,0.03739l-0.01045,0.0418l-0.01463,0.00836l-0.08837,0.17675l-0.01999,0.07997l-0.04138,0.18623l0.00775,0.02841l-0.02234,0.03724l-0.01879,0.08457l-0.0187,0.03739l-0.01045,0.0418l-0.01463,0.00836l-0.03186,0.06373l-0.15693,0.18308l-0.0615,0.1025l-0.23539,0.47077l-0.0797,0.09298l-0.00415,0.07472l-0.22501,0.19287l-0.00189,0.03403l-0.10358,0.08878l-0.08878,0.10358l-0.03404,0.00189l-0.19287,0.22501l-0.05361,0.00298l-0.02679,0.02679l-0.0807,0.04843l-0.0066,0.00565l-0.01696,0.00848l-0.08482,0.05089l-0.11345,0.11345l-0.0807,0.04842l-0.0066,0.00566l-0.01696,0.00848l-0.08482,0.05089l-0.11345,0.11345l-0.08071,0.04843l-0.0066,0.00565l-0.01696,0.00848l-0.14948,0.08969l-0.05691,0.09959l-0.18698,0.04674l-0.16527,0.09916l-0.052,-0.01418l-0.03444,0.02066l-0.29077,0.18504l-0.03965,0.01322l-0.03695,0.02217l-0.01626,-0.00444l-0.13405,0.04469l-0.08288,0.00637l-0.01964,0.03437l-0.3278,0.08194l-0.3182,0.11365l-0.04546,-0.02273l-0.05855,0.01464h-2.49592l-0.23392,-0.05848l-0.24042,-0.01849l-0.2269,-0.07564l-0.00982,-0.00625l-0.00147,-0.00037l-0.33646,-0.07476l-0.03738,-0.01869l-0.0418,-0.01045l-0.00836,-0.01463l-0.51753,-0.25877l-0.07197,-0.06169l-0.08926,-0.03188l-0.1492,-0.09947l-0.06774,-0.03387l-0.58697,-0.50312l-0.00329,-0.05914l-0.05142,-0.02938l-0.1875,-0.75v-0.65847l-0.00934,-0.01402l0.00934,-0.04206v-0.0418l0.08359,-0.33437l0.07477,-0.33645l0.01869,-0.03739l0.01045,-0.0418l0.01462,-0.00836l0.13546,-0.27092l0.04192,-0.12578l0.05797,-0.09108l0.02342,-0.10539l0.02796,-0.05592l0.04192,-0.12578l0.05796,-0.09108l0.02342,-0.10539l0.52944,-1.05888l0.0797,-0.09298l0.00415,-0.07472l0.07886,-0.0676l0.0177,-0.07078l0.05142,-0.02938l0.00329,-0.05914l0.34793,-0.29823l0.29823,-0.34794l0.05914,-0.00328l0.02939,-0.05143l0.38638,-0.0966l0.21228,-0.14151l0.18868,-0.06739l0.16902,-0.10756l0.12578,-0.04192l0.05592,-0.02796l0.10539,-0.02342l0.09108,-0.05796l0.12578,-0.04192l0.11965,-0.05983l0.00835,-0.01463l0.0418,-0.01045l0.03738,-0.01869l0.33645,-0.07476l0.16911,-0.04228l0.21325,-0.0853l0.04469,-0.00609l0.03805,-0.02422l0.2269,-0.07563l0.11863,-0.00913l0.10912,-0.04745l0.33771,-0.05629l0.34215,-0.11405l0.05864,-0.00451l0.0519,-0.02768l0.05048,-0.01262l0.01072,-0.00715l0.05684,-0.0203l0.02522,-0.04413l0.3278,-0.08195l0.3182,-0.11364l0.0189,0.00945l0.1755,-0.06267l0.22651,-0.1208l0.14279,-0.0357l0.004,-0.00199l0.03594,-0.00799l0.11981,-0.02995h0.01497l0.16573,-0.03683l0.33437,-0.08359h0.04179l0.04206,-0.00934l0.01402,0.00934h0.35593c0.25567,0 0.4964,0.06396 0.70706,0.17676l0.04294,0.01074l0.0113,0.01977c0.44211,0.26092 0.7387,0.74219 0.7387,1.29273z" fill="#b5c7b2" stroke="none" stroke-width="0.5"/></g><g fill="#9c9c9c"><path d="M217.31651,157.19298l6.14903,0.91446l-1.51282,3.22709z" stroke="#000000" stroke-width="1.5"/><path d="M217.31651,157.19298l6.14903,0.91446l-1.51282,3.22709z" stroke="none" stroke-width="NaN"/></g><g fill="#9c9c9c"><path d="M221.06851,152.91969l5.05592,3.61727l-2.8177,2.1825z" stroke="#000000" stroke-width="1.5"/><path d="M221.06851,152.91969l5.05592,3.61727l-2.8177,2.1825z" stroke="none" stroke-width="NaN"/></g><g fill="#9c9c9c"><path d="M226.88458,151.08895l2.31095,5.77116l-3.54962,0.32084z" stroke="#000000" stroke-width="1.5"/><path d="M226.88458,151.08895l2.31095,5.77116l-3.54962,0.32084z" stroke="none" stroke-width="NaN"/></g></g><g stroke-linecap="butt"><g><path d="M248.83355,154.07133l0.0113,-0.01978l0.04294,-0.01074c0.21066,-0.1128 0.45139,-0.17676 0.70706,-0.17676h0.35593l0.01402,-0.00935l0.04206,0.00935h0.0418l0.33437,0.08359l0.16573,0.03683h0.01497l0.11981,0.02995l0.03594,0.00798l0.004,0.002l0.14279,0.0357l0.22651,0.1208l0.1755,0.06268l0.0189,-0.00946l0.3182,0.11364l0.3278,0.08195l0.02522,0.04413l0.05684,0.0203l0.01072,0.00715l0.05048,0.01261l0.0519,0.02768l0.05864,0.00451l0.34215,0.11405l0.33771,0.05629l0.10912,0.04744l0.11863,0.00913l0.2269,0.07564l0.03806,0.02421l0.04469,0.00609l0.21325,0.0853l0.16911,0.04228l0.33646,0.07477l0.03738,0.01869l0.0418,0.01045l0.00835,0.01463l0.11965,0.05982l0.12578,0.04192l0.09108,0.05796l0.10539,0.02342l0.05592,0.02796l0.12578,0.04193l0.16903,0.10756l0.18868,0.06739l0.21228,0.14151l0.38638,0.0966l0.02938,0.05142l0.05914,0.00329l0.29823,0.34794l0.34794,0.29823l0.00329,0.05913l0.05142,0.02939l0.0177,0.07078l0.07886,0.06759l0.00415,0.07472l0.0797,0.09298l0.52944,1.05888l0.02342,0.10539l0.05796,0.09108l0.04192,0.12577l0.02796,0.05592l0.02342,0.1054l0.05796,0.09108l0.04192,0.12577l0.13546,0.27092l0.01462,0.00836l0.01045,0.0418l0.01869,0.03739l0.07477,0.33645l0.08359,0.33437v0.0418l0.00935,0.04206l-0.00935,0.01402v0.65847l-0.1875,0.75l-0.05142,0.02938l-0.00329,0.05914l-0.58697,0.50311l-0.06774,0.03387l-0.1492,0.09947l-0.08926,0.03188l-0.07197,0.06169l-0.51753,0.25876l-0.00836,0.01463l-0.0418,0.01045l-0.03738,0.01869l-0.33646,0.07477l-0.00147,0.00037l-0.00982,0.00625l-0.2269,0.07564l-0.24042,0.01849l-0.23392,0.05849h-2.49592l-0.05855,-0.01464l-0.04546,0.02273l-0.3182,-0.11364l-0.3278,-0.08194l-0.01964,-0.03437l-0.08287,-0.00638l-0.13405,-0.04468l-0.01626,0.00444l-0.03695,-0.02217l-0.03965,-0.01322l-0.29078,-0.18504l-0.03444,-0.02066l-0.052,0.01418l-0.16527,-0.09916l-0.18698,-0.04675l-0.05691,-0.09959l-0.14948,-0.08969l-0.01696,-0.00849l-0.0066,-0.00565l-0.08071,-0.04842l-0.11345,-0.11346l-0.08482,-0.05089l-0.01696,-0.00848l-0.0066,-0.00565l-0.08071,-0.04843l-0.11345,-0.11345l-0.08482,-0.05089l-0.01696,-0.00849l-0.0066,-0.00565l-0.0807,-0.04843l-0.0268,-0.02679l-0.05361,-0.00298l-0.19287,-0.22501l-0.03403,-0.00189l-0.08878,-0.10358l-0.10358,-0.08879l-0.00189,-0.03403l-0.22501,-0.19287l-0.00415,-0.07472l-0.0797,-0.09298l-0.23538,-0.47077l-0.0615,-0.1025l-0.15693,-0.18307l-0.03187,-0.06373l-0.01463,-0.00836l-0.01045,-0.0418l-0.0187,-0.03739l-0.01879,-0.08457l-0.02234,-0.03723l0.00775,-0.02841l-0.04138,-0.18623l-0.02,-0.07997l-0.08837,-0.17675l-0.01463,-0.00836l-0.01045,-0.04179l-0.01869,-0.03739l-0.07477,-0.33645l-0.08359,-0.33437v-0.04179l-0.00934,-0.04206l0.00934,-0.01402v-1.11227l0.1875,-0.75l0.01542,-0.00881c-0.12902,-0.2215 -0.20292,-0.47906 -0.20292,-0.75387c0,-0.55053 0.29659,-1.0318 0.7387,-1.29272z" fill="#c70000" stroke="#000000" stroke-width="1.5"/><path d="M248.83355,154.07133l0.0113,-0.01978l0.04294,-0.01073c0.21066,-0.1128 0.45139,-0.17677 0.70706,-0.17677h0.35593l0.01402,-0.00934l0.04206,0.00934h0.0418l0.33437,0.08359l0.16573,0.03683h0.01497l0.11981,0.02995l0.03594,0.00799l0.004,0.00199l0.14279,0.0357l0.22651,0.1208l0.1755,0.06268l0.0189,-0.00945l0.3182,0.11364l0.3278,0.08195l0.02522,0.04413l0.05684,0.0203l0.01072,0.00715l0.05048,0.01261l0.0519,0.02768l0.05864,0.00451l0.34215,0.11405l0.33771,0.05629l0.10912,0.04745l0.11863,0.00912l0.2269,0.07563l0.03806,0.02422l0.04469,0.00609l0.21325,0.0853l0.16911,0.04228l0.33646,0.07477l0.03738,0.01869l0.0418,0.01045l0.00835,0.01463l0.11965,0.05982l0.12578,0.04193l0.09108,0.05796l0.10539,0.02342l0.05592,0.02796l0.12578,0.04193l0.16903,0.10756l0.18868,0.06739l0.21228,0.14151l0.38638,0.0966l0.02938,0.05143l0.05914,0.00329l0.29823,0.34794l0.34794,0.29823l0.00329,0.05914l0.05142,0.02938l0.0177,0.07078l0.07886,0.06759l0.00415,0.07472l0.0797,0.09298l0.52944,1.05888l0.02342,0.10539l0.05796,0.09108l0.04192,0.12578l0.02796,0.05592l0.02342,0.10539l0.05796,0.09108l0.04192,0.12578l0.13546,0.27092l0.01462,0.00836l0.01045,0.0418l0.01869,0.03739l0.07477,0.33645l0.08359,0.33437v0.0418l0.00935,0.04206l-0.00935,0.01402v0.65847l-0.1875,0.75l-0.05142,0.02938l-0.00329,0.05914l-0.58697,0.50311l-0.06774,0.03387l-0.1492,0.09947l-0.08926,0.03188l-0.07197,0.06169l-0.51753,0.25876l-0.00836,0.01463l-0.0418,0.01045l-0.03738,0.01869l-0.33646,0.07477l-0.00147,0.00037l-0.00982,0.00625l-0.2269,0.07564l-0.24042,0.01849l-0.23392,0.05849h-2.49592l-0.05855,-0.01464l-0.04546,0.02273l-0.3182,-0.11364l-0.3278,-0.08194l-0.01964,-0.03437l-0.08287,-0.00638l-0.13405,-0.04468l-0.01626,0.00444l-0.03695,-0.02217l-0.03965,-0.01322l-0.29078,-0.18504l-0.03444,-0.02066l-0.052,0.01418l-0.16527,-0.09916l-0.18698,-0.04675l-0.05691,-0.09959l-0.14948,-0.08969l-0.01696,-0.00848l-0.0066,-0.00565l-0.08071,-0.04843l-0.11345,-0.11345l-0.08482,-0.05089l-0.01696,-0.00848l-0.0066,-0.00565l-0.08071,-0.04843l-0.11345,-0.11345l-0.08482,-0.05089l-0.01696,-0.00848l-0.0066,-0.00565l-0.0807,-0.04843l-0.0268,-0.02679l-0.05361,-0.00298l-0.19287,-0.22501l-0.03403,-0.00189l-0.08878,-0.10358l-0.10358,-0.08878l-0.00189,-0.03404l-0.22501,-0.19287l-0.00415,-0.07472l-0.0797,-0.09298l-0.23538,-0.47077l-0.0615,-0.1025l-0.15693,-0.18307l-0.03187,-0.06373l-0.01463,-0.00836l-0.01045,-0.0418l-0.0187,-0.03739l-0.01879,-0.08457l-0.02234,-0.03723l0.00775,-0.02841l-0.04138,-0.18623l-0.02,-0.07997l-0.08837,-0.17675l-0.01463,-0.00836l-0.01045,-0.04179l-0.01869,-0.03739l-0.07477,-0.33645l-0.08359,-0.33437v-0.04179l-0.00934,-0.04206l0.00934,-0.01402v-1.11227l0.1875,-0.75l0.01542,-0.00881c-0.12902,-0.2215 -0.20292,-0.47906 -0.20292,-0.75387c0,-0.55053 0.29659,-1.0318 0.7387,-1.29272z" fill="#b5c7b2" stroke="none" stroke-width="0.5"/></g><g fill="#9c9c9c"><path d="M255.95996,161.26705l-1.51282,-3.22708l6.14903,-0.91446z" stroke="#000000" stroke-width="1.5"/><path d="M255.95996,161.26705l-1.51282,-3.22708l6.14903,-0.91446z" stroke="none" stroke-width="NaN"/></g><g fill="#9c9c9c"><path d="M254.60595,158.65198l-2.81769,-2.1825l5.05592,-3.61726z" stroke="#000000" stroke-width="1.5"/><path d="M254.60595,158.65198l-2.81769,-2.1825l5.05592,-3.61726z" stroke="none" stroke-width="NaN"/></g><g fill="#9c9c9c"><path d="M252.26677,157.11348l-3.54961,-0.32085l2.31095,-5.77116z" stroke="#000000" stroke-width="1.5"/><path d="M252.26677,157.11348l-3.54961,-0.32085l2.31095,-5.77116z" stroke="none" stroke-width="NaN"/></g></g><g stroke-linecap="butt"><g><path d="M217.16804,172.83351l1.33862,-3.99702l7.99405,2.67725l-1.33862,3.99702z" fill="#c70000" stroke="#000000" stroke-width="1.5"/><path d="M217.16804,172.83351l1.33862,-3.99702l7.99405,2.67724l-1.33862,3.99703z" fill="#b5c7b2" stroke="none" stroke-width="0"/></g><path d="M221.1232,171.93544c0.13154,-0.39277 0.55658,-0.60455 0.94935,-0.473c0.39277,0.13154 0.60454,0.55659 0.473,0.94936c-0.13154,0.39277 -0.55658,0.60454 -0.94935,0.473c-0.39277,-0.13154 -0.60454,-0.55658 -0.473,-0.94935z" fill="#9c9c9c" stroke="none" stroke-width="0.5"/><path d="M218.47417,171.04827c0.13154,-0.39277 0.55658,-0.60454 0.94935,-0.473c0.39277,0.13154 0.60455,0.55658 0.473,0.94935c-0.13154,0.39277 -0.55658,0.60455 -0.94935,0.473c-0.39277,-0.13154 -0.60455,-0.55659 -0.473,-0.94936z" fill="#9c9c9c" stroke="none" stroke-width="0.5"/><path d="M223.48428,172.72618c0.13154,-0.39277 0.55658,-0.60455 0.94935,-0.473c0.39277,0.13154 0.60455,0.55658 0.473,0.94935c-0.13154,0.39277 -0.55658,0.60455 -0.94935,0.473c-0.39277,-0.13154 -0.60455,-0.55658 -0.473,-0.94935z" fill="#9c9c9c" stroke="none" stroke-width="0.5"/></g><g stroke-linecap="butt"><g><path d="M253.38409,175.43504l-1.24835,-4.02613l8.05227,-2.4967l1.24835,4.02614z" fill="#c70000" stroke="#000000" stroke-width="1.5"/><path d="M253.3841,175.43503l-1.24835,-4.02614l8.05227,-2.49669l1.24835,4.02614z" fill="#b5c7b2" stroke="none" stroke-width="0"/></g><path d="M257.00817,172.88998c-0.39564,0.12267 -0.8158,-0.09861 -0.93848,-0.49424c-0.12267,-0.39563 0.09861,-0.8158 0.49425,-0.93847c0.39564,-0.12267 0.81579,0.0986 0.93847,0.49424c0.12267,0.39563 -0.09861,0.81579 -0.49424,0.93847z" fill="#9c9c9c" stroke="none" stroke-width="0.5"/><path d="M259.67648,172.06264c-0.39564,0.12267 -0.8158,-0.09861 -0.93848,-0.49425c-0.12267,-0.39563 0.09861,-0.81579 0.49424,-0.93847c0.39564,-0.12267 0.81579,0.09861 0.93847,0.49425c0.12267,0.39563 -0.0986,0.81579 -0.49423,0.93847z" fill="#9c9c9c" stroke="none" stroke-width="0.5"/><path d="M254.62989,173.62739c-0.39563,0.12267 -0.81579,-0.09862 -0.93846,-0.49425c-0.12267,-0.39563 0.0986,-0.81579 0.49423,-0.93847c0.39563,-0.12267 0.81579,0.0986 0.93847,0.49424c0.12267,0.39563 -0.09861,0.8158 -0.49424,0.93848z" fill="#9c9c9c" stroke="none" stroke-width="0.5"/></g><g fill="#0e894c" stroke-linecap="butt"><path d="M232.70704,141.42086l-3.71179,-6.17817c0,0 5.89229,-3.84429 9.12339,-4.51476c2.69072,-0.55833 8.94042,0.76646 8.94042,0.76646l-3.76907,8.02886c0,0 -4.29189,-0.53793 -6.00879,-0.28728c-1.94958,0.28463 -4.57416,2.18488 -4.57416,2.18488z" stroke="#000000" stroke-width="1.5"/><path d="M232.70704,141.42086l-3.71179,-6.17817c0,0 5.89229,-3.84429 9.12339,-4.51476c2.69072,-0.55833 8.94042,0.76646 8.94042,0.76646l-3.76907,8.02886c0,0 -4.29189,-0.53794 -6.00879,-0.28728c-1.94959,0.28463 -4.57416,2.18489 -4.57416,2.18489z" stroke="none" stroke-width="0"/></g><path d="M238.51381,142.88153l2.97238,0.35669" fill="none" stroke="#000000" stroke-width="1" stroke-linecap="round"/><path d="M244.07304,143.24371l2.97238,-0.35669" fill="none" stroke="#000000" stroke-width="1" stroke-linecap="round"/><g fill="#131313" stroke-linecap="butt"><path d="M231.10341,206.95764c-0.39381,1.57524 -2.73924,0.42845 -2.54776,-0.86864c0.24497,-1.65941 3.2032,-0.49784 2.54776,0.48533z" stroke="#000000" stroke-width="1.5"/><path d="M231.10341,206.95764c-0.39381,1.57524 -2.73924,0.42845 -2.54775,-0.86864c0.24498,-1.65941 3.2032,-0.49784 2.54775,0.48533z" stroke="none" stroke-width="0.5"/></g><g fill="#131313" stroke-linecap="butt"><path d="M233.22178,206.07316c-0.39381,1.57524 -2.73924,0.42845 -2.54775,-0.86864c0.24498,-1.65941 3.2032,-0.49784 2.54775,0.48533z" stroke="#000000" stroke-width="1.5"/><path d="M233.22178,206.07316c-0.39381,1.57524 -2.73924,0.42845 -2.54775,-0.86864c0.24498,-1.65941 3.2032,-0.49784 2.54775,0.48533z" stroke="none" stroke-width="0.5"/></g><g fill="#131313" stroke-linecap="butt"><path d="M235.0909,204.63753c-0.39381,1.57524 -2.73924,0.42845 -2.54775,-0.86863c0.24498,-1.65941 3.2032,-0.49784 2.54775,0.48533z" stroke="#000000" stroke-width="1.5"/><path d="M235.0909,204.63753c-0.39381,1.57524 -2.73924,0.42845 -2.54775,-0.86863c0.24498,-1.65941 3.2032,-0.49784 2.54775,0.48533z" stroke="none" stroke-width="0.5"/></g><g fill="#131313" stroke-linecap="butt"><path d="M251.4104,206.16026c-0.65544,-0.98317 2.30278,-2.14475 2.54775,-0.48533c0.19149,1.29709 -2.15394,2.44388 -2.54775,0.86864z" stroke="#000000" stroke-width="1.5"/><path d="M251.4104,206.16026c-0.65544,-0.98317 2.30278,-2.14475 2.54775,-0.48533c0.19149,1.29709 -2.15394,2.44388 -2.54775,0.86864z" stroke="none" stroke-width="0.5"/></g><g fill="#131313" stroke-linecap="butt"><path d="M249.29203,205.27578c-0.65544,-0.98317 2.30278,-2.14475 2.54775,-0.48533c0.19149,1.29709 -2.15394,2.44388 -2.54775,0.86863z" stroke="#000000" stroke-width="1.5"/><path d="M249.29203,205.27578c-0.65544,-0.98317 2.30278,-2.14475 2.54775,-0.48533c0.19149,1.29709 -2.15394,2.44388 -2.54775,0.86863z" stroke="none" stroke-width="0.5"/></g><g fill="#131313" stroke-linecap="butt"><path d="M247.4229,203.84014c-0.65544,-0.98317 2.30278,-2.14475 2.54775,-0.48533c0.19149,1.29709 -2.15394,2.44388 -2.54775,0.86864z" stroke="#000000" stroke-width="1.5"/><path d="M247.4229,203.84014c-0.65544,-0.98317 2.30278,-2.14475 2.54775,-0.48533c0.19149,1.29709 -2.15394,2.44388 -2.54775,0.86864z" stroke="none" stroke-width="0.5"/></g></g></g></svg>