<svg viewBox="0,0,72.90414,98.67354" height="98.67354" width="72.90414" xmlns:xlink="http://www.w3.org/1999/xlink" xmlns="http://www.w3.org/2000/svg" version="1.1"><g transform="translate(-220.16912,-133.21723)"><g style="mix-blend-mode: normal" stroke-dashoffset="0" stroke-dasharray="" stroke-miterlimit="10" stroke-linejoin="miter" stroke-linecap="butt" stroke-width="2.5" stroke="#000000" fill-rule="nonzero" data-paper-data="{&quot;isPaintingLayer&quot;:true}"><path fill="#ff0000" d="M221.41913,198.47706v-34.21439h14.25599v34.21439z"></path><path fill="#ff0000" d="M267.29395,221.66317c0,9.97294 -3.62374,8.39192 -7.82288,8.39192c-4.19913,0 -7.38352,1.58102 -7.38352,-8.39192c0,-5.18953 -1.23327,-13.39415 0.24259,-16.68799c1.36037,-3.03608 5.34653,-2.15324 7.3606,-2.15324c2.07714,0 5.72293,-1.15634 7.0952,2.05011c1.4019,3.27568 0.508,11.7514 0.508,16.79113z"></path><path fill="#ff0000" d="M246.82563,222.15723c0,9.97294 -3.62375,8.39192 -7.82288,8.39192c-4.19913,0 -7.38352,1.58102 -7.38352,-8.39192c0,-5.18953 -1.23327,-13.39415 0.24259,-16.68799c1.36037,-3.03608 5.34654,-2.15324 7.3606,-2.15324c2.07714,0 5.72293,-1.15634 7.0952,2.05011c1.4019,3.27568 0.508,11.75141 0.508,16.79113z"></path><path fill="#ff0000" d="M270.83988,186.57514c0,23.87044 -9.94276,20.40044 -21.62159,20.40044c-11.67883,0 -20.67119,3.47001 -20.67119,-20.40044c0,-23.87044 9.46756,-43.22126 21.14639,-43.22126c11.67883,0 21.14639,19.35082 21.14639,43.22126z"></path><path fill="#00ffe5" d="M248.03033,171.86587v-10.9296h19.48319v10.9296z"></path><g><path fill="#ff8000" d="M288.67427,154.58828l-6.28414,0.79527l-1.82698,-14.43654l6.28414,-0.79527z"></path><path fill="#d2d2d2" d="M291.43907,174.25555c0,0 -3.36991,-2.76405 -4.82596,-6.4643c-1.56893,-3.98712 -4.41801,-12.03789 -4.41801,-12.03789l6.79366,-0.85976z"></path></g><path fill="#ff0000" d="M291.01289,142.07043c0,4.19913 -3.61682,7.6032 -8.0784,7.6032c-4.46158,0 -8.0784,-3.40407 -8.0784,-7.6032c0,-4.19913 3.61682,-7.6032 8.0784,-7.6032c4.46158,0 8.0784,3.40407 8.0784,7.6032z"></path></g></g></svg>