<svg version="1.1" xmlns="http://www.w3.org/2000/svg" xmlns:xlink="http://www.w3.org/1999/xlink" width="73.1746" height="198.49803" viewBox="0,0,73.1746,198.49803"><g transform="translate(-202.99056,-81.75098)"><g stroke-miterlimit="10"><g><g fill="none"><g stroke="#3e0909" stroke-width="4" stroke-linecap="round"><path d="M233.17917,259.09164l1.0299,-48.81356"/><path d="M204.99056,239.86233l29.00848,-19.62893l30.1155,19.26992"/><path d="M218.66954,276.77746l13.9216,-20.26851l10.14373,21.74007"/></g><g stroke="none" stroke-width="1" stroke-linecap="butt" font-family="sans-serif" font-weight="normal" font-size="12" text-anchor="start"><g/></g></g><g stroke="#3e0909"><path d="M241.74349,122.1649c17.67124,-0.50194 32.29885,18.37765 32.67167,42.16879c0.37283,23.79115 -13.6503,43.48459 -31.32151,43.98655c-17.67125,0.50195 -32.29885,-18.37765 -32.6717,-42.16875c-0.37286,-23.79115 13.65026,-43.48461 31.32149,-43.98656z" fill="#f20000" stroke-width="3.5" stroke-linecap="butt"/><path d="M210.77401,153.76051c0,0 6.63275,-36.4999 10.68948,-49.74642c2.89395,-9.44968 11.3633,-22.26311 11.3633,-22.26311c0,0 -4.41721,17.89903 -5.40379,26.72605c-0.94042,8.41417 -0.38377,25.05695 -0.38377,25.05695z" fill="#3e0909" stroke-width="NaN" stroke-linecap="butt"/><path d="M257.3364,135.98629c0,0 -0.6376,-16.63987 -2.17864,-24.96502c-1.61668,-8.73364 -7.30536,-26.27003 -7.30536,-26.27003c0,0 9.36592,12.17345 12.92969,21.39144c4.99569,12.92176 14.22735,48.85237 14.22735,48.85237z" fill="#3e0909" stroke-width="NaN" stroke-linecap="butt"/><g><path d="M235.40738,192.27941c0,0 5.89604,-2.06967 8.40616,-2.10832c2.81601,-0.04336 7.67799,1.86065 7.67799,1.86065" fill="none" stroke-width="3.5" stroke-linecap="round"/><path d="M228.05067,166.20804c0,0 3.86244,-1.26347 5.84722,-1.7481c1.9613,-0.47889 5.99186,-1.14265 5.99186,-1.14265" fill="none" stroke-width="2" stroke-linecap="round"/><path d="M235.5707,172.34564c3.07495,0 5.5677,2.49274 5.5677,5.5677c0,3.07495 -2.49274,5.5677 -5.5677,5.5677c-3.07495,0 -5.5677,-2.49274 -5.5677,-5.5677c0,-3.07495 2.49274,-5.5677 5.5677,-5.5677z" fill="#dfff00" stroke-width="3.5" stroke-linecap="butt"/><g><path d="M259.31089,160.12099c0,0 4.03056,0.66376 5.99186,1.14265c1.98479,0.48462 5.84722,1.7481 5.84722,1.7481" fill="none" stroke-width="2" stroke-linecap="round"/><path d="M269.7798,177.04567c0,3.07495 -2.49274,5.5677 -5.56771,5.5677c-3.07496,0 -5.5677,-2.49273 -5.5677,-5.5677c0,-3.07496 2.49274,-5.56771 5.5677,-5.56771c3.07496,0 5.56771,2.49274 5.56771,5.56771z" fill="#dfff00" stroke-width="3.5" stroke-linecap="butt"/></g></g></g></g></g></g></svg>