<svg viewBox="0,0,51.92078,89.78689" height="89.78689" width="51.92078" xmlns:xlink="http://www.w3.org/1999/xlink" xmlns="http://www.w3.org/2000/svg" version="1.1"><g transform="translate(-220.16908,-142.10388)"><g style="mix-blend-mode: normal" stroke-dashoffset="0" stroke-dasharray="" stroke-miterlimit="10" stroke-linejoin="miter" stroke-linecap="butt" stroke-width="2.5" stroke="#000000" fill-rule="nonzero" data-paper-data="{&quot;isPaintingLayer&quot;:true}"><g><path fill="#ff0000" d="M221.41908,198.47706v-34.21439h14.25599v34.21439z"></path><path fill="#ff0000" d="M267.2939,221.66317c0,9.97294 -3.62374,8.39192 -7.82288,8.39192c-4.19913,0 -7.38352,1.58102 -7.38352,-8.39192c0,-5.18953 -1.23327,-13.39415 0.24259,-16.68799c1.36037,-3.03608 5.34653,-2.15324 7.3606,-2.15324c2.07714,0 5.72293,-1.15634 7.0952,2.05011c1.4019,3.27568 0.508,11.7514 0.508,16.79113z"></path><path fill="#ff0000" d="M246.82557,222.15723c0,9.97294 -3.62375,8.39192 -7.82288,8.39192c-4.19913,0 -7.38352,1.58102 -7.38352,-8.39192c0,-5.18953 -1.23327,-13.39415 0.24259,-16.68799c1.36037,-3.03608 5.34654,-2.15324 7.3606,-2.15324c2.07714,0 5.72293,-1.15634 7.0952,2.05011c1.4019,3.27568 0.508,11.75141 0.508,16.79113z"></path><path fill="#ff0000" d="M270.83987,186.57514c0,23.87044 -9.94276,20.40044 -21.62159,20.40044c-11.67883,0 -20.67119,3.47001 -20.67119,-20.40044c0,-23.87044 9.46756,-43.22126 21.14639,-43.22126c11.67883,0 21.14639,19.35082 21.14639,43.22126z"></path><path fill="#00ffe5" d="M248.03027,171.86587v-10.9296h19.48319v10.9296z"></path></g></g></g></svg>