<svg version="1.1" xmlns="http://www.w3.org/2000/svg" xmlns:xlink="http://www.w3.org/1999/xlink" width="134.70439" height="60.65708" viewBox="0,0,134.70439,60.65708"><g transform="translate(-205.00251,-150.42626)"><g stroke-miterlimit="10"><path d="M214.08305,180c0,-14.31354 11.60342,-25.91695 25.91695,-25.91695c14.31354,0 25.91695,11.60342 25.91695,25.91695c0,14.31354 -11.60342,25.91695 -25.91695,25.91695c-14.31354,0 -25.91695,-11.60342 -25.91695,-25.91695z" fill="#ffcf8c" stroke="#b38d57" stroke-width="3.5" stroke-linecap="butt"/><path d="M245.00897,180.88175h20.8894" fill="none" stroke="#b38d57" stroke-width="3.5" stroke-linecap="round"/><path d="M255.73596,172.13079c0,0 1.41145,5.43433 1.41145,9.59783c0,4.21055 -1.69374,7.9041 -1.69374,7.9041" fill="none" stroke="#b38d57" stroke-width="3.5" stroke-linecap="round"/><path d="M235.66605,167.35846c0.3235,0.21567 1.92515,1.19084 1.98874,1.5468c0.14968,0.83783 -0.97555,2.66961 -0.13294,2.54981c6.55091,-0.93135 1.54235,7.51578 0.5193,10.09435c-0.15225,0.38374 0.76809,0.41779 0.95884,0.78392c0.33057,0.63449 0.34827,1.43066 0.3125,2.125c-0.02796,0.54276 -0.81727,2.87374 -0.57365,3.04541c0.80678,0.56852 1.77592,0.65444 1.96423,2.06483c0.19695,1.4751 -0.91446,3.00592 -1.38118,4.33561c-0.25564,0.72831 0.83777,1.38583 0.84048,2.1577c0.0087,2.4744 -4.73933,14.22364 -7.84987,14.39645c-3.04713,0.16928 -1.52444,-2.93635 -2.38887,-3.82464c-0.08245,-0.08473 -0.16794,-0.16216 -0.25585,-0.2338c-0.52426,2.25224 -1.41129,4.68344 -3.23029,4.68344c-4.20539,0 -1.27695,-4.72681 -3.11911,-5.77947c-0.53446,-0.3054 -1.72933,-1.08688 -1.8776,-1.67996c-0.01542,-0.06167 0.07135,-0.22948 0.02199,-0.18943c-2.47527,2.00893 -4.11108,4.29266 -6.08163,0.4132c-0.54096,-1.065 -2.36247,-0.46828 -2.69365,-2.38934c-0.25003,-1.45035 0.71692,-3.04475 0.81675,-4.44976c0.0483,-0.67982 -1.2998,-0.54234 -1.75425,-1.05024c-1.05171,-1.17544 0.34861,-4.25676 0.54747,-5.19764c0.129,-0.61032 -1.14902,-0.5724 -1.54747,-1.05236c-0.62707,-0.75533 -0.3268,-2.38097 -0.23762,-3.27346c0.03308,-0.33104 -2.26082,-1.43475 -2.18057,-2.78663c0.03544,-0.59698 0.16811,-1.37332 0.37572,-2.27293c-0.50527,-0.07975 -0.99411,-0.33425 -1.48594,-0.82608c-0.53741,-0.53741 -0.80305,-0.81158 -0.90909,-1.59091c-0.31856,-2.34117 1.88104,-3.65972 2.34082,-5.67717c0.145,-0.63621 -2.28701,-1.53864 -1.57689,-3.44087c0.43501,-1.16529 3.055,-3.47759 3.01835,-4.35302c-0.03763,-0.89869 -1.53521,1.46431 -2.40299,1.22765c-2.08778,-0.56939 -2.46655,-1.01652 -2.68497,-3.1695c-0.12408,-1.22309 2.47354,-2.55353 3.31265,-2.94816c3.88594,-1.82756 8.05222,-3.31561 11.71349,-5.40777c0.43488,-0.73685 1.23698,-1.23117 2.15454,-1.23117c0.82263,0 1.55247,0.39733 2.00806,1.01055c1.77737,-1.60129 1.14343,-2.94397 4.40723,-2.36323c0.2551,0.04539 0.76546,-1.2769 1.07478,-1.57517c0.50232,-0.48438 1.74542,-0.62864 2.44674,-0.60095c1.53438,0.06057 2.77153,6.63764 2.86174,7.66388c0.08312,0.94562 2.66018,0.65165 2.13214,3.02784c-0.22236,1.0006 -1.31639,3.66562 -2.64852,6.19479c0.46221,-0.15813 0.87607,-0.17113 1.1964,0.04242z" fill="#a03e00" stroke="none" stroke-width="0.5" stroke-linecap="butt"/><path d="M257.9783,161.64286l23.21429,-0.53571" fill="none" stroke="#000000" stroke-width="3.5" stroke-linecap="round"/><path d="M285.12116,194.42857l-27.64286,4.46429" fill="none" stroke="#000000" stroke-width="3.5" stroke-linecap="round"/><g stroke-linecap="butt"><path d="M314.77029,192.14009v-3.71428h15.71429v3.71428z" fill="#4b4e52" stroke="#343639" stroke-width="2"/><path d="M279.13901,193.39881v-6.46429c0,0 30.28328,0 34.29983,0c0.85584,0 1.55731,1.08903 1.55731,1.84174c0,0.67396 0,2.06261 0,3.14286c0,0.83113 -0.63038,1.47969 -1.41445,1.47969c-3.86912,0 -34.44269,0 -34.44269,0z" fill="#ab0000" stroke="#680000" stroke-width="3.5"/><path d="M293.44057,194.7997v-8.7619h4.03571v8.7619z" fill="#a5cdf1" stroke="#680000" stroke-width="2"/><path d="M297.70689,194.7997v-8.7619h3.92041v8.7619z" fill="#a5cdf1" stroke="#680000" stroke-width="2"/><path d="M301.6273,194.7997v-8.7619h4.03572v8.7619z" fill="#a5cdf1" stroke="#680000" stroke-width="2"/><path d="M305.89363,194.7997v-8.7619h3.92041v8.7619z" fill="#a5cdf1" stroke="#680000" stroke-width="2"/><path d="M275.195,193.10658c0,-2.14571 0,-4.84927 0,-6.05291c0,-1.183 1.30396,-2.75133 2.47619,-2.75133c2.04483,0 8.712,0 12.38095,0c1.48303,0 2.47619,1.56833 2.47619,2.75133c0,1.25571 0,4.14388 0,6.32804c0,1.55381 -1.30396,2.75133 -2.47619,2.75133c-1.99469,0 -8.38788,0 -12.10582,0c-1.63404,0 -2.75132,-1.34116 -2.75132,-3.02645z" fill="#ab0000" stroke="#680000" stroke-width="3.5"/><path d="M327.195,190.97768c0,-1.33222 0,-0.4386 0,-1.18592c0,-0.7345 0.8096,-1.70824 1.53741,-1.70824c1.26959,0 5.4091,-1.15306 7.68707,-1.15306c0.92078,0 1.53742,0.97375 1.53742,1.70824c0,0.77964 0,2.57285 0,3.92894c0,0.96473 -0.8096,1.70824 -1.53742,1.70824c-1.23847,0 -5.20786,-1.41915 -7.51625,-1.41915c-1.01454,0 -1.70824,-0.83269 -1.70824,-1.87906z" fill="#ab0000" stroke="#680000" stroke-width="3.5"/></g></g></g></svg>