<svg viewBox="0,0,140.11775,158.93973" height="158.93973" width="140.11775" xmlns:xlink="http://www.w3.org/1999/xlink" xmlns="http://www.w3.org/2000/svg" version="1.1"><defs><radialGradient id="color-1" gradientUnits="userSpaceOnUse" r="27.25" cy="86.56027" cx="213.58295"><stop stop-color="#1a1a1a" offset="0"></stop><stop stop-color="#a9a9a9" offset="1"></stop></radialGradient><radialGradient id="color-2" gradientUnits="userSpaceOnUse" r="27.25" cy="153.56026" cx="213.08295"><stop stop-color="#1a1a1a" offset="0"></stop><stop stop-color="#a9a9a9" offset="1"></stop></radialGradient><linearGradient id="color-3" gradientUnits="userSpaceOnUse" y2="113.21321" x2="275.5234" y1="103.79379" x1="218.80017"><stop stop-opacity="0" stop-color="#00c6ff" offset="0"></stop><stop stop-color="#00c6ff" offset="1"></stop></linearGradient></defs><g transform="translate(-148.88225,-50.56026)"><g style="mix-blend-mode: normal" stroke-dashoffset="0" stroke-dasharray="" stroke-miterlimit="10" stroke-linejoin="miter" fill-rule="nonzero" data-paper-data="{&quot;isPaintingLayer&quot;:true}"><g stroke-linecap="butt" stroke-width="2.5"><path stroke="#000000" fill="#000000" d="M180.33295,201.81027v-150h60v150z"></path><path stroke="#2b2b2b" fill="url(#color-1)" d="M186.33295,86.56027c0,-15.04976 12.20024,-27.25 27.25,-27.25c15.04976,0 27.25,12.20024 27.25,27.25c0,15.04976 -12.20024,27.25 -27.25,27.25c-15.04976,0 -27.25,-12.20024 -27.25,-27.25z"></path><path stroke="#2b2b2b" fill="url(#color-2)" d="M185.83295,153.56026c0,-15.04976 12.20024,-27.25 27.25,-27.25c15.04976,0 27.25,12.20024 27.25,27.25c0,15.04976 -12.20024,27.25 -27.25,27.25c-15.04976,0 -27.25,-12.20024 -27.25,-27.25z"></path></g><path stroke-linecap="butt" stroke-width="0" stroke="none" fill="url(#color-3)" d="M214.20477,133.95607l8.6908,-61.32455l55.49461,23.3181l-7.40593,38.5542z"></path><path stroke-linecap="butt" stroke-width="2" stroke="#000000" fill="#c6c6c6" d="M219.64674,151.30099v-11.99999h56v11.99999z"></path><path stroke-linecap="butt" stroke-width="2" stroke="#000000" fill="#c6c6c6" d="M265.33198,142.75303l8.79694,-54.13502l11.30003,1.83625l-8.79694,54.13502z"></path><path stroke-linecap="butt" stroke-width="2.5" stroke="#000000" fill="#00579a" d="M190.21118,174.95806c0,17.2589 -4.58908,31.25 -10.25,31.25c-5.66092,0 -10.25,-13.9911 -10.25,-31.25c0,-17.2589 4.58908,-31.25 10.25,-31.25c5.66092,0 10.25,13.9911 10.25,31.25z"></path><path stroke-linecap="butt" stroke-width="2.5" stroke="#000000" fill="#1c1c1c" d="M189.71118,125.45806c0,16.98276 -4.70101,30.75 -10.5,30.75c-5.79899,0 -10.5,-13.76724 -10.5,-30.75c0,-16.98276 4.70101,-30.75 10.5,-30.75c5.79899,0 10.5,13.76724 10.5,30.75z"></path><path stroke-linecap="butt" stroke-width="2.5" stroke="#000000" fill="#990000" d="M189.39484,114.15371c0,4.05009 -3.13401,7.33333 -7,7.33333c-3.86599,0 -7,-3.28325 -7,-7.33333c0,-4.05009 3.13401,-7.33333 7,-7.33333c3.86599,0 7,3.28325 7,7.33333z"></path><path stroke-linecap="butt" stroke-width="2.5" stroke="#000000" fill="#990000" d="M209.57438,119.00768c14.75402,6.57885 25.48377,14.67217 23.96558,18.07695c-1.5182,3.40477 -14.70943,0.83168 -29.46345,-5.74717c-14.75402,-6.57885 -25.48377,-14.67217 -23.96558,-18.07695c1.5182,-3.40477 14.70943,-0.83168 29.46345,5.74717z"></path><path stroke-linecap="butt" stroke-width="2.5" stroke="#000000" fill="#ffd567" d="M240.85548,132.95599c3.53088,1.57443 5.20806,5.50864 3.74609,8.78731c-1.46197,3.27867 -5.50947,4.66024 -9.04034,3.08581c-3.53088,-1.57443 -5.20806,-5.50864 -3.74609,-8.78731c1.46197,-3.27867 5.50947,-4.66024 9.04034,-3.08581z"></path><path stroke-linecap="butt" stroke-width="2.5" stroke="#000000" fill="#ffd567" d="M192.47076,83.83394c-0.08762,9.11228 -5.19521,16.45081 -11.40813,16.39107c-6.21292,-0.05974 -11.17845,-7.49513 -11.09083,-16.60741c0.08762,-9.11228 5.19521,-16.45081 11.40813,-16.39107c6.21292,0.05974 11.17845,7.49513 11.09083,16.60741z"></path><path stroke-linecap="butt" stroke-width="2.5" stroke="#000000" fill="#181818" d="M192.47128,74.22577c0,5.52285 -3.87258,3 -10.5,3c-4.09204,0 -7.51508,0.77118 -9.53523,0.0612c-0.86377,-0.30357 -9.11933,1.40652 -12.79477,0.32987c-1.16013,-0.33984 -1.32372,-3.11821 -1.352,-3.53513c-0.01195,-0.17623 12.182,-0.1614 12.182,-0.35593c0,-0.37274 0.01992,-0.73844 0.0591,-1.09635c0.54139,-4.94522 4.76077,-8.40365 10.9409,-8.40365c6.62742,0 11,4.47715 11,10z"></path><path stroke-linecap="round" stroke-width="2.5" stroke="#000000" fill="none" d="M188.59523,81.6853l-1.11111,6.88889"></path><path stroke-linecap="butt" stroke-width="2" stroke="#000000" fill="#797979" d="M150.90315,208.5l-1.00315,-57h138.1v57c0,0 -33.88196,0 -49.48937,0c-14.32505,0 -26.62199,0 -37.09564,0c-14.24124,0 -50.51184,0 -50.51184,0z"></path></g></g></svg>