<svg version="1.1" xmlns="http://www.w3.org/2000/svg" xmlns:xlink="http://www.w3.org/1999/xlink" width="476.76638" height="62.27393" viewBox="0,0,476.76638,62.27393"><g transform="translate(-7.60528,0.5259)"><g fill="#9966ff" stroke="none" stroke-width="0" stroke-miterlimit="10"><g><path d="M157.86472,40.35347c-4.35056,0 -7.87739,-3.5925 -7.87739,-8.02408v-2.74721c0,-4.43157 3.52683,-8.02407 7.87739,-8.02407h74.1976c4.35056,0 7.87739,3.5925 7.87739,8.02408v2.74721c0,4.43158 -3.52683,8.02408 -7.87739,8.02408z"/><path d="M91.21153,40.35347c-2.56019,0 -4.63563,-3.5925 -4.63563,-8.02408v-2.74721c0,-4.43157 2.07544,-8.02407 4.63563,-8.02407h43.66329c2.56018,0 4.63563,3.5925 4.63563,8.02408v2.74721c0,4.43158 -2.07545,8.02408 -4.63563,8.02408z"/><path d="M13.53212,40.35346c-3.2733,0 -5.92684,-3.5925 -5.92684,-8.02407v-2.74721c0,-4.43157 2.65354,-8.02407 5.92684,-8.02407h55.82526c3.2733,0 5.92684,3.5925 5.92684,8.02408v2.74721c0,4.43158 -2.65354,8.02407 -5.92684,8.02407z"/><path d="M253.48996,40.35346c-2.56018,0 -4.63563,-3.5925 -4.63563,-8.02407v-2.74721c0,-4.43157 2.07545,-8.02407 4.63563,-8.02407h43.66329c2.56018,0 4.63563,3.5925 4.63563,8.02408v2.74721c0,4.43158 -2.07545,8.02407 -4.63563,8.02407z"/><path d="M318.6996,40.35346c-3.47917,0 -6.2996,-3.5925 -6.2996,-8.02407v-2.74721c0,-4.43157 2.82043,-8.02407 6.2996,-8.02407h59.33628c3.47917,0 6.29961,3.5925 6.29961,8.02408v2.74721c0,4.43158 -2.82044,8.02407 -6.29961,8.02407z"/><path d="M399.1958,61.74803c-4.51492,0 -8.175,-11.90289 -8.175,-26.58585v-9.10222c0,-14.68296 3.66008,-26.58585 8.175,-26.58585h77.00084c4.51492,0 8.17501,11.90289 8.17501,26.58586v9.10222c0,14.68297 -3.66009,26.58586 -8.17501,26.58586z"/></g></g></g></svg>