<svg viewBox="0,0,55.98613,56.59208" height="56.59208" width="55.98613" xmlns:xlink="http://www.w3.org/1999/xlink" xmlns="http://www.w3.org/2000/svg" version="1.1"><g transform="translate(-212.33305,-151.55479)"><g style="mix-blend-mode: normal" stroke-dashoffset="0" stroke-dasharray="" stroke-miterlimit="10" stroke-linejoin="miter" stroke-width="3.5" fill-rule="nonzero" data-paper-data="{&quot;isPaintingLayer&quot;:true}"><path stroke-linecap="butt" stroke="#909090" fill="#bebebe" d="M214.08305,180.00001c0,-14.31354 11.60342,-25.91695 25.91695,-25.91695c14.31354,0 25.91695,11.60342 25.91695,25.91695c0,14.31354 -11.60342,25.91695 -25.91695,25.91695c-14.31354,0 -25.91695,-11.60342 -25.91695,-25.91695z"></path><path stroke-linecap="round" stroke="#909090" fill="none" d="M265.89837,180.88176h-20.8894"></path><path stroke-linecap="round" stroke="#909090" fill="none" d="M255.73596,172.1308c0,0 1.41145,5.43433 1.41145,9.59783c0,4.21055 -1.69374,7.9041 -1.69374,7.9041"></path><path stroke-linecap="round" stroke="#4e4e4e" fill="none" d="M250.4146,178.18488v5.50192"></path><path stroke-linecap="round" stroke="#4e4e4e" fill="none" d="M249.24398,195.97834l-12.17447,10.41854"></path><path stroke-linecap="round" stroke="#4e4e4e" fill="none" d="M250.76578,165.89335l-13.46215,-12.05741"></path><path stroke-linecap="butt" stroke="#373737" fill="#4b4b4b" d="M226.89318,205.14323c-3.96237,-1.25722 -10.64567,-8.65927 -12.66444,-17.97856c-1.8498,-8.53926 0.68127,-18.93542 3.02699,-22.48292c2.64307,-3.99719 7.12273,-7.94492 9.63744,-9.29123c5.17052,-2.76815 12.43987,-3.695 14.22565,3.0754c0.83006,3.14702 1.24595,12.96488 0.84596,22.71195c-0.38194,9.30725 -1.53972,18.56936 -2.46873,21.09312c0,0 -0.39022,3.16629 -2.73074,4.02273c-2.66663,0.97577 -7.45588,-0.38385 -9.87213,-1.15049z"></path><path stroke-linecap="butt" stroke="#1d1d1d" fill="#212121" d="M266.56918,179.94081c0,11.44334 -8.97516,21.30533 -11.23797,21.30533c-2.26281,0 0.93649,-9.39373 0.93649,-20.83707c0,-11.44334 -2.02868,-20.83707 0.23413,-20.83707c2.26281,0 10.06735,8.92548 10.06735,20.36882z"></path><path stroke-linecap="butt" stroke="#4e4e4e" fill="#c2b200" d="M245.37768,172.22876c0,-3.10566 2.51763,-5.6233 5.62329,-5.6233c3.10566,0 5.6233,2.51764 5.6233,5.6233c0,3.10566 -2.51764,5.6233 -5.6233,5.6233c-3.10566,0 -5.62329,-2.51763 -5.62329,-5.6233z"></path><path stroke-linecap="butt" stroke="#4e4e4e" fill="#c2b200" d="M244.64163,189.87148c0,-3.10566 2.51763,-5.6233 5.62329,-5.6233c3.10566,0 5.6233,2.51764 5.6233,5.6233c0,3.10566 -2.51764,5.6233 -5.6233,5.6233c-3.10566,0 -5.62329,-2.51763 -5.62329,-5.6233z"></path></g></g></svg>