<svg viewBox="0,0,101.6121,88.8381" height="88.8381" width="101.6121" xmlns:xlink="http://www.w3.org/1999/xlink" xmlns="http://www.w3.org/2000/svg" version="1.1"><g transform="translate(-171.06732,-146.77055)"><g style="mix-blend-mode: normal" stroke-dashoffset="0" stroke-dasharray="" stroke-miterlimit="10" stroke-linejoin="miter" stroke-linecap="butt" stroke-width="2.5" stroke="#000000" fill-rule="nonzero" data-paper-data="{&quot;isPaintingLayer&quot;:true}"><path fill="#ff0000" data-paper-data="{&quot;index&quot;:null}" d="M254.5839,203.14373v-34.21439h14.25599v34.21439z"></path><path fill="#ff0000" data-paper-data="{&quot;index&quot;:null}" d="M221.37431,224.00688c-0.49866,-5.015 -2.22682,-13.36068 -1.15592,-16.759c1.04827,-3.3265 4.79058,-2.53657 6.85753,-2.7421c2.00419,-0.19929 5.88343,-1.47221 7.53754,1.41437c1.79453,3.13164 1.37913,11.41803 1.89262,16.58209c0.98679,9.924 -2.33841,8.66582 -6.51694,9.08131c-4.17853,0.41549 -7.62805,2.34731 -8.61484,-7.57669z"></path><path fill="#ff0000" data-paper-data="{&quot;index&quot;:null}" d="M255.87084,223.49522c-2.73762,-4.23134 -8.09222,-10.86197 -8.69457,-14.37375c-0.58962,-3.43756 3.09952,-4.44712 4.84348,-5.57544c1.691,-1.09405 4.55821,-4.00061 7.3496,-2.19048c3.02837,1.9638 6.44974,9.52231 9.26873,13.87942c5.41738,8.37326 1.88495,8.77563 -1.64063,11.05663c-3.52558,2.281 -5.70925,5.57688 -11.12664,-2.79638z"></path><path fill="#ff0000" data-paper-data="{&quot;index&quot;:null}" d="M240.56549,148.02055c11.67883,0 21.14639,19.35082 21.14639,43.22126c0,23.87045 -8.99236,20.40044 -20.67119,20.40044c-11.67883,0 -21.62159,3.47 -21.62159,-20.40044c0,-23.87044 9.46756,-43.22126 21.14639,-43.22126z"></path><path fill="#00ffe5" data-paper-data="{&quot;index&quot;:null}" d="M222.7455,176.53254v-10.9296h19.48319v10.9296z"></path><path fill="#efff00" data-paper-data="{&quot;index&quot;:null}" d="M210.49439,204.34834v-34.21439h14.25599v34.21439z"></path><path fill="#efff00" data-paper-data="{&quot;index&quot;:null}" d="M173.81698,226.3554c-0.49866,-5.015 -2.22682,-13.36068 -1.15592,-16.759c1.04827,-3.3265 4.79058,-2.53657 6.85753,-2.7421c2.00419,-0.19929 5.88343,-1.47221 7.53754,1.41437c1.79453,3.13164 1.37913,11.41803 1.89262,16.58209c0.98679,9.924 -2.33841,8.66582 -6.51694,9.08131c-4.17853,0.41549 -7.62805,2.34731 -8.61484,-7.57669z"></path><path fill="#efff00" data-paper-data="{&quot;index&quot;:null}" d="M199.51651,223.36208c-0.31458,-5.0299 -1.73578,-13.4333 -0.54108,-16.7901c1.16945,-3.28586 4.88031,-2.35933 6.9534,-2.48899c2.01013,-0.12571 5.93342,-1.25565 7.48065,1.6896c1.67858,3.19529 0.95984,11.4609 1.28376,16.6403c0.6225,9.95349 -2.65437,8.57432 -6.84531,8.83643c-4.19094,0.2621 -7.70894,2.06624 -8.33145,-7.88726z"></path><path fill="#efff00" data-paper-data="{&quot;index&quot;:null}" d="M196.47598,149.22516c11.67883,0 21.14639,19.35082 21.14639,43.22126c0,23.87045 -8.99236,20.40044 -20.67119,20.40044c-11.67883,0 -21.62159,3.47 -21.62159,-20.40044c0,-23.87044 9.46756,-43.22126 21.14639,-43.22126z"></path><path fill="#00ffe5" data-paper-data="{&quot;index&quot;:null}" d="M178.65599,177.73715v-10.9296h19.48319v10.9296z"></path></g></g></svg>