<svg version="1.1" xmlns="http://www.w3.org/2000/svg" xmlns:xlink="http://www.w3.org/1999/xlink" width="493.33333" height="343.477" viewBox="0,0,493.33333,343.477"><defs><linearGradient x1="240.92749" y1="0.00001" x2="240.92749" y2="62.27395" gradientUnits="userSpaceOnUse" id="color-1"><stop offset="0" stop-color="#636363" stop-opacity="0.74902"/><stop offset="1" stop-color="#ababab" stop-opacity="0.50196"/></linearGradient><linearGradient x1="424.62617" y1="22.33417" x2="436.1479" y2="22.33417" gradientUnits="userSpaceOnUse" id="color-2"><stop offset="0" stop-color="#ebda85"/><stop offset="1" stop-color="#b0a236"/></linearGradient><linearGradient x1="250.60655" y1="30.01819" x2="300.03668" y2="30.01819" gradientUnits="userSpaceOnUse" id="color-3"><stop offset="0" stop-color="#ffffff" stop-opacity="0"/><stop offset="0.49292" stop-color="#ffffff" stop-opacity="0.25098"/><stop offset="1" stop-color="#ffffff" stop-opacity="0"/></linearGradient><linearGradient x1="188.44041" y1="45.41958" x2="201.48673" y2="45.41958" gradientUnits="userSpaceOnUse" id="color-4"><stop offset="0" stop-color="#ebda85"/><stop offset="1" stop-color="#b0a236"/></linearGradient><linearGradient x1="20.63801" y1="77.14221" x2="144.6498" y2="77.14221" gradientUnits="userSpaceOnUse" id="color-5"><stop offset="0" stop-color="#ffffff" stop-opacity="0.25098"/><stop offset="1" stop-color="#ffffff" stop-opacity="0"/></linearGradient><linearGradient x1="13.27387" y1="158.03893" x2="235.95691" y2="158.03893" gradientUnits="userSpaceOnUse" id="color-6"><stop offset="0" stop-color="#8a8a8a"/><stop offset="0.49292" stop-color="#555555"/><stop offset="0.98349" stop-color="#8a8a8a"/></linearGradient><linearGradient x1="13.27387" y1="284.51267" x2="235.95691" y2="284.51267" gradientUnits="userSpaceOnUse" id="color-7"><stop offset="0" stop-color="#8a8a8a"/><stop offset="0.49292" stop-color="#555555"/><stop offset="0.98349" stop-color="#8a8a8a"/></linearGradient><linearGradient x1="244.0431" y1="158.03893" x2="466.72614" y2="158.03893" gradientUnits="userSpaceOnUse" id="color-8"><stop offset="0" stop-color="#8a8a8a"/><stop offset="0.49292" stop-color="#555555"/><stop offset="0.98349" stop-color="#8a8a8a"/></linearGradient><linearGradient x1="244.0431" y1="284.51267" x2="466.72614" y2="284.51267" gradientUnits="userSpaceOnUse" id="color-9"><stop offset="0" stop-color="#8a8a8a"/><stop offset="0.49292" stop-color="#555555"/><stop offset="0.98349" stop-color="#8a8a8a"/></linearGradient><linearGradient x1="145.18447" y1="167.16139" x2="229.54107" y2="167.16139" gradientUnits="userSpaceOnUse" id="color-10"><stop offset="0" stop-color="#8a8a8a"/><stop offset="0.49528" stop-color="#555555"/><stop offset="0.99292" stop-color="#8a8a8a"/></linearGradient><linearGradient x1="375.95371" y1="167.1614" x2="460.3103" y2="167.1614" gradientUnits="userSpaceOnUse" id="color-11"><stop offset="0" stop-color="#8a8a8a"/><stop offset="0.49528" stop-color="#555555"/><stop offset="0.99292" stop-color="#8a8a8a"/></linearGradient><linearGradient x1="145.18448" y1="293.63514" x2="229.54107" y2="293.63514" gradientUnits="userSpaceOnUse" id="color-12"><stop offset="0" stop-color="#8a8a8a"/><stop offset="0.49528" stop-color="#555555"/><stop offset="0.99292" stop-color="#8a8a8a"/></linearGradient><linearGradient x1="375.95371" y1="293.63514" x2="460.31031" y2="293.63514" gradientUnits="userSpaceOnUse" id="color-13"><stop offset="0" stop-color="#8a8a8a"/><stop offset="0.49528" stop-color="#555555"/><stop offset="0.99292" stop-color="#8a8a8a"/></linearGradient></defs><g transform="translate(5.73921,-0.00001)"><g stroke-miterlimit="10"><path d="M-5.7392,62.27395v-62.27393h493.33333v62.27393z" fill="url(#color-1)" stroke="none" stroke-width="0" stroke-linecap="butt"/><text transform="translate(154.65535,35.65463) scale(0.39157,0.39157)" font-size="40" xml:space="preserve" fill="#f1f1f1" stroke="none" stroke-width="1" stroke-linecap="butt" font-family="&quot;HeadingNowTrial-63Book&quot;, Sans Serif" font-weight="normal" text-anchor="start"><tspan x="0" dy="0">INVENTORY</tspan></text><path d="M145.15894,41.65892v-21.0439" fill="none" stroke-opacity="0.74902" stroke="#e0e0e0" stroke-width="1" stroke-linecap="round"/><path d="M244.76673,20.61503v21.04391" fill="none" stroke-opacity="0.74902" stroke="#e0e0e0" stroke-width="1" stroke-linecap="round"/><text transform="translate(90.66892,35.65463) scale(0.39157,0.39157)" font-size="40" xml:space="preserve" fill="#f1f1f1" stroke="none" stroke-width="1" stroke-linecap="butt" font-family="&quot;HeadingNowTrial-63Book&quot;, Sans Serif" font-weight="normal" text-anchor="start"><tspan x="0" dy="0">STORE</tspan></text><text transform="translate(254.16902,35.65462) scale(0.39157,0.39157)" font-size="40" xml:space="preserve" fill="#f1f1f1" stroke="none" stroke-width="1" stroke-linecap="butt" font-family="&quot;HeadingNowTrial-63Book&quot;, Sans Serif" font-weight="normal" text-anchor="start"><tspan x="0" dy="0">NEWS</tspan></text><path d="M305.11316,20.61503v21.04391" fill="none" stroke-opacity="0.74902" stroke="#e0e0e0" stroke-width="1" stroke-linecap="round"/><text transform="translate(314.52829,35.65462) scale(0.39157,0.39157)" font-size="40" xml:space="preserve" fill="#f1f1f1" stroke="none" stroke-width="1" stroke-linecap="butt" font-family="&quot;HeadingNowTrial-63Book&quot;, Sans Serif" font-weight="normal" text-anchor="start"><tspan x="0" dy="0">SETTINGS</tspan></text><path d="M80.60586,20.61502v21.0439" fill="none" stroke-opacity="0.74902" stroke="#e0e0e0" stroke-width="1" stroke-linecap="round"/><path d="M80.62429,20.61502v21.0439" fill="none" stroke-opacity="0.74902" stroke="#e0e0e0" stroke-width="1" stroke-linecap="round"/><text transform="translate(12.33548,35.65462) scale(0.39157,0.39157)" font-size="40" xml:space="preserve" fill="#f1f1f1" stroke="none" stroke-width="1" stroke-linecap="butt" font-family="&quot;HeadingNowTrial-63Book&quot;, Sans Serif" font-weight="normal" text-anchor="start"><tspan x="0" dy="0">MARKET</tspan></text><path d="M391.02083,62.27394v-62.27393h89.95238v62.27394z" fill-opacity="0.74902" fill="#636363" stroke="none" stroke-width="0" stroke-linecap="butt"/><path d="M430.38704,16.5733l5.76087,11.52174h-11.52174z" fill="url(#color-2)" stroke="none" stroke-width="0" stroke-linecap="butt"/><path d="M400.02928,51.65077h71.93548" fill="none" stroke="#052700" stroke-width="5" stroke-linecap="round"/><path d="M441.64218,51.65077h-41.6129" fill="none" stroke="#42b533" stroke-width="5" stroke-linecap="round"/><text transform="translate(400.16709,47.16394) scale(0.1988,0.1988)" font-size="40" xml:space="preserve" fill="#42b533" stroke="none" stroke-width="1" stroke-linecap="butt" font-family="Sans Serif" font-weight="normal" text-anchor="start"><tspan x="0" dy="0">1000/1000</tspan></text><text transform="translate(438.31822,25.67227) scale(0.19881,0.19881)" font-size="40" xml:space="preserve" fill="#b0a236" stroke="none" stroke-width="1" stroke-linecap="butt" font-family="Sans Serif" font-weight="normal" text-anchor="start"><tspan x="0" dy="0">1,000,000</tspan></text><path d="M396.32863,33.37985v-25h25v25z" fill="#555555" stroke="none" stroke-width="0" stroke-linecap="butt"/><path d="M398.30666,31.40181v-21.04392h21.04392v21.04392z" fill="#8a8a8a" stroke="none" stroke-width="0" stroke-linecap="butt"/><path d="M250.60655,38.33981v-16.64323h49.43015v16.64323z" fill="url(#color-3)" stroke="none" stroke-width="0" stroke-linecap="butt"/><g stroke="none" stroke-linecap="butt"><path d="M190.94041,51.94274c-1.38071,0 -2.5,-1.11929 -2.5,-2.5v-8.04631c0,-1.38071 1.11929,-2.5 2.5,-2.5h8.04631c1.38071,0 2.5,1.11929 2.5,2.5v8.04631c0,1.38071 -1.11929,2.5 -2.5,2.5z" fill="url(#color-4)" stroke-width="0"/><text transform="translate(196.85992,50.25722) rotate(-180) scale(0.34605,-0.34605)" font-size="40" xml:space="preserve" fill="#303030" stroke-width="1" font-family="Sans Serif" font-weight="normal" text-anchor="start"><tspan x="0" dy="0">!</tspan></text></g><text transform="translate(27.2627,83.90346) scale(0.43842,0.43842)" font-size="40" xml:space="preserve" fill="#f1f1f1" stroke="none" stroke-width="1" stroke-linecap="butt" font-family="&quot;HeadingNowTrial-63Book&quot;, Sans Serif" font-weight="normal" text-anchor="start"><tspan x="0" dy="0">Bulletin Board</tspan></text><path d="M20.63801,87.66416v-21.0439h124.01179v21.0439z" fill="url(#color-5)" stroke="none" stroke-width="0" stroke-linecap="butt"/><path d="M21.17523,216.75327c-4.3638,0 -7.90136,-3.35787 -7.90136,-7.5v-102.42868c0,-4.14213 3.53756,-7.5 7.90136,-7.5h206.88032c4.3638,0 7.90136,3.35787 7.90136,7.5v102.42868c0,4.14213 -3.53756,7.5 -7.90136,7.5z" fill="#555555" stroke="url(#color-6)" stroke-width="0.5" stroke-linecap="butt"/><path d="M21.17523,343.22701c-4.3638,0 -7.90135,-3.35787 -7.90135,-7.5v-102.42868c0,-4.14213 3.53755,-7.5 7.90136,-7.5h206.88033c4.3638,0 7.90135,3.35787 7.90135,7.5v102.42869c0,4.14213 -3.53755,7.5 -7.90135,7.5z" fill="#555555" stroke="url(#color-7)" stroke-width="0.5" stroke-linecap="butt"/><path d="M251.94446,216.75327c-4.3638,0 -7.90136,-3.35787 -7.90136,-7.5v-102.42868c0,-4.14213 3.53756,-7.5 7.90136,-7.5h206.88032c4.3638,0 7.90136,3.35787 7.90136,7.5v102.42868c0,4.14213 -3.53755,7.5 -7.90136,7.5z" fill="#555555" stroke="url(#color-8)" stroke-width="0.5" stroke-linecap="butt"/><path d="M251.94446,343.22701c-4.3638,0 -7.90135,-3.35787 -7.90135,-7.5v-102.42868c0,-4.14213 3.53755,-7.5 7.90135,-7.5h206.88032c4.3638,0 7.90136,3.35787 7.90136,7.5v102.42869c0,4.14213 -3.53755,7.5 -7.90136,7.5z" fill="#555555" stroke="url(#color-9)" stroke-width="0.5" stroke-linecap="butt"/><text transform="translate(19.6897,131.37121) scale(0.24004,0.24004)" font-size="40" xml:space="preserve" fill="#9e9e9e" stroke="none" stroke-width="1" stroke-linecap="butt" font-family="Sans Serif" font-weight="normal" text-anchor="start"><tspan x="0" dy="0">Body Text Body Text Body</tspan><tspan x="0" dy="48px">Text Body Text Body Text </tspan><tspan x="0" dy="48px">Body Text Body Text Body</tspan><tspan x="0" dy="48px">Text Body Text Body Text </tspan><tspan x="0" dy="48px">Body Text Body Text Body</tspan><tspan x="0" dy="48px">Text Body Text Body Text </tspan><tspan x="0" dy="48px">Body Text Body Text Body</tspan><tspan x="0" dy="48px">Text Body Text Body Text </tspan></text><text transform="translate(20.18451,115.27099) scale(0.39157,0.39157)" font-size="40" xml:space="preserve" fill="#ffffff" stroke="none" stroke-width="1" stroke-linecap="butt" font-family="Sans Serif" font-weight="normal" text-anchor="start"><tspan x="0" dy="0">Title</tspan></text><path d="M21.20952,119.96983h30.55251" fill="none" stroke="#ffffff" stroke-width="1" stroke-linecap="round"/><path d="M153.8442,211.59289c-4.78264,0 -8.65973,-3.78042 -8.65973,-8.44382v-71.97535c0,-4.66339 3.87709,-8.44382 8.65973,-8.44382h67.03714c4.78264,0 8.65973,3.78042 8.65973,8.44382v71.97535c0,4.6634 -3.87709,8.44382 -8.65973,8.44382z" fill="#b1b1b1" stroke="url(#color-10)" stroke-width="0.5" stroke-linecap="butt"/><text transform="translate(250.45894,131.37121) scale(0.24004,0.24004)" font-size="40" xml:space="preserve" fill="#9e9e9e" stroke="none" stroke-width="1" stroke-linecap="butt" font-family="Sans Serif" font-weight="normal" text-anchor="start"><tspan x="0" dy="0">Body Text Body Text Body</tspan><tspan x="0" dy="48px">Text Body Text Body Text </tspan><tspan x="0" dy="48px">Body Text Body Text Body</tspan><tspan x="0" dy="48px">Text Body Text Body Text </tspan><tspan x="0" dy="48px">Body Text Body Text Body</tspan><tspan x="0" dy="48px">Text Body Text Body Text </tspan><tspan x="0" dy="48px">Body Text Body Text Body</tspan><tspan x="0" dy="48px">Text Body Text Body Text </tspan></text><text transform="translate(250.95375,115.27099) scale(0.39157,0.39157)" font-size="40" xml:space="preserve" fill="#ffffff" stroke="none" stroke-width="1" stroke-linecap="butt" font-family="Sans Serif" font-weight="normal" text-anchor="start"><tspan x="0" dy="0">Title</tspan></text><path d="M251.97875,119.96983h30.55251" fill="none" stroke="#ffffff" stroke-width="1" stroke-linecap="round"/><path d="M384.61344,211.59289c-4.78264,0 -8.65973,-3.78042 -8.65973,-8.44382v-71.97535c0,-4.6634 3.87709,-8.44382 8.65973,-8.44382h67.03714c4.78264,0 8.65973,3.78042 8.65973,8.44382v71.97535c0,4.6634 -3.87709,8.44382 -8.65973,8.44382z" fill="#b1b1b1" stroke="url(#color-11)" stroke-width="0.5" stroke-linecap="butt"/><text transform="translate(19.6897,257.84495) scale(0.24004,0.24004)" font-size="40" xml:space="preserve" fill="#9e9e9e" stroke="none" stroke-width="1" stroke-linecap="butt" font-family="Sans Serif" font-weight="normal" text-anchor="start"><tspan x="0" dy="0">Body Text Body Text Body</tspan><tspan x="0" dy="48px">Text Body Text Body Text </tspan><tspan x="0" dy="48px">Body Text Body Text Body</tspan><tspan x="0" dy="48px">Text Body Text Body Text </tspan><tspan x="0" dy="48px">Body Text Body Text Body</tspan><tspan x="0" dy="48px">Text Body Text Body Text </tspan><tspan x="0" dy="48px">Body Text Body Text Body</tspan><tspan x="0" dy="48px">Text Body Text Body Text </tspan></text><text transform="translate(20.18452,241.74473) scale(0.39157,0.39157)" font-size="40" xml:space="preserve" fill="#ffffff" stroke="none" stroke-width="1" stroke-linecap="butt" font-family="Sans Serif" font-weight="normal" text-anchor="start"><tspan x="0" dy="0">Title</tspan></text><path d="M21.20952,246.44357h30.55251" fill="none" stroke="#ffffff" stroke-width="1" stroke-linecap="round"/><path d="M153.84421,338.06663c-4.78264,0 -8.65973,-3.78043 -8.65973,-8.44382v-71.97535c0,-4.6634 3.87709,-8.44382 8.65973,-8.44382h67.03714c4.78264,0 8.65973,3.78043 8.65973,8.44382v71.97535c0,4.6634 -3.87709,8.44382 -8.65973,8.44382z" fill="#b1b1b1" stroke="url(#color-12)" stroke-width="0.5" stroke-linecap="butt"/><text transform="translate(250.45893,257.84495) scale(0.24004,0.24004)" font-size="40" xml:space="preserve" fill="#9e9e9e" stroke="none" stroke-width="1" stroke-linecap="butt" font-family="Sans Serif" font-weight="normal" text-anchor="start"><tspan x="0" dy="0">Body Text Body Text Body</tspan><tspan x="0" dy="48px">Text Body Text Body Text </tspan><tspan x="0" dy="48px">Body Text Body Text Body</tspan><tspan x="0" dy="48px">Text Body Text Body Text </tspan><tspan x="0" dy="48px">Body Text Body Text Body</tspan><tspan x="0" dy="48px">Text Body Text Body Text </tspan><tspan x="0" dy="48px">Body Text Body Text Body</tspan><tspan x="0" dy="48px">Text Body Text Body Text </tspan></text><text transform="translate(250.95375,241.74473) scale(0.39157,0.39157)" font-size="40" xml:space="preserve" fill="#ffffff" stroke="none" stroke-width="1" stroke-linecap="butt" font-family="Sans Serif" font-weight="normal" text-anchor="start"><tspan x="0" dy="0">Title</tspan></text><path d="M251.97875,246.44357h30.55251" fill="none" stroke="#ffffff" stroke-width="1" stroke-linecap="round"/><path d="M384.61344,338.06663c-4.78264,0 -8.65973,-3.78043 -8.65973,-8.44382v-71.97535c0,-4.6634 3.87709,-8.44382 8.65973,-8.44382h67.03714c4.78264,0 8.65973,3.78042 8.65973,8.44382v71.97535c0,4.66339 -3.87709,8.44382 -8.65973,8.44382z" fill="#b1b1b1" stroke="url(#color-13)" stroke-width="0.5" stroke-linecap="butt"/></g></g></svg>