<svg version="1.1" xmlns="http://www.w3.org/2000/svg" xmlns:xlink="http://www.w3.org/1999/xlink" width="27.35686" height="49.36334" viewBox="0,0,27.35686,49.36334"><g transform="translate(-226.32157,-156.37275)"><g stroke-miterlimit="10"><g><path d="M253.67843,202.31648c0,1.8886 -6.12404,3.41961 -13.67843,3.41961c-7.55438,0 -13.67843,-1.53101 -13.67843,-3.41961c0,-1.8886 6.12404,-3.4196 13.67843,-3.4196c7.55438,0 13.67843,1.53101 13.67843,3.4196z" fill="#000000" stroke="none" stroke-width="0" stroke-linecap="butt"/><path d="M230.91577,175.44501c0.0733,0 0.14497,0.00697 0.21438,0.02028c0.12349,-0.49459 0.31207,-0.9634 0.55609,-1.39683c0.04307,-0.10798 0.09521,-0.21201 0.15976,-0.31071c0.04856,-0.07426 0.09932,-0.14801 0.15219,-0.22092c0.00137,-0.00297 0.00274,-0.00596 0.00411,-0.00893c0.10292,-2.93398 2.43953,-5.2998 5.36149,-5.44912c0.29674,-0.1097 0.60237,-0.20058 0.91669,-0.2708c1.27921,-0.28576 2.57134,-0.14467 3.79526,0.26969c2.17162,0.10232 4.02295,1.42876 4.8794,3.30477c0.00131,0.00143 0.00262,0.00284 0.00392,0.00426c1.93855,2.1096 1.71715,5.07845 1.82414,7.70846c0.06628,1.62944 0.21447,3.26756 0.01727,4.89711c-0.0789,0.65202 -0.17221,1.32747 -0.33365,1.98247c0.15527,0.35021 0.24152,0.73783 0.24152,1.14559c0,0.43689 -0.09902,0.85065 -0.27585,1.22006c0.03896,1.19107 -0.04684,2.42684 -0.09669,3.62276c0.20062,0.38842 0.31392,0.82927 0.31392,1.29658c0,0.45606 -0.10791,0.88692 -0.29959,1.26844c0.01085,0.12823 0.02386,0.25503 0.03929,0.38028c0.24432,1.98464 0.47457,4.11167 0.08447,6.08801c-0.03311,0.16772 -0.06369,0.33778 -0.09744,0.50683c0.1089,0.1739 0.17185,0.3795 0.17185,0.59982c0,0.59381 -0.45732,1.08079 -1.03897,1.12797c-0.07013,0.05429 -0.14626,0.10528 -0.22904,0.15259c-1.11566,0.63752 -2.62268,0.59849 -3.55826,-0.24325c-0.6166,-0.00975 -1.11346,-0.51263 -1.11346,-1.13156c0,-0.20149 0.05266,-0.39068 0.14496,-0.55456c-0.15433,-0.34932 -0.24003,-0.73575 -0.24003,-1.1422c0,-0.31297 0.05083,-0.61408 0.14466,-0.89552c-0.09384,-0.28143 -0.14466,-0.58254 -0.14466,-0.89551c0,-0.4333 0.09741,-0.84386 0.27152,-1.21096c-0.01214,-0.05105 -0.02289,-0.10264 -0.03223,-0.15473c-0.09408,-0.28176 -0.14503,-0.58325 -0.14503,-0.89665c0,-0.33231 0.05729,-0.65124 0.16253,-0.94745c-0.02468,-0.14951 -0.04416,-0.29764 -0.04922,-0.442c-0.04062,-1.15945 0.07637,-2.23084 0.09651,-3.3511c-0.27488,-0.10344 -0.53289,-0.21896 -0.83707,-0.22958c-0.12753,-0.00446 -0.25206,-0.00772 -0.37389,-0.00999c-0.44899,0.11464 -0.91947,0.17559 -1.40418,0.17559c-0.41429,0 -0.81818,-0.04452 -1.20715,-0.12904c-0.31611,0.00652 -0.63025,0.00808 -0.95263,-0.00137c-0.07435,0.96524 -0.40487,1.90239 -0.40915,2.90107c-0.01009,2.35144 0.09811,4.70497 0,7.05438c-0.03609,0.86434 -0.35332,1.60891 -0.89736,2.11697c-0.10357,-0.01281 -0.20563,-0.02709 -0.30232,-0.04868c-0.5088,-0.11363 -1.1522,0.43063 -1.55,0.39018c-0.45693,-0.04646 -1.1231,-0.19176 -1.65247,-0.06233c-0.18855,-0.12108 -0.35804,-0.26517 -0.50703,-0.4292c-0.07129,-0.03386 -0.14095,-0.07063 -0.20881,-0.11013c-0.54397,-0.04839 -0.97723,-0.48166 -1.02562,-1.02562c-0.24311,-0.41765 -0.38236,-0.9032 -0.38236,-1.42129c0,-0.58106 0.17517,-1.12122 0.47557,-1.57054c-0.16126,-3.10691 -0.16823,-6.83991 -0.07947,-10.0937c0.00265,-0.09714 0.00583,-0.20538 0.01035,-0.32234c-0.32837,0.13179 -0.72635,0.20515 -1.20928,0.20515c-0.4476,0 -0.82762,-0.07739 -1.14993,-0.21807c-0.20296,0.1929 -0.47742,0.31129 -0.77954,0.31129c-0.62502,0 -1.13172,-0.50668 -1.13172,-1.13171c0,-0.17282 0.03873,-0.33658 0.10799,-0.48308c-0.00904,-0.05759 -0.01372,-0.11664 -0.01372,-0.17677c0,-0.28469 0.10512,-0.54483 0.27866,-0.74372c-0.26181,-1.18184 -0.21903,-2.61145 -0.1723,-3.85879c-0.10367,-0.42833 -0.1586,-0.8757 -0.1586,-1.3359c0,-0.47765 0.05919,-0.94147 0.17061,-1.38454c0.00195,-0.19648 0.0089,-0.40439 0.02412,-0.61637c-0.00322,-0.05531 -0.00486,-0.11104 -0.00486,-0.16716c0,-0.24475 0.03108,-0.48224 0.0895,-0.70874c-0.1454,-0.19037 -0.23176,-0.42824 -0.23176,-0.68628c0,-0.1682 0.03669,-0.32783 0.10251,-0.47133c-0.06582,-0.14349 -0.10251,-0.30312 -0.10251,-0.47132c0,-0.62502 0.50669,-1.13172 1.13172,-1.13172c0.25165,0 0.48413,0.08214 0.67207,0.22108c0.08669,-0.02127 0.17732,-0.03255 0.27057,-0.03255c0.1322,0 0.25912,0.02267 0.37706,0.06433c0.09013,-0.03184 0.1855,-0.05259 0.28446,-0.0606c0.20732,-0.2336 0.50982,-0.38079 0.84671,-0.38079zM237.10843,177.47357c-0.52815,0.79223 0.71198,2.54206 1.48362,2.77861c0.34236,0.10495 0.68453,0.2406 1.03984,0.27608c0.38741,0.28043 1.46579,0.45616 1.66317,0.47816c0.9533,0.10625 2.11255,0.21283 2.9988,-0.25798c0.28054,-0.03358 0.55647,-0.08996 0.8035,-0.21347c0.09644,-0.04822 0.19367,-0.10345 0.29069,-0.16495c1.29492,-0.37178 2.26908,-1.14939 2.26908,-2.69618c0,-0.41003 -0.09359,-0.8377 -0.29703,-1.19371c-0.06338,-0.11091 -0.198,-0.14666 -0.32632,-0.19203c0.0105,-0.0832 0.00864,-0.16171 -0.03903,-0.22434c-0.25271,-0.332 -0.58157,-0.62286 -0.95476,-0.80946c-0.22407,-0.11204 -0.52031,-0.16709 -0.8001,-0.21367c-0.5822,-0.25453 -1.28895,-0.31871 -1.81558,-0.44632c-0.99104,-0.24014 -2.84245,-0.33493 -3.88963,0.18866c-0.29304,0.14652 -0.53234,0.33554 -0.722,0.55431c-0.22112,0.02573 -0.4392,0.058 -0.59769,0.1998c-0.13092,0.11714 -0.22937,0.26045 -0.31342,0.41542c-0.37816,0.351 -0.63616,0.82968 -0.70539,1.36748z" fill="#0013e8" stroke="none" stroke-width="0.5" stroke-linecap="butt"/><g fill="#00096b" stroke="none" stroke-width="0.5" stroke-linecap="butt"><path d="M249.0083,202.1327c0,0.56585 -0.56585,0.56585 -0.56585,0.56585l-0.38665,-0.02904c-0.176,0.05817 -0.35199,0.11633 -0.52799,0.17449c-1.02617,0.50389 -2.10009,0.55483 -3.23299,0.5144c-0.30204,-0.01078 -0.63915,0.08796 -0.90497,-0.05585c-0.30381,-0.16437 -0.53073,-0.47614 -0.66589,-0.79403c-0.11058,-0.26005 -0.02592,-0.56463 -0.0319,-0.84714c-0.01459,-0.68927 0.0462,-1.33754 0.09569,-2.01966c0.04777,-0.65838 -0.0493,-1.32752 0.00051,-1.9861c0.063,-0.83303 0.18924,-1.65988 0.18661,-2.49846c0,0 0,-0.56585 0.56585,-0.56585c0.56585,0 0.56585,0.56585 0.56585,0.56585c-0.00472,1.72716 -0.15904,3.49947 -0.28421,5.22464c-0.03087,0.42541 0.01343,0.85323 0.00142,1.27958c-0.00585,0.20782 -0.14813,0.58345 0.05632,0.62117c0.94374,0.17407 2.36574,-0.05083 3.21464,-0.4841c0.20106,-0.06752 0.40212,-0.13504 0.60319,-0.20256l0.74453,-0.02904c0,0 0.56585,0 0.56585,0.56585z"/><path d="M238.16792,202.32122c0,0.56585 -0.56585,0.56585 -0.56585,0.56585l0.08468,-0.02904c-1.28632,0.4249 -2.60875,0.31878 -3.9495,0.31183c-0.48304,-0.00251 -1.21597,0.07376 -1.61351,-0.33948c-0.0717,0.03496 -0.16087,0.05669 -0.27177,0.05669c-0.56585,0 -0.56585,-0.56585 -0.56585,-0.56585v-0.28279c0.00155,-0.49418 -0.24083,-1.03401 -0.03266,-1.48221c0.09429,-0.20301 0.45594,-0.14312 0.58848,-0.32351c0.07344,-0.09995 -0.07429,-0.23875 -0.08451,-0.36236c-0.03625,-0.4384 0,-0.8798 0,-1.31969c0.00325,-1.1917 0.38486,-2.49625 0.19583,-3.67993c-0.15937,-0.99794 -0.31489,-2.01164 -0.47132,-3.01645c-0.0941,-0.60438 -0.28149,-1.45731 -0.18853,-2.06656c0.03831,-0.25107 0.12429,-0.49683 0.23876,-0.72355c0.08409,-0.16655 0.54647,-0.47082 0.36598,-0.42351c-0.11153,0.02924 -0.21933,0.0712 -0.32899,0.10681c0,0 -0.06728,0 -0.15545,-0.0232l-0.04732,0.14285c-0.23325,0.03284 -0.4665,0.06569 -0.69976,0.09852c-0.73135,-0.00056 -2.36894,0.54542 -2.92273,-0.10441c-0.34574,-0.40571 -0.09463,-1.77273 -0.13268,-2.30519c-0.17073,-2.38945 -0.39105,-4.819 0.00628,-7.20295c0,0 0.09302,-0.55815 0.65118,-0.46513c0.55815,0.09303 0.46513,0.65118 0.46513,0.65118c-0.38244,2.29465 -0.15795,4.63694 0.00627,6.93668c0.03229,0.45212 0.06453,0.91096 0.00143,1.35981c-0.01499,0.10669 -0.13771,0.18642 -0.1341,0.29409c0.00196,0.05856 0.08388,-0.09034 0.1404,-0.1058c0.18438,-0.05044 0.37796,-0.05759 0.56674,-0.08765c0.41995,-0.06687 0.84661,-0.09918 1.27186,-0.0995c0.03655,-0.0053 0.07311,-0.01061 0.10967,-0.01592c0.04829,-0.07686 0.12502,-0.14958 0.24297,-0.20856c0.23538,-0.11769 0.41602,-0.07118 0.54194,0.01226c0.05292,-0.0088 0.08818,-0.0088 0.08818,-0.0088c0.91933,0.09911 1.41737,-0.14489 1.40923,1.20655c-0.00257,0.42653 -0.50212,0.72526 -0.56789,1.14669c-0.05453,0.34945 0.13476,0.69459 0.18854,1.04416c0.09008,0.58553 0.23951,1.23773 0.28817,1.83498c0.03453,0.42384 -0.07244,0.85581 -0.00538,1.27573c0.11141,0.69768 0.24957,1.28642 0.19391,2.02259c-0.06074,0.80333 -0.18915,1.59505 -0.18661,2.40419c0,0.5093 0.13863,1.5283 -0.01511,2.09352c0.20364,0.1653 0.20364,0.45161 0.20364,0.45161c0,0.21995 0.02362,0.44117 0,0.65985c-0.01238,0.11463 -0.14113,0.21892 -0.10681,0.32899c0.01995,0.06397 0.13029,-0.0351 0.19718,-0.03916c0.1894,-0.01148 0.37946,-0.00618 0.5692,-0.00731c1.21093,-0.0072 2.43161,0.13697 3.59163,-0.25376l0.2732,-0.02903c0,0 0.56585,0 0.56585,0.56585z"/></g><g fill="none" stroke="#000000" stroke-width="1.5" stroke-linecap="round"><g><path d="M242.57242,191.48695h-4.80747v11.31169c0,0 -2.03549,0.65985 -3.03548,0.65985c-1.04076,0 -3.09168,-0.65985 -3.09168,-0.65985v-16.49622"/><path d="M248.7944,186.30297v16.49623c0,0 -2.05335,0.75411 -3.03602,0.75411c-1.05462,0 -3.09114,-0.75411 -3.09114,-0.75411v-11.3117h-4.80748"/></g><path d="M231.61656,186.27639v-11.59448c0,0 0.62378,-3.57883 2.8626,-5.51499c1.45555,-1.25877 4.41005,-1.17015 5.53088,-1.18334c1.12441,-0.01323 3.74697,-0.34303 5.26144,0.86773c2.35962,1.88643 3.50948,5.6287 3.50948,5.6287v11.87728"/><path d="M231.49342,188.99518h-3.9591v-13.29125h4.14763"/></g><g stroke-linecap="butt"><path d="M248.10841,177.76986c0,1.9783 -2.49,3.58204 -5.56158,3.58204c-3.07158,0 -5.56159,-1.60374 -5.56159,-3.58204c0,-1.9783 2.49,-3.58203 5.56159,-3.58203c3.07158,0 5.56158,1.60374 5.56158,3.58203z" fill="#00fff4" stroke="#000000" stroke-width="1.5"/><path d="M246.71636,178.03503c-0.80024,0.80024 -1.60048,0 -1.60048,0l0.01134,-0.0708c-0.92507,-0.46614 -1.4818,-0.76182 -2.50786,-0.93283c0,0 -1.11632,-0.18606 -0.93026,-1.30237c0.18605,-1.11631 1.30237,-0.93026 1.30237,-0.93026c0.67886,0.11315 1.37695,0.17369 2.00792,0.47674c0.39646,0.19042 0.74591,0.46909 1.14006,0.66424l0.57692,0.49479c0,0 0.80024,0.80024 0,1.60048z" fill="#ffffff" stroke="none" stroke-width="0.5"/></g><g stroke="none" stroke-width="0" stroke-linecap="butt"><path d="M230.27927,173.05412l-0.81317,-5.57481l18.81498,-2.74445l0.81317,5.57481z" fill="#000000"/><path d="M233.11592,169.08196l-1.59585,-10.94056l12.12521,-1.76865l1.59585,10.94056z" fill="#000000"/><path d="M232.82115,167.06109l-0.24395,-1.67244l12.12521,-1.76865l0.24395,1.67244z" fill="#ffde00"/></g></g></g></g></svg>