<svg version="1.1" xmlns="http://www.w3.org/2000/svg" xmlns:xlink="http://www.w3.org/1999/xlink" width="51.06453" height="90.3853" viewBox="0,0,51.06453,90.3853"><defs><linearGradient x1="54.75212" y1="52.89556" x2="54.75212" y2="95.12518" gradientUnits="userSpaceOnUse" id="color-1"><stop offset="0" stop-color="#ffffff" stop-opacity="0"/><stop offset="1" stop-color="#ffffff"/></linearGradient><linearGradient x1="54.75212" y1="61.53889" x2="54.75212" y2="95.29928" gradientUnits="userSpaceOnUse" id="color-2"><stop offset="0" stop-color="#444444" stop-opacity="0"/><stop offset="1" stop-color="#444444"/></linearGradient><linearGradient x1="42.29179" y1="76.66016" x2="42.29179" y2="95.25192" gradientUnits="userSpaceOnUse" id="color-3"><stop offset="0" stop-color="#444444" stop-opacity="0"/><stop offset="1" stop-color="#444444"/></linearGradient><linearGradient x1="67.15838" y1="76.66016" x2="67.15838" y2="95.25192" gradientUnits="userSpaceOnUse" id="color-4"><stop offset="0" stop-color="#444444" stop-opacity="0"/><stop offset="1" stop-color="#444444"/></linearGradient></defs><g transform="translate(-29.37848,-27.19248)"><g stroke-miterlimit="10"><g><path d="M30.02066,95.226v-67.36377h49.46291v67.36377z" fill="#ffffff" stroke="none" stroke-width="0" stroke-linecap="butt"/><g stroke="#000000" stroke-width="2.5" stroke-linecap="butt"><path d="M46.97235,90.99726c0,4.9513 -2.1724,1.98876 -4.25716,1.98876c-2.08476,0 -3.29242,2.96255 -3.29242,-1.98876c0,-2.57646 -0.61228,-6.64985 0.12044,-8.28516c0.67539,-1.50733 2.65441,-1.06903 3.65435,-1.06903c1.03125,0 2.84129,-0.57409 3.52258,1.01783c0.69601,1.62629 0.25221,5.83426 0.25221,8.33636z" fill="#ff0000"/><path d="M48.73284,73.57696c0,11.85106 -4.93632,10.12829 -10.73456,10.12829c-3.00755,0 -5.4696,0.52573 -7.32253,-0.68199c-0.14907,-0.09716 0.0211,-9.51141 0.11819,-16.40341c0.05547,-3.93772 -0.18338,-7.07239 -0.12114,-7.2191c1.92496,-4.537 4.39258,-7.28202 7.56141,-7.28202c5.79823,0 10.49863,9.60718 10.49863,21.45823z" fill="#ff0000"/><path d="M34.41071,66.17427v-5.42626h9.67289v5.42626z" fill="#00ffe5"/></g><g stroke="#000000" stroke-width="2.5"><path d="M69.97476,67.5875c3.28338,0 5.94509,6.09619 5.94509,13.61623c0,6.31586 -1.87752,11.62736 -4.42399,13.16647c-0.48551,0.29345 -2.87078,0.18169 -3.48581,-0.31135c-2.31792,-1.8582 -3.98037,-6.91201 -3.98037,-12.85513c0,-7.52004 2.6617,-13.61623 5.94509,-13.61623z" fill="#1c1c1c" stroke-linecap="butt"/><path d="M74.08855,72.20078c1.71188,0 3.00752,6.49446 1.29564,6.49446c-1.71187,0 -2.69048,-1.18106 -2.69048,-2.97446c0,-1.79339 -0.31704,-3.52 1.39484,-3.52z" fill="#990000" stroke-linecap="butt"/><path d="M71.21707,54.33118c2.73025,0.33916 4.54031,3.86028 4.04287,7.86465c-0.49743,4.00437 -3.11398,6.9756 -5.84423,6.63644c-2.73025,-0.33916 -4.54031,-3.86028 -4.04287,-7.86465c0.49743,-4.00437 3.11398,-6.9756 5.84423,-6.63644z" fill="#ffd567" stroke-linecap="butt"/><path d="M65.93766,56.75075c0.32479,-2.42388 2.50714,-4.13167 5.41579,-3.74192c2.71235,0.36345 4.36077,2.12943 4.30755,4.33164c-0.00385,0.15938 -0.01661,0.32105 -0.03853,0.48464c-0.00684,0.05103 1.6869,0.27144 3.22111,0.50034c0.04205,0.00627 -0.14227,1.81152 -0.19356,1.80461c-1.72236,-0.23186 -3.79989,-0.91973 -4.09927,-0.85755c-0.92836,0.19279 -2.38532,-0.34697 -4.18124,-0.58762c-2.90866,-0.38975 -4.75662,0.48974 -4.43183,-1.93414z" fill="#181818" stroke-linecap="butt"/><path d="M70.938,64.42437l-0.08252,-3.08875" fill="none" stroke-linecap="round"/><path d="M67.77685,64.24413l-0.08252,-3.08875" fill="none" stroke-linecap="round"/><path d="M67.27714,75.26777c0,1.79339 -0.97861,2.97446 -2.69049,2.97446c-1.71188,0 -0.41623,-6.49446 1.29564,-6.49446c1.71188,0 1.39484,1.7266 1.39484,3.52z" fill="#990000" stroke-linecap="butt"/><path d="M63.76667,71.92267c1.6092,0.36799 1.62103,6.3192 0.02643,13.29241c-0.82612,3.61261 -1.92133,6.79079 -3.00884,8.96389c-0.50418,1.00746 -1.60979,0.06302 -2.47426,-0.09072c-0.87012,-0.15475 -1.49757,0.47442 -1.52575,-0.59363c-0.06459,-2.44692 0.32876,-5.88341 1.18142,-9.61213c1.5946,-6.97321 4.1918,-12.3278 5.801,-11.95981z" fill="#990000" stroke-linecap="butt"/><path d="M76.54265,72.15078c0.82316,-0.11381 2.63065,3.51439 2.63065,3.51439c0,0 -1.04775,15.7385 -1.21922,18.31412c-0.04584,0.6886 -0.25626,0.80332 -0.50924,-0.0143c-0.60559,-1.95727 -1.69175,-5.70187 -2.08899,-8.57484c-0.97973,-7.0858 -0.44839,-13.01326 1.18679,-13.23935z" fill="#990000" stroke-linecap="butt"/><path d="M70.141,69.33692v24.67883" fill="none" stroke-linecap="round"/></g><g><path d="M47.62409,92.68241c0,0 -0.3527,-4.71928 -0.50794,-7.98885c-0.17925,-3.77488 -2.4894,-13.88412 -2.00584,-19.04253c0.21962,-2.34288 3.55961,-2.88203 3.55961,-2.88203l11.09009,-0.25331c0,0 2.92719,0.51176 3.22795,2.60565c0.65927,4.58999 -0.17122,14.20104 0.00526,17.91803c0.17844,3.75805 -1.03084,9.19206 -1.03084,9.19206z" fill="#212121" stroke="none" stroke-width="0" stroke-linecap="butt"/><g fill="#000000" stroke="none" stroke-width="0" stroke-linecap="butt"><path d="M46.08973,67.24774c0,0 -0.11821,1.25466 -0.71018,2.35839c-0.42996,0.8017 -1.74108,2.08646 -2.7338,3.77967c-0.72928,1.24384 -1.28312,2.6076 -1.90004,3.81805c-1.01363,1.98881 -1.91025,3.5698 -1.91025,3.5698l-3.21161,-2.03811c0,0 1.6089,-3.76692 3.54962,-7.69614c0.56542,-1.14476 1.16388,-2.53529 1.75289,-3.56288c1.04646,-1.82569 2.35167,-2.73255 3.04768,-3.6047c1.38023,-1.72951 3.52268,-1.18594 3.52268,-1.18594l-1.407,4.56183z"/><path d="M38.76751,80.8807c-0.56281,0.88686 -1.73799,1.14956 -2.62485,0.58674c-0.88686,-0.56281 -1.14956,-1.73799 -0.58675,-2.62485c0.56281,-0.88686 1.73799,-1.14956 2.62487,-0.58674c0.88686,0.56281 1.14956,1.73801 0.58674,2.62486z"/></g><g fill="#000000" stroke="none" stroke-width="0" stroke-linecap="butt"><path d="M54.28738,83.75219l-1.14545,3.62715c0,0 -1.05382,0.67392 -2.99052,0.06887c-1.31354,-0.41038 -3.4874,-1.68253 -4.98616,-2.10054c-1.97706,-0.55141 -3.7061,-1.19535 -4.74196,-1.52248c-1.5611,-0.49299 -3.84539,-1.67671 -3.84539,-1.67671l1.14545,-3.62716c0,0 2.43222,0.26258 4.04899,0.77315c1.05578,0.33341 2.90594,1.34337 4.87885,2.04768c1.02381,0.36548 2.95658,1.17132 3.94232,1.4871c2.50738,0.80322 3.69388,0.92298 3.69388,0.92298z"/><path d="M38.8433,80.86942c-0.3163,1.00161 -1.38469,1.55716 -2.38631,1.24085c-1.00161,-0.3163 -1.55716,-1.38469 -1.24086,-2.3863c0.3163,-1.00161 1.38469,-1.55715 2.38631,-1.24086c1.00161,0.3163 1.55716,1.38469 1.24086,2.38631z"/></g><g fill="#000000" stroke="none" stroke-width="0" stroke-linecap="butt"><path d="M62.49169,67.68858l-1.86688,-4.3937c0,0 2.07551,-0.76019 3.62564,0.81884c0.78169,0.79627 2.17292,1.56466 3.40089,3.27354c0.69116,0.96184 1.42893,2.28377 2.10864,3.36458c2.333,3.70974 4.31931,7.29204 4.31931,7.29204l-2.98594,2.35637c0,0 -1.05385,-1.48083 -2.26588,-3.35535c-0.73767,-1.14089 -1.42831,-2.44073 -2.28115,-3.60333c-1.16095,-1.5826 -2.59676,-2.72632 -3.10659,-3.47974c-0.70189,-1.03729 -0.94803,-2.27326 -0.94803,-2.27326z"/><path d="M71.17187,80.49981c-0.65069,-0.82455 -0.50976,-2.02046 0.31479,-2.67116c0.82455,-0.65069 2.02046,-0.50976 2.67116,0.31479c0.65069,0.82455 0.50976,2.02046 -0.31479,2.67116c-0.82455,0.65069 -2.02046,0.50976 -2.67116,-0.31479z"/></g><g fill="#000000" stroke="none" stroke-width="0" stroke-linecap="butt"><path d="M55.6245,83.29449c0,0 1.18586,-0.12599 3.68897,-0.94239c0.98407,-0.32095 2.91257,-1.13695 3.93444,-1.50783c1.96918,-0.71467 3.81401,-1.73433 4.86802,-2.07329c1.61405,-0.51908 4.04487,-0.79444 4.04487,-0.79444l1.16451,3.62109c0,0 -2.27802,1.19572 -3.83651,1.69692c-1.03414,0.33258 -2.75976,0.98558 -4.73389,1.54741c-1.49654,0.42589 -3.66368,1.70946 -4.97503,2.12675c-1.93349,0.61525 -2.99084,-0.05312 -2.99084,-0.05312l-1.16451,-3.62109z"/><path d="M72.2815,77.93771c0.99994,-0.32157 2.07122,0.22835 2.3928,1.22828c0.32157,0.99994 -0.22835,2.07122 -1.22829,2.39281c-0.99994,0.32157 -2.07122,-0.22835 -2.3928,-1.22829c-0.32157,-0.99994 0.22835,-2.07122 1.22828,-2.3928z"/></g><g><path d="M61.73919,55.19613c-0.0409,4.16627 -2.88386,7.51611 -6.34992,7.48209c-2.58738,-0.0254 -4.79724,-1.2531 -5.73098,-3.94986c-0.1686,-0.4869 -0.76962,0.08541 -1.51916,-0.69954c-0.66031,-0.6915 -1.52707,-3.68692 -1.05392,-4.07545c0.86104,-0.70708 2.24624,-0.61446 2.48715,-1.40152c0.89261,-2.91623 3.23563,-4.98782 5.96507,-4.96102c3.46606,0.03402 6.24269,3.43904 6.20179,7.60531z" fill="#eda164" stroke="#000000" stroke-width="1" stroke-linecap="butt"/><path d="M49.05878,57.4196c-0.63392,-0.00623 -0.6277,-0.64014 -0.6277,-0.64014l0.05129,-0.00335c-0.2836,-0.68571 -0.72234,-1.61146 -0.34411,-2.36315c0.01336,-0.02655 0.02742,-0.05263 0.04213,-0.0783l-0.01212,-0.00533l0.19192,-0.43596c-0.14444,-0.11758 -0.23599,-0.29743 -0.23401,-0.49816l0.00661,-0.67341c-0.06929,-0.18099 -0.1386,-0.362 -0.2079,-0.543c0,0 -0.21675,-0.59574 0.37898,-0.8125c0.08116,-0.02954 0.15531,-0.04398 0.22281,-0.04692c0.03518,-0.03293 0.06866,-0.06468 0.10005,-0.09516l0.4001,-0.54868c0.00718,-0.0101 0.01463,-0.01998 0.02237,-0.02962c-0.01456,-0.11925 -0.02842,-0.23599 -0.04684,-0.34435c-0.21886,-1.287 0.8611,-2.76486 1.44881,-3.79487l0.1144,-0.0476l-0.02955,-0.03617l0.50807,-0.41501c0.1113,-0.09225 0.25461,-0.14712 0.4105,-0.14558c0.23777,0.00234 0.44368,0.13527 0.55026,0.33c0.08778,-0.0445 0.18726,-0.06916 0.29248,-0.06813c0.20712,0.00203 0.39005,0.10317 0.50422,0.25791c0.22357,-0.08252 0.43823,-0.14477 0.6086,-0.17102c0.15186,-0.16176 0.33327,-0.34186 0.55682,-0.56106l0.51211,-0.50215c0.11584,-0.11359 0.27502,-0.18299 0.45007,-0.18127c0.35011,0.00344 0.63113,0.29004 0.6277,0.64014c-0.00125,0.12692 -0.03971,0.24477 -0.10492,0.34327l-0.26351,0.41253l0.32442,-0.03282c0.02596,-0.00297 0.0524,-0.00438 0.07921,-0.00412c0.20801,0.00204 0.39162,0.10404 0.5057,0.25992l0.59356,-0.14222c0.05352,-0.01406 0.10977,-0.02131 0.16776,-0.02073c0.35011,0.00344 0.63113,0.29004 0.6277,0.64014c-0.0003,0.03059 -0.00276,0.06066 -0.00724,0.09006c0.085,-0.03287 0.1707,-0.0637 0.2571,-0.09233l0.6574,-0.23918c0.0733,-0.02862 0.1532,-0.044 0.23672,-0.04317c0.35011,0.00344 0.63113,0.29004 0.62769,0.64014c-0.00087,0.08831 -0.01976,0.17222 -0.05313,0.24828l-0.26288,0.63893c0.05732,-0.02149 0.115,-0.04158 0.17289,-0.06029l0.02527,0.00106l-0.00172,-0.00718l0.66402,-0.1591c0.05352,-0.01406 0.10977,-0.02131 0.16776,-0.02073c0.35011,0.00344 0.63113,0.29004 0.62769,0.64014c-0.00097,0.09863 -0.02441,0.19178 -0.06541,0.27463c0.06306,0.03752 0.12917,0.07969 0.19848,0.1268c0.16548,0.1125 0.27068,0.25302 0.32862,0.41238c0.30741,0.04642 0.54163,0.31324 0.53848,0.63303c-0.00028,0.02866 -0.00246,0.05686 -0.00642,0.08447c0.00342,0.02768 0.00505,0.05592 0.00476,0.08458c-0.00094,0.09658 -0.02345,0.18791 -0.06288,0.26945l-0.33384,0.73169c-0.09788,0.22793 -0.32544,0.38654 -0.58899,0.38394c-0.00651,-0.00007 -0.01299,-0.00022 -0.01945,-0.00048c-0.06513,0.06559 -0.13166,0.12989 -0.19938,0.19306l0.05966,0.04265l-0.59481,0.8322c-0.11572,0.16648 -0.30912,0.27465 -0.52714,0.27251c-0.12016,-0.00118 -0.23218,-0.03571 -0.32736,-0.09473c-0.03083,0.00429 -0.06237,0.00636 -0.09443,0.00605c-0.33519,-0.00329 -0.60707,-0.26612 -0.62661,-0.59575c-0.08307,0.02318 -0.16405,0.04356 -0.23687,0.06312c-0.13137,0.03529 -0.27565,0.05989 -0.42819,0.07717c-0.25621,0.17488 -0.48256,0.41172 -0.7803,0.48364c-0.4431,0.10703 -0.91144,-0.02121 -1.36717,-0.03179l-0.08568,-0.33184c-0.36101,0.08671 -0.7029,0.26829 -1.06232,0.36412c-0.07195,0.04679 -0.14317,0.09418 -0.20708,0.14754l-0.645,0.15097c-0.04938,0.01845 -0.10168,0.03092 -0.15597,0.03651l-0.57109,0.13367c-0.05349,0.03681 -0.10235,0.06504 -0.14454,0.08329c-0.08775,0.03793 -0.17927,0.03541 -0.27294,0.01443l-0.09522,0.0223c0.00714,-0.01403 0.01429,-0.02808 0.02143,-0.0421c-0.07539,-0.02317 -0.15186,-0.05438 -0.22861,-0.08252l-0.11617,0.17058l-0.03076,-0.02095c-0.04275,0.08272 -0.0852,0.1639 -0.1275,0.24376c-0.19194,0.64091 -0.35227,1.28398 -0.34755,1.87195l-0.00664,0.67619c-0.00344,0.35011 -0.29004,0.63114 -0.64014,0.6277c-0.16895,-0.00166 -0.32181,-0.06926 -0.4344,-0.17812c-0.09551,0.05578 -0.20685,0.08729 -0.32549,0.08612c-0.10824,-0.00106 -0.20987,-0.0292 -0.29854,-0.07789c-0.01762,0.1512 -0.11367,0.58103 -0.63621,0.57589z" fill="#5f4128" stroke="none" stroke-width="0.5" stroke-linecap="butt"/><g stroke-width="1"><g fill="#353535" stroke-linecap="butt"><path d="M50.83618,58.79013c-0.60166,-0.87175 -0.13792,-1.39183 -0.11691,-2.62112c0.00852,-0.49863 -1.62288,-1.27191 -1.72998,-1.88223c-0.10676,-0.60843 0.33974,-1.19037 0.53169,-1.60223c0.32509,-0.69755 2.07981,-0.8078 2.63774,-0.89215c1.93132,-0.29201 5.02298,-0.29635 7.54052,0.37599c0.47032,0.1256 1.54843,0.42611 1.95123,1.24161c0.14623,0.29607 0.333,0.68096 0.30717,1.09619c-0.0306,0.49233 -0.29145,1.02803 -0.30276,1.51851c-0.028,1.21309 0.40368,1.96322 -0.18567,2.86982c-0.75479,1.16109 -1.94534,1.61768 -4.64548,1.86498c-0.07454,0.00683 -1.02072,0.12004 -2.14287,-0.11009c-1.54286,-0.31642 -3.41938,-1.24305 -3.84468,-1.85928z" stroke="#000000"/><path d="M53.24385,47.2487c0.11756,-0.1331 0.29008,-0.21634 0.48159,-0.21447c0.35011,0.00344 0.63113,0.29004 0.6277,0.64014c-0.00153,0.15588 -0.05919,0.29807 -0.15362,0.40756l-0.16393,0.19283c-0.03987,0.08422 -0.09776,0.1582 -0.16862,0.217l-0.05556,0.04668l-0.00956,0.01126c-0.197,0.33986 -0.36433,0.67122 -0.4984,1.00223l0.00584,0.02453c0.09552,0.86814 0.41193,1.65465 0.68839,2.4769c0.12908,0.3839 0.50064,0.7898 0.34685,1.16448c-0.16087,0.39194 -0.67986,0.55185 -1.09186,0.65062c-0.73995,0.17736 -2.16314,-0.12837 -2.71185,-0.87088c-0.08962,-0.12127 -0.1559,-0.25419 -0.19208,-0.39856c-0.09442,-0.3768 0.16957,-0.75931 0.2891,-1.12892c0.08694,-0.26881 0.20196,-0.55782 0.3317,-0.85208c0.1129,-0.621 0.50031,-1.24929 0.89327,-1.79528c0.00413,-0.00781 0.00823,-0.01559 0.01234,-0.02334c0.13995,-0.26456 0.24512,-0.62654 0.52708,-0.72691c0.01002,-0.00357 0.01997,-0.00628 0.02983,-0.00818c0.01003,-0.0134 0.01996,-0.02668 0.02974,-0.03984l-0.004,-0.00474l0.01993,-0.01674c0.00431,-0.00582 0.00859,-0.01162 0.01285,-0.01739l0.01146,-0.00303l0.05364,-0.04508l-0.00576,-0.00704l0.31528,-0.25754z" stroke="#000000"/><path d="M60.16957,47.9711l0.23549,0.33209l-0.00743,0.00526l0.03974,0.05773l0.01024,0.00597c0.00257,0.0067 0.00515,0.01343 0.00776,0.02019l0.01476,0.02143l-0.0051,0.0035c0.00594,0.01529 0.01196,0.03073 0.01808,0.04632c0.009,0.00446 0.01786,0.00971 0.02658,0.01581c0.24514,0.1717 0.25033,0.54862 0.31491,0.84086c0.00189,0.00857 0.00379,0.01716 0.0057,0.02577c0.2337,0.6308 0.44016,1.33946 0.38394,1.96813c0.04684,0.31817 0.08091,0.62733 0.09327,0.90961c0.017,0.38807 0.16981,0.82701 -0.02137,1.16514c-0.52175,0.92283 -2.36191,0.8796 -3.13689,0.45189c-0.37093,-0.20471 -0.82874,-0.49683 -0.87965,-0.91742c-0.04866,-0.40207 0.41744,-0.69461 0.64389,-1.03038c0.48507,-0.71919 0.99916,-1.3933 1.32201,-2.20481l0.01214,-0.0221c-0.04126,-0.35476 -0.1145,-0.71865 -0.21408,-1.09866l-0.00623,-0.01339l-0.04115,-0.05977c-0.05267,-0.07554 -0.0888,-0.16223 -0.10485,-0.25402l-0.10677,-0.22947c-0.06192,-0.13064 -0.07971,-0.28304 -0.03975,-0.43373c0.08974,-0.33843 0.43686,-0.54002 0.77527,-0.45027c0.18512,0.04909 0.32932,0.17519 0.40726,0.33476z" stroke="#000000"/><path d="M61.70898,54.39754c-0.06904,0.05073 -0.13559,0.08527 -0.1991,0.10708c-0.00938,0.16258 -0.05362,0.31469 -0.1487,0.44374c-0.24698,0.33527 -0.83371,-0.01119 -1.24825,-0.0509c-1.25896,-0.12064 -2.40916,-0.60891 -3.61617,-0.95475c-0.28367,-0.08128 -0.60367,-0.19328 -0.93023,-0.29556c-0.06973,0.06007 -0.15266,0.10519 -0.24377,0.13045c0.03298,0.07781 0.05085,0.16351 0.04996,0.25341c-0.00317,0.32287 -0.24714,0.58697 -0.55966,0.62343l-0.70176,0.09323l-0.00177,-0.01336c-0.02079,0.00654 -0.04171,0.01274 -0.06275,0.01859c-0.53675,0.14931 -1.1128,-0.06269 -1.66986,-0.07084l-0.06676,-0.03461l-0.00522,0.02128l-0.84764,-0.20826c-0.24482,-0.05464 -0.43572,-0.25069 -0.48359,-0.49722c-0.16882,0.06637 -0.53405,0.14659 -0.77847,-0.25946c-0.32693,-0.54315 0.07309,-1.05263 0.07309,-1.05263c1.14269,-0.68015 1.87276,-0.81736 3.06779,-0.64344c0.16652,-0.04512 0.82231,-0.24369 0.99479,-0.2435c0.57191,0.00066 1.13686,0.50932 1.74798,0.69348c0.07277,-0.12544 0.18727,-0.22354 0.32432,-0.27544l0.59743,-0.24208l0.01036,0.02558c0.0432,-0.02381 0.08762,-0.04557 0.13348,-0.06493c0.46231,-0.19515 1.22925,0.21342 1.63991,0.3366c1.08398,0.3251 1.85942,0.20614 2.79992,0.95374l0.26016,0.3201c0,0 0.37537,0.51087 -0.1355,0.88625z" stroke="none"/></g><path d="M54.78343,55.87887l-0.25606,0.25108l-0.50796,0.07954l-1.09797,-0.09531l-0.84149,-0.38865l-0.45866,-0.63848l0.76444,-0.37288l0.76071,0.00747l1.05488,0.17943z" fill="none" stroke="#000000" stroke-linecap="round"/><path d="M57.86176,54.95142l1.0582,-0.15868l0.76071,0.00748l0.75699,0.38782l-0.4711,0.62936l-0.84897,0.37205l-1.09963,0.07373l-0.50631,-0.0895l-0.25108,-0.25606z" fill="none" stroke="#000000" stroke-linecap="round"/><path d="M56.80734,60.36549l-0.0112,1.14106" fill="none" stroke="#000000" stroke-linecap="round"/><path d="M55.99038,60.35766l0.01677,1.14098" fill="none" stroke="#000000" stroke-linecap="round"/><path d="M55.23382,60.15994l-0.03007,1.14072" fill="none" stroke="#000000" stroke-linecap="round"/><path d="M54.45229,61.12421l0.0318,-1.14067" fill="none" stroke="#000000" stroke-linecap="round"/><path d="M53.69531,59.76482l-0.05603,1.13974" fill="none" stroke="#000000" stroke-linecap="round"/><path d="M52.89928,60.62241l0.06228,-1.13941" fill="none" stroke="#000000" stroke-linecap="round"/><path d="M52.20287,60.19327l0.0434,-1.14029" fill="none" stroke="#000000" stroke-linecap="round"/><path d="M51.45816,59.65588l0.10629,-1.13615" fill="none" stroke="#000000" stroke-linecap="round"/><path d="M57.64354,61.44979l-0.07643,-1.13855" fill="none" stroke="#000000" stroke-linecap="round"/><path d="M58.46149,61.35365l-0.0198,-1.14094" fill="none" stroke="#000000" stroke-linecap="round"/><path d="M59.25972,61.25366l-0.09277,-1.13734" fill="none" stroke="#000000" stroke-linecap="round"/><path d="M60.1232,59.87042l0.04478,1.14025" fill="none" stroke="#000000" stroke-linecap="round"/><path d="M61.07353,60.72395l-0.03282,-1.14065" fill="none" stroke="#000000" stroke-linecap="round"/><path d="M61.81679,60.14889l-0.09795,-1.13691" fill="none" stroke="#000000" stroke-linecap="round"/></g></g><path d="M57.969,88.67444c-1.6556,1.30289 -2.64281,0.01765 -3.13702,-1.64457c-0.57076,0.86362 -1.25082,1.69934 -1.91539,2.34049c-0.28725,0.68835 -0.96997,1.16907 -1.76174,1.16129c-1.04272,-0.01024 -1.87971,-0.86383 -1.86949,-1.90655c0.00244,-0.24832 0.0527,-0.48497 0.14196,-0.70127c0.58021,-1.77032 2.77852,-4.49316 3.8486,-5.30237c0.48468,-0.36653 1.36976,-0.40151 2.04534,-0.15645c0.28559,-0.16802 0.61909,-0.26298 0.97455,-0.2595c0.3496,0.00343 0.67607,0.10166 0.95524,0.27003c0.3258,-0.25601 0.73767,-0.40701 1.18423,-0.40263c0.91828,0.00902 1.67699,0.6721 1.83804,1.54241c1.01264,1.03077 1.99677,2.30651 2.20355,3.18416c0.35787,1.51897 -0.77037,2.97928 -2.34804,2.56836c-0.38838,-0.10117 -0.93555,-0.6187 -1.48686,-1.32032c-0.16132,0.23052 -0.40513,0.41615 -0.67295,0.62691z" fill="#212121" stroke="none" stroke-width="0.5" stroke-linecap="butt"/><path d="M62.26827,86.61097l-3.18798,-4.33874" fill="none" stroke="#000000" stroke-width="1.5" stroke-linecap="round"/><path d="M48.77081,87.82683l4.16455,-5.00631" fill="none" stroke="#000000" stroke-width="1.5" stroke-linecap="round"/><g fill="none" stroke="none" stroke-width="1" stroke-linecap="butt" font-family="sans-serif" font-weight="normal" font-size="12" text-anchor="start"/><g fill="none" stroke="none" stroke-width="1" stroke-linecap="butt" font-family="sans-serif" font-weight="normal" font-size="12" text-anchor="start"/></g><g fill="url(#color-1)" stroke="none" stroke-linecap="butt"><path d="M29.91429,95.12518v-42.22962h49.67565v42.22962z" stroke-width="NaN"/><path d="M29.91429,95.12518v-42.22962h49.67565v42.22962z" stroke-width="NaN"/></g><path d="M37.89606,95.226l-7.87539,-33.9726v-6.482l9.37802,40.4546zM34.87733,95.226l-4.85666,-20.95051v-6.482l6.35929,27.43251zM31.56654,95.226l-1.54587,-6.66853v-6.482l3.0485,13.15053zM70.10555,95.226l9.37802,-40.4546v6.482l-7.87539,33.9726zM73.12428,95.226l6.35929,-27.4325v6.482l-4.85666,20.9505zM76.43507,95.226l3.0485,-13.15052v6.482l-1.54587,6.66852z" fill="#ffa000" stroke="#ffa000" stroke-width="0" stroke-linecap="butt"/><text transform="translate(40.41715,35.95821) scale(0.23039,0.23039)" font-size="40" xml:space="preserve" fill="#000000" stroke="none" stroke-width="1" stroke-linecap="butt" font-family="Archivo Black" font-weight="normal" text-anchor="start"><tspan x="0" dy="0">CORE</tspan></text><g stroke="none" stroke-width="0" stroke-linecap="butt"><path d="M54.75212,61.53889l18.95486,33.7604h-37.90972z" fill="url(#color-2)"/><path d="M42.29179,76.66016l12.20184,18.59177h-24.40367z" fill="url(#color-3)"/><path d="M67.15838,76.66016l12.20184,18.59177h-24.40367z" fill="url(#color-4)"/></g><text transform="translate(33.27041,91.53511) scale(0.23039,0.23039)" font-size="40" xml:space="preserve" fill="#000000" stroke="none" stroke-width="1" stroke-linecap="butt" font-family="Archivo Black" font-weight="normal" text-anchor="start"><tspan x="0" dy="0">REKORD</tspan></text><path d="M29.37848,95.89577v-68.70329h50.74727v68.70329zM79.28686,94.9581v-66.82796h-49.06949v66.82796z" fill="#000000" stroke="none" stroke-width="0" stroke-linecap="butt"/></g><path d="M32.24188,115.79096v-20.46385h45.02046v20.46385z" fill="#1b1b1b" stroke="none" stroke-width="0" stroke-linecap="butt"/><text transform="translate(37.59212,111.32778) scale(0.5,0.5)" font-size="40" xml:space="preserve" fill="#00ff15" stroke="none" stroke-width="1" stroke-linecap="butt" font-family="Sans Serif" font-weight="normal" text-anchor="start"><tspan x="0" dy="0">$50</tspan></text></g></g></svg>