<svg version="1.1" xmlns="http://www.w3.org/2000/svg" xmlns:xlink="http://www.w3.org/1999/xlink" width="134.02878" height="290.04131" viewBox="0,0,134.02878,290.04131"><defs><linearGradient x1="239.43659" y1="80.22102" x2="249.87548" y2="186.16933" gradientUnits="userSpaceOnUse" id="color-1"><stop offset="0" stop-color="#000000"/><stop offset="1" stop-color="#f20000"/></linearGradient><linearGradient x1="239.43659" y1="80.22102" x2="249.87548" y2="186.16933" gradientUnits="userSpaceOnUse" id="color-2"><stop offset="0" stop-color="#000000"/><stop offset="1" stop-color="#3e0909"/></linearGradient><radialGradient cx="222.11381" cy="105.54325" r="23.16667" gradientUnits="userSpaceOnUse" id="color-3"><stop offset="0" stop-color="#000000"/><stop offset="1" stop-color="#000000" stop-opacity="0"/></radialGradient><radialGradient cx="264.06608" cy="97.72534" r="23.16666" gradientUnits="userSpaceOnUse" id="color-4"><stop offset="0" stop-color="#000000"/><stop offset="1" stop-color="#000000" stop-opacity="0"/></radialGradient><radialGradient cx="217.82204" cy="148.6719" r="28" gradientUnits="userSpaceOnUse" id="color-5"><stop offset="0" stop-color="#000000"/><stop offset="1" stop-color="#000000" stop-opacity="0"/></radialGradient><radialGradient cx="275.0474" cy="141.35885" r="28" gradientUnits="userSpaceOnUse" id="color-6"><stop offset="0" stop-color="#000000"/><stop offset="1" stop-color="#000000" stop-opacity="0"/></radialGradient><radialGradient cx="251.03909" cy="183.24814" r="28.66667" gradientUnits="userSpaceOnUse" id="color-7"><stop offset="0" stop-color="#000000"/><stop offset="1" stop-color="#000000" stop-opacity="0"/></radialGradient></defs><g transform="translate(-172.98561,-35.97934)"><g stroke-miterlimit="10"><g><g fill="none"><g stroke="#3e0909" stroke-width="4" stroke-linecap="round"><path d="M239.24458,174.53519l-2.26501,107.3535"/><path d="M174.98561,239.59855l63.79709,-43.16904l66.23169,42.37949"/><path d="M205.0692,320.78434l30.61717,-44.57565l22.30866,47.81197"/></g><g stroke="none" stroke-width="1" stroke-linecap="butt" font-family="sans-serif" font-weight="normal" font-size="12" text-anchor="start"><g/></g></g><g><path d="M238.32035,80.34315c29.18939,-3.49908 55.68862,17.32696 59.18772,46.51634c3.49908,29.18939 -17.32701,55.68863 -46.51634,59.18772c-29.1894,3.4991 -55.68862,-17.32696 -59.18773,-46.5163c-3.49915,-29.18937 17.32694,-55.68864 46.5163,-59.18773z" fill="url(#color-1)" stroke="url(#color-2)" stroke-width="3.5" stroke-linecap="butt"/><g stroke-linecap="butt"><path d="M212.01537,112.11414c0,0 -20.42691,-11.10194 -23.30591,-20.66097c-2.99419,-9.94154 -3.57312,-26.00843 -2.56842,-31.52681c0.64301,-3.53178 9.0369,-11.3131 17.37359,-13.57138c9.89052,-2.67918 19.9196,0.48289 19.9196,0.48289c0,0 -11.76057,3.50046 -18.22997,9.32354c-3.83132,3.44855 -4.15066,9.07082 -3.57769,11.56598c0.52484,2.28554 2.78578,7.14369 5.22274,9.88553c4.38132,4.92948 11.24991,15.68935 11.24991,15.68935c0,0 10.64045,6.69314 9.57002,10.00303c-0.5332,1.6487 -1.31415,5.85654 -5.5095,7.80817c-3.20646,1.4916 -10.14436,1.00066 -10.14436,1.00066z" fill="#000000" stroke="#3e0909" stroke-width="NaN"/><path d="M219.84224,82.48821c12.73295,-1.25456 24.07205,8.05052 25.32661,20.78347c1.25455,12.73295 -8.05052,24.07205 -20.78347,25.32661c-12.73294,1.25455 -24.07204,-8.05052 -25.3266,-20.78347c-1.25456,-12.73294 8.05051,-24.07205 20.78346,-25.3266z" fill="url(#color-3)" stroke="none" stroke-width="0"/></g><g stroke-linecap="butt"><path d="M265.10814,103.19742c-4.49555,-1.09534 -6.0827,-5.06984 -6.92741,-6.58277c-1.69581,-3.03732 7.43379,-11.67837 7.43379,-11.67837c0,0 4.6366,-11.89346 7.97163,-17.58322c1.855,-3.16473 3.12434,-8.37071 3.19303,-10.71473c0.07499,-2.559 -1.33547,-8.01083 -5.76614,-10.64536c-7.48144,-4.44852 -19.69903,-5.58646 -19.69903,-5.58646c0,0 9.21912,-5.05855 19.44233,-4.36115c8.61713,0.58784 18.36823,6.58138 19.68814,9.91976c2.06234,5.21618 4.63019,21.08711 3.63379,31.42183c-0.95808,9.93708 -18.82553,24.8121 -18.82553,24.8121c0,0 -6.7087,1.83552 -10.14459,0.99837z" fill="#000000" stroke="#3e0909" stroke-width="NaN"/><path d="M287.12112,95.45377c1.25456,12.73293 -8.05052,24.07204 -20.78346,25.32659c-12.73293,1.25455 -24.07205,-8.05052 -25.3266,-20.78345c-1.25455,-12.73293 8.05052,-24.07204 20.78346,-25.3266c12.73293,-1.25456 24.07204,8.05052 25.32659,20.78345z" fill="url(#color-4)" stroke="none" stroke-width="0"/></g><g fill="none" stroke="#3e0909" stroke-width="4" stroke-linecap="round"><g><path d="M235.67043,167.64383l26.17342,-2.88628"/></g><path d="M222.49427,131.82882l-17.91466,-0.84916"/><path d="M288.75202,123.34404l-20.19317,3.75234"/></g><path d="M215.07654,120.80683c15.38945,-1.51629 29.09427,9.73013 30.61057,25.11958c1.51629,15.38945 -9.73013,29.09427 -25.11957,30.61057c-15.38945,1.5163 -29.09428,-9.73013 -30.61057,-25.11958c-1.51629,-15.38945 9.73013,-29.09427 25.11958,-30.61056z" fill="url(#color-5)" stroke="none" stroke-width="0" stroke-linecap="butt"/><path d="M272.3019,113.49378c15.38946,-1.51629 29.09427,9.73012 30.61057,25.11958c1.5163,15.38946 -9.73012,29.09427 -25.11958,30.61057c-15.38946,1.5163 -29.09427,-9.73012 -30.61056,-25.11958c-1.51629,-15.38946 9.73011,-29.09427 25.11957,-30.61056z" fill="url(#color-6)" stroke="none" stroke-width="0" stroke-linecap="butt"/><g fill="#ff0000" stroke="#3e0909" stroke-width="3.5" stroke-linecap="butt"><path d="M217.78846,141.56037c0.58979,-0.05811 1.16984,-0.04226 1.7309,0.04002c3.14897,0.46176 5.70037,3.01561 6.02652,6.32584c0.38426,3.90004 -2.46584,7.37314 -6.36588,7.75741c-3.90002,0.38426 -7.37315,-2.46585 -7.75741,-6.36587c-0.38426,-3.90004 2.46583,-7.37314 6.36587,-7.7574z"/><g><path d="M282.12446,141.31612c0.38426,3.90004 -2.46584,7.37315 -6.36588,7.75741c-3.90005,0.38426 -7.37314,-2.46582 -7.75741,-6.36587c-0.38426,-3.90005 2.46584,-7.37317 6.36587,-7.75743c3.90005,-0.38426 7.37316,2.46584 7.75742,6.36589z"/></g></g><path d="M248.22823,154.71961c13.25791,-1.30628 25.29461,6.63927 29.70292,18.57881c0.4115,1.11451 -13.50789,10.57395 -27.34719,12.11503c-14.0944,1.56948 -28.11604,-4.79884 -27.97794,-5.86693c1.67319,-12.94162 12.08123,-23.49274 25.62223,-24.82691z" fill="url(#color-7)" stroke="none" stroke-width="0" stroke-linecap="butt"/></g></g></g></g></svg>