<svg viewBox="0,0,107.33862,91.67198" height="91.67198" width="107.33862" xmlns:xlink="http://www.w3.org/1999/xlink" xmlns="http://www.w3.org/2000/svg" version="1.1"><g transform="translate(-185.23733,-135.10655)"><g style="mix-blend-mode: normal" stroke-dashoffset="0" stroke-dasharray="" stroke-miterlimit="10" stroke-linejoin="miter" stroke-linecap="butt" stroke-width="2.5" stroke="#000000" fill-rule="nonzero" data-paper-data="{&quot;isPaintingLayer&quot;:true}"><path fill="#00cfff" data-paper-data="{&quot;index&quot;:null}" d="M250.4544,191.47974v-34.21439h14.25599v34.21439z"></path><path fill="#00cfff" data-paper-data="{&quot;index&quot;:null}" d="M218.83558,214.66586c0,-5.03973 -0.8939,-13.51545 0.508,-16.79113c1.37227,-3.20645 5.01806,-2.05011 7.0952,-2.05011c2.01407,0 6.00023,-0.88284 7.3606,2.15324c1.47586,3.29384 0.24259,11.49846 0.24259,16.68799c0,9.97294 -3.18439,8.39192 -7.38352,8.39192c-4.19914,0 -7.82288,1.58102 -7.82288,-8.39192z"></path><path fill="#00cfff" data-paper-data="{&quot;index&quot;:null}" d="M239.30391,215.15992c0,-5.03972 -0.8939,-13.51545 0.508,-16.79113c1.37227,-3.20645 5.01806,-2.05011 7.0952,-2.05011c2.01406,0 6.00023,-0.88284 7.3606,2.15324c1.47586,3.29384 0.24259,11.49846 0.24259,16.68799c0,9.97294 -3.18439,8.39192 -7.38352,8.39192c-4.19913,0 -7.82288,1.58102 -7.82288,-8.39192z"></path><path fill="#00cfff" data-paper-data="{&quot;index&quot;:null}" d="M236.436,136.35655c11.67883,0 21.14639,19.35082 21.14639,43.22126c0,23.87045 -8.99236,20.40044 -20.67119,20.40044c-11.67883,0 -21.62159,3.47 -21.62159,-20.40044c0,-23.87044 9.46756,-43.22126 21.14639,-43.22126z"></path><path fill="#00ffe5" data-paper-data="{&quot;index&quot;:null}" d="M218.70535,163.96516l-0.17614,-10.92818c0,0 7.01207,6.51417 10.30768,6.46105c3.19482,-0.05149 9.17299,-6.77503 9.17299,-6.77503l0.17613,10.92819c0,0 -7.06064,8.30486 -10.13869,8.35447c-3.38609,0.05457 -9.34197,-8.04049 -9.34197,-8.04049z"></path><path fill="#00ffe5" d="M201.32402,213.68574c3.2703,-0.42853 6.2688,1.87517 6.69733,5.14547c0.42853,3.2703 -1.87517,6.26879 -5.14546,6.69732c-3.2703,0.42853 -6.2688,-1.87516 -6.69733,-5.14546c-0.42853,-3.2703 1.87517,-6.2688 5.14546,-6.69733z"></path><path fill="#00ffe5" d="M188.81023,201.96187c3.69955,-7.51032 10.50383,-11.7242 15.19778,-9.41199c4.69395,2.31222 5.50007,10.27496 1.80052,17.78528c-3.69955,7.51032 -10.50382,11.72421 -15.19778,9.41199c-4.69395,-2.31222 -5.50008,-10.27497 -1.80053,-17.78529z"></path><path fill="#00ffe5" d="M216.8035,166.06021c4.23035,2.07692 4.52347,10.14867 0.65469,18.02875c-3.86879,7.88007 -10.43444,12.58445 -14.6648,10.50753c-4.23035,-2.07692 -4.52347,-10.14868 -0.65468,-18.02875c3.86879,-7.88007 10.43444,-12.58445 14.66479,-10.50752z"></path><path fill="#00ffe5" data-paper-data="{&quot;index&quot;:null}" d="M266.88998,194.16072c2.93718,-1.50048 6.53461,-0.3358 8.03509,2.60138c1.50048,2.93718 0.33581,6.53461 -2.60137,8.03509c-2.93718,1.50048 -6.53462,0.33581 -8.0351,-2.60137c-1.50048,-2.93718 -0.3358,-6.53462 2.60138,-8.0351z"></path><path fill="#00ffe5" data-paper-data="{&quot;index&quot;:null}" d="M272.34088,185.96212c0.96654,-8.31609 5.96355,-14.5679 11.16111,-13.9638c5.19756,0.6041 8.62747,7.83533 7.66092,16.15142c-0.96654,8.31609 -5.96355,14.5679 -11.16111,13.96381c-5.19756,-0.6041 -8.62747,-7.83533 -7.66092,-16.15143z"></path><path fill="#00ffe5" data-paper-data="{&quot;index&quot;:null}" d="M251.81988,171.33096c0.20143,-4.70839 7.47465,-8.22113 16.24518,-7.84592c8.77053,0.37521 15.71717,4.49629 15.51574,9.20468c-0.20143,4.70839 -7.47465,8.22113 -16.24518,7.84592c-8.77053,-0.37521 -15.71717,-4.49629 -15.51574,-9.20468z"></path></g></g></svg>