<svg viewBox="0,0,146.6916,103.74529" height="103.74529" width="146.6916" xmlns:xlink="http://www.w3.org/1999/xlink" xmlns="http://www.w3.org/2000/svg" version="1.1"><g transform="translate(-166.87115,-139.88342)"><g style="mix-blend-mode: normal" stroke-dashoffset="0" stroke-dasharray="" stroke-miterlimit="10" stroke-linejoin="miter" stroke-width="5" stroke="#000000" fill-rule="nonzero" data-paper-data="{&quot;isPaintingLayer&quot;:true}"><path stroke-linecap="butt" fill="#f3f3f3" d="M202.38342,217.61659v-75.23317h75.23317v75.23317z"></path><path stroke-linecap="round" fill="none" d="M169.37115,158.9164l14.47213,-0.31023l17.81839,17.81839"></path><path stroke-linecap="round" fill="none" d="M187.0084,146.39965l-3.12919,11.37887l-8.24968,-9.38756"></path><path stroke-linecap="round" fill="none" data-paper-data="{&quot;index&quot;:null}" d="M278.77224,176.87301l17.81838,-17.81839l14.47213,0.31024"></path><path stroke-linecap="round" fill="none" data-paper-data="{&quot;index&quot;:null}" d="M304.80437,148.83941l-8.24968,9.38756l-3.12919,-11.37886"></path><path stroke-linecap="round" fill="none" d="M220.29157,217.23309v23.89562"></path><path stroke-linecap="round" fill="none" d="M256.41947,216.37968v23.0422"></path><path stroke-linecap="round" fill="none" d="M264.95361,179.39836c0,0 -16.31286,24.87022 -23.33068,24.78139c-7.86712,-0.09958 -23.60713,-25.35033 -23.60713,-25.35033"></path><path stroke-linecap="butt" fill="#000000" d="M231.1015,160.33877c0,3.92773 -2.86565,7.11179 -6.40061,7.11179c-3.53496,0 -6.40061,-3.18406 -6.40061,-7.11179c0,-3.92773 2.86565,-7.11179 6.40061,-7.11179c3.53496,0 6.40061,3.18406 6.40061,7.11179z"></path><path stroke-linecap="butt" fill="#000000" d="M263.1263,161.07169c0,3.92774 -2.86565,7.1118 -6.40061,7.1118c-3.53496,0 -6.40061,-3.18406 -6.40061,-7.1118c0,-3.92774 2.86565,-7.11179 6.40061,-7.11179c3.53496,0 6.40061,3.18405 6.40061,7.11179z"></path></g></g></svg>