<svg version="1.1" xmlns="http://www.w3.org/2000/svg" xmlns:xlink="http://www.w3.org/1999/xlink" width="471.74925" height="41.19763" viewBox="0,0,471.74925,41.19763"><defs><linearGradient x1="294.27995" y1="328.70397" x2="476.30675" y2="328.70397" gradientUnits="userSpaceOnUse" id="color-1"><stop offset="0" stop-color="#404040"/><stop offset="0.49057" stop-color="#2b2b2b"/><stop offset="1" stop-color="#404040"/></linearGradient><linearGradient x1="5.05746" y1="328.704" x2="187.0843" y2="328.704" gradientUnits="userSpaceOnUse" id="color-2"><stop offset="0" stop-color="#404040"/><stop offset="0.49057" stop-color="#2b2b2b"/><stop offset="1" stop-color="#404040"/></linearGradient></defs><g transform="translate(-4.8075,-307.07763)"><g stroke-miterlimit="10"><path d="M311.05895,348.02524c-9.2668,0 -16.77901,-7.51221 -16.77901,-16.77901v-5.08455c0,-9.2668 7.51221,-16.77901 16.77901,-16.77901h148.46879c9.2668,0 16.77901,7.51221 16.77901,16.77901v5.08455c0,9.2668 -7.51221,16.77901 -16.77901,16.77901z" fill-opacity="0.50196" fill="#2c2c2c" stroke="url(#color-1)" stroke-width="0.5"/><text transform="translate(318.12129,336.94256) scale(0.68655,0.68655)" font-size="40" xml:space="preserve" fill="#9c9c9c" stroke="none" stroke-width="1" font-family="Sans Serif" font-weight="normal" text-anchor="start"><tspan x="0" dy="0">Next Page</tspan></text><path d="M21.8365,348.02527c-9.2668,0 -16.779,-7.5122 -16.779,-16.779v-5.08456c0,-9.2668 7.5122,-16.779 16.779,-16.779h148.46879c9.2668,0 16.779,7.5122 16.779,16.779v5.08456c0,9.2668 -7.5122,16.779 -16.779,16.779z" fill-opacity="0.50196" fill="#2c2c2c" stroke="url(#color-2)" stroke-width="0.5"/><text transform="translate(28.55559,336.94259) scale(0.68655,0.68655)" font-size="40" xml:space="preserve" fill="#9c9c9c" stroke="none" stroke-width="1" font-family="Sans Serif" font-weight="normal" text-anchor="start"><tspan x="0" dy="0">Back Page</tspan></text></g></g></svg>