<svg viewBox="0,0,51.91408,72.89154" height="72.89154" width="51.91408" xmlns:xlink="http://www.w3.org/1999/xlink" xmlns="http://www.w3.org/2000/svg" version="1.1"><g transform="translate(-214.04296,-143.23801)"><g style="mix-blend-mode: normal" stroke-dashoffset="0" stroke-dasharray="" stroke-miterlimit="10" stroke-linejoin="miter" fill-rule="nonzero" data-paper-data="{&quot;isPaintingLayer&quot;:true}"><path stroke-linecap="butt" stroke-width="0" stroke="none" fill="#000000" d="M265.95704,209.64029c0,3.58392 -11.62136,6.48926 -25.95704,6.48926c-14.33568,0 -25.95704,-2.90534 -25.95704,-6.48926c0,-3.58392 11.62136,-6.48926 25.95704,-6.48926c14.33568,0 25.95704,2.90534 25.95704,6.48926z"></path><path stroke-linecap="butt" stroke-width="0.5" stroke="none" fill="#e83323" d="M223.06378,158.6473c0.1391,0 0.2751,0.01322 0.40683,0.03848c0.23435,-0.93856 0.5922,-1.82821 1.05528,-2.65071c0.08174,-0.20491 0.18069,-0.40233 0.30317,-0.58963c0.09215,-0.14092 0.18848,-0.28087 0.28879,-0.41922c0.0026,-0.00565 0.0052,-0.0113 0.0078,-0.01695c0.19531,-5.5677 4.6294,-10.05723 10.17429,-10.34059c0.5631,-0.20818 1.14311,-0.38065 1.73957,-0.5139c2.42751,-0.54228 4.87955,-0.27454 7.20213,0.51178c4.121,0.19416 7.6342,2.71131 9.25945,6.27133c0.00248,0.0027 0.00496,0.00539 0.00744,0.00809c3.67871,4.00331 3.25859,9.63718 3.46161,14.62806c0.12578,3.09212 0.40699,6.20073 0.03278,9.29307c-0.14973,1.2373 -0.32681,2.51908 -0.63317,3.76205c0.29465,0.66459 0.45834,1.40015 0.45834,2.17395c0,0.82907 -0.18792,1.61424 -0.52347,2.31526c0.07394,2.26025 -0.08888,4.60534 -0.18348,6.87479c0.38071,0.73709 0.59571,1.57368 0.59571,2.46047c0,0.86546 -0.20477,1.68308 -0.56851,2.40707c0.0206,0.24334 0.04528,0.48398 0.07455,0.72165c0.46364,3.76618 0.90059,7.80257 0.16031,11.55299c-0.06283,0.31829 -0.12087,0.64099 -0.18492,0.9618c0.20666,0.33 0.32612,0.72017 0.32612,1.13826c0,1.12684 -0.86784,2.05097 -1.97161,2.1405c-0.13308,0.10302 -0.27755,0.19979 -0.43465,0.28956c-2.11714,1.20979 -4.97696,1.13574 -6.75237,-0.4616c-1.17011,-0.0185 -2.11297,-0.97281 -2.11297,-2.14733c0,-0.38236 0.09992,-0.74137 0.27507,-1.05236c-0.29286,-0.6629 -0.45549,-1.39621 -0.45549,-2.16751c0,-0.59392 0.09644,-1.16531 0.2745,-1.69938c-0.17807,-0.53406 -0.2745,-1.10546 -0.2745,-1.69938c0,-0.82227 0.18484,-1.60136 0.51525,-2.298c-0.02304,-0.09688 -0.04344,-0.19478 -0.06115,-0.29363c-0.17853,-0.53469 -0.27522,-1.10682 -0.27522,-1.70154c0,-0.63061 0.10872,-1.23583 0.30844,-1.79794c-0.04683,-0.28371 -0.08382,-0.56482 -0.09342,-0.83876c-0.07707,-2.20025 0.14494,-4.23337 0.18315,-6.35925c-0.52163,-0.1963 -1.01126,-0.41552 -1.58849,-0.43568c-0.24201,-0.00845 -0.47832,-0.01465 -0.70951,-0.01895c-0.85204,0.21755 -1.74484,0.33321 -2.66465,0.33321c-0.78618,0 -1.55263,-0.08449 -2.29076,-0.24488c-0.59988,0.01237 -1.196,0.01534 -1.80776,-0.0026c-0.1411,1.8317 -0.7683,3.6101 -0.77643,5.50526c-0.01914,4.46224 0.18618,8.92844 0,13.38684c-0.0685,1.64024 -0.67049,3.05316 -1.70289,4.01729c-0.19654,-0.02431 -0.39022,-0.05139 -0.5737,-0.09237c-0.96553,-0.21564 -2.18648,0.81718 -2.94138,0.74043c-0.8671,-0.08816 -2.13125,-0.3639 -3.13582,-0.11829c-0.3578,-0.22978 -0.67945,-0.50321 -0.96217,-0.81447c-0.13529,-0.06426 -0.26747,-0.13402 -0.39625,-0.20899c-1.03226,-0.09184 -1.85444,-0.91403 -1.94628,-1.94628c-0.46135,-0.79256 -0.7256,-1.71398 -0.7256,-2.69713c0,-1.10267 0.33241,-2.12769 0.90248,-2.98035c-0.30602,-5.89587 -0.31925,-12.97985 -0.15081,-19.15444c0.00503,-0.18434 0.01105,-0.38974 0.01964,-0.61168c-0.62314,0.25008 -1.37837,0.38929 -2.29481,0.38929c-0.84939,0 -1.57054,-0.14687 -2.18218,-0.41383c-0.38515,0.36607 -0.90599,0.59072 -1.47931,0.59072c-1.18609,0 -2.14761,-0.96151 -2.14761,-2.14761c0,-0.32794 0.0735,-0.6387 0.20492,-0.91672c-0.01715,-0.1093 -0.02605,-0.22134 -0.02605,-0.33545c0,-0.54025 0.19948,-1.0339 0.52881,-1.41132c-0.49683,-2.24273 -0.41564,-4.95566 -0.32696,-7.32269c-0.19673,-0.81283 -0.30098,-1.66178 -0.30098,-2.53508c0,-0.90642 0.11231,-1.7866 0.32376,-2.6274c0.0037,-0.37286 0.01689,-0.7674 0.04578,-1.16967c-0.00612,-0.10495 -0.00922,-0.21071 -0.00922,-0.3172c0,-0.46445 0.05897,-0.91513 0.16984,-1.34495c-0.27591,-0.36127 -0.43979,-0.81266 -0.43979,-1.30233c0,-0.31919 0.06963,-0.62211 0.19453,-0.89441c-0.1249,-0.2723 -0.19453,-0.57522 -0.19453,-0.89441c0,-1.18609 0.96151,-2.14761 2.14761,-2.14761c0.47756,0 0.91872,0.15588 1.27536,0.41953c0.16452,-0.04036 0.33649,-0.06177 0.51345,-0.06177c0.25088,0 0.49172,0.04302 0.71553,0.12208c0.17103,-0.06042 0.35201,-0.09979 0.53981,-0.115c0.39342,-0.44328 0.96747,-0.72261 1.60677,-0.72261zM234.81536,162.49683c-1.00226,1.50339 1.35111,4.82397 2.81541,5.27287c0.64968,0.19916 1.29899,0.45657 1.97325,0.52391c0.73516,0.53216 2.78157,0.86565 3.15614,0.9074c1.80904,0.20163 4.00891,0.40389 5.69072,-0.48956c0.53237,-0.06372 1.05598,-0.17071 1.52477,-0.4051c0.18301,-0.09151 0.36752,-0.19632 0.55164,-0.31303c2.45732,-0.7055 4.30595,-2.18115 4.30595,-5.11644c0,-0.77811 -0.17761,-1.58967 -0.56367,-2.26526c-0.12027,-0.21047 -0.37573,-0.27831 -0.61923,-0.36441c0.01993,-0.15789 0.01639,-0.30687 -0.07408,-0.42572c-0.47957,-0.63002 -1.10361,-1.182 -1.8118,-1.5361c-0.42522,-0.21261 -0.98738,-0.31707 -1.51832,-0.40546c-1.10481,-0.48301 -2.44599,-0.6048 -3.44536,-0.84696c-1.88065,-0.4557 -5.39402,-0.63558 -7.38121,0.35802c-0.55609,0.27805 -1.0102,0.63673 -1.37012,1.05189c-0.41961,0.04884 -0.83345,0.11005 -1.13422,0.37916c-0.24844,0.22229 -0.43526,0.49425 -0.59476,0.78833c-0.71763,0.66607 -1.20721,1.57445 -1.33859,2.59502z"></path><g stroke-linecap="butt" stroke-width="0.5" stroke="none" fill="#922016"><path d="M257.09471,209.29154c0,1.0738 -1.0738,1.0738 -1.0738,1.0738l-0.73373,-0.0551c-0.33398,0.11038 -0.66795,0.22075 -1.00193,0.33113c-1.94733,0.95621 -3.98527,1.05287 -6.13514,0.97615c-0.57317,-0.02046 -1.21289,0.16693 -1.71733,-0.10598c-0.57654,-0.31192 -1.00715,-0.90355 -1.26364,-1.5068c-0.20983,-0.49349 -0.04918,-1.07148 -0.06053,-1.6076c-0.02769,-1.308 0.08766,-2.53819 0.18158,-3.83263c0.09065,-1.24937 -0.09354,-2.5192 0.00096,-3.76896c0.11954,-1.58082 0.35911,-3.1499 0.35411,-4.74123c0,0 0,-1.0738 1.0738,-1.0738c1.0738,0 1.0738,1.0738 1.0738,1.0738c-0.00895,3.27757 -0.30182,6.64082 -0.53935,9.91461c-0.05857,0.80729 0.02549,1.61913 0.0027,2.42822c-0.01111,0.39437 -0.2811,1.10719 0.10688,1.17876c1.79089,0.33032 4.48937,-0.09646 6.1003,-0.91865c0.38155,-0.12813 0.7631,-0.25627 1.14465,-0.3844l1.41286,-0.0551c0,0 1.0738,0 1.0738,1.0738z"></path><path d="M236.52333,209.6493c0,1.0738 -1.0738,1.0738 -1.0738,1.0738l0.16068,-0.0551c-2.441,0.80633 -4.95054,0.60493 -7.49483,0.59175c-0.91664,-0.00475 -2.3075,0.13996 -3.0619,-0.64423c-0.13605,0.06634 -0.30527,0.10759 -0.51573,0.10759c-1.0738,0 -1.0738,-1.0738 -1.0738,-1.0738v-0.53664c0.00295,-0.9378 -0.45701,-1.96219 -0.06196,-2.81273c0.17894,-0.38525 0.86521,-0.2716 1.11674,-0.61391c0.13937,-0.18967 -0.14098,-0.45308 -0.16037,-0.68764c-0.06878,-0.83194 0,-1.66956 0,-2.50434c0.00617,-2.26144 0.73034,-4.73703 0.37163,-6.98326c-0.30242,-1.89375 -0.59755,-3.81743 -0.89441,-5.72421c-0.17856,-1.14691 -0.53418,-2.76549 -0.35776,-3.92164c0.0727,-0.47645 0.23586,-0.94282 0.45308,-1.37306c0.15958,-0.31606 1.03701,-0.89347 0.69451,-0.80369c-0.21164,0.05549 -0.41621,0.13512 -0.62431,0.20269c0,0 -0.12768,0 -0.29499,-0.04403l-0.0898,0.27108c-0.44263,0.06232 -0.88527,0.12465 -1.32791,0.18697c-1.38785,-0.00107 -4.49546,1.03502 -5.54637,-0.19814c-0.65611,-0.76989 -0.17957,-3.36405 -0.25177,-4.37447c-0.32399,-4.53437 -0.74208,-9.14483 0.01191,-13.66877c0,0 0.17653,-1.05919 1.23572,-0.88266c1.05919,0.17653 0.88266,1.23572 0.88266,1.23572c-0.72574,4.35446 -0.29972,8.79935 0.01191,13.16347c0.06127,0.85797 0.12244,1.72869 0.0027,2.58047c-0.02846,0.20246 -0.26132,0.35375 -0.25447,0.55809c0.00372,0.11114 0.15918,-0.17143 0.26644,-0.20077c0.3499,-0.09572 0.71724,-0.10929 1.07548,-0.16633c0.79693,-0.12689 1.60657,-0.1882 2.41355,-0.18881c0.06937,-0.01007 0.13874,-0.02014 0.20812,-0.03022c0.09165,-0.14585 0.23724,-0.28385 0.46107,-0.39577c0.44667,-0.22334 0.78948,-0.13507 1.02842,0.02327c0.10042,-0.0167 0.16733,-0.0167 0.16733,-0.0167c1.74458,0.18808 2.68968,-0.27495 2.67424,2.28962c-0.00488,0.80941 -0.95285,1.37631 -1.07766,2.17605c-0.10349,0.66314 0.25571,1.31809 0.35777,1.98145c0.17095,1.11115 0.45451,2.34879 0.54685,3.48218c0.06553,0.80431 -0.13746,1.62403 -0.01021,2.42091c0.21143,1.32396 0.47361,2.44118 0.36797,3.8382c-0.11527,1.52444 -0.35893,3.02687 -0.35411,4.56235c0,0.96648 0.26306,2.9002 -0.02868,3.97281c0.38645,0.31369 0.38645,0.85699 0.38645,0.85699c0,0.41739 0.04482,0.8372 0,1.25217c-0.0235,0.21753 -0.26782,0.41543 -0.20269,0.62431c0.03785,0.1214 0.24725,-0.06661 0.37418,-0.07431c0.35942,-0.02179 0.72009,-0.01173 1.08016,-0.01387c2.29793,-0.01366 4.61437,0.25993 6.8157,-0.48154l0.51845,-0.0551c0,0 1.0738,0 1.0738,1.0738z"></path></g><g stroke-linecap="round" stroke-width="2.5" stroke="#000000" fill="none"><g><path d="M244.88159,189.0895h-9.12296v21.46579c0,0 -3.86268,1.25217 -5.76033,1.25217c-1.97502,0 -5.86697,-1.25217 -5.86697,-1.25217v-31.30427"></path><path data-paper-data="{&quot;index&quot;:null}" d="M256.68881,179.25205v31.30427c0,0 -3.89656,1.43105 -5.76135,1.43105c-2.00132,0 -5.86595,-1.43105 -5.86595,-1.43105v-21.46579h-9.12296"></path></g><path d="M224.09106,179.20161v-22.00243c0,0 1.18372,-6.79142 5.43225,-10.46559c2.76213,-2.38871 8.36878,-2.22056 10.49573,-2.24558c2.13375,-0.0251 7.11049,-0.65095 9.98443,1.64666c4.47776,3.57981 6.6598,10.68138 6.6598,10.68138v22.53908"></path><path d="M223.85737,184.36096h-7.51303v-25.2223h7.87079"></path></g><g stroke-linecap="butt"><path stroke-width="2.5" stroke="#000000" fill="#00fff4" d="M255.38704,163.05909c0,3.75415 -4.72519,6.7975 -10.55401,6.7975c-5.82882,0 -10.55401,-3.04334 -10.55401,-6.7975c0,-3.75415 4.72519,-6.7975 10.55401,-6.7975c5.82882,0 10.55401,3.04335 10.55401,6.7975z"></path><path stroke-width="0.5" stroke="none" fill="#ffffff" d="M252.74538,163.56229c-1.51859,1.51859 -3.03718,0 -3.03718,0l0.02151,-0.13435c-1.75548,-0.88458 -2.81196,-1.44567 -4.75907,-1.77019c0,0 -2.11839,-0.35307 -1.76532,-2.47145c0.35306,-2.11839 2.47145,-1.76532 2.47145,-1.76532c1.28825,0.21471 2.61299,0.32959 3.81036,0.90468c0.75235,0.36135 1.4155,0.89017 2.16346,1.26052l1.09479,0.93893c0,0 1.51859,1.51859 0,3.03718z"></path></g></g></g></svg>