<svg version="1.1" xmlns="http://www.w3.org/2000/svg" xmlns:xlink="http://www.w3.org/1999/xlink" width="73.13678" height="225.13314" viewBox="0,0,73.13678,225.13314"><g transform="translate(-203.43161,-67.43344)"><g stroke-miterlimit="10"><path d="M249.58945,275.64179v-23h13v23z" fill="#ffd2a4" stroke="#000000" stroke-width="2.5" stroke-linecap="butt"/><path d="M216.25612,275.30846v-23h13v23z" fill="#ffd2a4" stroke="#000000" stroke-width="2.5" stroke-linecap="butt"/><path d="M211.79917,209.01066c0,2.78904 -1.29837,5.05 -2.9,5.05c-1.60163,0 -2.9,-2.26096 -2.9,-5.05c0,-2.78904 1.29837,-5.05 2.9,-5.05c1.60163,0 2.9,2.26096 2.9,5.05z" fill="#ffd2a4" stroke="#000000" stroke-width="1.5" stroke-linecap="butt"/><path d="M206.53171,105.47692c0,-18.37119 14.8928,-33.26399 33.26399,-33.26399c18.3712,0 33.26398,14.89279 33.26398,33.26399c0,18.3712 -14.89279,33.26399 -33.26398,33.26399c-18.37119,0 -33.26399,-14.89279 -33.26399,-33.26399z" fill="#ffc387" stroke="#000000" stroke-width="2.5" stroke-linecap="butt"/><path d="M210.58131,106.91292c0,-16.6653 13.72265,-30.17518 30.65039,-30.17518c16.92774,0 30.65039,13.50988 30.65039,30.17519c0,16.6653 -13.72264,30.17519 -30.65038,30.17519c-16.92774,0 -30.65039,-13.50989 -30.65039,-30.17519z" fill="#ffd2a4" stroke="#000000" stroke-width="0" stroke-linecap="butt"/><path d="M213.05781,87.63491c0,0 -6.50405,-22.74356 -1.46186,-17.55822c6.65581,6.84477 22.83031,-6.90778 44.79353,0c21.96322,6.90778 9.50205,13.4163 9.50205,13.4163z" fill="#000000" stroke="none" stroke-width="0" stroke-linecap="butt"/><path d="M211.37697,83.75384c-1.25,0 -1.25,-1.25 -1.25,-1.25l0.0894,-0.02304c-1.45325,-3.68652 -1.13241,-7.83709 -1.77789,-11.70993c0,0 -0.16723,-1.00336 0.70514,-1.3507c0.0272,-0.14637 0.0859,-0.30414 0.18691,-0.47249c0.64312,-1.07187 1.71499,-0.42874 1.71499,-0.42874c6.21293,3.75335 14.46024,1.58873 20.94786,-0.1319c1.61666,-0.42876 3.07439,-0.27407 4.69113,-0.74657c3.72069,-0.6149 6.97925,0.29611 10.65289,0.70877c2.55932,0.28749 4.95734,0.10161 7.38484,1.05553l0.58207,0.28621c0,0 1.11803,0.55901 0.55902,1.67705c-0.55901,1.11803 -1.67705,0.55902 -1.67705,0.55902l-0.3925,-0.20108c-2.15482,-0.88108 -4.45514,-0.63757 -6.74641,-0.89361c-3.36008,-0.37546 -6.41354,-1.32571 -9.81306,-0.75309c-1.56522,0.43813 -3.0413,0.28562 -4.56727,0.71529c-6.73477,1.89637 -14.97694,3.7112 -21.62098,0.55519c0.41294,3.38653 0.21377,7.06427 1.49152,10.20256l0.0894,0.95153c0,0 0,1.25 -1.25,1.25z" fill="#2d2d2d" stroke="none" stroke-width="0.5" stroke-linecap="butt"/><path d="M231.92279,162.64179v-23h13v23z" fill="#ffd2a4" stroke="#000000" stroke-width="2.5" stroke-linecap="butt"/><path d="M212.933,220.06062v-76.99096c0,0 15.2496,-1.49283 17.98543,4.71986c1.22693,2.78619 5.47068,1.9468 7.7916,1.9468c3.60825,0 5.05477,1.07312 9.0385,-2.54442c6.67536,-6.06175 19.51669,-4.12224 19.51669,-4.12224v76.99096z" fill="#00fffa" stroke="#00d7d3" stroke-width="1.5" stroke-linecap="butt"/><path d="M217.64105,194.36964l7.66666,-10" fill="none" stroke="#000000" stroke-width="2.5" stroke-linecap="round"/><path d="M252.97438,186.0363l6,9" fill="none" stroke="#000000" stroke-width="2.5" stroke-linecap="round"/><path d="M238.64104,218.70297l-0.33333,-68.66667" fill="none" stroke="#515151" stroke-width="2.5" stroke-linecap="round"/><path d="M205.15174,205.24937l-0.6,-60.46667c0,0 1.16842,-1.2 1.68149,-1.2c1.26604,0 6.58517,0 6.58517,0v61.66667z" fill="#00fffa" stroke="#00d7d3" stroke-width="1.5" stroke-linecap="butt"/><path d="M274.79917,210.21323c0,2.78904 -1.29837,5.05 -2.9,5.05c-1.60163,0 -2.9,-2.26096 -2.9,-5.05c0,-2.78904 1.29837,-5.05 2.9,-5.05c1.60163,0 2.9,2.26096 2.9,5.05z" fill="#ffd2a4" stroke="#000000" stroke-width="1.5" stroke-linecap="butt"/><path d="M268.15173,206.91604l-0.6,-60.46667c0,0 1.16842,-1.2 1.68149,-1.2c1.26604,0 6.58517,0 6.58517,0v61.66667z" fill="#00fffa" stroke="#00d7d3" stroke-width="1.5" stroke-linecap="butt"/><path d="M214.18234,265.30743v-44h18v44z" fill="#00aba8" stroke="#007b79" stroke-width="1.5" stroke-linecap="butt"/><path d="M246.849,265.64077v-44h18v44z" fill="#00aba8" stroke="#007b79" stroke-width="1.5" stroke-linecap="butt"/><path d="M218.18234,236.19881v-13.66667h39.66667v13.66667z" fill="#00aba8" stroke="none" stroke-width="0" stroke-linecap="butt"/><path d="M245.849,222.19881l-13.33333,-0.33333" fill="none" stroke="#007b79" stroke-width="2.5" stroke-linecap="round"/><path d="M265.099,233.86548c0,1.25 -1.25,1.25 -1.25,1.25l-1.22568,-0.13197c-1.26649,-0.63324 -3.17202,-1.24513 -4.24192,-2.15834c-2.93875,-2.50839 -3.53418,-6.47961 -4.41174,-9.98985c0,0 -0.30317,-1.21268 0.90951,-1.51585c1.21268,-0.30317 1.51585,0.90951 1.51585,0.90951c0.73328,2.93311 1.13517,6.56126 3.58826,8.67681c0.91338,0.7877 2.67495,1.30009 3.75808,1.84166l0.10765,-0.13197c0,0 1.25,0 1.25,1.25z" fill="#007b79" stroke="none" stroke-width="0.5" stroke-linecap="butt"/><path d="M215.18597,232.61548l0.10765,0.13197c1.08313,-0.54156 2.84471,-1.05396 3.75808,-1.84166c2.45309,-2.11555 2.85498,-5.74371 3.58826,-8.67682c0,0 0.30317,-1.21268 1.51585,-0.90951c1.21268,0.30317 0.9095,1.51585 0.9095,1.51585c-0.87756,3.51024 -1.47298,7.48146 -4.41174,9.98985c-1.0699,0.91322 -2.97544,1.5251 -4.24192,2.15834l-1.22568,0.13197c0,0 -1.25,0 -1.25,-1.25c0,-1.25 1.25,-1.25 1.25,-1.25z" fill="#007b79" stroke="none" stroke-width="0.5" stroke-linecap="butt"/><path d="M230.47164,284.06657c0,3.86599 -3.35786,7 -7.5,7c-2.35723,0 -12.44907,0.80178 -16.6151,-0.29703c-3.15453,-0.83202 -0.8849,-3.28706 -0.8849,-4.95297c0,-1.09871 7.20148,-2.75847 8.5093,-4.23345c1.04076,-1.17378 1.14888,-3.98055 1.77243,-4.54442c1.34999,-1.22076 5.19011,0.02787 7.21827,0.02787c2.14831,0 4.58565,-1.15697 5.95298,0.19398c1.26901,1.25381 1.54702,4.94511 1.54702,6.80602z" fill="#3e3e3e" stroke="#000000" stroke-width="2.5" stroke-linecap="butt"/><path d="M248.97864,277.51056c1.36732,-1.35095 3.80467,-0.19398 5.95298,-0.19398c2.02815,0 5.86828,-1.24863 7.21827,-0.02787c0.62356,0.56387 0.73167,3.37063 1.77243,4.54442c1.30783,1.47499 8.5093,3.13475 8.5093,4.23345c0,1.66591 2.26963,4.12095 -0.8849,4.95297c-4.16603,1.09881 -14.25786,0.29703 -16.6151,0.29703c-4.14213,0 -7.5,-3.13401 -7.5,-7c0,-1.86091 0.27802,-5.55221 1.54702,-6.80602z" fill="#3e3e3e" stroke="#000000" stroke-width="2.5" stroke-linecap="butt"/><path d="M232.66776,102.62574c0,6.03625 -2.12754,10.9296 -4.752,10.9296c-2.62446,0 -4.752,-4.89335 -4.752,-10.9296c0,-6.03625 2.12754,-10.92959 4.752,-10.92959c2.62446,0 4.752,4.89334 4.752,10.92959z" fill="#000000" stroke="none" stroke-width="0" stroke-linecap="butt"/><path d="M254.29975,103.34894c0,6.03625 -2.12754,10.92959 -4.75199,10.92959c-2.62446,0 -4.752,-4.89335 -4.752,-10.92959c0,-6.03625 2.12754,-10.9296 4.752,-10.9296c2.62446,0 4.75199,4.89335 4.75199,10.9296z" fill="#000000" stroke="none" stroke-width="0" stroke-linecap="butt"/><path d="M240.21284,120.65519c0,1.25 -1.25,1.25 -1.25,1.25l-1.01271,-0.01701c-5.35575,0.89263 -10.65566,0.26065 -16.04225,0.26065c0,0 -1.25,0 -1.25,-1.25c0,-1.25 1.25,-1.25 1.25,-1.25c5.24355,0 10.4204,0.64184 15.63125,-0.22664l1.42371,-0.017c0,0 1.25,0 1.25,1.25z" fill="#000000" stroke="none" stroke-width="0.5" stroke-linecap="butt"/></g></g></svg>