<svg viewBox="0,0,144.28808,144.58706" height="144.58706" width="144.28808" xmlns:xlink="http://www.w3.org/1999/xlink" xmlns="http://www.w3.org/2000/svg" version="1.1"><g transform="translate(-146.78942,-71.91295)"><g style="mix-blend-mode: normal" stroke-dashoffset="0" stroke-dasharray="" stroke-miterlimit="10" stroke-linejoin="miter" fill-rule="nonzero" data-paper-data="{&quot;isPaintingLayer&quot;:true}"><path stroke-linecap="butt" stroke-width="5" stroke="#000000" fill="#f2e5e5" d="M205,214.00001v-68h70v68z"></path><path stroke-linecap="butt" stroke-width="5" stroke="#000000" fill="#f2e5e5" d="M249.4003,80.55872l17.13872,-5.50132l21.39402,66.65055l-17.13872,5.50132z"></path><path stroke-linecap="butt" stroke-width="2.5" stroke="#000000" fill="#1000f2" d="M223.18673,195.45001l7.71408,-18.10863l-15.27581,-3.66915l19.80255,-3.77361l4.09251,-10.13997l8.73985,11.52264l16.36509,0.27366l-14.96462,7.68435l8.61277,16.21071l-17.84568,-12.7037z"></path><path stroke-linecap="round" stroke-width="5" stroke="#989898" fill="none" d="M239.62499,142.02927l-8.85809,-9.58581c0,0 -14.00953,35.00908 -16.52645,41.29871c-0.74521,1.86225 -21.44878,3.95377 -21.44878,3.95377"></path><g><path stroke-linecap="butt" stroke-width="5" stroke="#000000" fill="#ffffff" d="M197.54557,150.96705c7.09381,8.55658 5.69259,21.42232 -3.12973,28.73644c-8.82231,7.31412 -21.72487,6.30691 -28.81869,-2.24968c-7.09381,-8.55658 -5.6926,-21.42232 3.12972,-28.73644c8.82231,-7.31412 21.72488,-6.3069 28.8187,2.24968z"></path><path stroke-linecap="butt" stroke-width="5" stroke="#000000" fill="#6395ff" d="M160.42633,165.34119l-9.02236,-26.94271l11.15962,7.11514l-1.849,-14.86743l12.85341,8.11775l1.7849,-15.34917l13.67926,20.80872z"></path><path stroke-linecap="butt" stroke-width="0" stroke="none" fill="#000000" d="M171.01066,169.58845c-1.454,-1.75384 -1.21096,-4.35431 0.54288,-5.80831c1.75384,-1.454 4.35431,-1.21096 5.80831,0.54288c1.454,1.75384 1.21096,4.35431 -0.54288,5.80831c-1.75384,1.454 -4.35431,1.21096 -5.80831,-0.54288z"></path><path stroke-linecap="butt" stroke-width="0" stroke="none" fill="#000000" d="M183.85367,160.40231c-1.36588,-1.64754 -1.13756,-4.09041 0.50997,-5.4563c1.64754,-1.36588 4.09041,-1.13756 5.4563,0.50997c1.36588,1.64754 1.13756,4.09041 -0.50997,5.4563c-1.64754,1.36588 -4.09041,1.13756 -5.4563,-0.50997z"></path><path stroke-linecap="round" stroke-width="0.5" stroke="#000000" fill="none" d="M168.53007,169.53415l-1.77902,0.98778"></path><path stroke-linecap="round" stroke-width="0.5" stroke="#000000" fill="none" d="M179.58911,163.28835l2.69445,-2.23382"></path><path stroke-linecap="round" stroke-width="0.5" stroke="#000000" fill="none" d="M191.85475,154.58089l3.73405,-1.95911"></path><path stroke-linecap="round" stroke-width="0.5" stroke="#000000" fill="none" d="M180.35969,174.9897l-2.88851,-3.28827"></path><path stroke-linecap="round" stroke-width="0.5" stroke="#000000" fill="none" d="M192.26181,164.4728l-0.80683,-3.71513"></path><path stroke-linecap="round" stroke-width="0.5" stroke="#000000" fill="none" d="M170.07063,161.59974l1.29292,1.36367"></path><path stroke-linecap="round" stroke-width="0.5" stroke="#000000" fill="none" d="M183.06577,155.5349l-0.28126,-2.68949"></path><path stroke-linecap="butt" stroke-width="0" stroke="none" fill="#ffffff" d="M175.01244,166.18959c0.33047,0.3986 0.27522,0.98961 -0.12338,1.32008c-0.3986,0.33047 -0.98961,0.27522 -1.32008,-0.12338c-0.33047,-0.3986 -0.27522,-0.98961 0.12338,-1.32008c0.3986,-0.33047 0.98961,-0.27522 1.32008,0.12338z"></path><path stroke-linecap="butt" stroke-width="0" stroke="none" fill="#ffffff" d="M187.22173,157.61003c0.26436,0.31887 0.22017,0.79169 -0.0987,1.05606c-0.31887,0.26436 -0.79169,0.22017 -1.05606,-0.0987c-0.26436,-0.31887 -0.22017,-0.79169 0.0987,-1.05606c0.31887,-0.26436 0.79169,-0.22017 1.05606,0.0987z"></path><path stroke-linecap="round" stroke-width="0.5" stroke="#000000" fill="#ff0000" d="M193.53581,166.98877c0,0 -1.78288,6.89034 -3.71451,8.35363c-2.64247,2.00178 -9.00433,2.35326 -9.00433,2.35326z"></path></g><path stroke-linecap="round" stroke-width="5" stroke="#989898" fill="none" d="M208.375,142.32928l8.33333,-19l4.33333,27l26,39.66667"></path><path stroke-linecap="butt" stroke-width="0" stroke="none" fill="#1000ff" data-paper-data="{&quot;index&quot;:null}" d="M243.02604,197.06623c-2.19226,-1.46601 -2.66673,-4.60251 -1.05976,-7.00557c1.60697,-2.40306 4.68686,-3.16269 6.87912,-1.69668c2.19226,1.46601 2.66673,4.6025 1.05976,7.00556c-1.60698,2.40306 -4.68687,3.16268 -6.87913,1.69667z"></path><path stroke-linecap="butt" stroke-width="0" stroke="none" fill="#1000ff" data-paper-data="{&quot;index&quot;:null}" d="M249.55865,197.87883c-1.92358,-1.76689 -3.03795,-3.6837 -2.48901,-4.28132c0.54894,-0.59762 2.55332,0.35026 4.4769,2.11716c1.92358,1.76689 3.03796,3.68371 2.48902,4.28133c-0.54893,0.59761 -2.55331,-0.35027 -4.47689,-2.11717z"></path><path stroke-linecap="butt" stroke-width="0" stroke="none" fill="#1000ff" data-paper-data="{&quot;index&quot;:null}" d="M245.55029,195.76043c0.6771,-0.28695 2.00407,1.31639 2.96387,3.58116c0.95981,2.26476 1.18899,4.33335 0.51189,4.6203c-0.6771,0.28695 -2.00407,-1.31639 -2.96387,-3.58116c-0.95981,-2.26476 -1.18899,-4.33335 -0.51189,-4.6203z"></path><path stroke-linecap="butt" stroke-width="0" stroke="none" fill="#1000ff" data-paper-data="{&quot;index&quot;:null}" d="M238.7065,193.88569c1.15077,-0.94113 4.11726,-1.01912 4.92067,0.30998c0.80341,1.32911 -2.48754,2.0822 -2.00147,4.51932c0.48606,2.43712 -0.04725,4.59776 -1.19121,4.82591c-1.14395,0.22816 -2.46535,-1.56257 -2.95142,-3.99969c-0.26327,-1.31998 -0.13631,-4.54348 1.22343,-5.65552z"></path></g></g></svg>