<svg version="1.1" xmlns="http://www.w3.org/2000/svg" xmlns:xlink="http://www.w3.org/1999/xlink" width="63.96114" height="89.02811" viewBox="0,0,63.96114,89.02811"><defs><linearGradient x1="240" y1="138.03086" x2="240" y2="221.96914" gradientUnits="userSpaceOnUse" id="color-1"><stop offset="0" stop-color="#516587"/><stop offset="1" stop-color="#1a1a29"/></linearGradient></defs><g transform="translate(-208.01943,-136.03086)"><g stroke-miterlimit="10"><path d="M213.01943,221.96914c-1.65685,0 -3,-1.34315 -3,-3v-77.93828c0,-1.65685 1.34315,-3 3,-3h53.96114c1.65685,0 3,1.34315 3,3v77.93828c0,1.65685 -1.34315,3 -3,3z" fill="#9763ff" fill-rule="nonzero" stroke="#000000" stroke-width="4" stroke-linejoin="miter"/><path d="M213.01943,221.96914c-1.65685,0 -3,-1.34315 -3,-3v-77.93828c0,-1.65685 1.34315,-3 3,-3h53.96114c1.65685,0 3,1.34315 3,3v77.93828c0,1.65685 -1.34315,3 -3,3z" fill="url(#color-1)" fill-rule="nonzero" stroke="none" stroke-width="0" stroke-linejoin="miter"/><g fill-rule="evenodd" stroke-width="0" stroke-linejoin="round"><path d="M240.45761,148.57474c0.02371,-0.00697 0.04602,-0.01395 0.06973,-0.01952c-0.03486,0.12412 -0.06973,0.24963 -0.10459,0.37375c0.50345,-0.06555 1.0069,-0.13249 1.51035,-0.19803c0.01116,-0.00418 0.02092,-0.00837 0.03068,-0.01255c1.12544,0.11157 2.24949,0.22314 3.37493,0.3347c1.31511,0.64849 2.06401,1.64842 2.73062,2.87427c0,0.04602 0,0.09344 0,0.13946c0.01534,0.02371 0.03208,0.04602 0.04742,0.06973c0.18967,0.19803 0.37933,0.39467 0.569,0.5927c-0.10878,0 -0.21756,0 -0.32773,0c0.19106,0.22035 0.38212,0.44209 0.57318,0.66243c-0.50066,-0.48811 -1.02085,-1.25653 -1.64284,-1.56613c-0.39886,-0.19943 -0.70846,-0.05439 -1.1101,-0.35423c-0.26776,-0.19803 -0.04881,-0.94275 -0.47137,-1.05013c-0.1297,-0.03347 -0.21198,1.45875 -0.12412,1.6275c0.22314,-0.35981 0.99993,-0.36817 0.75727,0.14643c-0.13528,0.2845 -0.53274,0.11994 -0.68614,0.3612c-0.14643,0.23011 -0.01116,0.54529 -0.11715,0.78655c-0.08228,0.18967 -0.3612,0.15759 -0.44627,0.31378c-0.21477,0.39607 0.34586,0.71961 0.22174,1.0069c-0.01534,0.03208 -0.04044,0.03486 -0.06694,0.05578c-0.72938,0.58852 -0.56621,-0.30681 -1.37926,1.07245c-0.28589,0.48393 -0.31657,1.92036 -1.01248,2.12676c-0.86186,0.25521 0.71403,-2.00125 -0.08507,-2.47541c-1.085,-0.6457 -1.19935,1.17007 -1.70281,1.05711c-0.42954,-0.09623 0.49927,-1.58984 0.11575,-1.83948c-0.31657,-0.2064 -0.85628,1.13799 -1.1366,1.34579c0.21895,-0.10459 0.4379,-0.20919 0.65686,-0.31378c-0.15062,0.45185 -0.00837,1.46572 0.6973,1.46014c0.10041,-0.00139 0.31797,-1.46991 0.62478,-1.03898c0.09762,0.13528 -0.27334,2.67902 -0.2064,3.13506c0.23569,-0.12412 0.61362,-1.20633 1.04316,-0.34586c0.4128,0.82421 -0.48811,1.42946 -0.43511,2.11282c0.07391,0.94275 3.1504,1.30116 3.8728,1.30116c0.14504,0.1813 0.29008,0.3612 0.43511,0.5425c-0.68335,0.47974 -1.10871,-0.15759 -1.74604,-0.29705c-1.27048,-0.28031 -3.18387,0.35283 -3.78494,-1.15194c-0.01534,-0.01534 -0.03208,-0.03068 -0.04742,-0.04742c-0.06973,-0.02231 -0.13946,-0.04602 -0.20919,-0.06973c-0.6206,-0.04323 -0.70009,-0.70288 -1.15054,-0.73774c-0.52716,-0.04184 -0.52437,0.73635 -0.95669,0.55087c-0.44906,-0.19245 -0.31378,-1.46154 -0.92741,-1.48106c-0.41559,-0.01395 -0.94414,0.99714 -1.62192,1.05571c-0.57597,0.05021 -0.89254,-0.63733 -1.38902,-0.71543c-0.26218,-0.04184 -0.11017,0.50763 -0.42396,0.57597c-0.50624,0.11017 -0.77261,-0.42256 -1.20912,-0.2845c-0.40443,0.12691 -0.89254,1.18123 -0.35004,1.40157c0.30681,0.12551 1.09197,-0.13528 1.40436,-0.19245c0.02371,-0.01952 0.04602,-0.03765 0.06973,-0.05578c0.02371,-0.02371 0.04602,-0.04602 0.06973,-0.06973c0.02371,-0.02092 0.04602,-0.04323 0.06973,-0.06415c0.02371,-0.00837 0.04602,-0.01534 0.06973,-0.02371c0.28031,0.00837 1.90642,-0.02789 1.7307,0.45882c-0.13249,0.3612 -0.41699,-0.17851 -0.569,-0.14643c-0.23848,0.04881 0.06415,0.44209 -0.30263,0.52995c-0.45882,0.10878 -1.00132,-0.09483 -1.48664,-0.03626c-2.0654,-0.23011 -2.5563,1.42946 -3.39445,3.03046c-0.16875,0.32076 -0.85907,1.14915 -0.7224,1.48106c0.00976,0.24545 -0.1297,0.55087 -0.19385,0.81445c-0.15062,0.63594 -0.87023,-0.3626 -1.31371,-0.38073c-0.54808,-0.02231 -0.31657,0.60526 -0.9302,-0.08647c-0.45185,-0.36678 -0.4379,-1.54103 -0.57039,-2.04309c-0.78376,-2.96631 0.4909,-5.11957 1.26908,-7.9269c0.32634,-1.17565 0.45464,-3.11414 1.74185,-3.66361c0.03486,0.09762 0.06973,0.19524 0.10459,0.29287c1.12405,-0.99156 2.2467,-1.98312 3.37075,-2.97468c0.30821,-0.67359 3.60643,-1.57171 4.36928,-1.5759c0.37794,-0.00139 0.70009,0.33191 1.04595,0.32355c0.49927,-0.01395 1.01248,-0.53274 1.49919,-0.65825c0.06973,-0.03905 0.13946,-0.0781 0.20919,-0.11715zM240.16196,149.65835c-0.79492,0.05997 -4.79881,1.06268 -4.57149,1.87016c0.01395,0.04881 0.99993,0.49229 1.13381,0.47277c0.14225,-0.02092 0.45882,-0.55644 0.59828,-0.24684c0.31518,0.70288 -1.58426,0.93856 -0.85489,1.69025c0.76563,0.79213 1.82274,-1.48664 1.99149,-1.74464c0.11715,-0.17711 0.53832,-0.11575 0.64709,-0.37654c0.08368,-0.19943 -0.04323,-0.4393 0.08647,-0.62339c0.61362,-0.87023 1.74883,1.06687 2.18673,0.79074c0.72101,-0.45743 -1.09476,-1.84087 -1.21748,-1.8325zM229.28269,157.2352c-0.21337,0.07391 -0.6959,3.55483 1.00411,2.61208c0.70846,-0.39328 -0.64988,-2.7362 -1.00411,-2.61208zM236.39375,157.54062c-0.30263,0.05578 -0.30402,0.47416 -0.72659,0.49787c-0.17293,0.00976 -0.87302,-0.18827 -0.9302,-0.01255c-0.2594,0.78516 0.58992,0.64152 0.78655,0.74193c0.25382,0.13249 0.21058,0.7238 0.58852,0.82002c0.19106,0.04742 0.42117,-0.45185 0.50903,-0.0251c0.02231,0.11017 -0.03068,0.33749 0.16596,0.29426c0.53832,-0.11575 0.31797,-2.44752 -0.39328,-2.31643zM232.00914,180.23771c0.12133,0.02231 0.24405,0.04463 0.36538,0.06694c0.03068,0.25661 0.06136,0.51321 0.09204,0.76982c-0.03626,0.27892 -0.07252,0.55784 -0.10878,0.83676c-0.0251,0.03905 -0.05021,0.0781 -0.07531,0.11715c-0.01674,0.03068 -0.03486,0.06136 -0.05299,0.09204c-0.00418,0.02371 -0.00837,0.04602 -0.01116,0.06973c-0.02929,0.02371 -0.05857,0.04602 -0.08786,0.06973c-0.00418,0.01255 -0.00837,0.0265 -0.01255,0.03905c-0.01116,0.00279 -0.02231,0.00558 -0.03347,0.00837c0.00418,-0.18269 0.258,-1.79345 -0.01395,-1.7558c-0.89394,0.1283 -2.96492,3.21455 -1.98451,3.88675c0.48811,0.3361 1.76556,-1.78927 1.99846,-2.13095c-0.00837,0.05439 -0.01813,0.10738 -0.02789,0.16177c-0.00279,0.02371 -0.00558,0.04602 -0.00837,0.06973c-0.15341,0.31936 -0.30681,0.64012 -0.46022,0.95948c-0.02789,0.02929 -0.05578,0.05718 -0.08368,0.08647c-0.00418,0.01255 -0.00976,0.0265 -0.01395,0.03905c-0.01813,0.03347 -0.03765,0.06694 -0.05578,0.10041c-0.00558,0.01255 -0.00976,0.0265 -0.01395,0.03905c-0.00976,0.03347 -0.01813,0.06694 -0.02789,0.10041c-0.00418,0.01255 -0.00697,0.0265 -0.01116,0.03905c-0.02371,0.02929 -0.04881,0.05718 -0.07252,0.08507c-0.01813,0.02789 -0.03765,0.05718 -0.05578,0.08507c-0.00418,0.02371 -0.00837,0.04602 -0.01116,0.06973c-0.0265,0.01534 -0.05299,0.03208 -0.07949,0.04742c-0.02092,0.02371 -0.04323,0.04881 -0.06555,0.07391c-0.02092,0.0516 -0.04184,0.10459 -0.06276,0.15759c-0.00139,0.02371 -0.00139,0.04602 -0.00139,0.06973c-0.02092,0.02371 -0.04184,0.04602 -0.06136,0.06973c-0.00279,0.02371 -0.00558,0.04602 -0.00837,0.06973c-0.02231,0.06973 -0.04323,0.13946 -0.06555,0.20919c-0.00139,0.02371 -0.00279,0.04602 -0.00418,0.06973c-0.03208,0.2329 -0.06415,0.4644 -0.09483,0.6973c0,0.06973 0,0.13946 0,0.20919c0.03068,0.06973 0.06276,0.13946 0.09483,0.20919c0,0.04602 0.00139,0.09344 0.00279,0.13946c0.02231,0.06973 0.04463,0.13946 0.06694,0.20919c-0.00279,0.02371 -0.00558,0.04602 -0.00697,0.06973c0.02092,0.09344 0.04323,0.18548 0.06555,0.27892c0.0265,0.06973 0.05299,0.13946 0.08089,0.20919c-0.00139,0.02371 -0.00279,0.04602 -0.00279,0.06973c0.02371,0.04602 0.04742,0.09344 0.07252,0.13946c-0.00139,0.02371 -0.00279,0.04602 -0.00418,0.06973c0.0251,0.04602 0.04881,0.09344 0.07391,0.13946c-0.00139,0.02371 -0.00279,0.04602 -0.00279,0.06973c0.02371,0.04602 0.04742,0.09344 0.07252,0.13946c-0.00139,0.02371 -0.00139,0.04602 -0.00139,0.06973c0.02092,0.04602 0.04184,0.09344 0.06276,0.13946c0.0251,0.04602 0.0516,0.09344 0.0781,0.13946c0.00139,0.02371 0.00279,0.04602 0.00418,0.06973c0.02092,0.02371 0.04323,0.04602 0.06555,0.06973c0,0.02371 0,0.04602 0.00139,0.06973c0.02231,0.04602 0.04463,0.09344 0.06834,0.13946c0,0.02371 0,0.04602 0.00139,0.06973c0.02092,0.06973 0.04184,0.13946 0.06276,0.20919c0.0251,0.04602 0.05021,0.09344 0.07531,0.13946c0.00139,0.02371 0.00418,0.04602 0.00558,0.06973c0.01813,0.02371 0.03626,0.04602 0.05439,0.06973c0.02371,0.05439 0.04742,0.10738 0.07112,0.16177c0.02231,0.01534 0.04463,0.03208 0.06694,0.04742c0.0265,0.0516 0.0516,0.1032 0.0781,0.1548c0.02371,0.01813 0.04742,0.03626 0.07252,0.05439c0.00279,0.02371 0.00697,0.04602 0.01116,0.06973c0.01813,0.02929 0.03626,0.05857 0.05439,0.08786c0.0251,0.01674 0.04881,0.03486 0.07391,0.0516c0.00279,0.02371 0.00558,0.04602 0.00837,0.06973c0.02092,0.02371 0.04044,0.04602 0.06136,0.06973c0.00279,0.02371 0.00558,0.04602 0.00837,0.06973c0.01813,0.02371 0.03486,0.04602 0.0516,0.06973c0.05718,0.12551 0.11296,0.24963 0.16875,0.37515c0.36957,0.57318 0.73774,1.14636 1.10731,1.71954c0.02371,0.02371 0.04742,0.04602 0.07112,0.06834c0.02231,0.02929 0.04602,0.05718 0.06834,0.08647c0.04602,0.03347 0.09344,0.06694 0.13946,0.10041c0.00418,0.00697 0.00837,0.01395 0.01116,0.02092c0.01952,0.02371 0.03905,0.04602 0.05857,0.06973c0.02371,0.01116 0.04602,0.02371 0.06973,0.03486c-0.02371,-0.01116 -0.04602,-0.02371 -0.06973,-0.03486c-0.00139,-0.02371 -0.00418,-0.04602 -0.00558,-0.06973c0.04881,0 0.09623,0 0.14504,0c0.09344,0.09344 0.18548,0.18548 0.27892,0.27892c0,0.04602 0,0.09344 0,0.13946c-0.02371,0.01116 -0.04602,0.02371 -0.06973,0.03486c0.02371,-0.01116 0.04602,-0.02371 0.06973,-0.03486c0.18548,0.18548 0.37236,0.37236 0.55784,0.55784c0.02371,0.02371 0.04602,0.04602 0.06973,0.06973c0.02371,0.01952 0.04602,0.03905 0.06973,0.05857c0.02371,0 0.04602,0 0.06973,0c-0.25521,-0.27613 -0.51182,-0.55087 -0.76703,-0.8256c0,-0.04602 0,-0.09344 0,-0.13946c0.61641,0.51182 1.23143,1.02224 1.84784,1.53406c0.59968,-0.11994 2.79059,0.88418 2.40568,1.19657c-0.00418,0.01952 -0.00837,0.03905 -0.01116,0.05857c0.07252,0.08786 0.14643,0.17432 0.22035,0.26218c-0.15898,0.85768 1.35416,0.91207 1.83669,0.83815c1.17146,-0.17851 1.76975,-2.12118 3.21873,-2.56467c-0.1032,-0.3096 -0.03626,-1.11986 0.00279,-1.25793c0.10181,-0.36817 1.05571,-1.06687 1.32487,-1.31371c0.24545,-0.22592 0.23987,-0.70567 0.41838,-0.9818c0.48114,-0.75169 1.11289,-1.42389 1.5759,-2.117c0.22453,-0.33749 0.13388,-1.83808 0.516,-1.92734c0.51042,-0.11994 0.40722,1.27885 0.47974,1.56335c0.06276,0.25103 0.71264,0.74193 0.94693,0.91486c1.47967,1.09615 1.46154,-1.45736 2.45031,-0.78376c0.18827,0.1283 0.01255,0.46161 0.11715,0.64291c0.2329,0.39886 0.91207,0.72519 1.05292,1.12265c0.11296,0.32355 -1.2398,1.75162 -1.67491,1.93291c-0.2064,0.08647 -0.57597,-0.13667 -0.68893,-0.05439c-0.17154,0.12551 0.01674,0.47695 -0.12412,0.64012c-0.11436,0.13249 -0.40443,0.0516 -0.53832,0.15898c-0.2315,0.18548 -0.08507,0.57597 -0.21477,0.77261c-0.20082,0.30542 -1.52709,0.29844 -1.18959,1.11289c0.04742,0.11436 0.15062,0.14364 0.26358,0.16317c0.06694,0.01116 4.41391,-1.52011 4.52547,-1.59403c0.14504,-0.09762 0.87302,-1.20354 0.93438,-1.4211c0.24684,-0.85628 -0.63873,-3.05557 0.12691,-3.59388c0.33331,-0.23429 0.42814,0.45046 0.64709,0.50345c0.33331,0.08089 0.85907,-0.16735 1.13939,0.11017c0.65965,0.64988 -0.06136,1.54522 0.31936,2.22439c0.13388,0.23708 0.60665,0.24824 0.79632,0.42117c0.74472,0.67917 1.05432,1.33463 1.33045,2.31643c0.03905,0.13667 0.33191,0.21895 0.17293,0.45464c-0.06834,0.09902 -0.36678,-0.00279 -0.47277,0.08089c-0.10599,0.08228 0.00418,0.29984 -0.09762,0.37096c-0.1562,0.10738 -0.5676,-0.00976 -0.75448,0.01674c-0.57736,0.08228 -0.88696,1.1366 -1.032,1.63168c-0.05299,0.18269 -0.39607,0.54808 -0.38351,0.64291c0.1283,1.0836 1.45317,-0.71403 1.47409,-0.70985c0.53553,0.08647 0.06136,1.07942 0.08647,1.24817c0.0265,0.18688 0.26497,0.83397 0.40164,0.91625c0.04184,0.02371 0.45046,0.14085 0.38073,0.26776c-0.25103,0.44906 -2.20904,0.01674 -2.52841,0.0265c-2.21323,0.06415 -4.45993,0.43511 -6.79867,0.28171c0.70985,-0.31657 0.26637,-0.7238 0.70567,-1.17983c0.55366,-0.57736 1.46433,-1.41552 2.15884,-1.89108c0.54947,-0.37654 1.11289,0.10599 1.68886,0.00418c0.94972,-0.16735 1.19935,-0.98598 1.70699,-1.69583c0.49648,-0.6959 0.73495,-3.54368 -0.18269,-3.95927c-0.52019,-0.23569 -0.67777,2.71668 -1.21748,3.11274c-0.73495,0.5411 -5.49751,1.34718 -5.91868,1.96499c-0.16596,0.24405 0.13946,0.50763 0.12133,0.75866c-0.0265,0.34307 -0.52716,2.3234 -0.64709,2.56467c-0.04463,-0.6973 0.45324,-2.5549 0.34028,-2.62324c-0.55087,-0.33191 -1.10871,2.02356 -1.30534,2.20486c0.00697,-0.18548 0.06973,-0.64152 -0.14225,-0.75587c-0.96785,-0.52297 -4.4418,0.12412 -5.52122,0.52297c-0.41141,0.15062 -1.67491,0.4644 -1.46851,1.06966c-0.26916,0.29008 -1.30534,0.12551 -1.71954,0.12133c-1.60379,-0.01255 -3.20758,-0.01395 -4.81137,-0.0265c-5.50169,-0.04184 -11.17213,0.02371 -16.66546,0.02371c-0.77819,0 -5.50309,0.23011 -5.84476,-0.05718c-0.15898,-0.13249 -0.0781,-2.76549 -0.0767,-3.16434c0.00279,-1.50756 -0.56063,-5.18233 1.33184,-5.51424c0.34028,-0.05997 1.0585,-0.0265 1.43644,-0.18409c0.5941,-0.24684 0.68196,-1.25932 1.16588,-1.44899c0.05299,-0.02371 0.10599,-0.04602 0.15759,-0.06973c0.01395,-0.06973 0.0265,-0.13946 0.04044,-0.20919c0.00279,-0.01952 0.00697,-0.03905 0.01116,-0.05857c1.1115,-3.28289 6.10555,-0.37236 8.26021,-0.99017c1.30674,-0.37375 2.7111,-1.01806 3.94253,-1.26351c0.01952,-0.01952 0.03905,-0.03905 0.05857,-0.05857c0.15759,-0.81026 3.18247,-3.87698 3.87698,-4.53105c0.30681,-0.28729 1.22585,-0.93996 1.63168,-0.76842zM224.95107,186.72818c-0.77819,0.34028 -1.76417,3.64688 -2.44892,3.71242c-0.77958,0.07391 0.87302,-2.23554 0.73495,-2.55909c-0.19943,-0.46859 -1.02782,0.29705 -1.14497,0.27892c-0.24684,-0.03905 -2.04867,-0.45882 -2.25646,0.01116c-0.258,0.58155 0.69172,4.91038 0.9288,5.79316c0.08368,0.3096 0.33889,1.45178 0.64291,1.5996c0.25242,0.12133 0.18827,-0.97064 0.4895,-1.07942c0.31657,-0.11436 0.50345,0.14504 0.76424,0.22453c0.48253,0.14643 1.21609,-0.35004 1.70699,-0.22174c0.68754,0.1813 1.18541,1.04177 1.84505,1.34579c0.67638,0.31239 1.5759,-0.09483 2.28714,0.15759c0.5411,0.19385 1.55358,0.81723 2.13792,0.60247c0.4393,-0.16317 -0.21477,-0.89394 0.258,-1.05292c0.4379,-0.14783 1.1366,0.3347 1.51314,0.04463c0.18548,-0.14364 0.12133,-0.35144 0.0251,-0.52576c-0.25521,-0.46301 -2.32898,0.03626 -2.81291,0.18409c-1.86318,0.56621 -2.70831,-0.21337 -4.19356,-1.12684c-0.32773,-0.20222 -0.79632,-0.26079 -1.07524,-0.52855c-0.84931,-0.81584 0.6973,-4.93688 1.03619,-5.93402c0.09623,-0.2831 0.05578,-1.14078 -0.4379,-0.92601zM215.96567,187.09356c-0.75308,0.26637 -0.3863,1.76556 -0.26776,2.31503c0.44767,2.05424 0.70148,4.32883 1.04316,6.41515c0.07112,0.43511 -0.40304,2.38197 0.11575,2.48099c0.65686,0.12551 0.72519,-0.89115 0.82421,-1.35416c0.30821,-1.45596 -0.43651,-2.83104 -0.65407,-4.26608c-0.04044,-0.27195 -0.2078,-1.80322 0.4393,-1.54661c0.4393,0.17293 0.30681,1.23701 0.35423,1.60239c0.1562,1.2133 0.84513,2.99002 1.33045,4.17822c0.13946,0.34028 0.44348,1.81716 1.08221,1.36113c0.34307,-0.24405 -0.18548,-0.99853 -0.26776,-1.27885c-0.36957,-1.25653 -0.86186,-2.59116 -0.95948,-3.90069c-0.05997,-0.80887 0.02231,-5.33573 -0.63733,-5.51424c-0.24684,-0.06694 -0.7754,1.80322 -0.85071,2.38197c-0.01534,0.11157 -0.08507,0.25242 -0.23569,0.15341c-0.3361,-0.21895 -0.17154,-3.4335 -1.3165,-3.02767zM213.92537,196.27281c0.62478,-0.91207 1.40715,-5.62721 -0.54947,-5.41244c-0.7224,0.0781 0.19524,1.3695 0.24824,1.82414c0.1297,1.1101 -0.23011,2.57722 0.30123,3.5883zM236.02976,193.62586c-0.01116,0.01116 -0.02371,0.02371 -0.03486,0.03486c0.01116,0.01116 0.02371,0.02371 0.03486,0.03486c0.01116,-0.01116 0.02371,-0.02371 0.03486,-0.03486c-0.01116,-0.01116 -0.02371,-0.02371 -0.03486,-0.03486zM260.09078,194.32037c0.11715,-0.04881 0.27195,-0.10459 0.34028,0.06136c0.02789,0.06694 0.31518,3.54786 0.30263,3.59109c-0.06973,0.22732 -0.35702,0.34586 -0.57736,0.34447c-0.86047,-0.00279 -0.47277,-3.82678 -0.06555,-3.99692zM238.27925,196.51129c-0.85907,0.1032 -4.65935,-0.11575 -5.08471,0.14225c-0.19524,0.11994 -0.1283,0.57179 -0.09762,0.75169c0.29426,1.69723 1.89805,0.72101 2.79757,0.48393c0.36678,-0.09762 0.75029,0.01534 1.1115,-0.14364c0.10878,-0.04742 2.5033,-1.38205 1.27327,-1.23422z" fill="#23242e" stroke="#23242e"/><path d="M248.9312,153.39169c0.2329,0.22314 0.92322,1.55079 0.73914,1.84784c-0.13946,0.22453 -0.44069,0.12412 -0.58434,0.43093c-0.06694,0.14504 -0.07531,0.60526 -0.17572,0.68754c-0.27613,0.22871 -0.79911,-0.43233 -0.92741,-0.06136c-0.10041,0.29147 0.6722,1.62192 -0.03626,1.74743c-0.05299,0.00976 -0.09902,-0.01255 -0.13528,-0.04742c-0.48253,-0.44069 -0.19803,-1.99707 -0.71403,-2.56746c-0.25661,-0.2831 -0.00837,-0.63036 -0.43093,-0.89115c-0.06694,-0.04044 -0.21477,-0.1548 -0.27474,-0.05439c-0.23987,0.39607 0.40304,0.70985 0.38909,1.0334c-0.0265,0.63175 -0.70427,0.67359 -0.24127,1.95104c0.25521,0.70567 1.40715,0.94833 1.74604,1.39739c0.12412,0.16596 -0.38073,1.06826 -0.35981,1.32347c0.02789,0.35283 0.40443,1.75719 0.38909,1.79764c-0.05578,0.15759 -0.35702,0.10459 -0.48532,0.2064c-0.69451,0.54947 -0.79632,-1.73209 -1.40157,-1.67352c-0.52855,0.0516 0.00976,1.51175 -0.1297,1.79764c-0.7224,0 -3.79889,-0.35841 -3.8728,-1.30116c-0.05299,-0.68335 0.84792,-1.28861 0.43511,-2.11282c-0.42954,-0.86047 -0.80747,0.22174 -1.04316,0.34586c-0.06694,-0.45603 0.30402,-2.99978 0.2064,-3.13506c-0.30681,-0.43093 -0.52437,1.03758 -0.62478,1.03898c-0.70567,0.00558 -0.84792,-1.00829 -0.6973,-1.46014c-0.21895,0.10459 -0.4379,0.20919 -0.65686,0.31378c0.28031,-0.2078 0.82002,-1.55219 1.1366,-1.34579c0.38351,0.24963 -0.54529,1.74325 -0.11575,1.83948c0.50345,0.11296 0.61781,-1.70281 1.70281,-1.05711c0.79911,0.47416 -0.77679,2.73062 0.08507,2.47541c0.6959,-0.2064 0.72659,-1.64284 1.01248,-2.12676c0.81305,-1.37926 0.64988,-0.48393 1.37926,-1.07245c0.0265,-0.02092 0.0516,-0.02371 0.06694,-0.05578c0.12412,-0.28729 -0.43651,-0.61083 -0.22174,-1.0069c0.08507,-0.1562 0.36399,-0.12412 0.44627,-0.31378c0.10599,-0.24127 -0.02929,-0.55644 0.11715,-0.78655c0.15341,-0.24127 0.55087,-0.0767 0.68614,-0.3612c0.24266,-0.51461 -0.53413,-0.50624 -0.75727,-0.14643c-0.08786,-0.16875 -0.00558,-1.66097 0.12412,-1.6275c0.42256,0.10738 0.20361,0.8521 0.47137,1.05013c0.40164,0.29984 0.71125,0.1548 1.1101,0.35423c0.62199,0.3096 1.14218,1.07802 1.64284,1.56613zM240.94572,161.29349c0.06973,0.02371 0.13946,0.04742 0.20919,0.06973c-0.06973,-0.02231 -0.13946,-0.04602 -0.20919,-0.06973zM241.15491,161.36321c0.01534,0.01674 0.03208,0.03208 0.04742,0.04742c-0.01534,-0.01534 -0.03208,-0.03068 -0.04742,-0.04742zM247.08196,179.86675c1.05432,-0.00139 1.90363,1.92036 2.53259,2.58001c0.01674,0.02092 0.03208,0.04044 0.04742,0.06136c1.3932,0.44906 1.9106,1.51872 3.06533,2.21881c0.79074,0.47974 2.97468,1.02921 3.94532,1.2914c0.83118,0.22314 1.37786,-0.45046 2.1435,-0.31378c0.77958,0.13807 1.36113,1.24677 2.21183,1.07942c1.01527,-0.20082 1.79066,-0.93996 2.9426,-0.65965c1.3165,0.32076 0.90231,1.80879 1.79485,2.44055c0.78376,0.55505 3.0207,0.4142 4.00389,1.51175c0.34307,0.38351 0.13946,1.63029 0.13528,2.11979c-0.01674,1.92315 0.40025,4.37207 -0.02371,6.20596c-0.07391,0.31657 -1.04177,0.16177 -1.28721,0.16177c-1.38205,-0.00139 -2.76549,0.01255 -4.14614,-0.01116c-4.26189,-0.07252 -8.53494,0.00139 -12.79823,0.00976c-1.44899,0.00279 -4.01226,0.51182 -5.33434,-0.11436c0.00976,-0.28171 0.01952,-0.56481 0.03068,-0.84792c0.19664,-0.1813 0.75448,-2.53678 1.30534,-2.20486c0.11296,0.06834 -0.38491,1.92594 -0.34028,2.62324c-0.02371,0.62896 1.12126,0.33052 1.58426,0.32076c2.33874,0.15341 4.58544,-0.21756 6.79867,-0.28171c0.31936,-0.00976 2.27738,0.42256 2.52841,-0.0265c0.06973,-0.12691 -0.33889,-0.24405 -0.38073,-0.26776c-0.13667,-0.08228 -0.37515,-0.72938 -0.40164,-0.91625c-0.0251,-0.16875 0.44906,-1.1617 -0.08647,-1.24817c-0.02092,-0.00418 -1.34579,1.79345 -1.47409,0.70985c-0.01255,-0.09483 0.33052,-0.46022 0.38351,-0.64291c0.14504,-0.49508 0.45464,-1.5494 1.032,-1.63168c0.18688,-0.0265 0.59828,0.09065 0.75448,-0.01674c0.10181,-0.07112 -0.00837,-0.28868 0.09762,-0.37096c0.10599,-0.08368 0.40443,0.01813 0.47277,-0.08089c0.15898,-0.23569 -0.13388,-0.31797 -0.17293,-0.45464c-0.27613,-0.9818 -0.58573,-1.63726 -1.33045,-2.31643c-0.18967,-0.17293 -0.66243,-0.18409 -0.79632,-0.42117c-0.38073,-0.67917 0.34028,-1.5745 -0.31936,-2.22439c-0.28031,-0.27753 -0.80608,-0.02929 -1.13939,-0.11017c-0.21895,-0.05299 -0.31378,-0.73774 -0.64709,-0.50345c-0.76563,0.53832 0.11994,2.7376 -0.12691,3.59388c-0.06136,0.21756 -0.78934,1.32347 -0.93438,1.4211c-0.11157,0.07391 -4.45853,1.60518 -4.52547,1.59403c-0.11296,-0.01952 -0.21616,-0.04881 -0.26358,-0.16317c-0.33749,-0.81445 0.98877,-0.80747 1.18959,-1.11289c0.1297,-0.19664 -0.01674,-0.58713 0.21477,-0.77261c0.13388,-0.10738 0.42396,-0.0265 0.53832,-0.15898c0.14085,-0.16317 -0.04742,-0.51461 0.12412,-0.64012c0.11296,-0.08228 0.48253,0.14085 0.68893,0.05439c0.43511,-0.1813 1.78788,-1.60937 1.67491,-1.93291c-0.14085,-0.39746 -0.82002,-0.7238 -1.05292,-1.12265c-0.10459,-0.1813 0.07112,-0.51461 -0.11715,-0.64291c-0.98877,-0.67359 -0.97064,1.87992 -2.45031,0.78376c-0.23429,-0.17293 -0.88418,-0.66383 -0.94693,-0.91486c-0.07252,-0.2845 0.03068,-1.68328 -0.47974,-1.56335c-0.38212,0.08925 -0.29147,1.58984 -0.516,1.92734c-0.46301,0.69312 -1.09476,1.36531 -1.5759,2.117c-0.17851,0.27613 -0.17293,0.75587 -0.41838,0.9818c-0.26916,0.24684 -1.22306,0.94554 -1.32487,1.31371c-0.03905,0.13807 -0.10599,0.94833 -0.00279,1.25793c-1.44899,0.44348 -2.04727,2.38616 -3.21873,2.56467c-0.48253,0.07391 -1.99567,0.01952 -1.83669,-0.83815c2.11282,1.06826 1.12265,-0.78098 2.96073,-1.40576c0.38073,-0.1297 0.33749,-0.81166 0.73495,-0.75029c0.07252,-0.06694 0.14504,-0.13249 0.21756,-0.19803c-0.0265,0.1283 -0.0516,0.25521 -0.0781,0.38351c0.62478,-0.73216 1.24956,-1.46433 1.87295,-2.19649c0.00837,-0.01813 0.01534,-0.03626 0.02371,-0.05439c0.01674,-0.00279 0.03486,-0.00418 0.05299,-0.00697c0.00558,-0.0265 0.01116,-0.0516 0.01674,-0.0781c0.15201,-0.16317 0.30542,-0.32494 0.45743,-0.48811c0.01813,0.04602 0.03486,0.09344 0.0516,0.13946c-0.00418,-0.06973 -0.00976,-0.13946 -0.01395,-0.20919c0.01952,-0.06973 0.03765,-0.13946 0.05718,-0.20919c0.00976,0.04602 0.01813,0.09344 0.0265,0.13946c-0.00837,-0.04602 -0.01674,-0.09344 -0.0265,-0.13946c0.02092,-0.06834 0.04044,-0.13528 0.06136,-0.20361c0.01116,0.04463 0.02371,0.08925 0.03486,0.13388c0.01116,-0.04463 0.02231,-0.08925 0.03347,-0.13388c0.02231,-0.04742 0.04463,-0.09483 0.06694,-0.14364c0.02371,-0.04881 0.04881,-0.09762 0.07252,-0.14783c0.00697,-0.02092 0.01395,-0.04184 0.02231,-0.06276c0.01534,-0.04463 0.03208,-0.08786 0.04881,-0.13249c0.77819,-1.22306 1.9371,-5.47101 1.42946,-6.84051c-0.01534,0.13946 -0.03068,0.27892 -0.04602,0.41838c-0.06276,0.18548 -0.12412,0.37236 -0.18688,0.55784c-0.06136,-0.92741 -0.67777,-3.4335 0.33749,-3.78773zM226.50047,185.53719c-0.01952,0.01952 -0.03905,0.03905 -0.05857,0.05857c0.01952,-0.01952 0.03905,-0.03905 0.05857,-0.05857zM214.12201,188.1172c0.02231,0 0.04463,0 0.06555,0c-0.0516,0.02371 -0.10459,0.04602 -0.15759,0.06973c0.03068,-0.02371 0.06136,-0.04602 0.09204,-0.06973zM242.00283,194.12513c0.03905,-0.00558 0.0781,-0.00976 0.11715,-0.01534c-0.03905,0.00558 -0.0781,0.00976 -0.11715,0.01534zM260.09078,194.32037c-0.40722,0.17014 -0.79492,3.99413 0.06555,3.99692c0.22035,0.00139 0.50763,-0.11715 0.57736,-0.34447c0.01255,-0.04323 -0.27474,-3.52415 -0.30263,-3.59109c-0.06834,-0.16596 -0.22314,-0.11017 -0.34028,-0.06136z" fill="#242b3d" stroke="#242b3d"/><path d="M238.2416,160.6436c0.02092,0.01674 0.04323,0.03347 0.06555,0.05021c-0.00279,0.02929 -0.00558,0.05997 -0.00837,0.08925c-0.00139,0.01952 -0.00139,0.03905 -0.00279,0.05857c0.0265,0.00279 0.05299,0.00697 0.07949,0.01116c0.01255,0.04602 0.0251,0.09344 0.03905,0.13946c0.26497,1.04455 1.30953,0.34447 1.63029,0.93438c0.17711,0.32494 -0.26776,0.70148 -0.21895,1.05292c0.03905,0.28031 0.3612,0.3877 0.36957,0.6973c0.01952,0.72659 -0.36817,1.63586 -0.18688,2.33177c0.08925,0.34447 0.44767,0.85907 0.36538,1.2147c-0.05578,0.23848 -1.27606,1.21051 -1.55358,1.20354c-0.44209,-0.00976 -2.33316,-0.71403 -1.75301,0.94693c0.31936,0.91765 1.02364,-0.04044 1.60797,0.12412c0.27474,0.0781 0.45882,0.47835 0.70706,0.62617c0.47835,0.28589 1.09615,0.35144 1.61216,0.61502c0.34028,0.17432 0.59689,0.45185 0.94833,0.59549c0.09623,0.03905 0.60665,-0.07391 0.50066,0.20082c-0.14225,0.36538 -1.55498,-0.09344 -1.82971,-0.12133c-1.76277,-0.17851 -2.95515,0.45464 -4.53245,0.99017c-0.35004,0.11854 -1.64702,0.01674 -1.44759,0.75587c0.12551,0.4658 1.23701,0.00837 1.53824,-0.05299c1.0585,-0.21616 3.39724,-1.01108 4.44598,-0.24266c0.10738,0.07949 -0.09483,0.23708 -0.16735,0.2845c-0.36538,0.24127 -2.5298,0.03905 -2.46983,0.68475c0.05718,0.60247 1.44899,0.52576 1.86737,0.58294c0.37096,0.05021 1.57171,1.42667 1.56892,1.89108c-0.00139,0.42117 -1.9887,1.29558 -2.38895,1.41412c-3.33449,0.98598 -3.7445,0.70706 -6.62434,-1.26351c-0.01395,1.47827 1.32626,2.17278 1.93989,3.37214c0.7754,1.52011 1.99288,2.93424 3.09043,4.16567c0.51042,0.57179 0.258,1.24956 0.54529,1.75441c0.36399,0.63873 1.92734,2.55351 2.51167,3.06393c0.4128,0.35981 1.08918,1.02224 1.61913,1.1617c0.36538,0.09483 1.2133,-0.10878 1.44062,0.17014c0.69869,0.85768 0.05021,1.87992 -0.65267,2.57443c-0.02371,0.02231 -0.04602,0.04602 -0.06973,0.06834c-0.02092,0.02371 -0.04044,0.04602 -0.06136,0.06973c0,0.02371 0,0.04602 0,0.06973c-0.07252,0.06555 -0.14504,0.13109 -0.21756,0.19803c-0.32355,-0.33331 0.9818,-1.21609 0.00139,-1.97615c-0.33052,-0.25661 -2.05564,-0.5676 -2.47541,-0.58852c-0.37236,-0.01952 -0.68475,0.27892 -1.09615,0.16875c-0.70148,-0.18827 -1.29698,-1.52709 -1.94965,-1.86597c-0.02231,-0.01255 -1.19517,0.60665 -1.55777,0.58992c-0.65686,-0.03068 -1.96638,-0.86465 -2.50749,-0.14922c-0.39328,0.5174 0.93717,1.25932 0.63873,1.77532c0.60386,-0.05718 0.39746,0.73635 0.50903,1.01108c-0.04881,0 -0.09623,0 -0.14504,0c-0.02092,-0.00697 -0.04323,-0.01395 -0.06415,-0.02092c-0.04602,-0.03347 -0.09344,-0.06694 -0.13946,-0.10041c0.00558,-0.02929 0.00976,-0.05718 0.01534,-0.08647c-0.02789,-0.01952 -0.05578,-0.03905 -0.08368,-0.05997c-0.02371,-0.00279 -0.04742,-0.00558 -0.07112,-0.00837c-0.36957,-0.57318 -0.73774,-1.14636 -1.10731,-1.71954c0.07252,-0.04323 0.14504,-0.08786 0.21616,-0.13109c-0.02929,-0.03486 -0.05718,-0.06973 -0.08647,-0.10459c-0.0251,-0.03905 -0.05021,-0.07949 -0.07391,-0.11854c-0.04742,-0.12272 -0.09344,-0.24684 -0.14085,-0.36957c-0.02231,-0.03905 -0.04602,-0.0781 -0.06834,-0.11854c-0.02092,-0.04044 -0.04323,-0.08089 -0.06415,-0.12133c-0.29565,-0.92044 -0.5927,-1.83948 -0.88836,-2.75852c-0.0251,-0.02371 -0.05021,-0.04602 -0.0767,-0.06973c-0.15201,-1.90502 0.84792,-2.96492 1.37786,-4.63983c0.12691,-0.40304 0.29844,-1.88131 -0.4128,-1.63726c0.92601,-1.90084 -0.75866,-3.86583 -1.48246,-5.41523c-0.27753,-0.5941 -0.06415,-1.45178 -0.47974,-1.96778c-0.39188,-0.48532 -1.3695,-0.14364 -1.7293,-0.74193c-0.47277,-0.78376 -0.13249,-1.67352 -0.29984,-2.49494c-0.18409,-0.89812 -0.6708,-1.60518 -0.88975,-2.48936c0.61362,0.69172 0.38212,0.06415 0.9302,0.08647c0.44348,0.01813 1.1631,1.01666 1.31371,0.38073c0.06415,-0.26358 0.20361,-0.569 0.19385,-0.81445c0.17572,-0.27892 0.35004,-0.55784 0.52576,-0.83676c-0.02371,0.13946 -0.04602,0.27892 -0.06973,0.41838c0.06555,-0.09902 0.13109,-0.19803 0.19664,-0.29565c0.01255,-0.01813 0.02371,-0.03486 0.03626,-0.05299c0.02371,-0.05439 0.04742,-0.10738 0.07112,-0.16177c0.02371,-0.04602 0.04742,-0.09344 0.07112,-0.13946c0.02371,-0.04602 0.04742,-0.09344 0.07112,-0.13946c0.02231,-0.04742 0.04602,-0.09344 0.06834,-0.13946c0.0251,-0.03905 0.05021,-0.0781 0.07531,-0.11715c0.93996,-1.96778 1.37229,-2.51586 3.48929,-2.55769c0.13946,0.01674 0.27892,0.03347 0.41838,0.05021c1.3946,0.57736 1.01527,0.72938 -0.34865,1.11289c-0.67777,0.258 -0.95809,-0.33052 -1.67073,-0.16596c-0.52576,0.11994 -0.77958,1.38623 -0.28171,1.4727c0.06973,0.0265 0.13946,0.0516 0.20919,0.0767c1.03619,0.41001 3.05278,0.58155 4.11128,-0.18967c0.22453,-0.16456 0.12551,-0.4379 0.2845,-0.59828c0.1813,-0.18688 0.60247,-0.01952 0.71543,-0.36399c0.05021,-0.15201 0.07112,-1.30256 0.04602,-1.44899c-0.15201,-0.9037 -0.9804,-1.18123 -0.13667,-2.02496c0.30402,-0.30402 0.30821,-0.02929 0.50345,0.17432zM237.39926,171.20769c-0.78934,-0.09623 -2.37919,0.74193 -2.50609,0.47556c-0.46998,-0.98877 1.57869,-0.91346 1.82692,-1.49362c0.14783,-0.34586 -0.29844,-0.9037 -0.2845,-1.28024c0.03765,-1.00551 0.73774,-1.45178 0.34865,-2.45728c-0.18409,-0.47416 -0.99435,-0.25661 -1.38205,-0.30681c-1.33881,-0.17293 -2.62185,-1.02921 -3.73613,0.10738c-0.19524,0.19803 0.10599,0.51042 -0.03486,0.73635c-0.11994,0.19245 -0.52019,-0.01952 -0.57179,0.25103c-0.03347,0.17851 0.22592,0.29008 0.23429,0.46998c0.02789,0.62339 -0.61362,0.77261 -0.43093,1.52709c0.13109,0.53553 0.70148,0.75587 0.774,1.42946c0.12412,1.15891 -0.12691,2.30388 0.34168,3.37493c0.03905,0.08786 0.78098,0.73914 0.84652,0.75448c0.2845,0.06694 0.48671,-0.42117 0.90231,-0.30681c1.04037,0.28729 1.77532,0.89673 2.99141,0.43651c0.09065,-0.03347 0.09204,-1.41133 -0.27055,-1.46433c-0.97343,-0.14225 -2.42521,1.86318 -2.64974,0.51042c-0.06136,-0.36538 0.39886,-1.71954 0.73356,-1.92455c0.38491,-0.23429 1.0836,0.03765 1.53127,-0.07391c0.40583,-0.1032 0.25521,-0.27334 0.46161,-0.51461c0.13946,-0.16317 0.64988,-0.11854 0.87441,-0.25103zM245.53674,166.0909c0.67499,0.3347 0.73635,1.27745 1.40576,1.4211c-0.44069,0.23011 0.13109,0.37794 0.20919,0.65965c-0.81166,0.52297 -1.46851,4.8295 -3.08625,4.24237c-0.33331,-0.12133 -0.19245,-0.6722 -0.38491,-0.78934c-0.24405,-0.14783 -0.4644,0.05439 -0.61362,-0.30123c-0.18548,-0.44209 0.0781,-0.88557 0.00279,-1.33742c-0.16596,-0.99156 -1.7307,-2.64834 -0.90091,-3.69011c0.39049,-0.4909 2.72923,-0.22035 3.36796,-0.20501zM233.38003,191.11977c-0.01116,-0.01255 -0.02371,-0.0265 -0.03486,-0.03905c0.01116,0.01116 0.02371,0.02371 0.03486,0.03486c-0.00837,-0.01116 -0.01534,-0.02371 -0.02371,-0.03486c0.00837,0.01255 0.01534,0.0265 0.02371,0.03905z" fill="#c08d73" stroke="#c08d73"/><path d="M240.94572,161.29349c0.06973,0.02371 0.13946,0.04742 0.20919,0.06973c0.01534,0.01674 0.03208,0.03208 0.04742,0.04742c0.60107,1.50477 2.51446,0.87162 3.78494,1.15194c0.63733,0.13946 1.06268,0.77679 1.74604,0.29705c0.21337,0.42954 -0.89533,0.43093 -1.12544,0.44488c-0.13528,-0.05439 -0.27195,-0.10738 -0.40862,-0.16177c-1.34997,-0.70706 -2.29551,-0.2064 -3.71939,-0.56202c-0.5941,-0.14783 -0.2845,-1.20493 -1.17007,-1.20493c0.12412,0.0781 1.44759,1.53824 1.44759,1.54243c0.12691,0.54529 -0.99574,0.58573 -0.57597,1.29279c0.5411,0.90788 1.37089,0.38073 2.01659,0.5676c0.52437,0.15341 0.70846,0.64988 1.40854,0.52437c0.26358,-0.04602 0.14922,-0.41838 0.35981,-0.46022c0.04602,-0.00976 0.53832,0.56202 1.57311,0.25242c0.04742,-0.11296 0.09483,-0.22453 0.14225,-0.33749c-0.00139,-0.04323 -0.00279,-0.08507 -0.00418,-0.1283c1.03758,-0.38351 1.64702,0.47556 0.52019,0.96088c-0.93159,0.40164 -1.91757,-0.25661 -2.78641,0.24824c0.37515,0.08368 0.75029,0.16875 1.12544,0.25242c-0.63873,-0.01534 -2.97747,-0.28589 -3.36796,0.20501c-0.82979,1.04177 0.73495,2.69855 0.90091,3.69011c0.07531,0.45185 -0.18827,0.89533 -0.00279,1.33742c0.14922,0.35562 0.36957,0.15341 0.61362,0.30123c0.19245,0.11715 0.0516,0.66801 0.38491,0.78934c1.61773,0.58713 2.27459,-3.71939 3.08625,-4.24237c0.48811,0.35702 -0.50763,1.09476 -0.61502,1.37507c-0.34726,0.91486 -0.50345,2.1421 -0.88696,2.94818c-0.21337,0.45046 -0.76703,0.79771 -0.78376,1.37368c-0.00697,0.2078 0.29844,0.30123 0.36538,0.49787c0.08228,0.24405 -0.28171,0.42675 -0.11854,0.62757c0.17711,0.21895 0.38073,-0.19524 0.53832,-0.17851c0.51879,0.0516 0.44627,1.18959 0.4644,1.51732c0.03905,0.6722 -0.71961,0.69033 -0.69172,1.29c0.02231,0.4909 0.65407,0.24545 0.6722,0.76703c0.06276,1.7809 -0.29426,2.66508 0.4128,4.3386c0.16875,0.39886 -0.16875,1.04316 0.11994,1.34439c0.03905,-0.13946 0.0781,-0.27892 0.11575,-0.41838c0.06276,-0.18548 0.12412,-0.37236 0.18688,-0.55784c0.06415,0.96646 -0.18269,2.67066 -0.6973,3.51021c-0.2594,0.42396 -0.71125,0.91346 -0.81305,1.41831c-0.11157,0.56063 -0.0516,1.27466 -0.0767,1.83669c-0.0251,0.04881 -0.05021,0.09623 -0.07531,0.14364c-0.02092,0.06834 -0.04044,0.13528 -0.06136,0.20361c-0.01952,0.06973 -0.03765,0.13946 -0.05718,0.20919c-0.01255,0.02371 -0.0251,0.04602 -0.03765,0.06973c-0.15201,0.16317 -0.30542,0.32494 -0.45743,0.48811c-0.02371,0.02789 -0.04742,0.05718 -0.06973,0.08507c-0.00837,0.01813 -0.01534,0.03626 -0.02371,0.05439c-0.62339,0.73216 -1.24817,1.46433 -1.87295,2.19649c0.0265,-0.1283 0.0516,-0.25521 0.0781,-0.38351c0,-0.02371 0,-0.04602 0,-0.06973c0.02092,-0.02371 0.04044,-0.04602 0.06136,-0.06973c0.02371,-0.02231 0.04602,-0.04602 0.06973,-0.06834c0.70288,-0.69451 1.35137,-1.71675 0.65267,-2.57443c-0.22732,-0.27892 -1.07524,-0.07531 -1.44062,-0.17014c-0.52995,-0.13946 -1.20633,-0.80189 -1.61913,-1.1617c-0.58434,-0.51042 -2.14768,-2.42521 -2.51167,-3.06393c-0.28729,-0.50484 -0.03486,-1.18262 -0.54529,-1.75441c-1.09755,-1.23143 -2.31503,-2.64555 -3.09043,-4.16567c-0.61362,-1.19935 -1.95383,-1.89387 -1.93989,-3.37214c2.87985,1.97057 3.28986,2.24949 6.62434,1.26351c0.40025,-0.11854 2.38755,-0.99295 2.38895,-1.41412c0.00279,-0.4644 -1.19796,-1.84087 -1.56892,-1.89108c-0.41838,-0.05718 -1.81019,0.01952 -1.86737,-0.58294c-0.05997,-0.6457 2.10445,-0.44348 2.46983,-0.68475c0.07252,-0.04742 0.27474,-0.20501 0.16735,-0.2845c-1.04874,-0.76842 -3.38748,0.0265 -4.44598,0.24266c-0.30123,0.06136 -1.41273,0.51879 -1.53824,0.05299c-0.19943,-0.73914 1.09755,-0.63733 1.44759,-0.75587c1.57729,-0.53553 2.76967,-1.16867 4.53245,-0.99017c0.27474,0.02789 1.68746,0.48671 1.82971,0.12133c0.10599,-0.27474 -0.40443,-0.16177 -0.50066,-0.20082c-0.35144,-0.14364 -0.60805,-0.42117 -0.94833,-0.59549c-0.516,-0.26358 -1.13381,-0.32913 -1.61216,-0.61502c-0.24824,-0.14783 -0.43233,-0.54808 -0.70706,-0.62617c-0.58434,-0.16456 -1.28861,0.79353 -1.60797,-0.12412c-0.58015,-1.66097 1.31092,-0.95669 1.75301,-0.94693c0.27753,0.00697 1.4978,-0.96506 1.55358,-1.20354c0.08228,-0.35562 -0.27613,-0.87023 -0.36538,-1.2147c-0.1813,-0.6959 0.2064,-1.60518 0.18688,-2.33177c-0.00837,-0.3096 -0.33052,-0.41699 -0.36957,-0.6973c-0.04881,-0.35144 0.39607,-0.72798 0.21895,-1.05292c-0.32076,-0.58992 -1.36531,0.11017 -1.63029,-0.93438c-0.01395,-0.04602 -0.0265,-0.09344 -0.03905,-0.13946c-0.02371,-0.05299 -0.04602,-0.10599 -0.06834,-0.15898c-0.02231,-0.01674 -0.04463,-0.03347 -0.06555,-0.05021c-0.19524,-0.20361 -0.19943,-0.47835 -0.50345,-0.17432c-0.84373,0.84373 -0.01534,1.12126 0.13667,2.02496c0.0251,0.14643 0.00418,1.29698 -0.04602,1.44899c-0.11296,0.34447 -0.53413,0.17711 -0.71543,0.36399c-0.15898,0.16038 -0.05997,0.43372 -0.2845,0.59828c-1.0585,0.77121 -3.07509,0.59968 -4.11128,0.18967c-0.06973,-0.0251 -0.13946,-0.05021 -0.20919,-0.0767c-1.09197,-1.36252 1.81856,-1.5243 1.59682,-1.01806c-0.26079,-0.00558 -2.13234,0.3361 -1.44202,0.84094c0.63036,0.46022 1.05432,-0.19245 1.39599,-0.12133c0.19803,0.04044 0.18688,0.33889 0.39188,0.42535c0.48253,0.20082 1.97196,-0.00697 2.3248,-0.41001c0.13807,-0.15759 0.03905,-0.36817 0.16875,-0.52855c0.14643,-0.1813 0.55087,-0.17851 0.56063,-0.4644c0.02789,-0.85349 -2.84359,0.16875 -3.04441,-0.03068c1.36392,-0.38351 1.74325,-0.53553 0.34865,-1.11289c-0.13946,-0.01674 -0.27892,-0.03347 -0.41838,-0.05021c-2.117,0.04184 -2.54933,0.58992 -3.48929,2.55769c-0.0251,0.03905 -0.05021,0.0781 -0.07531,0.11715c-0.02231,0.04602 -0.04602,0.09204 -0.06834,0.13946c-0.02371,0.04602 -0.04742,0.09344 -0.07112,0.13946c-0.02371,0.04602 -0.04742,0.09344 -0.07112,0.13946c-0.02371,0.05439 -0.04742,0.10738 -0.07112,0.16177c-0.01255,0.01813 -0.02371,0.03486 -0.03626,0.05299c-0.06555,0.09762 -0.13109,0.19664 -0.19664,0.29565c0.02371,-0.13946 0.04602,-0.27892 0.06973,-0.41838c-0.17572,0.27892 -0.35004,0.55784 -0.52576,0.83676c-0.13667,-0.33191 0.55366,-1.16031 0.7224,-1.48106c0.83815,-1.601 1.32905,-3.26057 3.39445,-3.03046c0.30681,0.13388 2.33177,0.28729 2.49773,-0.2078c0.2831,-0.85071 -1.46851,-0.86744 -1.87016,-0.59828c-0.02371,0.00837 -0.04602,0.01534 -0.06973,0.02371c-0.02371,0.02092 -0.04602,0.04323 -0.06973,0.06415c-0.02371,0.02371 -0.04602,0.04602 -0.06973,0.06973c-0.02371,0.01813 -0.04602,0.03626 -0.06973,0.05578c-0.31239,0.05718 -1.09755,0.31797 -1.40436,0.19245c-0.5425,-0.22035 -0.05439,-1.27466 0.35004,-1.40157c0.43651,-0.13807 0.70288,0.39467 1.20912,0.2845c0.31378,-0.06834 0.16177,-0.61781 0.42396,-0.57597c0.49648,0.0781 0.81305,0.76563 1.38902,0.71543c0.67777,-0.05857 1.20633,-1.06966 1.62192,-1.05571c0.61362,0.01952 0.47835,1.28861 0.92741,1.48106c0.43233,0.18548 0.42954,-0.5927 0.95669,-0.55087c0.45046,0.03486 0.52995,0.69451 1.15054,0.73774zM238.29878,160.78306c-0.00139,0.01952 -0.00139,0.03905 -0.00279,0.05857c0.00139,-0.01952 0.00139,-0.03905 0.00279,-0.05857zM234.35625,163.78145c0.01116,0.01116 0.02371,0.02371 0.03486,0.03486c-0.01116,0.02371 -0.02371,0.04881 -0.03486,0.07252c-0.01116,-0.02371 -0.02371,-0.04881 -0.03486,-0.07252c0.01116,-0.01116 0.02371,-0.02371 0.03486,-0.03486zM240.36557,168.29019c-1.58845,0.23011 0.21058,2.00264 0.85349,1.65539c0.1548,-0.08368 0.17851,-1.80461 -0.85349,-1.65539zM234.77462,178.14582c-0.30402,-0.11854 -1.85761,-1.20075 -2.01938,-0.83397c-0.15062,0.33889 1.17425,1.73628 1.46154,1.87992c-0.03068,-0.72798 -0.14364,-0.89254 0.55784,-1.04595zM234.90851,178.92819c-0.45743,0.13249 0.91207,1.45317 1.22585,1.55777c0.41001,0.13807 3.71661,1.44202 3.72776,1.48106c0.33331,1.11568 -1.81019,-0.24266 -1.66933,0.37654c0.21198,0.92462 1.58984,0.22174 1.94686,0.18967c0.39746,-0.03486 0.88696,0.6722 1.3179,0.14225c0.6443,-0.79632 -0.94135,-0.83955 -0.75169,-1.12126c0.09623,-0.14225 0.71961,-0.12691 0.8772,-0.23708c0.10041,-0.06973 0.17572,-0.39607 0.30542,-0.516c0.33052,-0.3096 1.73209,-0.827 1.76556,-1.29558c0.06555,-0.89254 -3.37214,-0.66801 -3.8212,0.20501c-0.05578,0.10738 -0.27055,0.10878 -0.3863,0.11715c-0.43093,0.03068 -1.28721,0.38351 -1.65678,0.30263c-0.20082,-0.04323 -1.13939,-1.70699 -2.88124,-1.20214zM231.33415,186.30422c0.0265,0.02371 0.0516,0.04602 0.0767,0.06973c0.29565,0.91904 0.5927,1.83808 0.88836,2.75852c0.02092,0.04044 0.04323,0.08089 0.06415,0.12133c0.02231,0.04044 0.04602,0.07949 0.06834,0.11854c-0.00976,0.06834 -0.01813,0.13667 -0.02789,0.20501c-0.12551,-0.18548 -0.25103,-0.37236 -0.37654,-0.55923c-0.04742,-0.06834 -0.09344,-0.13807 -0.14085,-0.2078c-0.27195,-1.16867 -0.94275,-2.3499 -0.86186,-3.58691c0.02929,-0.44488 0.75866,-1.43365 0.56342,-1.72512c0.15341,-0.31936 0.30681,-0.64012 0.46022,-0.95948c0.74053,0.28729 0.47416,-2.64974 0.32634,-2.23415c-0.12133,-0.02231 -0.24405,-0.04463 -0.36538,-0.06694c0.05021,-0.05021 0.10041,-0.10041 0.15062,-0.15062c0.04602,-0.02092 0.09344,-0.04044 0.13946,-0.05997c0.71125,-0.24405 0.53971,1.23422 0.4128,1.63726c-0.52995,1.67491 -1.52987,2.73481 -1.37786,4.63983zM232.37452,180.30466c0.03068,0.25661 0.06136,0.51321 0.09204,0.76982c-0.03068,-0.25661 -0.06136,-0.51321 -0.09204,-0.76982zM232.35779,181.91123c-0.0251,0.03905 -0.05021,0.0781 -0.07531,0.11715c0.0251,-0.03905 0.05021,-0.0781 0.07531,-0.11715zM232.28248,182.02838c-0.01674,0.03068 -0.03486,0.06136 -0.05299,0.09204c0.01813,-0.03068 0.03626,-0.06136 0.05299,-0.09204zM232.21833,182.19015c-0.02929,0.02371 -0.05857,0.04602 -0.08786,0.06973c0.02929,-0.02371 0.05857,-0.04602 0.08786,-0.06973zM232.08444,182.3073c0.01116,-0.00279 0.02231,-0.00558 0.03347,-0.00837c-0.02092,0.05718 -0.04044,0.11296 -0.06136,0.17014c0.00976,-0.05439 0.01952,-0.10738 0.02789,-0.16177zM231.58797,183.49829c-0.02789,0.02929 -0.05578,0.05718 -0.08368,0.08647c0.02789,-0.02929 0.05578,-0.05718 0.08368,-0.08647zM231.49034,183.6238c-0.01813,0.03347 -0.03765,0.06694 -0.05578,0.10041c0.01813,-0.03347 0.03765,-0.06694 0.05578,-0.10041zM231.42061,183.76326c-0.00976,0.03347 -0.01813,0.06694 -0.02789,0.10041c0.00976,-0.03347 0.01813,-0.06694 0.02789,-0.10041zM231.38157,183.90272c-0.02371,0.02929 -0.04881,0.05718 -0.07252,0.08507c0.02371,-0.02789 0.04881,-0.05578 0.07252,-0.08507zM231.30905,183.98779c-0.01813,0.02789 -0.03765,0.05718 -0.05578,0.08507c0.01813,-0.02789 0.03765,-0.05718 0.05578,-0.08507zM231.24211,184.14259c-0.0265,0.01534 -0.05299,0.03208 -0.07949,0.04742c0.0265,-0.01534 0.05299,-0.03208 0.07949,-0.04742zM231.16261,184.19001c-0.02092,0.02371 -0.04323,0.04881 -0.06555,0.07391c0.02231,-0.0251 0.04463,-0.05021 0.06555,-0.07391zM231.09707,184.26392c-0.02092,0.0516 -0.04184,0.10459 -0.06276,0.15759c0.02092,-0.05299 0.04184,-0.10599 0.06276,-0.15759zM231.03292,184.49124c-0.02092,0.02371 -0.04184,0.04602 -0.06136,0.06973c0.01952,-0.02371 0.04044,-0.04602 0.06136,-0.06973zM230.96319,184.6307c-0.02231,0.06973 -0.04323,0.13946 -0.06555,0.20919c0.02231,-0.06973 0.04323,-0.13946 0.06555,-0.20919zM230.89346,184.90962c-0.03208,0.2329 -0.06415,0.4644 -0.09483,0.6973c0.03068,-0.2329 0.06276,-0.4644 0.09483,-0.6973zM230.79862,185.81611c0.03068,0.06973 0.06276,0.13946 0.09483,0.20919c-0.03208,-0.06973 -0.06415,-0.13946 -0.09483,-0.20919zM230.89625,186.16476c0.02231,0.06973 0.04463,0.13946 0.06694,0.20919c-0.02231,-0.06973 -0.04463,-0.13946 -0.06694,-0.20919zM230.95621,186.44368c0.02092,0.09344 0.04323,0.18548 0.06555,0.27892c-0.02231,-0.09344 -0.04463,-0.18548 -0.06555,-0.27892zM231.02176,186.7226c0.0265,0.06973 0.05299,0.13946 0.08089,0.20919c-0.02789,-0.06973 -0.05439,-0.13946 -0.08089,-0.20919zM231.09986,187.00152c0.02371,0.04602 0.04742,0.09344 0.07252,0.13946c-0.0251,-0.04602 -0.04881,-0.09344 -0.07252,-0.13946zM231.16819,187.21071c0.0251,0.04602 0.04881,0.09344 0.07391,0.13946c-0.0251,-0.04602 -0.04881,-0.09344 -0.07391,-0.13946zM231.23932,187.4199c0.02371,0.04602 0.04742,0.09344 0.07252,0.13946c-0.0251,-0.04602 -0.04881,-0.09344 -0.07252,-0.13946zM231.31044,187.62909c0.02092,0.04602 0.04184,0.09344 0.06276,0.13946c-0.02092,-0.04602 -0.04184,-0.09344 -0.06276,-0.13946zM231.3732,187.76855c0.0251,0.04602 0.0516,0.09344 0.0781,0.13946c-0.0265,-0.04602 -0.05299,-0.09344 -0.0781,-0.13946zM231.45548,187.97774c0.02092,0.02371 0.04323,0.04602 0.06555,0.06973c-0.02231,-0.02371 -0.04463,-0.04602 -0.06555,-0.06973zM231.52242,188.1172c0.02231,0.04602 0.04463,0.09344 0.06834,0.13946c-0.02371,-0.04602 -0.04602,-0.09344 -0.06834,-0.13946zM231.59215,188.32639c0.02092,0.06973 0.04184,0.13946 0.06276,0.20919c-0.02092,-0.06973 -0.04184,-0.13946 -0.06276,-0.20919zM231.65491,188.53558c0.0251,0.04602 0.05021,0.09344 0.07531,0.13946c-0.0251,-0.04602 -0.05021,-0.09344 -0.07531,-0.13946zM231.73579,188.74477c0.01813,0.02371 0.03626,0.04602 0.05439,0.06973c-0.01813,-0.02371 -0.03626,-0.04602 -0.05439,-0.06973zM231.79018,188.8145c0.03208,-0.00139 0.06415,-0.00279 0.09623,-0.00418c-0.00837,0.05578 -0.01674,0.11017 -0.0251,0.16596c-0.02371,-0.05439 -0.04742,-0.10738 -0.07112,-0.16177zM231.86131,188.97627c0.02231,0.01534 0.04463,0.03208 0.06694,0.04742c-0.02231,-0.01534 -0.04463,-0.03208 -0.06694,-0.04742zM231.92825,189.02369c0.03208,-0.00139 0.06555,-0.00418 0.09902,-0.00558c-0.00697,0.05299 -0.01395,0.10738 -0.02092,0.16038c-0.0265,-0.0516 -0.0516,-0.1032 -0.0781,-0.1548zM232.00635,189.17849c0.02371,0.01813 0.04742,0.03626 0.07252,0.05439c-0.0251,-0.01813 -0.04881,-0.03626 -0.07252,-0.05439zM232.09002,189.30261c0.01813,0.02929 0.03626,0.05857 0.05439,0.08786c-0.01813,-0.02929 -0.03626,-0.05857 -0.05439,-0.08786zM232.14441,189.39047c0.0251,0.01674 0.04881,0.03486 0.07391,0.0516c-0.0251,-0.01674 -0.04881,-0.03486 -0.07391,-0.0516zM232.22669,189.5118c0.02092,0.02371 0.04044,0.04602 0.06136,0.06973c-0.02092,-0.02371 -0.04044,-0.04602 -0.06136,-0.06973zM232.29642,189.65126c0.01813,0.02371 0.03486,0.04602 0.0516,0.06973c-0.01674,-0.02371 -0.03347,-0.04602 -0.0516,-0.06973zM232.57255,189.7419c0.02371,0.03905 0.04881,0.07949 0.07391,0.11854c0.02929,0.03486 0.05718,0.06973 0.08647,0.10459c-0.07112,0.04323 -0.14364,0.08786 -0.21616,0.13109c-0.05578,-0.12551 -0.11157,-0.24963 -0.16875,-0.37515c0.07531,0.00697 0.14922,0.01395 0.22453,0.02092zM233.69521,191.82404c0.02789,0.02092 0.05578,0.04044 0.08368,0.05997c-0.02789,0 -0.05578,0 -0.08368,0c0,-0.01952 0,-0.03905 0,-0.05997zM234.94895,193.06802c0.02371,0 0.04602,0 0.06973,0c0,0.02371 0,0.04602 0,0.06973c-0.02371,-0.02371 -0.04602,-0.04602 -0.06973,-0.06973z" fill="#8a6a64" stroke="#8a6a64"/><path d="M240.16196,149.65835c0.12272,-0.00837 1.93849,1.37507 1.21748,1.8325c-0.4379,0.27613 -1.57311,-1.66097 -2.18673,-0.79074c-0.1297,0.18409 -0.00279,0.42396 -0.08647,0.62339c-0.10878,0.26079 -0.52995,0.19943 -0.64709,0.37654c-0.16875,0.258 -1.22585,2.53678 -1.99149,1.74464c-0.72938,-0.75169 1.17007,-0.98738 0.85489,-1.69025c-0.13946,-0.3096 -0.45603,0.22592 -0.59828,0.24684c-0.13388,0.01952 -1.11986,-0.42396 -1.13381,-0.47277c-0.22732,-0.80747 3.77657,-1.81019 4.57149,-1.87016zM229.28269,157.2352c0.35423,-0.12412 1.71257,2.21881 1.00411,2.61208c-1.70002,0.94275 -1.21748,-2.53817 -1.00411,-2.61208zM236.39375,157.54062c0.71125,-0.13109 0.93159,2.20068 0.39328,2.31643c-0.19664,0.04323 -0.14364,-0.18409 -0.16596,-0.29426c-0.08786,-0.42675 -0.31797,0.07252 -0.50903,0.0251c-0.37794,-0.09623 -0.3347,-0.68754 -0.58852,-0.82002c-0.19664,-0.10041 -1.04595,0.04323 -0.78655,-0.74193c0.05718,-0.17572 0.75727,0.02231 0.9302,0.01255c0.42256,-0.02371 0.42396,-0.44209 0.72659,-0.49787zM233.97273,162.05912c0.48532,-0.05857 1.02782,0.14504 1.48664,0.03626c0.36678,-0.08786 0.06415,-0.48114 0.30263,-0.52995c0.15201,-0.03208 0.43651,0.50763 0.569,0.14643c0.17572,-0.48671 -1.45038,-0.45046 -1.7307,-0.45882c0.40164,-0.26916 2.15326,-0.25242 1.87016,0.59828c-0.16596,0.49508 -2.19091,0.34168 -2.49773,0.2078zM234.53057,161.27675c-0.02371,0.02092 -0.04602,0.04323 -0.06973,0.06415c0.02371,-0.02092 0.04602,-0.04323 0.06973,-0.06415zM234.46084,161.3409c-0.02371,0.02371 -0.04602,0.04602 -0.06973,0.06973c0.02371,-0.02371 0.04602,-0.04602 0.06973,-0.06973zM234.39111,161.41063c-0.02371,0.01813 -0.04602,0.03626 -0.06973,0.05578c0.02371,-0.01952 0.04602,-0.03765 0.06973,-0.05578zM232.08444,182.3073c-0.2329,0.34168 -1.51035,2.46705 -1.99846,2.13095c-0.9804,-0.6722 1.09058,-3.75844 1.98451,-3.88675c0.27195,-0.03765 0.01813,1.57311 0.01395,1.7558zM224.95107,186.72818c0.49369,-0.21477 0.53413,0.64291 0.4379,0.92601c-0.33889,0.99714 -1.8855,5.11818 -1.03619,5.93402c0.27892,0.26776 0.7475,0.32634 1.07524,0.52855c1.48525,0.91346 2.33037,1.69304 4.19356,1.12684c0.48393,-0.14783 2.55769,-0.64709 2.81291,-0.18409c0.09623,0.17432 0.16038,0.38212 -0.0251,0.52576c-0.37654,0.29008 -1.07524,-0.19245 -1.51314,-0.04463c-0.47277,0.15898 0.1813,0.88975 -0.258,1.05292c-0.58434,0.21477 -1.59682,-0.40862 -2.13792,-0.60247c-0.71125,-0.25242 -1.61076,0.1548 -2.28714,-0.15759c-0.65965,-0.30402 -1.15752,-1.16449 -1.84505,-1.34579c-0.4909,-0.1283 -1.22446,0.36817 -1.70699,0.22174c-0.26079,-0.07949 -0.44767,-0.33889 -0.76424,-0.22453c-0.30123,0.10878 -0.23708,1.20075 -0.4895,1.07942c-0.30402,-0.14783 -0.55923,-1.29 -0.64291,-1.5996c-0.23708,-0.88278 -1.1868,-5.21162 -0.9288,-5.79316c0.2078,-0.46998 2.00962,-0.05021 2.25646,-0.01116c0.11715,0.01813 0.94554,-0.7475 1.14497,-0.27892c0.13807,0.32355 -1.51453,2.633 -0.73495,2.55909c0.68475,-0.06555 1.67073,-3.37214 2.44892,-3.71242zM215.96567,187.09356c1.14497,-0.40583 0.9804,2.80872 1.3165,3.02767c0.15062,0.09902 0.22035,-0.04184 0.23569,-0.15341c0.07531,-0.57876 0.60386,-2.44892 0.85071,-2.38197c0.65965,0.17851 0.57736,4.70538 0.63733,5.51424c0.09762,1.30953 0.58992,2.64416 0.95948,3.90069c0.08228,0.28031 0.61083,1.03479 0.26776,1.27885c-0.63873,0.45603 -0.94275,-1.02085 -1.08221,-1.36113c-0.48532,-1.1882 -1.17425,-2.96492 -1.33045,-4.17822c-0.04742,-0.36538 0.08507,-1.42946 -0.35423,-1.60239c-0.64709,-0.25661 -0.47974,1.27466 -0.4393,1.54661c0.21756,1.43504 0.96227,2.81012 0.65407,4.26608c-0.09902,0.46301 -0.16735,1.47967 -0.82421,1.35416c-0.51879,-0.09902 -0.04463,-2.04588 -0.11575,-2.48099c-0.34168,-2.08632 -0.59549,-4.36091 -1.04316,-6.41515c-0.11854,-0.54947 -0.48532,-2.04867 0.26776,-2.31503zM248.89494,198.33961c-0.46301,0.00976 -1.60797,0.30821 -1.58426,-0.32076c0.11994,-0.24127 0.6206,-2.2216 0.64709,-2.56467c0.01813,-0.25103 -0.28729,-0.51461 -0.12133,-0.75866c0.42117,-0.61781 5.18372,-1.42389 5.91868,-1.96499c0.53971,-0.39607 0.6973,-3.34843 1.21748,-3.11274c0.91765,0.41559 0.67917,3.26336 0.18269,3.95927c-0.50763,0.70985 -0.75727,1.52848 -1.70699,1.69583c-0.57597,0.10181 -1.13939,-0.38073 -1.68886,-0.00418c-0.69451,0.47556 -1.60518,1.31371 -2.15884,1.89108c-0.4393,0.45603 0.00418,0.86326 -0.70567,1.17983zM213.92537,196.27281c-0.53134,-1.01108 -0.17154,-2.4782 -0.30123,-3.5883c-0.05299,-0.45464 -0.97064,-1.74604 -0.24824,-1.82414c1.95662,-0.21477 1.17425,4.50037 0.54947,5.41244zM238.27925,196.51129c1.23004,-0.14783 -1.16449,1.1868 -1.27327,1.23422c-0.3612,0.15898 -0.74472,0.04602 -1.1115,0.14364c-0.89952,0.23708 -2.5033,1.2133 -2.79757,-0.48393c-0.03068,-0.1799 -0.09762,-0.63175 0.09762,-0.75169c0.42535,-0.258 4.22563,-0.03905 5.08471,-0.14225zM246.34561,197.60047c-0.01116,0.2831 -0.02092,0.56621 -0.03068,0.84792c-2.36663,-0.00279 -4.73327,-0.00697 -7.1013,-0.01116c-0.2064,-0.60526 1.05711,-0.91904 1.46851,-1.06966c1.07942,-0.39886 4.55336,-1.04595 5.52122,-0.52297c0.21198,0.11436 0.14922,0.57039 0.14225,0.75587z" fill="#141620" stroke="#141620"/><path d="M237.39926,171.20769c-0.22453,0.13249 -0.73495,0.08786 -0.87441,0.25103c-0.2064,0.24127 -0.05578,0.41141 -0.46161,0.51461c-0.44767,0.11157 -1.14636,-0.16038 -1.53127,0.07391c-0.3347,0.20501 -0.79492,1.55916 -0.73356,1.92455c0.22453,1.35276 1.67631,-0.65267 2.64974,-0.51042c0.3626,0.05299 0.3612,1.43086 0.27055,1.46433c-1.21609,0.46022 -1.95104,-0.14922 -2.99141,-0.43651c-0.41559,-0.11436 -0.61781,0.37375 -0.90231,0.30681c-0.06555,-0.01534 -0.80747,-0.66662 -0.84652,-0.75448c-0.46859,-1.07105 -0.21756,-2.21602 -0.34168,-3.37493c-0.07252,-0.67359 -0.64291,-0.89394 -0.774,-1.42946c-0.18269,-0.75448 0.45882,-0.9037 0.43093,-1.52709c-0.00837,-0.1799 -0.26776,-0.29147 -0.23429,-0.46998c0.0516,-0.27055 0.45185,-0.05857 0.57179,-0.25103c0.14085,-0.22592 -0.16038,-0.53832 0.03486,-0.73635c1.11428,-1.1366 2.39732,-0.28031 3.73613,-0.10738c0.3877,0.05021 1.19796,-0.16735 1.38205,0.30681c0.38909,1.00551 -0.311,1.45178 -0.34865,2.45728c-0.01395,0.37654 0.43233,0.93438 0.2845,1.28024c-0.24824,0.58015 -2.2969,0.50484 -1.82692,1.49362c0.12691,0.26637 1.71675,-0.57179 2.50609,-0.47556zM242.54951,193.1266c-0.39746,-0.06136 -0.35423,0.6206 -0.73495,0.75029c-1.83808,0.62478 -0.84792,2.47402 -2.96073,1.40576c-0.07391,-0.08786 -0.14783,-0.17432 -0.22035,-0.26218c0.00279,-0.01952 0.00697,-0.03905 0.01116,-0.05857c0.38491,-0.31239 -1.80601,-1.3165 -2.40568,-1.19657c-0.61641,-0.51182 -1.23143,-1.02224 -1.84784,-1.53406c-0.04602,-0.04323 -0.09344,-0.08507 -0.13946,-0.1283c-0.04602,-0.00279 -0.09344,-0.00697 -0.13946,-0.01116c-0.11157,-0.27474 0.09483,-1.06826 -0.50903,-1.01108c0.29844,-0.516 -1.032,-1.25793 -0.63873,-1.77532c0.5411,-0.71543 1.85063,0.11854 2.50749,0.14922c0.3626,0.01674 1.53545,-0.60247 1.55777,-0.58992c0.65267,0.33889 1.24817,1.6777 1.94965,1.86597c0.41141,0.11017 0.7238,-0.18827 1.09615,-0.16875c0.41977,0.02092 2.14489,0.33191 2.47541,0.58852c0.9804,0.76006 -0.32494,1.64284 -0.00139,1.97615z" fill="#d8a082" stroke="#d8a082"/><path d="M248.06933,151.92736c1.23701,0.92741 1.78927,2.21881 2.28714,3.62177c1.03898,2.92447 3.3303,4.95083 2.82406,8.37317c-0.23429,1.58845 -2.28156,3.05278 -2.16023,4.46132c-0.40025,0.17154 -0.64709,-0.07949 -0.55644,-0.55784c0.31239,0.09762 0.69451,0.46859 0.62757,-0.29844c-0.22871,0.57876 -0.93438,-0.17293 -1.00272,0.61223c-0.02231,0.26497 0.66243,2.08353 -0.00837,2.0389c-0.53274,-0.03347 -0.81584,-3.81283 -1.00829,-4.51989c-0.16875,-0.61502 -1.29279,-2.28854 -1.95941,-2.4266c-0.47556,-0.09762 -0.99295,0.27613 -1.50477,0.07252c0.23011,-0.01395 1.33881,-0.01534 1.12544,-0.44488c-0.14504,-0.1813 -0.29008,-0.3612 -0.43511,-0.5425c0.13946,-0.28589 -0.39886,-1.74604 0.1297,-1.79764c0.60526,-0.05857 0.70706,2.22299 1.40157,1.67352c0.1283,-0.10181 0.42954,-0.04881 0.48532,-0.2064c0.01534,-0.04044 -0.3612,-1.4448 -0.38909,-1.79764c-0.02092,-0.25521 0.48393,-1.15752 0.35981,-1.32347c-0.33889,-0.44906 -1.49083,-0.69172 -1.74604,-1.39739c-0.46301,-1.27745 0.21477,-1.31929 0.24127,-1.95104c0.01395,-0.32355 -0.62896,-0.63733 -0.38909,-1.0334c0.05997,-0.10041 0.2078,0.01395 0.27474,0.05439c0.42256,0.26079 0.17432,0.60805 0.43093,0.89115c0.516,0.57039 0.2315,2.12676 0.71403,2.56746c0.03626,0.03486 0.08228,0.05718 0.13528,0.04742c0.70846,-0.12551 -0.06415,-1.45596 0.03626,-1.74743c0.1283,-0.37096 0.65128,0.29008 0.92741,0.06136c0.10041,-0.08228 0.10878,-0.5425 0.17572,-0.68754c0.14364,-0.30681 0.44488,-0.2064 0.58434,-0.43093c0.18409,-0.29705 -0.50624,-1.62471 -0.73914,-1.84784c-0.19106,-0.22035 -0.38212,-0.44209 -0.57318,-0.66243c0.11017,0 0.21895,0 0.32773,0c-0.18967,-0.19803 -0.37933,-0.39467 -0.569,-0.5927c-0.01534,-0.02371 -0.03208,-0.04602 -0.04742,-0.06973c0,-0.04602 0,-0.09344 0,-0.13946zM249.61455,182.44676c0.01674,0.02092 0.03208,0.04044 0.04742,0.06136c-0.01534,-0.02092 -0.03068,-0.04044 -0.04742,-0.06136z" fill="#353d57" stroke="#353d57"/><path d="M245.19925,163.14272c0.13667,0.05439 0.27334,0.10738 0.40862,0.16177c0.51182,0.20361 1.02921,-0.17014 1.50477,-0.07252c0.66662,0.13807 1.79066,1.81158 1.95941,2.4266c0.19245,0.70706 0.47556,4.48642 1.00829,4.51989c0.6708,0.04463 -0.01395,-1.77393 0.00837,-2.0389c0.06834,-0.78516 0.774,-0.03347 1.00272,-0.61223c0.06694,0.76703 -0.31518,0.39607 -0.62757,0.29844c-0.09065,0.47835 0.1562,0.72938 0.55644,0.55784c0.2315,0.31518 -0.25242,3.24244 -0.61083,3.69429c-0.60944,0.76703 -1.14218,0.80329 -1.85482,1.41133c-1.14915,0.9804 -2.56746,5.07913 -1.4727,6.3775c-1.01527,0.35423 -0.39886,2.86032 -0.33749,3.78773c-0.03765,0.13946 -0.0767,0.27892 -0.11575,0.41838c-0.28868,-0.30123 0.04881,-0.94554 -0.11994,-1.34439c-0.70706,-1.67352 -0.35004,-2.55769 -0.4128,-4.3386c-0.01813,-0.52158 -0.64988,-0.27613 -0.6722,-0.76703c-0.02789,-0.59968 0.73077,-0.61781 0.69172,-1.29c-0.01813,-0.32773 0.05439,-1.46572 -0.4644,-1.51732c-0.15759,-0.01674 -0.3612,0.39746 -0.53832,0.17851c-0.16317,-0.20082 0.20082,-0.38351 0.11854,-0.62757c-0.06694,-0.19664 -0.37236,-0.29008 -0.36538,-0.49787c0.01674,-0.57597 0.57039,-0.92322 0.78376,-1.37368c0.38351,-0.80608 0.53971,-2.03332 0.88696,-2.94818c0.10738,-0.28031 1.10313,-1.01806 0.61502,-1.37507c-0.0781,-0.28171 -0.64988,-0.42954 -0.20919,-0.65965c-0.66941,-0.14364 -0.73077,-1.08639 -1.40576,-1.4211c-0.37515,-0.08368 -0.75029,-0.16875 -1.12544,-0.25242c0.86884,-0.50484 1.85482,0.15341 2.78641,-0.24824c1.12684,-0.48532 0.5174,-1.34439 -0.52019,-0.96088c-0.20361,-0.11017 -0.7238,-0.61502 -0.827,-0.62339c-0.31518,-0.02789 -0.52576,0.22174 -0.88418,0.04323c-0.29008,-0.14364 0.11017,-0.38073 -0.2329,-0.4644c-0.21198,-0.05021 -1.30813,0.22453 -1.25096,-0.32634c0.0516,-0.49927 1.44062,-0.09762 1.71675,-0.11575z" fill="#8d7b82" stroke="#8d7b82"/><path d="M238.2416,160.6436c0.02092,0.01674 0.04323,0.03347 0.06555,0.05021c-0.02231,-0.01674 -0.04463,-0.03347 -0.06555,-0.05021zM238.30714,160.69381c0.02231,0.05299 0.04463,0.10599 0.06834,0.15898c-0.0265,-0.00418 -0.05299,-0.00837 -0.07949,-0.01116c0.00139,-0.01952 0.00139,-0.03905 0.00279,-0.05857c0.00279,-0.02929 0.00558,-0.05997 0.00837,-0.08925zM238.37548,160.85279c0.01255,0.04602 0.0251,0.09344 0.03905,0.13946c-0.01395,-0.04602 -0.0265,-0.09344 -0.03905,-0.13946zM234.39111,162.54862c0.13946,0.01674 0.27892,0.03347 0.41838,0.05021c-0.13946,-0.01674 -0.27892,-0.03347 -0.41838,-0.05021zM234.10522,164.0004c-0.26637,0.31239 -1.21748,0.18269 -1.30534,0.59549c-0.10738,0.50903 1.18401,-0.1032 1.35276,-0.03765c0.27892,0.11017 0.15898,0.28031 0.311,0.4379c0.47974,0.50066 1.09337,-0.21337 1.43923,-0.32913c0.2064,-0.06834 0.58852,0.21198 0.70706,-0.09623c0.62199,-1.63308 -1.8855,-0.55505 -2.5047,-0.57039c0.22174,-0.50624 -2.68879,-0.34447 -1.59682,1.01806c-0.49787,-0.08647 -0.24405,-1.35276 0.28171,-1.4727c0.71264,-0.16456 0.99295,0.42396 1.67073,0.16596c0.20082,0.19943 3.0723,-0.82281 3.04441,0.03068c-0.00976,0.28589 -0.4142,0.2831 -0.56063,0.4644c-0.1297,0.16038 -0.03068,0.37096 -0.16875,0.52855c-0.35283,0.40304 -1.84226,0.61083 -2.3248,0.41001c-0.20501,-0.08647 -0.19385,-0.38491 -0.39188,-0.42535c-0.34168,-0.07112 -0.76563,0.58155 -1.39599,0.12133c-0.69033,-0.50484 1.18123,-0.84652 1.44202,-0.84094zM234.35625,163.78145c-0.01116,0.01116 -0.02371,0.02371 -0.03486,0.03486c0.01116,0.02371 0.02371,0.04881 0.03486,0.07252c0.01116,-0.02371 0.02371,-0.04881 0.03486,-0.07252c-0.01116,-0.01116 -0.02371,-0.02371 -0.03486,-0.03486zM246.68171,164.75767c-0.04742,0.11296 -0.09483,0.22453 -0.14225,0.33749c0.04742,-0.11296 0.09483,-0.22453 0.14225,-0.33749zM232.5084,165.01846c0.06973,0.0265 0.13946,0.0516 0.20919,0.0767c-0.06973,-0.0251 -0.13946,-0.05021 -0.20919,-0.0767zM230.90182,165.10632c-0.0251,0.03905 -0.05021,0.0781 -0.07531,0.11715c0.0251,-0.03905 0.05021,-0.0781 0.07531,-0.11715zM230.82652,165.22346c-0.02231,0.04602 -0.04602,0.09204 -0.06834,0.13946c0.02231,-0.04742 0.04602,-0.09344 0.06834,-0.13946zM230.75818,165.36292c-0.02371,0.04602 -0.04742,0.09344 -0.07112,0.13946c0.02371,-0.04602 0.04742,-0.09344 0.07112,-0.13946zM230.68706,165.50238c-0.02371,0.04602 -0.04742,0.09344 -0.07112,0.13946c0.02371,-0.04602 0.04742,-0.09344 0.07112,-0.13946zM230.61593,165.64184c-0.02371,0.05439 -0.04742,0.10738 -0.07112,0.16177c0.02371,-0.05439 0.04742,-0.10738 0.07112,-0.16177zM230.54481,165.80362c-0.01255,0.01813 -0.02371,0.03486 -0.03626,0.05299c0.01255,-0.01813 0.02371,-0.03486 0.03626,-0.05299zM240.36557,168.46591c0.31518,-0.07252 0.83118,0.29147 0.4379,0.57736c-0.43651,0.31936 -1.0069,-0.44348 -0.4379,-0.57736zM240.4353,168.60537c-0.20222,0.07252 -0.04463,0.34307 0.11575,0.32076c0.26358,-0.03765 0.17572,-0.42535 -0.11575,-0.32076zM234.90851,178.92819c1.74185,-0.50484 2.68042,1.15891 2.88124,1.20214c0.36957,0.08089 1.22585,-0.27195 1.65678,-0.30263c0.11575,-0.00837 0.33052,-0.00976 0.3863,-0.11715c0.44906,-0.87302 3.88675,-1.09755 3.8212,-0.20501c-0.03347,0.46859 -1.43504,0.98598 -1.76556,1.29558c-0.1297,0.11994 -0.20501,0.44627 -0.30542,0.516c-0.15759,0.11017 -0.78098,0.09483 -0.8772,0.23708c-0.18967,0.28171 1.39599,0.32494 0.75169,1.12126c-0.43093,0.52995 -0.92044,-0.17711 -1.3179,-0.14225c-0.35702,0.03208 -1.73488,0.73495 -1.94686,-0.18967c-0.14085,-0.6192 2.00264,0.73914 1.66933,-0.37654c-0.01116,-0.03905 -3.31775,-1.343 -3.72776,-1.48106c-0.31378,-0.10459 -1.68328,-1.42528 -1.22585,-1.55777zM232.29921,180.02713c-0.04602,0.01952 -0.09344,0.03905 -0.13946,0.05997c0.04602,-0.02092 0.09344,-0.04044 0.13946,-0.05997zM232.04818,182.5388c0.00279,-0.02371 0.00558,-0.04602 0.00837,-0.06973c0.02092,-0.05718 0.04044,-0.11296 0.06136,-0.17014c0.00418,-0.01255 0.00837,-0.0265 0.01255,-0.03905c0.02929,-0.02371 0.05857,-0.04602 0.08786,-0.06973c0.00279,-0.02371 0.00697,-0.04602 0.01116,-0.06973c0.01813,-0.03068 0.03626,-0.06136 0.05299,-0.09204c0.0251,-0.03905 0.05021,-0.0781 0.07531,-0.11715c0.03626,-0.27892 0.07252,-0.55784 0.10878,-0.83676c-0.03068,-0.25661 -0.06136,-0.51321 -0.09204,-0.76982c0.14783,-0.41559 0.4142,2.52143 -0.32634,2.23415zM245.5479,189.51877c-0.01674,0.04463 -0.03347,0.08786 -0.04881,0.13249c-0.00837,0.02092 -0.01534,0.04184 -0.02231,0.06276c-0.02371,0.05021 -0.04881,0.09902 -0.07252,0.14783c-0.01952,0 -0.04044,0 -0.05997,0c0.0251,-0.56202 -0.03486,-1.27606 0.0767,-1.83669c0.10181,-0.50484 0.55366,-0.99435 0.81305,-1.41831c0.51461,-0.83955 0.76145,-2.54375 0.6973,-3.51021c0.01534,-0.13946 0.03068,-0.27892 0.04602,-0.41838c0.50763,1.3695 -0.65128,5.61744 -1.42946,6.84051zM231.58797,183.49829c0.19524,0.29147 -0.53413,1.28024 -0.56342,1.72512c-0.08089,1.23701 0.58992,2.41823 0.86186,3.58691c-0.03208,0.00139 -0.06415,0.00279 -0.09623,0.00418c-0.01813,-0.02371 -0.03626,-0.04602 -0.05439,-0.06973c-0.00139,-0.02371 -0.00418,-0.04602 -0.00558,-0.06973c-0.0251,-0.04602 -0.05021,-0.09344 -0.07531,-0.13946c-0.02092,-0.06973 -0.04184,-0.13946 -0.06276,-0.20919c-0.00139,-0.02371 -0.00139,-0.04602 -0.00139,-0.06973c-0.02371,-0.04602 -0.04602,-0.09344 -0.06834,-0.13946c-0.00139,-0.02371 -0.00139,-0.04602 -0.00139,-0.06973c-0.02231,-0.02371 -0.04463,-0.04602 -0.06555,-0.06973c-0.00139,-0.02371 -0.00279,-0.04602 -0.00418,-0.06973c-0.0265,-0.04602 -0.05299,-0.09344 -0.0781,-0.13946c-0.02092,-0.04602 -0.04184,-0.09344 -0.06276,-0.13946c0,-0.02371 0,-0.04602 0.00139,-0.06973c-0.0251,-0.04602 -0.04881,-0.09344 -0.07252,-0.13946c0,-0.02371 0.00139,-0.04602 0.00279,-0.06973c-0.0251,-0.04602 -0.04881,-0.09344 -0.07391,-0.13946c0.00139,-0.02371 0.00279,-0.04602 0.00418,-0.06973c-0.0251,-0.04602 -0.04881,-0.09344 -0.07252,-0.13946c0,-0.02371 0.00139,-0.04602 0.00279,-0.06973c-0.02789,-0.06973 -0.05439,-0.13946 -0.08089,-0.20919c-0.02231,-0.09344 -0.04463,-0.18548 -0.06555,-0.27892c0.00139,-0.02371 0.00418,-0.04602 0.00697,-0.06973c-0.02231,-0.06973 -0.04463,-0.13946 -0.06694,-0.20919c-0.00139,-0.04602 -0.00279,-0.09344 -0.00279,-0.13946c-0.03208,-0.06973 -0.06415,-0.13946 -0.09483,-0.20919c0,-0.06973 0,-0.13946 0,-0.20919c0.03068,-0.2329 0.06276,-0.4644 0.09483,-0.6973c0.00139,-0.02371 0.00279,-0.04602 0.00418,-0.06973c0.02231,-0.06973 0.04323,-0.13946 0.06555,-0.20919c0.00279,-0.02371 0.00558,-0.04602 0.00837,-0.06973c0.01952,-0.02371 0.04044,-0.04602 0.06136,-0.06973c0,-0.02371 0,-0.04602 0.00139,-0.06973c0.02092,-0.05299 0.04184,-0.10599 0.06276,-0.15759c0.02231,-0.0251 0.04463,-0.05021 0.06555,-0.07391c0.0265,-0.01534 0.05299,-0.03208 0.07949,-0.04742c0.00279,-0.02371 0.00697,-0.04602 0.01116,-0.06973c0.01813,-0.02789 0.03765,-0.05718 0.05578,-0.08507c0.02371,-0.02789 0.04881,-0.05578 0.07252,-0.08507c0.00418,-0.01255 0.00697,-0.0265 0.01116,-0.03905c0.00976,-0.03347 0.01813,-0.06694 0.02789,-0.10041c0.00418,-0.01255 0.00837,-0.0265 0.01395,-0.03905c0.01813,-0.03347 0.03765,-0.06694 0.05578,-0.10041c0.00418,-0.01255 0.00976,-0.0265 0.01395,-0.03905c0.02789,-0.02929 0.05578,-0.05718 0.08368,-0.08647zM231.33415,186.30422c0.0265,0.02371 0.0516,0.04602 0.0767,0.06973c-0.0251,-0.02371 -0.05021,-0.04602 -0.0767,-0.06973zM231.88641,188.81031c0.04742,0.06973 0.09344,0.13946 0.14085,0.2078c-0.03347,0.00139 -0.06694,0.00418 -0.09902,0.00558c-0.02231,-0.01534 -0.04463,-0.03208 -0.06694,-0.04742c0.00837,-0.05578 0.01674,-0.11017 0.0251,-0.16596zM232.02727,189.01811c0.12551,0.18688 0.25103,0.37375 0.37654,0.55923c0.00976,-0.06834 0.01813,-0.13667 0.02789,-0.20501c0.04742,0.12272 0.09344,0.24684 0.14085,0.36957c-0.07531,-0.00697 -0.14922,-0.01395 -0.22453,-0.02092c-0.01674,-0.02371 -0.03347,-0.04602 -0.0516,-0.06973c-0.00279,-0.02371 -0.00558,-0.04602 -0.00837,-0.06973c-0.02092,-0.02371 -0.04044,-0.04602 -0.06136,-0.06973c-0.00279,-0.02371 -0.00558,-0.04602 -0.00837,-0.06973c-0.0251,-0.01674 -0.04881,-0.03486 -0.07391,-0.0516c-0.01813,-0.02929 -0.03626,-0.05857 -0.05439,-0.08786c-0.00418,-0.02371 -0.00837,-0.04602 -0.01116,-0.06973c-0.0251,-0.01813 -0.04881,-0.03626 -0.07252,-0.05439c0.00697,-0.05299 0.01395,-0.10738 0.02092,-0.16038zM232.29921,189.13247c0.02092,0.04044 0.04323,0.08089 0.06415,0.12133c-0.02092,-0.04044 -0.04323,-0.08089 -0.06415,-0.12133zM232.36336,189.2538c0.02231,0.04044 0.04602,0.07949 0.06834,0.11854c-0.02231,-0.03905 -0.04602,-0.0781 -0.06834,-0.11854zM232.57255,189.7419c0.02371,0.03905 0.04881,0.07949 0.07391,0.11854c-0.0251,-0.03905 -0.05021,-0.07949 -0.07391,-0.11854zM245.34429,189.86184c-0.00279,0.04881 -0.00418,0.09623 -0.00697,0.14364c-0.02231,0 -0.04602,0 -0.06834,0c0.0251,-0.04742 0.05021,-0.09483 0.07531,-0.14364zM244.65536,190.97612c-0.00558,0.0265 -0.01116,0.0516 -0.01674,0.0781c-0.01813,0.00279 -0.03626,0.00418 -0.05299,0.00697c0.02231,-0.02789 0.04602,-0.05718 0.06973,-0.08507zM233.38003,191.11977c-0.00837,-0.01255 -0.01534,-0.0265 -0.02371,-0.03905c0.00837,0.01116 0.01534,0.02371 0.02371,0.03486c-0.01116,-0.01116 -0.02371,-0.02371 -0.03486,-0.03486c0.01116,0.01255 0.02371,0.0265 0.03486,0.03905zM244.58563,191.0612c-0.00837,0.01813 -0.01534,0.03626 -0.02371,0.05439c0.00837,-0.01813 0.01534,-0.03626 0.02371,-0.05439zM233.62408,191.81567c0.02371,0.00279 0.04742,0.00558 0.07112,0.00837c0,0.02092 0,0.04044 0,0.05997c-0.02371,-0.02231 -0.04742,-0.04463 -0.07112,-0.06834zM233.69521,191.88401c0.02789,0 0.05578,0 0.08368,0c-0.00558,0.02929 -0.00976,0.05718 -0.01534,0.08647c-0.02231,-0.02929 -0.04602,-0.05718 -0.06834,-0.08647zM234.39111,192.23126c-0.04602,-0.04323 -0.09344,-0.08507 -0.13946,-0.1283c0.04602,0.04323 0.09344,0.08507 0.13946,0.1283zM235.01868,193.06802c-0.02371,0 -0.04602,0 -0.06973,0c0.02371,0 0.04602,0 0.06973,0zM235.01868,193.06802c0.02371,0.02371 0.04602,0.04602 0.06973,0.06973c-0.02371,0 -0.04602,0 -0.06973,0c0,-0.02371 0,-0.04602 0,-0.06973zM235.08841,193.13775c0.02371,0.01952 0.04602,0.03905 0.06973,0.05857c-0.02371,0 -0.04602,0 -0.06973,0c0,-0.01952 0,-0.03905 0,-0.05857zM242.11998,194.10979c-0.03905,0.00558 -0.0781,0.00976 -0.11715,0.01534c0.03905,-0.00558 0.0781,-0.00976 0.11715,-0.01534z" fill="#7d5e57" stroke="#7d5e57"/><path d="M241.99167,148.20936c0.06973,0.00697 0.13946,0.01255 0.20919,0.01813c-0.06973,-0.00558 -0.13946,-0.01116 -0.20919,-0.01813zM241.71275,148.28048c0.03626,0.00697 0.07252,0.01395 0.10878,0.02092c-0.03626,-0.00697 -0.07252,-0.01395 -0.10878,-0.02092zM242.58438,148.44086c0.02371,0 0.04602,0 0.06973,0c0.01116,0.01116 0.02371,0.02371 0.03486,0.03486c-0.01116,0.01116 -0.02371,0.02371 -0.03486,0.03486c-0.02371,0.03068 -0.04602,0.05997 -0.06973,0.09065c-0.01116,-0.04184 -0.02371,-0.08368 -0.03486,-0.12551c0.01116,-0.01116 0.02371,-0.02371 0.03486,-0.03486zM241.96378,148.71839c-0.00976,0.00418 -0.01952,0.00837 -0.03068,0.01255c0.01116,-0.00418 0.02092,-0.00837 0.03068,-0.01255zM242.79357,148.51059c0.02371,0 0.04602,0 0.06973,0c0.01116,0.01116 0.02371,0.02371 0.03486,0.03486c-0.01116,0.02929 -0.02371,0.05857 -0.03486,0.08786c-0.02371,-0.00139 -0.04602,-0.00279 -0.06973,-0.00418c-0.01116,-0.02789 -0.02371,-0.05578 -0.03486,-0.08368c0.01116,-0.01116 0.02371,-0.02371 0.03486,-0.03486zM243.66519,148.51059c0.03068,0.04602 0.19943,0.22592 0.08647,0.26218c-0.1813,0.05997 -0.11575,-0.21198 -0.08647,-0.26218zM241.78248,148.63611c-0.25521,0 -0.51182,0 -0.76703,0c0.25521,0 0.51182,0 0.76703,0zM245.31082,148.9987c0.00976,0.01813 0.01813,0.03626 0.02789,0.05439c-0.00976,-0.01813 -0.01813,-0.03626 -0.02789,-0.05439zM233.334,150.60249c-1.12405,0.99156 -2.2467,1.98312 -3.37075,2.97468c-0.03486,-0.09762 -0.06973,-0.19524 -0.10459,-0.29287c0.13946,-0.10459 0.27892,-0.2078 0.41838,-0.311c0.02371,0.01116 0.04602,0.02371 0.06973,0.03486c-0.02371,-0.01116 -0.04602,-0.02371 -0.06973,-0.03486c0.09344,-0.0767 0.18548,-0.1548 0.27892,-0.2315c0.01116,0.03068 0.02371,0.06136 0.03486,0.09204c-0.01116,-0.03068 -0.02371,-0.06136 -0.03486,-0.09204c0.65128,-0.60665 1.30116,-1.2147 1.95244,-1.82135c-0.04602,0.12691 -0.09344,0.25242 -0.13946,0.37933c-0.02371,0.02371 -0.04602,0.04602 -0.06973,0.06973c-0.02371,0.02371 -0.04602,0.04602 -0.06973,0.06973c-0.02371,0.02371 -0.04602,0.04602 -0.06973,0.06973c-0.02371,0.01116 -0.04602,0.02371 -0.06973,0.03486c0.02371,-0.01116 0.04602,-0.02371 0.06973,-0.03486c0.02371,-0.02371 0.04602,-0.04602 0.06973,-0.06973c0.02371,-0.02371 0.04602,-0.04602 0.06973,-0.06973c0.02371,-0.02371 0.04602,-0.04602 0.06973,-0.06973c0.16317,-0.16735 0.32494,-0.3361 0.48811,-0.50345c0.15898,-0.06415 0.31797,-0.1297 0.47695,-0.19385zM233.03138,150.81168c-0.01116,0.01116 -0.02371,0.02371 -0.03486,0.03486c0.01116,0.01116 0.02371,0.02371 0.03486,0.03486c0.01116,-0.01116 0.02371,-0.02371 0.03486,-0.03486c-0.01116,-0.01116 -0.02371,-0.02371 -0.03486,-0.03486zM248.06933,152.06682c0.01534,0.02371 0.03208,0.04602 0.04742,0.06973c-0.01534,-0.02371 -0.03208,-0.04602 -0.04742,-0.06973zM231.46245,152.20628c-0.02371,0.02371 -0.04602,0.04602 -0.06973,0.06973c-0.02371,0.02371 -0.04602,0.04602 -0.06973,0.06973c-0.02371,0.02371 -0.04602,0.04602 -0.06973,0.06973c-0.02371,0.01116 -0.04602,0.02371 -0.06973,0.03486c0.02371,-0.01116 0.04602,-0.02371 0.06973,-0.03486c0.02371,-0.02371 0.04602,-0.04602 0.06973,-0.06973c0.02371,-0.02371 0.04602,-0.04602 0.06973,-0.06973c0.02371,-0.02371 0.04602,-0.04602 0.06973,-0.06973c0.01116,-0.02371 0.02371,-0.04602 0.03486,-0.06973c-0.01116,0.02371 -0.02371,0.04602 -0.03486,0.06973zM231.07894,152.41547c-0.01116,0.01116 -0.02371,0.02371 -0.03486,0.03486c0.01116,0.01116 0.02371,0.02371 0.03486,0.03486c0.01116,-0.01116 0.02371,-0.02371 0.03486,-0.03486c-0.01116,-0.01116 -0.02371,-0.02371 -0.03486,-0.03486zM230.86975,152.55493c-0.01116,0.01116 -0.02371,0.02371 -0.03486,0.03486c0.01116,0.01116 0.02371,0.02371 0.03486,0.03486c0.01116,-0.01116 0.02371,-0.02371 0.03486,-0.03486c-0.01116,-0.01116 -0.02371,-0.02371 -0.03486,-0.03486zM231.00921,152.55493c-0.01116,0.01116 -0.02371,0.02371 -0.03486,0.03486c0.01116,0.01116 0.02371,0.02371 0.03486,0.03486c0.01116,-0.01116 0.02371,-0.02371 0.03486,-0.03486c-0.01116,-0.01116 -0.02371,-0.02371 -0.03486,-0.03486zM230.73029,152.76412c-0.01116,0.01116 -0.02371,0.02371 -0.03486,0.03486c0.01116,0.01116 0.02371,0.02371 0.03486,0.03486c0.01116,-0.01116 0.02371,-0.02371 0.03486,-0.03486c-0.01116,-0.01116 -0.02371,-0.02371 -0.03486,-0.03486zM230.48623,152.97331c-0.02371,0.01116 -0.04602,0.02371 -0.06973,0.03486c0.02371,-0.01116 0.04602,-0.02371 0.06973,-0.03486c0.01116,-0.02371 0.02371,-0.04602 0.03486,-0.06973c-0.01116,0.02371 -0.02371,0.04602 -0.03486,0.06973zM230.17245,153.1825c-0.01116,0.01116 -0.02371,0.02371 -0.03486,0.03486c0.01116,0.01116 0.02371,0.02371 0.03486,0.03486c0.01116,-0.01116 0.02371,-0.02371 0.03486,-0.03486c-0.01116,-0.01116 -0.02371,-0.02371 -0.03486,-0.03486zM245.19925,163.14272c-0.27613,0.01813 -1.66515,-0.38351 -1.71675,0.11575c-0.05718,0.55087 1.03898,0.27613 1.25096,0.32634c0.34307,0.08368 -0.05718,0.32076 0.2329,0.4644c0.35841,0.17851 0.569,-0.07112 0.88418,-0.04323c0.1032,0.00837 0.62339,0.51321 0.827,0.62339c0.00139,0.04323 0.00279,0.08507 0.00418,0.1283c-0.04742,0.11296 -0.09483,0.22453 -0.14225,0.33749c-1.03479,0.3096 -1.52709,-0.26218 -1.57311,-0.25242c-0.21058,0.04184 -0.09623,0.4142 -0.35981,0.46022c-0.70009,0.12551 -0.88418,-0.37096 -1.40854,-0.52437c-0.6457,-0.18688 -1.47549,0.34028 -2.01659,-0.5676c-0.41977,-0.70706 0.70288,-0.7475 0.57597,-1.29279c0,-0.00418 -1.32347,-1.46433 -1.44759,-1.54243c0.88557,0 0.57597,1.05711 1.17007,1.20493c1.42389,0.35562 2.36942,-0.14504 3.71939,0.56202zM234.10522,164.0004c0.6192,0.01534 3.12669,-1.06268 2.5047,0.57039c-0.11854,0.30821 -0.50066,0.02789 -0.70706,0.09623c-0.34586,0.11575 -0.95948,0.82979 -1.43923,0.32913c-0.15201,-0.15759 -0.03208,-0.32773 -0.311,-0.4379c-0.16875,-0.06555 -1.46014,0.54668 -1.35276,0.03765c0.08786,-0.4128 1.03898,-0.2831 1.30534,-0.59549zM240.36557,168.29019c1.032,-0.14922 1.00829,1.57171 0.85349,1.65539c-0.64291,0.34726 -2.44194,-1.42528 -0.85349,-1.65539zM240.36557,168.46591c-0.569,0.13388 0.00139,0.89673 0.4379,0.57736c0.39328,-0.28589 -0.12272,-0.64988 -0.4379,-0.57736zM240.4353,168.60537c0.29147,-0.10459 0.37933,0.2831 0.11575,0.32076c-0.16038,0.02231 -0.31797,-0.24824 -0.11575,-0.32076zM214.23916,187.84943c-0.00418,0.01952 -0.00837,0.03905 -0.01116,0.05857c-0.04881,0.02371 -0.09623,0.04602 -0.14504,0.06973c0.05299,-0.04323 0.10459,-0.08507 0.1562,-0.1283zM233.903,192.07088c0.02092,0.00697 0.04323,0.01395 0.06415,0.02092c-0.01813,0 -0.03486,0 -0.05299,0c-0.00279,-0.00697 -0.00697,-0.01395 -0.01116,-0.02092zM242.89816,192.72077c-0.02371,0.02231 -0.04602,0.04602 -0.06973,0.06834c0.02371,-0.02231 0.04602,-0.04602 0.06973,-0.06834zM242.82843,192.7891c-0.02092,0.02371 -0.04044,0.04602 -0.06136,0.06973c0.02092,-0.02371 0.04044,-0.04602 0.06136,-0.06973zM242.00283,194.12513c0.03905,-0.00558 0.0781,-0.00976 0.11715,-0.01534c-0.03905,0.00558 -0.0781,0.00976 -0.11715,0.01534z" fill="#5a4a4b" stroke="#5a4a4b"/><path d="M241.99167,148.20936c0.06973,0.00697 0.13946,0.01255 0.20919,0.01813c0.48811,0.09483 0.97622,0.18827 1.46433,0.2831c-0.02929,0.05021 -0.09483,0.32215 0.08647,0.26218c0.11296,-0.03626 -0.05578,-0.21616 -0.08647,-0.26218c0.54808,0.16317 1.09755,0.32494 1.64563,0.48811c0.00976,0.01813 0.01813,0.03626 0.02789,0.05439c-1.12544,-0.11157 -2.24949,-0.22314 -3.37493,-0.3347c-0.00976,0.00418 -0.01952,0.00837 -0.03068,0.01255c-0.50345,0.06555 -1.0069,0.13249 -1.51035,0.19803c0.03486,-0.12412 0.06973,-0.24963 0.10459,-0.37375c0.39467,-0.09204 0.79074,-0.18269 1.18541,-0.27474c0.03626,0.00697 0.07252,0.01395 0.10878,0.02092c0.05718,-0.03068 0.11296,-0.06136 0.17014,-0.09204zM242.58438,148.44086c-0.01116,0.01116 -0.02371,0.02371 -0.03486,0.03486c0.01116,0.04184 0.02371,0.08368 0.03486,0.12551c0.02371,-0.03068 0.04602,-0.05997 0.06973,-0.09065c0.01116,-0.01116 0.02371,-0.02371 0.03486,-0.03486c-0.01116,-0.01116 -0.02371,-0.02371 -0.03486,-0.03486c-0.02371,0 -0.04602,0 -0.06973,0zM242.79357,148.51059c-0.01116,0.01116 -0.02371,0.02371 -0.03486,0.03486c0.01116,0.02789 0.02371,0.05578 0.03486,0.08368c0.02371,0.00139 0.04602,0.00279 0.06973,0.00418c0.01116,-0.02929 0.02371,-0.05857 0.03486,-0.08786c-0.01116,-0.01116 -0.02371,-0.02371 -0.03486,-0.03486c-0.02371,0 -0.04602,0 -0.06973,0zM240.45761,148.57474c-0.06973,0.03905 -0.13946,0.0781 -0.20919,0.11715c0.06973,-0.03905 0.13946,-0.0781 0.20919,-0.11715zM241.78248,148.63611c-0.25521,0 -0.51182,0 -0.76703,0c0.25521,0 0.51182,0 0.76703,0zM232.85705,150.79634c-0.16317,0.16735 -0.32494,0.3361 -0.48811,0.50345c0.04602,-0.12691 0.09344,-0.25242 0.13946,-0.37933c-0.00279,-0.00139 -0.00558,-0.00279 -0.00837,-0.00418c0.11854,-0.04044 0.23848,-0.07949 0.35702,-0.11994zM233.03138,150.81168c0.01116,0.01116 0.02371,0.02371 0.03486,0.03486c-0.01116,0.01116 -0.02371,0.02371 -0.03486,0.03486c-0.01116,-0.01116 -0.02371,-0.02371 -0.03486,-0.03486c0.01116,-0.01116 0.02371,-0.02371 0.03486,-0.03486zM232.36894,151.29979c-0.02371,0.02371 -0.04602,0.04602 -0.06973,0.06973c0.02371,-0.02371 0.04602,-0.04602 0.06973,-0.06973zM232.29921,151.36952c-0.02371,0.02371 -0.04602,0.04602 -0.06973,0.06973c0.02371,-0.02371 0.04602,-0.04602 0.06973,-0.06973zM232.22948,151.43925c-0.02371,0.02371 -0.04602,0.04602 -0.06973,0.06973c0.02371,-0.02371 0.04602,-0.04602 0.06973,-0.06973zM232.15975,151.50898c-0.02371,0.01116 -0.04602,0.02371 -0.06973,0.03486c0.02371,-0.01116 0.04602,-0.02371 0.06973,-0.03486zM231.46245,152.20628c0.01116,-0.02371 0.02371,-0.04602 0.03486,-0.06973c-0.01116,0.02371 -0.02371,0.04602 -0.03486,0.06973zM231.46245,152.20628c-0.02371,0.02371 -0.04602,0.04602 -0.06973,0.06973c0.02371,-0.02371 0.04602,-0.04602 0.06973,-0.06973zM231.39272,152.27601c-0.02371,0.02371 -0.04602,0.04602 -0.06973,0.06973c0.02371,-0.02371 0.04602,-0.04602 0.06973,-0.06973zM231.32299,152.34574c-0.02371,0.02371 -0.04602,0.04602 -0.06973,0.06973c0.02371,-0.02371 0.04602,-0.04602 0.06973,-0.06973zM231.07894,152.41547c0.01116,0.01116 0.02371,0.02371 0.03486,0.03486c-0.01116,0.01116 -0.02371,0.02371 -0.03486,0.03486c-0.01116,-0.01116 -0.02371,-0.02371 -0.03486,-0.03486c0.01116,-0.01116 0.02371,-0.02371 0.03486,-0.03486zM231.25326,152.41547c-0.02371,0.01116 -0.04602,0.02371 -0.06973,0.03486c0.02371,-0.01116 0.04602,-0.02371 0.06973,-0.03486zM230.86975,152.55493c0.01116,0.01116 0.02371,0.02371 0.03486,0.03486c-0.01116,0.01116 -0.02371,0.02371 -0.03486,0.03486c-0.01116,-0.01116 -0.02371,-0.02371 -0.03486,-0.03486c0.01116,-0.01116 0.02371,-0.02371 0.03486,-0.03486zM231.00921,152.55493c0.01116,0.01116 0.02371,0.02371 0.03486,0.03486c-0.01116,0.01116 -0.02371,0.02371 -0.03486,0.03486c-0.01116,-0.01116 -0.02371,-0.02371 -0.03486,-0.03486c0.01116,-0.01116 0.02371,-0.02371 0.03486,-0.03486zM230.55596,152.74181c0.01116,0.03068 0.02371,0.06136 0.03486,0.09204c-0.01116,-0.03068 -0.02371,-0.06136 -0.03486,-0.09204zM230.73029,152.76412c0.01116,0.01116 0.02371,0.02371 0.03486,0.03486c-0.01116,0.01116 -0.02371,0.02371 -0.03486,0.03486c-0.01116,-0.01116 -0.02371,-0.02371 -0.03486,-0.03486c0.01116,-0.01116 0.02371,-0.02371 0.03486,-0.03486zM230.48623,152.97331c0.01116,-0.02371 0.02371,-0.04602 0.03486,-0.06973c-0.01116,0.02371 -0.02371,0.04602 -0.03486,0.06973zM230.27704,152.97331c0.02371,0.01116 0.04602,0.02371 0.06973,0.03486c-0.02371,-0.01116 -0.04602,-0.02371 -0.06973,-0.03486zM230.48623,152.97331c-0.02371,0.01116 -0.04602,0.02371 -0.06973,0.03486c0.02371,-0.01116 0.04602,-0.02371 0.06973,-0.03486zM230.17245,153.1825c0.01116,0.01116 0.02371,0.02371 0.03486,0.03486c-0.01116,0.01116 -0.02371,0.02371 -0.03486,0.03486c-0.01116,-0.01116 -0.02371,-0.02371 -0.03486,-0.03486c0.01116,-0.01116 0.02371,-0.02371 0.03486,-0.03486zM245.5479,189.51877c-0.01674,0.04463 -0.03347,0.08786 -0.04881,0.13249c0.01534,-0.04463 0.03208,-0.08786 0.04881,-0.13249zM245.47678,189.71401c-0.02371,0.05021 -0.04881,0.09902 -0.07252,0.14783c0.02371,-0.04881 0.04881,-0.09762 0.07252,-0.14783zM245.34429,189.86184c0.01952,0 0.04044,0 0.05997,0c-0.02231,0.04881 -0.04463,0.09623 -0.06694,0.14364c0.00279,-0.04742 0.00418,-0.09483 0.00697,-0.14364zM245.26898,190.00548c0.02231,0 0.04602,0 0.06834,0c-0.01116,0.04463 -0.02231,0.08925 -0.03347,0.13388c-0.01116,-0.04463 -0.02371,-0.08925 -0.03486,-0.13388zM245.20762,190.2091c0.00976,0.04602 0.01813,0.09344 0.0265,0.13946c-0.00837,-0.04602 -0.01674,-0.09344 -0.0265,-0.13946zM245.15044,190.41829c0.00418,0.06973 0.00976,0.13946 0.01395,0.20919c-0.01674,-0.04602 -0.03347,-0.09344 -0.0516,-0.13946c0.01255,-0.02371 0.0251,-0.04602 0.03765,-0.06973zM244.65536,190.97612c-0.00558,0.0265 -0.01116,0.0516 -0.01674,0.0781c0.00558,-0.0265 0.01116,-0.0516 0.01674,-0.0781zM233.91416,192.0918c0.01813,0 0.03486,0 0.05299,0c0.00139,0.02371 0.00418,0.04602 0.00558,0.06973c-0.01952,-0.02371 -0.03905,-0.04602 -0.05857,-0.06973zM234.11219,192.0918c0.04602,0.00418 0.09344,0.00837 0.13946,0.01116c0.04602,0.04323 0.09344,0.08507 0.13946,0.1283c0,0.04602 0,0.09344 0,0.13946c-0.09344,-0.09344 -0.18548,-0.18548 -0.27892,-0.27892zM233.97273,192.16153c0.02371,0.01116 0.04602,0.02371 0.06973,0.03486c-0.02371,-0.01116 -0.04602,-0.02371 -0.06973,-0.03486zM234.39111,192.37072c0.25521,0.27474 0.51182,0.54947 0.76703,0.8256c-0.02371,-0.01952 -0.04602,-0.03905 -0.06973,-0.05857c-0.02371,-0.02371 -0.04602,-0.04602 -0.06973,-0.06973c-0.02371,0 -0.04602,0 -0.06973,0c-0.18548,-0.18548 -0.37236,-0.37236 -0.55784,-0.55784c0,-0.04602 0,-0.09344 0,-0.13946zM234.39111,192.51018c-0.02371,0.01116 -0.04602,0.02371 -0.06973,0.03486c0.02371,-0.01116 0.04602,-0.02371 0.06973,-0.03486zM236.02976,193.62586c0.01116,0.01116 0.02371,0.02371 0.03486,0.03486c-0.01116,0.01116 -0.02371,0.02371 -0.03486,0.03486c-0.01116,-0.01116 -0.02371,-0.02371 -0.03486,-0.03486c0.01116,-0.01116 0.02371,-0.02371 0.03486,-0.03486zM238.64464,194.96189c-0.00418,0.01952 -0.00837,0.03905 -0.01116,0.05857c0.00279,-0.01952 0.00697,-0.03905 0.01116,-0.05857z" fill="#3a3236" stroke="#3a3236"/><path d="M234.77462,178.14582c-0.70148,0.15341 -0.58852,0.31797 -0.55784,1.04595c-0.28729,-0.14364 -1.61216,-1.54103 -1.46154,-1.87992c0.16177,-0.36678 1.71536,0.71543 2.01938,0.83397zM235.01868,193.13775c0.02371,0 0.04602,0 0.06973,0c0,0.01952 0,0.03905 0,0.05857c-0.02371,-0.01952 -0.04602,-0.03905 -0.06973,-0.05857z" fill="#a57a6d" stroke="#a57a6d"/><path d="M214.228,187.90801c-0.01395,0.06973 -0.0265,0.13946 -0.04044,0.20919c-0.02092,0 -0.04323,0 -0.06555,0c-0.01255,-0.04602 -0.0251,-0.09344 -0.03905,-0.13946c0.04881,-0.02371 0.09623,-0.04602 0.14504,-0.06973zM214.12201,188.1172c-0.03068,0.02371 -0.06136,0.04602 -0.09204,0.06973c0.03068,-0.02371 0.06136,-0.04602 0.09204,-0.06973z" fill="#64616e" stroke="#64616e"/></g><path d="M213.01943,221.96914c-1.65685,0 -3,-1.34315 -3,-3v-77.93828c0,-1.65685 1.34315,-3 3,-3h53.96114c1.65685,0 3,1.34315 3,3v77.93828c0,1.65685 -1.34315,3 -3,3zM263.23302,197.97227c1.38071,0 2.5,-1.11929 2.5,-2.5v-48.59004c0,-1.38071 -1.11929,-2.5 -2.5,-2.5h-46.46605c-1.38071,0 -2.5,1.11929 -2.5,2.5v48.59004c0,1.38071 1.11929,2.5 2.5,2.5z" fill="#608dff" fill-rule="nonzero" stroke="none" stroke-width="0" stroke-linejoin="miter"/><path d="M213.68572,218.72632c0,-1.06413 0.86265,-1.92677 1.92677,-1.92677c1.06413,0 1.92677,0.86265 1.92677,1.92677c0,1.06413 -0.86265,1.92677 -1.92677,1.92677c-1.06413,0 -1.92677,-0.86265 -1.92677,-1.92677z" fill="#000000" fill-rule="nonzero" stroke="none" stroke-width="0" stroke-linejoin="miter"/><text transform="translate(214.5139,143.14162) scale(0.13917,0.13917)" font-size="40" xml:space="preserve" fill="#000000" fill-rule="nonzero" stroke="none" stroke-width="1" stroke-linejoin="miter" font-family="Sans Serif" font-weight="normal" text-anchor="start"><tspan x="0" dy="0">Thatcher Andres</tspan></text><text transform="translate(218.94522,220.40272) scale(0.0984,0.0984)" font-size="40" xml:space="preserve" fill="#000000" fill-rule="nonzero" stroke="none" stroke-width="1" stroke-linejoin="miter" font-family="Sans Serif" font-weight="normal" text-anchor="start"><tspan x="0" dy="0">4/27</tspan></text><text transform="translate(213.84426,210.32538) rotate(10.57007) scale(0.41919,0.41919)" font-size="40" xml:space="preserve" fill="#5585ff" fill-rule="nonzero" stroke="none" stroke-width="1" stroke-linejoin="miter" font-family="Sans Serif" font-weight="normal" text-anchor="start"><tspan x="0" dy="0">SPIRIT</tspan></text><text transform="translate(239.57666,220.8475) scale(0.09461,0.09461)" font-size="40" xml:space="preserve" fill="#000000" fill-rule="nonzero" stroke="none" stroke-width="1" stroke-linejoin="miter" font-family="Sans Serif" font-weight="normal" text-anchor="start"><tspan x="0" dy="0">Core Collection</tspan></text><text transform="translate(216.36616,209.50265) scale(0.13917,0.13917)" font-size="40" xml:space="preserve" fill="#000000" fill-rule="nonzero" stroke="none" stroke-width="1" stroke-linejoin="miter" font-family="Sans Serif" font-weight="normal" text-anchor="start"><tspan x="0" dy="0">"I'll be on in a bit"</tspan></text></g></g></svg>