<svg viewBox="0,0,55.98613,56.92848" height="56.92848" width="55.98613" xmlns:xlink="http://www.w3.org/1999/xlink" xmlns="http://www.w3.org/2000/svg" version="1.1"><g transform="translate(-212.33305,-151.26842)"><g style="mix-blend-mode: normal" stroke-dashoffset="0" stroke-dasharray="" stroke-miterlimit="10" stroke-linejoin="miter" fill-rule="nonzero" data-paper-data="{&quot;isPaintingLayer&quot;:true}"><path stroke-linecap="butt" stroke-width="3.5" stroke="#909090" fill="#bebebe" d="M214.08305,180.00001c0,-14.31354 11.60342,-25.91695 25.91695,-25.91695c14.31354,0 25.91695,11.60342 25.91695,25.91695c0,14.31354 -11.60342,25.91695 -25.91695,25.91695c-14.31354,0 -25.91695,-11.60342 -25.91695,-25.91695z"></path><path stroke-linecap="round" stroke-width="3.5" stroke="#909090" fill="none" d="M265.89837,180.88176h-20.8894"></path><path stroke-linecap="round" stroke-width="3.5" stroke="#909090" fill="none" d="M255.73596,172.1308c0,0 1.41145,5.43433 1.41145,9.59783c0,4.21055 -1.69374,7.9041 -1.69374,7.9041"></path><path stroke-linecap="round" stroke-width="1.5" stroke="#940000" fill="none" d="M241.28374,163.08385l12.29153,6.43842"></path><path stroke-linecap="butt" stroke-width="3.5" stroke="#4f4f4f" fill="#5b5b5b" d="M266.56918,179.94081c0,11.44334 -8.97516,21.30533 -11.23797,21.30533c-2.26281,0 0.93649,-9.39373 0.93649,-20.83707c0,-11.44334 -2.02868,-20.83707 0.23413,-20.83707c2.26281,0 10.06735,8.92548 10.06735,20.36882z"></path><path stroke-linecap="butt" stroke-width="3.5" stroke="#363636" fill="#ffad00" d="M242.70213,169.53999c0,-3.36602 2.7287,-6.09472 6.09472,-6.09472c3.36602,0 6.09472,2.7287 6.09472,6.09472c0,3.36602 -9.89805,9.6731 -11.36212,8.20903c-1.46407,-1.46407 -0.82732,-6.76859 -0.82732,-8.20903z"></path><path stroke-linecap="butt" stroke-width="3.5" stroke="#363636" fill="#ffad00" data-paper-data="{&quot;index&quot;:null}" d="M243.11193,180.34365c1.46407,-1.46407 11.36211,4.84302 11.36211,8.20904c0,3.36602 -2.7287,6.09472 -6.09472,6.09472c-3.36602,0 -6.09472,-2.7287 -6.09472,-6.09472c0,-1.44044 -0.63674,-6.74497 0.82733,-8.20903z"></path><path stroke-linecap="round" stroke-width="3.5" stroke="#363636" fill="none" d="M242.02494,186.13117l0.1693,20.31574"></path><path stroke-linecap="round" stroke-width="3.5" stroke="#363636" fill="none" data-paper-data="{&quot;index&quot;:null}" d="M241.94601,174.37069l0.1693,-20.31573"></path><path stroke-linecap="butt" stroke-width="3.5" stroke="#636500" fill="#9fa100" d="M226.46911,204.85687c-3.83605,-1.25722 -10.30629,-8.65927 -12.26071,-17.97856c-1.79083,-8.53926 0.65956,-18.93542 2.93049,-22.48292c2.55881,-3.99719 6.89566,-7.94492 9.33021,-9.29123c5.00569,-2.76815 12.04329,-3.695 13.77214,3.0754c0.8036,3.14702 1.20623,12.96488 0.81899,22.71195c-0.36976,9.30725 -1.49064,18.56936 -2.39003,21.09312c0,0 -0.66896,2.37574 -2.04301,2.98058c-2.64994,1.16646 -7.26556,0.83964 -10.15808,-0.10834z"></path></g></g></svg>