<svg version="1.1" xmlns="http://www.w3.org/2000/svg" xmlns:xlink="http://www.w3.org/1999/xlink" width="72.1039" height="93.43041" viewBox="0,0,72.1039,93.43041"><defs><linearGradient x1="240" y1="138.03086" x2="240" y2="221.96914" gradientUnits="userSpaceOnUse" id="color-1"><stop offset="0" stop-color="#e2a820"/><stop offset="1" stop-color="#cc741d"/></linearGradient><linearGradient x1="240" y1="169.94463" x2="240" y2="221.96914" gradientUnits="userSpaceOnUse" id="color-2"><stop offset="0" stop-color="#cc741d" stop-opacity="0"/><stop offset="1" stop-color="#cc741d"/></linearGradient><linearGradient x1="240" y1="169.94463" x2="240" y2="221.96914" gradientUnits="userSpaceOnUse" id="color-3"><stop offset="0" stop-color="#cc741d" stop-opacity="0"/><stop offset="1" stop-color="#cc741d"/></linearGradient><linearGradient x1="240" y1="169.94463" x2="240" y2="221.96914" gradientUnits="userSpaceOnUse" id="color-4"><stop offset="0" stop-color="#cc741d" stop-opacity="0"/><stop offset="1" stop-color="#cc741d"/></linearGradient><linearGradient x1="240" y1="168.65847" x2="240" y2="220.68298" gradientUnits="userSpaceOnUse" id="color-5"><stop offset="0" stop-color="#cc741d" stop-opacity="0"/><stop offset="1" stop-color="#cc741d"/></linearGradient></defs><g transform="translate(-203.94805,-133.28478)"><g stroke-miterlimit="10"><path d="M213.01943,221.96914c-1.65685,0 -3,-1.34315 -3,-3v-77.93828c0,-1.65685 1.34315,-3 3,-3h53.96114c1.65685,0 3,1.34315 3,3v77.93828c0,1.65685 -1.34315,3 -3,3z" fill="#9763ff" stroke="#000000" stroke-width="4"/><path d="M213.01943,221.96914c-1.65685,0 -3,-1.34315 -3,-3v-77.93828c0,-1.65685 1.34315,-3 3,-3h53.96114c1.65685,0 3,1.34315 3,3v77.93828c0,1.65685 -1.34315,3 -3,3z" fill="url(#color-1)" stroke="#000000" stroke-width="0"/><g stroke="#000000" stroke-width="2.5"><path d="M220.34221,193.22805l-2.31731,-25.65204l10.68835,-0.96554l2.3173,25.65204z" fill="#afafaf"/><path d="M256.30697,207.50465c0.67545,7.47716 -2.1485,6.53723 -5.29678,6.82164c-3.14827,0.2844 -5.42867,1.68544 -6.10413,-5.79172c-0.35148,-3.89082 -1.8318,-9.95866 -0.94838,-12.52816c0.81429,-2.36841 3.86269,-1.97649 5.37273,-2.11291c1.55733,-0.14068 4.21243,-1.25457 5.45845,1.05651c1.27293,2.36097 1.17678,8.77614 1.51811,12.55465z" fill="#afafaf"/><path d="M240.99442,209.26137c0.67545,7.47716 -2.14851,6.53724 -5.29678,6.82164c-3.14827,0.2844 -5.42867,1.68544 -6.10413,-5.79172c-0.35148,-3.89082 -1.83181,-9.95866 -0.94839,-12.52816c0.81429,-2.36841 3.86271,-1.97649 5.37274,-2.11291c1.55733,-0.14068 4.21242,-1.25457 5.45844,1.05651c1.27293,2.36097 1.17678,8.77615 1.51811,12.55465z" fill="#afafaf"/><path d="M256.58907,180.95743c1.61672,17.89674 -6.07282,15.96853 -14.82897,16.75953c-8.75613,0.791 -15.26309,4.00165 -16.87981,-13.89508c-1.61672,-17.89674 4.17092,-33.04612 12.92706,-33.83712c8.75614,-0.791 17.165,13.07595 18.78172,30.97267z" fill="#afafaf"/><path d="M238.49145,171.47411l-0.74025,-8.1944l14.60741,-1.31958l0.74025,8.1944z" fill="#ffffff"/></g><path d="M212.51943,221.96914c-1.38071,0 -2.5,-1.11929 -2.5,-2.5v-47.02451c0,-1.38071 1.11929,-2.5 2.5,-2.5h54.96114c1.38071,0 2.5,1.11929 2.5,2.5v47.02451c0,1.38071 -1.11929,2.5 -2.5,2.5z" fill="url(#color-2)" stroke="none" stroke-width="0"/><path d="M212.51943,221.96914c-1.38071,0 -2.5,-1.11929 -2.5,-2.5v-47.02451c0,-1.38071 1.11929,-2.5 2.5,-2.5h54.96114c1.38071,0 2.5,1.11929 2.5,2.5v47.02451c0,1.38071 -1.11929,2.5 -2.5,2.5z" fill="url(#color-3)" stroke="none" stroke-width="0"/><path d="M212.51943,221.96914c-1.38071,0 -2.5,-1.11929 -2.5,-2.5v-47.02451c0,-1.38071 1.11929,-2.5 2.5,-2.5h54.96114c1.38071,0 2.5,1.11929 2.5,2.5v47.02451c0,1.38071 -1.11929,2.5 -2.5,2.5z" fill="url(#color-4)" stroke="none" stroke-width="0"/><g stroke="none"><path d="M212.51943,220.68298c-1.38071,0 -2.5,-1.11929 -2.5,-2.5v-47.02451c0,-1.38071 1.11929,-2.5 2.5,-2.5h54.96114c1.38071,0 2.5,1.11929 2.5,2.5v47.02451c0,1.38071 -1.11929,2.5 -2.5,2.5z" fill="url(#color-5)" stroke-width="0"/><path d="M242.84149,222.29773l27.3738,-34.37208v4.78895l-23.5599,29.58313zM252.69006,222.29773l17.52524,-22.00568v4.78895l-13.71134,17.21672zM261.74237,222.29773l8.47293,-10.63908v4.78895l-4.65902,5.85014zM209.7847,148.40736l8.5255,-10.70509h3.8139l-12.3394,15.49405zM209.7847,160.77377l18.37406,-23.0715h3.81391l-22.18797,27.86046z" fill="#000000" stroke-width="NaN"/></g><path d="M214.07078,221.72212l0.26613,-1.63154l-1.12736,-1.15546l1.55798,-0.23804l0.69675,-1.48442l0.69675,1.48442l1.55798,0.23804l-1.12736,1.15546l0.26613,1.63154l-1.3935,-0.77031z" fill="#000000" stroke="none" stroke-width="0"/><path d="M219.24056,221.72212l0.26613,-1.63154l-1.12736,-1.15546l1.55798,-0.23804l0.69675,-1.48442l0.69675,1.48442l1.55798,0.23804l-1.12737,1.15546l0.26614,1.63154l-1.3935,-0.77031z" fill="#000000" stroke="none" stroke-width="0"/><path d="M224.45301,221.72212l0.26613,-1.63154l-1.12736,-1.15546l1.55798,-0.23804l0.69675,-1.48442l0.69675,1.48442l1.55798,0.23804l-1.12737,1.15546l0.26614,1.63154l-1.3935,-0.77031z" fill="#000000" stroke="none" stroke-width="0"/><path d="M229.65681,221.76306l0.26613,-1.63154l-1.12736,-1.15546l1.55798,-0.23804l0.69675,-1.48442l0.69675,1.48442l1.55798,0.23804l-1.12737,1.15546l0.26614,1.63154l-1.3935,-0.77031z" fill="#000000" stroke="none" stroke-width="0"/><text transform="translate(240.71404,141.71091) scale(0.09461,0.09461)" font-size="40" xml:space="preserve" fill="#000000" stroke="none" stroke-width="1" font-family="Sans Serif" font-weight="normal" text-anchor="start"><tspan x="0" dy="0">Core Collection</tspan></text><text transform="translate(234.28388,221.37117) scale(0.0984,0.0984)" font-size="40" xml:space="preserve" fill="#000000" stroke="none" stroke-width="1" font-family="Sans Serif" font-weight="normal" text-anchor="start"><tspan x="0" dy="0">23/27</tspan></text><text transform="translate(212.85224,204.58414) rotate(-8.43984) scale(0.28335,0.28335)" font-size="40" xml:space="preserve" fill="#481500" stroke="none" stroke-width="1" font-family="Marker" font-weight="normal" text-anchor="start"><tspan x="0" dy="0">Imposter</tspan></text><path d="M203.94805,226.7152v-93.43041h72.1039v93.43041z" fill="none" stroke="none" stroke-width="0"/></g></g></svg>