<svg height="577" width="433" viewBox="0 0 433 577" xmlns="http://www.w3.org/2000/svg">
<path stroke-linejoin="round" stroke-width="0.25" stroke="#996f59" fill-rule="evenodd" fill="#996f59" d="M298.13 126.13C297.64 126.17 297.15 126.21 296.66 126.25C295.02 124.98 293.39 123.7 291.75 122.43C291.58 123.34 291.42 124.25 291.25 125.16C289.21 125.02 287.16 124.89 285.12 124.75C281.16 122.21 277.21 119.66 273.25 117.12C273.92 119.53 274.58 121.94 275.25 124.35C274.42 124.18 273.58 124.01 272.75 123.83C272.58 124.82 272.42 125.8 272.25 126.78C268.4 126.4 265.11 122.27 263.25 119.32C257.27 117.25 249.92 107.79 243.25 114.02C241.42 113.63 239.58 113.24 237.75 112.85C233.92 109.96 230.08 107.07 226.25 104.17C226.25 107.6 226.25 111.02 226.25 114.44C218.32 108.93 215.96 102.99 211.22 93.75C213.9 95.33 216.57 96.9 219.25 98.48C219.17 96.57 219.08 94.66 219 92.75C219.92 91.84 220.83 90.93 221.75 90.02C223.25 89.4 224.75 88.78 226.25 88.16C227.42 89.41 228.58 90.66 229.75 91.92C231.42 91.51 233.08 91.11 234.75 90.71C234.25 80.69 219.74 86.58 216.25 81.75C218.7 81.42 221.16 81.08 223.61 80.75C222.97 76.93 217.05 76.26 213.75 75.65C213.58 74.68 213.42 73.71 213.25 72.74C214.25 72.12 215.25 71.5 216.25 70.88C217.08 71.26 217.92 71.63 218.75 72C220.89 71.75 223.03 71.5 225.17 71.25C224.53 69.37 223.89 67.49 223.25 65.62C211.78 65.86 201.42 72.08 190.25 73.62C187.42 74.02 185.12 71.96 182.37 73.08C178.21 74.78 176.48 78.71 173.25 81.18C172.58 81.08 171.92 80.97 171.25 80.86C169.58 84.74 167.92 88.62 166.25 92.5C161.56 95.84 158.57 96.21 155.25 91.81C153.64 93.12 152.03 94.44 150.42 95.75C146.9 95.28 143.81 94.49 143.93 99.25C140.37 99.96 136.81 100.67 133.25 101.38C132.71 103.83 132.18 106.29 131.64 108.75C130.74 111.75 129.83 114.75 128.93 117.75C129.2 119.22 129.48 120.69 129.75 122.16C127.28 118.67 126.11 121.04 122.41 122.25C121.27 124.25 120.14 126.25 119 128.25C117.42 128.78 115.83 129.32 114.25 129.85C112.67 132.32 111.08 134.78 109.5 137.25C107.75 140.67 106 144.08 104.25 147.5C101.37 150.14 98.49 152.79 95.6 155.43C95.41 155.71 95.21 155.98 95.01 156.25C95.14 156.33 95.27 156.42 95.4 156.5C94.77 157.42 94.15 158.33 93.52 159.25C92.43 161.67 91.34 164.08 90.25 166.5C88.83 169.25 87.42 172 86 174.75C85.25 177.67 84.5 180.58 83.75 183.5C83.44 184.17 83.14 184.83 82.83 185.5C82.86 185.67 82.9 185.83 82.93 186C82.92 187.42 82.91 188.83 82.91 190.25C82.65 190.33 82.4 190.42 82.14 190.5C80.52 177.17 87.56 165.33 89.3 152.75C90.95 149.95 92.6 147.15 94.25 144.35C96.28 142.73 98.32 141.12 100.35 139.5C100.4 139.33 100.45 139.17 100.5 139C100.67 138.95 100.83 138.89 101 138.84C103.92 133.4 106.83 127.95 109.75 122.51C111.21 121.76 112.68 121 114.14 120.25C114.25 119.17 114.36 118.08 114.47 117C114.73 117.33 114.99 117.67 115.25 118C115.67 117.75 116.08 117.5 116.5 117.25C116.27 116.32 116.05 115.4 115.82 114.47C116.3 112.4 116.78 110.32 117.25 108.25C117.43 108.1 117.61 107.95 117.78 107.8C118.02 107.95 118.26 108.1 118.5 108.25C120 106.29 121.5 104.33 123 102.38C123.16 102.24 123.32 102.1 123.48 101.96C125.24 100.97 126.99 99.99 128.75 99C133.25 97.83 137.75 96.67 142.25 95.5C142.58 95.12 142.9 94.75 143.23 94.37C144.08 93.83 144.92 93.29 145.76 92.75C146.42 91.57 147.09 90.4 147.75 89.22C150.33 88.9 152.92 88.58 155.5 88.27C155.67 88.22 155.83 88.18 156 88.13C156.5 88.14 157 88.14 157.5 88.14C157.92 88.26 158.33 88.38 158.75 88.5C158.83 88.38 158.92 88.26 159 88.14C160.25 88.08 161.5 88.01 162.75 87.95C163.18 87.22 163.62 86.48 164.05 85.75C165.43 84.5 166.82 83.25 168.2 82C168.3 81.86 168.4 81.71 168.5 81.57C168.45 81.46 168.4 81.36 168.35 81.25C168.82 80.83 169.28 80.42 169.75 80C170.68 79.13 171.6 78.27 172.53 77.4C172.66 77.28 172.79 77.16 172.91 77.04C173.44 76.78 173.97 76.51 174.5 76.25C174.75 76 175 75.75 175.25 75.5C175.29 75.33 175.32 75.17 175.36 75C175.74 74.75 176.12 74.5 176.5 74.25C176.33 74.14 176.15 74.04 175.98 73.93C176.16 73.74 176.34 73.56 176.52 73.37C176.68 73.33 176.84 73.29 177 73.24C177.58 73.16 178.17 73.08 178.75 73C178.83 72.83 178.91 72.67 178.99 72.5C179.16 72.13 179.33 71.76 179.5 71.4C180.17 71.35 180.83 71.3 181.5 71.25C182.08 71.17 182.67 71.08 183.25 71C183.43 70.73 183.61 70.47 183.78 70.2C184.02 70.22 184.26 70.23 184.5 70.25C184.83 69.91 185.17 69.57 185.5 69.23C192.29 68.25 199.09 67.27 205.88 66.29C206.09 66.27 206.29 66.25 206.5 66.23C214.92 65.57 223.35 64.91 231.77 64.25C231.24 65.42 230.7 66.58 230.17 67.75C230.7 69.04 231.22 70.34 231.75 71.63C232.92 71.93 234.08 72.23 235.25 72.53C235.52 73.44 235.79 74.34 236.07 75.25C238.09 76.42 240.11 77.58 242.13 78.75C241.38 79.25 240.62 79.75 239.87 80.25C240.04 83.91 242.06 83.44 244.35 85.4C258.41 97.44 259.49 86.59 267.75 89.17C267.58 90.06 267.42 90.96 267.25 91.85C269 91.82 270.75 91.78 272.5 91.75C275.6 98.35 299.06 100.76 303.06 111.25C302.12 112.36 301.19 113.47 300.25 114.58C300.92 114.72 301.58 114.86 302.25 115C304.08 116.45 305.92 117.9 307.75 119.35C309.25 121.39 310.75 123.43 312.25 125.47C309.42 124.88 306.58 124.29 303.75 123.71C302.75 124.14 301.75 124.57 300.75 125C299.48 124.42 298.2 123.83 296.93 123.25C297.33 124.21 297.73 125.17 298.13 126.13ZM175.4 74.42C175.38 74.61 175.37 74.81 175.36 75C175.37 74.81 175.38 74.61 175.4 74.42ZM143 94.45C142.82 94.59 142.64 94.74 142.46 94.88C142.64 94.74 142.82 94.59 143 94.45ZM135.5 94.87C135.42 95.11 135.33 95.36 135.25 95.61C134.67 95.49 134.08 95.38 133.5 95.27C133.58 95.11 133.67 94.95 133.75 94.79C134.33 94.82 134.92 94.84 135.5 94.87ZM131.3 96.28C131.14 96.52 130.97 96.76 130.8 97C130.97 96.76 131.14 96.52 131.3 96.28ZM128.5 98.04C128.36 98.19 128.22 98.35 128.08 98.5C128.22 98.35 128.36 98.19 128.5 98.04ZM298.82 127C299.27 127.42 299.72 127.83 300.17 128.25C300.16 128.46 300.14 128.67 300.13 128.87C299.56 128.6 299 128.33 298.43 128.05C298.56 127.7 298.69 127.35 298.82 127ZM300.13 128.87C300.25 128.99 300.38 129.1 300.5 129.21C300.38 129.1 300.25 128.99 300.13 128.87ZM303.09 132.22C302.57 131.82 302.05 131.42 301.52 131.02C301.27 130.45 301.02 129.87 300.77 129.3C300.93 129.26 301.09 129.22 301.25 129.18C301.86 130.19 302.48 131.2 303.09 132.22ZM301.52 131.02C301.43 131.35 301.34 131.67 301.25 132C301.34 131.67 301.43 131.35 301.52 131.02ZM302.25 132.5C302.33 132.58 302.42 132.67 302.5 132.75C302.42 132.83 302.33 132.92 302.25 133C302.17 132.92 302.08 132.83 302 132.75C302.08 132.67 302.17 132.58 302.25 132.5ZM303.14 132.32C304.01 132.88 304.88 133.44 305.75 134C306.33 135.16 306.92 136.32 307.5 137.47C307.15 137.5 306.81 137.53 306.46 137.56C305.31 136.12 304.17 134.69 303.02 133.25C303.06 132.94 303.1 132.63 303.14 132.32ZM306.46 137.56C306.31 137.62 306.15 137.69 306 137.75C306.15 137.69 306.31 137.62 306.46 137.56ZM307.25 138.5C307.33 138.58 307.42 138.67 307.5 138.75C307.42 138.62 307.33 138.48 307.25 138.35C307.36 138.48 307.47 138.62 307.57 138.75C307.47 138.67 307.36 138.58 307.25 138.5ZM308.71 139.28C309 139.52 309.29 139.76 309.57 140C309.4 140.15 309.23 140.3 309.06 140.45C308.89 140.45 308.72 140.45 308.56 140.45C308.61 140.06 308.66 139.67 308.71 139.28ZM308.56 140.45C308.37 140.55 308.19 140.65 308 140.75C308.19 140.65 308.37 140.55 308.56 140.45ZM309.06 140.45C309.23 140.46 309.41 140.48 309.59 140.5C309.56 140.61 309.53 140.73 309.5 140.84C309.35 140.71 309.21 140.58 309.06 140.45ZM309.25 141.5C309.33 141.58 309.42 141.67 309.5 141.75C309.42 141.83 309.33 141.92 309.25 142C309.17 141.92 309.08 141.83 309 141.75C309.08 141.67 309.17 141.58 309.25 141.5ZM310.25 142.5C310.33 142.58 310.42 142.67 310.5 142.75C310.42 142.83 310.33 142.92 310.25 143C310.17 142.92 310.08 142.83 310 142.75C310.08 142.67 310.17 142.58 310.25 142.5ZM311.75 143.5C311.92 143.5 312.08 143.5 312.25 143.5C312.33 143.58 312.42 143.67 312.5 143.75C312.42 143.64 312.33 143.54 312.25 143.43C312.08 143.62 311.92 143.81 311.75 144C311.67 143.92 311.58 143.83 311.5 143.75C311.58 143.67 311.67 143.58 311.75 143.5ZM313.25 144.5C313.33 144.58 313.42 144.67 313.5 144.75C313.42 144.83 313.33 144.92 313.25 145C313.17 144.92 313.08 144.83 313 144.75C313.08 144.67 313.17 144.58 313.25 144.5ZM314.6 144.88C314.49 145.42 314.37 145.96 314.25 146.5C314.37 145.96 314.49 145.42 314.6 144.88ZM315.25 146.5C315.42 146.83 315.58 147.17 315.75 147.5C315.5 147.58 315.25 147.67 315 147.75C315.08 147.33 315.17 146.92 315.25 146.5ZM317.5 148.53C317.97 148.6 318.44 148.68 318.91 148.75C318.79 149.03 318.68 149.32 318.57 149.6C318.21 149.24 317.86 148.89 317.5 148.53ZM317.25 149.5C317.33 149.58 317.42 149.67 317.5 149.75C317.42 149.62 317.33 149.48 317.25 149.35C317.17 149.48 317.08 149.62 317 149.75C317.08 149.67 317.17 149.58 317.25 149.5ZM318.57 149.6C318.74 149.78 318.91 149.97 319.09 150.15C318.91 149.97 318.74 149.78 318.57 149.6ZM95.72 156C95.61 156.17 95.51 156.33 95.4 156.5C95.51 156.33 95.61 156.17 95.72 156ZM324.69 275C323.03 282.18 321.36 289.36 319.7 296.55C317.81 296.61 315.92 296.68 314.03 296.75C310.54 288.72 314.15 251.31 305.25 246.89C296.44 251.7 303.07 266.15 302.52 273.75C302.24 277.52 298.59 281.02 297.75 285.64C296.11 284.84 294.47 284.05 292.84 283.25C287.54 282.31 284.56 287.28 283.63 291.75C277.99 293.65 272.89 293.57 269.75 298.19C265.77 298.21 261.79 298.23 257.81 298.25C256.32 302.19 263.03 314.6 264.75 319.04C276.75 320.31 288.75 321.58 300.75 322.85C303.82 333.49 305.17 348.7 304.8 359.74C304.73 361.95 301.57 371.44 303.63 372.08C303.42 372.31 303.21 372.53 303 372.75C302.32 375.42 301.64 378.08 300.97 380.75C300.63 380.83 300.3 380.92 299.97 381C300.46 375.93 303.48 364.11 295.75 362.33C288.3 367.77 291.98 380.74 277.25 379.56C274.14 375.36 275.48 369.28 271.82 365.41C258.85 351.7 247.88 373 232.96 369.75C232.31 366.75 231.66 363.75 231.01 360.75C234.62 356.25 236.98 359.44 237.59 352.25C238.64 351.71 239.7 351.17 240.75 350.63C247.89 322.35 231.11 328.92 212.25 328.93C206.19 328.94 200.25 326.24 194.26 327.07C189.58 327.72 186.78 332.87 181.75 331.73C178.37 326.38 189.65 313.53 183.25 312.34C180.92 316.8 178.58 321.27 176.25 325.73C172.08 326.9 167.9 328.08 163.73 329.25C164.66 330.25 165.59 331.25 166.52 332.25C155.75 339.57 152.13 333.86 141.25 335.94C123.07 327.15 134.97 370.68 137.25 377.53C138.2 380.38 142.17 386.75 140.46 389.17C138.39 384.45 136.32 379.72 134.25 375C130.52 373.61 130.03 363.36 128.78 359.91C125.5 350.88 125.88 340.9 122.98 331.77C120.15 322.83 113.1 320.28 114.25 308C113.18 306.67 112.11 305.33 111.04 304C111.98 304.25 112.93 304.5 113.87 304.75C116.53 302.3 114.27 289.65 114.28 285.75C114.31 274.85 115.14 237.78 123.25 230.65C124.09 231.35 124.92 232.05 125.76 232.75C124.7 235.98 126.42 238.48 125.76 241.57C124.89 245.62 120.07 251.81 121.26 256.03C122.25 259.53 126.74 260.42 128.5 263.25C126.07 270.51 122.04 276.89 127.25 284.6C130.59 284.72 135.29 283.23 138.46 284.78C140.17 285.62 139.94 287.5 140.94 288.81C144.06 292.91 152.14 294.15 156.84 294.8C169.32 296.52 179.8 289.3 189.47 283.24C191.97 281.68 195.51 282.28 197.37 279.63C200.52 275.15 198.21 268.73 200.05 263.78C201.02 261.16 203.6 259.69 203.93 256.75C204.65 250.26 202.17 243.49 195.98 240.29C189.71 237.05 179.27 238.68 172.25 237.63C160.43 235.85 150.61 230.16 138.75 229.59C137.75 230.31 136.75 231.04 135.75 231.76C137.25 230.33 138.75 228.89 140.25 227.46C141.33 226.06 142.41 224.65 143.49 223.25C143.24 222.17 143 221.08 142.75 220C147.53 221.27 145.85 218.2 149.44 216.73C153.24 215.17 156.69 216.61 157.76 211.07C158.36 207.94 155.03 205.59 156.21 202.42C158.18 197.09 164 195.27 164.98 189.75C164.43 189.08 163.88 188.42 163.33 187.75C166.93 181.52 174.36 189.73 178.25 189.91C182.34 190.09 186.33 187.75 190.25 188.14C193.08 191.76 195.92 195.38 198.75 199C208.34 199.52 213.24 202.54 222.48 204.75C223.98 208.37 234.59 223.49 236.94 225.8C238.76 227.59 241.78 227.18 243.24 229.25C239.91 232.08 236.58 234.9 233.25 237.73C224.17 238.99 213.76 244.19 217.27 255.98C218.15 258.94 220.88 260.57 221.54 263.75C222.57 268.62 221.69 276.33 225.48 280.28C227.18 282.05 241.36 285.93 245.25 288.67C249.09 288.59 271.62 287.63 273.61 286.82C277.56 285.2 281.35 279.02 285.2 276.45C289.45 273.61 295.89 270.27 296.83 264.75C294.74 260.64 289.27 262.1 286.1 259.16C283.45 256.69 284.87 253.17 282.12 250.75C286.56 247.45 293.02 252.24 297.69 249.47C301.86 247 298.68 239.54 302.25 238.15C302.75 239.35 303.25 240.56 303.75 241.76C304.67 241.92 305.6 242.09 306.52 242.25C310.41 254.04 312.72 267.42 314.1 279.75C314.62 284.43 313.01 290.72 314.75 294.98C320.4 294.01 318.51 287.24 319.25 283.23C320.16 282.57 321.07 281.91 321.98 281.25C322.88 279.17 323.79 277.08 324.69 275ZM232.75 321.88C233.56 315.57 225.65 305.91 223.12 300.16C220.27 293.72 220.52 283.21 217.35 275.39C215.6 271.11 216.71 262.53 209.36 263.23C202.85 263.85 202.96 273.92 203.01 278.75C203.04 282.1 201.13 283.57 200.92 286.25C200.58 290.68 203.52 294.69 203.39 298.75C203.32 301.09 201.29 301.67 200.83 303.7C200.06 307.02 201.57 320.48 203.43 323.25C209.96 325.22 227.31 326.93 232.75 321.88ZM292.79 338.25C285.27 338.65 277.76 339.04 270.25 339.44C269.97 340.32 269.68 341.2 269.4 342.08C267.97 342.08 266.53 342.08 265.1 342.08C261.2 347.36 270.35 361.09 276.77 361.36C280.14 361.51 284.81 356.53 288.75 356.04C289.58 356.48 290.42 356.91 291.25 357.35C296.3 353.27 293.18 343.33 292.79 338.25ZM259.75 413.44C260.76 417.51 259.4 420.18 257.09 423.35C249.36 433.94 236.31 428.62 225.75 427.94C221.8 427.68 210.92 432.1 210.03 427.75C210.03 426 210.03 424.25 210.03 422.5C209.1 423.76 208.18 425.03 207.25 426.29C203.78 424.84 205.26 421.47 207.63 419.75C209.23 408.83 233.13 412.08 241.75 411.95C244.09 411.91 245.82 409.76 248.25 409.91C251.48 410.12 256.66 412.46 259.75 413.44Z"></path>
<path stroke-linejoin="round" stroke-width="0.25" stroke="#835c49" fill-rule="evenodd" fill="#835c49" d="M206.5 66.23C206.29 66.25 206.09 66.27 205.88 66.29C206.09 66.27 206.29 66.25 206.5 66.23ZM185.5 69.23C185.17 69.57 184.83 69.91 184.5 70.25C184.26 70.23 184.02 70.22 183.78 70.2C184.27 69.82 184.76 69.45 185.25 69.07C185.33 69.12 185.42 69.18 185.5 69.23ZM179.5 71.4C179.33 71.76 179.16 72.13 178.99 72.5C179.16 72.13 179.33 71.76 179.5 71.4ZM177 73.24C176.84 73.29 176.68 73.33 176.52 73.37C176.68 73.33 176.84 73.29 177 73.24ZM175.98 73.93C176.15 74.04 176.33 74.14 176.5 74.25C176.12 74.5 175.74 74.75 175.36 75C175.37 74.81 175.38 74.61 175.4 74.42C175.59 74.26 175.79 74.09 175.98 73.93ZM172.91 77.04C172.79 77.16 172.66 77.28 172.53 77.4C172.66 77.28 172.79 77.16 172.91 77.04ZM168.5 81.57C168.4 81.71 168.3 81.86 168.2 82C168.3 81.86 168.4 81.71 168.5 81.57ZM156 88.13C155.83 88.18 155.67 88.22 155.5 88.27C155.67 88.22 155.83 88.18 156 88.13ZM157.5 88.14C158 88.14 158.5 88.14 159 88.14C158.92 88.26 158.83 88.38 158.75 88.5C158.33 88.38 157.92 88.26 157.5 88.14ZM143 94.45C143.08 94.42 143.15 94.4 143.23 94.37C142.9 94.75 142.58 95.12 142.25 95.5C137.75 96.67 133.25 97.83 128.75 99C126.99 99.99 125.24 100.97 123.48 101.96C124.66 101.39 125.83 100.82 127 100.25C127.36 99.67 127.72 99.08 128.08 98.5C128.22 98.35 128.36 98.19 128.5 98.04C129.25 97.65 130 97.26 130.75 96.87C130.77 96.91 130.79 96.96 130.8 97C130.97 96.76 131.14 96.52 131.3 96.28C131.78 95.85 132.27 95.42 132.75 94.98C133 95.08 133.25 95.17 133.5 95.27C134.08 95.38 134.67 95.49 135.25 95.61C135.33 95.36 135.42 95.11 135.5 94.87C137.82 94.87 140.14 94.88 142.46 94.88C142.64 94.74 142.82 94.59 143 94.45ZM123.48 101.96C123.32 102.1 123.16 102.24 123 102.38C123.16 102.24 123.32 102.1 123.48 101.96ZM123 102.38C121.5 104.33 120 106.29 118.5 108.25C118.26 108.1 118.02 107.95 117.78 107.8C119.52 105.99 121.26 104.18 123 102.38ZM115.82 114.47C116.05 115.4 116.27 116.32 116.5 117.25C116.08 117.5 115.67 117.75 115.25 118C114.99 117.67 114.73 117.33 114.47 117C114.92 116.16 115.37 115.31 115.82 114.47ZM298.43 128.05C299 128.33 299.56 128.6 300.13 128.87C300.25 128.99 300.38 129.1 300.5 129.21C300.59 129.24 300.68 129.27 300.77 129.3C301.02 129.87 301.27 130.45 301.52 131.02C301.43 131.35 301.34 131.67 301.25 132C301.34 131.67 301.43 131.35 301.52 131.02C302.05 131.42 302.57 131.82 303.09 132.22C303.11 132.25 303.12 132.29 303.14 132.32C303.1 132.63 303.06 132.94 303.02 133.25C304.17 134.69 305.31 136.12 306.46 137.56C306.31 137.62 306.15 137.69 306 137.75C306.15 137.69 306.31 137.62 306.46 137.56C306.81 137.53 307.15 137.5 307.5 137.47C307.9 138.08 308.31 138.68 308.71 139.28C308.66 139.67 308.61 140.06 308.56 140.45C308.37 140.55 308.19 140.65 308 140.75C308.19 140.65 308.37 140.55 308.56 140.45C308.72 140.45 308.89 140.45 309.06 140.45C309.21 140.58 309.35 140.71 309.5 140.84C311.2 142.19 312.9 143.53 314.6 144.88C314.49 145.42 314.37 145.96 314.25 146.5C314.37 145.96 314.49 145.42 314.6 144.88C315.57 146.1 316.53 147.31 317.5 148.53C317.86 148.89 318.21 149.24 318.57 149.6C318.74 149.78 318.91 149.97 319.09 150.15C319.72 151.35 320.36 152.55 321 153.75C320.25 154.51 319.5 155.27 318.75 156.03C317.67 154.93 316.58 153.84 315.5 152.75C313.83 151.58 312.17 150.42 310.5 149.25C309.84 147.75 309.17 146.25 308.5 144.75C307.75 144.72 307 144.68 306.25 144.65C303.98 140.35 301.7 136.05 299.43 131.75C299.1 130.52 298.76 129.29 298.43 128.05ZM302.25 132.5C302.17 132.58 302.08 132.67 302 132.75C302.08 132.83 302.17 132.92 302.25 133C302.33 132.92 302.42 132.83 302.5 132.75C302.42 132.67 302.33 132.58 302.25 132.5ZM101 138.84C100.83 138.89 100.67 138.95 100.5 139C100.67 138.95 100.83 138.89 101 138.84ZM307.25 138.5C307.36 138.58 307.47 138.67 307.57 138.75C307.47 138.62 307.36 138.48 307.25 138.35C307.33 138.48 307.42 138.62 307.5 138.75C307.42 138.67 307.33 138.58 307.25 138.5ZM100.5 139C100.45 139.17 100.4 139.33 100.35 139.5C100.4 139.33 100.45 139.17 100.5 139ZM309.57 140C309.58 140.17 309.58 140.33 309.59 140.5C309.41 140.48 309.23 140.46 309.06 140.45C309.23 140.3 309.4 140.15 309.57 140ZM309.25 141.5C309.17 141.58 309.08 141.67 309 141.75C309.08 141.83 309.17 141.92 309.25 142C309.33 141.92 309.42 141.83 309.5 141.75C309.42 141.67 309.33 141.58 309.25 141.5ZM310.25 142.5C310.17 142.58 310.08 142.67 310 142.75C310.08 142.83 310.17 142.92 310.25 143C310.33 142.92 310.42 142.83 310.5 142.75C310.42 142.67 310.33 142.58 310.25 142.5ZM311.75 143.5C311.67 143.58 311.58 143.67 311.5 143.75C311.58 143.83 311.67 143.92 311.75 144C311.92 143.81 312.08 143.62 312.25 143.43C312.33 143.54 312.42 143.64 312.5 143.75C312.42 143.67 312.33 143.58 312.25 143.5C312.08 143.5 311.92 143.5 311.75 143.5ZM313.25 144.5C313.17 144.58 313.08 144.67 313 144.75C313.08 144.83 313.17 144.92 313.25 145C313.33 144.92 313.42 144.83 313.5 144.75C313.42 144.67 313.33 144.58 313.25 144.5ZM315.25 146.5C315.17 146.92 315.08 147.33 315 147.75C315.25 147.67 315.5 147.58 315.75 147.5C315.58 147.17 315.42 146.83 315.25 146.5ZM317.25 149.5C317.17 149.58 317.08 149.67 317 149.75C317.08 149.62 317.17 149.48 317.25 149.35C317.33 149.48 317.42 149.62 317.5 149.75C317.42 149.67 317.33 149.58 317.25 149.5ZM95.6 155.43C95.64 155.62 95.68 155.81 95.72 156C95.61 156.17 95.51 156.33 95.4 156.5C95.27 156.42 95.14 156.33 95.01 156.25C95.21 155.98 95.41 155.71 95.6 155.43ZM330.56 264.52C329.79 265.35 329.02 266.17 328.25 267C327.06 269.67 325.88 272.33 324.69 275C323.79 277.08 322.88 279.17 321.98 281.25C321.07 281.91 320.16 282.57 319.25 283.23C318.51 287.24 320.4 294.01 314.75 294.98C313.01 290.72 314.62 284.43 314.1 279.75C312.72 267.42 310.41 254.04 306.52 242.25C305.6 242.09 304.67 241.92 303.75 241.76C303.25 240.56 302.75 239.35 302.25 238.15C298.68 239.54 301.86 247 297.69 249.47C293.02 252.24 286.56 247.45 282.12 250.75C284.87 253.17 283.45 256.69 286.1 259.16C289.27 262.1 294.74 260.64 296.83 264.75C295.89 270.27 289.45 273.61 285.2 276.45C281.35 279.02 277.56 285.2 273.61 286.82C271.62 287.63 249.09 288.59 245.25 288.67C241.36 285.93 227.18 282.05 225.48 280.28C221.69 276.33 222.57 268.62 221.54 263.75C220.88 260.57 218.15 258.94 217.27 255.98C213.76 244.19 224.17 238.99 233.25 237.73C236.58 234.9 239.91 232.08 243.24 229.25C241.78 227.18 238.76 227.59 236.94 225.8C234.59 223.49 223.98 208.37 222.48 204.75C213.24 202.54 208.34 199.52 198.75 199C195.92 195.38 193.08 191.76 190.25 188.14C186.33 187.75 182.34 190.09 178.25 189.91C174.36 189.73 166.93 181.52 163.33 187.75C163.88 188.42 164.43 189.08 164.98 189.75C164 195.27 158.18 197.09 156.21 202.42C155.03 205.59 158.36 207.94 157.76 211.07C156.69 216.61 153.24 215.17 149.44 216.73C145.85 218.2 147.53 221.27 142.75 220C143 221.08 143.24 222.17 143.49 223.25C142.41 224.65 141.33 226.06 140.25 227.46C138.75 228.89 137.25 230.33 135.75 231.76C136.75 231.04 137.75 230.31 138.75 229.59C150.61 230.16 160.43 235.85 172.25 237.63C179.27 238.68 189.71 237.05 195.98 240.29C202.17 243.49 204.65 250.26 203.93 256.75C203.6 259.69 201.02 261.16 200.05 263.78C198.21 268.73 200.52 275.15 197.37 279.63C195.51 282.28 191.97 281.68 189.47 283.24C179.8 289.3 169.32 296.52 156.84 294.8C152.14 294.15 144.06 292.91 140.94 288.81C139.94 287.5 140.17 285.62 138.46 284.78C135.29 283.23 130.59 284.72 127.25 284.6C122.04 276.89 126.07 270.51 128.5 263.25C126.74 260.42 122.25 259.53 121.26 256.03C120.07 251.81 124.89 245.62 125.76 241.57C126.42 238.48 124.7 235.98 125.76 232.75C124.92 232.05 124.09 231.35 123.25 230.65C115.14 237.78 114.31 274.85 114.28 285.75C114.27 289.65 116.53 302.3 113.87 304.75C112.93 304.5 111.98 304.25 111.04 304C108.38 297.14 110.09 291.72 105.13 286.25C104.75 284.42 104.38 282.58 104 280.75C101.56 275.67 99.13 270.58 96.69 265.5C103.89 269.09 103.29 285.19 110.25 287.06C114.12 285 114.32 275.62 114.35 271.75C114.45 259.08 114.65 244.15 117.57 231.78C119.66 222.97 123.32 209.73 128.53 202.3C130.33 199.73 133.9 199.9 135.48 197.68C138.34 193.65 139.28 189.48 143.19 185.94C145.01 184.29 147.85 184.2 149.51 182.27C150.63 180.96 150.05 179.2 151.17 177.92C157.85 170.32 168.68 173.04 177.25 172.98C183.74 172.93 192.27 171.83 198.55 173.24C205.93 174.89 215.28 178.56 221.97 182.29C224.75 183.85 225.75 186.54 228.75 187.62C231.78 195.94 236.81 206.17 242.58 212.66C246.82 217.44 256.55 220.52 256.88 227.75C257.24 235.91 244.85 233.99 239.6 236.34C236.11 237.91 224.92 248.2 224.26 251.98C223.73 254.98 227.35 255.62 228.68 257.57C230.66 260.48 229.2 264.46 231.27 267.49C232.35 269.08 234.66 269.01 235.67 270.57C239.49 276.48 239.93 275.28 247.25 276.28C251.53 281.86 275.74 281.84 268.63 274.75C273.25 270.32 283.34 274.69 286.99 267.75C285.23 250.7 266.37 257.8 255.54 253.25C256.86 246.7 276.83 243.54 282.25 243.68C286.05 243.78 289.39 245.96 293.25 245.67C300.6 245.12 296.88 235.01 304.25 235.03C309.86 243.81 310.64 274.11 318.75 276.51C325.92 271.75 327.23 260.9 328.25 253.5C329.02 257.17 329.79 260.85 330.56 264.52ZM82.83 185.5C82.86 185.67 82.9 185.83 82.93 186C82.9 185.83 82.86 185.67 82.83 185.5ZM193.63 261.25C204 255.15 191.89 247.13 186.05 244.23C177.71 240.07 145.32 233.77 136.77 235.52C130.16 236.87 121.56 247.2 123.75 254.14C130.76 259.89 158 248.89 166.4 257.25C159.52 264.02 132.43 254.73 134.79 276.25C135.69 276.93 160.32 285.24 161.75 285.17C164.65 285.03 174.04 285.01 172.35 280.75C178.64 277.77 183.58 280.38 188.25 274.53C197.99 273.3 193.62 268.04 193.63 261.25ZM299.97 381C299.02 383.77 298.07 386.53 297.12 389.3C296.66 388.27 296.21 387.23 295.75 386.2C294.92 385.94 294.08 385.68 293.25 385.42C283.75 393.09 275.24 402.45 269.23 412.96C265.66 419.2 261.23 429.98 254.62 433.84C240 442.37 212.68 438.34 196.88 434.79C189 433.02 173.45 418.53 170.24 411.57C167.86 406.42 166.26 400.08 162.83 395.4C160.21 391.83 148.09 389.49 144.25 391.13C144.09 392.25 143.93 393.38 143.77 394.5C143.6 394.62 143.42 394.73 143.25 394.85C142.91 394.32 142.56 393.78 142.22 393.25C142.15 392.58 142.07 391.92 142 391.25C141.49 390.56 140.97 389.86 140.46 389.17C142.17 386.75 138.2 380.38 137.25 377.53C134.97 370.68 123.07 327.15 141.25 335.94C152.13 333.86 155.75 339.57 166.52 332.25C165.59 331.25 164.66 330.25 163.73 329.25C167.9 328.08 172.08 326.9 176.25 325.73C178.58 321.27 180.92 316.8 183.25 312.34C189.65 313.53 178.37 326.38 181.75 331.73C186.78 332.87 189.58 327.72 194.26 327.07C200.25 326.24 206.19 328.94 212.25 328.93C231.11 328.92 247.89 322.35 240.75 350.63C239.7 351.17 238.64 351.71 237.59 352.25C236.98 359.44 234.62 356.25 231.01 360.75C231.66 363.75 232.31 366.75 232.96 369.75C247.88 373 258.85 351.7 271.82 365.41C275.48 369.28 274.14 375.36 277.25 379.56C291.98 380.74 288.3 367.77 295.75 362.33C303.48 364.11 300.46 375.93 299.97 381ZM193.87 332.15C190.91 333.19 186.19 333.82 184.01 336.28C180.13 340.66 188.43 349.76 192.51 351.25C201.43 354.51 212.5 349.2 220.77 347.05C226.48 345.56 239.57 349.42 240.06 338.25C240.21 334.84 234.01 332.38 231.25 331.94C225.77 331.06 219 333.73 213.25 333.69C207.72 333.65 198.93 330.35 193.87 332.15ZM292.79 338.25C293.18 343.33 296.3 353.27 291.25 357.35C290.42 356.91 289.58 356.48 288.75 356.04C284.81 356.53 280.14 361.51 276.77 361.36C270.35 361.09 261.2 347.36 265.1 342.08C266.53 342.08 267.97 342.08 269.4 342.08C269.68 341.2 269.97 340.32 270.25 339.44C277.76 339.04 285.27 338.65 292.79 338.25ZM193.41 390.25C195.18 385.75 207.27 386.88 211.25 386.96C216.23 387.07 217.79 385.22 221.85 384.2C228.74 382.45 237.33 382.91 244.23 382.4C247.32 382.17 249.74 379.66 252.78 379.16C256.31 378.58 259.72 380.81 263.22 379.9C266.01 379.17 267.95 374.22 267.12 371.72C265.82 367.83 261.62 366.4 257.85 367.19C253.6 368.08 250.29 371.75 245.9 372.7C239.97 374 233.3 372.54 227.25 373.04C222.98 373.4 219.12 375.28 214.88 375.72C208.96 376.34 203.96 373.1 198.25 372.9C193.59 372.73 188.47 375.56 183.86 373.84C176.57 371.13 171.09 362.7 162.35 366.14C148.35 371.65 173.67 392.74 179.75 391.81C180.25 390.5 180.75 389.19 181.25 387.87C183.83 389.16 186.42 390.46 189 391.75C168.19 409.54 214.23 413.93 227.16 405.9C231.34 403.3 238.17 403.11 237.14 396.25C224.15 391.54 204.76 397.31 193.41 390.25ZM259.75 413.44C256.66 412.46 251.48 410.12 248.25 409.91C245.82 409.76 244.09 411.91 241.75 411.95C233.13 412.08 209.23 408.83 207.63 419.75C205.26 421.47 203.78 424.84 207.25 426.29C208.18 425.03 209.1 423.76 210.03 422.5C210.03 424.25 210.03 426 210.03 427.75C210.92 432.1 221.8 427.68 225.75 427.94C236.31 428.62 249.36 433.94 257.09 423.35C259.4 420.18 260.76 417.51 259.75 413.44Z"></path>
<path stroke-linejoin="round" stroke-width="0.25" stroke="#664739" fill-rule="evenodd" fill="#664739" d="M298.13 126.13C298.36 126.42 298.59 126.71 298.82 127C298.69 127.35 298.56 127.7 298.43 128.05C298.76 129.29 299.1 130.52 299.43 131.75C301.7 136.05 303.98 140.35 306.25 144.65C307 144.68 307.75 144.72 308.5 144.75C309.17 146.25 309.84 147.75 310.5 149.25C312.17 150.42 313.83 151.58 315.5 152.75C316.58 153.84 317.67 154.93 318.75 156.03C319.5 155.27 320.25 154.51 321 153.75C320.36 152.55 319.72 151.35 319.09 150.15C320.5 151.35 321.91 152.55 323.33 153.75C324.07 155.08 324.82 156.42 325.57 157.75C325.65 163.75 332.68 172.35 334.69 178.56C341.51 199.67 336.31 201.47 335.48 220.75C335.16 228.18 336.17 238.53 330.88 244.25C330.77 251.01 330.67 257.76 330.56 264.52C329.79 260.85 329.02 257.17 328.25 253.5C327.23 260.9 325.92 271.75 318.75 276.51C310.64 274.11 309.86 243.81 304.25 235.03C296.88 235.01 300.6 245.12 293.25 245.67C289.39 245.96 286.05 243.78 282.25 243.68C276.83 243.54 256.86 246.7 255.54 253.25C266.37 257.8 285.23 250.7 286.99 267.75C283.34 274.69 273.25 270.32 268.63 274.75C275.74 281.84 251.53 281.86 247.25 276.28C239.93 275.28 239.49 276.48 235.67 270.57C234.66 269.01 232.35 269.08 231.27 267.49C229.2 264.46 230.66 260.48 228.68 257.57C227.35 255.62 223.73 254.98 224.26 251.98C224.92 248.2 236.11 237.91 239.6 236.34C244.85 233.99 257.24 235.91 256.88 227.75C256.55 220.52 246.82 217.44 242.58 212.66C236.81 206.17 231.78 195.94 228.75 187.62C225.75 186.54 224.75 183.85 221.97 182.29C215.28 178.56 205.93 174.89 198.55 173.24C192.27 171.83 183.74 172.93 177.25 172.98C168.68 173.04 157.85 170.32 151.17 177.92C150.05 179.2 150.63 180.96 149.51 182.27C147.85 184.2 145.01 184.29 143.19 185.94C139.28 189.48 138.34 193.65 135.48 197.68C133.9 199.9 130.33 199.73 128.53 202.3C123.32 209.73 119.66 222.97 117.57 231.78C114.65 244.15 114.45 259.08 114.35 271.75C114.32 275.62 114.12 285 110.25 287.06C103.29 285.19 103.89 269.09 96.69 265.5C96.71 261 96.73 256.5 96.75 252C96.25 251.53 95.75 251.06 95.25 250.59C94.83 247.48 94.42 244.36 94 241.25C93.76 239.33 93.51 237.42 93.27 235.5C93.59 235.4 93.92 235.3 94.25 235.2C94.78 238.72 95.31 242.23 95.84 245.75C96.64 246.09 97.45 246.43 98.25 246.77C98.25 251.61 98.25 256.45 98.25 261.29C100.95 266.78 103.64 272.26 106.34 277.75C113.44 282.71 113.92 263.4 114.02 259.75C114.69 236.45 114.38 206.16 129.35 186.5C130.95 184.39 144.89 168.88 145.69 168.44C156.53 162.49 199.02 161.23 210.42 165.32C216.36 167.44 225.44 171.97 230.06 176.2C233.02 178.89 234.48 183.96 238.25 185.5C239.94 193.15 248.29 194.3 250.51 202.75C252.65 203.99 255.08 204.45 256.64 206.51C259.33 210.07 266.98 231.23 264.06 233.81C258.49 238.72 237.08 234.27 241.25 247.67C253.01 251.1 267.07 242.67 278.23 239.89C283.31 238.63 288.66 240.93 293.75 239.43C297.25 233.45 300.75 227.48 304.25 221.5C304.15 223.42 304.05 225.33 303.96 227.25C305.94 233.17 307.93 239.08 309.91 245C310.02 246.5 310.14 248 310.25 249.5C310.52 250.5 310.79 251.5 311.07 252.5C312.81 258.25 314.55 264 316.29 269.75C326.48 270.29 319.7 242.83 325.25 241.14C325.75 242.25 326.25 243.37 326.75 244.48C328.58 241.16 330.42 237.83 332.25 234.5C332.16 231.75 332.08 229 331.99 226.25C330.72 226.42 329.46 226.58 328.19 226.75C327.16 228.58 326.14 230.42 325.11 232.25C318.28 225.12 337.51 214.83 324.75 206C325.94 199.35 336.91 171.67 321.75 171.5C317.75 167.21 313.75 162.93 309.75 158.64C305.6 160.04 307.97 163.38 307.75 166.55C301.28 168.45 299.74 154.02 300.15 150.25C298.52 147.19 296.88 144.14 295.25 141.08C290.41 139.59 286.99 129.44 281.91 131.25C282.61 135.58 283.3 139.92 284 144.25C279.95 143.26 281.13 136.38 275.25 136.99C274.63 138.91 274 140.83 273.38 142.75C275.05 146.92 276.71 151.08 278.38 155.25C272.23 155.1 275.68 142.64 266.25 144.81C261.92 139.16 257.58 133.5 253.25 127.85C252.92 129.07 252.58 130.28 252.25 131.5C250.92 131.33 249.58 131.17 248.25 131C246.75 128.15 245.25 125.3 243.75 122.45C243 122.72 242.25 122.98 241.5 123.25C237.58 119.67 233.67 116.08 229.75 112.5C229.67 115.08 229.58 117.67 229.5 120.25C227.5 120.42 225.5 120.58 223.5 120.75C221.58 117.25 219.67 113.75 217.75 110.25C216.58 109.83 215.42 109.42 214.25 109C214.6 101.46 196.36 89.34 190.5 86.17C188.56 85.12 185.96 85.81 184.16 84.75C186.36 84.08 188.55 83.42 190.75 82.75C194.42 83.94 198.08 85.13 201.75 86.33C202.74 84.63 203.74 82.94 204.73 81.25C193.01 66.51 173.01 82.69 166.44 94.25C167.46 94.42 168.47 94.58 169.49 94.75C169.57 95.66 169.66 96.56 169.75 97.47C174.75 97.18 179.75 96.9 184.75 96.61C185.42 97.28 186.08 97.94 186.75 98.61C187.25 94.94 187.75 91.28 188.25 87.61C191.46 88.08 190.08 90.56 191.92 92.32C194.63 94.92 198.25 97.08 200.65 99.59C202.45 101.49 202.46 104.59 204.38 106.37C205.74 107.62 207.91 107.33 209.14 108.62C210.23 109.75 210.28 111.51 209.75 112.8C207.25 111.95 204.75 111.1 202.25 110.25C202.08 111.17 201.92 112.1 201.75 113.02C199.42 110.95 197.08 108.87 194.75 106.79C192.86 109.29 200.97 118.77 203.25 121C202.54 122.25 201.82 123.5 201.11 124.75C201.16 125.83 201.2 126.92 201.25 128C196.42 126.32 195.42 120.75 189.35 121.25C188.9 122.08 188.45 122.92 188 123.75C186 123.58 184 123.42 182 123.25C180.65 122.25 179.3 121.25 177.95 120.25C177.8 121.25 177.65 122.25 177.5 123.25C175.75 121.7 174 120.14 172.25 118.59C168.34 120.38 166.32 117.52 163.75 114.35C163.33 115.82 162.92 117.28 162.5 118.75C161.13 118.47 159.77 118.18 158.4 117.9C157.85 117.25 157.3 116.6 156.75 115.95C156.75 115.99 156.75 116.02 156.76 116.05C156.54 115.62 156.32 115.18 156.1 114.75C155.07 114.58 154.03 114.42 153 114.25C150.22 111.04 151.11 103.47 144.75 105.94C142.25 106.21 139.75 106.48 137.25 106.75C137.25 109 137.25 111.25 137.25 113.5C131.98 117.19 136.64 120.67 133.3 124.25C130.95 124.4 128.6 124.54 126.25 124.69C118.31 133.22 109.78 142.84 106.18 154.17C104.56 159.25 107.34 168.11 104.75 172.27C103.08 167.97 101.42 163.66 99.75 159.36C96.58 162.71 93.42 166.06 90.25 169.41C89.26 175.35 88.26 181.3 87.27 187.25C92.01 193.03 86.97 200.01 88.75 206.08C89.67 205.97 90.58 205.86 91.5 205.75C92.17 211.08 92.83 216.42 93.5 221.75C92.75 221.29 92 220.82 91.25 220.36C91.42 223.74 91.59 227.12 91.75 230.5C85.83 222.11 88.48 201.62 82.5 196.75C82.38 194.67 82.26 192.58 82.14 190.5C82.4 190.42 82.65 190.33 82.91 190.25C82.91 188.83 82.92 187.42 82.93 186C82.9 185.83 82.86 185.67 82.83 185.5C83.14 184.83 83.44 184.17 83.75 183.5C84.5 180.58 85.25 177.67 86 174.75C87.42 172 88.83 169.25 90.25 166.5C91.34 164.08 92.43 161.67 93.52 159.25C94.15 158.33 94.77 157.42 95.4 156.5C95.51 156.33 95.61 156.17 95.72 156C95.68 155.81 95.64 155.62 95.6 155.43C98.49 152.79 101.37 150.14 104.25 147.5C106 144.08 107.75 140.67 109.5 137.25C111.08 134.78 112.67 132.32 114.25 129.85C115.83 129.32 117.42 128.78 119 128.25C120.14 126.25 121.27 124.25 122.41 122.25C126.11 121.04 127.28 118.67 129.75 122.16C129.48 120.69 129.2 119.22 128.93 117.75C129.83 114.75 130.74 111.75 131.64 108.75C132.18 106.29 132.71 103.83 133.25 101.38C136.81 100.67 140.37 99.96 143.93 99.25C143.81 94.49 146.9 95.28 150.42 95.75C152.03 94.44 153.64 93.12 155.25 91.81C158.57 96.21 161.56 95.84 166.25 92.5C167.92 88.62 169.58 84.74 171.25 80.86C171.92 80.97 172.58 81.08 173.25 81.18C176.48 78.71 178.21 74.78 182.37 73.08C185.12 71.96 187.42 74.02 190.25 73.62C201.42 72.08 211.78 65.86 223.25 65.62C223.89 67.49 224.53 69.37 225.17 71.25C223.03 71.5 220.89 71.75 218.75 72C217.92 71.63 217.08 71.26 216.25 70.88C215.25 71.5 214.25 72.12 213.25 72.74C213.42 73.71 213.58 74.68 213.75 75.65C217.05 76.26 222.97 76.93 223.61 80.75C221.16 81.08 218.7 81.42 216.25 81.75C219.74 86.58 234.25 80.69 234.75 90.71C233.08 91.11 231.42 91.51 229.75 91.92C228.58 90.66 227.42 89.41 226.25 88.16C224.75 88.78 223.25 89.4 221.75 90.02C220.83 90.93 219.92 91.84 219 92.75C219.08 94.66 219.17 96.57 219.25 98.48C216.57 96.9 213.9 95.33 211.22 93.75C215.96 102.99 218.32 108.93 226.25 114.44C226.25 111.02 226.25 107.6 226.25 104.17C230.08 107.07 233.92 109.96 237.75 112.85C239.58 113.24 241.42 113.63 243.25 114.02C249.92 107.79 257.27 117.25 263.25 119.32C265.11 122.27 268.4 126.4 272.25 126.78C272.42 125.8 272.58 124.82 272.75 123.83C273.58 124.01 274.42 124.18 275.25 124.35C274.58 121.94 273.92 119.53 273.25 117.12C277.21 119.66 281.16 122.21 285.12 124.75C287.16 124.89 289.21 125.02 291.25 125.16C291.42 124.25 291.58 123.34 291.75 122.43C293.39 123.7 295.02 124.98 296.66 126.25C297.15 126.21 297.64 126.17 298.13 126.13ZM193.63 261.25C193.62 268.04 197.99 273.3 188.25 274.53C183.58 280.38 178.64 277.77 172.35 280.75C174.04 285.01 164.65 285.03 161.75 285.17C160.32 285.24 135.69 276.93 134.79 276.25C132.43 254.73 159.52 264.02 166.4 257.25C158 248.89 130.76 259.89 123.75 254.14C121.56 247.2 130.16 236.87 136.77 235.52C145.32 233.77 177.71 240.07 186.05 244.23C191.89 247.13 204 255.15 193.63 261.25ZM186.55 249.75C178.18 240.35 146.02 236.77 135.33 242.08C132.47 243.5 130.53 246.86 128.87 249.25C131.51 251.23 139.32 249.5 142.75 249.42C150.17 249.26 185.43 257 186.55 249.75ZM250.88 258.25C243.84 257.99 239.22 263.69 240.75 270.36C243.92 269.33 247.08 268.3 250.25 267.27C258.98 278.45 265.87 276.8 271.75 264.29C273.71 264.61 275.67 264.93 277.63 265.25C277.96 266.02 278.29 266.8 278.63 267.57C279.59 267.57 280.55 267.57 281.51 267.57C279.81 256.14 253.63 263.5 249.25 260.86C249.79 259.99 250.34 259.12 250.88 258.25ZM175.25 263.35C172.88 266.75 144.26 261.57 141.65 274.3C143.18 274.3 144.72 274.3 146.25 274.3C148.58 273.01 150.92 271.72 153.25 270.43C160.29 283.07 169.81 282.7 173.75 268.39C177.05 270.18 180.34 271.96 183.64 273.75C184.64 267.51 180.74 264.68 175.25 263.35ZM193.87 332.15C198.93 330.35 207.72 333.65 213.25 333.69C219 333.73 225.77 331.06 231.25 331.94C234.01 332.38 240.21 334.84 240.06 338.25C239.57 349.42 226.48 345.56 220.77 347.05C212.5 349.2 201.43 354.51 192.51 351.25C188.43 349.76 180.13 340.66 184.01 336.28C186.19 333.82 190.91 333.19 193.87 332.15ZM193.41 390.25C204.76 397.31 224.15 391.54 237.14 396.25C238.17 403.11 231.34 403.3 227.16 405.9C214.23 413.93 168.19 409.54 189 391.75C186.42 390.46 183.83 389.16 181.25 387.87C180.75 389.19 180.25 390.5 179.75 391.81C173.67 392.74 148.35 371.65 162.35 366.14C171.09 362.7 176.57 371.13 183.86 373.84C188.47 375.56 193.59 372.73 198.25 372.9C203.96 373.1 208.96 376.34 214.88 375.72C219.12 375.28 222.98 373.4 227.25 373.04C233.3 372.54 239.97 374 245.9 372.7C250.29 371.75 253.6 368.08 257.85 367.19C261.62 366.4 265.82 367.83 267.12 371.72C267.95 374.22 266.01 379.17 263.22 379.9C259.72 380.81 256.31 378.58 252.78 379.16C249.74 379.66 247.32 382.17 244.23 382.4C237.33 382.91 228.74 382.45 221.85 384.2C217.79 385.22 216.23 387.07 211.25 386.96C207.27 386.88 195.18 385.75 193.41 390.25ZM297.12 389.3C295.66 393.03 294.21 396.77 292.75 400.5C292.76 401.08 292.77 401.67 292.78 402.25C292.1 402.83 291.43 403.42 290.75 404C291 404.78 291.25 405.55 291.5 406.33C291.67 406.64 291.83 406.94 292 407.25C291.83 407.44 291.67 407.63 291.5 407.81C290.36 406.79 289.22 405.77 288.08 404.75C288.8 403.07 289.53 401.39 290.25 399.71C278.34 416.21 265.85 439.22 244.25 444.09C235.53 446.05 225.1 443.54 216.25 443.31C209.56 443.14 193.59 442.7 188.53 439.24C177.24 431.51 160.61 401.89 149.49 400.25C150.24 402.27 151 404.28 151.75 406.3C152.84 407.45 153.93 408.6 155.02 409.75C154.6 411.17 154.17 412.58 153.75 414C154.42 414.96 155.08 415.93 155.75 416.9C155.08 418.13 154.42 419.36 153.75 420.59C153.17 420.36 152.58 420.14 152 419.91C152.42 419.61 152.83 419.3 153.25 419C151.93 407.89 144.39 400.22 143.77 394.5C143.93 393.38 144.09 392.25 144.25 391.13C148.09 389.49 160.21 391.83 162.83 395.4C166.26 400.08 167.86 406.42 170.24 411.57C173.45 418.53 189 433.02 196.88 434.79C212.68 438.34 240 442.37 254.62 433.84C261.23 429.98 265.66 419.2 269.23 412.96C275.24 402.45 283.75 393.09 293.25 385.42C294.08 385.68 294.92 385.94 295.75 386.2C296.21 387.23 296.66 388.27 297.12 389.3Z"></path>
<path stroke-linejoin="round" stroke-width="0.25" stroke="#271e1a" fill-rule="evenodd" fill="#271e1a" d="M156.76 116.05C156.75 116.02 156.75 115.99 156.75 115.95C157.3 116.6 157.85 117.25 158.4 117.9C159.85 119.13 161.3 120.36 162.75 121.59C163.62 121.48 164.49 121.36 165.36 121.25C166.49 122.43 167.62 123.6 168.75 124.78C170.16 123.94 171.57 123.09 172.98 122.25C176.54 125.49 179.17 134.3 184.83 132.75C185.12 131.92 185.41 131.08 185.7 130.25C187.11 130.08 188.51 129.92 189.92 129.75C190.2 129.07 190.47 128.39 190.75 127.71C194.25 129.14 197.75 130.57 201.25 132C200.77 132.58 200.3 133.17 199.82 133.75C201.8 134.75 203.78 135.75 205.75 136.75C206.42 137.66 207.08 138.58 207.75 139.49C219.73 139.31 223.69 145.6 231.75 145.97C230.08 143.59 228.42 141.21 226.75 138.83C222.78 142.2 205.47 133.86 205 128.25C205.59 127.75 206.19 127.25 206.78 126.75C206.18 125.75 205.59 124.75 204.99 123.75C205.86 123.25 206.72 122.75 207.59 122.25C206.73 120.75 205.87 119.25 205.01 117.75C207.09 117.23 209.17 116.72 211.25 116.2C221.82 121.18 224.47 136.34 225.25 136.8C226.37 135.45 227.48 134.1 228.6 132.75C228.02 131.75 227.43 130.75 226.85 129.75C230.94 123.67 238.88 133.81 242.46 135.76C253.26 141.65 262.35 156 268.68 166.57C272.2 172.47 266.01 178.21 274.75 181.58C275.58 178.62 276.42 175.66 277.25 172.71C285.51 171.85 285.49 190 290.75 193.82C291.47 193.3 292.18 192.77 292.9 192.25C292.41 191.58 291.92 190.92 291.42 190.25C297.65 186.84 285.62 171.85 290.75 165.33C294.43 164.98 298.48 175.56 299.13 178.73C301.84 191.79 304.22 203.92 301.15 217.31C300.42 220.5 299.54 228.39 295.75 229.26C294.75 223.69 293.75 218.11 292.75 212.54C291.58 213.92 290.42 215.3 289.25 216.68C288.58 215.55 287.92 214.43 287.25 213.3C285.25 215.86 283.25 218.43 281.25 220.99C266.08 218.8 275.52 215.94 268.75 208.35C266.99 211.68 268.99 219.48 264.25 219.96C258.65 215.85 264.75 209.24 263.3 204.44C262.54 201.93 260.1 200.5 259.24 198.06C256.08 189.08 254.29 179.54 250.58 170.68C247.33 162.93 230.35 149.17 221.96 149.75C227.33 158.92 226.6 161.87 214.25 158.14C208.99 160.1 204.2 156.66 198.61 157.27C187.46 158.48 176.33 158.39 165.27 159.17C161.42 159.45 156.59 162.52 152.76 161.02C149.17 159.62 148.97 156.7 146.25 154.85C145.08 156.6 143.92 158.35 142.75 160.09C138.18 157.61 141.41 152.07 138.33 148.93C134.49 145.02 127.36 147.79 123.17 143.25C124.23 140.75 125.29 138.25 126.34 135.75C125.37 135.08 124.4 134.42 123.43 133.75C127.52 131.58 131.61 129.42 135.7 127.25C136.18 124.42 136.66 121.58 137.14 118.75C139.34 116.18 141.55 113.61 143.75 111.04C146.25 114 148.75 116.96 151.25 119.92C152.25 120.65 153.25 121.37 154.25 122.09C154.46 120.31 154.67 118.53 154.88 116.75C155.51 116.52 156.13 116.28 156.76 116.05ZM163.25 129C161.67 126.75 160.08 124.5 158.5 122.25C153.32 130.21 157.13 136.41 159.5 144.25C160.92 145.15 162.33 146.05 163.75 146.95C173.31 146.57 172.85 126.57 165 126.75C164.42 127.5 163.83 128.25 163.25 129ZM127.25 149.97C130.32 149.97 133.39 149.97 136.46 149.97C137.47 152.62 136.62 155.25 137.28 157.95C138.04 161.1 140.54 164.36 139.84 167.67C139.1 171.11 133.48 171.71 131.46 174.21C128.89 177.38 126.05 181.77 124.08 185.36C120.29 192.26 118.17 203.6 116.18 211.35C112.59 225.3 114.12 238.87 113.25 253.03C113.01 256.93 113.08 265.3 108.75 266.93C105.78 265.6 104.95 250.39 105.21 246.78C106.28 232.1 109.09 222.99 93.44 214.75C94.71 205.08 95.98 195.41 97.25 185.73C98.75 186.08 100.25 186.42 101.75 186.77C106.51 180.93 109.53 185.13 112.25 189.65C111.08 179.55 109.92 169.45 108.75 159.35C117.39 159.23 122.67 157.41 127.25 149.97ZM311.07 252.5C310.79 251.5 310.52 250.5 310.25 249.5C310.14 248 310.02 246.5 309.91 245C310.55 238.49 305.31 216.06 316.25 214.64C323.69 219.62 322.45 240.02 320.63 247.75C319.83 248.16 319.04 248.56 318.25 248.97C318.25 253.7 318.25 258.44 318.25 263.17C315.86 259.62 313.46 256.06 311.07 252.5ZM250.88 258.25C250.34 259.12 249.79 259.99 249.25 260.86C253.63 263.5 279.81 256.14 281.51 267.57C280.55 267.57 279.59 267.57 278.63 267.57C278.29 266.8 277.96 266.02 277.63 265.25C275.67 264.93 273.71 264.61 271.75 264.29C265.87 276.8 258.98 278.45 250.25 267.27C247.08 268.3 243.92 269.33 240.75 270.36C239.22 263.69 243.84 257.99 250.88 258.25ZM175.25 263.35C180.74 264.68 184.64 267.51 183.64 273.75C180.34 271.96 177.05 270.18 173.75 268.39C169.81 282.7 160.29 283.07 153.25 270.43C150.92 271.72 148.58 273.01 146.25 274.3C144.72 274.3 143.18 274.3 141.65 274.3C144.26 261.57 172.88 266.75 175.25 263.35ZM291.5 407.81C291.33 408.46 291.16 409.1 290.99 409.75C285.19 413.58 264.21 435.22 262.92 441.5C262.46 443.71 264.02 450.14 265.1 452C260.65 461.83 256.2 471.67 251.75 481.5C248.5 481.92 245.25 482.33 242 482.75C245.21 483.08 248.42 483.42 251.63 483.75C247.59 484.08 243.54 484.41 239.5 484.74C238.17 484.73 236.83 484.73 235.5 484.72C235.33 484.45 235.17 484.19 235 483.92C228.77 477.22 218.23 473.58 209.5 472.75C207.44 475.23 200.59 474.52 199.2 471.75C200.3 471.58 201.4 471.42 202.5 471.25C202.42 467.02 195.1 464.29 191.75 463.63C192.08 462.67 192.4 461.71 192.73 460.75C187.19 456.09 163.02 437.65 163.5 430.75C161.92 431.39 160.33 432.03 158.75 432.67C157.33 431.69 155.92 430.72 154.5 429.75C153.92 428.19 153.33 426.62 152.75 425.06C151.08 425.12 149.42 425.17 147.75 425.23C146.38 423.57 145.01 421.91 143.64 420.25C143.78 419.84 143.93 419.42 144.07 419.01C146.71 419.31 149.36 419.61 152 419.91C152.58 420.14 153.17 420.36 153.75 420.59C154.42 419.36 155.08 418.13 155.75 416.9C155.08 415.93 154.42 414.96 153.75 414C154.17 412.58 154.6 411.17 155.02 409.75C153.93 408.6 152.84 407.45 151.75 406.3C151 404.28 150.24 402.27 149.49 400.25C160.61 401.89 177.24 431.51 188.53 439.24C193.59 442.7 209.56 443.14 216.25 443.31C225.1 443.54 235.53 446.05 244.25 444.09C265.85 439.22 278.34 416.21 290.25 399.71C289.53 401.39 288.8 403.07 288.08 404.75C289.22 405.77 290.36 406.79 291.5 407.81ZM206.99 461.25C208.32 465.45 229.58 480.82 234.26 481.5C242.62 482.71 255.3 477.48 256.77 467.62C257.38 463.5 256.11 461.77 253.39 459.36C251.69 457.85 251.62 455.47 249.34 454.4C242.51 451.22 229.96 457.41 222.77 458.17C218.87 458.59 208.81 457.32 206.99 461.25Z"></path>
<path stroke-linejoin="round" stroke-width="0.25" stroke="#443329" fill-rule="evenodd" fill="#443329" d="M311.07 252.5C313.46 256.06 315.86 259.62 318.25 263.17C318.25 258.44 318.25 253.7 318.25 248.97C319.04 248.56 319.83 248.16 320.63 247.75C322.45 240.02 323.69 219.62 316.25 214.64C305.31 216.06 310.55 238.49 309.91 245C307.93 239.08 305.94 233.17 303.96 227.25C304.05 225.33 304.15 223.42 304.25 221.5C300.75 227.48 297.25 233.45 293.75 239.43C288.66 240.93 283.31 238.63 278.23 239.89C267.07 242.67 253.01 251.1 241.25 247.67C237.08 234.27 258.49 238.72 264.06 233.81C266.98 231.23 259.33 210.07 256.64 206.51C255.08 204.45 252.65 203.99 250.51 202.75C248.29 194.3 239.94 193.15 238.25 185.5C234.48 183.96 233.02 178.89 230.06 176.2C225.44 171.97 216.36 167.44 210.42 165.32C199.02 161.23 156.53 162.49 145.69 168.44C144.89 168.88 130.95 184.39 129.35 186.5C114.38 206.16 114.69 236.45 114.02 259.75C113.92 263.4 113.44 282.71 106.34 277.75C103.64 272.26 100.95 266.78 98.25 261.29C98.25 256.45 98.25 251.61 98.25 246.77C97.45 246.43 96.64 246.09 95.84 245.75C95.31 242.23 94.78 238.72 94.25 235.2C93.92 235.3 93.59 235.4 93.27 235.5C92.76 233.83 92.26 232.17 91.75 230.5C91.59 227.12 91.42 223.74 91.25 220.36C92 220.82 92.75 221.29 93.5 221.75C92.83 216.42 92.17 211.08 91.5 205.75C90.58 205.86 89.67 205.97 88.75 206.08C86.97 200.01 92.01 193.03 87.27 187.25C88.26 181.3 89.26 175.35 90.25 169.41C93.42 166.06 96.58 162.71 99.75 159.36C101.42 163.66 103.08 167.97 104.75 172.27C107.34 168.11 104.56 159.25 106.18 154.17C109.78 142.84 118.31 133.22 126.25 124.69C128.6 124.54 130.95 124.4 133.3 124.25C136.64 120.67 131.98 117.19 137.25 113.5C137.25 111.25 137.25 109 137.25 106.75C139.75 106.48 142.25 106.21 144.75 105.94C151.11 103.47 150.22 111.04 153 114.25C154.03 114.42 155.07 114.58 156.1 114.75C156.32 115.18 156.54 115.62 156.76 116.05C156.13 116.28 155.51 116.52 154.88 116.75C154.67 118.53 154.46 120.31 154.25 122.09C153.25 121.37 152.25 120.65 151.25 119.92C148.75 116.96 146.25 114 143.75 111.04C141.55 113.61 139.34 116.18 137.14 118.75C136.66 121.58 136.18 124.42 135.7 127.25C131.61 129.42 127.52 131.58 123.43 133.75C124.4 134.42 125.37 135.08 126.34 135.75C125.29 138.25 124.23 140.75 123.17 143.25C127.36 147.79 134.49 145.02 138.33 148.93C141.41 152.07 138.18 157.61 142.75 160.09C143.92 158.35 145.08 156.6 146.25 154.85C148.97 156.7 149.17 159.62 152.76 161.02C156.59 162.52 161.42 159.45 165.27 159.17C176.33 158.39 187.46 158.48 198.61 157.27C204.2 156.66 208.99 160.1 214.25 158.14C226.6 161.87 227.33 158.92 221.96 149.75C230.35 149.17 247.33 162.93 250.58 170.68C254.29 179.54 256.08 189.08 259.24 198.06C260.1 200.5 262.54 201.93 263.3 204.44C264.75 209.24 258.65 215.85 264.25 219.96C268.99 219.48 266.99 211.68 268.75 208.35C275.52 215.94 266.08 218.8 281.25 220.99C283.25 218.43 285.25 215.86 287.25 213.3C287.92 214.43 288.58 215.55 289.25 216.68C290.42 215.3 291.58 213.92 292.75 212.54C293.75 218.11 294.75 223.69 295.75 229.26C299.54 228.39 300.42 220.5 301.15 217.31C304.22 203.92 301.84 191.79 299.13 178.73C298.48 175.56 294.43 164.98 290.75 165.33C285.62 171.85 297.65 186.84 291.42 190.25C291.92 190.92 292.41 191.58 292.9 192.25C292.18 192.77 291.47 193.3 290.75 193.82C285.49 190 285.51 171.85 277.25 172.71C276.42 175.66 275.58 178.62 274.75 181.58C266.01 178.21 272.2 172.47 268.68 166.57C262.35 156 253.26 141.65 242.46 135.76C238.88 133.81 230.94 123.67 226.85 129.75C227.43 130.75 228.02 131.75 228.6 132.75C227.48 134.1 226.37 135.45 225.25 136.8C224.47 136.34 221.82 121.18 211.25 116.2C209.17 116.72 207.09 117.23 205.01 117.75C205.87 119.25 206.73 120.75 207.59 122.25C206.72 122.75 205.86 123.25 204.99 123.75C205.59 124.75 206.18 125.75 206.78 126.75C206.19 127.25 205.59 127.75 205 128.25C205.47 133.86 222.78 142.2 226.75 138.83C228.42 141.21 230.08 143.59 231.75 145.97C223.69 145.6 219.73 139.31 207.75 139.49C207.08 138.58 206.42 137.66 205.75 136.75C203.78 135.75 201.8 134.75 199.82 133.75C200.3 133.17 200.77 132.58 201.25 132C197.75 130.57 194.25 129.14 190.75 127.71C190.47 128.39 190.2 129.07 189.92 129.75C188.51 129.92 187.11 130.08 185.7 130.25C185.41 131.08 185.12 131.92 184.83 132.75C179.17 134.3 176.54 125.49 172.98 122.25C171.57 123.09 170.16 123.94 168.75 124.78C167.62 123.6 166.49 122.43 165.36 121.25C164.49 121.36 163.62 121.48 162.75 121.59C161.3 120.36 159.85 119.13 158.4 117.9C159.77 118.18 161.13 118.47 162.5 118.75C162.92 117.28 163.33 115.82 163.75 114.35C166.32 117.52 168.34 120.38 172.25 118.59C174 120.14 175.75 121.7 177.5 123.25C177.65 122.25 177.8 121.25 177.95 120.25C179.3 121.25 180.65 122.25 182 123.25C184 123.42 186 123.58 188 123.75C188.45 122.92 188.9 122.08 189.35 121.25C195.42 120.75 196.42 126.32 201.25 128C201.2 126.92 201.16 125.83 201.11 124.75C201.82 123.5 202.54 122.25 203.25 121C200.97 118.77 192.86 109.29 194.75 106.79C197.08 108.87 199.42 110.95 201.75 113.02C201.92 112.1 202.08 111.17 202.25 110.25C204.75 111.1 207.25 111.95 209.75 112.8C210.28 111.51 210.23 109.75 209.14 108.62C207.91 107.33 205.74 107.62 204.38 106.37C202.46 104.59 202.45 101.49 200.65 99.59C198.25 97.08 194.63 94.92 191.92 92.32C190.08 90.56 191.46 88.08 188.25 87.61C187.75 91.28 187.25 94.94 186.75 98.61C186.08 97.94 185.42 97.28 184.75 96.61C179.75 96.9 174.75 97.18 169.75 97.47C169.66 96.56 169.57 95.66 169.49 94.75C168.47 94.58 167.46 94.42 166.44 94.25C173.01 82.69 193.01 66.51 204.73 81.25C203.74 82.94 202.74 84.63 201.75 86.33C198.08 85.13 194.42 83.94 190.75 82.75C188.55 83.42 186.36 84.08 184.16 84.75C185.96 85.81 188.56 85.12 190.5 86.17C196.36 89.34 214.6 101.46 214.25 109C215.42 109.42 216.58 109.83 217.75 110.25C219.67 113.75 221.58 117.25 223.5 120.75C225.5 120.58 227.5 120.42 229.5 120.25C229.58 117.67 229.67 115.08 229.75 112.5C233.67 116.08 237.58 119.67 241.5 123.25C242.25 122.98 243 122.72 243.75 122.45C245.25 125.3 246.75 128.15 248.25 131C249.58 131.17 250.92 131.33 252.25 131.5C252.58 130.28 252.92 129.07 253.25 127.85C257.58 133.5 261.92 139.16 266.25 144.81C275.68 142.64 272.23 155.1 278.38 155.25C276.71 151.08 275.05 146.92 273.38 142.75C274 140.83 274.63 138.91 275.25 136.99C281.13 136.38 279.95 143.26 284 144.25C283.3 139.92 282.61 135.58 281.91 131.25C286.99 129.44 290.41 139.59 295.25 141.08C296.88 144.14 298.52 147.19 300.15 150.25C299.74 154.02 301.28 168.45 307.75 166.55C307.97 163.38 305.6 160.04 309.75 158.64C313.75 162.93 317.75 167.21 321.75 171.5C336.91 171.67 325.94 199.35 324.75 206C337.51 214.83 318.28 225.12 325.11 232.25C326.14 230.42 327.16 228.58 328.19 226.75C329.46 226.58 330.72 226.42 331.99 226.25C332.08 229 332.16 231.75 332.25 234.5C330.42 237.83 328.58 241.16 326.75 244.48C326.25 243.37 325.75 242.25 325.25 241.14C319.7 242.83 326.48 270.29 316.29 269.75C314.55 264 312.81 258.25 311.07 252.5ZM127.25 149.97C122.67 157.41 117.39 159.23 108.75 159.35C109.92 169.45 111.08 179.55 112.25 189.65C109.53 185.13 106.51 180.93 101.75 186.77C100.25 186.42 98.75 186.08 97.25 185.73C95.98 195.41 94.71 205.08 93.44 214.75C109.09 222.99 106.28 232.1 105.21 246.78C104.95 250.39 105.78 265.6 108.75 266.93C113.08 265.3 113.01 256.93 113.25 253.03C114.12 238.87 112.59 225.3 116.18 211.35C118.17 203.6 120.29 192.26 124.08 185.36C126.05 181.77 128.89 177.38 131.46 174.21C133.48 171.71 139.1 171.11 139.84 167.67C140.54 164.36 138.04 161.1 137.28 157.95C136.62 155.25 137.47 152.62 136.46 149.97C133.39 149.97 130.32 149.97 127.25 149.97ZM186.55 249.75C185.43 257 150.17 249.26 142.75 249.42C139.32 249.5 131.51 251.23 128.87 249.25C130.53 246.86 132.47 243.5 135.33 242.08C146.02 236.77 178.18 240.35 186.55 249.75ZM206.99 461.25C208.81 457.32 218.87 458.59 222.77 458.17C229.96 457.41 242.51 451.22 249.34 454.4C251.62 455.47 251.69 457.85 253.39 459.36C256.11 461.77 257.38 463.5 256.77 467.62C255.3 477.48 242.62 482.71 234.26 481.5C229.58 480.82 208.32 465.45 206.99 461.25Z"></path>
<path stroke-linejoin="round" stroke-width="0.25" stroke="#040a14" fill-rule="evenodd" fill="#040a14" d="M163.25 129C163.83 128.25 164.42 127.5 165 126.75C172.85 126.57 173.31 146.57 163.75 146.95C162.33 146.05 160.92 145.15 159.5 144.25C157.13 136.41 153.32 130.21 158.5 122.25C160.08 124.5 161.67 126.75 163.25 129ZM335.76 403.5C335.43 403.29 335.09 403.07 334.75 402.86C334.32 403.44 333.9 404.01 333.47 404.58C325.36 406.07 330.11 425.47 326.75 426.48C326.22 425.74 325.69 424.99 325.16 424.25C319.83 423.5 317.58 424.24 313.25 426.9C312.42 426.19 311.58 425.48 310.75 424.77C310.05 425.77 309.35 426.76 308.65 427.75C306.52 427.67 304.38 427.58 302.25 427.5C302.53 424.56 305.37 423.16 306.01 420.25C307.09 415.3 304.05 410.5 305.43 405.51C306.87 400.27 313.77 399.72 312.88 393.25C311.5 392.62 310.13 392 308.75 391.37C304.96 395.5 301.16 399.62 297.37 403.75C296.93 406.58 296.48 409.42 296.04 412.25C291.64 414.76 292.65 417.38 289.5 420.21C284.67 424.53 280.55 422.45 277.02 429.3C273.66 435.82 273.19 448.94 265.1 452C264.02 450.14 262.46 443.71 262.92 441.5C264.21 435.22 285.19 413.58 290.99 409.75C291.16 409.1 291.33 408.46 291.5 407.81C291.67 407.63 291.83 407.44 292 407.25C291.83 406.94 291.67 406.64 291.5 406.33C292.07 406.14 292.64 405.94 293.21 405.75C295.23 402.43 297.24 399.12 299.25 395.8C305.16 392.68 308.71 382.36 313.56 377.31C324.65 365.74 347.44 367.77 342.85 387.72C341.6 393.13 336.69 397.75 335.76 403.5ZM144.07 419.01C143.93 419.42 143.78 419.84 143.64 420.25C145.01 421.91 146.38 423.57 147.75 425.23C149.42 425.17 151.08 425.12 152.75 425.06C153.33 426.62 153.92 428.19 154.5 429.75C155.92 430.72 157.33 431.69 158.75 432.67C160.33 432.03 161.92 431.39 163.5 430.75C163.02 437.65 187.19 456.09 192.73 460.75C192.4 461.71 192.08 462.67 191.75 463.63C195.1 464.29 202.42 467.02 202.5 471.25C201.4 471.42 200.3 471.58 199.2 471.75C200.59 474.52 207.44 475.23 209.5 472.75C218.23 473.58 228.77 477.22 235 483.92C234.67 483.95 234.33 483.99 234 484.02C197.92 483.79 161.83 483.57 125.75 483.34C124.92 477.94 124.08 472.54 123.25 467.15C122.08 468.83 120.92 470.5 119.75 472.18C117.23 472.53 115.74 471.92 116.03 469.25C123.18 466.61 119.39 458.73 122.16 453.38C126.1 445.79 133.98 441.93 140.01 436.75C140.37 432.68 135.89 421.89 131.5 420.87C133.54 414.08 124.4 406.42 126.12 398.25C139.88 393.22 140.76 411.53 144.07 419.01ZM108.5 477.03C108.37 477.19 108.25 477.34 108.12 477.5C108.25 477.34 108.37 477.19 108.5 477.03ZM114.5 478.56C114.66 478.64 114.82 478.72 114.97 478.79C114.82 478.72 114.66 478.64 114.5 478.56ZM118 479.59C118.14 479.66 118.28 479.73 118.43 479.8C118.28 479.73 118.14 479.66 118 479.59ZM120.95 482.5C120.8 482.65 120.65 482.81 120.5 482.96C120.65 482.81 120.8 482.65 120.95 482.5Z"></path>
<path stroke-linejoin="round" stroke-width="0.25" stroke="#1a2336" fill-rule="evenodd" fill="#1a2336" d="M333.47 404.58C332.16 410.14 330.84 415.69 329.52 421.25C331.02 422.58 332.51 423.92 334.01 425.25C333.37 426.08 332.73 426.92 332.08 427.75C332.98 430.81 331.54 433.81 332.66 436.79C335.28 443.74 346.78 454.04 340.75 463.84C338.62 463.81 336.48 463.78 334.35 463.75C336.84 466.25 339.33 468.75 341.83 471.25C338.38 471.08 334.93 470.92 331.49 470.75C331.91 472.5 332.33 474.25 332.75 476C327.42 478.64 322.67 482.31 316.77 483.83C297.21 488.86 274.08 479.32 254.5 484.25C275.33 484.46 296.17 484.67 317 484.88C291.17 484.83 265.33 484.78 239.5 484.74C243.54 484.41 247.59 484.08 251.63 483.75C248.42 483.42 245.21 483.08 242 482.75C245.25 482.33 248.5 481.92 251.75 481.5C256.2 471.67 260.65 461.83 265.1 452C273.19 448.94 273.66 435.82 277.02 429.3C280.55 422.45 284.67 424.53 289.5 420.21C292.65 417.38 291.64 414.76 296.04 412.25C296.48 409.42 296.93 406.58 297.37 403.75C301.16 399.62 304.96 395.5 308.75 391.37C310.13 392 311.5 392.62 312.88 393.25C313.77 399.72 306.87 400.27 305.43 405.51C304.05 410.5 307.09 415.3 306.01 420.25C305.37 423.16 302.53 424.56 302.25 427.5C304.38 427.58 306.52 427.67 308.65 427.75C309.35 426.76 310.05 425.77 310.75 424.77C311.58 425.48 312.42 426.19 313.25 426.9C317.58 424.24 319.83 423.5 325.16 424.25C325.69 424.99 326.22 425.74 326.75 426.48C330.11 425.47 325.36 406.07 333.47 404.58ZM131.5 420.87C135.89 421.89 140.37 432.68 140.01 436.75C133.98 441.93 126.1 445.79 122.16 453.38C119.39 458.73 123.18 466.61 116.03 469.25C115.74 471.92 117.23 472.53 119.75 472.18C120.92 470.5 122.08 468.83 123.25 467.15C124.08 472.54 124.92 477.94 125.75 483.34C161.83 483.57 197.92 483.79 234 484.02C198.5 484.26 163 484.5 127.5 484.75C127 484.74 126.5 484.74 126 484.74C125.83 484.78 125.67 484.82 125.5 484.86C125 484.85 124.5 484.85 124 484.85C124 484.65 124 484.45 124 484.25C123.75 484 123.5 483.75 123.25 483.5C122.75 483.5 122.25 483.5 121.75 483.5C121.17 483.95 120.58 484.4 120 484.86C119.33 484.86 118.67 484.86 118 484.86C117.65 484.49 117.31 484.12 116.96 483.75C118.14 483.49 119.32 483.22 120.5 482.96C120.65 482.81 120.8 482.65 120.95 482.5C120.11 481.6 119.27 480.7 118.43 479.8C118.28 479.73 118.14 479.66 118 479.59C116.99 479.33 115.98 479.06 114.97 478.79C114.82 478.72 114.66 478.64 114.5 478.56C112.5 478.05 110.5 477.54 108.5 477.03C108.37 477.19 108.25 477.34 108.12 477.5C108.33 478.05 108.54 478.59 108.75 479.14C110.83 480.84 112.92 482.55 115 484.25C114 484.42 113 484.58 112 484.75C111.69 484.72 111.39 484.69 111.08 484.66C98.72 484.02 86.36 483.39 74 482.75C77 481.53 80 480.31 83 479.09C83.19 479.18 83.39 479.27 83.58 479.37C83.81 479.74 84.03 480.12 84.25 480.5C84.92 480.17 85.58 479.83 86.25 479.5C86.67 479.44 87.08 479.37 87.5 479.31C90.33 479.57 93.17 479.83 96 480.09C96.42 480.4 96.83 480.7 97.25 481C97.39 480.8 97.52 480.6 97.66 480.4C98.94 480.56 100.22 480.71 101.5 480.87C101.62 480.88 101.75 480.89 101.87 480.9C102.16 480.93 102.46 480.97 102.75 481C102.83 480.53 102.92 480.05 103 479.58C103.31 479.33 103.62 479.08 103.93 478.83C104.21 478.89 104.48 478.94 104.75 479C104.78 478.65 104.81 478.29 104.84 477.94C105.69 475.87 106.54 473.81 107.39 471.74C107.41 471.66 107.43 471.58 107.44 471.5C107.73 471.13 108.03 470.76 108.32 470.39C108.46 470.59 108.61 470.8 108.75 471C109 470.68 109.25 470.35 109.5 470.03C109.45 469.93 109.4 469.84 109.35 469.75C109.65 469.02 109.95 468.29 110.25 467.56C110.33 467.54 110.42 467.52 110.5 467.5C110.75 467.83 111 468.17 111.25 468.5C111.5 468.08 111.75 467.67 112 467.25C111.84 467.02 111.68 466.79 111.51 466.56C111.6 466.3 111.69 466.05 111.78 465.79C111.85 465.36 111.91 464.93 111.98 464.5C112.07 464.17 112.16 463.83 112.25 463.5C112.52 462 112.79 460.5 113.06 459C113.14 458.64 113.23 458.27 113.31 457.91C113.46 457.77 113.6 457.64 113.75 457.5C113.85 457 113.95 456.5 114.06 456C114.14 455.78 114.21 455.56 114.29 455.34C114.55 454.73 114.8 454.11 115.05 453.5C115.14 453.31 115.23 453.11 115.31 452.92C115.54 452.45 115.77 451.97 115.99 451.5C116.09 451.27 116.18 451.04 116.28 450.8C116.53 450.2 116.78 449.6 117.03 449C117.27 449 117.51 449 117.75 449C118 448.75 118.25 448.5 118.5 448.25C118.43 447.93 118.35 447.61 118.28 447.28C118.54 446.36 118.81 445.43 119.07 444.5C119.15 444.31 119.23 444.11 119.31 443.92C121.23 440.11 123.14 436.31 125.05 432.5C125.54 432.25 126.02 432 126.5 431.75C126.29 431.5 126.07 431.25 125.86 431C125.92 430.83 125.98 430.67 126.04 430.5C126.13 430.3 126.22 430.1 126.31 429.9C127.2 428.94 128.09 427.97 128.98 427C129.32 426.58 129.66 426.17 130 425.75C129.8 425.61 129.6 425.47 129.4 425.33C129.73 424.46 130.06 423.59 130.39 422.72C130.4 422.65 130.41 422.57 130.43 422.5C130.79 421.96 131.14 421.42 131.5 420.87ZM106.25 478C106.17 478.08 106.08 478.17 106 478.25C106.08 478.33 106.17 478.42 106.25 478.5C106.33 478.42 106.42 478.33 106.5 478.25C106.42 478.17 106.33 478.08 106.25 478ZM108.58 484.62C96.06 484.7 83.53 484.77 71 484.85C83.53 484.77 96.06 484.7 108.58 484.62ZM65.5 484.84C65 484.84 64.5 484.84 64 484.84C64.08 484.73 64.17 484.61 64.25 484.5C64.67 484.61 65.08 484.73 65.5 484.84Z"></path>
<path stroke-linejoin="round" stroke-width="0.25" stroke="#b28872" fill-rule="evenodd" fill="#b28872" d="M319.7 296.55C320.08 303.89 317.87 316.92 310.32 320.25C306.92 336.79 311.8 356.62 303.63 372.08C301.57 371.44 304.73 361.95 304.8 359.74C305.17 348.7 303.82 333.49 300.75 322.85C288.75 321.58 276.75 320.31 264.75 319.04C263.03 314.6 256.32 302.19 257.81 298.25C261.79 298.23 265.77 298.21 269.75 298.19C272.89 293.57 277.99 293.65 283.63 291.75C284.56 287.28 287.54 282.31 292.84 283.25C294.47 284.05 296.11 284.84 297.75 285.64C298.59 281.02 302.24 277.52 302.52 273.75C303.07 266.15 296.44 251.7 305.25 246.89C314.15 251.31 310.54 288.72 314.03 296.75C315.92 296.68 317.81 296.61 319.7 296.55ZM232.75 321.88C227.31 326.93 209.96 325.22 203.43 323.25C201.57 320.48 200.06 307.02 200.83 303.7C201.29 301.67 203.32 301.09 203.39 298.75C203.52 294.69 200.58 290.68 200.92 286.25C201.13 283.57 203.04 282.1 203.01 278.75C202.96 273.92 202.85 263.85 209.36 263.23C216.71 262.53 215.6 271.11 217.35 275.39C220.52 283.21 220.27 293.72 223.12 300.16C225.65 305.91 233.56 315.57 232.75 321.88Z"></path>
<path stroke-linejoin="round" stroke-width="0.25" stroke="#364159" fill-rule="evenodd" fill="#364159" d="M335.76 403.5C337.43 409.43 331.74 414.8 332.84 419.5C333.8 423.56 339.81 425.85 341.88 429.33C345.74 435.81 341.51 440.82 342.82 447C343.47 450.06 347.5 450.95 348.2 454.25C353.81 457.04 357.82 462.49 364.88 464.33C369.63 465.57 376.74 463.68 381.75 463.7C396.46 463.75 412.34 464.23 426.72 467.25C426.73 473.05 426.74 478.86 426.75 484.66C390.17 484.73 353.58 484.8 317 484.88C296.17 484.67 275.33 484.46 254.5 484.25C274.08 479.32 297.21 488.86 316.77 483.83C322.67 482.31 327.42 478.64 332.75 476C332.33 474.25 331.91 472.5 331.49 470.75C334.93 470.92 338.38 471.08 341.83 471.25C339.33 468.75 336.84 466.25 334.35 463.75C336.48 463.78 338.62 463.81 340.75 463.84C346.78 454.04 335.28 443.74 332.66 436.79C331.54 433.81 332.98 430.81 332.08 427.75C332.73 426.92 333.37 426.08 334.01 425.25C332.51 423.92 331.02 422.58 329.52 421.25C330.84 415.69 332.16 410.14 333.47 404.58C333.9 404.01 334.32 403.44 334.75 402.86C335.09 403.07 335.43 403.29 335.76 403.5Z"></path>
<path stroke-linejoin="round" stroke-width="0.25" stroke="#13141a" fill-rule="evenodd" fill="#13141a" d="M130.43 422.5C130.41 422.57 130.4 422.65 130.39 422.72C130.4 422.65 130.41 422.57 130.43 422.5ZM129.4 425.33C129.6 425.47 129.8 425.61 130 425.75C129.66 426.17 129.32 426.58 128.98 427C129.12 426.44 129.26 425.89 129.4 425.33ZM126.31 429.9C126.22 430.1 126.13 430.3 126.04 430.5C126.13 430.3 126.22 430.1 126.31 429.9ZM125.86 431C126.07 431.25 126.29 431.5 126.5 431.75C126.02 432 125.54 432.25 125.05 432.5C125.32 432 125.59 431.5 125.86 431ZM119.31 443.92C119.23 444.11 119.15 444.31 119.07 444.5C119.15 444.31 119.23 444.11 119.31 443.92ZM118.28 447.28C118.35 447.61 118.43 447.93 118.5 448.25C118.25 448.5 118 448.75 117.75 449C117.51 449 117.27 449 117.03 449C117.44 448.43 117.86 447.86 118.28 447.28ZM116.28 450.8C116.18 451.04 116.09 451.27 115.99 451.5C116.09 451.27 116.18 451.04 116.28 450.8ZM115.31 452.92C115.23 453.11 115.14 453.31 115.05 453.5C115.14 453.31 115.23 453.11 115.31 452.92ZM114.29 455.34C114.21 455.56 114.14 455.78 114.06 456C114.14 455.78 114.21 455.56 114.29 455.34ZM113.31 457.91C113.23 458.27 113.14 458.64 113.06 459C113.14 458.64 113.23 458.27 113.31 457.91ZM112.25 463.5C112.16 463.83 112.07 464.17 111.98 464.5C112.07 464.17 112.16 463.83 112.25 463.5ZM111.78 465.79C111.69 466.05 111.6 466.3 111.51 466.56C111.6 466.3 111.69 466.05 111.78 465.79ZM111.51 466.56C111.68 466.79 111.84 467.02 112 467.25C111.75 467.67 111.5 468.08 111.25 468.5C111 468.17 110.75 467.83 110.5 467.5C110.84 467.19 111.18 466.87 111.51 466.56ZM109.5 470.03C109.25 470.35 109 470.68 108.75 471C108.61 470.8 108.46 470.59 108.32 470.39C108.71 470.27 109.11 470.15 109.5 470.03ZM107.44 471.5C107.43 471.58 107.41 471.66 107.39 471.74C107.41 471.66 107.43 471.58 107.44 471.5ZM108.5 477.03C110.5 477.54 112.5 478.05 114.5 478.56C114.66 478.64 114.82 478.72 114.97 478.79C115.98 479.06 116.99 479.33 118 479.59C118.14 479.66 118.28 479.73 118.43 479.8C119.27 480.7 120.11 481.6 120.95 482.5C120.8 482.65 120.65 482.81 120.5 482.96C119.32 483.22 118.14 483.49 116.96 483.75C117.31 484.12 117.65 484.49 118 484.86C116 484.82 114 484.78 112 484.75C113 484.58 114 484.42 115 484.25C112.92 482.55 110.83 480.84 108.75 479.14C108.54 478.59 108.33 478.05 108.12 477.5C108.25 477.34 108.37 477.19 108.5 477.03ZM104.84 477.94C104.81 478.29 104.78 478.65 104.75 479C104.48 478.94 104.21 478.89 103.93 478.83C104.24 478.53 104.54 478.24 104.84 477.94ZM106.25 478C106.33 478.08 106.42 478.17 106.5 478.25C106.42 478.33 106.33 478.42 106.25 478.5C106.17 478.42 106.08 478.33 106 478.25C106.08 478.17 106.17 478.08 106.25 478ZM83 479.09C80 480.31 77 481.53 74 482.75C86.36 483.39 98.72 484.02 111.08 484.66C110.97 484.75 110.86 484.84 110.75 484.93C110.03 484.83 109.31 484.73 108.58 484.62C96.06 484.7 83.53 484.77 71 484.85C69.17 484.84 67.33 484.84 65.5 484.84C65.08 484.73 64.67 484.61 64.25 484.5C64.17 484.61 64.08 484.73 64 484.84C63.14 484.81 62.28 484.78 61.42 484.75C65.86 480.29 76.9 477.71 83 479.09ZM87.5 479.31C87.08 479.37 86.67 479.44 86.25 479.5C85.58 479.83 84.92 480.17 84.25 480.5C84.03 480.12 83.81 479.74 83.58 479.37C84.89 479.35 86.19 479.33 87.5 479.31ZM103 479.58C102.92 480.05 102.83 480.53 102.75 481C102.46 480.97 102.16 480.93 101.87 480.9C102.25 480.46 102.62 480.02 103 479.58ZM96 480.09C96.55 480.2 97.11 480.3 97.66 480.4C97.52 480.6 97.39 480.8 97.25 481C96.83 480.7 96.42 480.4 96 480.09ZM101.5 480.87C101.62 480.88 101.75 480.89 101.87 480.9C101.75 480.89 101.62 480.88 101.5 480.87ZM124 484.85C122.67 484.85 121.33 484.85 120 484.86C120.58 484.4 121.17 483.95 121.75 483.5C122.25 483.5 122.75 483.5 123.25 483.5C123.5 483.75 123.75 484 124 484.25C124 484.45 124 484.65 124 484.85ZM234 484.02C234.33 483.99 234.67 483.95 235 483.92C235.17 484.19 235.33 484.45 235.5 484.72C199.5 484.73 163.5 484.74 127.5 484.75C163 484.5 198.5 484.26 234 484.02ZM126 484.74C125.83 484.78 125.67 484.82 125.5 484.86C125.67 484.82 125.83 484.78 126 484.74Z"></path>
<path stroke-linejoin="round" stroke-width="0.25" stroke="#ffffff" fill-rule="evenodd" fill="#ffffff" d="M309.57 140C309.58 140.17 309.58 140.33 309.59 140.5C309.58 140.33 309.58 140.17 309.57 140Z"></path>
</svg>