<svg version="1.1" xmlns="http://www.w3.org/2000/svg" xmlns:xlink="http://www.w3.org/1999/xlink" width="153.92487" height="193.64119" viewBox="0,0,153.92487,193.64119"><defs><linearGradient x1="220.33713" y1="166.80097" x2="220.33713" y2="83.01027" gradientUnits="userSpaceOnUse" id="color-1"><stop offset="0" stop-color="#18151c"/><stop offset="1" stop-color="#0f050d"/></linearGradient></defs><g transform="translate(-163.03756,-83.01026)"><g stroke-miterlimit="10"><g fill="none" stroke="#000000" stroke-width="10" stroke-linecap="round"><path d="M217.41117,157.09679l29.96792,66.24488"/><path d="M183.5001,190.21923l20.11006,24.84183l24.44751,-39.03716l60.6402,19.2109l6.70335,16.1669"/><path d="M175.13523,178.27926l8.67492,14.98396h-15.77259"/><path d="M185.38741,194.84048l3.94315,-14.58965"/><path d="M311.96243,199.57226l-25.23614,-7.09767l14.58965,-9.85787"/></g><path d="M235.55532,264.9481l-15.77259,-42.98031l27.20772,2.36589l23.65888,-14.98396l16.1669,62.30173" fill="none" stroke="#000000" stroke-width="10" stroke-linecap="round"/><g stroke="none" stroke-linecap="butt"><path d="M261.86658,83.01027v83.79071h-83.05891v-83.7907z" fill="url(#color-1)" stroke-width="0"/><path d="M179.35652,151.2503l-0.18295,-67.87413h71.89901c0,0 3.78756,10.86687 4.29254,19.37672c0.90017,15.16961 0.64709,63.86513 0.64709,63.86513l-64.48402,-0.11809c0,0 -5.90509,-3.68891 -7.97206,-6.27857c-1.98711,-2.48961 -4.19961,-8.97107 -4.19961,-8.97107z" fill="#b58464" stroke-width="1.5"/><path d="M179.68898,102.42829c0.98484,-0.04611 2.18006,0.66948 3.0756,1.10862c1.10883,0.54372 3.98086,-0.01559 5.14012,-0.55857c1.73809,-0.81409 2.75281,-1.62151 4.23931,-2.45625c0.32306,-0.18142 1.75769,-0.33913 2.14345,-0.65556c0.11917,-0.09775 2.33907,-1.50272 2.59302,-1.50272c2.35702,0 3.09359,0.73657 3.09359,3.09359c0,1.4996 -2.48635,2.11903 -3.32011,2.79493c-2.85114,2.3113 -9.14701,4.92496 -13.24454,4.46827c-1.10248,-0.12288 -5.60558,-1.09385 -5.6791,-2.4173c-0.25403,-0.39131 -0.40157,-0.85814 -0.40157,-1.35944c0,-1.22776 0.88504,-2.24881 2.05193,-2.45996c0.09689,-0.03131 0.19936,-0.05052 0.30832,-0.05562z" fill="#4d2617" stroke-width="0.5"/><path d="M212.41212,100.52208c2.48092,-1.39554 4.89837,1.91669 7.4842,1.92178c6.51144,0.01282 12.48737,0.51417 18.89474,0.47877c2.29496,-0.01268 5.01437,-0.33861 7.26715,-0.85317c0.97363,-0.22239 1.98598,-0.84953 3.00648,-0.11107c1.38198,1.00003 1.27108,3.39281 0,4.375c-1.84522,1.42585 -7.62637,1.55698 -9.86794,1.58923c-3.57695,0.05147 -6.25733,-0.46868 -9.50241,-0.47877c-3.79632,-0.01181 -10.10043,0.91952 -14.18033,-1.09304c-0.92034,-0.45399 -2.61593,-0.60329 -3.12073,-1.4867c-0.73685,-0.43488 -1.23117,-1.23698 -1.23117,-2.15454c0,-0.81357 0.38862,-1.53638 0.99036,-1.99291c0.07697,-0.07451 0.16278,-0.14011 0.25964,-0.19459z" fill="#4d2617" stroke-width="0.5"/><path d="M180.17465,112.49144c0.23706,-0.13335 0.46945,-0.21106 0.698,-0.25135c0.17758,-0.04002 0.36233,-0.06115 0.552,-0.06115c0.26899,0 0.52805,0.04248 0.77085,0.1211c0.51223,0.08622 1.01238,0.17933 1.51163,0.03849c3.91385,-1.10409 7.82997,-2.70555 12.07337,-1.78681c1.34283,0.29074 3.09115,2.02143 3.48051,3.1895c0.72388,2.17163 -2.87519,4.11519 -4.28388,4.85634c-3.7447,1.97017 -8.04843,1.48242 -11.95745,-0.08664c-0.6881,-0.2762 -0.93824,-1.10235 -1.39906,-1.33198c-0.0045,-0.00224 -0.00906,-0.00442 -0.01369,-0.00654c-0.06019,0.00434 -0.12097,0.00654 -0.18227,0.00654c-0.24288,0 -0.47767,-0.03464 -0.69971,-0.09924c-1.04016,-0.30264 -1.80029,-1.26293 -1.80029,-2.40076c0,-0.81357 0.38862,-1.53638 0.99036,-1.99291c0.07697,-0.07451 0.16278,-0.14011 0.25964,-0.19459z" fill="#837a73" stroke-width="0.5"/><path d="M221.50194,111.68459c2.44768,-0.1146 5.27243,1.56196 7.81028,1.61149c4.80224,0.09373 7.61292,0.17004 13.86418,0.15959c0.77211,-0.00129 2.23631,-0.70323 2.86294,-0.49435c2.25183,0.75061 2.68616,1.6718 1.95656,3.91312c-0.59793,1.83684 -3.99282,2.85729 -5.61471,3.20845c-1.82266,0.39462 -3.66362,-0.01917 -5.42886,-0.0313c-1.9243,-0.01322 -2.30007,-0.13913 -3.6706,-0.15959c-3.03505,-0.04531 -6.3727,-0.42909 -9.32467,-1.09687c-0.81981,-0.18545 -2.402,-0.12296 -3.08659,-0.65195c-0.7055,-0.54516 -1.28564,-1.83543 -1.32721,-2.58357c-0.25403,-0.39131 -0.40157,-0.85814 -0.40157,-1.35944c0,-1.22776 0.88504,-2.24881 2.05193,-2.45996c0.09689,-0.03131 0.19936,-0.05052 0.30832,-0.05562z" fill="#837a73" stroke-width="0.5"/><path d="M192.2234,117.06928c0.59845,0.89768 -1.45018,2.77618 -1.86074,3.03755c-2.27828,1.45042 -6.66585,0.19897 -6.66585,-2.8546c0,-2.71075 3.08027,-8.52507 6.46658,-5.30798c0.52343,0.49727 2.71035,2.72024 2.06001,3.69576z" fill="#180000" stroke-width="0.5"/><path d="M236.64329,113.13649c3.54922,0.28012 3.12276,4.74486 1.72877,6.6026c-1.89376,2.52376 -7.25856,0.84322 -8.93201,-1.10914c-0.49902,-0.5822 -1.323,-3.24318 -0.37741,-3.78352c0.43488,-0.73685 1.23698,-1.23117 2.15454,-1.23117c0.15913,0 0.31478,0.01487 0.46565,0.04329c1.51559,0.05272 3.34337,-0.64969 4.96046,-0.52206z" fill="#180000" stroke-width="0.5"/><path d="M214.87565,150.61638c1.68382,-0.83061 5.6099,-1.89788 7.20603,-0.52976c1.30675,1.12007 2.72134,2.52065 3.55158,4.01052c0.48731,0.87447 0.58909,1.73424 0.9264,2.65075c3.2035,8.70437 -9.33039,10.83897 -14.97223,9.58522c-3.3577,-0.74616 -4.58406,-2.83723 -6.09302,-5.85514c-0.72813,-1.45625 -1.93534,-2.38631 -2.33214,-4.06715c-0.27779,-1.17673 -0.78314,-3.97386 0.20614,-4.53917c0.43488,-0.73685 1.23698,-1.23117 2.15454,-1.23117c0.43572,0 0.84541,0.11147 1.2021,0.30744c2.35258,0.46029 6.23512,0.61334 8.1506,-0.33154z" fill="#450c03" stroke-width="0.5"/><path d="M207.96361,165.08311c-2.60032,-4.6227 4.52084,-8.57809 7.77231,-9.39095c1.05492,-0.26373 3.04166,-0.38462 3.92196,-1.01341c1.95943,-1.39959 5.02349,-1.96821 6.79319,0.09643c0.92669,1.08113 0.10188,2.95562 0.68404,3.94674c2.44625,4.16473 -2.43337,8.24192 -6.29875,9.07881c-1.36441,0.29541 -3.07236,0.12288 -4.29805,0.12829c-1.26292,0.00557 -4.74514,-1.23609 -5.1407,-1.92834c-0.36692,0.21146 -0.79257,0.33242 -1.24648,0.33242c-0.81357,0 -1.53638,-0.38862 -1.99291,-0.99036c-0.07451,-0.07697 -0.14011,-0.16278 -0.19459,-0.25964z" fill="#93594b" stroke-width="0.5"/><path d="M229.5897,148.76839c-0.89443,0.44721 -1.34164,-0.44721 -1.34164,-0.44721l-0.31918,-0.63837c-1.35966,-2.71931 -2.46355,-5.87275 -4.22578,-8.32085c-1.27382,-1.7696 -3.09168,-1.86824 -3.82089,-4.14018c0,0 -0.27472,-0.96152 0.6868,-1.23625c0.96152,-0.27472 1.23625,0.6868 1.23625,0.6868c0.38078,1.67765 2.4997,2.12697 3.52032,3.52021c1.84495,2.51852 2.98781,5.78716 4.39215,8.59584l0.31918,0.63837c0,0 0.44721,0.89443 -0.44721,1.34164z" fill="#7d472f" stroke-width="0.5"/><path d="M194.28281,146.1872c-0.66251,-0.66251 -0.08357,-1.32502 -0.00791,-1.40595c0.99556,-3.006 2.1372,-6.72644 5.34612,-7.91023c0,0 0.94868,-0.31623 1.26491,0.63246c0.31623,0.94868 -0.63246,1.26491 -0.63246,1.26491c-2.51258,0.683 -3.43626,4.71125 -4.15529,6.86834l-0.40117,0.55047c0,0 -0.70711,0.70711 -1.41421,0z" fill="#7d472f" stroke-width="0.5"/><path d="M201.94882,124.76476c0.44721,0.89443 -0.44721,1.34164 -0.44721,1.34164l-0.86581,0.42668c-0.8119,0.65764 -2.35542,1.548 -2.79051,2.53033c-0.34188,0.77189 0.88551,2.87247 1.00723,3.66753c0,0 0.14142,0.98995 -0.84853,1.13137c-0.98995,0.14142 -1.13137,-0.84853 -1.13137,-0.84853c-0.19761,-1.52861 -1.49362,-3.00307 -0.90787,-4.63122c0.5137,-1.4279 2.45461,-2.6325 3.59315,-3.53415l1.04929,-0.53087c0,0 0.89443,-0.44721 1.34164,0.44721z" fill="#7d472f" stroke-width="0.5"/><path d="M214.09844,110.68915c0,-0.13001 0.0169,-0.24312 0.04632,-0.34153c-4.53118,-3.49506 -9.75885,-10.44144 -10.5693,-16.11456c0,0 -0.14142,-0.98995 0.84853,-1.13137c0.98995,-0.14142 1.13137,0.84853 1.13137,0.84853c0.78053,5.4637 5.9687,11.69263 10.16116,15.15271c0.19851,0.37967 0.39702,0.75934 0.59554,1.13901l-1.21361,1.44721c0,0 -1,0 -1,-1z" fill="#7d472f" stroke-width="0.5"/><path d="M202.45419,121.40481c-0.98058,-0.19612 -0.78446,-1.1767 -0.78446,-1.1767l0.19149,-0.91807c2.01325,-5.74697 -1.39371,-11.87192 -4.93911,-16.29495c0,0 -0.6247,-0.78087 0.15617,-1.40556c0.78087,-0.6247 1.40556,0.15617 1.40556,0.15617c4.06093,5.08536 7.37453,11.63765 5.27474,18.1768l-0.12769,0.67785c0,0 -0.19612,0.98058 -1.1767,0.78446z" fill="#7d472f" stroke-width="0.5"/><path d="M220.87923,124.94864c0.29618,0.07159 0.75061,0.29128 0.75061,0.96539c0,1 -1,1 -1,1l-0.60171,-0.14251c-3.42511,-2.07328 -4.32703,-4.68743 -5.25244,-8.37704c0,0 -0.24254,-0.97014 0.72761,-1.21268c0.97014,-0.24254 1.21268,0.72761 1.21268,0.72761c0.77345,3.10318 1.34072,5.28983 4.16325,7.03923z" fill="#7d472f" stroke-width="0.5"/><path d="M216.35243,131.90467c-0.49614,0.86824 -1.36438,0.3721 -1.36438,0.3721l-0.52816,-0.30673c-3.44889,-1.63989 -4.00012,-5.31051 -2.29559,-8.45358c0,0 0.47885,-0.8779 1.35675,-0.39904c0.8779,0.47885 0.39904,1.35675 0.39904,1.35675c-1.12084,2.04133 -1.08251,4.63649 1.36741,5.67515l0.69284,0.39098c0,0 0.86824,0.49614 0.3721,1.36438z" fill="#7d472f" stroke-width="0.5"/><path d="M214.463,138.29345c-0.12841,0.60407 -0.80585,0.72724 -0.80585,0.72724l-1.13824,0.19056c-0.46429,-0.00836 -0.91162,-0.14864 -1.3361,-0.36304l-0.12428,0.27341l-0.68942,-0.31337c-0.03187,0.06225 -0.06369,0.12851 -0.0955,0.19908c0,0 -0.44721,0.89443 -1.34164,0.44721c-0.89443,-0.44721 -0.44721,-1.34164 -0.44721,-1.34164c0.94081,-1.76855 2.6203,-2.96161 4.77342,-2.55785c0.65426,0.12269 1.67813,0.00087 1.89494,0.63024c0.4244,1.23201 0.00697,1.82229 -0.69011,2.10817z" fill="#7d472f" stroke-width="0.5"/><path d="M204.60468,139.09454c-0.44721,0.89443 -1.34164,0.44721 -1.34164,0.44721l-0.91487,-0.49588c-0.26164,-0.23257 -0.52329,-0.46514 -0.78493,-0.69771c0,0 -0.74741,-0.66436 -0.08305,-1.41177c0.66436,-0.74741 1.41177,-0.08305 1.41177,-0.08305c0.26164,0.23257 0.52329,0.46514 0.78493,0.69771l0.48056,0.20184c0,0 0.89443,0.44721 0.44721,1.34164z" fill="#7d472f" stroke-width="0.5"/></g></g></g></svg>