<svg version="1.1" xmlns="http://www.w3.org/2000/svg" xmlns:xlink="http://www.w3.org/1999/xlink" width="43.3" height="39.05" viewBox="0,0,43.3,39.05"><g transform="translate(-219.06681,-87.61469)"><g data-paper-data="{&quot;isPaintingLayer&quot;:true}" fill-rule="nonzero" stroke-linejoin="miter" stroke-miterlimit="10" stroke-dasharray="" stroke-dashoffset="0" style="mix-blend-mode: normal"><path d="M232.66775,102.62574c0,6.03625 -2.12754,10.9296 -4.752,10.9296c-2.62446,0 -4.752,-4.89335 -4.752,-10.9296c0,-6.03625 2.12754,-10.92959 4.752,-10.92959c2.62446,0 4.752,4.89334 4.752,10.92959z" fill="#000000" stroke="none" stroke-width="0" stroke-linecap="butt"/><path d="M254.29974,103.34894c0,6.03625 -2.12754,10.92959 -4.75199,10.92959c-2.62446,0 -4.752,-4.89335 -4.752,-10.92959c0,-6.03625 2.12754,-10.9296 4.752,-10.9296c2.62446,0 4.75199,4.89335 4.75199,10.9296z" fill="#000000" stroke="none" stroke-width="0" stroke-linecap="butt"/><path d="M220.31681,89.66469l12.4,5" fill="none" stroke="#000000" stroke-width="2.5" stroke-linecap="round"/><path d="M261.11681,88.86469l-15.8,5.8" fill="none" stroke="#000000" stroke-width="2.5" stroke-linecap="round"/><path d="M227.31681,121.96469c0,-2.59574 2.10426,-4.7 4.7,-4.7c2.59574,0 4.7,2.10426 4.7,4.7c0,2.59574 -2.10426,4.7 -4.7,4.7c-2.59574,0 -4.7,-2.10426 -4.7,-4.7z" fill="#000000" stroke="none" stroke-width="0" stroke-linecap="butt"/></g></g></svg>