<svg viewBox="0,0,59,202" height="202" width="59" xmlns:xlink="http://www.w3.org/1999/xlink" xmlns="http://www.w3.org/2000/svg" version="1.1"><g transform="translate(-226.625,-99)"><g style="mix-blend-mode: normal" stroke-dashoffset="0" stroke-dasharray="" stroke-miterlimit="10" stroke-linejoin="miter" fill-rule="nonzero" data-paper-data="{&quot;isPaintingLayer&quot;:true}"><path stroke-linecap="round" stroke-width="2" stroke="#000000" fill="none" d="M234.625,300l12,-86l3,76"></path><path stroke-linecap="round" stroke-width="2" stroke="#000000" fill="none" d="M247.625,219l6,-77"></path><path stroke-linecap="round" stroke-width="2" stroke="#000000" fill="none" d="M227.625,171l22,-1l20,2"></path><path stroke-linecap="butt" stroke-width="2" stroke="#000000" fill="#fffaab" d="M284.625,123.5c0,12.97869 -9.62588,23.5 -21.5,23.5c-11.87412,0 -21.5,-10.52131 -21.5,-23.5c0,-12.97869 9.62588,-23.5 21.5,-23.5c11.87412,0 21.5,10.52131 21.5,23.5z"></path><path stroke-linecap="butt" stroke-width="0.5" stroke="none" fill="#000000" d="M276.125,119c0,-1.38071 1.11929,-2.5 2.5,-2.5c1.38071,0 2.5,1.11929 2.5,2.5c0,1.38071 -1.11929,2.5 -2.5,2.5c-1.38071,0 -2.5,-1.11929 -2.5,-2.5z"></path><path stroke-linecap="butt" stroke-width="0.5" stroke="none" fill="#000000" d="M261.125,119c0,-1.38071 1.11929,-2.5 2.5,-2.5c1.38071,0 2.5,1.11929 2.5,2.5c0,1.38071 -1.11929,2.5 -2.5,2.5c-1.38071,0 -2.5,-1.11929 -2.5,-2.5z"></path></g></g></svg>