<svg version="1.1" xmlns="http://www.w3.org/2000/svg" xmlns:xlink="http://www.w3.org/1999/xlink" width="37.02929" height="40.34606" viewBox="0,0,37.02929,40.34606"><g transform="translate(-217.27045,-91.69614)"><g data-paper-data="{&quot;isPaintingLayer&quot;:true}" fill="#000000" fill-rule="nonzero" stroke="none" stroke-linecap="butt" stroke-linejoin="miter" stroke-miterlimit="10" stroke-dasharray="" stroke-dashoffset="0" style="mix-blend-mode: normal"><path d="M232.66775,102.62574c0,6.03625 -2.12754,10.9296 -4.752,10.9296c-2.62446,0 -4.752,-4.89335 -4.752,-10.9296c0,-6.03625 2.12754,-10.92959 4.752,-10.92959c2.62446,0 4.752,4.89334 4.752,10.92959z" stroke-width="0"/><path d="M254.29974,103.34894c0,6.03625 -2.12754,10.92959 -4.75199,10.92959c-2.62446,0 -4.752,-4.89335 -4.752,-10.92959c0,-6.03625 2.12754,-10.9296 4.752,-10.9296c2.62446,0 4.75199,4.89335 4.75199,10.9296z" stroke-width="0"/><path d="M239.6007,123.94857l-0.44382,0.40949c-0.38525,0.4858 -0.52651,1.2125 -0.39321,1.81801c-0.04008,0.8767 0.229,1.82496 -0.12023,2.6301c-0.76863,1.77208 -3.2998,1.6899 -4.82346,2.07119c-3.66375,0.91684 -7.5153,2.04164 -11.09855,0.08642c-3.29548,-1.7982 -4.56776,-6.00561 -5.4173,-9.39593c0,0 -0.24549,-0.98197 0.58898,-1.39954c0.18005,-0.95363 1.2237,-0.95363 1.2237,-0.95363c6.40705,0 12.86818,0.1248 19.17678,1.01256l1.02322,-0.01256c0,0 1.25,0 1.25,1.25c0,0.65871 -0.34712,0.9703 -0.67551,1.11769c0.34406,0.73153 -0.2906,1.36619 -0.2906,1.36619z" stroke-width="0.5"/></g></g></svg>