<svg version="1.1" xmlns="http://www.w3.org/2000/svg" xmlns:xlink="http://www.w3.org/1999/xlink" width="493.33333" height="352.26937" viewBox="0,0,493.33333,352.26937"><defs><linearGradient x1="240.9276" y1="0.00001" x2="240.9276" y2="62.27395" gradientUnits="userSpaceOnUse" id="color-1"><stop offset="0" stop-color="#636363" stop-opacity="0.74902"/><stop offset="1" stop-color="#ababab" stop-opacity="0.50196"/></linearGradient><linearGradient x1="424.62628" y1="22.33417" x2="436.14801" y2="22.33417" gradientUnits="userSpaceOnUse" id="color-2"><stop offset="0" stop-color="#ebda85"/><stop offset="1" stop-color="#b0a236"/></linearGradient><linearGradient x1="268.79841" y1="45.48232" x2="281.84479" y2="45.48232" gradientUnits="userSpaceOnUse" id="color-3"><stop offset="0" stop-color="#ebda85"/><stop offset="1" stop-color="#b0a236"/></linearGradient><linearGradient x1="9.52256" y1="30.37882" x2="73.36706" y2="30.37882" gradientUnits="userSpaceOnUse" id="color-4"><stop offset="0" stop-color="#ffffff" stop-opacity="0"/><stop offset="0.49292" stop-color="#ffffff" stop-opacity="0.25098"/><stop offset="1" stop-color="#ffffff" stop-opacity="0"/></linearGradient><linearGradient x1="23.59001" y1="155.77819" x2="127.81564" y2="155.77819" gradientUnits="userSpaceOnUse" id="color-5"><stop offset="0" stop-color="#8a8a8a"/><stop offset="0.49292" stop-color="#555555"/><stop offset="1" stop-color="#8a8a8a"/></linearGradient><linearGradient x1="23.59008" y1="155.77819" x2="127.81564" y2="155.77819" gradientUnits="userSpaceOnUse" id="color-6"><stop offset="0" stop-color="#8a8a8a"/><stop offset="0.49292" stop-color="#555555"/><stop offset="1" stop-color="#8a8a8a"/></linearGradient><linearGradient x1="30.69378" y1="211.14491" x2="42.48731" y2="211.14491" gradientUnits="userSpaceOnUse" id="color-7"><stop offset="0" stop-color="#ebda85"/><stop offset="1" stop-color="#b0a236"/></linearGradient><linearGradient x1="23.59003" y1="155.77819" x2="127.81568" y2="155.77819" gradientUnits="userSpaceOnUse" id="color-8"><stop offset="0" stop-color="#8a8a8a"/><stop offset="0.49292" stop-color="#555555"/><stop offset="1" stop-color="#8a8a8a"/></linearGradient><linearGradient x1="133.21078" y1="155.77819" x2="237.43648" y2="155.77819" gradientUnits="userSpaceOnUse" id="color-9"><stop offset="0" stop-color="#8a8a8a"/><stop offset="0.49292" stop-color="#555555"/><stop offset="1" stop-color="#8a8a8a"/></linearGradient><linearGradient x1="133.21087" y1="155.77819" x2="237.43648" y2="155.77819" gradientUnits="userSpaceOnUse" id="color-10"><stop offset="0" stop-color="#8a8a8a"/><stop offset="0.49292" stop-color="#555555"/><stop offset="1" stop-color="#8a8a8a"/></linearGradient><linearGradient x1="140.31456" y1="211.14491" x2="152.10808" y2="211.14491" gradientUnits="userSpaceOnUse" id="color-11"><stop offset="0" stop-color="#ebda85"/><stop offset="1" stop-color="#b0a236"/></linearGradient><linearGradient x1="133.21083" y1="155.77819" x2="237.43648" y2="155.77819" gradientUnits="userSpaceOnUse" id="color-12"><stop offset="0" stop-color="#8a8a8a"/><stop offset="0.49292" stop-color="#555555"/><stop offset="1" stop-color="#8a8a8a"/></linearGradient><linearGradient x1="242.76436" y1="155.77819" x2="346.98998" y2="155.77819" gradientUnits="userSpaceOnUse" id="color-13"><stop offset="0" stop-color="#8a8a8a"/><stop offset="0.49292" stop-color="#555555"/><stop offset="1" stop-color="#8a8a8a"/></linearGradient><linearGradient x1="242.76439" y1="155.77819" x2="346.98998" y2="155.77819" gradientUnits="userSpaceOnUse" id="color-14"><stop offset="0" stop-color="#8a8a8a"/><stop offset="0.49292" stop-color="#555555"/><stop offset="1" stop-color="#8a8a8a"/></linearGradient><linearGradient x1="249.86813" y1="211.14491" x2="261.66166" y2="211.14491" gradientUnits="userSpaceOnUse" id="color-15"><stop offset="0" stop-color="#ebda85"/><stop offset="1" stop-color="#b0a236"/></linearGradient><linearGradient x1="242.76438" y1="155.77819" x2="346.99" y2="155.77819" gradientUnits="userSpaceOnUse" id="color-16"><stop offset="0" stop-color="#8a8a8a"/><stop offset="0.49292" stop-color="#555555"/><stop offset="1" stop-color="#8a8a8a"/></linearGradient><linearGradient x1="352.18432" y1="155.77819" x2="456.40995" y2="155.77819" gradientUnits="userSpaceOnUse" id="color-17"><stop offset="0" stop-color="#8a8a8a"/><stop offset="0.49292" stop-color="#555555"/><stop offset="1" stop-color="#8a8a8a"/></linearGradient><linearGradient x1="352.1844" y1="155.77819" x2="456.40995" y2="155.77819" gradientUnits="userSpaceOnUse" id="color-18"><stop offset="0" stop-color="#8a8a8a"/><stop offset="0.49292" stop-color="#555555"/><stop offset="1" stop-color="#8a8a8a"/></linearGradient><linearGradient x1="359.28811" y1="211.14491" x2="371.08162" y2="211.14491" gradientUnits="userSpaceOnUse" id="color-19"><stop offset="0" stop-color="#ebda85"/><stop offset="1" stop-color="#b0a236"/></linearGradient><linearGradient x1="352.18435" y1="155.77819" x2="456.40995" y2="155.77819" gradientUnits="userSpaceOnUse" id="color-20"><stop offset="0" stop-color="#8a8a8a"/><stop offset="0.49292" stop-color="#555555"/><stop offset="1" stop-color="#8a8a8a"/></linearGradient><linearGradient x1="354.1002" y1="76.67901" x2="454.4942" y2="76.67901" gradientUnits="userSpaceOnUse" id="color-21"><stop offset="0" stop-color="#ebda85"/><stop offset="1" stop-color="#b0a236"/></linearGradient><linearGradient x1="20.63799" y1="77.14221" x2="144.64978" y2="77.14221" gradientUnits="userSpaceOnUse" id="color-22"><stop offset="0" stop-color="#ffffff" stop-opacity="0.25098"/><stop offset="1" stop-color="#ffffff" stop-opacity="0"/></linearGradient><linearGradient x1="242.76435" y1="155.77819" x2="346.98997" y2="155.77819" gradientUnits="userSpaceOnUse" id="color-23"><stop offset="0" stop-color="#8a8a8a"/><stop offset="0.49292" stop-color="#555555"/><stop offset="1" stop-color="#8a8a8a"/></linearGradient><linearGradient x1="23.58998" y1="288.83031" x2="127.81562" y2="288.83031" gradientUnits="userSpaceOnUse" id="color-24"><stop offset="0" stop-color="#8a8a8a"/><stop offset="0.49292" stop-color="#555555"/><stop offset="1" stop-color="#8a8a8a"/></linearGradient><linearGradient x1="23.59005" y1="288.83031" x2="127.81562" y2="288.83031" gradientUnits="userSpaceOnUse" id="color-25"><stop offset="0" stop-color="#8a8a8a"/><stop offset="0.49292" stop-color="#555555"/><stop offset="1" stop-color="#8a8a8a"/></linearGradient><linearGradient x1="30.69375" y1="344.19703" x2="42.48728" y2="344.19703" gradientUnits="userSpaceOnUse" id="color-26"><stop offset="0" stop-color="#ebda85"/><stop offset="1" stop-color="#b0a236"/></linearGradient><linearGradient x1="23.59" y1="288.83031" x2="127.81563" y2="288.83031" gradientUnits="userSpaceOnUse" id="color-27"><stop offset="0" stop-color="#8a8a8a"/><stop offset="0.49292" stop-color="#555555"/><stop offset="1" stop-color="#8a8a8a"/></linearGradient><linearGradient x1="133.21076" y1="288.83031" x2="237.43645" y2="288.83031" gradientUnits="userSpaceOnUse" id="color-28"><stop offset="0" stop-color="#8a8a8a"/><stop offset="0.49292" stop-color="#555555"/><stop offset="1" stop-color="#8a8a8a"/></linearGradient><linearGradient x1="133.21085" y1="288.83031" x2="237.43645" y2="288.83031" gradientUnits="userSpaceOnUse" id="color-29"><stop offset="0" stop-color="#8a8a8a"/><stop offset="0.49292" stop-color="#555555"/><stop offset="1" stop-color="#8a8a8a"/></linearGradient><linearGradient x1="140.31454" y1="344.19703" x2="152.10806" y2="344.19703" gradientUnits="userSpaceOnUse" id="color-30"><stop offset="0" stop-color="#ebda85"/><stop offset="1" stop-color="#b0a236"/></linearGradient><linearGradient x1="133.21083" y1="288.83031" x2="237.43646" y2="288.83031" gradientUnits="userSpaceOnUse" id="color-31"><stop offset="0" stop-color="#8a8a8a"/><stop offset="0.49292" stop-color="#555555"/><stop offset="1" stop-color="#8a8a8a"/></linearGradient><linearGradient x1="242.76433" y1="288.83031" x2="346.98995" y2="288.83031" gradientUnits="userSpaceOnUse" id="color-32"><stop offset="0" stop-color="#8a8a8a"/><stop offset="0.49292" stop-color="#555555"/><stop offset="1" stop-color="#8a8a8a"/></linearGradient><linearGradient x1="242.76438" y1="288.83031" x2="346.98995" y2="288.83031" gradientUnits="userSpaceOnUse" id="color-33"><stop offset="0" stop-color="#8a8a8a"/><stop offset="0.49292" stop-color="#555555"/><stop offset="1" stop-color="#8a8a8a"/></linearGradient><linearGradient x1="249.86808" y1="344.19703" x2="261.66164" y2="344.19703" gradientUnits="userSpaceOnUse" id="color-34"><stop offset="0" stop-color="#ebda85"/><stop offset="1" stop-color="#b0a236"/></linearGradient><linearGradient x1="242.76435" y1="288.83031" x2="346.98997" y2="288.83031" gradientUnits="userSpaceOnUse" id="color-35"><stop offset="0" stop-color="#8a8a8a"/><stop offset="0.49292" stop-color="#555555"/><stop offset="1" stop-color="#8a8a8a"/></linearGradient><linearGradient x1="352.18429" y1="288.83031" x2="456.40993" y2="288.83031" gradientUnits="userSpaceOnUse" id="color-36"><stop offset="0" stop-color="#8a8a8a"/><stop offset="0.49292" stop-color="#555555"/><stop offset="1" stop-color="#8a8a8a"/></linearGradient><linearGradient x1="352.18437" y1="288.83031" x2="456.40993" y2="288.83031" gradientUnits="userSpaceOnUse" id="color-37"><stop offset="0" stop-color="#8a8a8a"/><stop offset="0.49292" stop-color="#555555"/><stop offset="1" stop-color="#8a8a8a"/></linearGradient><linearGradient x1="359.28806" y1="344.19703" x2="371.08159" y2="344.19703" gradientUnits="userSpaceOnUse" id="color-38"><stop offset="0" stop-color="#ebda85"/><stop offset="1" stop-color="#b0a236"/></linearGradient><linearGradient x1="352.18432" y1="288.83031" x2="456.40993" y2="288.83031" gradientUnits="userSpaceOnUse" id="color-39"><stop offset="0" stop-color="#8a8a8a"/><stop offset="0.49292" stop-color="#555555"/><stop offset="1" stop-color="#8a8a8a"/></linearGradient><linearGradient x1="242.7643" y1="288.83031" x2="346.98994" y2="288.83031" gradientUnits="userSpaceOnUse" id="color-40"><stop offset="0" stop-color="#8a8a8a"/><stop offset="0.49292" stop-color="#555555"/><stop offset="1" stop-color="#8a8a8a"/></linearGradient></defs><g transform="translate(5.73916,-0.00001)"><g stroke-miterlimit="10"><path d="M-5.73916,62.27395v-62.27393h493.33333v62.27393z" fill="url(#color-1)" stroke="none" stroke-width="0" stroke-linecap="butt"/><text transform="translate(154.65535,35.65463) scale(0.39157,0.39157)" font-size="40" xml:space="preserve" fill="#f1f1f1" stroke="none" stroke-width="1" stroke-linecap="butt" font-family="&quot;HeadingNowTrial-63Book&quot;, Sans Serif" font-weight="normal" text-anchor="start"><tspan x="0" dy="0">INVENTORY</tspan></text><path d="M145.15894,20.61502v21.0439" fill="none" stroke-opacity="0.74902" stroke="#e0e0e0" stroke-width="1" stroke-linecap="round"/><path d="M244.76679,41.65894v-21.04391" fill="none" stroke-opacity="0.74902" stroke="#e0e0e0" stroke-width="1" stroke-linecap="round"/><text transform="translate(90.669,35.65463) scale(0.39157,0.39157)" font-size="40" xml:space="preserve" fill="#f1f1f1" stroke="none" stroke-width="1" stroke-linecap="butt" font-family="&quot;HeadingNowTrial-63Book&quot;, Sans Serif" font-weight="normal" text-anchor="start"><tspan x="0" dy="0">STORE</tspan></text><text transform="translate(254.1691,35.65462) scale(0.39157,0.39157)" font-size="40" xml:space="preserve" fill="#f1f1f1" stroke="none" stroke-width="1" stroke-linecap="butt" font-family="&quot;HeadingNowTrial-63Book&quot;, Sans Serif" font-weight="normal" text-anchor="start"><tspan x="0" dy="0">NEWS</tspan></text><path d="M305.11316,41.65894v-21.04391" fill="none" stroke-opacity="0.74902" stroke="#e0e0e0" stroke-width="1" stroke-linecap="round"/><text transform="translate(314.52837,35.65462) scale(0.39157,0.39157)" font-size="40" xml:space="preserve" fill="#f1f1f1" stroke="none" stroke-width="1" stroke-linecap="butt" font-family="&quot;HeadingNowTrial-63Book&quot;, Sans Serif" font-weight="normal" text-anchor="start"><tspan x="0" dy="0">SETTINGS</tspan></text><path d="M80.60594,41.65892v-21.0439" fill="none" stroke-opacity="0.74902" stroke="#e0e0e0" stroke-width="1" stroke-linecap="round"/><path d="M80.62435,41.65892v-21.0439" fill="none" stroke-opacity="0.74902" stroke="#e0e0e0" stroke-width="1" stroke-linecap="round"/><text transform="translate(12.33554,35.65462) scale(0.39157,0.39157)" font-size="40" xml:space="preserve" fill="#f1f1f1" stroke="none" stroke-width="1" stroke-linecap="butt" font-family="&quot;HeadingNowTrial-63Book&quot;, Sans Serif" font-weight="normal" text-anchor="start"><tspan x="0" dy="0">MARKET</tspan></text><path d="M391.02094,62.27394v-62.27393h89.95238v62.27394z" fill-opacity="0.74902" fill="#636363" stroke="none" stroke-width="0" stroke-linecap="butt"/><path d="M430.38714,16.5733l5.76087,11.52174h-11.52174z" fill="url(#color-2)" stroke="none" stroke-width="0" stroke-linecap="butt"/><path d="M400.02937,51.65077h71.93548" fill="none" stroke="#052700" stroke-width="5" stroke-linecap="round"/><path d="M441.64229,51.65077h-41.6129" fill="none" stroke="#42b533" stroke-width="5" stroke-linecap="round"/><text transform="translate(400.16717,47.16394) scale(0.1988,0.1988)" font-size="40" xml:space="preserve" fill="#42b533" stroke="none" stroke-width="1" stroke-linecap="butt" font-family="Sans Serif" font-weight="normal" text-anchor="start"><tspan x="0" dy="0">1000/1000</tspan></text><text transform="translate(438.31833,25.67227) scale(0.19881,0.19881)" font-size="40" xml:space="preserve" fill="#b0a236" stroke="none" stroke-width="1" stroke-linecap="butt" font-family="Sans Serif" font-weight="normal" text-anchor="start"><tspan x="0" dy="0">1,000,000</tspan></text><path d="M396.32873,33.37985v-25h25v25z" fill="#555555" stroke="none" stroke-width="0" stroke-linecap="butt"/><path d="M398.30676,31.40181v-21.04392h21.04392v21.04392z" fill="#8a8a8a" stroke="none" stroke-width="0" stroke-linecap="butt"/><g stroke="none" stroke-linecap="butt"><path d="M271.29841,52.00548c-1.38071,0 -2.5,-1.11929 -2.5,-2.5v-8.04631c0,-1.38071 1.11929,-2.5 2.5,-2.5h8.04631c1.38071,0 2.5,1.11929 2.5,2.5v8.04631c0,1.38071 -1.11929,2.5 -2.5,2.5z" fill="url(#color-3)" stroke-width="0"/><text transform="translate(277.21799,50.31996) rotate(-180) scale(0.34605,-0.34605)" font-size="40" xml:space="preserve" fill="#303030" stroke-width="1" font-family="Sans Serif" font-weight="normal" text-anchor="start"><tspan x="0" dy="0">!</tspan></text></g><path d="M9.52256,38.70043v-16.64323h63.84459v16.64323z" fill="url(#color-4)" stroke="none" stroke-width="0" stroke-linecap="butt"/><path d="M31.26702,218.96725c-4.23987,0 -7.67694,-3.43708 -7.67694,-7.67694v-111.02423c0,-4.23986 3.43708,-7.67695 7.67695,-7.67695h88.87172c4.23986,0 7.67695,3.43708 7.67695,7.67695v111.02424c0,4.23987 -3.43708,7.67694 -7.67695,7.67694z" fill-opacity="0.50196" fill="#545454" stroke="url(#color-5)" stroke-width="0.5" stroke-linecap="butt"/><path d="M31.26702,218.96725c-4.23987,0 -7.67694,-3.43708 -7.67694,-7.67694v-23.39094h104.22562v23.39094c0,4.23987 -3.43708,7.67694 -7.67694,7.67694z" fill="#5e5e5e" stroke="url(#color-6)" stroke-width="0" stroke-linecap="butt"/><text transform="translate(26.30405,202.6742) scale(0.39042,0.39042)" font-size="40" xml:space="preserve" fill="#000000" stroke="none" stroke-width="1" stroke-linecap="butt" font-family="Sans Serif" font-weight="normal" text-anchor="start"><tspan x="0" dy="0">Box</tspan></text><path d="M36.59057,205.24812l5.89679,11.79358h-11.79358z" fill="url(#color-7)" stroke="none" stroke-width="0" stroke-linecap="butt"/><text transform="translate(44.70884,214.56177) scale(0.20351,0.20351)" font-size="40" xml:space="preserve" fill="#e5d57d" stroke="none" stroke-width="1" stroke-linecap="butt" font-family="Sans Serif" font-weight="normal" text-anchor="start"><tspan x="0" dy="0">1,000,000</tspan></text><path d="M51.49239,107.81289l-0.1298,-15.22376h68.77615c4.23986,0 7.67695,3.43708 7.67695,7.67695v7.52983z" fill="#afafaf" stroke="url(#color-8)" stroke-width="0" stroke-linecap="butt"/><path d="M140.8878,218.96725c-4.23987,0 -7.67695,-3.43708 -7.67695,-7.67694v-111.02423c0,-4.23986 3.43708,-7.67695 7.67695,-7.67695h88.87172c4.23987,0 7.67695,3.43708 7.67695,7.67695v111.02424c0,4.23987 -3.43708,7.67694 -7.67695,7.67694z" fill-opacity="0.50196" fill="#545454" stroke="url(#color-9)" stroke-width="0.5" stroke-linecap="butt"/><path d="M140.8878,218.96725c-4.23987,0 -7.67695,-3.43708 -7.67695,-7.67694v-23.39094h104.22563v23.39094c0,4.23987 -3.43708,7.67694 -7.67695,7.67694z" fill="#5e5e5e" stroke="url(#color-10)" stroke-width="0" stroke-linecap="butt"/><text transform="translate(135.92486,202.6742) scale(0.39042,0.39042)" font-size="40" xml:space="preserve" fill="#000000" stroke="none" stroke-width="1" stroke-linecap="butt" font-family="Sans Serif" font-weight="normal" text-anchor="start"><tspan x="0" dy="0">Box</tspan></text><path d="M146.21138,205.24812l5.89679,11.79358h-11.79358z" fill="url(#color-11)" stroke="none" stroke-width="0" stroke-linecap="butt"/><text transform="translate(154.32961,214.56177) scale(0.20351,0.20351)" font-size="40" xml:space="preserve" fill="#e5d57d" stroke="none" stroke-width="1" stroke-linecap="butt" font-family="Sans Serif" font-weight="normal" text-anchor="start"><tspan x="0" dy="0">1,000,000</tspan></text><path d="M161.11318,107.81289l-0.1298,-15.22376h68.77615c4.23987,0 7.67694,3.43708 7.67694,7.67695v7.52983z" fill="#afafaf" stroke="url(#color-12)" stroke-width="0" stroke-linecap="butt"/><path d="M250.44132,218.96725c-4.23987,0 -7.67695,-3.43708 -7.67695,-7.67694v-111.02423c0,-4.23986 3.43708,-7.67695 7.67695,-7.67695h88.87172c4.23987,0 7.67694,3.43708 7.67694,7.67695v111.02424c0,4.23987 -3.43708,7.67694 -7.67694,7.67694z" fill-opacity="0.50196" fill="#545454" stroke="url(#color-13)" stroke-width="0.5" stroke-linecap="butt"/><path d="M250.44132,218.96725c-4.23987,0 -7.67695,-3.43708 -7.67695,-7.67694v-23.39094h104.22562v23.39094c0,4.23987 -3.43708,7.67694 -7.67694,7.67694z" fill="#5e5e5e" stroke="url(#color-14)" stroke-width="0" stroke-linecap="butt"/><text transform="translate(245.47838,202.6742) scale(0.39042,0.39042)" font-size="40" xml:space="preserve" fill="#000000" stroke="none" stroke-width="1" stroke-linecap="butt" font-family="Sans Serif" font-weight="normal" text-anchor="start"><tspan x="0" dy="0">Box</tspan></text><path d="M255.76491,205.24812l5.89679,11.79358h-11.79358z" fill="url(#color-15)" stroke="none" stroke-width="0" stroke-linecap="butt"/><text transform="translate(263.8832,214.56177) scale(0.20351,0.20351)" font-size="40" xml:space="preserve" fill="#e5d57d" stroke="none" stroke-width="1" stroke-linecap="butt" font-family="Sans Serif" font-weight="normal" text-anchor="start"><tspan x="0" dy="0">1,000,000</tspan></text><path d="M270.6667,107.81289l-0.1298,-15.22376h68.77614c4.23987,0 7.67694,3.43708 7.67694,7.67695v7.52983z" fill="#afafaf" stroke="url(#color-16)" stroke-width="0" stroke-linecap="butt"/><path d="M359.86133,218.96725c-4.23987,0 -7.67695,-3.43708 -7.67695,-7.67694v-111.02423c0,-4.23986 3.43708,-7.67695 7.67695,-7.67695h88.87172c4.23987,0 7.67695,3.43708 7.67695,7.67695v111.02424c0,4.23987 -3.43708,7.67694 -7.67695,7.67694z" fill-opacity="0.50196" fill="#545454" stroke="url(#color-17)" stroke-width="0.5" stroke-linecap="butt"/><path d="M359.86133,218.96725c-4.23987,0 -7.67695,-3.43708 -7.67695,-7.67694v-23.39094h104.22562v23.39094c0,4.23987 -3.43708,7.67694 -7.67695,7.67694z" fill="#5e5e5e" stroke="url(#color-18)" stroke-width="0" stroke-linecap="butt"/><text transform="translate(354.89837,202.6742) scale(0.39042,0.39042)" font-size="40" xml:space="preserve" fill="#000000" stroke="none" stroke-width="1" stroke-linecap="butt" font-family="Sans Serif" font-weight="normal" text-anchor="start"><tspan x="0" dy="0">Box</tspan></text><path d="M365.18489,205.24812l5.89679,11.79358h-11.79358z" fill="url(#color-19)" stroke="none" stroke-width="0" stroke-linecap="butt"/><text transform="translate(373.30316,214.56177) scale(0.20351,0.20351)" font-size="40" xml:space="preserve" fill="#e5d57d" stroke="none" stroke-width="1" stroke-linecap="butt" font-family="Sans Serif" font-weight="normal" text-anchor="start"><tspan x="0" dy="0">1,000,000</tspan></text><path d="M380.0867,107.81289l-0.1298,-15.22376h68.77614c4.23987,0 7.67695,3.43708 7.67695,7.67695v7.52983z" fill="#afafaf" stroke="url(#color-20)" stroke-width="0" stroke-linecap="butt"/><path d="M361.6002,87.12917c-4.14214,0 -7.5,-3.35786 -7.5,-7.5v-5.90032c0,-4.14214 3.35786,-7.5 7.5,-7.5h85.39398c4.14214,0 7.5,3.35786 7.5,7.5v5.90032c0,4.14214 -3.35786,7.5 -7.5,7.5z" fill="url(#color-21)" stroke="none" stroke-width="0" stroke-linecap="butt"/><text transform="translate(359.32102,80.00237) scale(0.27695,0.27695)" font-size="40" xml:space="preserve" fill="#303030" stroke="none" stroke-width="1" stroke-linecap="butt" font-family="Sans Serif" font-weight="normal" text-anchor="start"><tspan x="0" dy="0">Refreshes in 5:00</tspan></text><g stroke="none" stroke-linecap="butt"><text transform="translate(27.26268,83.90346) scale(0.43842,0.43842)" font-size="40" xml:space="preserve" fill="#f1f1f1" stroke-width="1" font-family="&quot;HeadingNowTrial-63Book&quot;, Sans Serif" font-weight="normal" text-anchor="start"><tspan x="0" dy="0">Player Market</tspan></text><path d="M20.63799,87.66416v-21.0439h124.01179v21.0439z" fill="url(#color-22)" stroke-width="0"/></g><g stroke="none" stroke-linecap="butt"><text transform="translate(69.6023,103.00062) scale(0.23888,0.23888)" font-size="40" xml:space="preserve" fill="#303030" stroke-width="1" font-family="Sans Serif" font-weight="normal" text-anchor="start"><tspan x="0" dy="0">Anonymous</tspan></text><path d="M54.90113,106.78086v-13.2936h13.2936v13.2936z" fill="#555555" stroke-width="0"/><path d="M55.95294,105.72904v-11.18998h11.18998v11.18998z" fill="#8a8a8a" stroke-width="0"/><text transform="translate(58.97275,104.39504) scale(0.28805,0.28805)" font-size="40" xml:space="preserve" fill="#303030" stroke-width="1" font-family="Sans Serif" font-weight="normal" text-anchor="start"><tspan x="0" dy="0">?</tspan></text></g><text transform="translate(179.2231,103.00062) scale(0.23888,0.23888)" font-size="40" xml:space="preserve" fill="#303030" stroke="none" stroke-width="1" stroke-linecap="butt" font-family="Sans Serif" font-weight="normal" text-anchor="start"><tspan x="0" dy="0">Player 1</tspan></text><path d="M164.52193,106.78086v-13.2936h13.2936v13.2936z" fill="#555555" stroke="none" stroke-width="0" stroke-linecap="butt"/><path d="M165.57374,105.72904v-11.18998h11.18998v11.18998z" fill="#8a8a8a" stroke="none" stroke-width="0" stroke-linecap="butt"/><path d="M270.6667,107.81289l-0.1298,-15.22376h68.77615c4.23986,0 7.67695,3.43708 7.67695,7.67695v7.52983z" fill="#afafaf" stroke="url(#color-23)" stroke-width="0" stroke-linecap="butt"/><g stroke="none" stroke-linecap="butt"><text transform="translate(288.77662,103.00062) scale(0.23888,0.23888)" font-size="40" xml:space="preserve" fill="#303030" stroke-width="1" font-family="Sans Serif" font-weight="normal" text-anchor="start"><tspan x="0" dy="0">Anonymous</tspan></text><path d="M274.07543,106.78086v-13.2936h13.2936v13.2936z" fill="#555555" stroke-width="0"/><path d="M275.12726,105.72904v-11.18998h11.18998v11.18998z" fill="#8a8a8a" stroke-width="0"/><text transform="translate(278.14707,104.39504) scale(0.28805,0.28805)" font-size="40" xml:space="preserve" fill="#303030" stroke-width="1" font-family="Sans Serif" font-weight="normal" text-anchor="start"><tspan x="0" dy="0">?</tspan></text></g><text transform="translate(398.1966,103.00062) scale(0.23888,0.23888)" font-size="40" xml:space="preserve" fill="#303030" stroke="none" stroke-width="1" stroke-linecap="butt" font-family="Sans Serif" font-weight="normal" text-anchor="start"><tspan x="0" dy="0">Player 1</tspan></text><path d="M383.49544,106.78086v-13.2936h13.2936v13.2936z" fill="#555555" stroke="none" stroke-width="0" stroke-linecap="butt"/><path d="M384.54724,105.72904v-11.18998h11.18998v11.18998z" fill="#8a8a8a" stroke="none" stroke-width="0" stroke-linecap="butt"/><path d="M31.26699,352.01937c-4.23987,0 -7.67694,-3.43708 -7.67694,-7.67694v-111.02423c0,-4.23986 3.43708,-7.67695 7.67695,-7.67695h88.87172c4.23986,0 7.67695,3.43708 7.67695,7.67695v111.02424c0,4.23987 -3.43708,7.67694 -7.67695,7.67694z" fill-opacity="0.50196" fill="#545454" stroke="url(#color-24)" stroke-width="0.5" stroke-linecap="butt"/><path d="M31.26699,352.01937c-4.23987,0 -7.67694,-3.43708 -7.67694,-7.67694v-23.39094h104.22562v23.39094c0,4.23987 -3.43708,7.67694 -7.67694,7.67694z" fill="#5e5e5e" stroke="url(#color-25)" stroke-width="0" stroke-linecap="butt"/><text transform="translate(26.30402,335.72632) scale(0.39042,0.39042)" font-size="40" xml:space="preserve" fill="#000000" stroke="none" stroke-width="1" stroke-linecap="butt" font-family="Sans Serif" font-weight="normal" text-anchor="start"><tspan x="0" dy="0">Box</tspan></text><path d="M36.59054,338.30024l5.89679,11.79358h-11.79358z" fill="url(#color-26)" stroke="none" stroke-width="0" stroke-linecap="butt"/><text transform="translate(44.70881,347.61389) scale(0.20351,0.20351)" font-size="40" xml:space="preserve" fill="#e5d57d" stroke="none" stroke-width="1" stroke-linecap="butt" font-family="Sans Serif" font-weight="normal" text-anchor="start"><tspan x="0" dy="0">1,000,000</tspan></text><path d="M51.49236,240.86501l-0.1298,-15.22376h68.77615c4.23986,0 7.67695,3.43708 7.67695,7.67695v7.52983z" fill="#afafaf" stroke="url(#color-27)" stroke-width="0" stroke-linecap="butt"/><path d="M140.88778,352.01937c-4.23987,0 -7.67695,-3.43708 -7.67695,-7.67694v-111.02423c0,-4.23986 3.43708,-7.67695 7.67695,-7.67695h88.87172c4.23987,0 7.67695,3.43708 7.67695,7.67695v111.02424c0,4.23987 -3.43708,7.67694 -7.67695,7.67694z" fill-opacity="0.50196" fill="#545454" stroke="url(#color-28)" stroke-width="0.5" stroke-linecap="butt"/><path d="M140.88778,352.01937c-4.23987,0 -7.67695,-3.43708 -7.67695,-7.67694v-23.39094h104.22563v23.39094c0,4.23987 -3.43708,7.67694 -7.67695,7.67694z" fill="#5e5e5e" stroke="url(#color-29)" stroke-width="0" stroke-linecap="butt"/><text transform="translate(135.92484,335.72632) scale(0.39042,0.39042)" font-size="40" xml:space="preserve" fill="#000000" stroke="none" stroke-width="1" stroke-linecap="butt" font-family="Sans Serif" font-weight="normal" text-anchor="start"><tspan x="0" dy="0">Box</tspan></text><path d="M146.21137,338.30024l5.89679,11.79358h-11.79358z" fill="url(#color-30)" stroke="none" stroke-width="0" stroke-linecap="butt"/><text transform="translate(154.32959,347.61389) scale(0.20351,0.20351)" font-size="40" xml:space="preserve" fill="#e5d57d" stroke="none" stroke-width="1" stroke-linecap="butt" font-family="Sans Serif" font-weight="normal" text-anchor="start"><tspan x="0" dy="0">1,000,000</tspan></text><path d="M161.11316,240.86501l-0.1298,-15.22376h68.77615c4.23987,0 7.67694,3.43708 7.67694,7.67695v7.52983z" fill="#afafaf" stroke="url(#color-31)" stroke-width="0" stroke-linecap="butt"/><path d="M250.44132,352.01937c-4.23987,0 -7.67695,-3.43708 -7.67695,-7.67694v-111.02423c0,-4.23986 3.43708,-7.67695 7.67695,-7.67695h88.87172c4.23987,0 7.67694,3.43708 7.67694,7.67695v111.02424c0,4.23987 -3.43708,7.67694 -7.67694,7.67694z" fill-opacity="0.50196" fill="#545454" stroke="url(#color-32)" stroke-width="0.5" stroke-linecap="butt"/><path d="M250.44132,352.01937c-4.23987,0 -7.67695,-3.43708 -7.67695,-7.67694v-23.39094h104.22562v23.39094c0,4.23987 -3.43708,7.67694 -7.67694,7.67694z" fill="#5e5e5e" stroke="url(#color-33)" stroke-width="0" stroke-linecap="butt"/><text transform="translate(245.47837,335.72632) scale(0.39042,0.39042)" font-size="40" xml:space="preserve" fill="#000000" stroke="none" stroke-width="1" stroke-linecap="butt" font-family="Sans Serif" font-weight="normal" text-anchor="start"><tspan x="0" dy="0">Box</tspan></text><path d="M255.76489,338.30024l5.89679,11.79358h-11.79358z" fill="url(#color-34)" stroke="none" stroke-width="0" stroke-linecap="butt"/><text transform="translate(263.88316,347.61389) scale(0.20351,0.20351)" font-size="40" xml:space="preserve" fill="#e5d57d" stroke="none" stroke-width="1" stroke-linecap="butt" font-family="Sans Serif" font-weight="normal" text-anchor="start"><tspan x="0" dy="0">1,000,000</tspan></text><path d="M270.66666,240.86501l-0.1298,-15.22376h68.77614c4.23987,0 7.67694,3.43708 7.67694,7.67695v7.52983z" fill="#afafaf" stroke="url(#color-35)" stroke-width="0" stroke-linecap="butt"/><path d="M359.8613,352.01937c-4.23987,0 -7.67695,-3.43708 -7.67695,-7.67694v-111.02423c0,-4.23986 3.43708,-7.67695 7.67695,-7.67695h88.87172c4.23987,0 7.67695,3.43708 7.67695,7.67695v111.02424c0,4.23987 -3.43708,7.67694 -7.67695,7.67694z" fill-opacity="0.50196" fill="#545454" stroke="url(#color-36)" stroke-width="0.5" stroke-linecap="butt"/><path d="M359.8613,352.01937c-4.23987,0 -7.67695,-3.43708 -7.67695,-7.67694v-23.39094h104.22562v23.39094c0,4.23987 -3.43708,7.67694 -7.67695,7.67694z" fill="#5e5e5e" stroke="url(#color-37)" stroke-width="0" stroke-linecap="butt"/><text transform="translate(354.89834,335.72632) scale(0.39042,0.39042)" font-size="40" xml:space="preserve" fill="#000000" stroke="none" stroke-width="1" stroke-linecap="butt" font-family="Sans Serif" font-weight="normal" text-anchor="start"><tspan x="0" dy="0">Box</tspan></text><path d="M365.18486,338.30024l5.89679,11.79358h-11.79358z" fill="url(#color-38)" stroke="none" stroke-width="0" stroke-linecap="butt"/><text transform="translate(373.30313,347.61389) scale(0.20351,0.20351)" font-size="40" xml:space="preserve" fill="#e5d57d" stroke="none" stroke-width="1" stroke-linecap="butt" font-family="Sans Serif" font-weight="normal" text-anchor="start"><tspan x="0" dy="0">1,000,000</tspan></text><path d="M380.08667,240.86501l-0.1298,-15.22376h68.77614c4.23987,0 7.67695,3.43708 7.67695,7.67695v7.52983z" fill="#afafaf" stroke="url(#color-39)" stroke-width="0" stroke-linecap="butt"/><g stroke="none" stroke-linecap="butt"><text transform="translate(69.60227,236.05274) scale(0.23888,0.23888)" font-size="40" xml:space="preserve" fill="#303030" stroke-width="1" font-family="Sans Serif" font-weight="normal" text-anchor="start"><tspan x="0" dy="0">Anonymous</tspan></text><path d="M54.90111,239.83298v-13.2936h13.2936v13.2936z" fill="#555555" stroke-width="0"/><path d="M55.95291,238.78116v-11.18998h11.18998v11.18998z" fill="#8a8a8a" stroke-width="0"/><text transform="translate(58.97273,237.44716) scale(0.28805,0.28805)" font-size="40" xml:space="preserve" fill="#303030" stroke-width="1" font-family="Sans Serif" font-weight="normal" text-anchor="start"><tspan x="0" dy="0">?</tspan></text></g><text transform="translate(179.22309,236.05274) scale(0.23888,0.23888)" font-size="40" xml:space="preserve" fill="#303030" stroke="none" stroke-width="1" stroke-linecap="butt" font-family="Sans Serif" font-weight="normal" text-anchor="start"><tspan x="0" dy="0">Player 1</tspan></text><path d="M164.52191,239.83298v-13.2936h13.2936v13.2936z" fill="#555555" stroke="none" stroke-width="0" stroke-linecap="butt"/><path d="M165.57373,238.78116v-11.18998h11.18998v11.18998z" fill="#8a8a8a" stroke="none" stroke-width="0" stroke-linecap="butt"/><path d="M270.66666,240.86501l-0.1298,-15.22376h68.77615c4.23986,0 7.67695,3.43708 7.67695,7.67695v7.52983z" fill="#afafaf" stroke="url(#color-40)" stroke-width="0" stroke-linecap="butt"/><g stroke="none" stroke-linecap="butt"><text transform="translate(288.77657,236.05274) scale(0.23888,0.23888)" font-size="40" xml:space="preserve" fill="#303030" stroke-width="1" font-family="Sans Serif" font-weight="normal" text-anchor="start"><tspan x="0" dy="0">Anonymous</tspan></text><path d="M274.07542,239.83298v-13.2936h13.2936v13.2936z" fill="#555555" stroke-width="0"/><path d="M275.12721,238.78116v-11.18998h11.18998v11.18998z" fill="#8a8a8a" stroke-width="0"/><text transform="translate(278.14703,237.44716) scale(0.28805,0.28805)" font-size="40" xml:space="preserve" fill="#303030" stroke-width="1" font-family="Sans Serif" font-weight="normal" text-anchor="start"><tspan x="0" dy="0">?</tspan></text></g><text transform="translate(398.19657,236.05274) scale(0.23888,0.23888)" font-size="40" xml:space="preserve" fill="#303030" stroke="none" stroke-width="1" stroke-linecap="butt" font-family="Sans Serif" font-weight="normal" text-anchor="start"><tspan x="0" dy="0">Player 1</tspan></text><path d="M383.49541,239.83298v-13.2936h13.2936v13.2936z" fill="#555555" stroke="none" stroke-width="0" stroke-linecap="butt"/><path d="M384.5472,238.78116v-11.18998h11.18998v11.18998z" fill="#8a8a8a" stroke="none" stroke-width="0" stroke-linecap="butt"/></g></g></svg>