<svg version="1.1" xmlns="http://www.w3.org/2000/svg" xmlns:xlink="http://www.w3.org/1999/xlink" width="72.1039" height="93.43041" viewBox="0,0,72.1039,93.43041"><defs><linearGradient x1="240" y1="138.03086" x2="240" y2="221.96914" gradientUnits="userSpaceOnUse" id="color-1"><stop offset="0" stop-color="#873e3e"/><stop offset="1" stop-color="#290000"/></linearGradient></defs><g transform="translate(-203.94805,-133.28478)"><g stroke-miterlimit="10"><path d="M213.01943,221.96914c-1.65685,0 -3,-1.34315 -3,-3v-77.93828c0,-1.65685 1.34315,-3 3,-3h53.96114c1.65685,0 3,1.34315 3,3v77.93828c0,1.65685 -1.34315,3 -3,3z" fill="#9763ff" stroke="#000000" stroke-width="4"/><path d="M213.01943,221.96914c-1.65685,0 -3,-1.34315 -3,-3v-77.93828c0,-1.65685 1.34315,-3 3,-3h53.96114c1.65685,0 3,1.34315 3,3v77.93828c0,1.65685 -1.34315,3 -3,3z" fill="url(#color-1)" stroke="none" stroke-width="0"/><g stroke="#000000" stroke-width="2.5"><path d="M219.88926,195.78949v-25.7565h10.73187v25.7565z" fill="#ff0000"/><path d="M254.4237,213.24393c0,7.5076 -2.72794,6.31742 -5.88904,6.31742c-3.16109,0 -5.55829,1.19019 -5.55829,-6.31742c0,-3.90666 -0.9284,-10.08308 0.18262,-12.56268c1.02408,-2.28555 4.02485,-1.62095 5.54104,-1.62095c1.56367,0 4.30821,-0.87049 5.34125,1.54332c1.05535,2.46592 0.38242,8.84642 0.38242,12.64032z" fill="#ff0000"/><path d="M239.0152,213.61586c0,7.5076 -2.72795,6.31742 -5.88904,6.31742c-3.16109,0 -5.55829,1.19019 -5.55829,-6.31742c0,-3.90666 -0.9284,-10.08308 0.18262,-12.56268c1.02408,-2.28555 4.02486,-1.62095 5.54104,-1.62095c1.56367,0 4.30821,-0.87049 5.34125,1.54332c1.05535,2.46592 0.38242,8.84643 0.38242,12.64032z" fill="#ff0000"/><path d="M257.0931,186.82975c0,17.96961 -7.48488,15.3574 -16.27668,15.3574c-8.79179,0 -15.56122,2.61221 -15.56122,-15.3574c0,-17.96961 7.12715,-32.53685 15.91895,-32.53685c8.79179,0 15.91895,14.56725 15.91895,32.53685z" fill="#ff0000"/><path d="M239.92209,175.75665v-8.22777h14.66689v8.22777z" fill="#00ffe5"/></g><path d="M213.01943,221.96914c-1.65685,0 -3,-1.34315 -3,-3v-77.93828c0,-1.65685 1.34315,-3 3,-3h53.96114c1.65685,0 3,1.34315 3,3v77.93828c0,1.65685 -1.34315,3 -3,3zM263.23302,197.97227c1.38071,0 2.5,-1.11929 2.5,-2.5v-48.59004c0,-1.38071 -1.11929,-2.5 -2.5,-2.5h-46.46605c-1.38071,0 -2.5,1.11929 -2.5,2.5v48.59004c0,1.38071 1.11929,2.5 2.5,2.5z" fill="#9c0000" stroke="none" stroke-width="0"/><path d="M213.68572,218.72632c0,-1.06413 0.86265,-1.92677 1.92677,-1.92677c1.06413,0 1.92677,0.86265 1.92677,1.92677c0,1.06413 -0.86265,1.92677 -1.92677,1.92677c-1.06413,0 -1.92677,-0.86265 -1.92677,-1.92677z" fill="#000000" stroke="none" stroke-width="0"/><text transform="translate(214.5139,143.14162) scale(0.13917,0.13917)" font-size="40" xml:space="preserve" fill="#000000" stroke="none" stroke-width="1" font-family="Sans Serif" font-weight="normal" text-anchor="start"><tspan x="0" dy="0">Imposter</tspan></text><text transform="translate(218.94522,220.40272) scale(0.0984,0.0984)" font-size="40" xml:space="preserve" fill="#000000" stroke="none" stroke-width="1" font-family="Sans Serif" font-weight="normal" text-anchor="start"><tspan x="0" dy="0">2/27</tspan></text><text transform="translate(213.87227,203.13362) scale(0.11215,0.11215)" font-size="40" xml:space="preserve" fill="#000000" stroke="none" stroke-width="1" font-family="Sans Serif" font-weight="normal" text-anchor="start"><tspan x="0" dy="0">The Imposter model</tspan><tspan x="0" dy="48px">made by Axl</tspan></text><text transform="translate(239.57666,220.8475) scale(0.09461,0.09461)" font-size="40" xml:space="preserve" fill="#000000" stroke="none" stroke-width="1" font-family="Sans Serif" font-weight="normal" text-anchor="start"><tspan x="0" dy="0">Core Collection</tspan></text><path d="M203.94805,226.7152v-93.43041h72.1039v93.43041z" fill="none" stroke="none" stroke-width="0"/></g></g></svg>