<svg version="1.1" xmlns="http://www.w3.org/2000/svg" xmlns:xlink="http://www.w3.org/1999/xlink" width="63.96114" height="89.5428" viewBox="0,0,63.96114,89.5428"><defs><linearGradient x1="240" y1="138.03086" x2="240" y2="221.96914" gradientUnits="userSpaceOnUse" id="color-1"><stop offset="0" stop-color="#708766"/><stop offset="1" stop-color="#212910"/></linearGradient></defs><g transform="translate(-208.01943,-136.03086)"><g stroke-miterlimit="10"><path d="M213.01943,221.96914c-1.65685,0 -3,-1.34315 -3,-3v-77.93828c0,-1.65685 1.34315,-3 3,-3h53.96114c1.65685,0 3,1.34315 3,3v77.93828c0,1.65685 -1.34315,3 -3,3z" fill="#9763ff" fill-rule="nonzero" stroke="#000000" stroke-width="4" stroke-linejoin="miter"/><path d="M213.01943,221.96914c-1.65685,0 -3,-1.34315 -3,-3v-77.93828c0,-1.65685 1.34315,-3 3,-3h53.96114c1.65685,0 3,1.34315 3,3v77.93828c0,1.65685 -1.34315,3 -3,3z" fill="url(#color-1)" fill-rule="nonzero" stroke="none" stroke-width="0" stroke-linejoin="miter"/><g fill-rule="evenodd" stroke-width="0.5" stroke-linejoin="round"><path d="M247.21552,153.56541c-0.06542,0.00534 -0.13084,0.01068 -0.19626,0.01602c-0.21896,-0.16956 -0.43658,-0.34045 -0.65553,-0.51001c-0.0227,0.12149 -0.04406,0.24299 -0.06675,0.36448c-0.27236,-0.01869 -0.54605,-0.03605 -0.81841,-0.05474c-0.5287,-0.33911 -1.05606,-0.67956 -1.58476,-1.01868c0.08945,0.32176 0.17757,0.64352 0.26702,0.96527c-0.11081,-0.0227 -0.22296,-0.04539 -0.33377,-0.06942c-0.0227,0.13217 -0.04406,0.26301 -0.06675,0.39385c-0.51401,-0.05073 -0.95326,-0.60213 -1.20159,-0.99598c-0.79839,-0.27636 -1.77968,-1.53936 -2.67019,-0.7076c-0.24432,-0.05207 -0.48998,-0.10414 -0.7343,-0.15621c-0.51134,-0.38584 -1.02402,-0.77168 -1.53536,-1.15886c0,0.45794 0,0.91454 0,1.37114c-1.05873,-0.73564 -1.37381,-1.52868 -2.00665,-2.76231c0.35781,0.21094 0.71428,0.42055 1.07208,0.6315c-0.01068,-0.255 -0.0227,-0.51001 -0.03338,-0.76501c0.12283,-0.12149 0.24432,-0.24299 0.36715,-0.36448c0.20026,-0.08278 0.40053,-0.16555 0.60079,-0.24833c0.15621,0.16689 0.31108,0.33377 0.46728,0.502c0.22296,-0.05474 0.44459,-0.10814 0.66755,-0.16155c-0.06675,-1.33777 -2.00398,-0.55139 -2.46993,-1.19624c0.3271,-0.04406 0.65553,-0.08945 0.98263,-0.13351c-0.08545,-0.51001 -0.87582,-0.59946 -1.3164,-0.6809c-0.0227,-0.1295 -0.04406,-0.25901 -0.06675,-0.38851c0.13351,-0.08278 0.26702,-0.16555 0.40053,-0.24833c0.11081,0.05073 0.22296,0.10013 0.33377,0.14953c0.28571,-0.03338 0.57142,-0.06675 0.85713,-0.10013c-0.08545,-0.251 -0.17089,-0.502 -0.25634,-0.75166c-1.53135,0.03204 -2.91451,0.86247 -4.40581,1.06808c-0.37783,0.0534 -0.6849,-0.22163 -1.05205,-0.0721c-0.5554,0.22697 -0.78637,0.75166 -1.21761,1.08143c-0.08945,-0.01335 -0.17757,-0.02804 -0.26702,-0.04272c-0.22296,0.51802 -0.44459,1.03603 -0.66755,1.55405c-0.62616,0.44592 -1.02535,0.49532 -1.4686,-0.09212c-0.21495,0.1749 -0.4299,0.35113 -0.64485,0.52603c-0.46995,-0.06275 -0.8825,-0.16822 -0.86648,0.46728c-0.47529,0.09479 -0.95059,0.18958 -1.42588,0.28438c-0.0721,0.3271 -0.14286,0.65553 -0.21495,0.98396c-0.12016,0.40053 -0.24165,0.80106 -0.36181,1.20159c0.03605,0.19626 0.07343,0.39252 0.10948,0.58878c-0.32977,-0.46595 -0.48597,-0.14953 -0.97996,0.01202c-0.1522,0.26702 -0.30307,0.53404 -0.45527,0.80106c-0.21094,0.07076 -0.42323,0.14286 -0.63417,0.21362c-0.21094,0.32977 -0.42323,0.6582 -0.63417,0.98797c-0.23364,0.4566 -0.46728,0.91187 -0.70092,1.36847c-0.38451,0.35247 -0.76901,0.70627 -1.15486,1.05873c-0.02537,0.03738 -0.05207,0.07343 -0.07877,0.10948c0.01736,0.01068 0.03471,0.0227 0.05207,0.03338c-0.08411,0.12283 -0.16689,0.24432 -0.251,0.36715c-0.14553,0.32309 -0.29105,0.64485 -0.43658,0.96794c-0.18958,0.36715 -0.37783,0.7343 -0.56742,1.10145c-0.10013,0.38985 -0.20026,0.77836 -0.3004,1.16821c-0.04139,0.08945 -0.08144,0.17757 -0.12283,0.26702c0.00401,0.0227 0.00935,0.04406 0.01335,0.06675c-0.00134,0.18958 -0.00267,0.37783 -0.00267,0.56742c-0.03471,0.01068 -0.06809,0.0227 -0.1028,0.03338c-0.21629,-1.77968 0.72362,-3.36043 0.95593,-5.03998c0.22029,-0.37383 0.44058,-0.74765 0.66087,-1.12148c0.27102,-0.21629 0.54338,-0.43124 0.81441,-0.64752c0.00668,-0.0227 0.01335,-0.04406 0.02003,-0.06675c0.0227,-0.00668 0.04406,-0.01469 0.06675,-0.02136c0.38985,-0.72629 0.77836,-1.45392 1.16821,-2.18021c0.19492,-0.10013 0.39118,-0.2016 0.58611,-0.30173c0.01469,-0.14419 0.02937,-0.28972 0.04406,-0.43391c0.03471,0.04406 0.06942,0.08945 0.10414,0.13351c0.05607,-0.03338 0.11081,-0.06675 0.16689,-0.10013c-0.03071,-0.12416 -0.06008,-0.24699 -0.09079,-0.37116c0.06408,-0.27636 0.12817,-0.55406 0.19092,-0.83043c0.02403,-0.02003 0.04806,-0.04005 0.07076,-0.06008c0.03204,0.02003 0.06408,0.04005 0.09613,0.06008c0.20026,-0.26168 0.40053,-0.52336 0.60079,-0.7837c0.02136,-0.01869 0.04272,-0.03738 0.06408,-0.05607c0.23498,-0.13217 0.46862,-0.26301 0.70359,-0.39519c0.60079,-0.15621 1.20159,-0.31108 1.80238,-0.46728c0.04406,-0.05073 0.08678,-0.10013 0.13084,-0.15087c0.11348,-0.0721 0.22563,-0.14419 0.33778,-0.21629c0.08812,-0.15754 0.17757,-0.31375 0.26568,-0.47129c0.34445,-0.04272 0.69024,-0.08545 1.0347,-0.12683c0.0227,-0.00668 0.04406,-0.01202 0.06675,-0.01869c0.06675,0.00134 0.13351,0.00134 0.20026,0.00134c0.05607,0.01602 0.11081,0.03204 0.16689,0.04806c0.01068,-0.01602 0.0227,-0.03204 0.03338,-0.04806c0.16689,-0.00801 0.33377,-0.01736 0.50066,-0.02537c0.05741,-0.09746 0.11615,-0.19626 0.17356,-0.29372c0.18424,-0.16689 0.36982,-0.33377 0.55406,-0.50066c0.01335,-0.01869 0.0267,-0.03872 0.04005,-0.05741c-0.00668,-0.01469 -0.01335,-0.02804 -0.02003,-0.04272c0.06275,-0.05607 0.12416,-0.11081 0.18691,-0.16689c0.12416,-0.11615 0.24699,-0.23097 0.37116,-0.34712c0.01736,-0.01602 0.03471,-0.03204 0.05073,-0.04806c0.07076,-0.03471 0.14152,-0.07076 0.21228,-0.10547c0.03338,-0.03338 0.06675,-0.06675 0.10013,-0.10013c0.00534,-0.0227 0.00935,-0.04406 0.01469,-0.06675c0.05073,-0.03338 0.10147,-0.06675 0.1522,-0.10013c-0.0227,-0.01469 -0.04673,-0.02804 -0.06942,-0.04272c0.02403,-0.02537 0.04806,-0.0494 0.0721,-0.07477c0.02136,-0.00534 0.04272,-0.01068 0.06408,-0.01736c0.07744,-0.01068 0.15621,-0.02136 0.23364,-0.03204c0.01068,-0.0227 0.02136,-0.04406 0.03204,-0.06675c0.0227,-0.0494 0.04539,-0.0988 0.06809,-0.14686c0.08945,-0.00668 0.17757,-0.01335 0.26702,-0.02003c0.07744,-0.01068 0.15621,-0.0227 0.23364,-0.03338c0.02403,-0.03605 0.04806,-0.07076 0.07076,-0.10681c0.03204,0.00267 0.06408,0.00401 0.09613,0.00668c0.04406,-0.04539 0.08945,-0.09079 0.13351,-0.13618c0.90653,-0.13084 1.81439,-0.26168 2.72092,-0.39252c0.02804,-0.00267 0.05474,-0.00534 0.08278,-0.00801c1.12415,-0.08812 2.24963,-0.17623 3.37378,-0.26435c-0.07076,0.15621 -0.14286,0.31108 -0.21362,0.46728c0.07076,0.17223 0.14018,0.34579 0.21094,0.51802c0.15621,0.04005 0.31108,0.08011 0.46728,0.12016c0.03605,0.12149 0.0721,0.24165 0.10948,0.36315c0.26969,0.15621 0.53938,0.31108 0.80907,0.46728c-0.10013,0.06675 -0.2016,0.13351 -0.30173,0.20026c0.0227,0.48864 0.29239,0.4259 0.59812,0.68757c1.87714,1.60745 2.02133,0.15888 3.12412,0.50333c-0.0227,0.11882 -0.04406,0.23898 -0.06675,0.35781c0.23364,-0.00401 0.46728,-0.00935 0.70092,-0.01335c0.41388,0.88116 3.54601,1.20292 4.08005,2.60343c-0.1255,0.1482 -0.24966,0.29639 -0.37516,0.44459c0.08945,0.01869 0.17757,0.03738 0.26702,0.05607c0.24432,0.19359 0.48998,0.38718 0.7343,0.58077c0.20026,0.27236 0.40053,0.54472 0.60079,0.81708c-0.37783,-0.07877 -0.757,-0.15754 -1.13483,-0.23498c-0.13351,0.05741 -0.26702,0.11482 -0.40053,0.17223c-0.16956,-0.07744 -0.34045,-0.15621 -0.51001,-0.23364c0.0534,0.12817 0.10681,0.25634 0.16021,0.38451zM230.8299,146.66163c-0.00267,0.02537 -0.00401,0.05207 -0.00534,0.07744c0.00134,-0.02537 0.00267,-0.05207 0.00534,-0.07744zM226.50419,149.33583c-0.02403,0.01869 -0.04806,0.03872 -0.0721,0.05741c0.02403,-0.01869 0.04806,-0.03872 0.0721,-0.05741zM225.50287,149.3919c-0.01068,0.03204 -0.0227,0.06542 -0.03338,0.0988c-0.07744,-0.01602 -0.15621,-0.03071 -0.23364,-0.04539c0.01068,-0.02136 0.0227,-0.04272 0.03338,-0.06408c0.07744,0.00401 0.15621,0.00668 0.23364,0.01068zM224.94213,149.58015c-0.02136,0.03204 -0.04406,0.06408 -0.06675,0.09613c0.0227,-0.03204 0.04539,-0.06408 0.06675,-0.09613zM224.56831,149.81513c-0.01869,0.02003 -0.03738,0.04139 -0.05607,0.06141c0.01869,-0.02003 0.03738,-0.04139 0.05607,-0.06141zM247.30764,153.68156c0.06008,0.05607 0.12016,0.11081 0.18024,0.16689c-0.00134,0.02804 -0.00401,0.05607 -0.00534,0.08278c-0.0761,-0.03605 -0.15087,-0.0721 -0.22697,-0.10948c0.01736,-0.04673 0.03471,-0.09346 0.05207,-0.14018zM247.48254,153.93123c0.01602,0.01602 0.03338,0.03071 0.0494,0.04539c-0.01602,-0.01469 -0.03338,-0.02937 -0.0494,-0.04539zM247.87773,154.37848c-0.06942,-0.0534 -0.13885,-0.10681 -0.20961,-0.16021c-0.03338,-0.0761 -0.06675,-0.15354 -0.10013,-0.22964c0.02136,-0.00534 0.04272,-0.01068 0.06408,-0.01602c0.08144,0.13484 0.16422,0.26969 0.24566,0.40587zM247.66812,154.21827c-0.01202,0.04406 -0.02403,0.08678 -0.03605,0.13084c0.01202,-0.04406 0.02403,-0.08678 0.03605,-0.13084zM247.76558,154.41586c0.01068,0.01068 0.0227,0.0227 0.03338,0.03338c-0.01068,0.01068 -0.0227,0.0227 -0.03338,0.03338c-0.01068,-0.01068 -0.0227,-0.0227 -0.03338,-0.03338c0.01068,-0.01068 0.0227,-0.0227 0.03338,-0.03338zM247.8844,154.39183c0.11615,0.07477 0.23231,0.14953 0.34846,0.2243c0.07744,0.15487 0.15621,0.30974 0.23364,0.46328c-0.04673,0.00401 -0.09212,0.00801 -0.13885,0.01202c-0.15354,-0.19225 -0.30574,-0.38317 -0.45927,-0.57543c0.00534,-0.04139 0.01068,-0.08278 0.01602,-0.12416zM248.32765,155.09142c-0.02003,0.00801 -0.04139,0.01736 -0.06141,0.02537c0.02003,-0.00801 0.04139,-0.01736 0.06141,-0.02537zM248.43313,155.21692c0.01068,0.01068 0.0227,0.0227 0.03338,0.03338c-0.01068,-0.01736 -0.0227,-0.03605 -0.03338,-0.0534c0.01469,0.01736 0.02937,0.03605 0.04272,0.0534c-0.01335,-0.01068 -0.02804,-0.0227 -0.04272,-0.03338zM248.62805,155.32106c0.03872,0.03204 0.07744,0.06408 0.11482,0.09613c-0.0227,0.02003 -0.04539,0.04005 -0.06809,0.06008c-0.0227,0 -0.04539,0 -0.06675,0c0.00668,-0.05207 0.01335,-0.10414 0.02003,-0.15621zM248.60802,155.47726c-0.02537,0.01335 -0.0494,0.0267 -0.07477,0.04005c0.02537,-0.01335 0.0494,-0.0267 0.07477,-0.04005zM248.67478,155.47726c0.0227,0.00134 0.04673,0.00401 0.07076,0.00668c-0.00401,0.01469 -0.00801,0.03071 -0.01202,0.04539c-0.02003,-0.01736 -0.03872,-0.03471 -0.05874,-0.05207zM248.70015,155.61745c0.01068,0.01068 0.0227,0.0227 0.03338,0.03338c-0.01068,0.01068 -0.0227,0.0227 -0.03338,0.03338c-0.01068,-0.01068 -0.0227,-0.0227 -0.03338,-0.03338c0.01068,-0.01068 0.0227,-0.0227 0.03338,-0.03338zM248.83366,155.75096c0.01068,0.01068 0.0227,0.0227 0.03338,0.03338c-0.01068,0.01068 -0.0227,0.0227 -0.03338,0.03338c-0.01068,-0.01068 -0.0227,-0.0227 -0.03338,-0.03338c0.01068,-0.01068 0.0227,-0.0227 0.03338,-0.03338zM249.03392,155.88447c0.0227,0 0.04406,0 0.06675,0c0.01068,0.01068 0.0227,0.0227 0.03338,0.03338c-0.01068,-0.01469 -0.0227,-0.02804 -0.03338,-0.04272c-0.0227,0.02537 -0.04406,0.05073 -0.06675,0.0761c-0.01068,-0.01068 -0.0227,-0.0227 -0.03338,-0.03338c0.01068,-0.01068 0.0227,-0.0227 0.03338,-0.03338zM249.23418,156.01798c0.01068,0.01068 0.0227,0.0227 0.03338,0.03338c-0.01068,0.01068 -0.0227,0.0227 -0.03338,0.03338c-0.01068,-0.01068 -0.0227,-0.0227 -0.03338,-0.03338c0.01068,-0.01068 0.0227,-0.0227 0.03338,-0.03338zM249.41442,156.06871c-0.01469,0.0721 -0.03071,0.14419 -0.04673,0.21629c0.01602,-0.0721 0.03204,-0.14419 0.04673,-0.21629zM249.5012,156.285c0.0227,0.04406 0.04406,0.08945 0.06675,0.13351c-0.03338,0.01068 -0.06675,0.0227 -0.10013,0.03338c0.01068,-0.05607 0.0227,-0.11081 0.03338,-0.16689zM249.8016,156.55602c0.06275,0.00935 0.1255,0.02003 0.18825,0.02937c-0.01602,0.03738 -0.03071,0.0761 -0.04539,0.11348c-0.04806,-0.04806 -0.09479,-0.09479 -0.14286,-0.14286zM249.76822,156.68553c0.01068,0.01068 0.0227,0.0227 0.03338,0.03338c-0.01068,-0.01736 -0.0227,-0.03605 -0.03338,-0.0534c-0.01068,0.01736 -0.0227,0.03605 -0.03338,0.0534c0.01068,-0.01068 0.0227,-0.0227 0.03338,-0.03338zM249.94445,156.69888c0.0227,0.02403 0.04539,0.0494 0.06942,0.07343c-0.02403,-0.02403 -0.04673,-0.0494 -0.06942,-0.07343zM220.19187,157.55334c-0.01469,0.0227 -0.02804,0.04406 -0.04272,0.06675c0.01469,-0.0227 0.02804,-0.04406 0.04272,-0.06675zM250.76153,173.44097c-0.22163,0.9586 -0.44459,1.9172 -0.66621,2.87713c-0.25233,0.00801 -0.50467,0.01736 -0.757,0.0267c-0.46595,-1.07208 0.01602,-6.06667 -1.17221,-6.65678c-1.17622,0.64218 -0.29105,2.57139 -0.36448,3.58606c-0.03738,0.50333 -0.52469,0.97061 -0.63684,1.58743c-0.21896,-0.10681 -0.43791,-0.21228 -0.65553,-0.31909c-0.7076,-0.1255 -1.10546,0.53804 -1.22962,1.13483c-0.75299,0.25367 -1.43389,0.24299 -1.85311,0.8598c-0.53137,0.00267 -1.06274,0.00534 -1.5941,0.00801c-0.19893,0.52603 0.69692,2.18288 0.92656,2.77566c1.60211,0.16956 3.20423,0.33911 4.80634,0.50867c0.40987,1.42054 0.59011,3.45122 0.54071,4.92516c-0.00935,0.29506 -0.43124,1.56206 -0.15621,1.64751c-0.02804,0.03071 -0.05607,0.06008 -0.08411,0.08945c-0.09079,0.35647 -0.18157,0.71161 -0.27102,1.06808c-0.04539,0.01068 -0.08945,0.0227 -0.13351,0.03338c0.06542,-0.67689 0.46862,-2.25498 -0.56341,-2.49262c-0.99465,0.72629 -0.50333,2.45791 -2.46993,2.30037c-0.41521,-0.56074 -0.23631,-1.37248 -0.72496,-1.88916c-1.73162,-1.83042 -3.19622,1.01334 -5.18818,0.57943c-0.08678,-0.40053 -0.17356,-0.80106 -0.26034,-1.20159c0.48197,-0.60079 0.79705,-0.1749 0.87849,-1.13483c0.14018,-0.0721 0.28171,-0.14419 0.42189,-0.21629c0.95326,-3.77565 -1.28703,-2.89849 -3.80502,-2.89716c-0.80907,0.00134 -1.60211,-0.35914 -2.40184,-0.24833c-0.62482,0.08678 -0.99865,0.77436 -1.6702,0.62215c-0.45126,-0.71428 1.05472,-2.42987 0.20026,-2.58875c-0.31108,0.59545 -0.62349,1.19224 -0.93457,1.78769c-0.55673,0.15621 -1.1148,0.31375 -1.67154,0.46995c0.12416,0.13351 0.24833,0.26702 0.37249,0.40053c-1.4379,0.97729 -1.9212,0.21495 -3.37378,0.49265c-2.4272,-1.17355 -0.83844,4.63812 -0.53404,5.55266c0.12683,0.3805 0.65687,1.23096 0.42857,1.55405c-0.27636,-0.63016 -0.55273,-1.26166 -0.82909,-1.89183c-0.49799,-0.18558 -0.56341,-1.55405 -0.7303,-2.01466c-0.43791,-1.20559 -0.38718,-2.53802 -0.77436,-3.75696c-0.37783,-1.19357 -1.31907,-1.53402 -1.16554,-3.17352c-0.14286,-0.17757 -0.28571,-0.35647 -0.42857,-0.53404c0.1255,0.03338 0.25233,0.06675 0.37783,0.10013c0.35514,-0.3271 0.0534,-2.01599 0.05474,-2.53668c0.00401,-1.45525 0.11482,-6.40445 1.19758,-7.35637c0.11215,0.09346 0.22296,0.18691 0.33511,0.28037c-0.14152,0.43124 0.08812,0.76501 0,1.17755c-0.11615,0.54071 -0.75967,1.36714 -0.60079,1.93055c0.13217,0.46728 0.73163,0.58611 0.96661,0.96394c-0.32443,0.96928 -0.86247,1.82107 -0.16689,2.85043c0.44592,0.01602 1.07342,-0.18291 1.49664,0.02403c0.2283,0.11215 0.19759,0.36315 0.3311,0.53804c0.41655,0.54739 1.49531,0.71294 2.1228,0.79972c1.6662,0.22964 3.06538,-0.7343 4.35641,-1.54337c0.33377,-0.20827 0.8064,-0.12817 1.05472,-0.48197c0.42055,-0.59812 0.11215,-1.45525 0.35781,-2.11613c0.1295,-0.34979 0.47396,-0.54605 0.51802,-0.93857c0.09613,-0.86648 -0.23498,-1.77034 -1.0614,-2.19757c-0.8371,-0.43257 -2.23094,-0.21495 -3.16818,-0.35514c-1.57808,-0.23765 -2.88915,-0.99732 -4.47257,-1.07342c-0.13351,0.09613 -0.26702,0.19359 -0.40053,0.28972c0.20026,-0.19092 0.40053,-0.38317 0.60079,-0.57409c0.14419,-0.18691 0.28838,-0.37516 0.43257,-0.56207c-0.03338,-0.14419 -0.06542,-0.28972 -0.0988,-0.43391c0.63818,0.16956 0.41388,-0.24032 0.89318,-0.43658c0.50734,-0.20827 0.96794,-0.01602 1.1108,-0.75566c0.08011,-0.41788 -0.36448,-0.73163 -0.20694,-1.15486c0.26301,-0.71161 1.04004,-0.95459 1.17088,-1.69157c-0.07343,-0.08945 -0.14686,-0.17757 -0.22029,-0.26702c0.48063,-0.83176 1.47261,0.26435 1.99196,0.28838c0.54605,0.02403 1.07876,-0.28838 1.60211,-0.23631c0.37783,0.4833 0.757,0.96661 1.13483,1.44991c1.28036,0.06942 1.93455,0.47262 3.16818,0.76768c0.20026,0.4833 1.6168,2.50197 1.93055,2.81037c0.24299,0.23898 0.64619,0.18424 0.84111,0.46061c-0.44459,0.37783 -0.88917,0.75433 -1.33376,1.13216c-1.21227,0.16822 -2.6021,0.86247 -2.13348,2.43655c0.11749,0.39519 0.48197,0.61281 0.57009,1.03737c0.13751,0.65019 0.02003,1.67955 0.52603,2.20691c0.22697,0.23631 2.12013,0.75433 2.63948,1.12014c0.51268,-0.01068 3.52065,-0.13885 3.78633,-0.24699c0.52736,-0.21629 1.03336,-1.04137 1.54737,-1.38449c0.56742,-0.37917 1.42722,-0.82509 1.55272,-1.56206c-0.27903,-0.54872 -1.00933,-0.3538 -1.43256,-0.74632c-0.3538,-0.32977 -0.16422,-0.79972 -0.53137,-1.12281c0.59278,-0.44058 1.45525,0.19893 2.07874,-0.17089c0.55673,-0.32977 0.13217,-1.32575 0.6088,-1.51133c0.06675,0.16021 0.13351,0.32176 0.20026,0.48197c0.12283,0.02136 0.24699,0.04406 0.36982,0.06542c0.51935,1.57408 0.82776,3.36043 1.012,5.00661c0.06942,0.62482 -0.14553,1.4646 0.08678,2.03335c0.75433,-0.1295 0.502,-1.03336 0.60079,-1.56874c0.12149,-0.08812 0.24299,-0.17623 0.36448,-0.26435c0.12016,-0.2777 0.24165,-0.55673 0.36181,-0.83443zM238.48667,179.69989c0.10814,-0.84244 -0.94792,-2.13215 -1.2857,-2.89983c-0.3805,-0.8598 -0.34712,-2.26299 -0.77035,-3.30703c-0.23364,-0.57142 -0.08545,-1.71693 -1.06674,-1.62348c-0.86915,0.08278 -0.85446,1.42722 -0.84779,2.07207c0.00401,0.44726 -0.251,0.64352 -0.27903,1.00132c-0.04539,0.59145 0.34712,1.12682 0.32977,1.66887c-0.00935,0.31241 -0.28037,0.38985 -0.34178,0.66087c-0.1028,0.44325 0.0988,2.24029 0.34712,2.61011c0.87182,0.26301 3.18821,0.49131 3.9145,-0.18291zM246.50258,181.88544c-1.00399,0.0534 -2.00665,0.10547 -3.0093,0.15888c-0.03738,0.11749 -0.0761,0.23498 -0.11348,0.35247c-0.19092,0 -0.38317,0 -0.57409,0c-0.52069,0.70493 0.70092,2.53802 1.55806,2.57406c0.44993,0.02003 1.07342,-0.64485 1.59944,-0.71027c0.11081,0.05874 0.22296,0.11615 0.33377,0.1749c0.67422,-0.54472 0.25767,-1.8718 0.2056,-2.55003zM242.09143,191.92402c0.13484,0.54338 -0.04673,0.89985 -0.35514,1.32308c-1.03203,1.41387 -2.77433,0.70359 -4.18419,0.61281c-0.52736,-0.03471 -1.97995,0.5554 -2.09877,-0.02537c0,-0.23364 0,-0.46728 0,-0.70092c-0.12416,0.16822 -0.24699,0.33778 -0.37116,0.506c-0.46328,-0.19359 -0.26568,-0.64352 0.05073,-0.87315c0.21362,-1.45792 3.40449,-1.02402 4.55534,-1.04137c0.31241,-0.00534 0.54338,-0.29239 0.86781,-0.27236c0.43124,0.02804 1.12281,0.34045 1.53536,0.47129z" fill="#996f59" stroke="#996f59"/><path d="M234.98205,145.56819c-0.02804,0.00267 -0.05474,0.00534 -0.08278,0.00801c0.02804,-0.00267 0.05474,-0.00534 0.08278,-0.00801zM232.17835,145.96872c-0.04406,0.04539 -0.08945,0.09079 -0.13351,0.13618c-0.03204,-0.00267 -0.06408,-0.00401 -0.09613,-0.00668c0.06542,-0.05073 0.13084,-0.10013 0.19626,-0.15087c0.01068,0.00668 0.0227,0.01469 0.03338,0.02136zM231.37729,146.25844c-0.0227,0.04806 -0.04539,0.09746 -0.06809,0.14686c0.0227,-0.0494 0.04539,-0.0988 0.06809,-0.14686zM231.04352,146.50409c-0.02136,0.00668 -0.04272,0.01202 -0.06408,0.01736c0.02136,-0.00534 0.04272,-0.01068 0.06408,-0.01736zM230.90734,146.59621c0.0227,0.01469 0.04673,0.02804 0.06942,0.04272c-0.05073,0.03338 -0.10147,0.06675 -0.1522,0.10013c0.00134,-0.02537 0.00267,-0.05207 0.00534,-0.07744c0.02537,-0.02136 0.05207,-0.04406 0.07744,-0.06542zM230.49746,147.01143c-0.01602,0.01602 -0.03338,0.03204 -0.05073,0.04806c0.01736,-0.01602 0.03471,-0.03204 0.05073,-0.04806zM229.90869,147.61623c-0.01335,0.01869 -0.0267,0.03872 -0.04005,0.05741c0.01335,-0.01869 0.0267,-0.03872 0.04005,-0.05741zM228.23982,148.49205c-0.0227,0.00668 -0.04406,0.01202 -0.06675,0.01869c0.0227,-0.00668 0.04406,-0.01202 0.06675,-0.01869zM228.44008,148.49338c0.06675,0 0.13351,0 0.20026,0c-0.01068,0.01602 -0.0227,0.03204 -0.03338,0.04806c-0.05607,-0.01602 -0.11081,-0.03204 -0.16689,-0.04806zM226.50419,149.33583c0.01068,-0.00401 0.02003,-0.00668 0.03071,-0.01068c-0.04406,0.05073 -0.08678,0.10013 -0.13084,0.15087c-0.60079,0.15621 -1.20159,0.31108 -1.80238,0.46728c-0.23498,0.13217 -0.46862,0.26301 -0.70359,0.39519c0.15754,-0.0761 0.31375,-0.1522 0.46995,-0.2283c0.04806,-0.07744 0.09613,-0.15621 0.14419,-0.23364c0.01869,-0.02003 0.03738,-0.04139 0.05607,-0.06141c0.10013,-0.05207 0.20026,-0.10414 0.3004,-0.15621c0.00267,0.00534 0.00534,0.01202 0.00668,0.01736c0.0227,-0.03204 0.04539,-0.06408 0.06675,-0.09613c0.06408,-0.05741 0.1295,-0.11482 0.19359,-0.17356c0.03338,0.01335 0.06675,0.02537 0.10013,0.03872c0.07744,0.01469 0.15621,0.02937 0.23364,0.04539c0.01068,-0.03338 0.0227,-0.06675 0.03338,-0.0988c0.30974,0 0.61948,0.00134 0.92923,0.00134c0.02403,-0.01869 0.04806,-0.03872 0.0721,-0.05741zM223.89809,150.33848c-0.02136,0.01869 -0.04272,0.03738 -0.06408,0.05607c0.02136,-0.01869 0.04272,-0.03738 0.06408,-0.05607zM223.834,150.39456c-0.20026,0.26034 -0.40053,0.52202 -0.60079,0.7837c-0.03204,-0.02003 -0.06408,-0.04005 -0.09613,-0.06008c0.23231,-0.24165 0.46461,-0.4833 0.69692,-0.72362zM222.87541,152.00869c0.03071,0.12416 0.06008,0.24699 0.09079,0.37116c-0.05607,0.03338 -0.11081,0.06675 -0.16689,0.10013c-0.03471,-0.04406 -0.06942,-0.08945 -0.10414,-0.13351c0.06008,-0.11215 0.12016,-0.22563 0.18024,-0.33778zM247.25557,153.82175c0.0761,0.03738 0.15087,0.07343 0.22697,0.10948c0.01602,0.01602 0.03338,0.03071 0.0494,0.04539c0.01202,0.00401 0.02403,0.00801 0.03605,0.01202c0.03338,0.0761 0.06675,0.15354 0.10013,0.22964c-0.01202,0.04406 -0.02403,0.08678 -0.03605,0.13084c0.01202,-0.04406 0.02403,-0.08678 0.03605,-0.13084c0.07076,0.0534 0.14018,0.10681 0.20961,0.16021c0.00267,0.00401 0.00401,0.00935 0.00668,0.01335c-0.00534,0.04139 -0.01068,0.08278 -0.01602,0.12416c0.15354,0.19225 0.30574,0.38317 0.45927,0.57543c-0.02003,0.00801 -0.04139,0.01736 -0.06141,0.02537c0.02003,-0.00801 0.04139,-0.01736 0.06141,-0.02537c0.04673,-0.00401 0.09212,-0.00801 0.13885,-0.01202c0.0534,0.08144 0.10814,0.16155 0.16155,0.24165c-0.00668,0.05207 -0.01335,0.10414 -0.02003,0.15621c-0.02537,0.01335 -0.0494,0.0267 -0.07477,0.04005c0.02537,-0.01335 0.0494,-0.0267 0.07477,-0.04005c0.02136,0 0.04406,0 0.06675,0c0.02003,0.01736 0.03872,0.03471 0.05874,0.05207c0.22697,0.18024 0.45393,0.35914 0.6809,0.53938c-0.01469,0.0721 -0.03071,0.14419 -0.04673,0.21629c0.01602,-0.0721 0.03204,-0.14419 0.04673,-0.21629c0.1295,0.16288 0.25767,0.32443 0.38718,0.48731c0.04806,0.04806 0.09479,0.09479 0.14286,0.14286c0.0227,0.02403 0.04539,0.0494 0.06942,0.07343c0.08411,0.16021 0.16956,0.32042 0.255,0.48063c-0.10013,0.10147 -0.20026,0.20293 -0.3004,0.3044c-0.14419,-0.14686 -0.28972,-0.29239 -0.43391,-0.43791c-0.22296,-0.15621 -0.44459,-0.31108 -0.66755,-0.46728c-0.08812,-0.20026 -0.17757,-0.40053 -0.26702,-0.60079c-0.10013,-0.00401 -0.20026,-0.00935 -0.3004,-0.01335c-0.30307,-0.57409 -0.60747,-1.14818 -0.91053,-1.72227c-0.04406,-0.16422 -0.08945,-0.32843 -0.13351,-0.49399zM247.76558,154.41586c-0.01068,0.01068 -0.0227,0.0227 -0.03338,0.03338c0.01068,0.01068 0.0227,0.0227 0.03338,0.03338c0.01068,-0.01068 0.0227,-0.0227 0.03338,-0.03338c-0.01068,-0.01068 -0.0227,-0.0227 -0.03338,-0.03338zM220.8968,155.26231c-0.0227,0.00668 -0.04406,0.01469 -0.06675,0.02136c0.0227,-0.00668 0.04406,-0.01469 0.06675,-0.02136zM248.43313,155.21692c0.01469,0.01068 0.02937,0.0227 0.04272,0.03338c-0.01335,-0.01736 -0.02804,-0.03605 -0.04272,-0.0534c0.01068,0.01736 0.0227,0.03605 0.03338,0.0534c-0.01068,-0.01068 -0.0227,-0.0227 -0.03338,-0.03338zM220.83004,155.28368c-0.00668,0.0227 -0.01335,0.04406 -0.02003,0.06675c0.00668,-0.0227 0.01335,-0.04406 0.02003,-0.06675zM248.74287,155.41719c0.00134,0.0227 0.00134,0.04406 0.00267,0.06675c-0.02403,-0.00267 -0.04806,-0.00534 -0.07076,-0.00668c0.0227,-0.02003 0.04539,-0.04005 0.06809,-0.06008zM248.70015,155.61745c-0.01068,0.01068 -0.0227,0.0227 -0.03338,0.03338c0.01068,0.01068 0.0227,0.0227 0.03338,0.03338c0.01068,-0.01068 0.0227,-0.0227 0.03338,-0.03338c-0.01068,-0.01068 -0.0227,-0.0227 -0.03338,-0.03338zM248.83366,155.75096c-0.01068,0.01068 -0.0227,0.0227 -0.03338,0.03338c0.01068,0.01068 0.0227,0.0227 0.03338,0.03338c0.01068,-0.01068 0.0227,-0.0227 0.03338,-0.03338c-0.01068,-0.01068 -0.0227,-0.0227 -0.03338,-0.03338zM249.03392,155.88447c-0.01068,0.01068 -0.0227,0.0227 -0.03338,0.03338c0.01068,0.01068 0.0227,0.0227 0.03338,0.03338c0.0227,-0.02537 0.04406,-0.05073 0.06675,-0.0761c0.01068,0.01469 0.0227,0.02804 0.03338,0.04272c-0.01068,-0.01068 -0.0227,-0.0227 -0.03338,-0.03338c-0.0227,0 -0.04406,0 -0.06675,0zM249.23418,156.01798c-0.01068,0.01068 -0.0227,0.0227 -0.03338,0.03338c0.01068,0.01068 0.0227,0.0227 0.03338,0.03338c0.01068,-0.01068 0.0227,-0.0227 0.03338,-0.03338c-0.01068,-0.01068 -0.0227,-0.0227 -0.03338,-0.03338zM249.5012,156.285c-0.01068,0.05607 -0.0227,0.11081 -0.03338,0.16689c0.03338,-0.01068 0.06675,-0.0227 0.10013,-0.03338c-0.0227,-0.04406 -0.04406,-0.08945 -0.06675,-0.13351zM249.76822,156.68553c-0.01068,0.01068 -0.0227,0.0227 -0.03338,0.03338c0.01068,-0.01736 0.0227,-0.03605 0.03338,-0.0534c0.01068,0.01736 0.0227,0.03605 0.03338,0.0534c-0.01068,-0.01068 -0.0227,-0.0227 -0.03338,-0.03338zM220.17584,157.47724c0.00534,0.02537 0.01068,0.05073 0.01602,0.0761c-0.01469,0.0227 -0.02804,0.04406 -0.04272,0.06675c-0.01736,-0.01068 -0.03471,-0.0227 -0.05207,-0.03338c0.0267,-0.03605 0.0534,-0.0721 0.07877,-0.10948zM251.54523,172.04179c-0.1028,0.11081 -0.2056,0.22029 -0.30841,0.3311c-0.15888,0.35647 -0.31642,0.71161 -0.47529,1.06808c-0.12016,0.2777 -0.24165,0.55673 -0.36181,0.83443c-0.12149,0.08812 -0.24299,0.17623 -0.36448,0.26435c-0.0988,0.53537 0.15354,1.43923 -0.60079,1.56874c-0.23231,-0.56875 -0.01736,-1.40853 -0.08678,-2.03335c-0.18424,-1.64617 -0.49265,-3.43253 -1.012,-5.00661c-0.12283,-0.02136 -0.24699,-0.04406 -0.36982,-0.06542c-0.06675,-0.16021 -0.13351,-0.32176 -0.20026,-0.48197c-0.47663,0.18558 -0.05207,1.18156 -0.6088,1.51133c-0.62349,0.36982 -1.48596,-0.26969 -2.07874,0.17089c0.36715,0.32309 0.17757,0.79305 0.53137,1.12281c0.42323,0.39252 1.15352,0.19759 1.43256,0.74632c-0.1255,0.73697 -0.9853,1.18289 -1.55272,1.56206c-0.51401,0.34312 -1.02001,1.16821 -1.54737,1.38449c-0.26568,0.10814 -3.27365,0.23631 -3.78633,0.24699c-0.51935,-0.36582 -2.41252,-0.88383 -2.63948,-1.12014c-0.506,-0.52736 -0.38851,-1.55672 -0.52603,-2.20691c-0.08812,-0.42456 -0.4526,-0.64218 -0.57009,-1.03737c-0.46862,-1.57408 0.92122,-2.26833 2.13348,-2.43655c0.44459,-0.37783 0.88917,-0.75433 1.33376,-1.13216c-0.19492,-0.27636 -0.59812,-0.22163 -0.84111,-0.46061c-0.31375,-0.30841 -1.73028,-2.32707 -1.93055,-2.81037c-1.23363,-0.29506 -1.88782,-0.69825 -3.16818,-0.76768c-0.37783,-0.4833 -0.757,-0.96661 -1.13483,-1.44991c-0.52336,-0.05207 -1.05606,0.26034 -1.60211,0.23631c-0.51935,-0.02403 -1.51133,-1.12014 -1.99196,-0.28838c0.07343,0.08945 0.14686,0.17757 0.22029,0.26702c-0.13084,0.73697 -0.90786,0.97996 -1.17088,1.69157c-0.15754,0.42323 0.28705,0.73697 0.20694,1.15486c-0.14286,0.73964 -0.60346,0.54739 -1.1108,0.75566c-0.4793,0.19626 -0.255,0.60613 -0.89318,0.43658c0.03338,0.14419 0.06542,0.28972 0.0988,0.43391c-0.14419,0.18691 -0.28838,0.37516 -0.43257,0.56207c-0.20026,0.19092 -0.40053,0.38317 -0.60079,0.57409c0.13351,-0.09613 0.26702,-0.19359 0.40053,-0.28972c1.58342,0.0761 2.89449,0.83577 4.47257,1.07342c0.93724,0.14018 2.33108,-0.07744 3.16818,0.35514c0.82642,0.42723 1.15753,1.33109 1.0614,2.19757c-0.04406,0.39252 -0.38851,0.58878 -0.51802,0.93857c-0.24566,0.66087 0.06275,1.518 -0.35781,2.11613c-0.24833,0.3538 -0.72095,0.27369 -1.05472,0.48197c-1.29104,0.80907 -2.69022,1.77301 -4.35641,1.54337c-0.62749,-0.08678 -1.70625,-0.25233 -2.1228,-0.79972c-0.13351,-0.1749 -0.1028,-0.4259 -0.3311,-0.53804c-0.42323,-0.20694 -1.05072,-0.00801 -1.49664,-0.02403c-0.69558,-1.02936 -0.15754,-1.88115 0.16689,-2.85043c-0.23498,-0.37783 -0.83443,-0.49666 -0.96661,-0.96394c-0.15888,-0.56341 0.48464,-1.38983 0.60079,-1.93055c0.08812,-0.41254 -0.14152,-0.74632 0,-1.17755c-0.11215,-0.09346 -0.22296,-0.18691 -0.33511,-0.28037c-1.08276,0.95192 -1.19357,5.90112 -1.19758,7.35637c-0.00134,0.52069 0.3004,2.20958 -0.05474,2.53668c-0.1255,-0.03338 -0.25233,-0.06675 -0.37783,-0.10013c-0.35514,-0.91588 -0.12683,-1.6395 -0.78904,-2.36979c-0.05073,-0.24432 -0.10013,-0.48998 -0.15087,-0.7343c-0.32576,-0.67823 -0.65019,-1.35779 -0.97595,-2.03602c0.96127,0.4793 0.88116,2.6288 1.81039,2.87846c0.51668,-0.27503 0.54338,-1.52735 0.54739,-2.04403c0.01335,-1.69157 0.04005,-3.68486 0.4299,-5.33637c0.27903,-1.17622 0.76768,-2.94388 1.46326,-3.93586c0.24032,-0.34312 0.71695,-0.32042 0.92789,-0.61681c0.38184,-0.53804 0.50734,-1.09478 1.02936,-1.5674c0.24299,-0.22029 0.62215,-0.23231 0.84378,-0.48998c0.14953,-0.1749 0.0721,-0.40987 0.22163,-0.58077c0.89184,-1.01467 2.33775,-0.65153 3.48193,-0.65954c0.86648,-0.00668 2.00531,-0.15354 2.84375,0.03471c0.9853,0.22029 2.23361,0.71027 3.12679,1.20826c0.37116,0.20827 0.50467,0.56742 0.90519,0.71161c0.40453,1.1108 1.07609,2.4766 1.84644,3.34308c0.56608,0.63818 1.86513,1.04938 1.90919,2.01466c0.04806,1.08944 -1.60612,0.8331 -2.30704,1.14685c-0.46595,0.20961 -1.95992,1.58342 -2.04804,2.08809c-0.07076,0.40053 0.41254,0.48597 0.59011,0.74632c0.26435,0.38851 0.06942,0.91988 0.34579,1.32441c0.14419,0.21228 0.4526,0.20293 0.58744,0.41121c0.51001,0.78904 0.56875,0.62883 1.54604,0.76234c0.57142,0.74498 3.80369,0.74231 2.85443,-0.20427c0.61681,-0.59145 1.96392,-0.00801 2.45123,-0.93457c-0.23498,-2.27634 -2.75297,-1.32842 -4.19887,-1.93589c0.17623,-0.87449 2.84242,-1.29638 3.56604,-1.27769c0.50734,0.01335 0.95326,0.3044 1.4686,0.26568c0.98129,-0.07343 0.48464,-1.42321 1.4686,-1.42054c0.74899,1.17221 0.85313,5.21755 1.93589,5.53797c0.95726,-0.63551 1.13216,-2.08408 1.26834,-3.07205c0.1028,0.48998 0.2056,0.98129 0.30841,1.47127zM218.47093,161.49187c0.00401,0.0227 0.00935,0.04406 0.01335,0.06675c-0.00401,-0.0227 -0.00935,-0.04406 -0.01335,-0.06675zM233.26378,171.60521c1.38449,-0.81441 -0.23231,-1.88515 -1.012,-2.27233c-1.11347,-0.5554 -5.43784,-1.39651 -6.57935,-1.16287c-0.8825,0.18024 -2.03068,1.55939 -1.73829,2.48595c0.9359,0.76768 4.5727,-0.70092 5.69418,0.41521c-0.91855,0.90386 -4.53532,-0.33644 -4.22023,2.53668c0.12016,0.09079 3.4085,1.20025 3.59942,1.1909c0.38718,-0.01869 1.64083,-0.02136 1.4152,-0.59011c0.83977,-0.39786 1.49931,-0.0494 2.1228,-0.83043c1.30038,-0.16422 0.71695,-0.86648 0.71828,-1.77301zM247.46118,187.59297c-0.12683,0.36982 -0.25367,0.73831 -0.3805,1.10813c-0.06141,-0.13751 -0.12149,-0.27636 -0.18291,-0.41388c-0.11081,-0.03471 -0.22296,-0.06942 -0.33377,-0.10414c-1.26834,1.02402 -2.40451,2.27367 -3.2069,3.67685c-0.47663,0.8331 -1.06808,2.27233 -1.95057,2.78768c-1.95191,1.13884 -5.59939,0.60079 -7.70884,0.12683c-1.05205,-0.23631 -3.12813,-2.17086 -3.55669,-3.10009c-0.31775,-0.68757 -0.53137,-1.53402 -0.98931,-2.15885c-0.34979,-0.47663 -1.96793,-0.78904 -2.48061,-0.57009c-0.02136,0.14953 -0.04272,0.3004 -0.06408,0.44993c-0.0227,0.01602 -0.04673,0.03071 -0.06942,0.04673c-0.04539,-0.07076 -0.09212,-0.14286 -0.13751,-0.21362c-0.00935,-0.08945 -0.02003,-0.17757 -0.02937,-0.26702c-0.06809,-0.09212 -0.13751,-0.18558 -0.2056,-0.2777c0.2283,-0.32309 -0.30173,-1.17355 -0.42857,-1.55405c-0.3044,-0.91454 -1.89316,-6.72621 0.53404,-5.55266c1.45258,-0.2777 1.93589,0.48464 3.37378,-0.49265c-0.12416,-0.13351 -0.24833,-0.26702 -0.37249,-0.40053c0.55673,-0.15621 1.1148,-0.31375 1.67154,-0.46995c0.31108,-0.59545 0.62349,-1.19224 0.93457,-1.78769c0.85446,0.15888 -0.65153,1.87447 -0.20026,2.58875c0.67155,0.1522 1.04538,-0.53537 1.6702,-0.62215c0.79972,-0.11081 1.59277,0.24966 2.40184,0.24833c2.51799,-0.00134 4.75828,-0.87849 3.80502,2.89716c-0.14018,0.0721 -0.28171,0.14419 -0.42189,0.21629c-0.08144,0.95993 -0.39652,0.53404 -0.87849,1.13483c0.08678,0.40053 0.17356,0.80106 0.26034,1.20159c1.99196,0.43391 3.45656,-2.40985 5.18818,-0.57943c0.48864,0.51668 0.30974,1.32842 0.72496,1.88916c1.96659,0.15754 1.47528,-1.57408 2.46993,-2.30037c1.03203,0.23765 0.62883,1.81573 0.56341,2.49262zM233.29582,181.07103c-0.39519,0.13885 -1.02535,0.22296 -1.3164,0.55139c-0.51802,0.58477 0.59011,1.79971 1.13483,1.99864c1.1909,0.43524 2.66885,-0.27369 3.77298,-0.56074c0.76234,-0.19893 2.50998,0.31642 2.5754,-1.17488c0.02003,-0.45527 -0.80773,-0.7837 -1.17622,-0.84244c-0.73163,-0.11749 -1.63549,0.23898 -2.40317,0.23364c-0.73831,-0.00534 -1.91186,-0.44592 -2.58741,-0.2056zM246.50258,181.88544c0.05207,0.67823 0.46862,2.00531 -0.2056,2.55003c-0.11081,-0.05874 -0.22296,-0.11615 -0.33377,-0.1749c-0.52603,0.06542 -1.14952,0.7303 -1.59944,0.71027c-0.85713,-0.03605 -2.07874,-1.86913 -1.55806,-2.57406c0.19092,0 0.38317,0 0.57409,0c0.03738,-0.11749 0.0761,-0.23498 0.11348,-0.35247c1.00266,-0.0534 2.00531,-0.10547 3.0093,-0.15888zM233.23441,188.82793c0.23631,-0.60079 1.85044,-0.44993 2.38181,-0.43925c0.66488,0.01469 0.87315,-0.23231 1.4152,-0.36849c0.91988,-0.23364 2.06673,-0.17223 2.98794,-0.24032c0.41254,-0.03071 0.73564,-0.36582 1.14151,-0.43257c0.47129,-0.07744 0.92656,0.22029 1.39384,0.0988c0.37249,-0.09746 0.6315,-0.75833 0.52069,-1.09211c-0.17356,-0.51935 -0.7343,-0.71027 -1.23763,-0.6048c-0.56742,0.11882 -1.00933,0.6088 -1.59544,0.73564c-0.79171,0.17356 -1.68222,-0.02136 -2.48995,0.04539c-0.57009,0.04806 -1.08543,0.29906 -1.65151,0.35781c-0.79038,0.08278 -1.45792,-0.34979 -2.22026,-0.3765c-0.62215,-0.0227 -1.30572,0.35514 -1.9212,0.1255c-0.97328,-0.36181 -1.70492,-1.4873 -2.87179,-1.02802c-1.86913,0.73564 1.51133,3.55135 2.32307,3.42719c0.06675,-0.1749 0.13351,-0.34979 0.20026,-0.52603c0.34445,0.17223 0.69024,0.34579 1.0347,0.51802c-2.77833,2.37513 3.36844,2.96124 5.09472,1.88916c0.55807,-0.34712 1.46994,-0.37249 1.33242,-1.28837c-1.73429,-0.62883 -4.32304,0.14152 -5.83837,-0.80106zM242.09143,191.92402c-0.41254,-0.13084 -1.10412,-0.44325 -1.53536,-0.47129c-0.32443,-0.02003 -0.5554,0.26702 -0.86781,0.27236c-1.15085,0.01736 -4.34173,-0.41655 -4.55534,1.04137c-0.31642,0.22964 -0.51401,0.67956 -0.05073,0.87315c0.12416,-0.16822 0.24699,-0.33778 0.37116,-0.506c0,0.23364 0,0.46728 0,0.70092c0.11882,0.58077 1.57141,-0.00935 2.09877,0.02537c1.40986,0.09079 3.15216,0.80106 4.18419,-0.61281c0.30841,-0.42323 0.48998,-0.7797 0.35514,-1.32308z" fill="#835c49" stroke="#835c49"/><path d="M247.21552,153.56541c0.03071,0.03872 0.06141,0.07744 0.09212,0.11615c-0.01736,0.04673 -0.03471,0.09346 -0.05207,0.14018c0.04406,0.16555 0.08945,0.32977 0.13351,0.49399c0.30307,0.57409 0.60747,1.14818 0.91053,1.72227c0.10013,0.00401 0.20026,0.00935 0.3004,0.01335c0.08945,0.20026 0.1789,0.40053 0.26702,0.60079c0.22296,0.15621 0.44459,0.31108 0.66755,0.46728c0.14419,0.14553 0.28972,0.29105 0.43391,0.43791c0.10013,-0.10147 0.20026,-0.20293 0.3004,-0.3044c-0.08545,-0.16021 -0.17089,-0.32042 -0.255,-0.48063c0.18825,0.16021 0.3765,0.32042 0.56608,0.48063c0.0988,0.17757 0.19893,0.35647 0.29906,0.53404c0.01068,0.80106 0.94925,1.94924 1.21761,2.77833c0.91053,2.81839 0.21629,3.0587 0.10547,5.63277c-0.04272,0.99198 0.09212,2.3738 -0.61414,3.13747c-0.01469,0.90252 -0.02804,1.80371 -0.04272,2.70624c-0.1028,-0.48998 -0.2056,-0.98129 -0.30841,-1.47127c-0.13618,0.98797 -0.31108,2.43655 -1.26834,3.07205c-1.08276,-0.32042 -1.1869,-4.36576 -1.93589,-5.53797c-0.98396,-0.00267 -0.48731,1.34711 -1.4686,1.42054c-0.51535,0.03872 -0.96127,-0.25233 -1.4686,-0.26568c-0.72362,-0.01869 -3.38981,0.4032 -3.56604,1.27769c1.44591,0.60747 3.9639,-0.34045 4.19887,1.93589c-0.48731,0.92656 -1.83442,0.34312 -2.45123,0.93457c0.94925,0.94658 -2.28301,0.94925 -2.85443,0.20427c-0.97729,-0.13351 -1.03603,0.0267 -1.54604,-0.76234c-0.13484,-0.20827 -0.44325,-0.19893 -0.58744,-0.41121c-0.27636,-0.40453 -0.08144,-0.9359 -0.34579,-1.32441c-0.17757,-0.26034 -0.66087,-0.34579 -0.59011,-0.74632c0.08812,-0.50467 1.58209,-1.87848 2.04804,-2.08809c0.70092,-0.31375 2.35511,-0.05741 2.30704,-1.14685c-0.04406,-0.96527 -1.34311,-1.37648 -1.90919,-2.01466c-0.77035,-0.86648 -1.4419,-2.23228 -1.84644,-3.34308c-0.40053,-0.14419 -0.53404,-0.50333 -0.90519,-0.71161c-0.89318,-0.49799 -2.14149,-0.98797 -3.12679,-1.20826c-0.83844,-0.18825 -1.97728,-0.04139 -2.84375,-0.03471c-1.14418,0.00801 -2.59008,-0.35514 -3.48193,0.65954c-0.14953,0.17089 -0.0721,0.40587 -0.22163,0.58077c-0.22163,0.25767 -0.60079,0.26969 -0.84378,0.48998c-0.52202,0.47262 -0.64752,1.02936 -1.02936,1.5674c-0.21094,0.29639 -0.68757,0.27369 -0.92789,0.61681c-0.69558,0.99198 -1.18423,2.75964 -1.46326,3.93586c-0.38985,1.65151 -0.41655,3.64481 -0.4299,5.33637c-0.00401,0.51668 -0.03071,1.769 -0.54739,2.04403c-0.92923,-0.24966 -0.84912,-2.39917 -1.81039,-2.87846c0.00267,-0.60079 0.00534,-1.20159 0.00801,-1.80238c-0.06675,-0.06275 -0.13351,-0.1255 -0.20026,-0.18825c-0.05607,-0.41521 -0.11081,-0.83176 -0.16689,-1.24698c-0.03204,-0.25634 -0.06542,-0.51134 -0.09746,-0.76768c0.04272,-0.01335 0.08678,-0.0267 0.13084,-0.04005c0.07076,0.46995 0.14152,0.93857 0.21228,1.40853c0.10681,0.04539 0.21495,0.09079 0.32176,0.13618c0,0.64619 0,1.29237 0,1.93856c0.36048,0.73297 0.71962,1.4646 1.08009,2.19757c0.94792,0.66221 1.012,-1.91586 1.02535,-2.40317c0.08945,-3.11077 0.04806,-7.15477 2.0467,-9.77957c0.21362,-0.28171 2.07474,-2.35244 2.18154,-2.41118c1.44724,-0.79438 7.12006,-0.9626 8.64207,-0.41655c0.79305,0.28304 2.00531,0.88784 2.62213,1.45258c0.39519,0.35914 0.59011,1.03603 1.09344,1.24164c0.22563,1.02135 1.34044,1.17488 1.63683,2.30304c0.28571,0.16555 0.61014,0.22697 0.81841,0.502c0.35914,0.47529 1.38049,3.30035 0.99064,3.64481c-0.74365,0.65553 -3.60209,0.06141 -3.04535,1.85044c1.57007,0.45794 3.44721,-0.66755 4.93718,-1.0387c0.67823,-0.16822 1.3925,0.13885 2.07207,-0.06141c0.46728,-0.79839 0.93457,-1.59544 1.40185,-2.39383c-0.01335,0.25634 -0.0267,0.51134 -0.03872,0.76768c0.26435,0.79038 0.53003,1.57942 0.79438,2.36979c0.01469,0.20026 0.03071,0.40053 0.04539,0.60079c0.03605,0.13351 0.0721,0.26702 0.10948,0.40053c0.23231,0.76768 0.46461,1.53536 0.69692,2.30304c1.36046,0.0721 0.45527,-3.59408 1.19624,-3.81971c0.06675,0.1482 0.13351,0.29773 0.20026,0.44592c0.24432,-0.44325 0.48998,-0.88784 0.7343,-1.33242c-0.01202,-0.36715 -0.0227,-0.7343 -0.03471,-1.10145c-0.16956,0.0227 -0.33778,0.04406 -0.50734,0.06675c-0.13751,0.24432 -0.27369,0.48998 -0.41121,0.7343c-0.91187,-0.95192 1.65552,-2.32574 -0.04806,-3.50462c0.15888,-0.88784 1.62348,-4.58338 -0.40053,-4.60608c-0.53404,-0.57276 -1.06808,-1.14418 -1.60211,-1.71693c-0.55406,0.18691 -0.23765,0.63283 -0.26702,1.05606c-0.86381,0.25367 -1.06941,-1.67287 -1.01467,-2.1762c-0.21762,-0.40854 -0.43658,-0.81574 -0.6542,-1.22428c-0.64619,-0.19893 -1.10279,-1.55405 -1.78102,-1.3124c0.09346,0.5781 0.18558,1.15753 0.27903,1.73562c-0.54071,-0.13217 -0.38317,-1.05072 -1.16821,-0.96928c-0.08278,0.25634 -0.16689,0.51268 -0.24966,0.76901c0.22296,0.55673 0.44459,1.11213 0.66755,1.66887c-0.82108,-0.02003 -0.36048,-1.68355 -1.61947,-1.39384c-0.5781,-0.75433 -1.15753,-1.50999 -1.73562,-2.26432c-0.04406,0.16288 -0.08945,0.32443 -0.13351,0.48731c-0.17757,-0.0227 -0.35647,-0.04406 -0.53404,-0.06675c-0.20026,-0.3805 -0.40053,-0.761 -0.60079,-1.14151c-0.10013,0.03605 -0.20026,0.07076 -0.3004,0.10681c-0.52336,-0.47796 -1.04538,-0.95726 -1.56874,-1.43523c-0.01068,0.34445 -0.0227,0.69024 -0.03338,1.0347c-0.26702,0.0227 -0.53404,0.04406 -0.80106,0.06675c-0.25634,-0.46728 -0.51134,-0.93457 -0.76768,-1.40185c-0.15621,-0.05607 -0.31108,-0.11081 -0.46728,-0.16689c0.04673,-1.00666 -2.38848,-2.6248 -3.17085,-3.04802c-0.25901,-0.14018 -0.60613,-0.04806 -0.84645,-0.18958c0.29372,-0.08945 0.58611,-0.17757 0.87983,-0.26702c0.48998,0.15888 0.97862,0.31775 1.4686,0.47796c0.13217,-0.22697 0.26568,-0.4526 0.39786,-0.67823c-1.56473,-1.96793 -4.23492,0.19225 -5.11208,1.73562c0.13618,0.0227 0.27102,0.04406 0.4072,0.06675c0.01068,0.12149 0.0227,0.24165 0.03471,0.36315c0.66755,-0.03872 1.33509,-0.0761 2.00264,-0.11482c0.08945,0.08945 0.17757,0.17757 0.26702,0.26702c0.06675,-0.48998 0.13351,-0.97862 0.20026,-1.4686c0.42857,0.06275 0.24432,0.39385 0.48998,0.62883c0.36181,0.34712 0.84512,0.63551 1.16554,0.97061c0.24032,0.25367 0.24165,0.66755 0.49799,0.90519c0.18157,0.16689 0.47129,0.12817 0.63551,0.3004c0.14553,0.15087 0.1522,0.38584 0.08144,0.55807c-0.33377,-0.11348 -0.66755,-0.22697 -1.00132,-0.34045c-0.0227,0.12283 -0.04406,0.24699 -0.06675,0.36982c-0.31108,-0.27636 -0.62349,-0.55406 -0.93457,-0.83176c-0.25233,0.33377 0.83043,1.59944 1.13483,1.89717c-0.09479,0.16689 -0.19092,0.33377 -0.28571,0.50066c0.00668,0.14419 0.01202,0.28972 0.01869,0.43391c-0.64485,-0.2243 -0.77836,-0.96794 -1.58876,-0.90119c-0.06008,0.11081 -0.12016,0.22296 -0.18024,0.33377c-0.26702,-0.0227 -0.53404,-0.04406 -0.80106,-0.06675c-0.18024,-0.13351 -0.36048,-0.26702 -0.54071,-0.40053c-0.02003,0.13351 -0.04005,0.26702 -0.06008,0.40053c-0.23364,-0.20694 -0.46728,-0.41521 -0.70092,-0.62215c-0.52202,0.23898 -0.79171,-0.14286 -1.13483,-0.56608c-0.05607,0.19626 -0.11081,0.39118 -0.16689,0.58744c-0.18291,-0.03738 -0.36448,-0.0761 -0.54739,-0.11348c-0.07343,-0.08678 -0.14686,-0.17356 -0.22029,-0.26034c0,0.00534 0,0.00935 0.00134,0.01335c-0.02937,-0.05741 -0.05874,-0.11615 -0.08812,-0.17356c-0.13751,-0.0227 -0.27636,-0.04406 -0.41388,-0.06675c-0.37116,-0.42857 -0.25233,-1.43923 -1.10145,-1.10946c-0.33377,0.03605 -0.66755,0.0721 -1.00132,0.10814c0,0.3004 0,0.60079 0,0.90119c-0.70359,0.49265 -0.08144,0.95726 -0.52736,1.43523c-0.31375,0.02003 -0.62749,0.03872 -0.94124,0.05874c-1.06007,1.13884 -2.1989,2.4232 -2.67954,3.93586c-0.21629,0.67823 0.15487,1.86112 -0.19092,2.41652c-0.22296,-0.57409 -0.44459,-1.14952 -0.66755,-1.72361c-0.42323,0.44726 -0.84512,0.89451 -1.26834,1.34177c-0.13217,0.79305 -0.26568,1.58743 -0.39786,2.38181c0.63283,0.77168 -0.04005,1.70358 0.19759,2.51398c0.12283,-0.01469 0.24432,-0.02937 0.36715,-0.04406c0.08945,0.71161 0.17757,1.42455 0.26702,2.13615c-0.10013,-0.06141 -0.20026,-0.12416 -0.3004,-0.18558c0.0227,0.45126 0.04539,0.90252 0.06675,1.35379c-0.79038,-1.12014 -0.43658,-3.85575 -1.23496,-4.50595c-0.01602,-0.2777 -0.03204,-0.55673 -0.04806,-0.83443c0.03471,-0.01068 0.06809,-0.0227 0.1028,-0.03338c0,-0.18958 0.00134,-0.37783 0.00267,-0.56742c-0.00401,-0.0227 -0.00935,-0.04406 -0.01335,-0.06675c0.04139,-0.08945 0.08144,-0.17757 0.12283,-0.26702c0.10013,-0.38985 0.20026,-0.77836 0.3004,-1.16821c0.18958,-0.36715 0.37783,-0.7343 0.56742,-1.10145c0.14553,-0.32309 0.29105,-0.64485 0.43658,-0.96794c0.08411,-0.12283 0.16689,-0.24432 0.251,-0.36715c0.01469,-0.0227 0.02804,-0.04406 0.04272,-0.06675c-0.00534,-0.02537 -0.01068,-0.05073 -0.01602,-0.0761c0.38584,-0.35247 0.77035,-0.70627 1.15486,-1.05873c0.23364,-0.4566 0.46728,-0.91187 0.70092,-1.36847c0.21094,-0.32977 0.42323,-0.6582 0.63417,-0.98797c0.21094,-0.07076 0.42323,-0.14286 0.63417,-0.21362c0.1522,-0.26702 0.30307,-0.53404 0.45527,-0.80106c0.49399,-0.16155 0.65019,-0.47796 0.97996,-0.01202c-0.03605,-0.19626 -0.07343,-0.39252 -0.10948,-0.58878c0.12016,-0.40053 0.24165,-0.80106 0.36181,-1.20159c0.0721,-0.32843 0.14286,-0.65687 0.21495,-0.98396c0.47529,-0.09479 0.95059,-0.18958 1.42588,-0.28438c-0.01602,-0.63551 0.39652,-0.53003 0.86648,-0.46728c0.21495,-0.1749 0.4299,-0.35113 0.64485,-0.52603c0.44325,0.58744 0.84244,0.53804 1.4686,0.09212c0.22296,-0.51802 0.44459,-1.03603 0.66755,-1.55405c0.08945,0.01469 0.17757,0.02937 0.26702,0.04272c0.43124,-0.32977 0.66221,-0.85446 1.21761,-1.08143c0.36715,-0.14953 0.67422,0.1255 1.05205,0.0721c1.4913,-0.2056 2.87446,-1.03603 4.40581,-1.06808c0.08545,0.24966 0.17089,0.50066 0.25634,0.75166c-0.28571,0.03338 -0.57142,0.06675 -0.85713,0.10013c-0.11081,-0.0494 -0.22296,-0.0988 -0.33377,-0.14953c-0.13351,0.08278 -0.26702,0.16555 -0.40053,0.24833c0.0227,0.1295 0.04406,0.25901 0.06675,0.38851c0.44058,0.08144 1.23096,0.17089 1.3164,0.6809c-0.3271,0.04406 -0.65553,0.08945 -0.98263,0.13351c0.46595,0.64485 2.40317,-0.14152 2.46993,1.19624c-0.22296,0.0534 -0.44459,0.10681 -0.66755,0.16155c-0.15621,-0.16822 -0.31108,-0.33511 -0.46728,-0.502c-0.20026,0.08278 -0.40053,0.16555 -0.60079,0.24833c-0.12283,0.12149 -0.24432,0.24299 -0.36715,0.36448c0.01068,0.255 0.0227,0.51001 0.03338,0.76501c-0.35781,-0.21094 -0.71428,-0.42055 -1.07208,-0.6315c0.63283,1.23363 0.94792,2.02667 2.00665,2.76231c0,-0.4566 0,-0.9132 0,-1.37114c0.51134,0.38718 1.02402,0.77302 1.53536,1.15886c0.24432,0.05207 0.48998,0.10414 0.7343,0.15621c0.89051,-0.83176 1.8718,0.43124 2.67019,0.7076c0.24833,0.39385 0.68757,0.94525 1.20159,0.99598c0.0227,-0.13084 0.04406,-0.26168 0.06675,-0.39385c0.11081,0.02403 0.22296,0.04673 0.33377,0.06942c-0.08945,-0.32176 -0.17757,-0.64352 -0.26702,-0.96527c0.5287,0.33911 1.05606,0.67956 1.58476,1.01868c0.27236,0.01869 0.54605,0.03605 0.81841,0.05474c0.0227,-0.12149 0.04406,-0.24299 0.06675,-0.36448c0.21896,0.16956 0.43658,0.34045 0.65553,0.51001c0.06542,-0.00534 0.13084,-0.01068 0.19626,-0.01602zM233.26378,171.60521c-0.00134,0.90653 0.5821,1.60879 -0.71828,1.77301c-0.62349,0.78103 -1.28303,0.43257 -2.1228,0.83043c0.22563,0.56875 -1.02802,0.57142 -1.4152,0.59011c-0.19092,0.00935 -3.47926,-1.10012 -3.59942,-1.1909c-0.31508,-2.87312 3.30169,-1.63282 4.22023,-2.53668c-1.12148,-1.11614 -4.75828,0.35247 -5.69418,-0.41521c-0.29239,-0.92656 0.8558,-2.30571 1.73829,-2.48595c1.14151,-0.23364 5.46588,0.60747 6.57935,1.16287c0.7797,0.38718 2.3965,1.45792 1.012,2.27233zM232.31853,170.06985c-1.11747,-1.25499 -5.41114,-1.73295 -6.83836,-1.02402c-0.38184,0.18958 -0.64085,0.63818 -0.86247,0.95726c0.35247,0.26435 1.39517,0.03338 1.85311,0.0227c0.99064,-0.02136 5.69818,1.012 5.84772,0.04406zM240.9072,171.20468c-0.93991,-0.03471 -1.55672,0.72629 -1.35245,1.6168c0.42323,-0.13751 0.84512,-0.27503 1.26834,-0.41254c1.16554,1.49264 2.08542,1.27235 2.87045,-0.39786c0.26168,0.04272 0.52336,0.08545 0.78504,0.12817c0.04406,0.1028 0.08812,0.20694 0.13351,0.30974c0.12817,0 0.25634,0 0.38451,0c-0.22697,-1.52601 -3.72224,-0.54338 -4.30702,-0.89585c0.0721,-0.11615 0.14553,-0.23231 0.21762,-0.34846zM230.80987,171.88558c-0.31642,0.45393 -4.13746,-0.23765 -4.48592,1.46193c0.20427,0 0.40987,0 0.61414,0c0.31108,-0.17223 0.62349,-0.34445 0.93457,-0.51668c0.93991,1.68756 2.21092,1.63816 2.73694,-0.27236c0.44058,0.23898 0.87983,0.47663 1.32041,0.71561c0.13351,-0.8331 -0.38718,-1.21093 -1.12014,-1.3885zM233.29582,181.07103c0.67556,-0.24032 1.84911,0.20026 2.58741,0.2056c0.76768,0.00534 1.67154,-0.35113 2.40317,-0.23364c0.36849,0.05874 1.19624,0.38718 1.17622,0.84244c-0.06542,1.4913 -1.81306,0.97595 -2.5754,1.17488c-1.10412,0.28705 -2.58207,0.99598 -3.77298,0.56074c-0.54472,-0.19893 -1.65285,-1.41387 -1.13483,-1.99864c0.29105,-0.32843 0.92122,-0.41254 1.3164,-0.55139zM233.23441,188.82793c1.51533,0.94258 4.10408,0.17223 5.83837,0.80106c0.13751,0.91588 -0.77436,0.94124 -1.33242,1.28837c-1.72628,1.07208 -7.87305,0.48597 -5.09472,-1.88916c-0.34445,-0.17223 -0.69024,-0.34579 -1.0347,-0.51802c-0.06675,0.17623 -0.13351,0.35113 -0.20026,0.52603c-0.81174,0.12416 -4.1922,-2.69155 -2.32307,-3.42719c1.16687,-0.45927 1.8985,0.66621 2.87179,1.02802c0.61548,0.22964 1.29905,-0.1482 1.9212,-0.1255c0.76234,0.0267 1.42989,0.45927 2.22026,0.3765c0.56608,-0.05874 1.08143,-0.30974 1.65151,-0.35781c0.80773,-0.06675 1.69824,0.12817 2.48995,-0.04539c0.58611,-0.12683 1.02802,-0.61681 1.59544,-0.73564c0.50333,-0.10547 1.06407,0.08545 1.23763,0.6048c0.11081,0.33377 -0.1482,0.99465 -0.52069,1.09211c-0.46728,0.12149 -0.92255,-0.17623 -1.39384,-0.0988c-0.40587,0.06675 -0.72896,0.40186 -1.14151,0.43257c-0.92122,0.06809 -2.06806,0.00668 -2.98794,0.24032c-0.54205,0.13618 -0.75032,0.38317 -1.4152,0.36849c-0.53137,-0.01068 -2.1455,-0.16155 -2.38181,0.43925zM247.08068,188.7011c-0.19492,0.49799 -0.38851,0.99732 -0.58344,1.49531c0.00134,0.07744 0.00267,0.15621 0.00401,0.23364c-0.09079,0.07744 -0.18024,0.15621 -0.27102,0.23364c0.03338,0.10414 0.06675,0.20694 0.10013,0.31108c0.0227,0.04139 0.04406,0.08144 0.06675,0.12283c-0.0227,0.02537 -0.04406,0.05073 -0.06675,0.07477c-0.1522,-0.13618 -0.3044,-0.27236 -0.4566,-0.40854c0.09613,-0.2243 0.19359,-0.44859 0.28972,-0.67289c-1.5901,2.20291 -3.25763,5.27496 -6.14144,5.92515c-1.1642,0.26168 -2.55671,-0.07343 -3.73827,-0.10414c-0.89318,-0.0227 -3.02532,-0.08144 -3.70088,-0.54338c-1.50732,-1.03203 -3.72758,-4.98658 -5.21221,-5.20553c0.10013,0.26969 0.2016,0.53804 0.30173,0.80773c0.14553,0.15354 0.29105,0.30707 0.43658,0.46061c-0.05607,0.18958 -0.11348,0.37783 -0.16956,0.56742c0.08945,0.12817 0.17757,0.25767 0.26702,0.38718c-0.08945,0.16422 -0.17757,0.32843 -0.26702,0.49265c-0.07744,-0.03071 -0.15621,-0.06008 -0.23364,-0.09079c0.05607,-0.04005 0.11081,-0.08144 0.16689,-0.12149c-0.17623,-1.48329 -1.18289,-2.50731 -1.26567,-3.27098c0.02136,-0.14953 0.04272,-0.3004 0.06408,-0.44993c0.51268,-0.21896 2.13081,0.09346 2.48061,0.57009c0.45794,0.62482 0.67155,1.47127 0.98931,2.15885c0.42857,0.92923 2.50464,2.86378 3.55669,3.10009c2.10945,0.47396 5.75693,1.012 7.70884,-0.12683c0.8825,-0.51535 1.47394,-1.95458 1.95057,-2.78768c0.80239,-1.40318 1.93856,-2.65283 3.2069,-3.67685c0.11081,0.03471 0.22296,0.06942 0.33377,0.10414c0.06141,0.13751 0.12149,0.27636 0.18291,0.41388z" fill="#664739" stroke="#664739"/><path d="M228.34128,152.21963c-0.00134,-0.00401 -0.00134,-0.00801 -0.00134,-0.01335c0.07343,0.08678 0.14686,0.17356 0.22029,0.26034c0.19359,0.16422 0.38718,0.32843 0.58077,0.49265c0.11615,-0.01469 0.23231,-0.03071 0.34846,-0.04539c0.15087,0.15754 0.30173,0.31375 0.4526,0.47129c0.18825,-0.11215 0.3765,-0.22563 0.56475,-0.33778c0.47529,0.43257 0.82642,1.60879 1.58209,1.40185c0.03872,-0.11081 0.07744,-0.22296 0.11615,-0.33377c0.18825,-0.0227 0.37516,-0.04406 0.56341,-0.06675c0.03738,-0.09079 0.07343,-0.18157 0.11081,-0.27236c0.46728,0.19092 0.93457,0.38184 1.40185,0.57276c-0.06408,0.07744 -0.12683,0.15621 -0.19092,0.23364c0.26435,0.13351 0.5287,0.26702 0.79171,0.40053c0.08945,0.12149 0.17757,0.24432 0.26702,0.36582c1.59944,-0.02403 2.12814,0.81574 3.20423,0.86514c-0.22296,-0.31775 -0.44459,-0.63551 -0.66755,-0.95326c-0.53003,0.44993 -2.84108,-0.66354 -2.90383,-1.41253c0.07877,-0.06675 0.15888,-0.13351 0.23765,-0.20026c-0.08011,-0.13351 -0.15888,-0.26702 -0.23898,-0.40053c0.11615,-0.06675 0.23097,-0.13351 0.34712,-0.20026c-0.11482,-0.20026 -0.22964,-0.40053 -0.34445,-0.60079c0.2777,-0.06942 0.5554,-0.13751 0.8331,-0.20694c1.4112,0.66488 1.765,2.68888 1.86913,2.7503c0.14953,-0.18024 0.29773,-0.36048 0.44726,-0.54071c-0.07744,-0.13351 -0.15621,-0.26702 -0.23364,-0.40053c0.54605,-0.81174 1.60612,0.54205 2.08408,0.80239c1.4419,0.78637 2.6555,2.70223 3.50062,4.11343c0.46995,0.78771 -0.35647,1.55405 0.8104,2.00398c0.11081,-0.39519 0.22296,-0.79038 0.33377,-1.18423c1.10279,-0.11482 1.10012,2.30838 1.80238,2.81839c0.09613,-0.06942 0.19092,-0.14018 0.28705,-0.20961c-0.06542,-0.08945 -0.13084,-0.17757 -0.19759,-0.26702c0.83176,-0.45527 -0.77436,-2.45657 -0.08945,-3.32706c0.49131,-0.04673 1.03203,1.3658 1.11881,1.78903c0.36181,1.74363 0.67956,3.3631 0.26969,5.1508c-0.09746,0.4259 -0.21495,1.47929 -0.72095,1.59544c-0.13351,-0.74365 -0.26702,-1.48863 -0.40053,-2.23228c-0.15621,0.18424 -0.31108,0.36849 -0.46728,0.55273c-0.08945,-0.15087 -0.17757,-0.3004 -0.26702,-0.45126c-0.26702,0.34178 -0.53404,0.6849 -0.80106,1.02669c-2.02534,-0.29239 -0.76501,-0.67422 -1.66887,-1.68756c-0.23498,0.44459 0.03204,1.48596 -0.60079,1.55005c-0.74765,-0.54872 0.06675,-1.43122 -0.12683,-2.07207c-0.10147,-0.33511 -0.42723,-0.52603 -0.54205,-0.85179c-0.42189,-1.19892 -0.66087,-2.4726 -1.15619,-3.65549c-0.43391,-1.0347 -2.7009,-2.87179 -3.82104,-2.79435c0.71695,1.22428 0.61948,1.61813 -1.02936,1.12014c-0.70226,0.26168 -1.34177,-0.19759 -2.08809,-0.11615c-1.48863,0.16155 -2.97459,0.14953 -4.45121,0.25367c-0.51401,0.03738 -1.15886,0.44726 -1.6702,0.24699c-0.4793,-0.18691 -0.506,-0.57676 -0.86915,-0.82375c-0.15621,0.23364 -0.31108,0.46728 -0.46728,0.69959c-0.61014,-0.3311 -0.1789,-1.07075 -0.59011,-1.48997c-0.51268,-0.52202 -1.4646,-0.1522 -2.024,-0.75833c0.14152,-0.33377 0.28304,-0.66755 0.42323,-1.00132c-0.1295,-0.08945 -0.25901,-0.17757 -0.38851,-0.26702c0.54605,-0.28972 1.09211,-0.5781 1.63816,-0.86781c0.06408,-0.37783 0.12817,-0.757 0.19225,-1.13483c0.29372,-0.34312 0.58878,-0.68624 0.8825,-1.02936c0.33377,0.39519 0.66755,0.79038 1.00132,1.18556c0.13351,0.09746 0.26702,0.19359 0.40053,0.28972c0.02804,-0.23765 0.05607,-0.47529 0.08411,-0.71294c0.08411,-0.03071 0.16689,-0.06275 0.251,-0.09346zM229.20776,153.94858c-0.21094,-0.3004 -0.42323,-0.60079 -0.63417,-0.90119c-0.69158,1.06274 -0.18291,1.89049 0.13351,2.93721c0.18958,0.12016 0.37783,0.24032 0.56742,0.36048c1.27635,-0.05073 1.21494,-2.72092 0.16689,-2.69689c-0.07744,0.10013 -0.15621,0.20026 -0.23364,0.3004zM224.40142,156.74828c0.40987,0 0.81975,0 1.22962,0c0.13484,0.3538 0.02136,0.70493 0.10948,1.06541c0.10147,0.42055 0.43524,0.8558 0.34178,1.29771c-0.0988,0.45927 -0.84912,0.53938 -1.11881,0.87315c-0.34312,0.42323 -0.72229,1.00933 -0.9853,1.48863c-0.506,0.92122 -0.78904,2.43521 -1.05472,3.46991c-0.4793,1.86246 -0.27503,3.67418 -0.39118,5.56468c-0.03204,0.52069 -0.0227,1.63816 -0.60079,1.85578c-0.39652,-0.17757 -0.50734,-2.20825 -0.47262,-2.69022c0.14286,-1.95992 0.51802,-3.17619 -1.57141,-4.27631c0.16956,-1.29104 0.33911,-2.58207 0.50867,-3.87445c0.20026,0.04673 0.40053,0.09212 0.60079,0.13885c0.63551,-0.7797 1.0387,-0.21896 1.40185,0.38451c-0.15621,-1.34845 -0.31108,-2.69689 -0.46728,-4.04534c1.15352,-0.01602 1.85845,-0.25901 2.46993,-1.25232zM248.94313,170.437c-0.03738,-0.13351 -0.07343,-0.26702 -0.10948,-0.40053c-0.01469,-0.20026 -0.03071,-0.40053 -0.04539,-0.60079c0.08545,-0.86915 -0.61414,-3.86376 0.84645,-4.05335c0.99331,0.66488 0.82776,3.38847 0.58477,4.4205c-0.10681,0.05474 -0.21228,0.10814 -0.31775,0.16288c0,0.6315 0,1.26433 0,1.89583c-0.31909,-0.47396 -0.63951,-0.94925 -0.9586,-1.42455zM240.9072,171.20468c-0.0721,0.11615 -0.14553,0.23231 -0.21762,0.34846c0.58477,0.35247 4.08005,-0.63016 4.30702,0.89585c-0.12817,0 -0.25634,0 -0.38451,0c-0.04539,-0.1028 -0.08945,-0.20694 -0.13351,-0.30974c-0.26168,-0.04272 -0.52336,-0.08545 -0.78504,-0.12817c-0.78504,1.6702 -1.70492,1.89049 -2.87045,0.39786c-0.42323,0.13751 -0.84512,0.27503 -1.26834,0.41254c-0.20427,-0.89051 0.41254,-1.65151 1.35245,-1.6168zM230.80987,171.88558c0.73297,0.17757 1.25365,0.5554 1.12014,1.3885c-0.44058,-0.23898 -0.87983,-0.47663 -1.32041,-0.71561c-0.52603,1.91052 -1.79704,1.95992 -2.73694,0.27236c-0.31108,0.17223 -0.62349,0.34445 -0.93457,0.51668c-0.20427,0 -0.40987,0 -0.61414,0c0.34846,-1.69958 4.1695,-1.008 4.48592,-1.46193zM246.33035,191.17236c-0.0227,0.08678 -0.04539,0.17223 -0.06809,0.25901c-0.77436,0.51134 -3.57538,3.40049 -3.74761,4.23893c-0.06141,0.29506 0.14686,1.15352 0.29105,1.40185c-0.59412,1.3124 -1.18823,2.62613 -1.78235,3.93853c-0.43391,0.05607 -0.86781,0.11081 -1.30172,0.16689c0.42857,0.04406 0.85713,0.08945 1.2857,0.13351c-0.53938,0.04406 -1.08009,0.08812 -1.61947,0.13217c-0.17757,-0.00134 -0.35647,-0.00134 -0.53404,-0.00267c-0.0227,-0.03605 -0.04406,-0.07076 -0.06675,-0.10681c-0.83176,-0.89451 -2.23895,-1.38049 -3.40449,-1.4913c-0.27503,0.3311 -1.18957,0.23631 -1.37515,-0.13351c0.14686,-0.0227 0.29372,-0.04406 0.44058,-0.06675c-0.01068,-0.56475 -0.98797,-0.92923 -1.43523,-1.01734c0.04406,-0.12817 0.08678,-0.25634 0.13084,-0.38451c-0.73964,-0.62215 -3.96657,-3.08407 -3.90248,-4.00528c-0.21094,0.08545 -0.42323,0.17089 -0.63417,0.25634c-0.18958,-0.13084 -0.37783,-0.26034 -0.56742,-0.38985c-0.07744,-0.20827 -0.15621,-0.41788 -0.23364,-0.62616c-0.22296,0.00801 -0.44459,0.01469 -0.66755,0.0227c-0.18291,-0.22163 -0.36582,-0.44325 -0.54872,-0.66488c0.01869,-0.05474 0.03872,-0.11081 0.05741,-0.16555c0.35247,0.04005 0.70627,0.08011 1.05873,0.12016c0.07744,0.03071 0.15621,0.06008 0.23364,0.09079c0.08945,-0.16422 0.17757,-0.32843 0.26702,-0.49265c-0.08945,-0.1295 -0.17757,-0.25901 -0.26702,-0.38718c0.05607,-0.18958 0.11348,-0.37783 0.16956,-0.56742c-0.14553,-0.15354 -0.29105,-0.30707 -0.43658,-0.46061c-0.10013,-0.26969 -0.2016,-0.53804 -0.30173,-0.80773c1.48463,0.21896 3.70489,4.17351 5.21221,5.20553c0.67556,0.46194 2.8077,0.52069 3.70088,0.54338c1.18156,0.03071 2.57406,0.36582 3.73827,0.10414c2.8838,-0.65019 4.55134,-3.72224 6.14144,-5.92515c-0.09613,0.2243 -0.19359,0.44859 -0.28972,0.67289c0.1522,0.13618 0.3044,0.27236 0.4566,0.40854zM235.04747,198.30711c0.17757,0.56074 3.01598,2.61278 3.6408,2.70357c1.11614,0.16155 2.80904,-0.53671 3.0053,-1.85311c0.08144,-0.55006 -0.08812,-0.78103 -0.45126,-1.10279c-0.22697,-0.2016 -0.23631,-0.51935 -0.54071,-0.66221c-0.91187,-0.42456 -2.58741,0.40186 -3.54735,0.50333c-0.52069,0.05607 -1.86379,-0.11348 -2.10678,0.41121z" fill="#271e1a" stroke="#271e1a"/><path d="M248.94313,170.437c0.31909,0.47529 0.63951,0.95059 0.9586,1.42455c0,-0.6315 0,-1.26433 0,-1.89583c0.10547,-0.05474 0.21094,-0.10814 0.31775,-0.16288c0.24299,-1.03203 0.40854,-3.75562 -0.58477,-4.4205c-1.46059,0.18958 -0.761,3.1842 -0.84645,4.05335c-0.26435,-0.79038 -0.53003,-1.57942 -0.79438,-2.36979c0.01202,-0.25634 0.02537,-0.51134 0.03872,-0.76768c-0.46728,0.79839 -0.93457,1.59544 -1.40185,2.39383c-0.67956,0.20026 -1.39384,-0.10681 -2.07207,0.06141c-1.48997,0.37116 -3.36711,1.49664 -4.93718,1.0387c-0.55673,-1.78903 2.3017,-1.19491 3.04535,-1.85044c0.38985,-0.34445 -0.6315,-3.16952 -0.99064,-3.64481c-0.20827,-0.27503 -0.5327,-0.33644 -0.81841,-0.502c-0.29639,-1.12816 -1.4112,-1.28169 -1.63683,-2.30304c-0.50333,-0.2056 -0.69825,-0.8825 -1.09344,-1.24164c-0.61681,-0.56475 -1.82908,-1.16954 -2.62213,-1.45258c-1.52201,-0.54605 -7.19483,-0.37783 -8.64207,0.41655c-0.10681,0.05874 -1.96793,2.12948 -2.18154,2.41118c-1.99864,2.6248 -1.95725,6.6688 -2.0467,9.77957c-0.01335,0.48731 -0.07744,3.06538 -1.02535,2.40317c-0.36048,-0.73297 -0.71962,-1.4646 -1.08009,-2.19757c0,-0.64619 0,-1.29237 0,-1.93856c-0.10681,-0.04539 -0.21495,-0.09079 -0.32176,-0.13618c-0.07076,-0.46995 -0.14152,-0.93857 -0.21228,-1.40853c-0.04406,0.01335 -0.08812,0.0267 -0.13084,0.04005c-0.06809,-0.22296 -0.13484,-0.44459 -0.20293,-0.66755c-0.02136,-0.45126 -0.04406,-0.90252 -0.06675,-1.35379c0.10013,0.06141 0.20026,0.12416 0.3004,0.18558c-0.08945,-0.71161 -0.17757,-1.42455 -0.26702,-2.13615c-0.12283,0.01469 -0.24432,0.02937 -0.36715,0.04406c-0.23765,-0.8104 0.43524,-1.7423 -0.19759,-2.51398c0.13217,-0.79438 0.26568,-1.58876 0.39786,-2.38181c0.42323,-0.44726 0.84512,-0.89451 1.26834,-1.34177c0.22296,0.57409 0.44459,1.14952 0.66755,1.72361c0.34579,-0.5554 -0.02537,-1.73829 0.19092,-2.41652c0.48063,-1.51266 1.61947,-2.79702 2.67954,-3.93586c0.31375,-0.02003 0.62749,-0.03872 0.94124,-0.05874c0.44592,-0.47796 -0.17623,-0.94258 0.52736,-1.43523c0,-0.3004 0,-0.60079 0,-0.90119c0.33377,-0.03605 0.66755,-0.0721 1.00132,-0.10814c0.84912,-0.32977 0.7303,0.6809 1.10145,1.10946c0.13751,0.0227 0.27636,0.04406 0.41388,0.06675c0.02937,0.05741 0.05874,0.11615 0.08812,0.17356c-0.08411,0.03071 -0.16689,0.06275 -0.251,0.09346c-0.02804,0.23765 -0.05607,0.47529 -0.08411,0.71294c-0.13351,-0.09613 -0.26702,-0.19225 -0.40053,-0.28972c-0.33377,-0.39519 -0.66755,-0.79038 -1.00132,-1.18556c-0.29372,0.34312 -0.58878,0.68624 -0.8825,1.02936c-0.06408,0.37783 -0.12817,0.757 -0.19225,1.13483c-0.54605,0.28972 -1.09211,0.5781 -1.63816,0.86781c0.1295,0.08945 0.25901,0.17757 0.38851,0.26702c-0.14018,0.33377 -0.28171,0.66755 -0.42323,1.00132c0.5594,0.60613 1.51133,0.23631 2.024,0.75833c0.41121,0.41922 -0.02003,1.15886 0.59011,1.48997c0.15621,-0.23231 0.31108,-0.46595 0.46728,-0.69959c0.36315,0.24699 0.38985,0.63684 0.86915,0.82375c0.51134,0.20026 1.15619,-0.20961 1.6702,-0.24699c1.47661,-0.10414 2.96258,-0.09212 4.45121,-0.25367c0.74632,-0.08144 1.38583,0.37783 2.08809,0.11615c1.64884,0.49799 1.7463,0.10414 1.02936,-1.12014c1.12014,-0.07744 3.38714,1.75966 3.82104,2.79435c0.49532,1.18289 0.7343,2.45657 1.15619,3.65549c0.11482,0.32576 0.44058,0.51668 0.54205,0.85179c0.19359,0.64085 -0.62082,1.52334 0.12683,2.07207c0.63283,-0.06408 0.36582,-1.10546 0.60079,-1.55005c0.90386,1.01334 -0.35647,1.39517 1.66887,1.68756c0.26702,-0.34178 0.53404,-0.6849 0.80106,-1.02669c0.08945,0.15087 0.17757,0.3004 0.26702,0.45126c0.15621,-0.18424 0.31108,-0.36849 0.46728,-0.55273c0.13351,0.74365 0.26702,1.48863 0.40053,2.23228c0.506,-0.11615 0.62349,-1.16954 0.72095,-1.59544c0.40987,-1.78769 0.09212,-3.40716 -0.26969,-5.1508c-0.08678,-0.42323 -0.62749,-1.83576 -1.11881,-1.78903c-0.6849,0.87048 0.92122,2.87179 0.08945,3.32706c0.06675,0.08945 0.13217,0.17757 0.19759,0.26702c-0.09613,0.06942 -0.19092,0.14018 -0.28705,0.20961c-0.70226,-0.51001 -0.69959,-2.9332 -1.80238,-2.81839c-0.11081,0.39385 -0.22296,0.78904 -0.33377,1.18423c-1.16687,-0.44993 -0.34045,-1.21627 -0.8104,-2.00398c-0.84512,-1.4112 -2.05872,-3.32706 -3.50062,-4.11343c-0.47796,-0.26034 -1.53803,-1.61413 -2.08408,-0.80239c0.07744,0.13351 0.15621,0.26702 0.23364,0.40053c-0.14953,0.18024 -0.29773,0.36048 -0.44726,0.54071c-0.10414,-0.06141 -0.45794,-2.08542 -1.86913,-2.7503c-0.2777,0.06942 -0.5554,0.13751 -0.8331,0.20694c0.11482,0.20026 0.22964,0.40053 0.34445,0.60079c-0.11615,0.06675 -0.23097,0.13351 -0.34712,0.20026c0.08011,0.13351 0.15888,0.26702 0.23898,0.40053c-0.07877,0.06675 -0.15888,0.13351 -0.23765,0.20026c0.06275,0.74899 2.3738,1.86246 2.90383,1.41253c0.22296,0.31775 0.44459,0.63551 0.66755,0.95326c-1.07609,-0.0494 -1.60478,-0.88917 -3.20423,-0.86514c-0.08945,-0.12149 -0.17757,-0.24432 -0.26702,-0.36582c-0.26301,-0.13351 -0.52736,-0.26702 -0.79171,-0.40053c0.06408,-0.07744 0.12683,-0.15621 0.19092,-0.23364c-0.46728,-0.19092 -0.93457,-0.38184 -1.40185,-0.57276c-0.03738,0.09079 -0.07343,0.18157 -0.11081,0.27236c-0.18825,0.0227 -0.37516,0.04406 -0.56341,0.06675c-0.03872,0.11081 -0.07744,0.22296 -0.11615,0.33377c-0.75566,0.20694 -1.10679,-0.96928 -1.58209,-1.40185c-0.18825,0.11215 -0.3765,0.22563 -0.56475,0.33778c-0.15087,-0.15754 -0.30173,-0.31375 -0.4526,-0.47129c-0.11615,0.01469 -0.23231,0.03071 -0.34846,0.04539c-0.19359,-0.16422 -0.38718,-0.32843 -0.58077,-0.49265c0.18291,0.03738 0.36448,0.0761 0.54739,0.11348c0.05607,-0.19626 0.11081,-0.39118 0.16689,-0.58744c0.34312,0.42323 0.61281,0.80506 1.13483,0.56608c0.23364,0.20694 0.46728,0.41521 0.70092,0.62215c0.02003,-0.13351 0.04005,-0.26702 0.06008,-0.40053c0.18024,0.13351 0.36048,0.26702 0.54071,0.40053c0.26702,0.0227 0.53404,0.04406 0.80106,0.06675c0.06008,-0.11081 0.12016,-0.22296 0.18024,-0.33377c0.8104,-0.06675 0.94391,0.67689 1.58876,0.90119c-0.00668,-0.14419 -0.01202,-0.28972 -0.01869,-0.43391c0.09479,-0.16689 0.19092,-0.33377 0.28571,-0.50066c-0.3044,-0.29773 -1.38716,-1.5634 -1.13483,-1.89717c0.31108,0.2777 0.62349,0.5554 0.93457,0.83176c0.0227,-0.12283 0.04406,-0.24699 0.06675,-0.36982c0.33377,0.11348 0.66755,0.22697 1.00132,0.34045c0.07076,-0.17223 0.06408,-0.4072 -0.08144,-0.55807c-0.16422,-0.17223 -0.45393,-0.13351 -0.63551,-0.3004c-0.25634,-0.23765 -0.25767,-0.65153 -0.49799,-0.90519c-0.32042,-0.33511 -0.80373,-0.62349 -1.16554,-0.97061c-0.24566,-0.23498 -0.06141,-0.56608 -0.48998,-0.62883c-0.06675,0.48998 -0.13351,0.97862 -0.20026,1.4686c-0.08945,-0.08945 -0.17757,-0.17757 -0.26702,-0.26702c-0.66755,0.03872 -1.33509,0.0761 -2.00264,0.11482c-0.01202,-0.12149 -0.02403,-0.24165 -0.03471,-0.36315c-0.13618,-0.0227 -0.27102,-0.04406 -0.4072,-0.06675c0.87716,-1.54337 3.54735,-3.70355 5.11208,-1.73562c-0.13217,0.22563 -0.26568,0.45126 -0.39786,0.67823c-0.48998,-0.16021 -0.97862,-0.31909 -1.4686,-0.47796c-0.29372,0.08945 -0.58611,0.17757 -0.87983,0.26702c0.24032,0.14152 0.58744,0.0494 0.84645,0.18958c0.78237,0.42323 3.21758,2.04136 3.17085,3.04802c0.15621,0.05607 0.31108,0.11081 0.46728,0.16689c0.25634,0.46728 0.51134,0.93457 0.76768,1.40185c0.26702,-0.0227 0.53404,-0.04406 0.80106,-0.06675c0.01068,-0.34445 0.0227,-0.69024 0.03338,-1.0347c0.52336,0.47796 1.04538,0.95726 1.56874,1.43523c0.10013,-0.03605 0.20026,-0.07076 0.3004,-0.10681c0.20026,0.3805 0.40053,0.761 0.60079,1.14151c0.17757,0.0227 0.35647,0.04406 0.53404,0.06675c0.04406,-0.16288 0.08945,-0.32443 0.13351,-0.48731c0.5781,0.75433 1.15753,1.50999 1.73562,2.26432c1.25899,-0.28972 0.79839,1.37381 1.61947,1.39384c-0.22296,-0.55673 -0.44459,-1.11213 -0.66755,-1.66887c0.08278,-0.25634 0.16689,-0.51268 0.24966,-0.76901c0.78504,-0.08144 0.62749,0.8371 1.16821,0.96928c-0.09346,-0.5781 -0.18558,-1.15753 -0.27903,-1.73562c0.67823,-0.24165 1.13483,1.11347 1.78102,1.3124c0.21762,0.40854 0.43658,0.81574 0.6542,1.22428c-0.05474,0.50333 0.15087,2.42987 1.01467,2.1762c0.02937,-0.42323 -0.28705,-0.86915 0.26702,-1.05606c0.53404,0.57276 1.06808,1.14418 1.60211,1.71693c2.024,0.0227 0.5594,3.71824 0.40053,4.60608c1.70358,1.17889 -0.86381,2.5527 0.04806,3.50462c0.13751,-0.24432 0.27369,-0.48998 0.41121,-0.7343c0.16956,-0.0227 0.33778,-0.04406 0.50734,-0.06675c0.01202,0.36715 0.0227,0.7343 0.03471,1.10145c-0.24432,0.44459 -0.48998,0.88917 -0.7343,1.33242c-0.06675,-0.1482 -0.13351,-0.29773 -0.20026,-0.44592c-0.74098,0.22563 0.16422,3.8918 -1.19624,3.81971c-0.23231,-0.76768 -0.46461,-1.53536 -0.69692,-2.30304zM224.40142,156.74828c-0.61147,0.99331 -1.3164,1.2363 -2.46993,1.25232c0.15621,1.34845 0.31108,2.69689 0.46728,4.04534c-0.36315,-0.60346 -0.76634,-1.1642 -1.40185,-0.38451c-0.20026,-0.04673 -0.40053,-0.09212 -0.60079,-0.13885c-0.16956,1.29237 -0.33911,2.58341 -0.50867,3.87445c2.08942,1.10012 1.71426,2.31639 1.57141,4.27631c-0.03471,0.48197 0.0761,2.51265 0.47262,2.69022c0.5781,-0.21762 0.56875,-1.33509 0.60079,-1.85578c0.11615,-1.89049 -0.08812,-3.70222 0.39118,-5.56468c0.26568,-1.0347 0.54872,-2.5487 1.05472,-3.46991c0.26301,-0.4793 0.64218,-1.06541 0.9853,-1.48863c0.26969,-0.33377 1.02001,-0.41388 1.11881,-0.87315c0.09346,-0.44192 -0.24032,-0.87716 -0.34178,-1.29771c-0.08812,-0.36048 0.02537,-0.71161 -0.10948,-1.06541c-0.40987,0 -0.81975,0 -1.22962,0zM232.31853,170.06985c-0.14953,0.96794 -4.85708,-0.06542 -5.84772,-0.04406c-0.45794,0.01068 -1.50065,0.24165 -1.85311,-0.0227c0.22163,-0.31909 0.48063,-0.76768 0.86247,-0.95726c1.42722,-0.70894 5.72088,-0.23097 6.83836,1.02402zM235.04747,198.30711c0.24299,-0.52469 1.58609,-0.35514 2.10678,-0.41121c0.95993,-0.10147 2.63548,-0.92789 3.54735,-0.50333c0.3044,0.14286 0.31375,0.46061 0.54071,0.66221c0.36315,0.32176 0.5327,0.55273 0.45126,1.10279c-0.19626,1.3164 -1.88916,2.01466 -3.0053,1.85311c-0.62482,-0.09079 -3.46324,-2.14283 -3.6408,-2.70357z" fill="#443329" stroke="#443329"/><path d="M229.20776,153.94858c0.07744,-0.10013 0.15621,-0.20026 0.23364,-0.3004c1.04805,-0.02403 1.10946,2.64616 -0.16689,2.69689c-0.18958,-0.12016 -0.37783,-0.24032 -0.56742,-0.36048c-0.31642,-1.04671 -0.82509,-1.87447 -0.13351,-2.93721c0.21094,0.3004 0.42323,0.60079 0.63417,0.90119zM252.23948,190.59693c-0.04406,-0.02804 -0.08945,-0.05741 -0.13484,-0.08545c-0.05741,0.07744 -0.11348,0.15354 -0.17089,0.22964c-1.08276,0.19893 -0.44859,2.78901 -0.89718,2.92386c-0.07076,-0.0988 -0.14152,-0.19893 -0.21228,-0.29773c-0.71161,-0.10013 -1.012,-0.00134 -1.5901,0.3538c-0.11081,-0.09479 -0.22296,-0.18958 -0.33377,-0.28438c-0.09346,0.13351 -0.18691,0.26568 -0.28037,0.39786c-0.28438,-0.01068 -0.57009,-0.0227 -0.85446,-0.03338c0.03738,-0.39252 0.41655,-0.57943 0.502,-0.96794c0.14419,-0.66087 -0.26168,-1.30172 -0.07744,-1.96793c0.19225,-0.69959 1.11347,-0.77302 0.99465,-1.63683c-0.18424,-0.08411 -0.36715,-0.16689 -0.55139,-0.251c-0.506,0.55139 -1.01334,1.10145 -1.51934,1.65285c-0.05874,0.37783 -0.11882,0.757 -0.17757,1.13483c-0.58744,0.33511 -0.4526,0.6849 -0.87315,1.06274c-0.64485,0.57676 -1.19491,0.29906 -1.6662,1.2136c-0.44859,0.87048 -0.51134,2.62213 -1.59143,3.03067c-0.14419,-0.24833 -0.35247,-1.10679 -0.29105,-1.40185c0.17223,-0.83844 2.97326,-3.72758 3.74761,-4.23893c0.0227,-0.08678 0.04539,-0.17223 0.06809,-0.25901c0.0227,-0.02403 0.04406,-0.0494 0.06675,-0.07477c-0.0227,-0.04139 -0.04406,-0.08144 -0.06675,-0.12283c0.0761,-0.02537 0.1522,-0.05207 0.2283,-0.07744c0.26969,-0.44325 0.53804,-0.88517 0.8064,-1.32842c0.78904,-0.41655 1.263,-1.79437 1.91052,-2.46859c1.48062,-1.5447 4.5233,-1.27368 3.91049,1.38983c-0.16689,0.72229 -0.82242,1.3391 -0.94658,2.10678zM226.64705,192.66767c-0.01869,0.05474 -0.03872,0.11081 -0.05741,0.16555c0.18291,0.22163 0.36582,0.44325 0.54872,0.66488c0.22296,-0.00801 0.44459,-0.01469 0.66755,-0.0227c0.07744,0.20827 0.15621,0.41788 0.23364,0.62616c0.18958,0.1295 0.37783,0.25901 0.56742,0.38985c0.21094,-0.08545 0.42323,-0.17089 0.63417,-0.25634c-0.06408,0.92122 3.16284,3.38313 3.90248,4.00528c-0.04406,0.12817 -0.08678,0.25634 -0.13084,0.38451c0.44726,0.08812 1.42455,0.4526 1.43523,1.01734c-0.14686,0.0227 -0.29372,0.04406 -0.44058,0.06675c0.18558,0.36982 1.10012,0.46461 1.37515,0.13351c1.16554,0.11081 2.57273,0.59679 3.40449,1.4913c-0.04406,0.00401 -0.08945,0.00935 -0.13351,0.01335c-4.81702,-0.03071 -9.63538,-0.06008 -14.4524,-0.09079c-0.11081,-0.72095 -0.22296,-1.4419 -0.33377,-2.16152c-0.15621,0.2243 -0.31108,0.44726 -0.46728,0.67155c-0.33644,0.04673 -0.53537,-0.03471 -0.49666,-0.39118c0.95459,-0.35247 0.44859,-1.40452 0.81841,-2.1188c0.52603,-1.01334 1.57808,-1.52868 2.38314,-2.22026c0.04806,-0.54338 -0.55006,-1.98395 -1.13617,-2.12013c0.27236,-0.90653 -0.94792,-1.92921 -0.71828,-3.01998c1.83709,-0.67155 1.95458,1.77301 2.3965,2.77166zM221.89812,200.41389c-0.01736,0.02136 -0.03338,0.04139 -0.05073,0.06275c0.01736,-0.02136 0.03338,-0.04139 0.05073,-0.06275zM222.69917,200.61816c0.02136,0.01068 0.04272,0.02136 0.06275,0.03071c-0.02003,-0.00935 -0.04139,-0.02003 -0.06275,-0.03071zM223.16646,200.75567c0.01869,0.00935 0.03738,0.01869 0.05741,0.02804c-0.02003,-0.00935 -0.03872,-0.01869 -0.05741,-0.02804zM223.56031,201.14418c-0.02003,0.02003 -0.04005,0.04139 -0.06008,0.06141c0.02003,-0.02003 0.04005,-0.04139 0.06008,-0.06141z" fill="#040a14" stroke="#040a14"/><path d="M251.93375,190.74113c-0.1749,0.74231 -0.35113,1.48329 -0.52736,2.2256c0.20026,0.17757 0.39919,0.35647 0.59946,0.53404c-0.08545,0.11081 -0.17089,0.22296 -0.25767,0.33377c0.12016,0.40854 -0.0721,0.80907 0.07744,1.20693c0.34979,0.92789 1.88515,2.30304 1.08009,3.61143c-0.28438,-0.00401 -0.57009,-0.00801 -0.85446,-0.01202c0.33244,0.33377 0.66488,0.66755 0.99865,1.00132c-0.46061,-0.0227 -0.92122,-0.04406 -1.38049,-0.06675c0.05607,0.23364 0.11215,0.46728 0.16822,0.70092c-0.71161,0.35247 -1.34578,0.84244 -2.13348,1.04538c-2.61145,0.67155 -5.69952,-0.60213 -8.31364,0.05607c2.781,0.02804 5.56334,0.05607 8.34434,0.08411c-3.44855,-0.00668 -6.89844,-0.01335 -10.34699,-0.01869c0.53938,-0.04406 1.08009,-0.08812 1.61947,-0.13217c-0.42857,-0.04406 -0.85713,-0.08945 -1.2857,-0.13351c0.43391,-0.05607 0.86781,-0.11081 1.30172,-0.16689c0.59412,-1.3124 1.18823,-2.62613 1.78235,-3.93853c1.08009,-0.40854 1.14284,-2.16018 1.59143,-3.03067c0.47129,-0.91454 1.02135,-0.63684 1.6662,-1.2136c0.42055,-0.37783 0.28571,-0.72763 0.87315,-1.06274c0.05874,-0.37783 0.11882,-0.757 0.17757,-1.13483c0.506,-0.55139 1.01334,-1.10145 1.51934,-1.65285c0.18424,0.08411 0.36715,0.16689 0.55139,0.251c0.11882,0.86381 -0.80239,0.93724 -0.99465,1.63683c-0.18424,0.66621 0.22163,1.30706 0.07744,1.96793c-0.08545,0.38851 -0.46461,0.57543 -0.502,0.96794c0.28438,0.01068 0.57009,0.0227 0.85446,0.03338c0.09346,-0.13217 0.18691,-0.26435 0.28037,-0.39786c0.11081,0.09479 0.22296,0.18958 0.33377,0.28438c0.5781,-0.35514 0.87849,-0.45393 1.5901,-0.3538c0.07076,0.0988 0.14152,0.19893 0.21228,0.29773c0.44859,-0.13484 -0.18558,-2.72493 0.89718,-2.92386zM224.96883,192.91599c0.58611,0.13618 1.18423,1.57675 1.13617,2.12013c-0.80506,0.69158 -1.85712,1.20693 -2.38314,2.22026c-0.36982,0.71428 0.13618,1.76633 -0.81841,2.1188c-0.03872,0.35647 0.16021,0.43791 0.49666,0.39118c0.15621,-0.2243 0.31108,-0.44726 0.46728,-0.67155c0.11081,0.71962 0.22296,1.44057 0.33377,2.16152c4.81702,0.03071 9.63538,0.06008 14.4524,0.09079c-4.73959,0.03204 -9.47917,0.06408 -14.21876,0.09746c-0.06675,-0.00134 -0.13351,-0.00134 -0.20026,-0.00134c-0.0227,0.00534 -0.04406,0.01068 -0.06675,0.01602c-0.06675,-0.00134 -0.13351,-0.00134 -0.20026,-0.00134c0,-0.0267 0,-0.0534 0,-0.08011c-0.03338,-0.03338 -0.06675,-0.06675 -0.10013,-0.10013c-0.06675,0 -0.13351,0 -0.20026,0c-0.07744,0.06008 -0.15621,0.12016 -0.23364,0.18157c-0.08945,0 -0.17757,0 -0.26702,0c-0.04673,-0.0494 -0.09212,-0.0988 -0.13885,-0.1482c0.15754,-0.03471 0.31508,-0.07076 0.47262,-0.10547c0.02003,-0.02003 0.04005,-0.04139 0.06008,-0.06141c-0.11215,-0.12016 -0.2243,-0.24032 -0.33644,-0.36048c-0.02003,-0.00935 -0.03872,-0.01869 -0.05741,-0.02804c-0.13484,-0.03471 -0.26969,-0.07076 -0.40453,-0.10681c-0.02003,-0.00935 -0.04139,-0.02003 -0.06275,-0.03071c-0.26702,-0.06809 -0.53404,-0.13618 -0.80106,-0.20427c-0.01736,0.02136 -0.03338,0.04139 -0.05073,0.06275c0.02804,0.07343 0.05607,0.14553 0.08411,0.21896c0.2777,0.22697 0.55673,0.45527 0.83443,0.68223c-0.13351,0.0227 -0.26702,0.04406 -0.40053,0.06675c-0.04139,-0.00401 -0.08144,-0.00801 -0.12283,-0.01202c-1.65018,-0.08545 -3.30035,-0.16956 -4.95053,-0.255c0.40053,-0.16288 0.80106,-0.32576 1.20159,-0.48864c0.02537,0.01202 0.05207,0.02403 0.07744,0.03738c0.03071,0.0494 0.06008,0.10013 0.08945,0.15087c0.08945,-0.04406 0.17757,-0.08945 0.26702,-0.13351c0.05607,-0.00801 0.11081,-0.01736 0.16689,-0.02537c0.37783,0.03471 0.757,0.06942 1.13483,0.10414c0.05607,0.04139 0.11081,0.08144 0.16689,0.12149c0.01869,-0.0267 0.03605,-0.0534 0.05474,-0.08011c0.17089,0.02136 0.34178,0.04139 0.51268,0.06275c0.01602,0.00134 0.03338,0.00267 0.0494,0.00401c0.03872,0.00401 0.07877,0.00935 0.11749,0.01335c0.01068,-0.06275 0.0227,-0.12683 0.03338,-0.18958c0.04139,-0.03338 0.08278,-0.06675 0.12416,-0.10013c0.03738,0.00801 0.07343,0.01469 0.10948,0.0227c0.00401,-0.04673 0.00801,-0.09479 0.01202,-0.14152c0.11348,-0.27636 0.22697,-0.55139 0.34045,-0.82776c0.00267,-0.01068 0.00534,-0.02136 0.00668,-0.03204c0.03872,-0.0494 0.07877,-0.0988 0.11749,-0.1482c0.01869,0.0267 0.03872,0.05474 0.05741,0.08144c0.03338,-0.04272 0.06675,-0.08678 0.10013,-0.1295c-0.00668,-0.01335 -0.01335,-0.02537 -0.02003,-0.03738c0.04005,-0.09746 0.08011,-0.19492 0.12016,-0.29239c0.01068,-0.00267 0.0227,-0.00534 0.03338,-0.00801c0.03338,0.04406 0.06675,0.08945 0.10013,0.13351c0.03338,-0.05607 0.06675,-0.11081 0.10013,-0.16689c-0.02136,-0.03071 -0.04272,-0.06141 -0.06542,-0.09212c0.01202,-0.03471 0.02403,-0.06809 0.03605,-0.1028c0.00935,-0.05741 0.01736,-0.11482 0.0267,-0.17223c0.01202,-0.04406 0.02403,-0.08945 0.03605,-0.13351c0.03605,-0.20026 0.0721,-0.40053 0.10814,-0.60079c0.01068,-0.04806 0.0227,-0.09746 0.03338,-0.14553c0.02003,-0.01869 0.03872,-0.03605 0.05874,-0.05474c0.01335,-0.06675 0.0267,-0.13351 0.04139,-0.20026c0.01068,-0.02937 0.02003,-0.05874 0.03071,-0.08812c0.03471,-0.08144 0.06809,-0.16422 0.10147,-0.24566c0.01202,-0.02537 0.02403,-0.05207 0.03471,-0.07744c0.03071,-0.06275 0.06141,-0.12683 0.09079,-0.18958c0.01335,-0.03071 0.02537,-0.06141 0.03872,-0.09346c0.03338,-0.08011 0.06675,-0.16021 0.10013,-0.24032c0.03204,0 0.06408,0 0.09613,0c0.03338,-0.03338 0.06675,-0.06675 0.10013,-0.10013c-0.00935,-0.04272 -0.02003,-0.08545 -0.02937,-0.1295c0.03471,-0.12283 0.07076,-0.24699 0.10547,-0.37116c0.01068,-0.02537 0.02136,-0.05207 0.03204,-0.07744c0.25634,-0.50867 0.51134,-1.01601 0.76634,-1.52468c0.06542,-0.03338 0.1295,-0.06675 0.19359,-0.10013c-0.02804,-0.03338 -0.05741,-0.06675 -0.08545,-0.10013c0.00801,-0.0227 0.01602,-0.04406 0.02403,-0.06675c0.01202,-0.0267 0.02403,-0.0534 0.03605,-0.08011c0.11882,-0.12817 0.23765,-0.25767 0.35647,-0.38718c0.04539,-0.05607 0.09079,-0.11081 0.13618,-0.16689c-0.0267,-0.01869 -0.0534,-0.03738 -0.08011,-0.05607c0.04406,-0.11615 0.08812,-0.23231 0.13217,-0.34846c0.00134,-0.00935 0.00267,-0.02003 0.00534,-0.02937c0.04806,-0.0721 0.09479,-0.14419 0.14286,-0.21762zM221.59772,200.54339c-0.01068,0.01068 -0.0227,0.0227 -0.03338,0.03338c0.01068,0.01068 0.0227,0.0227 0.03338,0.03338c0.01068,-0.01068 0.0227,-0.0227 0.03338,-0.03338c-0.01068,-0.01068 -0.0227,-0.0227 -0.03338,-0.03338zM221.9088,201.42722c-1.67154,0.01068 -3.34441,0.02003 -5.01729,0.03071c1.67287,-0.01068 3.34575,-0.02003 5.01729,-0.03071zM216.15721,201.4566c-0.06675,0 -0.13351,0 -0.20026,0c0.01068,-0.01469 0.0227,-0.03071 0.03338,-0.04539c0.05607,0.01469 0.11081,0.03071 0.16689,0.04539z" fill="#1a2336" stroke="#1a2336"/><path d="M250.09532,176.3181c0.05073,0.97996 -0.24432,2.71959 -1.25232,3.16417c-0.45393,2.20825 0.19759,4.85574 -0.89318,6.9198c-0.27503,-0.08545 0.14686,-1.35245 0.15621,-1.64751c0.0494,-1.47394 -0.13084,-3.50462 -0.54071,-4.92516c-1.60211,-0.16956 -3.20423,-0.33911 -4.80634,-0.50867c-0.22964,-0.59278 -1.12548,-2.24963 -0.92656,-2.77566c0.53137,-0.00267 1.06274,-0.00534 1.5941,-0.00801c0.41922,-0.61681 1.10012,-0.60613 1.85311,-0.8598c0.12416,-0.59679 0.52202,-1.26033 1.22962,-1.13483c0.21762,0.10681 0.43658,0.21228 0.65553,0.31909c0.11215,-0.61681 0.59946,-1.0841 0.63684,-1.58743c0.07343,-1.01467 -0.81174,-2.94388 0.36448,-3.58606c1.18823,0.59011 0.70627,5.5847 1.17221,6.65678c0.25233,-0.00935 0.50467,-0.01869 0.757,-0.0267zM238.48667,179.69989c-0.72629,0.67422 -3.04268,0.44592 -3.9145,0.18291c-0.24833,-0.36982 -0.44993,-2.16686 -0.34712,-2.61011c0.06141,-0.27102 0.33244,-0.34846 0.34178,-0.66087c0.01736,-0.54205 -0.37516,-1.07742 -0.32977,-1.66887c0.02804,-0.35781 0.28304,-0.55406 0.27903,-1.00132c-0.00668,-0.64485 -0.02136,-1.98929 0.84779,-2.07207c0.98129,-0.09346 0.8331,1.05205 1.06674,1.62348c0.42323,1.04404 0.38985,2.44723 0.77035,3.30703c0.33778,0.76768 1.39384,2.05738 1.2857,2.89983z" fill="#b28872" stroke="#b28872"/><path d="M252.23948,190.59693c0.22296,0.79171 -0.53671,1.50866 -0.38985,2.13615c0.12817,0.54205 0.93056,0.84779 1.20693,1.3124c0.51535,0.86514 -0.0494,1.53402 0.1255,2.35911c0.08678,0.40854 0.62482,0.52736 0.71828,0.96794c0.74899,0.37249 1.28436,1.10012 2.22694,1.34578c0.63417,0.16555 1.58342,-0.08678 2.25231,-0.08411c1.96392,0.00668 4.08406,0.07076 6.00392,0.47396c0.00134,0.77436 0.00267,1.55005 0.00401,2.3244c-4.88378,0.00935 -9.76889,0.01869 -14.65267,0.02937c-2.781,-0.02804 -5.56334,-0.05607 -8.34434,-0.08411c2.61412,-0.6582 5.70219,0.61548 8.31364,-0.05607c0.78771,-0.20293 1.42188,-0.69291 2.13348,-1.04538c-0.05607,-0.23364 -0.11215,-0.46728 -0.16822,-0.70092c0.45927,0.0227 0.91988,0.04406 1.38049,0.06675c-0.33377,-0.33377 -0.66621,-0.66755 -0.99865,-1.00132c0.28438,0.00401 0.57009,0.00801 0.85446,0.01202c0.80506,-1.30839 -0.7303,-2.68354 -1.08009,-3.61143c-0.14953,-0.39786 0.04272,-0.79839 -0.07744,-1.20693c0.08678,-0.11081 0.17223,-0.22296 0.25767,-0.33377c-0.20026,-0.17757 -0.39919,-0.35647 -0.59946,-0.53404c0.17623,-0.74231 0.35247,-1.48329 0.52736,-2.2256c0.05741,-0.0761 0.11348,-0.1522 0.17089,-0.22964c0.04539,0.02804 0.09079,0.05741 0.13484,0.08545z" fill="#364159" stroke="#364159"/><path d="M224.82598,193.13362c-0.00267,0.00935 -0.00401,0.02003 -0.00534,0.02937c0.00134,-0.00935 0.00267,-0.02003 0.00534,-0.02937zM224.68846,193.51145c0.0267,0.01869 0.0534,0.03738 0.08011,0.05607c-0.04539,0.05607 -0.09079,0.11081 -0.13618,0.16689c0.01869,-0.07477 0.03738,-0.1482 0.05607,-0.22296zM224.27592,194.12159c-0.01202,0.0267 -0.02403,0.0534 -0.03605,0.08011c0.01202,-0.0267 0.02403,-0.0534 0.03605,-0.08011zM224.21584,194.26845c0.02804,0.03338 0.05741,0.06675 0.08545,0.10013c-0.06408,0.03338 -0.12817,0.06675 -0.19359,0.10013c0.03605,-0.06675 0.0721,-0.13351 0.10814,-0.20026zM223.34135,195.99339c-0.01068,0.02537 -0.02136,0.05207 -0.03204,0.07744c0.01068,-0.02537 0.02136,-0.05207 0.03204,-0.07744zM223.20384,196.44198c0.00935,0.04406 0.02003,0.08678 0.02937,0.1295c-0.03338,0.03338 -0.06675,0.06675 -0.10013,0.10013c-0.03204,0 -0.06408,0 -0.09613,0c0.05474,-0.0761 0.11081,-0.1522 0.16689,-0.22964zM222.93682,196.91193c-0.01335,0.03204 -0.02537,0.06275 -0.03872,0.09346c0.01335,-0.03071 0.02537,-0.06141 0.03872,-0.09346zM222.80732,197.19497c-0.01068,0.02537 -0.0227,0.05207 -0.03471,0.07744c0.01202,-0.02537 0.02403,-0.05207 0.03471,-0.07744zM222.67114,197.51807c-0.01068,0.02937 -0.02003,0.05874 -0.03071,0.08812c0.01068,-0.02937 0.02003,-0.05874 0.03071,-0.08812zM222.5403,197.86119c-0.01068,0.04806 -0.0227,0.09746 -0.03338,0.14553c0.01068,-0.04806 0.0227,-0.09746 0.03338,-0.14553zM222.39878,198.6075c-0.01202,0.04406 -0.02403,0.08945 -0.03605,0.13351c0.01202,-0.04406 0.02403,-0.08945 0.03605,-0.13351zM222.33603,198.91324c-0.01202,0.03471 -0.02403,0.06809 -0.03605,0.1028c0.01202,-0.03471 0.02403,-0.06809 0.03605,-0.1028zM222.29998,199.01604c0.0227,0.03071 0.04406,0.06141 0.06542,0.09212c-0.03338,0.05607 -0.06675,0.11081 -0.10013,0.16689c-0.03338,-0.04406 -0.06675,-0.08945 -0.10013,-0.13351c0.04539,-0.04139 0.09079,-0.08411 0.13484,-0.1255zM222.03163,199.47932c-0.03338,0.04272 -0.06675,0.08678 -0.10013,0.1295c-0.01869,-0.0267 -0.03872,-0.05474 -0.05741,-0.08144c0.05207,-0.01602 0.10547,-0.03204 0.15754,-0.04806zM221.7566,199.67558c-0.00134,0.01068 -0.00401,0.02136 -0.00668,0.03204c0.00267,-0.01068 0.00534,-0.02136 0.00668,-0.03204zM221.89812,200.41389c0.26702,0.06809 0.53404,0.13618 0.80106,0.20427c0.02136,0.01068 0.04272,0.02136 0.06275,0.03071c0.13484,0.03605 0.26969,0.0721 0.40453,0.10681c0.01869,0.00935 0.03738,0.01869 0.05741,0.02804c0.11215,0.12016 0.2243,0.24032 0.33644,0.36048c-0.02003,0.02003 -0.04005,0.04139 -0.06008,0.06141c-0.15754,0.03471 -0.31508,0.07076 -0.47262,0.10547c0.04673,0.0494 0.09212,0.0988 0.13885,0.1482c-0.26702,-0.00534 -0.53404,-0.01068 -0.80106,-0.01469c0.13351,-0.0227 0.26702,-0.04406 0.40053,-0.06675c-0.2777,-0.22697 -0.55673,-0.45527 -0.83443,-0.68223c-0.02804,-0.07343 -0.05607,-0.14553 -0.08411,-0.21896c0.01736,-0.02136 0.03338,-0.04139 0.05073,-0.06275zM221.40947,200.53538c-0.00401,0.04673 -0.00801,0.09479 -0.01202,0.14152c-0.03605,-0.00801 -0.0721,-0.01469 -0.10948,-0.0227c0.04139,-0.04005 0.08144,-0.07877 0.12149,-0.11882zM221.59772,200.54339c0.01068,0.01068 0.0227,0.0227 0.03338,0.03338c-0.01068,0.01068 -0.0227,0.0227 -0.03338,0.03338c-0.01068,-0.01068 -0.0227,-0.0227 -0.03338,-0.03338c0.01068,-0.01068 0.0227,-0.0227 0.03338,-0.03338zM218.49362,200.68892c-0.40053,0.16288 -0.80106,0.32576 -1.20159,0.48864c1.65018,0.08545 3.30035,0.16956 4.95053,0.255c-0.01469,0.01202 -0.02937,0.02403 -0.04406,0.03605c-0.09613,-0.01335 -0.19225,-0.0267 -0.28972,-0.04139c-1.67154,0.01068 -3.34441,0.02003 -5.01729,0.03071c-0.24432,-0.00134 -0.48998,-0.00134 -0.7343,-0.00134c-0.05607,-0.01469 -0.11081,-0.03071 -0.16689,-0.04539c-0.01068,0.01469 -0.0227,0.03071 -0.03338,0.04539c-0.11482,-0.00401 -0.22964,-0.00801 -0.34445,-0.01202c0.59278,-0.59545 2.06673,-0.93991 2.88113,-0.75566zM219.09442,200.71829c-0.05607,0.00801 -0.11081,0.01736 -0.16689,0.02537c-0.08945,0.04406 -0.17757,0.08945 -0.26702,0.13351c-0.02937,-0.05073 -0.05874,-0.10147 -0.08945,-0.15087c0.1749,-0.00267 0.34846,-0.00534 0.52336,-0.00801zM221.16381,200.75434c-0.01068,0.06275 -0.0227,0.12683 -0.03338,0.18958c-0.03872,-0.00401 -0.07877,-0.00935 -0.11749,-0.01335c0.05073,-0.05874 0.10013,-0.11749 0.15087,-0.17623zM220.22925,200.82243c0.07343,0.01469 0.1482,0.02804 0.22163,0.04139c-0.01869,0.0267 -0.03605,0.0534 -0.05474,0.08011c-0.05607,-0.04005 -0.11081,-0.08011 -0.16689,-0.12149zM220.96355,200.92656c0.01602,0.00134 0.03338,0.00267 0.0494,0.00401c-0.01602,-0.00134 -0.03338,-0.00267 -0.0494,-0.00401zM223.96751,201.45793c-0.17757,0 -0.35647,0 -0.53404,0.00134c0.07744,-0.06141 0.15621,-0.12149 0.23364,-0.18157c0.06675,0 0.13351,0 0.20026,0c0.03338,0.03338 0.06675,0.06675 0.10013,0.10013c0,0.0267 0,0.0534 0,0.08011zM238.65356,201.34712c0.04406,-0.00401 0.08945,-0.00935 0.13351,-0.01335c0.0227,0.03605 0.04406,0.07076 0.06675,0.10681c-4.80634,0.00134 -9.61268,0.00267 -14.41902,0.00401c4.73959,-0.03338 9.47917,-0.06542 14.21876,-0.09746zM224.23453,201.44325c-0.0227,0.00534 -0.04406,0.01068 -0.06675,0.01602c0.0227,-0.00534 0.04406,-0.01068 0.06675,-0.01602z" fill="#13141a" stroke="#13141a"/><path d="M248.74287,155.41719c0.00134,0.0227 0.00134,0.04406 0.00267,0.06675c-0.00134,-0.0227 -0.00134,-0.04406 -0.00267,-0.06675z" fill="#ffffff" stroke="#ffffff"/></g><path d="M213.01943,221.96914c-1.65685,0 -3,-1.34315 -3,-3v-77.93828c0,-1.65685 1.34315,-3 3,-3h53.96114c1.65685,0 3,1.34315 3,3v77.93828c0,1.65685 -1.34315,3 -3,3zM263.23302,197.97227c1.38071,0 2.5,-1.11929 2.5,-2.5v-48.59004c0,-1.38071 -1.11929,-2.5 -2.5,-2.5h-46.46605c-1.38071,0 -2.5,1.11929 -2.5,2.5v48.59004c0,1.38071 1.11929,2.5 2.5,2.5z" fill="#4d8236" fill-rule="nonzero" stroke="none" stroke-width="0" stroke-linejoin="miter"/><path d="M213.68572,218.72632c0,-1.06413 0.86265,-1.92677 1.92677,-1.92677c1.06413,0 1.92677,0.86265 1.92677,1.92677c0,1.06413 -0.86265,1.92677 -1.92677,1.92677c-1.06413,0 -1.92677,-0.86265 -1.92677,-1.92677z" fill="#000000" fill-rule="nonzero" stroke="none" stroke-width="0" stroke-linejoin="miter"/><text transform="translate(214.5139,143.14162) scale(0.13917,0.13917)" font-size="40" xml:space="preserve" fill="#000000" fill-rule="nonzero" stroke="none" stroke-width="1" stroke-linejoin="miter" font-family="Sans Serif" font-weight="normal" text-anchor="start"><tspan x="0" dy="0">Gus Bergman</tspan></text><text transform="translate(218.94522,220.40272) scale(0.0984,0.0984)" font-size="40" xml:space="preserve" fill="#000000" fill-rule="nonzero" stroke="none" stroke-width="1" stroke-linejoin="miter" font-family="Sans Serif" font-weight="normal" text-anchor="start"><tspan x="0" dy="0">3/27</tspan></text><text transform="translate(212.38067,210.32538) rotate(10.57007) scale(0.41919,0.41919)" font-size="40" xml:space="preserve" fill="#498d2c" fill-rule="nonzero" stroke="none" stroke-width="1" stroke-linejoin="miter" font-family="Sans Serif" font-weight="normal" text-anchor="start"><tspan x="0" dy="0">TRUTH</tspan></text><text transform="translate(239.57666,220.8475) scale(0.09461,0.09461)" font-size="40" xml:space="preserve" fill="#000000" fill-rule="nonzero" stroke="none" stroke-width="1" stroke-linejoin="miter" font-family="Sans Serif" font-weight="normal" text-anchor="start"><tspan x="0" dy="0">Core Collection</tspan></text><text transform="translate(218.6068,206.16257) scale(0.13917,0.13917)" font-size="40" xml:space="preserve" fill="#000000" fill-rule="nonzero" stroke="none" stroke-width="1" stroke-linejoin="miter" font-family="Sans Serif" font-weight="normal" text-anchor="start"><tspan x="0" dy="0">"I’m frikin gotid </tspan><tspan x="0" dy="48px">    at dis gam"</tspan></text></g></g></svg>