<svg version="1.1" xmlns="http://www.w3.org/2000/svg" xmlns:xlink="http://www.w3.org/1999/xlink" width="63.96114" height="87.93828" viewBox="0,0,63.96114,87.93828"><defs><linearGradient x1="240" y1="138.03086" x2="240" y2="221.96914" gradientUnits="userSpaceOnUse" id="color-1"><stop offset="0" stop-color="#868686"/><stop offset="1" stop-color="#292929"/></linearGradient></defs><g transform="translate(-208.01943,-136.03086)"><g stroke-miterlimit="10"><path d="M213.01943,221.96914c-1.65685,0 -3,-1.34315 -3,-3v-77.93828c0,-1.65685 1.34315,-3 3,-3h53.96114c1.65685,0 3,1.34315 3,3v77.93828c0,1.65685 -1.34315,3 -3,3z" fill="#9763ff" stroke="#000000" stroke-width="4" stroke-linecap="butt"/><path d="M213.01943,221.96914c-1.65685,0 -3,-1.34315 -3,-3v-77.93828c0,-1.65685 1.34315,-3 3,-3h53.96114c1.65685,0 3,1.34315 3,3v77.93828c0,1.65685 -1.34315,3 -3,3z" fill="url(#color-1)" stroke="none" stroke-width="0" stroke-linecap="butt"/><g><path d="M230.48167,209.17183c0,0 -0.467,-6.24868 -0.67256,-10.57785c-0.23734,-4.99822 -3.29615,-18.38363 -2.65588,-25.21375c0.2908,-3.10215 4.7132,-3.81602 4.7132,-3.81602l14.68412,-0.3354c0,0 3.87582,0.6776 4.27405,3.45007c0.87293,6.07749 -0.22671,18.80325 0.00697,23.72483c0.23627,4.97595 -1.36491,12.17099 -1.36491,12.17099z" fill="#212121" stroke="none" stroke-width="0" stroke-linecap="butt"/><g fill="#000000" stroke="none" stroke-width="0" stroke-linecap="butt"><path d="M228.45006,175.49439c0,0 -0.15652,1.66127 -0.94033,3.12269c-0.5693,1.06151 -2.30532,2.76264 -3.61976,5.00457c-0.96562,1.64694 -1.69895,3.45266 -2.51579,5.05539c-1.34213,2.63334 -2.52932,4.72669 -2.52932,4.72669l-4.25242,-2.69861c0,0 2.1303,-4.98769 4.69996,-10.19027c0.74866,-1.51574 1.54107,-3.35692 2.32096,-4.71752c1.3856,-2.41735 3.11379,-3.6181 4.03536,-4.7729c1.82753,-2.29 4.6643,-1.57027 4.6643,-1.57027l-1.86297,6.0402z"/><path d="M218.75489,193.54548c-0.7452,1.17427 -2.30123,1.5221 -3.4755,0.77689c-1.17427,-0.7452 -1.5221,-2.30123 -0.7769,-3.4755c0.7452,-1.17427 2.30124,-1.5221 3.47553,-0.77689c1.17427,0.7452 1.5221,2.30125 0.77689,3.47552z"/></g><g fill="#000000" stroke="none" stroke-width="0" stroke-linecap="butt"><path d="M239.30437,197.34754l-1.51666,4.80263c0,0 -1.39533,0.89232 -3.95968,0.09118c-1.73923,-0.54338 -4.61758,-2.2278 -6.60205,-2.78128c-2.61778,-0.73011 -4.90715,-1.58274 -6.27872,-2.01588c-2.06702,-0.65276 -5.09159,-2.2201 -5.09159,-2.2201l1.51666,-4.80264c0,0 3.22045,0.34767 5.36117,1.02371c1.39794,0.44146 3.84768,1.77872 6.45997,2.71128c1.3556,0.48393 3.91473,1.55092 5.21993,1.96903c3.31996,1.06353 4.89097,1.22209 4.89097,1.22209z"/><path d="M218.85523,193.53055c-0.4188,1.32621 -1.83344,2.0618 -3.15965,1.64298c-1.32621,-0.4188 -2.0618,-1.83344 -1.64299,-3.15964c0.4188,-1.32621 1.83344,-2.06179 3.15965,-1.64299c1.32621,0.4188 2.0618,1.83344 1.64299,3.15965z"/></g><g fill="#000000" stroke="none" stroke-width="0" stroke-linecap="butt"><path d="M250.1675,176.07812l-2.47189,-5.8176c0,0 2.74813,-1.00654 4.80062,1.0842c1.03502,1.05432 2.87711,2.07172 4.50304,4.33442c0.91515,1.27355 1.89201,3.02388 2.792,4.45496c3.08907,4.91198 5.71909,9.65521 5.71909,9.65521l-3.95362,3.12002c0,0 -1.39538,-1.96074 -3.0002,-4.44274c-0.97673,-1.51062 -1.89119,-3.23171 -3.02042,-4.77108c-1.53718,-2.09548 -3.43831,-3.60985 -4.11336,-4.60744c-0.92936,-1.37345 -1.25527,-3.00996 -1.25527,-3.00996z"/><path d="M261.66073,193.04113c-0.86156,-1.09176 -0.67497,-2.67524 0.4168,-3.53681c1.09177,-0.86157 2.67524,-0.67497 3.53681,0.4168c0.86156,1.09176 0.67497,2.67524 -0.4168,3.53681c-1.09176,0.86157 -2.67524,0.67497 -3.53682,-0.4168z"/></g><g fill="#000000" stroke="none" stroke-width="0" stroke-linecap="butt"><path d="M241.07482,196.7415c0,0 1.57016,-0.16681 4.88448,-1.24779c1.30298,-0.42496 3.85647,-1.50541 5.2095,-1.99648c2.60735,-0.94628 5.05003,-2.29639 6.44563,-2.74519c2.13712,-0.6873 5.35571,-1.0519 5.35571,-1.0519l1.5419,4.79459c0,0 -3.01627,1.58323 -5.07984,2.24685c-1.36928,0.44036 -3.65413,1.30499 -6.26803,2.04889c-1.98153,0.56391 -4.851,2.26346 -6.58732,2.81598c-2.56009,0.81464 -3.9601,-0.07034 -3.9601,-0.07034l-1.5419,-4.79459z"/><path d="M263.12995,189.64873c1.32399,-0.42578 2.74246,0.30235 3.16825,1.62633c0.42578,1.324 -0.30236,2.74246 -1.62635,3.16826c-1.32399,0.42578 -2.74246,-0.30236 -3.16825,-1.62635c-0.42578,-1.324 0.30235,-2.74246 1.62634,-3.16825z"/></g><g><path d="M249.17113,159.53715c-0.05416,5.51646 -3.81845,9.9519 -8.40777,9.90685c-3.42589,-0.03364 -6.3519,-1.6592 -7.58826,-5.22992c-0.22323,-0.64469 -1.01904,0.11309 -2.01149,-0.92624c-0.8743,-0.9156 -2.02195,-4.88176 -1.39547,-5.39621c1.14008,-0.93623 2.97419,-0.81359 3.29317,-1.85572c1.18188,-3.86131 4.28422,-6.60425 7.8982,-6.56876c4.58932,0.04505 8.26579,4.55355 8.21164,10.07001z" fill="#eda164" stroke="#000000" stroke-width="1" stroke-linecap="butt"/><path d="M232.38131,162.48119c-0.83936,-0.00824 -0.83112,-0.8476 -0.83112,-0.8476l0.06791,-0.00444c-0.37551,-0.90794 -0.95644,-2.1337 -0.45563,-3.12899c0.01769,-0.03516 0.03631,-0.06968 0.05578,-0.10367l-0.01605,-0.00706l0.25412,-0.57724c-0.19126,-0.15568 -0.31247,-0.39382 -0.30984,-0.6596l0.00876,-0.89164c-0.09175,-0.23965 -0.18351,-0.47932 -0.27527,-0.71897c0,0 -0.287,-0.78881 0.5018,-1.07581c0.10746,-0.03911 0.20564,-0.05824 0.29502,-0.06213c0.04659,-0.0436 0.09091,-0.08565 0.13247,-0.126l0.52976,-0.72649c0.0095,-0.01337 0.01938,-0.02646 0.02962,-0.03923c-0.01928,-0.15789 -0.03763,-0.31247 -0.06202,-0.45595c-0.28978,-1.70408 1.14016,-3.66088 1.91834,-5.0247l0.15147,-0.06303l-0.03913,-0.0479l0.67272,-0.5495c0.14738,-0.12214 0.33712,-0.19479 0.54353,-0.19276c0.31483,0.0031 0.58747,0.17911 0.72859,0.43694c0.11623,-0.05893 0.24795,-0.09158 0.38727,-0.09021c0.27424,0.00269 0.51646,0.1366 0.66763,0.34149c0.29603,-0.10927 0.58025,-0.19168 0.80583,-0.22644c0.20107,-0.21419 0.44128,-0.45265 0.73727,-0.74289l0.67808,-0.66489c0.15338,-0.15041 0.36415,-0.24229 0.59593,-0.24001c0.46357,0.00456 0.83567,0.38404 0.83112,0.8476c-0.00165,0.16805 -0.05258,0.32409 -0.13892,0.45451l-0.34891,0.54623l0.42955,-0.04346c0.03438,-0.00394 0.06938,-0.0058 0.10488,-0.00546c0.27542,0.0027 0.51854,0.13775 0.66958,0.34416l0.78592,-0.18831c0.07086,-0.01862 0.14534,-0.02821 0.22213,-0.02745c0.46357,0.00456 0.83567,0.38404 0.83112,0.8476c-0.00039,0.04051 -0.00366,0.08032 -0.00959,0.11925c0.11255,-0.04352 0.22602,-0.08434 0.34042,-0.12225l0.87045,-0.3167c0.09706,-0.0379 0.20285,-0.05826 0.31343,-0.05716c0.46357,0.00456 0.83567,0.38403 0.83111,0.84759c-0.00115,0.11693 -0.02616,0.22804 -0.07035,0.32875l-0.34807,0.84599c0.0759,-0.02845 0.15227,-0.05505 0.22892,-0.07982l0.03345,0.0014l-0.00228,-0.00951l0.87921,-0.21066c0.07086,-0.01862 0.14534,-0.02821 0.22213,-0.02745c0.46357,0.00456 0.83567,0.38404 0.83111,0.8476c-0.00128,0.13059 -0.03233,0.25394 -0.08661,0.36363c0.08349,0.04968 0.17103,0.10551 0.2628,0.1679c0.2191,0.14896 0.3584,0.33502 0.43512,0.54602c0.40703,0.06146 0.71715,0.41475 0.71299,0.83818c-0.00037,0.03795 -0.00326,0.07528 -0.0085,0.11184c0.00453,0.03665 0.00668,0.07404 0.0063,0.11199c-0.00125,0.12788 -0.03105,0.2488 -0.08326,0.35678l-0.44203,0.96882c-0.1296,0.30179 -0.43091,0.5118 -0.77987,0.50836c-0.00862,-0.00009 -0.0172,-0.00029 -0.02575,-0.00064c-0.08623,0.08684 -0.17433,0.17198 -0.26399,0.25562l0.07899,0.05647l-0.78757,1.1019c-0.15323,0.22043 -0.4093,0.36366 -0.69798,0.36083c-0.1591,-0.00156 -0.30742,-0.04729 -0.43345,-0.12543c-0.04082,0.00568 -0.08258,0.00842 -0.12503,0.00801c-0.44382,-0.00436 -0.8038,-0.35237 -0.82968,-0.78882c-0.10999,0.03069 -0.21721,0.05768 -0.31364,0.08358c-0.17394,0.04673 -0.36498,0.0793 -0.56696,0.10218c-0.33924,0.23156 -0.63895,0.54514 -1.03318,0.64037c-0.58669,0.14172 -1.20682,-0.02808 -1.81023,-0.0421l-0.11344,-0.43938c-0.478,0.11481 -0.93069,0.35524 -1.4066,0.48212c-0.09526,0.06196 -0.18957,0.1247 -0.27419,0.19536l-0.85402,0.19989c-0.06539,0.02443 -0.13463,0.04094 -0.20652,0.04834l-0.75616,0.17699c-0.07082,0.04874 -0.13552,0.08612 -0.19138,0.11028c-0.11619,0.05023 -0.23737,0.04688 -0.36139,0.01911l-0.12608,0.02952c0.00946,-0.01857 0.01892,-0.03717 0.02838,-0.05574c-0.09982,-0.03068 -0.20107,-0.07201 -0.3027,-0.10927l-0.15381,0.22586l-0.04073,-0.02773c-0.0566,0.10953 -0.11281,0.21702 -0.16881,0.32276c-0.25414,0.84862 -0.46643,1.70009 -0.46018,2.47861l-0.00879,0.89533c-0.00456,0.46357 -0.38403,0.83568 -0.84759,0.83112c-0.2237,-0.0022 -0.4261,-0.09171 -0.57517,-0.23584c-0.12646,0.07386 -0.27388,0.11558 -0.43098,0.11404c-0.14332,-0.00141 -0.27788,-0.03866 -0.39529,-0.10313c-0.02333,0.20021 -0.1505,0.76933 -0.84238,0.76253z" fill="#5f4128" stroke="none" stroke-width="0.5" stroke-linecap="butt"/><g stroke-width="1"><g fill="#353535" stroke-linecap="butt"><path d="M235.37891,164.15272c-0.79664,-1.15427 -0.18262,-1.84288 -0.1548,-3.47056c0.01128,-0.66022 -2.14882,-1.6841 -2.29062,-2.49221c-0.14136,-0.80561 0.44984,-1.57614 0.70399,-2.12147c0.43044,-0.92361 2.75383,-1.06958 3.49257,-1.18127c2.55722,-0.38664 6.65081,-0.39239 9.98422,0.49784c0.62274,0.16631 2.05024,0.5642 2.58357,1.64399c0.19362,0.39201 0.44091,0.90164 0.40672,1.45144c-0.04052,0.65189 -0.3859,1.36119 -0.40088,2.01062c-0.03707,1.60622 0.5345,2.59945 -0.24584,3.79986c-0.9994,1.53737 -2.57578,2.14193 -6.15096,2.46937c-0.09869,0.00904 -1.35151,0.15894 -2.83732,-0.14577c-2.04286,-0.41896 -4.52752,-1.64589 -5.09065,-2.46183z" stroke="#000000"/><path d="M237.92266,149.01415c0.15565,-0.17624 0.38409,-0.28646 0.63766,-0.28398c0.46357,0.00456 0.83567,0.38403 0.83112,0.84759c-0.00203,0.2064 -0.07837,0.39467 -0.2034,0.53964l-0.21705,0.25532c-0.0528,0.11151 -0.12944,0.20946 -0.22326,0.28733l-0.07357,0.06181l-0.01266,0.01491c-0.26084,0.45 -0.4824,0.88875 -0.65992,1.32703l0.00773,0.03248c0.12647,1.14948 0.54542,2.19088 0.91148,3.2796c0.17091,0.50831 0.66289,1.04575 0.45926,1.54185c-0.213,0.51896 -0.90019,0.7307 -1.44571,0.86146c-0.97975,0.23484 -2.86417,-0.16997 -3.59069,-1.15311c-0.11866,-0.16057 -0.20642,-0.33656 -0.25433,-0.52772c-0.12502,-0.49891 0.22452,-1.00538 0.38279,-1.49477c0.11512,-0.35593 0.26741,-0.73859 0.43919,-1.12822c0.14949,-0.82225 0.66245,-1.65415 1.18276,-2.37709c0.00547,-0.01034 0.0109,-0.02064 0.01634,-0.0309c0.1853,-0.3503 0.32456,-0.82958 0.6979,-0.96248c0.01327,-0.00472 0.02644,-0.00831 0.0395,-0.01084c0.01328,-0.01774 0.02642,-0.03533 0.03938,-0.05275l-0.00529,-0.00628l0.02639,-0.02217c0.00571,-0.00771 0.01138,-0.01539 0.01701,-0.02303l0.01518,-0.00402l0.07103,-0.05969l-0.00762,-0.00933l0.41746,-0.341z" stroke="#000000"/><path d="M247.09284,149.97068l0.31181,0.43971l-0.00983,0.00697l0.05262,0.07643l0.01356,0.0079c0.0034,0.00887 0.00682,0.01778 0.01028,0.02673l0.01954,0.02838l-0.00676,0.00464c0.00786,0.02024 0.01584,0.04068 0.02394,0.06133c0.01192,0.00591 0.02365,0.01286 0.03519,0.02094c0.32459,0.22735 0.33145,0.72641 0.41696,1.11337c0.00251,0.01134 0.00502,0.02272 0.00755,0.03413c0.30943,0.83523 0.58281,1.77355 0.50837,2.60595c0.06203,0.42128 0.10713,0.83064 0.1235,1.20439c0.0225,0.51384 0.22484,1.09502 -0.02829,1.54274c-0.69083,1.22189 -3.12734,1.16465 -4.15348,0.59833c-0.49114,-0.27105 -1.09732,-0.65784 -1.16472,-1.21474c-0.06444,-0.53238 0.55272,-0.91972 0.85257,-1.36431c0.64227,-0.95226 1.32297,-1.84483 1.75044,-2.91934l0.01608,-0.02926c-0.05463,-0.46973 -0.1516,-0.95155 -0.28345,-1.45471l-0.00824,-0.01773l-0.05448,-0.07914c-0.06974,-0.10002 -0.11758,-0.21481 -0.13884,-0.33634l-0.14138,-0.30383c-0.08199,-0.17298 -0.10555,-0.37477 -0.05263,-0.57429c0.11882,-0.44811 0.57843,-0.71503 1.02651,-0.59619c0.24512,0.065 0.43604,0.23197 0.53924,0.44325z" stroke="#000000"/><path d="M249.13114,158.47975c-0.09142,0.06717 -0.17954,0.1129 -0.26362,0.14178c-0.01243,0.21527 -0.071,0.41667 -0.19689,0.58755c-0.32703,0.44393 -1.1039,-0.01481 -1.65277,-0.0674c-1.66696,-0.15973 -3.18991,-0.80624 -4.78808,-1.26416c-0.3756,-0.10762 -0.79931,-0.25592 -1.2317,-0.39135c-0.09233,0.07953 -0.20213,0.13928 -0.32277,0.17273c0.04367,0.10302 0.06733,0.2165 0.06616,0.33554c-0.0042,0.4275 -0.32724,0.7772 -0.74104,0.82547l-0.92918,0.12345l-0.00234,-0.01769c-0.02753,0.00865 -0.05522,0.01687 -0.08309,0.02462c-0.71069,0.1977 -1.47343,-0.08301 -2.21102,-0.0938l-0.08839,-0.04583l-0.00692,0.02817l-1.12234,-0.27575c-0.32415,-0.07235 -0.57692,-0.33193 -0.64031,-0.65836c-0.22353,0.08787 -0.70713,0.1941 -1.03075,-0.34354c-0.43288,-0.71917 0.09678,-1.39376 0.09678,-1.39376c1.51301,-0.90058 2.47967,-1.08224 4.06199,-0.85196c0.22048,-0.05975 1.0888,-0.32267 1.31718,-0.32242c0.75725,0.00087 1.50529,0.67437 2.31446,0.91822c0.09635,-0.1661 0.24796,-0.29598 0.42942,-0.36471l0.79105,-0.32053l0.01372,0.03386c0.0572,-0.03152 0.11601,-0.06034 0.17674,-0.08597c0.61213,-0.2584 1.62762,0.28259 2.17136,0.44568c1.43527,0.43046 2.46201,0.27294 3.70731,1.26282l0.34447,0.42383c0,0 0.49702,0.67643 -0.17941,1.17346z" stroke="none"/></g><path d="M241.10641,160.15484l-0.33904,0.33245l-0.67258,0.10532l-1.4538,-0.1262l-1.1142,-0.5146l-0.6073,-0.8454l1.01218,-0.49372l1.00724,0.00989l1.39674,0.23757z" fill="none" stroke="#000000" stroke-linecap="round"/><path d="M245.54024,158.85526l1.40114,-0.2101l1.00723,0.0099l1.00231,0.5135l-0.62377,0.83332l-1.1241,0.49263l-1.456,0.09763l-0.67039,-0.11851l-0.33245,-0.33904z" fill="none" stroke="#000000" stroke-linecap="round"/><path d="M242.64099,166.38179l-0.01484,1.51085" fill="none" stroke="#000000" stroke-linecap="round"/><path d="M241.58148,167.88217l-0.02221,-1.51075" fill="none" stroke="#000000" stroke-linecap="round"/><path d="M240.55754,166.10961l-0.03982,1.5104" fill="none" stroke="#000000" stroke-linecap="round"/><path d="M239.56483,165.87604l-0.04211,1.51033" fill="none" stroke="#000000" stroke-linecap="round"/><path d="M238.44624,167.09554l0.07419,-1.50911" fill="none" stroke="#000000" stroke-linecap="round"/><path d="M237.46642,166.72197l0.08246,-1.50867" fill="none" stroke="#000000" stroke-linecap="round"/><path d="M236.60179,164.64392l-0.05747,1.50983" fill="none" stroke="#000000" stroke-linecap="round"/><path d="M235.69901,163.93785l-0.14074,1.50435" fill="none" stroke="#000000" stroke-linecap="round"/><path d="M243.74818,167.81749l-0.1012,-1.50753" fill="none" stroke="#000000" stroke-linecap="round"/><path d="M244.83122,167.69018l-0.02622,-1.5107" fill="none" stroke="#000000" stroke-linecap="round"/><path d="M245.7653,166.05185l0.12283,1.50593" fill="none" stroke="#000000" stroke-linecap="round"/><path d="M247.09074,167.23604l-0.05929,-1.50977" fill="none" stroke="#000000" stroke-linecap="round"/><path d="M248.28975,166.85641l-0.04345,-1.5103" fill="none" stroke="#000000" stroke-linecap="round"/><path d="M249.14418,164.58962l0.12969,1.50535" fill="none" stroke="#000000" stroke-linecap="round"/></g></g><path d="M244.17912,203.86497c-2.19214,1.72512 -3.49928,0.02338 -4.15366,-2.17753c-0.75572,1.1435 -1.65618,2.25006 -2.53612,3.09898c-0.38034,0.91143 -1.28431,1.54794 -2.33267,1.53764c-1.38064,-0.01355 -2.48888,-1.14378 -2.47534,-2.52442c0.00323,-0.32879 0.06978,-0.64213 0.18796,-0.92854c0.76825,-2.34404 3.67897,-5.94929 5.09584,-7.02074c0.64175,-0.48531 1.81367,-0.53163 2.70818,-0.20716c0.37814,-0.22247 0.81972,-0.34821 1.29038,-0.34359c0.46289,0.00454 0.89516,0.13461 1.26481,0.35755c0.43138,-0.33897 0.97673,-0.53892 1.56802,-0.53312c1.21587,0.01194 2.22046,0.88991 2.4337,2.04226c1.34081,1.36481 2.64388,3.05399 2.91766,4.21607c0.47384,2.01123 -1.02003,3.94479 -3.10899,3.40071c-0.51425,-0.13395 -1.23874,-0.81921 -1.96872,-1.74821c-0.21359,0.30522 -0.53643,0.55102 -0.89104,0.83007z" fill="#212121" stroke="none" stroke-width="0.5" stroke-linecap="butt"/><path d="M245.65054,195.38798l4.22112,5.74482" fill="none" stroke="#000000" stroke-width="1.5" stroke-linecap="round"/><path d="M232.00002,202.74269l5.51418,-6.62874" fill="none" stroke="#000000" stroke-width="1.5" stroke-linecap="round"/><g fill="none" stroke="none" stroke-width="1" stroke-linecap="butt" font-family="sans-serif" font-weight="normal" font-size="12" text-anchor="start"/><g fill="none" stroke="none" stroke-width="1" stroke-linecap="butt" font-family="sans-serif" font-weight="normal" font-size="12" text-anchor="start"/></g><path d="M213.01943,221.96914c-1.65685,0 -3,-1.34315 -3,-3v-77.93828c0,-1.65685 1.34315,-3 3,-3h53.96114c1.65685,0 3,1.34315 3,3v77.93828c0,1.65685 -1.34315,3 -3,3zM263.23302,197.97227c1.38071,0 2.5,-1.11929 2.5,-2.5v-48.59004c0,-1.38071 -1.11929,-2.5 -2.5,-2.5h-46.46605c-1.38071,0 -2.5,1.11929 -2.5,2.5v48.59004c0,1.38071 1.11929,2.5 2.5,2.5z" fill="#323232" stroke="none" stroke-width="0" stroke-linecap="butt"/><path d="M213.68572,218.72632c0,-1.06413 0.86265,-1.92677 1.92677,-1.92677c1.06413,0 1.92677,0.86265 1.92677,1.92677c0,1.06413 -0.86265,1.92677 -1.92677,1.92677c-1.06413,0 -1.92677,-0.86265 -1.92677,-1.92677z" fill="#000000" stroke="none" stroke-width="0" stroke-linecap="butt"/><text transform="translate(214.5139,143.14162) scale(0.13917,0.13917)" font-size="40" xml:space="preserve" fill="#000000" stroke="none" stroke-width="1" stroke-linecap="butt" font-family="Sans Serif" font-weight="normal" text-anchor="start"><tspan x="0" dy="0">Axl</tspan></text><text transform="translate(218.94522,220.40272) scale(0.0984,0.0984)" font-size="40" xml:space="preserve" fill="#000000" stroke="none" stroke-width="1" stroke-linecap="butt" font-family="Sans Serif" font-weight="normal" text-anchor="start"><tspan x="0" dy="0">1/27</tspan></text><text transform="translate(213.87227,203.13362) scale(0.11215,0.11215)" font-size="40" xml:space="preserve" fill="#000000" stroke="none" stroke-width="1" stroke-linecap="butt" font-family="Sans Serif" font-weight="normal" text-anchor="start"><tspan x="0" dy="0">The one and only. This</tspan><tspan x="0" dy="48px">was his final avatar on </tspan><tspan x="0" dy="48px">Scratch</tspan></text><text transform="translate(239.57666,220.8475) scale(0.09461,0.09461)" font-size="40" xml:space="preserve" fill="#000000" stroke="none" stroke-width="1" stroke-linecap="butt" font-family="Sans Serif" font-weight="normal" text-anchor="start"><tspan x="0" dy="0">Core Collection</tspan></text></g></g></svg>