<svg version="1.1" xmlns="http://www.w3.org/2000/svg" xmlns:xlink="http://www.w3.org/1999/xlink" width="559.45135" height="441.16937" viewBox="0,0,559.45135,441.16937"><g transform="translate(39.72568,40.58469)"><g stroke-miterlimit="10"><path d="M-37.02433,393.16531v-432h555v432z" fill="#000000" stroke="#868686" stroke-width="3.5" stroke-linecap="butt"/><path d="M-36.92921,229.62998c0,0 42.37545,-51.93136 60.83586,-71.19653c14.44758,-15.0774 40.86838,-34.94134 40.86838,-34.94134c0,0 8.66142,1.83632 11.93981,4.97777c2.94288,2.81994 6.83287,13.01073 6.83287,13.01073c0,0 -18.02988,28.93345 -31.96339,43.47436c-18.60071,19.41157 -69.74085,62.66351 -69.74085,62.66351c0,0 -10.04004,-4.08068 -12.82903,-6.75317c-3.36117,-3.22077 -5.94365,-11.23533 -5.94365,-11.23533z" fill="#002eff" stroke="#001d9f" stroke-width="5" stroke-linecap="butt"/><g fill="#002eff" stroke="#001d9f" stroke-width="5" stroke-linecap="butt"><path d="M106.2571,266.47196c0,0 33.44838,-58.084 48.56123,-80.07343c11.8277,-17.20948 34.70027,-41.07328 34.70027,-41.07328c0,0 8.84417,0.41585 12.58616,2.98763c3.35902,2.30858 8.84115,11.73888 8.84115,11.73888c0,0 -13.12918,31.46181 -24.53603,48.05894c-15.22771,22.15654 -58.72547,73.08777 -58.72547,73.08777c0,0 -10.5666,-2.40858 -13.74999,-4.59645c-3.83647,-2.63672 -7.67732,-10.13008 -7.67732,-10.13008z"/><path d="M194.68055,379.70438c0,0 -44.5497,-50.07864 -60.64166,-71.362c-12.59397,-16.6569 -28.01404,-45.89484 -28.01404,-45.89484c0,0 3.18738,-8.26032 6.80921,-10.99873c3.25117,-2.45815 13.93009,-4.68188 13.93009,-4.68188c0,0 25.70607,22.39238 37.85193,38.4566c16.21425,21.44512 50.80377,78.80025 50.80377,78.80025c0,0 -5.62205,9.26536 -8.70322,11.59498c-3.71329,2.80755 -12.03609,4.08562 -12.03609,4.08562z"/></g><path d="M39.69842,373.97031c0,0 19.17957,-154.18097 28.3006,-202.46715c5.28343,-27.97019 1.11752,-46.12438 21.51586,-61.25823c20.39834,-15.13385 40.86124,-8.81084 58.72764,-5.01759c19.20777,4.07805 41.66766,9.56016 52.78646,28.6934c11.1188,19.13324 6.12393,29.57728 -0.63064,65.33558c-9.12633,48.31424 -49.18582,198.38981 -49.18582,198.38981z" fill="#002eff" stroke="#001d9f" stroke-width="5" stroke-linecap="butt"/><path d="M88.0407,319.18605c0,0 -59.68129,-30.50718 -82.39772,-44.50351c-17.77845,-10.95387 -42.75426,-32.60667 -42.75426,-32.60667c0,0 -0.02616,-8.8539 2.35562,-12.71961c2.13802,-3.47008 11.28291,-9.41612 11.28291,-9.41612c0,0 32.07798,11.54227 49.22383,22.10638c22.88907,14.10269 75.92815,55.0038 75.92815,55.0038c0,0 -1.8781,10.67366 -3.90433,13.96229c-2.44192,3.96332 -9.73421,8.17343 -9.73421,8.17343z" fill="#002eff" stroke="#001d9f" stroke-width="5" stroke-linecap="butt"/><g><path d="M197.6011,68.50213c0,27.24459 -22.0861,49.33071 -49.3307,49.33071c-27.24458,0 -49.3307,-22.0861 -49.3307,-49.33071c0,-27.24458 22.0861,-49.3307 49.3307,-49.3307c27.24459,0 49.3307,22.0861 49.3307,49.33071z" fill="#ffc97d" stroke="#b68f59" stroke-width="5" stroke-linecap="butt"/><path d="M193.68713,33.32312c2.77128,5.21169 9.04861,10.37 11.98238,16.02582c0.98075,1.49665 1.5511,3.28645 1.5511,5.20945c0,5.25613 -4.26094,9.51708 -9.51708,9.51708c-3.61609,0 -6.76114,-2.01675 -8.37175,-4.98684c-0.04127,0.00103 -0.08273,0.00282 -0.12439,0.00537c-3.86649,0.23686 -7.86657,1.98482 -12.19084,1.7054c-4.88717,-0.3158 -10.48688,-4.22446 -14.93381,-6.10928c-5.37975,-2.28019 -9.85811,-1.19962 -12.68331,-6.8817c-0.64939,-1.30606 0.05109,3.05739 -0.67259,4.32381c-0.97253,1.70194 -2.35862,3.21974 -3.96552,4.34238c-4.17457,2.91647 -9.63798,-0.23028 -13.64746,-1.22076c-14.48457,-3.57816 -37.70111,-5.59581 -27.64777,-28.10692c1.86337,-4.1724 9.43624,-5.24435 13.09552,-3.14796c1.63549,0.93696 2.46471,-2.99731 4.1506,-3.84025c2.6038,-1.3019 5.01247,-0.82524 7.63644,-1.18963c1.72002,-0.23888 0.32807,-3.56424 1.18963,-5.07197c0.83471,-1.46074 2.27934,-2.48839 3.56891,-3.5689c4.17046,-3.49436 10.66984,0.89512 14.90865,0.60928c0.45064,-0.03038 0.18235,-0.8872 0.32862,-1.31451c1.05464,-3.08093 5.21708,-6.63005 8.28421,-6.87765c9.09771,-0.73442 11.05659,7.7276 18.00647,9.10598c2.4137,0.47871 5.38904,-1.30431 7.69669,-0.49199c6.7037,2.3598 8.86094,17.27279 11.35532,21.96376z" fill="#653800" stroke="#583000" stroke-width="5" stroke-linecap="butt"/><path d="M124.5146,91.83742v-27.22487" fill="none" stroke="#000000" stroke-width="15" stroke-linecap="round"/><path d="M155.32291,91.58148v-27.22487" fill="none" stroke="#000000" stroke-width="15" stroke-linecap="round"/></g><path d="M105.40545,66.45189l24,-8" fill="none" stroke="#000000" stroke-width="5" stroke-linecap="round"/><path d="M154.40545,59.45189l23,7" fill="none" stroke="#000000" stroke-width="5" stroke-linecap="round"/><g stroke="#969696" stroke-width="5"><path d="M97.90393,321.84095l33.80742,-54.34205l26.32193,16.37546l-33.80742,54.34206z" fill="#d6d6d6" stroke-linecap="butt"/><path d="M132.82456,267.60259l61.9839,38.56159l-16.37547,26.32193l-61.9839,-38.56158z" fill="#d6d6d6" stroke-linecap="butt"/><path d="M156.34144,318.48687c0,0 -5.86996,8.62781 -9.75875,9.53372c-2.98639,0.69569 -11.58995,-4.56049 -11.58995,-4.56049" fill="none" stroke-linecap="round"/><path d="M97.72841,320.88731l36.08651,22.45024" fill="none" stroke-linecap="round"/></g><path d="M90.40545,318.08015c0,-13.53098 10.96903,-24.5 24.5,-24.5c13.53097,0 24.5,10.96902 24.5,24.5c0,13.53098 -10.96903,24.5 -24.5,24.5c-13.53097,0 -24.5,-10.96902 -24.5,-24.5z" fill="#ffc97d" stroke="#b68f59" stroke-width="5" stroke-linecap="butt"/><g><path d="M304.46973,79.59023c0,-7.23145 5.86224,-13.09369 13.09369,-13.09369c7.23145,0 13.09369,5.86224 13.09369,13.09369c0,7.23145 -5.86224,13.09369 -13.09369,13.09369c-7.23145,0 -13.09369,-5.86224 -13.09369,-13.09369z" fill="#ff0000" stroke="none" stroke-width="0" stroke-linecap="butt"/><path d="M362.71409,78.23571c0,-7.23145 5.86224,-13.09369 13.09369,-13.09369c7.23145,0 13.09369,5.86224 13.09369,13.09369c0,7.23145 -5.86224,13.09369 -13.09369,13.09369c-7.23145,0 -13.09369,-5.86224 -13.09369,-13.09369z" fill="#ff0000" stroke="none" stroke-width="0" stroke-linecap="butt"/><g fill="none" stroke="#a70000" stroke-width="5" stroke-linecap="round"><path d="M394.23444,121.82537l-33.863,20.3178l-22.12383,-18.06027l-20.31779,15.80273l-18.96328,-20.3178"/><path d="M396.04048,122.45637c0,0 -8.18982,21.09768 -14.13563,29.70346c-5.44894,7.88663 -20.17888,19.96227 -20.17888,19.96227l-26.18738,-17.15725l-21.22082,17.15725c0,0 -9.22178,-16.54026 -11.78848,-24.99528c-2.55028,-8.40088 -3.56275,-25.57346 -3.56275,-25.57346"/></g></g></g></g></svg>