<svg version="1.1" xmlns="http://www.w3.org/2000/svg" xmlns:xlink="http://www.w3.org/1999/xlink" width="86.54672" height="112.14505" viewBox="0,0,86.54672,112.14505"><defs><linearGradient x1="240" y1="166.88632" x2="240" y2="230.91858" gradientUnits="userSpaceOnUse" id="color-1"><stop offset="0" stop-color="#ffffff" stop-opacity="0"/><stop offset="1" stop-color="#ffffff"/></linearGradient><linearGradient x1="240" y1="179.9921" x2="240" y2="231.18256" gradientUnits="userSpaceOnUse" id="color-2"><stop offset="0" stop-color="#444444" stop-opacity="0"/><stop offset="1" stop-color="#444444"/></linearGradient><linearGradient x1="221.10656" y1="202.92029" x2="221.10656" y2="231.11075" gradientUnits="userSpaceOnUse" id="color-3"><stop offset="0" stop-color="#444444" stop-opacity="0"/><stop offset="1" stop-color="#444444"/></linearGradient><linearGradient x1="258.81147" y1="202.92029" x2="258.81147" y2="231.11075" gradientUnits="userSpaceOnUse" id="color-4"><stop offset="0" stop-color="#444444" stop-opacity="0"/><stop offset="1" stop-color="#444444"/></linearGradient></defs><g transform="translate(-196.72664,-123.92746)"><g stroke-miterlimit="10"><path d="M202.5,231.07145v-102.14286h75v102.14286z" fill="#ffffff" stroke="none" stroke-width="0" stroke-linecap="butt"/><g stroke="#000000" stroke-width="2.5" stroke-linecap="butt"><path d="M228.20364,224.65946c0,7.5076 -3.29398,3.01553 -6.45508,3.01553c-3.16109,0 -4.99225,4.49208 -4.99225,-3.01553c0,-3.90666 -0.9284,-10.08308 0.18262,-12.56268c1.02408,-2.28555 4.02485,-1.62095 5.54104,-1.62095c1.56367,0 4.30821,-0.87049 5.34125,1.54332c1.05535,2.46592 0.38242,8.84642 0.38242,12.64032z" fill="#ff0000"/><path d="M230.87304,198.24528c0,17.96961 -7.48488,15.3574 -16.27668,15.3574c-4.56031,0 -8.29348,0.79716 -11.10307,-1.0341c-0.22603,-0.14732 0.03199,-14.42203 0.17921,-24.87229c0.08411,-5.97071 -0.27806,-10.72378 -0.18368,-10.94623c2.9188,-6.87939 6.66042,-11.04164 11.46528,-11.04164c8.79179,0 15.91895,14.56725 15.91895,32.53685z" fill="#ff0000"/><path d="M209.15657,187.02066v-8.22777h14.66689v8.22777z" fill="#00ffe5"/></g><g stroke="#000000" stroke-width="2.5"><path d="M263.08191,189.16353c4.97855,0 9.01446,9.24358 9.01446,20.64613c0,9.57666 -2.84686,17.63043 -6.70804,19.96416c-0.73617,0.44495 -4.35293,0.2755 -5.28549,-0.47209c-3.51464,-2.81756 -6.03539,-10.48059 -6.03539,-19.49207c0,-11.40254 4.03591,-20.64613 9.01446,-20.64613z" fill="#1c1c1c" stroke-linecap="butt"/><path d="M269.31959,196.15859c2.5957,0 4.56026,9.84747 1.96456,9.84747c-2.59569,0 -4.07954,-1.79083 -4.07954,-4.51014c0,-2.7193 -0.48072,-5.33733 2.11498,-5.33733z" fill="#990000" stroke-linecap="butt"/><path d="M264.96561,169.06314c4.13985,0.51426 6.88441,5.8533 6.13016,11.92507c-0.75425,6.07177 -4.72169,10.57702 -8.86154,10.06276c-4.13985,-0.51426 -6.88441,-5.8533 -6.13016,-11.92507c0.75425,-6.07177 4.72169,-10.57702 8.86154,-10.06276z" fill="#ffd567" stroke-linecap="butt"/><path d="M256.9605,172.73189c0.49248,-3.6753 3.80154,-6.2648 8.2119,-5.67382c4.1127,0.5511 6.61218,3.22883 6.53148,6.56801c-0.00584,0.24167 -0.02519,0.48681 -0.05843,0.73486c-0.01037,0.07738 2.55782,0.41158 4.88413,0.75866c0.06376,0.00951 -0.21572,2.74678 -0.2935,2.73631c-2.61159,-0.35156 -5.76172,-1.39457 -6.21568,-1.30029c-1.40766,0.29233 -3.61683,-0.5261 -6.33996,-0.891c-4.41036,-0.59098 -7.21241,0.74258 -6.71993,-2.93272z" fill="#181818" stroke-linecap="butt"/><path d="M264.41733,179.68388l0.12512,4.68344" fill="none" stroke-linecap="round"/><path d="M259.74924,184.09402l-0.12512,-4.68344" fill="none" stroke-linecap="round"/><path d="M258.99154,200.80903c0,2.7193 -1.48385,4.51014 -4.07955,4.51014c-2.5957,0 -0.63113,-9.84747 1.96457,-9.84747c2.5957,0 2.11498,2.61803 2.11498,5.33733z" fill="#990000" stroke-linecap="butt"/><path d="M253.66866,195.73689c2.44001,0.55798 2.45795,9.58173 0.04008,20.15512c-1.25263,5.47776 -2.91329,10.29679 -4.56227,13.59184c-0.76448,1.5276 -2.44091,0.09556 -3.75169,-0.13756c-1.31935,-0.23465 -2.27074,0.71935 -2.31348,-0.90012c-0.09794,-3.71023 0.49849,-8.92095 1.79137,-14.57475c2.41788,-10.57339 6.35598,-18.69249 8.79599,-18.13452z" fill="#990000" stroke-linecap="butt"/><path d="M273.04072,196.08278c1.24815,-0.17257 3.98882,5.32882 3.98882,5.32882c0,0 -1.58869,23.86409 -1.84869,27.76947c-0.06951,1.04411 -0.38857,1.21806 -0.77215,-0.02169c-0.91825,-2.96779 -2.56518,-8.64568 -3.16751,-13.00193c-1.48556,-10.74411 -0.67989,-19.73184 1.79952,-20.07466z" fill="#990000" stroke-linecap="butt"/><path d="M263.33397,191.81615v37.42021" fill="none" stroke-linecap="round"/></g><g><path d="M229.19186,227.21463c0,0 -0.53479,-7.15578 -0.77019,-12.1134c-0.27179,-5.7238 -3.77464,-21.05232 -3.04143,-28.87395c0.33301,-3.55248 5.3974,-4.36998 5.3974,-4.36998l16.81577,-0.38409c0,0 4.43846,0.77597 4.8945,3.95091c0.99965,6.95974 -0.25962,21.53286 0.00798,27.16889c0.27057,5.69829 -1.56305,13.93781 -1.56305,13.93781z" fill="#212121" stroke="none" stroke-width="0" stroke-linecap="butt"/><g fill="#000000" stroke="none" stroke-width="0" stroke-linecap="butt"><path d="M226.86533,188.64835c0,0 -0.17924,1.90243 -1.07683,3.576c-0.65194,1.21561 -2.63998,3.16368 -4.14523,5.73107c-1.1058,1.88602 -1.94558,3.95387 -2.881,5.78926c-1.53696,3.01561 -2.89649,5.41285 -2.89649,5.41285l-4.86973,-3.09036c0,0 2.43955,-5.71174 5.38224,-11.66956c0.85734,-1.73578 1.76478,-3.84423 2.65789,-5.40235c1.58674,-2.76827 3.56581,-4.14333 4.62116,-5.46577c2.09283,-2.62243 5.3414,-1.79822 5.3414,-1.79822l-2.13341,6.91704z"/><path d="M215.76274,209.31984c-0.85338,1.34474 -2.63529,1.74306 -3.98003,0.88967c-1.34474,-0.85338 -1.74306,-2.63529 -0.88968,-3.98003c0.85338,-1.34474 2.6353,-1.74306 3.98006,-0.88967c1.34474,0.85338 1.74306,2.63532 0.88967,3.98005z"/></g><g fill="#000000" stroke="none" stroke-width="0" stroke-linecap="butt"><path d="M239.29532,213.67385l-1.73683,5.49981c0,0 -1.59789,1.02186 -4.53449,0.10442c-1.99171,-0.62226 -5.2879,-2.5512 -7.56045,-3.18503c-2.99779,-0.8361 -5.61951,-1.8125 -7.19018,-2.30852c-2.36708,-0.74752 -5.83072,-2.54238 -5.83072,-2.54238l1.73683,-5.49982c0,0 3.68795,0.39814 6.13943,1.17232c1.60087,0.50555 4.40624,2.03693 7.39774,3.10487c1.55239,0.55418 4.48302,1.77606 5.97769,2.25487c3.80191,1.21792 5.60098,1.3995 5.60098,1.3995z"/><path d="M215.87765,209.30274c-0.4796,1.51873 -2.09959,2.3611 -3.61833,1.88149c-1.51873,-0.4796 -2.3611,-2.09959 -1.8815,-3.61831c0.4796,-1.51873 2.09959,-2.36109 3.61833,-1.8815c1.51873,0.4796 2.3611,2.09959 1.8815,3.61833z"/></g><g fill="#000000" stroke="none" stroke-width="0" stroke-linecap="butt"><path d="M251.73542,189.3168l-2.83073,-6.66212c0,0 3.14707,-1.15266 5.49751,1.24159c1.18527,1.20737 3.29477,2.37247 5.15673,4.96363c1.048,1.45843 2.16667,3.46285 3.19731,5.10167c3.5375,5.62504 6.54931,11.05683 6.54931,11.05683l-4.52755,3.57294c0,0 -1.59794,-2.24537 -3.43573,-5.08768c-1.11852,-1.72991 -2.16573,-3.70085 -3.45888,-5.46368c-1.76033,-2.39967 -3.93744,-4.13388 -4.71048,-5.27629c-1.06427,-1.57283 -1.43749,-3.44691 -1.43749,-3.44691z"/><path d="M264.89707,208.7423c-0.98663,-1.25025 -0.77295,-3.0636 0.47731,-4.05024c1.25026,-0.98664 3.0636,-0.77295 4.05024,0.47731c0.98663,1.25025 0.77295,3.0636 -0.47731,4.05024c-1.25025,0.98664 -3.0636,0.77295 -4.05025,-0.47731z"/></g><g fill="#000000" stroke="none" stroke-width="0" stroke-linecap="butt"><path d="M241.32278,212.97984c0,0 1.7981,-0.19103 5.59354,-1.42893c1.49213,-0.48665 4.4163,-1.72395 5.96575,-2.2863c2.98585,-1.08365 5.78313,-2.62975 7.38132,-3.1437c2.44736,-0.78707 6.13318,-1.2046 6.13318,-1.2046l1.76573,5.49061c0,0 -3.45413,1.81306 -5.81726,2.57302c-1.56805,0.50429 -4.18459,1.49443 -7.17794,2.34632c-2.26918,0.64577 -5.5552,2.59204 -7.54358,3.22477c-2.93173,0.9329 -4.53498,-0.08055 -4.53498,-0.08055l-1.76573,-5.49061z"/><path d="M266.57959,204.85743c1.51619,-0.48759 3.14057,0.34624 3.62817,1.86242c0.48759,1.5162 -0.34625,3.14057 -1.86244,3.62819c-1.51619,0.48759 -3.14057,-0.34625 -3.62817,-1.86244c-0.48759,-1.5162 0.34624,-3.14057 1.86243,-3.62817z"/></g><g><path d="M250.59441,170.37464c-0.06202,6.31727 -4.37276,11.39659 -9.6283,11.345c-3.92322,-0.03852 -7.27399,-1.90006 -8.68982,-5.98913c-0.25564,-0.73828 -1.16697,0.12951 -2.30349,-1.0607c-1.00122,-1.04851 -2.31547,-5.59043 -1.59805,-6.17956c1.30558,-1.07214 3.40594,-0.9317 3.77123,-2.12511c1.35345,-4.42184 4.90615,-7.56297 9.04476,-7.52233c5.25554,0.05159 9.46571,5.21457 9.4037,11.53184z" fill="#eda164" stroke="#000000" stroke-width="1" stroke-linecap="butt"/><path d="M231.36726,173.74606c-0.96121,-0.00944 -0.95177,-0.97064 -0.95177,-0.97064l0.07777,-0.00508c-0.43002,-1.03974 -1.09528,-2.44344 -0.52177,-3.58322c0.02026,-0.04026 0.04158,-0.0798 0.06388,-0.11872l-0.01838,-0.00808l0.29101,-0.66104c-0.21902,-0.17828 -0.35783,-0.45099 -0.35482,-0.75535l0.01003,-1.02108c-0.10507,-0.27444 -0.21015,-0.5489 -0.31523,-0.82334c0,0 -0.32866,-0.90332 0.57464,-1.23198c0.12306,-0.04479 0.23549,-0.06669 0.33785,-0.07115c0.05335,-0.04993 0.10411,-0.09808 0.1517,-0.14429l0.60666,-0.83195c0.01088,-0.01531 0.02219,-0.0303 0.03392,-0.04492c-0.02208,-0.18081 -0.04309,-0.35783 -0.07102,-0.52214c-0.33185,-1.95146 1.30567,-4.19232 2.19682,-5.75412l0.17346,-0.07218l-0.04481,-0.05485l0.77038,-0.62927c0.16877,-0.13987 0.38606,-0.22307 0.62243,-0.22074c0.36053,0.00355 0.67275,0.20511 0.83436,0.50037c0.1331,-0.06748 0.28394,-0.10487 0.44349,-0.10331c0.31405,0.00308 0.59143,0.15643 0.76455,0.39106c0.339,-0.12513 0.66448,-0.21951 0.92281,-0.25931c0.23026,-0.24528 0.50534,-0.51836 0.8443,-0.85073l0.77651,-0.76141c0.17565,-0.17224 0.41701,-0.27746 0.68244,-0.27485c0.53086,0.00522 0.95698,0.43979 0.95177,0.97064c-0.00189,0.19245 -0.06021,0.37114 -0.15909,0.52049l-0.39956,0.62552l0.49191,-0.04977c0.03937,-0.00451 0.07945,-0.00664 0.12011,-0.00625c0.3154,0.00309 0.59381,0.15775 0.76678,0.39412l0.90001,-0.21565c0.08115,-0.02132 0.16644,-0.03231 0.25438,-0.03143c0.53086,0.00522 0.95698,0.43979 0.95177,0.97064c-0.00045,0.04639 -0.00419,0.09198 -0.01098,0.13656c0.12889,-0.04984 0.25883,-0.09658 0.38984,-0.14l0.99681,-0.36267c0.11115,-0.0434 0.2323,-0.06672 0.35893,-0.06546c0.53086,0.00522 0.95698,0.43978 0.95176,0.97063c-0.00132,0.1339 -0.02996,0.26114 -0.08056,0.37647l-0.3986,0.9688c0.08692,-0.03258 0.17437,-0.06304 0.26215,-0.09141l0.03831,0.0016l-0.00261,-0.01089l1.00684,-0.24124c0.08115,-0.02132 0.16644,-0.03231 0.25438,-0.03143c0.53086,0.00522 0.95698,0.43979 0.95176,0.97064c-0.00147,0.14955 -0.03702,0.2908 -0.09918,0.41642c0.09561,0.05689 0.19586,0.12083 0.30095,0.19227c0.25091,0.17058 0.41043,0.38365 0.49828,0.62528c0.46612,0.07038 0.82126,0.47496 0.81649,0.95986c-0.00042,0.04346 -0.00373,0.08621 -0.00973,0.12808c0.00519,0.04197 0.00765,0.08479 0.00721,0.12825c-0.00143,0.14644 -0.03556,0.28492 -0.09535,0.40857l-0.5062,1.10946c-0.14841,0.3456 -0.49346,0.5861 -0.89308,0.58216c-0.00987,-0.0001 -0.0197,-0.00033 -0.02949,-0.00073c-0.09875,0.09945 -0.19964,0.19695 -0.30231,0.29273l0.09046,0.06467l-0.9019,1.26186c-0.17547,0.25243 -0.46872,0.41645 -0.7993,0.41321c-0.1822,-0.00179 -0.35205,-0.05415 -0.49637,-0.14364c-0.04675,0.0065 -0.09457,0.00964 -0.14318,0.00917c-0.50825,-0.00499 -0.92049,-0.40352 -0.95012,-0.90333c-0.12596,0.03515 -0.24874,0.06605 -0.35917,0.09571c-0.19919,0.05351 -0.41796,0.09081 -0.64926,0.11701c-0.38849,0.26517 -0.7317,0.62428 -1.18316,0.73333c-0.67186,0.16229 -1.38201,-0.03216 -2.07302,-0.04821l-0.12991,-0.50316c-0.54739,0.13148 -1.0658,0.40681 -1.61079,0.55211c-0.10909,0.07095 -0.21709,0.1428 -0.31399,0.22372l-0.978,0.22891c-0.07488,0.02798 -0.15417,0.04688 -0.2365,0.05536l-0.86593,0.20268c-0.0811,0.05582 -0.15519,0.09862 -0.21916,0.12629c-0.13306,0.05752 -0.27183,0.05369 -0.41385,0.02188l-0.14438,0.03381c0.01083,-0.02127 0.02167,-0.04257 0.0325,-0.06383c-0.11431,-0.03513 -0.23026,-0.08246 -0.34664,-0.12513l-0.17614,0.25865l-0.04664,-0.03176c-0.06482,0.12543 -0.12919,0.24852 -0.19332,0.36961c-0.29103,0.97181 -0.53414,1.94689 -0.52698,2.83842l-0.01007,1.0253c-0.00522,0.53086 -0.43978,0.95699 -0.97063,0.95177c-0.25617,-0.00252 -0.48796,-0.10502 -0.65867,-0.27008c-0.14482,0.08458 -0.31364,0.13236 -0.49354,0.13059c-0.16413,-0.00161 -0.31822,-0.04427 -0.45267,-0.1181c-0.02672,0.22927 -0.17235,0.88101 -0.96467,0.87322z" fill="#5f4128" stroke="none" stroke-width="0.5" stroke-linecap="butt"/><g stroke-width="1"><g fill="#353535" stroke-linecap="butt"><path d="M234.06231,175.82418c-0.91229,-1.32183 -0.20913,-2.11041 -0.17727,-3.97437c0.01292,-0.75606 -2.46076,-1.92858 -2.62314,-2.854c-0.16188,-0.92256 0.51514,-1.80494 0.80619,-2.42944c0.49293,-1.05769 3.15359,-1.22485 3.99958,-1.35275c2.92844,-0.44277 7.61629,-0.44935 11.4336,0.57011c0.71314,0.19045 2.34787,0.6461 2.95862,1.88264c0.22173,0.44892 0.50492,1.03253 0.46576,1.66214c-0.0464,0.74652 -0.44192,1.55879 -0.45907,2.3025c-0.04245,1.83939 0.61209,2.9768 -0.28153,4.35147c-1.14448,1.76055 -2.9497,2.45287 -7.04388,2.82784c-0.11302,0.01035 -1.5477,0.18201 -3.2492,-0.16693c-2.33942,-0.47978 -5.18477,-1.88482 -5.82964,-2.81921z" stroke="#000000"/><path d="M237.71303,158.32405c0.17825,-0.20182 0.43985,-0.32804 0.73023,-0.3252c0.53086,0.00522 0.95698,0.43978 0.95177,0.97063c-0.00232,0.23636 -0.08975,0.45196 -0.23293,0.61798l-0.24856,0.29238c-0.06046,0.1277 -0.14823,0.23987 -0.25567,0.32904l-0.08425,0.07078l-0.0145,0.01707c-0.29871,0.51533 -0.55243,1.01777 -0.75572,1.51967l0.00885,0.0372c0.14483,1.31635 0.6246,2.50892 1.0438,3.75569c0.19572,0.5821 0.75912,1.19756 0.52593,1.76568c-0.24392,0.5943 -1.03087,0.83677 -1.65558,0.98652c-1.12198,0.26893 -3.27995,-0.19464 -4.11194,-1.3205c-0.13589,-0.18388 -0.23639,-0.38542 -0.29125,-0.60433c-0.14317,-0.57134 0.25711,-1.15133 0.43836,-1.71176c0.13183,-0.4076 0.30623,-0.84581 0.50295,-1.292c0.17119,-0.94161 0.75862,-1.89428 1.35446,-2.72216c0.00626,-0.01184 0.01248,-0.02364 0.01871,-0.03539c0.2122,-0.40115 0.37168,-0.95001 0.79921,-1.1022c0.0152,-0.00541 0.03028,-0.00952 0.04523,-0.01241c0.01521,-0.02032 0.03026,-0.04046 0.0451,-0.06041l-0.00606,-0.00719l0.03022,-0.02539c0.00654,-0.00883 0.01303,-0.01762 0.01948,-0.02637l0.01738,-0.0046l0.08134,-0.06836l-0.00873,-0.01068l0.47806,-0.3905z" stroke="#000000"/><path d="M248.21442,159.41941l0.35707,0.50354l-0.01126,0.00798l0.06026,0.08753l0.01553,0.00905c0.00389,0.01016 0.00781,0.02036 0.01177,0.03061l0.02238,0.0325l-0.00774,0.00531c0.009,0.02318 0.01814,0.04659 0.02742,0.07023c0.01365,0.00677 0.02708,0.01473 0.0403,0.02398c0.37171,0.26035 0.37957,0.83186 0.47749,1.27499c0.00287,0.01299 0.00575,0.02602 0.00865,0.03908c0.35435,0.95648 0.66741,2.03101 0.58217,2.98425c0.07103,0.48244 0.12268,0.95122 0.14143,1.37923c0.02577,0.58843 0.25748,1.25398 -0.0324,1.76669c-0.79112,1.39927 -3.58133,1.33372 -4.75643,0.68519c-0.56244,-0.3104 -1.25661,-0.75334 -1.3338,-1.39108c-0.07379,-0.60966 0.63296,-1.05323 0.97633,-1.56236c0.73551,-1.0905 1.51502,-2.11264 2.00455,-3.34313l0.01841,-0.03351c-0.06256,-0.53792 -0.17361,-1.08968 -0.3246,-1.66589l-0.00944,-0.0203l-0.06239,-0.09063c-0.07986,-0.11454 -0.13465,-0.24599 -0.15899,-0.38517l-0.1619,-0.34794c-0.09389,-0.19809 -0.12087,-0.42917 -0.06027,-0.65766c0.13607,-0.51316 0.6624,-0.81883 1.17553,-0.68274c0.2807,0.07444 0.49934,0.26564 0.61752,0.5076z" stroke="#000000"/><path d="M250.54861,169.16375c-0.10469,0.07692 -0.2056,0.12929 -0.30189,0.16236c-0.01423,0.24652 -0.08131,0.47716 -0.22547,0.67284c-0.3745,0.50837 -1.26415,-0.01696 -1.8927,-0.07718c-1.90895,-0.18292 -3.65298,-0.92328 -5.48315,-1.44767c-0.43012,-0.12324 -0.91534,-0.29307 -1.4105,-0.44816c-0.10573,0.09108 -0.23147,0.1595 -0.36963,0.1978c0.05001,0.11798 0.0771,0.24793 0.07576,0.38425c-0.00481,0.48956 -0.37474,0.89002 -0.84861,0.9453l-1.06407,0.14137l-0.00268,-0.02026c-0.03153,0.00991 -0.06324,0.01932 -0.09515,0.02819c-0.81386,0.2264 -1.68732,-0.09506 -2.53199,-0.10742l-0.10122,-0.05248l-0.00792,0.03226l-1.28527,-0.31578c-0.37121,-0.08285 -0.66067,-0.38012 -0.73326,-0.75393c-0.25598,0.10063 -0.80978,0.22228 -1.18038,-0.39341c-0.49572,-0.82357 0.11083,-1.59609 0.11083,-1.59609c1.73265,-1.03131 2.83964,-1.23935 4.65166,-0.97564c0.25249,-0.06842 1.24686,-0.36951 1.50839,-0.36922c0.86718,0.001 1.72381,0.77227 2.65044,1.05152c0.11034,-0.19021 0.28396,-0.33895 0.49176,-0.41765l0.90588,-0.36706l0.01571,0.03878c0.0655,-0.0361 0.13285,-0.0691 0.2024,-0.09845c0.70099,-0.29591 1.8639,0.32361 2.48657,0.51038c1.64362,0.49295 2.81941,0.31256 4.24549,1.44614l0.39448,0.48536c0,0 0.56917,0.77463 -0.20545,1.34381z" stroke="none"/></g><path d="M240.04748,171.40988l-0.38826,0.38071l-0.77022,0.12061l-1.66484,-0.14452l-1.27594,-0.5893l-0.69546,-0.96812l1.15911,-0.56539l1.15346,0.01133l1.5995,0.27206z" fill="none" stroke="#000000" stroke-linecap="round"/><path d="M244.71512,170.00359l1.60454,-0.2406l1.15345,0.01134l1.14781,0.58804l-0.71432,0.95429l-1.28728,0.56414l-1.66736,0.1118l-0.76771,-0.13571l-0.38071,-0.38826z" fill="none" stroke="#000000" stroke-linecap="round"/><path d="M243.11631,178.21288l-0.01699,1.73018" fill="none" stroke="#000000" stroke-linecap="round"/><path d="M241.90299,179.93107l-0.02543,-1.73006" fill="none" stroke="#000000" stroke-linecap="round"/><path d="M240.68481,179.63087l0.0456,-1.72966" fill="none" stroke="#000000" stroke-linecap="round"/><path d="M239.59359,177.63374l-0.04822,1.72958" fill="none" stroke="#000000" stroke-linecap="round"/><path d="M238.39758,177.30209l-0.08496,1.72818" fill="none" stroke="#000000" stroke-linecap="round"/><path d="M237.28499,176.87477l-0.09443,1.72768" fill="none" stroke="#000000" stroke-linecap="round"/><path d="M236.13461,177.95175l0.06581,-1.72901" fill="none" stroke="#000000" stroke-linecap="round"/><path d="M235.00541,177.13691l0.16117,-1.72273" fill="none" stroke="#000000" stroke-linecap="round"/><path d="M244.38423,179.857l-0.11589,-1.72637" fill="none" stroke="#000000" stroke-linecap="round"/><path d="M245.62449,179.71123l-0.03003,-1.73" fill="none" stroke="#000000" stroke-linecap="round"/><path d="M246.69416,177.83506l0.14066,1.72454" fill="none" stroke="#000000" stroke-linecap="round"/><path d="M248.14411,177.46222l0.0679,1.72894" fill="none" stroke="#000000" stroke-linecap="round"/><path d="M249.58508,178.75641l-0.04976,-1.72955" fill="none" stroke="#000000" stroke-linecap="round"/><path d="M250.56355,176.16057l0.14852,1.72388" fill="none" stroke="#000000" stroke-linecap="round"/></g></g><path d="M244.87772,221.1374c-2.51037,1.97555 -4.00726,0.02677 -4.75663,-2.49364c-0.86543,1.3095 -1.8966,2.57669 -2.90428,3.54885c-0.43555,1.04374 -1.47075,1.77265 -2.6713,1.76085c-1.58106,-0.01552 -2.85018,-1.30982 -2.83468,-2.89088c0.0037,-0.37652 0.07991,-0.73535 0.21525,-1.06333c0.87977,-2.68432 4.21303,-6.81293 5.83559,-8.03992c0.73491,-0.55576 2.07695,-0.60881 3.10132,-0.23723c0.43303,-0.25477 0.93872,-0.39876 1.4777,-0.39347c0.53009,0.0052 1.02511,0.15415 1.44842,0.40945c0.494,-0.38818 1.11852,-0.61715 1.79564,-0.61051c1.39237,0.01367 2.5428,1.0191 2.78699,2.33873c1.53545,1.56294 3.02768,3.49733 3.34121,4.8281c0.54263,2.30319 -1.1681,4.51744 -3.56031,3.89438c-0.5889,-0.1534 -1.41856,-0.93813 -2.25451,-2.00199c-0.2446,0.34953 -0.6143,0.63101 -1.02039,0.95057z" fill="#212121" stroke="none" stroke-width="0.5" stroke-linecap="butt"/><path d="M246.56275,211.42981l4.83389,6.57878" fill="none" stroke="#000000" stroke-width="1.5" stroke-linecap="round"/><path d="M237.24528,212.26117l-6.31466,7.59101" fill="none" stroke="#000000" stroke-width="1.5" stroke-linecap="round"/><g fill="none" stroke="none" stroke-width="1" stroke-linecap="butt" font-family="sans-serif" font-weight="normal" font-size="12" text-anchor="start"/><g fill="none" stroke="none" stroke-width="1" stroke-linecap="butt" font-family="sans-serif" font-weight="normal" font-size="12" text-anchor="start"/></g><g fill="url(#color-1)" stroke="none" stroke-linecap="butt"><path d="M202.33871,230.91858v-64.03226h75.32258v64.03226z" stroke-width="NaN"/><path d="M202.33871,230.91858v-64.03226h75.32258v64.03226z" stroke-width="NaN"/></g><path d="M214.44136,231.07145l-11.94135,-51.51224v-9.82858l14.21977,61.34082zM209.8641,231.07145l-7.36409,-31.767v-9.82858l9.64252,41.59558zM204.84399,231.07145l-2.34399,-10.11141v-9.82858l4.6224,19.93999zM263.28022,231.07145l14.21978,-61.34082v9.82858l-11.94135,51.51224zM267.85749,231.07145l9.64252,-41.59557v9.82858l-7.3641,31.76699zM272.8776,231.07145l4.62241,-19.93998v9.82858l-2.34398,10.1114z" fill="#ffa000" stroke="#ffa000" stroke-width="0" stroke-linecap="butt"/><text transform="translate(218.26407,141.20442) scale(0.34934,0.34934)" font-size="40" xml:space="preserve" fill="#000000" stroke="none" stroke-width="1" stroke-linecap="butt" font-family="Archivo Black" font-weight="normal" text-anchor="start"><tspan x="0" dy="0">CORE</tspan></text><g stroke="none" stroke-width="0" stroke-linecap="butt"><path d="M240,179.9921l28.74102,51.19048h-57.48204z" fill="url(#color-2)"/><path d="M221.10656,202.92029l18.5015,28.19048h-37.00298z" fill="url(#color-3)"/><path d="M258.81147,202.92029l18.5015,28.19048h-37.00298z" fill="url(#color-4)"/></g><text transform="translate(207.42755,225.475) scale(0.34934,0.34934)" font-size="40" xml:space="preserve" fill="#000000" stroke="none" stroke-width="1" stroke-linecap="butt" font-family="Archivo Black" font-weight="normal" text-anchor="start"><tspan x="0" dy="0">REKORD</tspan></text><path d="M201.52627,232.08701v-104.17396h76.94746v104.17396zM277.20173,230.66524v-101.33042h-74.40346v101.33042z" fill="#000000" stroke="none" stroke-width="0" stroke-linecap="butt"/><path d="M196.72664,236.07252v-112.14505h86.54672v112.14505z" fill="none" stroke="none" stroke-width="0" stroke-linecap="butt"/></g></g></svg>