<svg version="1.1" xmlns="http://www.w3.org/2000/svg" xmlns:xlink="http://www.w3.org/1999/xlink" width="62.90429" height="38.62286" viewBox="0,0,62.90429,38.62286"><g transform="translate(-191.39545,-92.41933)"><g fill="#000000" stroke="none" stroke-miterlimit="10"><path d="M232.66775,102.62574c0,6.03625 -2.12754,10.9296 -4.752,10.9296c-2.62446,0 -4.752,-4.89335 -4.752,-10.9296c0,-6.03625 2.32754,-2.72959 4.952,-2.72959c2.62446,0 4.552,-3.30666 4.552,2.72959z" stroke-width="0"/><path d="M254.29974,103.34894c0,6.03625 -2.12754,10.92959 -4.75199,10.92959c-2.62446,0 -4.752,-4.89335 -4.752,-10.92959c0,-6.03625 2.12754,-10.9296 4.752,-10.9296c2.62446,0 4.75199,4.89335 4.75199,10.9296z" stroke-width="0"/><path d="M240.21283,120.65519c0,1.25 -1.25,1.25 -1.25,1.25l-1.01271,-0.01701c-5.35575,0.89263 -10.65566,0.26065 -16.04225,0.26065c0,0 -1.25,0 -1.25,-1.25c0,-1.25 1.25,-1.25 1.25,-1.25c5.24355,0 10.4204,0.64184 15.63125,-0.22664l1.42371,-0.017c0,0 1.25,0 1.25,1.25z" stroke-width="0.5"/><path d="M213.7257,122.94858l-0.44382,0.40949c-0.38525,0.4858 -0.52651,1.2125 -0.39321,1.81801c-0.04008,0.8767 0.229,1.82496 -0.12023,2.6301c-0.76863,1.77208 -3.2998,1.6899 -4.82346,2.07119c-3.66375,0.91684 -7.5153,2.04164 -11.09855,0.08642c-3.29548,-1.7982 -4.56776,-6.00561 -5.4173,-9.39593c0,0 -0.24549,-0.98197 0.58898,-1.39954c0.18005,-0.95363 1.2237,-0.95363 1.2237,-0.95363c6.40705,0 12.86818,0.1248 19.17678,1.01256l1.02322,-0.01256c0,0 1.25,0 1.25,1.25c0,0.65871 -0.34712,0.9703 -0.67551,1.11769c0.34406,0.73153 -0.2906,1.36619 -0.2906,1.36619z" stroke-width="0.5"/></g></g></svg>