<svg version="1.1" xmlns="http://www.w3.org/2000/svg" xmlns:xlink="http://www.w3.org/1999/xlink" width="68.26948" height="74.81947" viewBox="0,0,68.26948,74.81947"><g transform="translate(-205.86526,-142.59027)"><g stroke="none" stroke-miterlimit="10"><g fill="#0aff00"><path d="M266.5776,170.09027c0,15.18783 -10.63323,27.5 -23.75,27.5c-13.11676,0 -23.75,-12.31217 -23.75,-27.5c0,-15.18783 10.63324,-27.5 23.75,-27.5c13.11677,0 23.75,12.31217 23.75,27.5z" stroke-width="NaN"/><path d="M225.03731,196.46621c-7.35352,6.48271 -15.53528,9.21917 -18.27445,6.11204c-2.73917,-3.10712 1.0015,-10.88122 8.35502,-17.36393c7.35352,-6.48271 15.53527,-9.21917 18.27445,-6.11205c2.73917,3.10712 -1.0015,10.88123 -8.35502,17.36394z" stroke-width="0"/><path d="M269.55118,186.05308c4.95012,8.46145 6.06468,17.01639 2.48941,19.108c-3.57527,2.0916 -10.48646,-3.07218 -15.43658,-11.53364c-4.95012,-8.46145 -6.06468,-17.01639 -2.48941,-19.10799c3.57527,-2.0916 10.48646,3.07218 15.43658,11.53363z" stroke-width="0"/><path d="M242.49538,198.44774c-1.44756,9.69559 -5.94208,17.05959 -10.03881,16.44794c-4.09673,-0.61165 -6.24431,-8.96731 -4.79675,-18.6629c1.44756,-9.69559 5.94208,-17.05959 10.03881,-16.44794c4.09673,0.61165 6.24431,8.96731 4.79675,18.6629z" stroke-width="0"/><path d="M258.96409,197.86936c3.88319,9.00115 3.94796,17.62814 0.14465,19.26893c-3.80331,1.64079 -10.03445,-4.32597 -13.91764,-13.32712c-3.88319,-9.00115 -3.94796,-17.62814 -0.14465,-19.26893c3.80331,-1.64079 10.03445,4.32597 13.91764,13.32712z" stroke-width="0"/></g><path d="M240.0776,163.34027c0,-6.2132 5.0368,-11.25 11.25,-11.25c6.2132,0 11.25,5.0368 11.25,11.25c0,6.2132 -5.0368,11.25 -11.25,11.25c-6.2132,0 -11.25,-5.0368 -11.25,-11.25z" fill="#ffffff" stroke-width="0"/><g stroke-width="0"><path d="M248.5776,162.09027c0,-3.58985 2.91015,-6.5 6.5,-6.5c3.58985,0 6.5,2.91015 6.5,6.5c0,3.58985 -2.91015,6.5 -6.5,6.5c-3.58985,0 -6.5,-2.91015 -6.5,-6.5z" fill="#06b300"/><path d="M251.5776,162.09027c0,-1.933 1.567,-3.5 3.5,-3.5c1.933,0 3.5,1.567 3.5,3.5c0,1.933 -1.567,3.5 -3.5,3.5c-1.933,0 -3.5,-1.567 -3.5,-3.5z" fill="#000000"/></g></g></g></svg>