<svg version="1.1" xmlns="http://www.w3.org/2000/svg" xmlns:xlink="http://www.w3.org/1999/xlink" width="63.96114" height="87.93828" viewBox="0,0,63.96114,87.93828"><defs><linearGradient x1="240" y1="138.03086" x2="240" y2="221.96914" gradientUnits="userSpaceOnUse" id="color-1"><stop offset="0" stop-color="#873f3f"/><stop offset="1" stop-color="#290606"/></linearGradient><linearGradient x1="240" y1="138.03086" x2="240" y2="221.96914" gradientUnits="userSpaceOnUse" id="color-2"><stop offset="0" stop-color="#ff0000"/><stop offset="1" stop-color="#660000"/></linearGradient></defs><g transform="translate(-208.01943,-136.03086)"><g stroke-miterlimit="10"><path d="M213.01943,221.96914c-1.65685,0 -3,-1.34315 -3,-3v-77.93828c0,-1.65685 1.34315,-3 3,-3h53.96114c1.65685,0 3,1.34315 3,3v77.93828c0,1.65685 -1.34315,3 -3,3z" fill="#9763ff" stroke="#000000" stroke-width="4"/><path d="M213.01943,221.96914c-1.65685,0 -3,-1.34315 -3,-3v-77.93828c0,-1.65685 1.34315,-3 3,-3h53.96114c1.65685,0 3,1.34315 3,3v77.93828c0,1.65685 -1.34315,3 -3,3z" fill="url(#color-1)" stroke="none" stroke-width="0"/><g stroke="#000000" stroke-width="2.5"><path d="M219.00644,192.90737v-26.21556h10.92314v26.21556z" fill="#ff0000"/><path d="M259.13614,210.36166c0,7.64141 -2.77656,6.43001 -5.994,6.43001c-3.21743,0 -5.65736,1.2114 -5.65736,-6.43001c0,-3.97629 -0.94495,-10.26279 0.18588,-12.78658c1.04233,-2.32629 4.09659,-1.64984 5.6398,-1.64984c1.59153,0 4.38499,-0.886 5.43644,1.57082c1.07416,2.50987 0.38924,9.00409 0.38924,12.8656z" fill="#ff0000"/><path d="M234.18357,213.07482c-3.05642,7.00353 -5.11667,4.78268 -8.06552,3.49576c-2.94885,-1.28691 -5.66964,-1.15256 -2.61321,-8.15609c1.59045,-3.64436 3.23886,-9.78404 5.28476,-11.64485c1.8858,-1.71518 4.41453,0.12644 5.82891,0.7437c1.45868,0.63659 4.37333,0.94187 4.35433,3.61417c-0.01942,2.73 -3.24473,8.40815 -4.78926,11.94731z" fill="#ff0000"/><path d="M256.87336,183.78795c0,18.28987 -7.61829,15.63111 -16.56677,15.63111c-8.94849,0 -15.83856,2.65877 -15.83856,-15.63111c0,-18.28987 7.25418,-33.11675 16.20267,-33.11675c8.94849,0 16.20267,14.82688 16.20267,33.11675z" fill="#ff0000"/><path d="M239.39632,172.5175v-8.37442c0,0 4.61814,-4.97976 7.09677,-4.97976c2.49734,0 7.83153,4.97976 7.83153,4.97976v8.37442c0,0 -4.45374,-3.42358 -6.89783,-3.42358c-2.5291,0 -8.03047,3.42358 -8.03047,3.42358z" fill="#00ffe5"/></g><path d="M213.01943,221.96914c-1.65685,0 -3,-1.34315 -3,-3v-77.93828c0,-1.65685 1.34315,-3 3,-3h53.96114c1.65685,0 3,1.34315 3,3v77.93828c0,1.65685 -1.34315,3 -3,3zM263.23302,197.97227c1.38071,0 2.5,-1.11929 2.5,-2.5v-48.59004c0,-1.38071 -1.11929,-2.5 -2.5,-2.5h-46.46605c-1.38071,0 -2.5,1.11929 -2.5,2.5v48.59004c0,1.38071 1.11929,2.5 2.5,2.5z" fill="url(#color-2)" stroke="none" stroke-width="0"/><path d="M213.09723,218.72632l2.51526,-2.51526l2.51526,2.51526l-2.51526,2.51526z" fill="#000000" stroke="none" stroke-width="0"/><text transform="translate(214.5139,143.14162) scale(0.13917,0.13917)" font-size="40" xml:space="preserve" fill="#000000" stroke="none" stroke-width="1" font-family="Sans Serif" font-weight="normal" text-anchor="start"><tspan x="0" dy="0">Simon</tspan></text><text transform="translate(213.87227,203.13362) scale(0.11215,0.11215)" font-size="40" xml:space="preserve" fill="#000000" stroke="none" stroke-width="1" font-family="Sans Serif" font-weight="normal" text-anchor="start"><tspan x="0" dy="0">The poor crewmate</tspan><tspan x="0" dy="48px">being attacked by many</tspan><tspan x="0" dy="48px">imposters</tspan></text><text transform="translate(218.94522,220.40272) scale(0.0984,0.0984)" font-size="40" xml:space="preserve" fill="#000000" stroke="none" stroke-width="1" font-family="Sans Serif" font-weight="normal" text-anchor="start"><tspan x="0" dy="0">0/0</tspan></text><text transform="translate(239.57666,220.8475) scale(0.09461,0.09461)" font-size="40" xml:space="preserve" fill="#000000" stroke="none" stroke-width="1" font-family="Sans Serif" font-weight="normal" text-anchor="start"><tspan x="0" dy="0">Core Collection</tspan></text></g></g></svg>