<svg version="1.1" xmlns="http://www.w3.org/2000/svg" xmlns:xlink="http://www.w3.org/1999/xlink" width="63.96114" height="87.93828" viewBox="0,0,63.96114,87.93828"><defs><linearGradient x1="240" y1="138.03086" x2="240" y2="221.96914" gradientUnits="userSpaceOnUse" id="color-1"><stop offset="0" stop-color="#e2a820"/><stop offset="1" stop-color="#cc741d"/></linearGradient><linearGradient x1="240" y1="169.94463" x2="240" y2="221.96914" gradientUnits="userSpaceOnUse" id="color-2"><stop offset="0" stop-color="#cc741d" stop-opacity="0"/><stop offset="1" stop-color="#cc741d"/></linearGradient><linearGradient x1="240" y1="169.94463" x2="240" y2="221.96914" gradientUnits="userSpaceOnUse" id="color-3"><stop offset="0" stop-color="#cc741d" stop-opacity="0"/><stop offset="1" stop-color="#cc741d"/></linearGradient><linearGradient x1="240" y1="169.94463" x2="240" y2="221.96914" gradientUnits="userSpaceOnUse" id="color-4"><stop offset="0" stop-color="#cc741d" stop-opacity="0"/><stop offset="1" stop-color="#cc741d"/></linearGradient><linearGradient x1="240" y1="168.65847" x2="240" y2="220.68298" gradientUnits="userSpaceOnUse" id="color-5"><stop offset="0" stop-color="#cc741d" stop-opacity="0"/><stop offset="1" stop-color="#cc741d"/></linearGradient><linearGradient x1="240" y1="168.65847" x2="240" y2="220.68298" gradientUnits="userSpaceOnUse" id="color-6"><stop offset="0" stop-color="#cc741d" stop-opacity="0"/><stop offset="1" stop-color="#cc741d"/></linearGradient></defs><g transform="translate(-208.01943,-136.03086)"><g stroke-miterlimit="10"><path d="M213.01943,221.96914c-1.65685,0 -3,-1.34315 -3,-3v-77.93828c0,-1.65685 1.34315,-3 3,-3h53.96114c1.65685,0 3,1.34315 3,3v77.93828c0,1.65685 -1.34315,3 -3,3z" fill="#9763ff" stroke="#000000" stroke-width="4" stroke-linecap="butt"/><path d="M213.01943,221.96914c-1.65685,0 -3,-1.34315 -3,-3v-77.93828c0,-1.65685 1.34315,-3 3,-3h53.96114c1.65685,0 3,1.34315 3,3v77.93828c0,1.65685 -1.34315,3 -3,3z" fill="url(#color-1)" stroke="#000000" stroke-width="0" stroke-linecap="butt"/><g><path d="M226.12602,169.90631c0.07227,-0.01226 0.14409,-0.01737 0.21475,-0.01585c0.03906,-0.50827 0.1466,-1.00202 0.31472,-1.47014c0.02441,-0.11366 0.05842,-0.22494 0.10556,-0.33305c0.03546,-0.08133 0.07318,-0.16253 0.11311,-0.24326c0.00085,-0.00316 0.0017,-0.00633 0.00256,-0.00949c-0.38907,-2.90989 1.5191,-5.63307 4.37497,-6.26882c0.27422,-0.15777 0.56036,-0.29847 0.85851,-0.42025c1.21343,-0.49561 2.51096,-0.57254 3.78693,-0.36865c2.15816,-0.2622 4.2052,0.73604 5.36325,2.44245c0.00153,0.00119 0.00306,0.00236 0.00458,0.00354c2.26397,1.75579 2.54206,4.71987 3.08726,7.29498c0.33778,1.59542 0.75776,3.18571 0.83579,4.82529c0.03122,0.65603 0.05216,1.33758 0.0025,2.01035c0.21164,0.31932 0.36148,0.68706 0.42965,1.08908c0.07304,0.43074 0.0446,0.85523 -0.06798,1.24901c0.23755,1.16779 0.35957,2.40051 0.51037,3.58793c0.26274,0.34941 0.44815,0.76511 0.52628,1.22584c0.07625,0.44964 0.0419,0.89248 -0.0833,1.30067c0.03214,0.12461 0.06616,0.24745 0.10232,0.36836c0.5727,1.91586 1.15533,3.97445 1.10115,5.98819c-0.0046,0.17089 -0.00632,0.34367 -0.01133,0.51599c0.13644,0.15324 0.23288,0.34543 0.26972,0.56265c0.09928,0.58545 -0.27018,1.14204 -0.83576,1.2858c-0.06007,0.06525 -0.1266,0.12825 -0.2003,0.18874c-0.99337,0.81508 -2.4857,1.02856 -3.54884,0.35509c-0.60955,0.09348 -1.1835,-0.31925 -1.28698,-0.92947c-0.03369,-0.19865 -0.0134,-0.39399 0.0502,-0.57099c-0.21056,-0.3186 -0.35966,-0.68526 -0.42762,-1.08599c-0.05233,-0.30856 -0.05256,-0.61393 -0.0071,-0.9071c-0.13957,-0.26178 -0.24002,-0.55015 -0.29235,-0.85872c-0.07244,-0.4272 -0.04505,-0.84827 0.06523,-1.23931c-0.0205,-0.0483 -0.03973,-0.09737 -0.05765,-0.14716c-0.13986,-0.26206 -0.2405,-0.55079 -0.2929,-0.85978c-0.05556,-0.32763 -0.0524,-0.65165 0.00184,-0.96129c-0.04933,-0.14328 -0.0933,-0.28607 -0.12243,-0.42755c-0.2339,-1.13634 -0.29768,-2.21221 -0.46513,-3.32007c-0.28831,-0.05603 -0.562,-0.12678 -0.86367,-0.0864c-0.12648,0.01692 -0.2498,0.03453 -0.3703,0.05266c-0.4235,0.18809 -0.87717,0.32685 -1.35506,0.40789c-0.40846,0.06927 -0.81411,0.0929 -1.21173,0.0746c-0.31057,0.05928 -0.62003,0.11334 -0.93945,0.15792c0.08808,0.96408 -0.08111,1.9433 0.08165,2.92864c0.3832,2.32003 0.88336,4.62234 1.17944,6.95508c0.10893,0.85821 -0.07935,1.64534 -0.53079,2.2372c-0.10425,0.00469 -0.20726,0.00767 -0.3062,0.00255c-0.52064,-0.02696 -1.06398,0.61721 -1.46295,0.64384c-0.45827,0.03059 -1.13935,-0.00129 -1.63963,0.21483c-0.20614,-0.08785 -0.39733,-0.20158 -0.57165,-0.33839c-0.07595,-0.02146 -0.15077,-0.04607 -0.22428,-0.07367c-0.5444,0.04324 -1.044,-0.31149 -1.18266,-0.83971c-0.30952,-0.37113 -0.52799,-0.82656 -0.61461,-1.33736c-0.09715,-0.57288 -0.01476,-1.13473 0.20629,-1.62795c-0.67844,-3.03622 -1.30944,-6.71551 -1.76594,-9.93834c-0.01363,-0.09622 -0.02859,-0.20346 -0.04369,-0.31953c-0.30171,0.18484 -0.68183,0.3237 -1.15796,0.40444c-0.4413,0.07484 -0.82891,0.06207 -1.1702,-0.02274c-0.16785,0.22412 -0.41865,0.38673 -0.71652,0.43724c-0.61622,0.1045 -1.2005,-0.31033 -1.305,-0.92657c-0.02889,-0.17039 -0.01809,-0.33832 0.0257,-0.49434c-0.01854,-0.05527 -0.03303,-0.1127 -0.04308,-0.17199c-0.0476,-0.28068 0.01255,-0.55474 0.15039,-0.77984c-0.45572,-1.12143 -0.65256,-2.53807 -0.81504,-3.77567c-0.17382,-0.40497 -0.30278,-0.83686 -0.37972,-1.29058c-0.07986,-0.47093 -0.09905,-0.93811 -0.06328,-1.39358c-0.03093,-0.19404 -0.05884,-0.40019 -0.07927,-0.61173c-0.01242,-0.05399 -0.02336,-0.10866 -0.03274,-0.16399c-0.04092,-0.2413 -0.04998,-0.48065 -0.03026,-0.71373c-0.17518,-0.16338 -0.3001,-0.38346 -0.34324,-0.63787c-0.02812,-0.16583 -0.01864,-0.32935 0.02226,-0.48183c-0.08888,-0.13047 -0.15175,-0.28171 -0.17987,-0.44755c-0.1045,-0.61622 0.31034,-1.2005 0.92658,-1.30501c0.24811,-0.04207 0.49105,0.00004 0.69957,0.1056c0.08191,-0.03546 0.16938,-0.06174 0.26132,-0.07733c0.13034,-0.0221 0.25926,-0.02097 0.38251,0.00038c0.08354,-0.04646 0.1741,-0.08286 0.27032,-0.10731c0.16535,-0.26497 0.43898,-0.46067 0.77113,-0.51699zM232.57068,170.87095c-0.38826,0.86938 1.12697,2.38724 1.9273,2.49145c0.35509,0.04623 0.71512,0.12277 1.07136,0.09834c0.42884,0.21171 1.52142,0.20467 1.7197,0.19336c0.95765,-0.05463 2.1184,-0.14337 2.91346,-0.75573c0.27098,-0.08001 0.5336,-0.18173 0.7565,-0.3448c0.08702,-0.06367 0.17365,-0.13437 0.25902,-0.21123c1.21453,-0.58305 2.04497,-1.51258 1.78636,-3.0376c-0.06855,-0.40426 -0.23233,-0.81026 -0.49243,-1.12725c-0.08103,-0.09875 -0.21973,-0.11149 -0.35383,-0.13477c-0.00356,-0.08378 -0.01852,-0.16088 -0.07599,-0.21466c-0.30466,-0.28508 -0.67752,-0.51686 -1.07666,-0.63844c-0.23965,-0.073 -0.54092,-0.07775 -0.82456,-0.07689c-0.61656,-0.15361 -1.32409,-0.09872 -1.86465,-0.13649c-1.01724,-0.07107 -2.85844,0.14502 -3.80334,0.83632c-0.26442,0.19345 -0.46875,0.41982 -0.61916,0.66722c-0.21371,0.06234 -0.42332,0.13061 -0.55587,0.29692c-0.10949,0.13738 -0.1826,0.29513 -0.23955,0.46197c-0.31415,0.40928 -0.48849,0.92436 -0.46683,1.46617z" fill="#aaaaaa" stroke="none" stroke-width="0.5" stroke-linecap="butt"/><g fill="#7b7b7b" stroke="none" stroke-width="0.5" stroke-linecap="butt"><path d="M248.42587,193.19341c0.09461,0.55789 -0.46328,0.65249 -0.46328,0.65249l-0.38606,0.03601c-0.1638,0.08678 -0.32759,0.17354 -0.49138,0.26031c-0.92748,0.66837 -1.97777,0.89814 -3.10148,1.04769c-0.29959,0.03987 -0.61545,0.19358 -0.90157,0.09624c-0.32702,-0.11126 -0.60287,-0.3807 -0.78927,-0.67152c-0.1525,-0.2379 -0.11996,-0.55235 -0.17309,-0.82988c-0.12963,-0.67713 -0.17808,-1.32644 -0.24333,-2.00723c-0.06298,-0.6571 -0.27056,-1.30059 -0.33156,-1.95823c-0.07716,-0.83184 -0.09094,-1.66816 -0.23374,-2.49449c0,0 -0.09461,-0.55789 0.46328,-0.65249c0.55789,-0.09461 0.65249,0.46328 0.65249,0.46328c0.28411,1.70364 0.42828,3.4768 0.59331,5.19862c0.04069,0.42458 0.15589,0.83897 0.21534,1.26133c0.02898,0.20587 -0.0485,0.6 0.15938,0.60301c0.95956,0.01383 2.32394,-0.44565 3.08845,-1.01475c0.18694,-0.10019 0.37388,-0.20037 0.56083,-0.30056l0.72919,-0.15311c0,0 0.55789,-0.09461 0.65249,0.46328z"/><path d="M237.7696,195.19171c0.09461,0.55789 -0.46328,0.65249 -0.46328,0.65249l0.07863,-0.04279c-1.19717,0.63398 -2.51873,0.75046 -3.84177,0.96777c-0.47666,0.07829 -1.18652,0.27602 -1.64756,-0.06493c-0.06485,0.04646 -0.14913,0.08279 -0.25847,0.10133c-0.55789,0.09461 -0.65249,-0.46328 -0.65249,-0.46328l-0.04728,-0.27881c-0.0811,-0.48748 -0.41032,-0.97919 -0.28001,-1.45589c0.05902,-0.21592 0.42559,-0.21734 0.52611,-0.41735c0.0557,-0.11082 -0.11316,-0.22297 -0.1439,-0.34313c-0.10904,-0.42617 -0.1471,-0.86742 -0.22064,-1.30111c-0.19604,-1.17547 -0.03791,-2.52546 -0.42218,-3.66087c-0.32397,-0.95725 -0.64679,-1.93068 -0.96901,-2.89519c-0.19382,-0.58014 -0.52118,-1.38973 -0.53139,-2.00595c-0.00421,-0.25394 0.03947,-0.51062 0.11443,-0.75328c0.05506,-0.17826 0.46006,-0.55556 0.29002,-0.47874c-0.10507,0.04748 -0.20434,0.10687 -0.3065,0.16031c0,0 -0.06633,0.01125 -0.15714,0.00312l-0.02277,0.14875c-0.22448,0.07138 -0.44895,0.14276 -0.67344,0.21413c-0.72115,0.12172 -2.24441,0.93381 -2.89905,0.38572c-0.40871,-0.34219 -0.38969,-1.73196 -0.51622,-2.25056c-0.56783,-2.32727 -1.19125,-4.68579 -1.19809,-7.10261c0,0 -0.00161,-0.56585 0.56425,-0.56746c0.56585,-0.0016 0.56746,0.56425 0.56746,0.56425c0.00659,2.32629 0.61953,4.59808 1.16594,6.83799c0.10743,0.44036 0.21593,0.88735 0.22876,1.34043c0.00306,0.10769 -0.1046,0.20682 -0.08304,0.31237c0.01172,0.05741 0.0676,-0.10309 0.12073,-0.12778c0.17335,-0.08056 0.36301,-0.11997 0.54411,-0.18117c0.40286,-0.13614 0.81811,-0.23933 1.23732,-0.31074c0.03515,-0.01134 0.07031,-0.02268 0.10546,-0.03403c0.03476,-0.08385 0.09825,-0.16838 0.20468,-0.24625c0.21239,-0.15539 0.39826,-0.13973 0.53636,-0.07852c0.0507,-0.01752 0.08547,-0.02342 0.08547,-0.02342c0.92296,-0.05599 1.37319,-0.37982 1.59112,0.95395c0.06878,0.42096 -0.37379,0.799 -0.36818,1.2255c0.00466,0.35365 0.24899,0.66228 0.36046,0.99794c0.18671,0.56223 0.44308,1.18026 0.59091,1.76097c0.10491,0.4121 0.07166,0.85588 0.20799,1.25867c0.22649,0.66923 0.46114,1.22659 0.52934,1.9617c0.07443,0.80218 0.08019,1.60422 0.21798,2.40155c0.08515,0.50213 0.3922,1.48361 0.33512,2.06658c0.22841,0.12893 0.27628,0.41121 0.27628,0.41121c0.03677,0.21685 0.09705,0.43101 0.11032,0.65056c0.00696,0.11509 -0.10254,0.23943 -0.0503,0.34222c0.03036,0.05973 0.12259,-0.05639 0.18786,-0.07158c0.18481,-0.04298 0.37309,-0.06954 0.55997,-0.10237c1.19268,-0.20956 2.42028,-0.2715 3.49865,-0.85068l0.2645,-0.0743c0,0 0.55789,-0.09461 0.65249,0.46328z"/></g><g fill="none" stroke="#000000" stroke-width="1.5" stroke-linecap="round"><g><path d="M240.30069,183.77354l-4.7398,0.80377l1.89123,11.15247c0,0 -1.89652,0.99088 -2.88243,1.15807c-1.02611,0.17401 -3.15848,-0.13366 -3.15848,-0.13366l-2.75804,-16.26402"/><path d="M245.56837,177.62226l2.75805,16.26403c0,0 -1.89837,1.0868 -2.8672,1.2511c-1.03978,0.17632 -3.17371,-0.22668 -3.17371,-0.22668l-1.89123,-11.15248l-4.73981,0.80377"/></g><path d="M228.62788,180.46806l-1.93851,-11.43128c0,0 0.01665,-3.63275 1.90024,-5.91597c1.22461,-1.48441 4.15233,-1.89101 5.25518,-2.09141c1.10637,-0.20104 3.63688,-0.96467 5.33246,-0.02416c2.6418,1.46537 4.40116,4.96271 4.40116,4.96271l1.98579,11.7101"/><path d="M228.96103,183.16917l-3.90337,0.66193l-2.2222,-13.10417l4.08925,-0.69345"/></g><g stroke-linecap="butt"><path d="M243.46536,169.32395c0.33076,1.95045 -1.85606,3.94793 -4.88441,4.46147c-3.02835,0.51355 -5.75144,-0.65131 -6.0822,-2.60176c-0.33076,-1.95045 1.85606,-3.94792 4.88442,-4.46147c3.02835,-0.51355 5.75143,0.65131 6.08219,2.60176z" fill="#d2d2d2" stroke="#000000" stroke-width="1.5"/><path d="M242.13724,169.81813c-0.65518,0.92277 -1.57795,0.26759 -1.57795,0.26759l-0.00066,-0.0717c-0.98998,-0.30491 -1.58831,-0.50335 -2.62852,-0.5004c0,0 -1.13171,0.0032 -1.13491,-1.12851c-0.00321,-1.1317 1.12851,-1.13491 1.12851,-1.13491c0.68822,-0.00194 1.38661,-0.05897 2.05936,0.13432c0.42272,0.12145 0.81384,0.33778 1.23507,0.46428l0.65152,0.39137c0,0 0.92277,0.65518 0.26759,1.57795z" fill="#ffffff" stroke="none" stroke-width="0.5"/></g></g><path d="M212.51943,221.96914c-1.38071,0 -2.5,-1.11929 -2.5,-2.5v-47.02451c0,-1.38071 1.11929,-2.5 2.5,-2.5h54.96114c1.38071,0 2.5,1.11929 2.5,2.5v47.02451c0,1.38071 -1.11929,2.5 -2.5,2.5z" fill="url(#color-2)" stroke="none" stroke-width="0" stroke-linecap="butt"/><path d="M212.51943,221.96914c-1.38071,0 -2.5,-1.11929 -2.5,-2.5v-47.02451c0,-1.38071 1.11929,-2.5 2.5,-2.5h54.96114c1.38071,0 2.5,1.11929 2.5,2.5v47.02451c0,1.38071 -1.11929,2.5 -2.5,2.5z" fill="url(#color-3)" stroke="none" stroke-width="0" stroke-linecap="butt"/><path d="M212.51943,221.96914c-1.38071,0 -2.5,-1.11929 -2.5,-2.5v-47.02451c0,-1.38071 1.11929,-2.5 2.5,-2.5h54.96114c1.38071,0 2.5,1.11929 2.5,2.5v47.02451c0,1.38071 -1.11929,2.5 -2.5,2.5z" fill="url(#color-4)" stroke="none" stroke-width="0" stroke-linecap="butt"/><g stroke="none" stroke-linecap="butt"><path d="M212.51943,220.68298c-1.38071,0 -2.5,-1.11929 -2.5,-2.5v-47.02451c0,-1.38071 1.11929,-2.5 2.5,-2.5h54.96114c1.38071,0 2.5,1.11929 2.5,2.5v47.02451c0,1.38071 -1.11929,2.5 -2.5,2.5z" fill="url(#color-5)" stroke-width="0"/><path d="M242.84149,222.29773l27.3738,-34.37208v4.78895l-23.5599,29.58313zM252.69006,222.29773l17.52524,-22.00568v4.78895l-13.71134,17.21672zM261.74237,222.29773l8.47293,-10.63908v4.78895l-4.65902,5.85014zM209.7847,148.40736l8.5255,-10.70509h3.8139l-12.3394,15.49405zM209.7847,160.77377l18.37406,-23.0715h3.81391l-22.18797,27.86046z" fill="#000000" stroke-width="NaN"/></g><g stroke="none" stroke-linecap="butt"><path d="M212.51943,220.68298c-1.38071,0 -2.5,-1.11929 -2.5,-2.5v-47.02451c0,-1.38071 1.11929,-2.5 2.5,-2.5h54.96114c1.38071,0 2.5,1.11929 2.5,2.5v47.02451c0,1.38071 -1.11929,2.5 -2.5,2.5z" fill="url(#color-6)" stroke-width="0"/><path d="M242.84149,222.29773l27.3738,-34.37208v4.78895l-23.5599,29.58313zM252.69006,222.29773l17.52524,-22.00568v4.78895l-13.71134,17.21672zM261.74237,222.29773l8.47293,-10.63908v4.78895l-4.65902,5.85014zM209.7847,148.40736l8.5255,-10.70509h3.8139l-12.3394,15.49405zM209.7847,160.77377l18.37406,-23.0715h3.81391l-22.18797,27.86046z" fill="#000000" stroke-width="NaN"/></g><path d="M214.07078,221.72212l0.26613,-1.63154l-1.12736,-1.15546l1.55798,-0.23804l0.69675,-1.48442l0.69675,1.48442l1.55798,0.23804l-1.12736,1.15546l0.26613,1.63154l-1.3935,-0.77031z" fill="#000000" stroke="none" stroke-width="0" stroke-linecap="butt"/><path d="M219.24056,221.72212l0.26613,-1.63154l-1.12736,-1.15546l1.55798,-0.23804l0.69675,-1.48442l0.69675,1.48442l1.55798,0.23804l-1.12737,1.15546l0.26614,1.63154l-1.3935,-0.77031z" fill="#000000" stroke="none" stroke-width="0" stroke-linecap="butt"/><path d="M224.45301,221.72212l0.26613,-1.63154l-1.12736,-1.15546l1.55798,-0.23804l0.69675,-1.48442l0.69675,1.48442l1.55798,0.23804l-1.12737,1.15546l0.26614,1.63154l-1.3935,-0.77031z" fill="#000000" stroke="none" stroke-width="0" stroke-linecap="butt"/><path d="M229.65681,221.76306l0.26613,-1.63154l-1.12736,-1.15546l1.55798,-0.23804l0.69675,-1.48442l0.69675,1.48442l1.55798,0.23804l-1.12737,1.15546l0.26614,1.63154l-1.3935,-0.77031z" fill="#000000" stroke="none" stroke-width="0" stroke-linecap="butt"/><text transform="translate(240.71404,141.71091) scale(0.09461,0.09461)" font-size="40" xml:space="preserve" fill="#000000" stroke="none" stroke-width="1" stroke-linecap="butt" font-family="Sans Serif" font-weight="normal" text-anchor="start"><tspan x="0" dy="0">Core Collection</tspan></text><text transform="translate(234.28388,221.37117) scale(0.0984,0.0984)" font-size="40" xml:space="preserve" fill="#000000" stroke="none" stroke-width="1" stroke-linecap="butt" font-family="Sans Serif" font-weight="normal" text-anchor="start"><tspan x="0" dy="0">25/27</tspan></text><text transform="translate(211.66037,206.84941) rotate(-8.44038) scale(0.27575,0.27575)" font-size="40" xml:space="preserve" fill="#481500" stroke="none" stroke-width="1" stroke-linecap="butt" font-family="Marker" font-weight="normal" text-anchor="start"><tspan x="0" dy="0">Crewmate</tspan></text><text transform="translate(221.14313,195.64251) rotate(-8.44056) scale(0.27575,0.27575)" font-size="40" xml:space="preserve" fill="#481500" stroke="none" stroke-width="1" stroke-linecap="butt" font-family="Marker" font-weight="normal" text-anchor="start"><tspan x="0" dy="0">Tiny</tspan></text></g></g></svg>