<svg version="1.1" xmlns="http://www.w3.org/2000/svg" xmlns:xlink="http://www.w3.org/1999/xlink" width="51.62681" height="147.17847" viewBox="0,0,51.62681,147.17847"><g transform="translate(-214.12319,-106.41077)"><g stroke="#000000" stroke-width="2.5" stroke-miterlimit="10"><path d="M239,191.33922c6.9036,0 12.5,12.9837 12.5,29c0,16.0162 -5.5964,29 -12.5,29c-6.9036,0 -12.5,-12.9838 -12.5,-29c0,-16.0163 5.5964,-29 12.5,-29z" fill="#d8d8d8" stroke-linecap="butt"/><path d="M246.5,232.33923c9.9411,0 18,4.4771 18,10c0,5.5228 -8.0589,10 -18,10c-9.9411,0 -18,-4.4772 -18,-10c0,-5.5229 8.0589,-10 18,-10z" fill="#000000" stroke-linecap="butt"/><path d="M238,148.33922c8.5604,0 15.5,13.6553 15.5,30.5c0,16.8447 -6.9396,30.5 -15.5,30.5c-8.5604,0 -15.5,-13.6553 -15.5,-30.5c0,-16.8447 6.9396,-30.5 15.5,-30.5z" fill="#d8d8d8" stroke-linecap="butt"/><path d="M238.5,113.33922c10.4934,0 19,9.1781 19,20.5c0,11.3218 -8.5066,20.5 -19,20.5c-10.4934,0 -19,-9.1782 -19,-20.5c0,-11.3219 8.5066,-20.5 19,-20.5z" fill="#ffc400" stroke-linecap="butt"/><path d="M245.8466,179.43263c-1.0588,12.104 -5.9313,21.5652 -10.8829,21.132c-4.9517,-0.4331 -8.1074,-10.5965 -7.0486,-22.7006c1.0588,-12.104 5.9313,-21.5652 10.8829,-21.132c4.9517,0.4331 8.1075,10.5966 7.0486,22.7006z" fill="#d2d2d2" stroke-linecap="butt"/><path d="M242.8289,196.67173c-2.1998,4.2717 -6.9685,6.1971 -10.6509,4.3007c-3.6825,-1.8965 -4.8844,-6.8968 -2.6845,-11.1685c2.1999,-4.2716 6.9685,-6.1971 10.651,-4.3007c3.6825,1.8965 4.8844,6.8968 2.6844,11.1685z" fill="#ffc400" stroke-linecap="butt"/><path d="M250.5,131.54923c6.9036,0 12.5,7.0515 12.5,15.75c0,8.6984 -5.5964,15.75 -12.5,15.75c-6.9036,0 -12.5,-7.0516 -12.5,-15.75c0,-8.6985 5.5964,-15.75 12.5,-15.75z" fill="#ffffff" stroke-linecap="butt"/><path d="M230.0646,109.21082c7.4354,-2.9742 15.001,-1.54 16.8983,3.2032c1.8973,4.7433 -2.5922,10.9994 -10.0275,13.9736c-7.4354,2.9741 -15.001,1.54 -16.8983,-3.2033c-1.8973,-4.7432 2.5922,-10.9994 10.0275,-13.9735z" fill="#ffffff" stroke-linecap="butt"/><path d="M242.5,134.04923c-3.3137,0 -6,-2.6863 -6,-6c0,-3.3137 2.6863,-6 6,-6c3.3137,0 6,2.6863 6,6c0,3.3137 -2.6863,6 -6,6z" fill="none" stroke-linecap="butt"/><path d="M254.3,131.84923c-3.3137,0 -6,-2.6863 -6,-6c0,-3.3137 2.6863,-6 6,-6c3.3137,0 6,2.6863 6,6c0,3.3137 -2.6863,6 -6,6z" fill="none" stroke-linecap="butt"/><path d="M216.1,133.04923l-0.6,-6.2h21" fill="none" stroke-linecap="round"/><path d="M244.5,125.24923v4.6" fill="none" stroke-linecap="round"/><path d="M254.1,129.04923v-5" fill="none" stroke-linecap="round"/></g></g></svg>