<svg viewBox="0,0,55.98613,55.33391" height="55.33391" width="55.98613" xmlns:xlink="http://www.w3.org/1999/xlink" xmlns="http://www.w3.org/2000/svg" version="1.1"><defs><linearGradient id="color-1" gradientUnits="userSpaceOnUse" y2="174.68171" x2="246.07338" y1="163.72108" x1="243.90193"><stop stop-color="#4d0082" offset="0"></stop><stop stop-color="#0052ff" offset="1"></stop></linearGradient><linearGradient id="color-2" gradientUnits="userSpaceOnUse" y2="174.68171" x2="246.07338" y1="163.72108" x1="243.90193"><stop stop-color="#0052ff" offset="0"></stop><stop stop-color="#540082" offset="1"></stop></linearGradient><linearGradient id="color-3" gradientUnits="userSpaceOnUse" y2="184.80437" x2="246.33304" y1="195.765" x1="244.16159"><stop stop-color="#4d0082" offset="0"></stop><stop stop-color="#0052ff" offset="1"></stop></linearGradient><linearGradient id="color-4" gradientUnits="userSpaceOnUse" y2="184.80437" x2="246.33304" y1="195.765" x1="244.16159"><stop stop-color="#0052ff" offset="0"></stop><stop stop-color="#540082" offset="1"></stop></linearGradient></defs><g transform="translate(-212.33305,-152.33305)"><g style="mix-blend-mode: normal" stroke-dashoffset="0" stroke-dasharray="" stroke-miterlimit="10" stroke-linejoin="miter" fill-rule="nonzero" data-paper-data="{&quot;isPaintingLayer&quot;:true}"><path stroke-linecap="butt" stroke-width="3.5" stroke="#747474" fill="#8a8a8a" d="M214.08305,180.00001c0,-14.31354 11.60342,-25.91695 25.91695,-25.91695c14.31354,0 25.91695,11.60342 25.91695,25.91695c0,14.31354 -11.60342,25.91695 -25.91695,25.91695c-14.31354,0 -25.91695,-11.60342 -25.91695,-25.91695z"></path><path stroke-linecap="round" stroke-width="3.5" stroke="#747474" fill="none" d="M245.00897,180.88176h20.8894"></path><path stroke-linecap="round" stroke-width="3.5" stroke="#909090" fill="none" d="M255.73596,172.1308c0,0 1.41145,5.43433 1.41145,9.59783c0,4.21055 -1.69374,7.9041 -1.69374,7.9041"></path><path stroke-linecap="butt" stroke-width="3.5" stroke="#1d1d1d" fill="#212121" d="M266.56918,179.94081c0,11.44334 -8.97516,21.30533 -11.23797,21.30533c-1.57319,0 -0.50624,-4.54053 0.29021,-11.15361c0.34913,-2.89887 -6.46423,-6.19598 -6.46423,-9.68346c0,-3.49622 6.92114,-6.80113 6.72265,-9.70526c-0.45118,-6.60125 -0.94948,-11.13181 0.62199,-11.13181c2.26281,0 10.06735,8.92548 10.06735,20.36882z"></path><path stroke-linecap="butt" stroke-width="1.5" stroke="url(#color-2)" fill="url(#color-1)" d="M243.07785,169.57975c-0.59963,-3.02669 -0.23067,-5.64971 0.82408,-5.85867c1.05476,-0.20896 2.3959,2.07526 2.99553,5.10196c0.59963,3.02669 0.23067,5.64971 -0.82408,5.85867c-1.05476,0.20896 -2.3959,-2.07526 -2.99553,-5.10196z"></path><path stroke-linecap="butt" stroke-width="1.5" stroke="url(#color-4)" fill="url(#color-3)" data-paper-data="{&quot;index&quot;:null}" d="M246.33304,184.80437c1.05476,0.20896 1.42371,2.83198 0.82408,5.85867c-0.59963,3.02669 -1.94078,5.31092 -2.99553,5.10196c-1.05476,-0.20896 -1.42371,-2.83198 -0.82408,-5.85867c0.59963,-3.02669 1.94077,-5.31091 2.99552,-5.10196z"></path><path stroke-linecap="butt" stroke-width="3.5" stroke="#313131" fill="#404040" d="M214.08305,180c0,-14.31354 11.60342,-25.91695 25.91695,-25.91695c4.38278,0 -2.01719,15.6476 -2.01719,25.57835c0,10.46263 5.8681,26.25555 2.01719,26.25555c-14.31354,0 -25.91695,-11.60342 -25.91695,-25.91695z"></path></g></g></svg>