<svg viewBox="0,0,76.5375,77.00473" height="77.00473" width="76.5375" xmlns:xlink="http://www.w3.org/1999/xlink" xmlns="http://www.w3.org/2000/svg" version="1.1"><g transform="translate(-201.73125,-141.73125)"><g style="mix-blend-mode: normal" stroke-dashoffset="0" stroke-dasharray="" stroke-miterlimit="10" stroke-linejoin="miter" fill-rule="nonzero" data-paper-data="{&quot;isPaintingLayer&quot;:true}"><path stroke-linecap="butt" stroke-width="3.5" stroke="#978600" fill="#baa300" d="M203.48125,180c0,-20.16875 16.35001,-36.51875 36.51875,-36.51875c20.16875,0 36.51875,16.35001 36.51875,36.51875c0,20.16875 -16.35001,36.51875 -36.51875,36.51875c-20.16875,0 -36.51875,-16.35001 -36.51875,-36.51875z"></path><g stroke-linecap="round" stroke-width="7.5" fill="none"><path stroke="#ff0000" d="M270.88028,166.84365h-12.71238"></path><path stroke="#ff0000" d="M266.62048,189.65057h4.0703"></path><path stroke="#000000" d="M261.99747,188.25414l-3.84092,10.0824"></path><path stroke="#000000" d="M253.59546,170.72997l-2.64063,-13.20316"></path></g><path stroke-linecap="butt" stroke-width="3.5" stroke="#0097a1" fill="#00afba" d="M233.02093,214.74996v-69.57262c0,0 -0.15863,-1.96286 6.10669,-1.52667c5.58096,0.38855 6.54288,1.52667 6.54288,1.52667v69.57262c0,0 0.00405,2.64712 -6.54288,2.18096c-5.32374,-0.37907 -6.10669,-2.18096 -6.10669,-2.18096z"></path></g></g></svg>