<svg version="1.1" xmlns="http://www.w3.org/2000/svg" xmlns:xlink="http://www.w3.org/1999/xlink" width="72.1039" height="93.43041" viewBox="0,0,72.1039,93.43041"><defs><linearGradient x1="240" y1="138.03086" x2="240" y2="221.96914" gradientUnits="userSpaceOnUse" id="color-1"><stop offset="0" stop-color="#276b87"/><stop offset="1" stop-color="#0c0c29"/></linearGradient><linearGradient x1="240" y1="138.03086" x2="240" y2="221.96914" gradientUnits="userSpaceOnUse" id="color-2"><stop offset="0" stop-color="#00d7d3"/><stop offset="1" stop-color="#008280"/></linearGradient></defs><g transform="translate(-203.94805,-133.28478)"><g stroke-miterlimit="10"><path d="M213.01943,221.96914c-1.65685,0 -3,-1.34315 -3,-3v-77.93828c0,-1.65685 1.34315,-3 3,-3h53.96114c1.65685,0 3,1.34315 3,3v77.93828c0,1.65685 -1.34315,3 -3,3z" fill="#9763ff" stroke="#000000" stroke-width="4" stroke-linecap="butt"/><path d="M213.01943,221.96914c-1.65685,0 -3,-1.34315 -3,-3v-77.93828c0,-1.65685 1.34315,-3 3,-3h53.96114c1.65685,0 3,1.34315 3,3v77.93828c0,1.65685 -1.34315,3 -3,3z" fill="url(#color-1)" stroke="none" stroke-width="0" stroke-linecap="butt"/><g><path d="M223.26005,165.8421c0,-8.96966 7.27135,-16.24101 16.24101,-16.24101c8.96966,0 16.241,7.27134 16.241,16.24101c0,8.96966 -7.27134,16.24101 -16.241,16.24101c-8.96966,0 -16.24101,-7.27134 -16.24101,-16.24101z" fill="#ffc387" stroke="#000000" stroke-width="2.5" stroke-linecap="butt"/><path d="M225.23725,166.54322c0,-8.13676 6.70003,-14.73291 14.96493,-14.73291c8.2649,0 14.96493,6.59614 14.96493,14.73291c0,8.13676 -6.70002,14.73291 -14.96492,14.73291c-8.2649,0 -14.96493,-6.59615 -14.96493,-14.73291z" fill="#ffd2a4" stroke="#000000" stroke-width="0" stroke-linecap="butt"/><path d="M226.44639,157.13081c0,0 -3.17558,-11.10445 -0.71375,-8.57273c3.24967,3.34193 11.14681,-3.3727 21.87026,0c10.72345,3.3727 4.63934,6.55045 4.63934,6.55045z" fill="#000000" stroke="none" stroke-width="0" stroke-linecap="butt"/><path d="M225.62573,155.23589c-0.61031,0 -0.61031,-0.61031 -0.61031,-0.61031l0.04365,-0.01125c-0.70954,-1.79993 -0.55289,-3.82643 -0.86805,-5.71733c0,0 -0.08165,-0.48989 0.34428,-0.65947c0.01328,-0.07146 0.04194,-0.1485 0.09126,-0.23069c0.314,-0.52334 0.83734,-0.20933 0.83734,-0.20933c3.03344,1.83256 7.06015,0.77569 10.22771,-0.0644c0.78933,-0.20934 1.50106,-0.13381 2.29043,-0.36451c1.81661,-0.30022 3.40759,0.14457 5.20123,0.34605c1.24958,0.14037 2.4204,0.04961 3.60562,0.51536l0.28419,0.13974c0,0 0.54587,0.27293 0.27294,0.81881c-0.27293,0.54587 -0.81881,0.27294 -0.81881,0.27294l-0.19164,-0.09818c-1.05208,-0.43018 -2.1752,-0.31129 -3.29391,-0.4363c-1.64055,-0.18332 -3.13138,-0.64727 -4.79119,-0.36769c-0.76421,0.21392 -1.4849,0.13945 -2.22995,0.34924c-3.28822,0.92589 -7.31243,1.81198 -10.55635,0.27107c0.20162,1.65346 0.10437,3.4491 0.72823,4.98136l0.04365,0.46458c0,0 0,0.61031 -0.61031,0.61031z" fill="#2d2d2d" stroke="none" stroke-width="0.5" stroke-linecap="butt"/><path d="M235.65714,193.75261v-11.22966h6.3472v11.22966z" fill="#ffd2a4" stroke="#000000" stroke-width="2.5" stroke-linecap="butt"/><path d="M226.38545,217.98619v-33.78959c0,0 7.44555,-0.72887 8.78131,2.30445c0.59904,1.36035 2.67104,0.95052 3.80422,0.95052c1.76171,0 2.46797,0.52395 4.41301,-1.2423c3.25922,-2.95962 9.52894,-2.01267 9.52894,-2.01267v33.78959z" fill="#00fffa" stroke="#00d7d3" stroke-width="1.5" stroke-linecap="butt"/><path d="M238.9373,215.21169l-0.16275,-27.61366" fill="none" stroke="#515151" stroke-width="2.5" stroke-linecap="round"/><path d="M222.58628,214.55559l-0.29295,-29.5226c0,0 0.57048,-0.5859 0.82098,-0.5859c0.61814,0 3.21518,0 3.21518,0v30.1085z" fill="#00fffa" stroke="#00d7d3" stroke-width="1.5" stroke-linecap="butt"/><path d="M253.34577,215.36933l-0.29295,-29.5226c0,0 0.57048,-0.5859 0.82098,-0.5859c0.61814,0 3.21518,0 3.21518,0v30.1085z" fill="#00fffa" stroke="#00d7d3" stroke-width="1.5" stroke-linecap="butt"/><path d="M236.02087,164.45002c0,2.94717 -1.03876,5.33633 -2.32014,5.33633c-1.28138,0 -2.32014,-2.38916 -2.32014,-5.33633c0,-2.94717 1.03876,-5.33633 2.32014,-5.33633c1.28138,0 2.32014,2.38915 2.32014,5.33633z" fill="#000000" stroke="none" stroke-width="0" stroke-linecap="butt"/><path d="M246.5826,164.80312c0,2.94717 -1.03876,5.33633 -2.32014,5.33633c-1.28138,0 -2.32014,-2.38916 -2.32014,-5.33633c0,-2.94717 1.03876,-5.33633 2.32014,-5.33633c1.28138,0 2.32014,2.38916 2.32014,5.33633z" fill="#000000" stroke="none" stroke-width="0" stroke-linecap="butt"/><path d="M239.70472,173.25282c0,0.61031 -0.61031,0.61031 -0.61031,0.61031l-0.49445,-0.00831c-2.61492,0.43582 -5.20258,0.12726 -7.83256,0.12726c0,0 -0.61031,0 -0.61031,-0.61031c0,-0.61031 0.61031,-0.61031 0.61031,-0.61031c2.56014,0 5.08772,0.31338 7.63189,-0.11066l0.69512,-0.0083c0,0 0.61031,0 0.61031,0.61031z" fill="#000000" stroke="none" stroke-width="0.5" stroke-linecap="butt"/></g><path d="M213.01943,221.96914c-1.65685,0 -3,-1.34315 -3,-3v-77.93828c0,-1.65685 1.34315,-3 3,-3h53.96114c1.65685,0 3,1.34315 3,3v77.93828c0,1.65685 -1.34315,3 -3,3zM263.23302,197.97227c1.38071,0 2.5,-1.11929 2.5,-2.5v-48.59004c0,-1.38071 -1.11929,-2.5 -2.5,-2.5h-46.46605c-1.38071,0 -2.5,1.11929 -2.5,2.5v48.59004c0,1.38071 1.11929,2.5 2.5,2.5z" fill="url(#color-2)" stroke="none" stroke-width="0" stroke-linecap="butt"/><path d="M213.09723,218.72632l2.51526,-2.51526l2.51526,2.51526l-2.51526,2.51526z" fill="#000000" stroke="none" stroke-width="0" stroke-linecap="butt"/><text transform="translate(214.5139,143.14162) scale(0.13917,0.13917)" font-size="40" xml:space="preserve" fill="#000000" stroke="none" stroke-width="1" stroke-linecap="butt" font-family="Sans Serif" font-weight="normal" text-anchor="start"><tspan x="0" dy="0">Classic Axl</tspan></text><text transform="translate(213.87227,203.13362) scale(0.11215,0.11215)" font-size="40" xml:space="preserve" fill="#000000" stroke="none" stroke-width="1" stroke-linecap="butt" font-family="Sans Serif" font-weight="normal" text-anchor="start"><tspan x="0" dy="0">The first avatar that Axl</tspan><tspan x="0" dy="48px">used. First featured in</tspan><tspan x="0" dy="48px">The Adventure</tspan></text><text transform="translate(218.94522,220.40272) scale(0.0984,0.0984)" font-size="40" xml:space="preserve" fill="#000000" stroke="none" stroke-width="1" stroke-linecap="butt" font-family="Sans Serif" font-weight="normal" text-anchor="start"><tspan x="0" dy="0">6/27</tspan></text><text transform="translate(239.57666,220.8475) scale(0.09461,0.09461)" font-size="40" xml:space="preserve" fill="#000000" stroke="none" stroke-width="1" stroke-linecap="butt" font-family="Sans Serif" font-weight="normal" text-anchor="start"><tspan x="0" dy="0">Core Collection</tspan></text><path d="M203.94805,226.7152v-93.43041h72.1039v93.43041z" fill="none" stroke="none" stroke-width="0" stroke-linecap="butt"/></g></g></svg>