<svg version="1.1" xmlns="http://www.w3.org/2000/svg" xmlns:xlink="http://www.w3.org/1999/xlink" width="33.64187" height="30.66977" viewBox="0,0,33.64187,30.66977"><g transform="translate(-220.65786,-91.69614)"><g data-paper-data="{&quot;isPaintingLayer&quot;:true}" fill="#000000" fill-rule="nonzero" stroke="none" stroke-linecap="butt" stroke-linejoin="miter" stroke-miterlimit="10" stroke-dasharray="" stroke-dashoffset="0" style="mix-blend-mode: normal"><path d="M232.66775,102.62574c0,6.03625 -2.12754,10.9296 -4.752,10.9296c-2.62446,0 -4.752,-4.89335 -4.752,-10.9296c0,-6.03625 2.12754,-10.92959 4.752,-10.92959c2.62446,0 4.752,4.89334 4.752,10.92959z" stroke-width="0"/><path d="M254.29974,103.34894c0,6.03625 -2.12754,10.92959 -4.75199,10.92959c-2.62446,0 -4.752,-4.89335 -4.752,-10.92959c0,-6.03625 2.12754,-10.9296 4.752,-10.9296c2.62446,0 4.75199,4.89335 4.75199,10.9296z" stroke-width="0"/><path d="M240.21283,120.65519c0,1.25 -1.25,1.25 -1.25,1.25l-1.01271,-0.01701c-5.35575,0.89263 -10.65566,0.26065 -16.04225,0.26065c0,0 -1.25,0 -1.25,-1.25c0,-1.25 1.25,-1.25 1.25,-1.25c5.24355,0 10.4204,0.64184 15.63125,-0.22664l1.42371,-0.017c0,0 1.25,0 1.25,1.25z" stroke-width="0.5"/></g></g></svg>