<svg version="1.1" xmlns="http://www.w3.org/2000/svg" xmlns:xlink="http://www.w3.org/1999/xlink" width="150.5" height="241.96737" viewBox="0,0,150.5,241.96737"><g transform="translate(-164.75,-59.01632)"><g stroke="#000000" stroke-width="2.5" stroke-miterlimit="10"><g><path d="M197.7948,112.7035l18.16151,-15.30723l32.31526,38.34097l-18.16152,15.30723z" fill="#b65200" stroke-linecap="butt"/><path d="M211.49523,100.29339l-2.67333,-40.02707" fill="none" stroke-linecap="round"/><path d="M184.15257,75.01856l23.89053,27.32155" fill="none" stroke-linecap="round"/><path d="M206.6377,107.83894l-31.40028,-10.63769" fill="none" stroke-linecap="round"/></g><path d="M314,258.86365c0,47.75711 -31.13088,40.47191 -72,40.47191c-40.86912,0 -76,7.28519 -76,-40.47191c0,-47.7571 33.13088,-86.47191 74,-86.47191c40.86912,0 74,38.71481 74,86.47191z" fill="#ef6b00" stroke-linecap="butt"/><path d="M272.25,167.19729c0,22.95042 -15.22226,41.55556 -34,41.55556c-18.77774,0 -34,-18.60513 -34,-41.55555c0,-22.95042 15.22226,-41.55555 34,-41.55555c18.77774,0 34,18.60513 34,41.55556z" fill="#ef6b00" stroke-linecap="butt"/><path d="M265.33976,160.04854c-5.69307,2.29326 -12.73923,-1.8829 -15.73808,-9.32761c-2.99885,-7.44472 -0.81482,-15.33895 4.87825,-17.63221c5.69307,-2.29326 12.73923,1.8829 15.73808,9.32761c2.99885,7.44472 0.81482,15.33894 -4.87825,17.63221z" fill="#ffac69" stroke-linecap="butt"/><path d="M231.34627,172.51284c-5.25516,2.11686 -11.9463,-2.2023 -14.94515,-9.64702c-2.99885,-7.44472 -1.16985,-15.19594 4.0853,-17.3128c5.25516,-2.11686 11.9463,2.20231 14.94515,9.64702c2.99885,7.44472 1.16985,15.19593 -4.08531,17.31279z" fill="#ffac69" stroke-linecap="butt"/><path d="M226.86713,158.34273l3.84033,12.58423" fill="none" stroke-linecap="round"/><path d="M265.71427,161.74088l-6.38814,-15.85871" fill="none" stroke-linecap="round"/><path d="M253.58424,134.67831l12.56189,-13.04731" fill="none" stroke-linecap="round"/><path d="M205.64775,136.1703l14.94143,8.11252" fill="none" stroke-linecap="round"/><path d="M237.5,195.44171v-14.5h26v14.5z" fill="#f00000" stroke-linecap="butt"/><path d="M237.5,184.94171v-4.5h25.5v4.5z" fill="#f0f0f0" stroke-linecap="butt"/><path d="M237.71429,195.37028v-5h26.5v5z" fill="#f0f0f0" stroke-linecap="butt"/></g></g></svg>