<svg version="1.1" xmlns="http://www.w3.org/2000/svg" xmlns:xlink="http://www.w3.org/1999/xlink" width="28.40988" height="14.9807" viewBox="0,0,28.40988,14.9807"><g transform="translate(-220.65786,-107.38521)"><g data-paper-data="{&quot;isPaintingLayer&quot;:true}" fill="#000000" fill-rule="nonzero" stroke="none" stroke-linecap="butt" stroke-linejoin="miter" stroke-miterlimit="10" stroke-dasharray="" stroke-dashoffset="0" style="mix-blend-mode: normal"><path d="M232.66775,109.49571c0,2.24207 -2.12754,4.05963 -4.752,4.05963c-2.62446,0 -4.752,-1.81756 -4.752,-4.05963c0,-2.24207 2.32754,-1.6358 4.952,-1.6358c2.62446,0 4.552,-0.60627 4.552,1.6358z" stroke-width="0"/><path d="M240.21283,120.65519c0,1.25 -1.25,1.25 -1.25,1.25l-1.01271,-0.01701c-5.35575,0.89263 -10.65566,0.26065 -16.04225,0.26065c0,0 -1.25,0 -1.25,-1.25c0,-1.25 1.25,-1.25 1.25,-1.25c5.24355,0 10.4204,0.64184 15.63125,-0.22664l1.42371,-0.017c0,0 1.25,0 1.25,1.25z" stroke-width="0.5"/><path d="M249.06774,109.21428c0,2.3975 -2.12754,4.34105 -4.752,4.34105c-2.62446,0 -4.752,-1.94356 -4.752,-4.34105c0,-2.3975 2.32754,-1.7492 4.952,-1.7492c2.62446,0 4.552,-0.6483 4.552,1.7492z" stroke-width="0"/></g></g></svg>