<svg version="1.1" xmlns="http://www.w3.org/2000/svg" xmlns:xlink="http://www.w3.org/1999/xlink" width="493.33333" height="352.24477" viewBox="0,0,493.33333,352.24477"><defs><linearGradient x1="240.92756" y1="0.00001" x2="240.92756" y2="62.27395" gradientUnits="userSpaceOnUse" id="color-1"><stop offset="0" stop-color="#636363" stop-opacity="0.74902"/><stop offset="1" stop-color="#ababab" stop-opacity="0.50196"/></linearGradient><linearGradient x1="424.62624" y1="22.33417" x2="436.14797" y2="22.33417" gradientUnits="userSpaceOnUse" id="color-2"><stop offset="0" stop-color="#ebda85"/><stop offset="1" stop-color="#b0a236"/></linearGradient><linearGradient x1="268.79841" y1="45.48232" x2="281.84479" y2="45.48232" gradientUnits="userSpaceOnUse" id="color-3"><stop offset="0" stop-color="#ebda85"/><stop offset="1" stop-color="#b0a236"/></linearGradient><linearGradient x1="82.85189" y1="30.10666" x2="143.23461" y2="30.10666" gradientUnits="userSpaceOnUse" id="color-4"><stop offset="0" stop-color="#ffffff" stop-opacity="0"/><stop offset="0.49292" stop-color="#ffffff" stop-opacity="0.25098"/><stop offset="1" stop-color="#ffffff" stop-opacity="0"/></linearGradient><linearGradient x1="23.59" y1="155.77819" x2="127.81563" y2="155.77819" gradientUnits="userSpaceOnUse" id="color-5"><stop offset="0" stop-color="#8a8a8a"/><stop offset="0.49292" stop-color="#555555"/><stop offset="1" stop-color="#8a8a8a"/></linearGradient><linearGradient x1="23.59007" y1="155.77819" x2="127.81563" y2="155.77819" gradientUnits="userSpaceOnUse" id="color-6"><stop offset="0" stop-color="#8a8a8a"/><stop offset="0.49292" stop-color="#555555"/><stop offset="1" stop-color="#8a8a8a"/></linearGradient><linearGradient x1="30.69377" y1="211.14491" x2="42.4873" y2="211.14491" gradientUnits="userSpaceOnUse" id="color-7"><stop offset="0" stop-color="#ebda85"/><stop offset="1" stop-color="#b0a236"/></linearGradient><linearGradient x1="51.36258" y1="100.20101" x2="127.81568" y2="100.20101" gradientUnits="userSpaceOnUse" id="color-8"><stop offset="0" stop-color="#ebda85"/><stop offset="1" stop-color="#b0a236"/></linearGradient><linearGradient x1="23.59002" y1="155.77819" x2="127.81564" y2="155.77819" gradientUnits="userSpaceOnUse" id="color-9"><stop offset="0" stop-color="#8a8a8a"/><stop offset="0.49292" stop-color="#555555"/><stop offset="1" stop-color="#8a8a8a"/></linearGradient><linearGradient x1="133.21079" y1="155.77819" x2="237.43644" y2="155.77819" gradientUnits="userSpaceOnUse" id="color-10"><stop offset="0" stop-color="#8a8a8a"/><stop offset="0.49292" stop-color="#555555"/><stop offset="1" stop-color="#8a8a8a"/></linearGradient><linearGradient x1="133.21087" y1="155.77819" x2="237.43644" y2="155.77819" gradientUnits="userSpaceOnUse" id="color-11"><stop offset="0" stop-color="#8a8a8a"/><stop offset="0.49292" stop-color="#555555"/><stop offset="1" stop-color="#8a8a8a"/></linearGradient><linearGradient x1="140.31457" y1="211.14491" x2="152.10809" y2="211.14491" gradientUnits="userSpaceOnUse" id="color-12"><stop offset="0" stop-color="#ebda85"/><stop offset="1" stop-color="#b0a236"/></linearGradient><linearGradient x1="160.98338" y1="100.20101" x2="237.43649" y2="100.20101" gradientUnits="userSpaceOnUse" id="color-13"><stop offset="0" stop-color="#ebda85"/><stop offset="1" stop-color="#b0a236"/></linearGradient><linearGradient x1="133.21082" y1="155.77819" x2="237.43645" y2="155.77819" gradientUnits="userSpaceOnUse" id="color-14"><stop offset="0" stop-color="#8a8a8a"/><stop offset="0.49292" stop-color="#555555"/><stop offset="1" stop-color="#8a8a8a"/></linearGradient><linearGradient x1="242.76432" y1="155.77819" x2="346.98994" y2="155.77819" gradientUnits="userSpaceOnUse" id="color-15"><stop offset="0" stop-color="#8a8a8a"/><stop offset="0.49292" stop-color="#555555"/><stop offset="1" stop-color="#8a8a8a"/></linearGradient><linearGradient x1="242.76438" y1="155.77819" x2="346.98994" y2="155.77819" gradientUnits="userSpaceOnUse" id="color-16"><stop offset="0" stop-color="#8a8a8a"/><stop offset="0.49292" stop-color="#555555"/><stop offset="1" stop-color="#8a8a8a"/></linearGradient><linearGradient x1="249.86809" y1="211.14491" x2="261.66163" y2="211.14491" gradientUnits="userSpaceOnUse" id="color-17"><stop offset="0" stop-color="#ebda85"/><stop offset="1" stop-color="#b0a236"/></linearGradient><linearGradient x1="270.5369" y1="100.20101" x2="346.98999" y2="100.20101" gradientUnits="userSpaceOnUse" id="color-18"><stop offset="0" stop-color="#ebda85"/><stop offset="1" stop-color="#b0a236"/></linearGradient><linearGradient x1="242.76434" y1="155.77819" x2="346.98996" y2="155.77819" gradientUnits="userSpaceOnUse" id="color-19"><stop offset="0" stop-color="#8a8a8a"/><stop offset="0.49292" stop-color="#555555"/><stop offset="1" stop-color="#8a8a8a"/></linearGradient><linearGradient x1="352.18428" y1="155.77819" x2="456.40992" y2="155.77819" gradientUnits="userSpaceOnUse" id="color-20"><stop offset="0" stop-color="#8a8a8a"/><stop offset="0.49292" stop-color="#555555"/><stop offset="1" stop-color="#8a8a8a"/></linearGradient><linearGradient x1="352.18436" y1="155.77819" x2="456.40992" y2="155.77819" gradientUnits="userSpaceOnUse" id="color-21"><stop offset="0" stop-color="#8a8a8a"/><stop offset="0.49292" stop-color="#555555"/><stop offset="1" stop-color="#8a8a8a"/></linearGradient><linearGradient x1="359.28806" y1="211.14491" x2="371.08158" y2="211.14491" gradientUnits="userSpaceOnUse" id="color-22"><stop offset="0" stop-color="#ebda85"/><stop offset="1" stop-color="#b0a236"/></linearGradient><linearGradient x1="379.95685" y1="100.20101" x2="456.40997" y2="100.20101" gradientUnits="userSpaceOnUse" id="color-23"><stop offset="0" stop-color="#ebda85"/><stop offset="1" stop-color="#b0a236"/></linearGradient><linearGradient x1="352.18431" y1="155.77819" x2="456.40992" y2="155.77819" gradientUnits="userSpaceOnUse" id="color-24"><stop offset="0" stop-color="#8a8a8a"/><stop offset="0.49292" stop-color="#555555"/><stop offset="1" stop-color="#8a8a8a"/></linearGradient><linearGradient x1="23.59" y1="288.80573" x2="127.81563" y2="288.80573" gradientUnits="userSpaceOnUse" id="color-25"><stop offset="0" stop-color="#8a8a8a"/><stop offset="0.49292" stop-color="#555555"/><stop offset="1" stop-color="#8a8a8a"/></linearGradient><linearGradient x1="23.59007" y1="288.80573" x2="127.81563" y2="288.80573" gradientUnits="userSpaceOnUse" id="color-26"><stop offset="0" stop-color="#8a8a8a"/><stop offset="0.49292" stop-color="#555555"/><stop offset="1" stop-color="#8a8a8a"/></linearGradient><linearGradient x1="30.69377" y1="344.17244" x2="42.48731" y2="344.17244" gradientUnits="userSpaceOnUse" id="color-27"><stop offset="0" stop-color="#ebda85"/><stop offset="1" stop-color="#b0a236"/></linearGradient><linearGradient x1="51.36258" y1="233.22854" x2="127.81568" y2="233.22854" gradientUnits="userSpaceOnUse" id="color-28"><stop offset="0" stop-color="#ebda85"/><stop offset="1" stop-color="#b0a236"/></linearGradient><linearGradient x1="23.59002" y1="288.80573" x2="127.81564" y2="288.80573" gradientUnits="userSpaceOnUse" id="color-29"><stop offset="0" stop-color="#8a8a8a"/><stop offset="0.49292" stop-color="#555555"/><stop offset="1" stop-color="#8a8a8a"/></linearGradient><linearGradient x1="133.21079" y1="288.80573" x2="237.43644" y2="288.80573" gradientUnits="userSpaceOnUse" id="color-30"><stop offset="0" stop-color="#8a8a8a"/><stop offset="0.49292" stop-color="#555555"/><stop offset="1" stop-color="#8a8a8a"/></linearGradient><linearGradient x1="133.21086" y1="288.80573" x2="237.43644" y2="288.80573" gradientUnits="userSpaceOnUse" id="color-31"><stop offset="0" stop-color="#8a8a8a"/><stop offset="0.49292" stop-color="#555555"/><stop offset="1" stop-color="#8a8a8a"/></linearGradient><linearGradient x1="140.31457" y1="344.17244" x2="152.10812" y2="344.17244" gradientUnits="userSpaceOnUse" id="color-32"><stop offset="0" stop-color="#ebda85"/><stop offset="1" stop-color="#b0a236"/></linearGradient><linearGradient x1="160.98338" y1="233.22854" x2="237.43649" y2="233.22854" gradientUnits="userSpaceOnUse" id="color-33"><stop offset="0" stop-color="#ebda85"/><stop offset="1" stop-color="#b0a236"/></linearGradient><linearGradient x1="133.21082" y1="288.80573" x2="237.43645" y2="288.80573" gradientUnits="userSpaceOnUse" id="color-34"><stop offset="0" stop-color="#8a8a8a"/><stop offset="0.49292" stop-color="#555555"/><stop offset="1" stop-color="#8a8a8a"/></linearGradient><linearGradient x1="242.76432" y1="288.80573" x2="346.98994" y2="288.80573" gradientUnits="userSpaceOnUse" id="color-35"><stop offset="0" stop-color="#8a8a8a"/><stop offset="0.49292" stop-color="#555555"/><stop offset="1" stop-color="#8a8a8a"/></linearGradient><linearGradient x1="242.76438" y1="288.80573" x2="346.98994" y2="288.80573" gradientUnits="userSpaceOnUse" id="color-36"><stop offset="0" stop-color="#8a8a8a"/><stop offset="0.49292" stop-color="#555555"/><stop offset="1" stop-color="#8a8a8a"/></linearGradient><linearGradient x1="249.8681" y1="344.17244" x2="261.66163" y2="344.17244" gradientUnits="userSpaceOnUse" id="color-37"><stop offset="0" stop-color="#ebda85"/><stop offset="1" stop-color="#b0a236"/></linearGradient><linearGradient x1="270.5369" y1="233.22854" x2="346.99001" y2="233.22854" gradientUnits="userSpaceOnUse" id="color-38"><stop offset="0" stop-color="#ebda85"/><stop offset="1" stop-color="#b0a236"/></linearGradient><linearGradient x1="242.76435" y1="288.80573" x2="346.98996" y2="288.80573" gradientUnits="userSpaceOnUse" id="color-39"><stop offset="0" stop-color="#8a8a8a"/><stop offset="0.49292" stop-color="#555555"/><stop offset="1" stop-color="#8a8a8a"/></linearGradient><linearGradient x1="352.18428" y1="288.80573" x2="456.40992" y2="288.80573" gradientUnits="userSpaceOnUse" id="color-40"><stop offset="0" stop-color="#8a8a8a"/><stop offset="0.49292" stop-color="#555555"/><stop offset="1" stop-color="#8a8a8a"/></linearGradient><linearGradient x1="352.18436" y1="288.80573" x2="456.40992" y2="288.80573" gradientUnits="userSpaceOnUse" id="color-41"><stop offset="0" stop-color="#8a8a8a"/><stop offset="0.49292" stop-color="#555555"/><stop offset="1" stop-color="#8a8a8a"/></linearGradient><linearGradient x1="359.28806" y1="344.17244" x2="371.08158" y2="344.17244" gradientUnits="userSpaceOnUse" id="color-42"><stop offset="0" stop-color="#ebda85"/><stop offset="1" stop-color="#b0a236"/></linearGradient><linearGradient x1="379.95685" y1="233.22854" x2="456.40997" y2="233.22854" gradientUnits="userSpaceOnUse" id="color-43"><stop offset="0" stop-color="#ebda85"/><stop offset="1" stop-color="#b0a236"/></linearGradient><linearGradient x1="352.18432" y1="288.80573" x2="456.40992" y2="288.80573" gradientUnits="userSpaceOnUse" id="color-44"><stop offset="0" stop-color="#8a8a8a"/><stop offset="0.49292" stop-color="#555555"/><stop offset="1" stop-color="#8a8a8a"/></linearGradient><linearGradient x1="354.10017" y1="76.67901" x2="454.49416" y2="76.67901" gradientUnits="userSpaceOnUse" id="color-45"><stop offset="0" stop-color="#ebda85"/><stop offset="1" stop-color="#b0a236"/></linearGradient><linearGradient x1="20.63798" y1="77.14221" x2="144.64977" y2="77.14221" gradientUnits="userSpaceOnUse" id="color-46"><stop offset="0" stop-color="#ffffff" stop-opacity="0.25098"/><stop offset="1" stop-color="#ffffff" stop-opacity="0"/></linearGradient></defs><g transform="translate(5.73917,-0.00001)"><g stroke-miterlimit="10"><path d="M-5.73917,62.27395v-62.27393h493.33333v62.27393z" fill="url(#color-1)" stroke="none" stroke-width="0" stroke-linecap="butt"/><text transform="translate(154.65536,35.65463) scale(0.39157,0.39157)" font-size="40" xml:space="preserve" fill="#f1f1f1" stroke="none" stroke-width="1" stroke-linecap="butt" font-family="&quot;HeadingNowTrial-63Book&quot;, Sans Serif" font-weight="normal" text-anchor="start"><tspan x="0" dy="0">INVENTORY</tspan></text><path d="M145.15895,20.61502v21.0439" fill="none" stroke-opacity="0.74902" stroke="#e0e0e0" stroke-width="1" stroke-linecap="round"/><path d="M244.76676,41.65894v-21.04391" fill="none" stroke-opacity="0.74902" stroke="#e0e0e0" stroke-width="1" stroke-linecap="round"/><text transform="translate(90.66899,35.65463) scale(0.39157,0.39157)" font-size="40" xml:space="preserve" fill="#f1f1f1" stroke="none" stroke-width="1" stroke-linecap="butt" font-family="&quot;HeadingNowTrial-63Book&quot;, Sans Serif" font-weight="normal" text-anchor="start"><tspan x="0" dy="0">STORE</tspan></text><text transform="translate(254.16907,35.65462) scale(0.39157,0.39157)" font-size="40" xml:space="preserve" fill="#f1f1f1" stroke="none" stroke-width="1" stroke-linecap="butt" font-family="&quot;HeadingNowTrial-63Book&quot;, Sans Serif" font-weight="normal" text-anchor="start"><tspan x="0" dy="0">NEWS</tspan></text><path d="M305.11316,20.61503v21.04391" fill="none" stroke-opacity="0.74902" stroke="#e0e0e0" stroke-width="1" stroke-linecap="round"/><text transform="translate(314.52835,35.65462) scale(0.39157,0.39157)" font-size="40" xml:space="preserve" fill="#f1f1f1" stroke="none" stroke-width="1" stroke-linecap="butt" font-family="&quot;HeadingNowTrial-63Book&quot;, Sans Serif" font-weight="normal" text-anchor="start"><tspan x="0" dy="0">SETTINGS</tspan></text><path d="M80.60593,41.65892v-21.0439" fill="none" stroke-opacity="0.74902" stroke="#e0e0e0" stroke-width="1" stroke-linecap="round"/><path d="M80.62436,41.65892v-21.0439" fill="none" stroke-opacity="0.74902" stroke="#e0e0e0" stroke-width="1" stroke-linecap="round"/><text transform="translate(12.33553,35.65462) scale(0.39157,0.39157)" font-size="40" xml:space="preserve" fill="#f1f1f1" stroke="none" stroke-width="1" stroke-linecap="butt" font-family="&quot;HeadingNowTrial-63Book&quot;, Sans Serif" font-weight="normal" text-anchor="start"><tspan x="0" dy="0">MARKET</tspan></text><path d="M391.0209,62.27394v-62.27393h89.95238v62.27394z" fill-opacity="0.74902" fill="#636363" stroke="none" stroke-width="0" stroke-linecap="butt"/><path d="M430.3871,16.5733l5.76087,11.52174h-11.52174z" fill="url(#color-2)" stroke="none" stroke-width="0" stroke-linecap="butt"/><path d="M400.02934,51.65077h71.93548" fill="none" stroke="#052700" stroke-width="5" stroke-linecap="round"/><path d="M441.64225,51.65077h-41.6129" fill="none" stroke="#42b533" stroke-width="5" stroke-linecap="round"/><text transform="translate(400.16713,47.16394) scale(0.1988,0.1988)" font-size="40" xml:space="preserve" fill="#42b533" stroke="none" stroke-width="1" stroke-linecap="butt" font-family="Sans Serif" font-weight="normal" text-anchor="start"><tspan x="0" dy="0">1000/1000</tspan></text><text transform="translate(438.31829,25.67227) scale(0.19881,0.19881)" font-size="40" xml:space="preserve" fill="#b0a236" stroke="none" stroke-width="1" stroke-linecap="butt" font-family="Sans Serif" font-weight="normal" text-anchor="start"><tspan x="0" dy="0">1,000,000</tspan></text><path d="M396.32869,33.37985v-25h25v25z" fill="#555555" stroke="none" stroke-width="0" stroke-linecap="butt"/><path d="M398.30672,31.40181v-21.04392h21.04392v21.04392z" fill="#8a8a8a" stroke="none" stroke-width="0" stroke-linecap="butt"/><g stroke="none" stroke-linecap="butt"><path d="M271.29841,52.00548c-1.38071,0 -2.5,-1.11929 -2.5,-2.5v-8.04631c0,-1.38071 1.11929,-2.5 2.5,-2.5h8.04631c1.38071,0 2.5,1.11929 2.5,2.5v8.04631c0,1.38071 -1.11929,2.5 -2.5,2.5z" fill="url(#color-3)" stroke-width="0"/><text transform="translate(277.21799,50.31996) rotate(-180) scale(0.34605,-0.34605)" font-size="40" xml:space="preserve" fill="#303030" stroke-width="1" font-family="Sans Serif" font-weight="normal" text-anchor="start"><tspan x="0" dy="0">!</tspan></text></g><path d="M82.85189,38.42827v-16.64323h60.38279v16.64323z" fill="url(#color-4)" stroke="none" stroke-width="0" stroke-linecap="butt"/><g stroke-linecap="butt"><path d="M31.26701,218.96725c-4.23987,0 -7.67694,-3.43708 -7.67694,-7.67694v-111.02423c0,-4.23986 3.43708,-7.67695 7.67695,-7.67695h88.87172c4.23986,0 7.67695,3.43708 7.67695,7.67695v111.02424c0,4.23987 -3.43708,7.67694 -7.67695,7.67694z" fill-opacity="0.50196" fill="#545454" stroke="url(#color-5)" stroke-width="0.5"/><path d="M31.26701,218.96725c-4.23987,0 -7.67694,-3.43708 -7.67694,-7.67694v-23.39094h104.22562v23.39094c0,4.23987 -3.43708,7.67694 -7.67694,7.67694z" fill="#5e5e5e" stroke="url(#color-6)" stroke-width="0"/><text transform="translate(26.30404,202.6742) scale(0.39042,0.39042)" font-size="40" xml:space="preserve" fill="#000000" stroke="none" stroke-width="1" font-family="Sans Serif" font-weight="normal" text-anchor="start"><tspan x="0" dy="0">Box</tspan></text><path d="M36.59056,205.24812l5.89679,11.79358h-11.79358z" fill="url(#color-7)" stroke="none" stroke-width="0"/><text transform="translate(44.70883,214.56177) scale(0.20351,0.20351)" font-size="40" xml:space="preserve" fill="#e5d57d" stroke="none" stroke-width="1" font-family="Sans Serif" font-weight="normal" text-anchor="start"><tspan x="0" dy="0">1,000,000</tspan></text><path d="M51.49238,107.81289l-0.1298,-15.22376h68.77615c4.23986,0 7.67695,3.43708 7.67695,7.67695v7.52983z" fill="url(#color-8)" stroke="url(#color-9)" stroke-width="0"/><text transform="translate(80.81632,103.58487) scale(0.23888,0.23888)" font-size="40" xml:space="preserve" fill="#303030" stroke="none" stroke-width="1" font-family="Sans Serif" font-weight="normal" text-anchor="start"><tspan x="0" dy="0">Stock Left</tspan></text><text transform="translate(53.40548,103.58494) scale(0.23889,0.23889)" font-size="40" xml:space="preserve" fill="#303030" stroke="none" stroke-width="1" font-family="Sans Serif" font-weight="normal" text-anchor="start"><tspan x="0" dy="0">1,000</tspan></text></g><g stroke-linecap="butt"><path d="M140.88781,218.96725c-4.23987,0 -7.67695,-3.43708 -7.67695,-7.67694v-111.02423c0,-4.23986 3.43708,-7.67695 7.67695,-7.67695h88.87172c4.23987,0 7.67695,3.43708 7.67695,7.67695v111.02424c0,4.23987 -3.43708,7.67694 -7.67695,7.67694z" fill-opacity="0.50196" fill="#545454" stroke="url(#color-10)" stroke-width="0.5"/><path d="M140.88781,218.96725c-4.23987,0 -7.67695,-3.43708 -7.67695,-7.67694v-23.39094h104.22563v23.39094c0,4.23987 -3.43708,7.67694 -7.67695,7.67694z" fill="#5e5e5e" stroke="url(#color-11)" stroke-width="0"/><text transform="translate(135.92485,202.6742) scale(0.39042,0.39042)" font-size="40" xml:space="preserve" fill="#000000" stroke="none" stroke-width="1" font-family="Sans Serif" font-weight="normal" text-anchor="start"><tspan x="0" dy="0">Box</tspan></text><path d="M146.21137,205.24812l5.89679,11.79358h-11.79358z" fill="url(#color-12)" stroke="none" stroke-width="0"/><text transform="translate(154.32962,214.56177) scale(0.20351,0.20351)" font-size="40" xml:space="preserve" fill="#e5d57d" stroke="none" stroke-width="1" font-family="Sans Serif" font-weight="normal" text-anchor="start"><tspan x="0" dy="0">1,000,000</tspan></text><path d="M161.11318,107.81289l-0.1298,-15.22376h68.77615c4.23987,0 7.67694,3.43708 7.67694,7.67695v7.52983z" fill="url(#color-13)" stroke="url(#color-14)" stroke-width="0"/><text transform="translate(190.43713,103.58487) scale(0.23888,0.23888)" font-size="40" xml:space="preserve" fill="#303030" stroke="none" stroke-width="1" font-family="Sans Serif" font-weight="normal" text-anchor="start"><tspan x="0" dy="0">Stock Left</tspan></text><text transform="translate(163.02629,103.58494) scale(0.23889,0.23889)" font-size="40" xml:space="preserve" fill="#303030" stroke="none" stroke-width="1" font-family="Sans Serif" font-weight="normal" text-anchor="start"><tspan x="0" dy="0">1,000</tspan></text></g><g stroke-linecap="butt"><path d="M250.44131,218.96725c-4.23987,0 -7.67695,-3.43708 -7.67695,-7.67694v-111.02423c0,-4.23986 3.43708,-7.67695 7.67695,-7.67695h88.87172c4.23987,0 7.67694,3.43708 7.67694,7.67695v111.02424c0,4.23987 -3.43708,7.67694 -7.67694,7.67694z" fill-opacity="0.50196" fill="#545454" stroke="url(#color-15)" stroke-width="0.5"/><path d="M250.44131,218.96725c-4.23987,0 -7.67695,-3.43708 -7.67695,-7.67694v-23.39094h104.22562v23.39094c0,4.23987 -3.43708,7.67694 -7.67694,7.67694z" fill="#5e5e5e" stroke="url(#color-16)" stroke-width="0"/><text transform="translate(245.47836,202.6742) scale(0.39042,0.39042)" font-size="40" xml:space="preserve" fill="#000000" stroke="none" stroke-width="1" font-family="Sans Serif" font-weight="normal" text-anchor="start"><tspan x="0" dy="0">Box</tspan></text><path d="M255.76488,205.24812l5.89679,11.79358h-11.79358z" fill="url(#color-17)" stroke="none" stroke-width="0"/><text transform="translate(263.88316,214.56177) scale(0.20351,0.20351)" font-size="40" xml:space="preserve" fill="#e5d57d" stroke="none" stroke-width="1" font-family="Sans Serif" font-weight="normal" text-anchor="start"><tspan x="0" dy="0">1,000,000</tspan></text><path d="M270.66668,107.81289l-0.1298,-15.22376h68.77614c4.23987,0 7.67694,3.43708 7.67694,7.67695v7.52983z" fill="url(#color-18)" stroke="url(#color-19)" stroke-width="0"/><text transform="translate(299.99064,103.58487) scale(0.23888,0.23888)" font-size="40" xml:space="preserve" fill="#303030" stroke="none" stroke-width="1" font-family="Sans Serif" font-weight="normal" text-anchor="start"><tspan x="0" dy="0">Stock Left</tspan></text><text transform="translate(272.5798,103.58494) scale(0.23889,0.23889)" font-size="40" xml:space="preserve" fill="#303030" stroke="none" stroke-width="1" font-family="Sans Serif" font-weight="normal" text-anchor="start"><tspan x="0" dy="0">1,000</tspan></text></g><g stroke-linecap="butt"><path d="M359.86129,218.96725c-4.23987,0 -7.67695,-3.43708 -7.67695,-7.67694v-111.02423c0,-4.23986 3.43708,-7.67695 7.67695,-7.67695h88.87172c4.23987,0 7.67695,3.43708 7.67695,7.67695v111.02424c0,4.23987 -3.43708,7.67694 -7.67695,7.67694z" fill-opacity="0.50196" fill="#545454" stroke="url(#color-20)" stroke-width="0.5"/><path d="M359.86129,218.96725c-4.23987,0 -7.67695,-3.43708 -7.67695,-7.67694v-23.39094h104.22562v23.39094c0,4.23987 -3.43708,7.67694 -7.67695,7.67694z" fill="#5e5e5e" stroke="url(#color-21)" stroke-width="0"/><text transform="translate(354.89833,202.6742) scale(0.39042,0.39042)" font-size="40" xml:space="preserve" fill="#000000" stroke="none" stroke-width="1" font-family="Sans Serif" font-weight="normal" text-anchor="start"><tspan x="0" dy="0">Box</tspan></text><path d="M365.18485,205.24812l5.89679,11.79358h-11.79358z" fill="url(#color-22)" stroke="none" stroke-width="0"/><text transform="translate(373.30312,214.56177) scale(0.20351,0.20351)" font-size="40" xml:space="preserve" fill="#e5d57d" stroke="none" stroke-width="1" font-family="Sans Serif" font-weight="normal" text-anchor="start"><tspan x="0" dy="0">1,000,000</tspan></text><path d="M380.08666,107.81289l-0.1298,-15.22376h68.77614c4.23987,0 7.67695,3.43708 7.67695,7.67695v7.52983z" fill="url(#color-23)" stroke="url(#color-24)" stroke-width="0"/><text transform="translate(409.41062,103.58487) scale(0.23888,0.23888)" font-size="40" xml:space="preserve" fill="#303030" stroke="none" stroke-width="1" font-family="Sans Serif" font-weight="normal" text-anchor="start"><tspan x="0" dy="0">Stock Left</tspan></text><text transform="translate(381.99978,103.58494) scale(0.23889,0.23889)" font-size="40" xml:space="preserve" fill="#303030" stroke="none" stroke-width="1" font-family="Sans Serif" font-weight="normal" text-anchor="start"><tspan x="0" dy="0">1,000</tspan></text></g><g stroke-linecap="butt"><path d="M31.26701,351.99478c-4.23987,0 -7.67694,-3.43707 -7.67694,-7.67694v-111.02423c0,-4.23987 3.43708,-7.67695 7.67695,-7.67695h88.87173c4.23986,0 7.67694,3.43708 7.67694,7.67695v111.02423c0,4.23987 -3.43707,7.67694 -7.67694,7.67694z" fill-opacity="0.50196" fill="#545454" stroke="url(#color-25)" stroke-width="0.5"/><path d="M31.26701,351.99478c-4.23987,0 -7.67694,-3.43707 -7.67694,-7.67694v-23.39094h104.22561v23.39094c0,4.23987 -3.43708,7.67694 -7.67695,7.67694z" fill="#5e5e5e" stroke="url(#color-26)" stroke-width="0"/><text transform="translate(26.30404,335.70173) scale(0.39042,0.39042)" font-size="40" xml:space="preserve" fill="#000000" stroke="none" stroke-width="1" font-family="Sans Serif" font-weight="normal" text-anchor="start"><tspan x="0" dy="0">Box</tspan></text><path d="M36.59056,338.27566l5.89679,11.79357h-11.79358z" fill="url(#color-27)" stroke="none" stroke-width="0"/><text transform="translate(44.70884,347.5893) scale(0.20351,0.20351)" font-size="40" xml:space="preserve" fill="#e5d57d" stroke="none" stroke-width="1" font-family="Sans Serif" font-weight="normal" text-anchor="start"><tspan x="0" dy="0">1,000,000</tspan></text><path d="M51.49238,240.84042l-0.1298,-15.22377h68.77615c4.23986,0 7.67695,3.43708 7.67695,7.67695v7.52983z" fill="url(#color-28)" stroke="url(#color-29)" stroke-width="0"/><text transform="translate(80.81633,236.6124) scale(0.23888,0.23888)" font-size="40" xml:space="preserve" fill="#303030" stroke="none" stroke-width="1" font-family="Sans Serif" font-weight="normal" text-anchor="start"><tspan x="0" dy="0">Stock Left</tspan></text><text transform="translate(53.40549,236.61248) scale(0.23888,0.23888)" font-size="40" xml:space="preserve" fill="#303030" stroke="none" stroke-width="1" font-family="Sans Serif" font-weight="normal" text-anchor="start"><tspan x="0" dy="0">1,000</tspan></text></g><g stroke-linecap="butt"><path d="M140.88781,351.99478c-4.23987,0 -7.67695,-3.43707 -7.67695,-7.67694v-111.02423c0,-4.23987 3.43708,-7.67695 7.67695,-7.67695h88.87173c4.23987,0 7.67695,3.43708 7.67695,7.67695v111.02423c0,4.23987 -3.43708,7.67694 -7.67695,7.67694z" fill-opacity="0.50196" fill="#545454" stroke="url(#color-30)" stroke-width="0.5"/><path d="M140.88781,351.99478c-4.23987,0 -7.67695,-3.43707 -7.67695,-7.67694v-23.39094h104.22563v23.39094c0,4.23987 -3.43708,7.67694 -7.67695,7.67694z" fill="#5e5e5e" stroke="url(#color-31)" stroke-width="0"/><text transform="translate(135.92485,335.70173) scale(0.39042,0.39042)" font-size="40" xml:space="preserve" fill="#000000" stroke="none" stroke-width="1" font-family="Sans Serif" font-weight="normal" text-anchor="start"><tspan x="0" dy="0">Box</tspan></text><path d="M146.21137,338.27566l5.89679,11.79357h-11.79358z" fill="url(#color-32)" stroke="none" stroke-width="0"/><text transform="translate(154.32964,347.5893) scale(0.20351,0.20351)" font-size="40" xml:space="preserve" fill="#e5d57d" stroke="none" stroke-width="1" font-family="Sans Serif" font-weight="normal" text-anchor="start"><tspan x="0" dy="0">1,000,000</tspan></text><path d="M161.11318,240.84042l-0.1298,-15.22377h68.77615c4.23987,0 7.67694,3.43708 7.67694,7.67695v7.52983z" fill="url(#color-33)" stroke="url(#color-34)" stroke-width="0"/><text transform="translate(190.43714,236.6124) scale(0.23888,0.23888)" font-size="40" xml:space="preserve" fill="#303030" stroke="none" stroke-width="1" font-family="Sans Serif" font-weight="normal" text-anchor="start"><tspan x="0" dy="0">Stock Left</tspan></text><text transform="translate(163.02629,236.61248) scale(0.23888,0.23888)" font-size="40" xml:space="preserve" fill="#303030" stroke="none" stroke-width="1" font-family="Sans Serif" font-weight="normal" text-anchor="start"><tspan x="0" dy="0">1,000</tspan></text></g><g stroke-linecap="butt"><path d="M250.44131,351.99478c-4.23987,0 -7.67696,-3.43707 -7.67696,-7.67694v-111.02423c0,-4.23987 3.43709,-7.67695 7.67696,-7.67695h88.87172c4.23987,0 7.67694,3.43708 7.67694,7.67695v111.02423c0,4.23987 -3.43707,7.67694 -7.67694,7.67694z" fill-opacity="0.50196" fill="#545454" stroke="url(#color-35)" stroke-width="0.5"/><path d="M250.44131,351.99478c-4.23987,0 -7.67696,-3.43707 -7.67696,-7.67694v-23.39094h104.22563v23.39094c0,4.23987 -3.43707,7.67694 -7.67694,7.67694z" fill="#5e5e5e" stroke="url(#color-36)" stroke-width="0"/><text transform="translate(245.47836,335.70173) scale(0.39042,0.39042)" font-size="40" xml:space="preserve" fill="#000000" stroke="none" stroke-width="1" font-family="Sans Serif" font-weight="normal" text-anchor="start"><tspan x="0" dy="0">Box</tspan></text><path d="M255.76488,338.27566l5.89679,11.79357h-11.79357z" fill="url(#color-37)" stroke="none" stroke-width="0"/><text transform="translate(263.88316,347.5893) scale(0.20351,0.20351)" font-size="40" xml:space="preserve" fill="#e5d57d" stroke="none" stroke-width="1" font-family="Sans Serif" font-weight="normal" text-anchor="start"><tspan x="0" dy="0">1,000,000</tspan></text><path d="M270.66668,240.84042l-0.1298,-15.22377h68.77614c4.23987,0 7.67696,3.43708 7.67696,7.67695v7.52983z" fill="url(#color-38)" stroke="url(#color-39)" stroke-width="0"/><text transform="translate(299.99064,236.6124) scale(0.23888,0.23888)" font-size="40" xml:space="preserve" fill="#303030" stroke="none" stroke-width="1" font-family="Sans Serif" font-weight="normal" text-anchor="start"><tspan x="0" dy="0">Stock Left</tspan></text><text transform="translate(272.5798,236.61248) scale(0.23888,0.23888)" font-size="40" xml:space="preserve" fill="#303030" stroke="none" stroke-width="1" font-family="Sans Serif" font-weight="normal" text-anchor="start"><tspan x="0" dy="0">1,000</tspan></text></g><g stroke-linecap="butt"><path d="M359.86129,351.99478c-4.23987,0 -7.67695,-3.43707 -7.67695,-7.67694v-111.02423c0,-4.23987 3.43708,-7.67695 7.67695,-7.67695h88.87173c4.23987,0 7.67695,3.43708 7.67695,7.67695v111.02423c0,4.23987 -3.43708,7.67694 -7.67695,7.67694z" fill-opacity="0.50196" fill="#545454" stroke="url(#color-40)" stroke-width="0.5"/><path d="M359.86129,351.99478c-4.23987,0 -7.67695,-3.43707 -7.67695,-7.67694v-23.39094h104.22562v23.39094c0,4.23987 -3.43708,7.67694 -7.67695,7.67694z" fill="#5e5e5e" stroke="url(#color-41)" stroke-width="0"/><text transform="translate(354.89833,335.70173) scale(0.39042,0.39042)" font-size="40" xml:space="preserve" fill="#000000" stroke="none" stroke-width="1" font-family="Sans Serif" font-weight="normal" text-anchor="start"><tspan x="0" dy="0">Box</tspan></text><path d="M365.18486,338.27566l5.89679,11.79357h-11.79357z" fill="url(#color-42)" stroke="none" stroke-width="0"/><text transform="translate(373.30312,347.5893) scale(0.20351,0.20351)" font-size="40" xml:space="preserve" fill="#e5d57d" stroke="none" stroke-width="1" font-family="Sans Serif" font-weight="normal" text-anchor="start"><tspan x="0" dy="0">1,000,000</tspan></text><path d="M380.08666,240.84042l-0.1298,-15.22377h68.77614c4.23987,0 7.67696,3.43708 7.67696,7.67695v7.52983z" fill="url(#color-43)" stroke="url(#color-44)" stroke-width="0"/><text transform="translate(409.41062,236.6124) scale(0.23888,0.23888)" font-size="40" xml:space="preserve" fill="#303030" stroke="none" stroke-width="1" font-family="Sans Serif" font-weight="normal" text-anchor="start"><tspan x="0" dy="0">Stock Left</tspan></text><text transform="translate(381.99978,236.61248) scale(0.23888,0.23888)" font-size="40" xml:space="preserve" fill="#303030" stroke="none" stroke-width="1" font-family="Sans Serif" font-weight="normal" text-anchor="start"><tspan x="0" dy="0">1,000</tspan></text></g><path d="M361.60017,87.12917c-4.14214,0 -7.5,-3.35786 -7.5,-7.5v-5.90032c0,-4.14214 3.35786,-7.5 7.5,-7.5h85.39398c4.14214,0 7.5,3.35786 7.5,7.5v5.90032c0,4.14214 -3.35786,7.5 -7.5,7.5z" fill="url(#color-45)" stroke="none" stroke-width="0" stroke-linecap="butt"/><text transform="translate(359.32098,80.00237) scale(0.27695,0.27695)" font-size="40" xml:space="preserve" fill="#303030" stroke="none" stroke-width="1" stroke-linecap="butt" font-family="Sans Serif" font-weight="normal" text-anchor="start"><tspan x="0" dy="0">Refreshes in 5:00</tspan></text><g stroke="none" stroke-linecap="butt"><text transform="translate(27.26267,83.90346) scale(0.43842,0.43842)" font-size="40" xml:space="preserve" fill="#f1f1f1" stroke-width="1" font-family="&quot;HeadingNowTrial-63Book&quot;, Sans Serif" font-weight="normal" text-anchor="start"><tspan x="0" dy="0">Global Store</tspan></text><path d="M20.63798,87.66416v-21.0439h124.01179v21.0439z" fill="url(#color-46)" stroke-width="0"/></g></g></g></svg>