<svg version="1.1" xmlns="http://www.w3.org/2000/svg" xmlns:xlink="http://www.w3.org/1999/xlink" width="86.54672" height="112.14505" viewBox="0,0,86.54672,112.14505"><defs><linearGradient x1="240" y1="166.88632" x2="240" y2="230.91858" gradientUnits="userSpaceOnUse" id="color-1"><stop offset="0" stop-color="#ffffff" stop-opacity="0"/><stop offset="1" stop-color="#ffffff"/></linearGradient><linearGradient x1="240" y1="179.9921" x2="240" y2="231.18256" gradientUnits="userSpaceOnUse" id="color-2"><stop offset="0" stop-color="#444444" stop-opacity="0"/><stop offset="1" stop-color="#444444"/></linearGradient><linearGradient x1="221.10656" y1="202.92029" x2="221.10656" y2="231.11075" gradientUnits="userSpaceOnUse" id="color-3"><stop offset="0" stop-color="#444444" stop-opacity="0"/><stop offset="1" stop-color="#444444"/></linearGradient><linearGradient x1="258.81147" y1="202.92029" x2="258.81147" y2="231.11075" gradientUnits="userSpaceOnUse" id="color-4"><stop offset="0" stop-color="#444444" stop-opacity="0"/><stop offset="1" stop-color="#444444"/></linearGradient></defs><g transform="translate(-196.72664,-123.92747)"><g stroke-miterlimit="10"><path d="M202.5,231.07145v-102.14286h75v102.14286z" fill="#ffffff" stroke="none" stroke-width="0"/><g fill="url(#color-1)" stroke="none"><path d="M202.33871,230.91858v-64.03226h75.32258v64.03226z" stroke-width="NaN"/><path d="M202.33871,230.91858v-64.03226h75.32258v64.03226z" stroke-width="NaN"/></g><path d="M214.44136,231.07145l-11.94135,-51.51224v-9.82858l14.21977,61.34082zM209.8641,231.07145l-7.36409,-31.767v-9.82858l9.64252,41.59558zM204.84399,231.07145l-2.34399,-10.11141v-9.82858l4.6224,19.93999zM263.28022,231.07145l14.21978,-61.34082v9.82858l-11.94135,51.51224zM267.85749,231.07145l9.64252,-41.59557v9.82858l-7.3641,31.76699zM272.8776,231.07145l4.62241,-19.93998v9.82858l-2.34398,10.1114z" fill="#ffa000" stroke="#ffa000" stroke-width="0"/><g stroke="none" stroke-width="0"><path d="M240,179.9921l28.74102,51.19048h-57.48204z" fill="url(#color-2)"/><path d="M221.10656,202.92029l18.5015,28.19048h-37.00298z" fill="url(#color-3)"/><path d="M258.81147,202.92029l18.5015,28.19048h-37.00298z" fill="url(#color-4)"/></g><text transform="translate(207.42755,225.475) scale(0.34934,0.34934)" font-size="40" xml:space="preserve" fill="#000000" stroke="none" stroke-width="1" font-family="Archivo Black" font-weight="normal" text-anchor="start"><tspan x="0" dy="0">REKORD</tspan></text><path d="M201.52627,232.08701v-104.17396h76.94746v104.17396zM277.20173,230.66524v-101.33042h-74.40346v101.33042z" fill="#000000" stroke="none" stroke-width="0"/><path d="M196.72664,236.07252v-112.14505h86.54672v112.14505z" fill="none" stroke="none" stroke-width="0"/></g></g></svg>