<svg version="1.1" xmlns="http://www.w3.org/2000/svg" xmlns:xlink="http://www.w3.org/1999/xlink" width="63.96114" height="87.93828" viewBox="0,0,63.96114,87.93828"><defs><linearGradient x1="240" y1="138.03086" x2="240" y2="221.96914" gradientUnits="userSpaceOnUse" id="color-1"><stop offset="0" stop-color="#874d4d"/><stop offset="1" stop-color="#290e0e"/></linearGradient><linearGradient x1="240" y1="137.76678" x2="240" y2="222.23322" gradientUnits="userSpaceOnUse" id="color-2"><stop offset="0" stop-color="#880872" stop-opacity="0.49804"/><stop offset="0.25472" stop-color="#0d378d" stop-opacity="0.49804"/><stop offset="0.49057" stop-color="#238d0d" stop-opacity="0.49804"/><stop offset="0.72406" stop-color="#886408" stop-opacity="0.49804"/><stop offset="1" stop-color="#880808" stop-opacity="0.49804"/></linearGradient></defs><g transform="translate(-208.01943,-136.03086)"><g stroke-miterlimit="10"><path d="M213.01943,221.96914c-1.65685,0 -3,-1.34315 -3,-3v-77.93828c0,-1.65685 1.34315,-3 3,-3h53.96114c1.65685,0 3,1.34315 3,3v77.93828c0,1.65685 -1.34315,3 -3,3z" fill="#9763ff" stroke="#000000" stroke-width="4" stroke-linecap="butt"/><path d="M213.01943,221.96914c-1.65685,0 -3,-1.34315 -3,-3v-77.93828c0,-1.65685 1.34315,-3 3,-3h53.96114c1.65685,0 3,1.34315 3,3v77.93828c0,1.65685 -1.34315,3 -3,3z" fill="url(#color-1)" stroke="none" stroke-width="0" stroke-linecap="butt"/><g stroke-width="1"><g><path d="M220.49248,163.05842c0.01727,-0.07338 0.04112,-0.14348 0.07079,-0.20985c-0.46603,-0.24011 -0.89093,-0.53931 -1.26735,-0.88568c-0.09796,-0.06856 -0.18982,-0.14526 -0.27343,-0.23311c-0.06291,-0.0661 -0.12478,-0.13429 -0.18532,-0.20437c-0.00266,-0.00207 -0.0053,-0.00414 -0.00796,-0.00622c-2.91289,-0.79406 -4.73093,-3.69039 -4.19221,-6.65065c-0.03994,-0.32289 -0.05894,-0.65027 -0.0552,-0.98146c0.01522,-1.34789 0.4608,-2.60818 1.16387,-3.73582c0.6139,-2.14986 2.3778,-3.69076 4.45754,-4.10628c0.00173,-0.00097 0.00346,-0.00196 0.00519,-0.00293c2.56845,-1.44377 5.48834,-0.5229 8.14638,-0.01056c1.6468,0.31742 3.32158,0.5549 4.90644,1.13611c0.63413,0.23255 1.28833,0.48506 1.90601,0.80094c0.38716,-0.07295 0.79551,-0.06802 1.20371,0.02802c0.43735,0.1029 0.82824,0.29949 1.1564,0.56351c1.20153,0.24152 2.41843,0.61847 3.60389,0.95004c0.43609,-0.10935 0.9041,-0.11894 1.3719,-0.00887c0.45656,0.10742 0.86246,0.31691 1.19924,0.59866c0.13092,0.01933 0.26094,0.03617 0.38995,0.05023c2.04432,0.22285 4.22786,0.49332 6.11444,1.34932c0.1601,0.07265 0.32315,0.14333 0.48443,0.21693c0.19973,-0.06806 0.42038,-0.08266 0.64094,-0.03077c0.59445,0.13986 0.97424,0.71237 0.88448,1.30575c0.03782,0.083 0.07094,0.17121 0.0988,0.26523c0.37544,1.26701 -0.01857,2.76645 -1.08157,3.50478c-0.15499,0.61497 -0.77544,0.99392 -1.39503,0.84815c-0.20171,-0.04746 -0.37869,-0.14472 -0.52101,-0.27572c-0.38604,0.07222 -0.79308,0.06699 -1.19996,-0.02874c-0.31331,-0.07371 -0.60277,-0.19551 -0.86241,-0.35573c-0.30383,0.02766 -0.61723,0.00761 -0.93054,-0.0661c-0.43377,-0.10206 -0.82183,-0.29626 -1.14831,-0.55703c-0.05397,0.00013 -0.10814,-0.00125 -0.16249,-0.00418c-0.30422,0.02782 -0.61804,0.00781 -0.93177,-0.066c-0.33266,-0.07827 -0.63844,-0.21074 -0.91019,-0.38586c-0.15548,-0.0105 -0.30836,-0.02589 -0.45406,-0.05482c-1.17027,-0.23242 -2.21525,-0.60187 -3.33196,-0.88588c-0.1683,0.25081 -0.34472,0.4819 -0.42699,0.78391c-0.03449,0.12661 -0.06709,0.25051 -0.09805,0.37193c0.00902,0.47647 -0.04078,0.96181 -0.15494,1.44704c-0.09758,0.41474 -0.23728,0.80857 -0.4135,1.17805c-0.06793,0.31799 -0.14034,0.63283 -0.22574,0.95333c0.94877,0.30177 1.80908,0.85337 2.80783,1.09287c2.35159,0.56393 4.73313,1.00993 7.06197,1.66149c0.85677,0.23971 1.52742,0.73264 1.90789,1.39692c-0.03722,0.10066 -0.07555,0.19947 -0.11994,0.29118c-0.23359,0.48259 0.15972,1.25486 0.02554,1.64356c-0.15412,0.44648 -0.45649,1.07913 -0.45161,1.63955c-0.16563,0.16023 -0.34978,0.29599 -0.54907,0.4065c-0.05069,0.06339 -0.1039,0.12446 -0.15943,0.18309c-0.17657,0.53315 -0.71234,0.86483 -1.26828,0.78517c-0.47536,0.14501 -0.99423,0.17004 -1.51287,0.04802c-0.58169,-0.13685 -1.08116,-0.43942 -1.46022,-0.84598c-3.14823,-0.57032 -6.88688,-1.44257 -10.12326,-2.29778c-0.09662,-0.02553 -0.20422,-0.05419 -0.32024,-0.08627c0.05459,0.35976 0.03429,0.77545 -0.07945,1.2589c-0.10542,0.44808 -0.27241,0.81028 -0.48915,1.0998c0.14531,0.24862 0.19918,0.55125 0.12802,0.8537c-0.14721,0.6257 -0.77378,1.01359 -1.39947,0.86638c-0.17299,-0.0407 -0.32781,-0.11806 -0.45817,-0.22189c-0.05979,-0.00452 -0.12,-0.01372 -0.18019,-0.02789c-0.285,-0.06706 -0.52066,-0.23356 -0.67889,-0.45413c-1.24477,-0.01626 -2.66584,-0.3958 -3.90351,-0.73637c-0.45321,0.00289 -0.91399,-0.04747 -1.37468,-0.15586c-0.47816,-0.1125 -0.92855,-0.28099 -1.34586,-0.49689c-0.19624,-0.04823 -0.40274,-0.10415 -0.61136,-0.16932c-0.05613,-0.00979 -0.11229,-0.02129 -0.16848,-0.03451c-0.24501,-0.05765 -0.47544,-0.14469 -0.68842,-0.25652c-0.22482,0.10071 -0.48329,0.13114 -0.7416,0.07036c-0.16839,-0.03961 -0.31954,-0.11395 -0.44768,-0.21363c-0.15915,0.03209 -0.3276,0.03123 -0.49598,-0.00839c-0.6257,-0.14721 -1.01359,-0.77378 -0.86638,-1.39947c0.05927,-0.25193 0.19626,-0.46531 0.3796,-0.62072c-0.00087,-0.0918 0.00918,-0.18518 0.03114,-0.27853c0.03114,-0.13235 0.08372,-0.25406 0.15321,-0.36231c-0.01065,-0.09772 -0.00896,-0.19808 0.00633,-0.29904c-0.18501,-0.26256 -0.26112,-0.60006 -0.18177,-0.93731zM223.98175,157.33689c0.66869,0.71532 2.71249,-0.11403 3.13103,-0.83078c0.1857,-0.31801 0.40207,-0.62859 0.52129,-0.97592c0.37197,-0.32177 0.80188,-1.35992 0.8704,-1.55234c0.33089,-0.9293 0.71062,-2.0647 0.44804,-3.06279c0.03246,-0.28875 0.04101,-0.57825 -0.02445,-0.85464c-0.02556,-0.1079 -0.05796,-0.21824 -0.09667,-0.32986c-0.06718,-1.38387 -0.61619,-2.54223 -2.16465,-2.90654c-0.41047,-0.09658 -0.86064,-0.10361 -1.26495,0.0162c-0.12596,0.03732 -0.19346,0.16367 -0.26909,0.28144c-0.08083,-0.0301 -0.15985,-0.04673 -0.23377,-0.01376c-0.39187,0.17479 -0.76052,0.43548 -1.03521,0.76513c-0.16494,0.19793 -0.28981,0.48152 -0.40234,0.75063c-0.39192,0.52287 -0.62263,1.21527 -0.87441,1.71241c-0.47381,0.93554 -1.00476,2.76662 -0.72724,3.93825c0.07766,0.32786 0.21052,0.61194 0.38486,0.85334c-0.02632,0.22742 -0.04539,0.45332 0.05924,0.64539c0.08643,0.15865 0.20671,0.29095 0.34205,0.4116c0.2623,0.46124 0.68075,0.83226 1.20282,1.02823z" fill="#00fff7" stroke="none" stroke-linecap="butt"/><g fill="#00a09b" stroke="none" stroke-linecap="butt"><path d="M251.43255,151.39172c0.56646,0.13327 0.43319,0.69974 0.43319,0.69974l-0.12014,0.38023c0.01677,0.18988 0.03356,0.37977 0.05033,0.56965c0.26273,1.14595 0.06079,2.23303 -0.24651,3.35762c-0.08193,0.29982 -0.06247,0.66055 -0.26905,0.89279c-0.23611,0.26542 -0.60165,0.41915 -0.95172,0.47959c-0.28637,0.04944 -0.57134,-0.10704 -0.85557,-0.1676c-0.69345,-0.14774 -1.32809,-0.36126 -1.99929,-0.57147c-0.64783,-0.20289 -1.34056,-0.26332 -1.98812,-0.46829c-0.8191,-0.25926 -1.6171,-0.58039 -2.45719,-0.77526c0,0 -0.56646,-0.13327 -0.43319,-0.69973c0.13327,-0.56646 0.69974,-0.43319 0.69974,-0.43319c1.7279,0.41152 3.46578,0.98344 5.16332,1.51507c0.4186,0.13109 0.8573,0.18751 1.2813,0.29995c0.20666,0.05481 0.54917,0.2857 0.63509,0.08991c0.39652,-0.90375 0.50631,-2.38025 0.27252,-3.33211c-0.02024,-0.21718 -0.04048,-0.43437 -0.06072,-0.65155l0.14629,-0.75216c0,0 0.13327,-0.56646 0.69973,-0.43319z"/><path d="M249.06809,162.28815c0.56646,0.13327 0.43318,0.69973 0.43318,0.69973l-0.00912,-0.0916c0.1224,1.38778 -0.29531,2.68664 -0.61805,4.0272c-0.11627,0.48297 -0.21256,1.23465 -0.71987,1.53529c0.01811,0.08 0.01887,0.1744 -0.00725,0.28542c-0.13327,0.56646 -0.69974,0.43319 -0.69974,0.43319l-0.28309,-0.0666c-0.49435,-0.11795 -1.09185,-0.00245 -1.4915,-0.31642c-0.18103,-0.14221 -0.03589,-0.49013 -0.18525,-0.6653c-0.08276,-0.09706 -0.25652,0.01813 -0.38265,-0.00075c-0.44741,-0.06697 -0.88074,-0.20722 -1.32111,-0.31082c-1.19222,-0.28393 -2.40829,-0.97321 -3.63776,-1.06276c-1.03654,-0.0755 -2.08798,-0.15858 -3.1307,-0.23863c-0.62719,-0.04815 -1.52518,-0.06144 -2.11319,-0.298c-0.24231,-0.09749 -0.46809,-0.24143 -0.6681,-0.40942c-0.14693,-0.12341 -0.34262,-0.65795 -0.33777,-0.46613c0.00301,0.11854 0.01963,0.23634 0.02945,0.35451c0,0 -0.01585,0.06735 -0.05984,0.15014l0.13186,0.08102c-0.02206,0.24123 -0.04412,0.48248 -0.06618,0.72372c-0.17282,0.732 -0.01195,2.49995 -0.79291,2.90129c-0.48757,0.25056 -1.79692,-0.32279 -2.33891,-0.41011c-2.43223,-0.39186 -4.91627,-0.74352 -7.2092,-1.70276c0,0 -0.53685,-0.22459 -0.31226,-0.76144c0.22458,-0.53684 0.76143,-0.31226 0.76143,-0.31226c2.20703,0.9233 4.60472,1.25023 6.94561,1.62749c0.46021,0.07416 0.92714,0.14997 1.36162,0.31885c0.10327,0.04014 0.15418,0.18176 0.26283,0.20351c0.0591,0.01183 -0.07068,-0.10525 -0.07285,-0.16547c-0.00707,-0.19646 0.03137,-0.39193 0.04574,-0.58799c0.03197,-0.43616 0.10011,-0.87087 0.19994,-1.29665c0.0033,-0.03785 0.0066,-0.0757 0.0099,-0.11355c-0.06556,-0.06645 -0.1203,-0.16037 -0.15156,-0.29234c-0.06238,-0.26335 0.02674,-0.43324 0.13992,-0.53964c0.00366,-0.05505 0.01196,-0.09034 0.01196,-0.09034c0.31574,-0.89697 0.18879,-1.45302 1.53976,-1.12658c0.42638,0.10304 0.60778,0.67347 1.01418,0.83858c0.33698,0.1369 0.72707,0.0287 1.08968,0.05719c0.60738,0.04773 1.29548,0.05175 1.90483,0.14371c0.43243,0.06526 0.83966,0.27408 1.27584,0.30585c0.72467,0.05279 1.34657,0.05314 2.07043,0.28226c0.78988,0.25001 1.55221,0.56502 2.36283,0.75305c0.50985,0.11996 1.56259,0.22119 2.09222,0.50821c0.21345,-0.16493 0.50006,-0.0975 0.50006,-0.0975c0.22018,0.05181 0.4472,0.08026 0.66055,0.15541c0.11184,0.0394 0.18592,0.19284 0.30419,0.18441c0.06875,-0.0049 -0.00446,-0.1387 0.00724,-0.20662c0.03312,-0.19232 0.08318,-0.38132 0.12674,-0.57154c0.278,-1.21392 0.70982,-2.40195 0.59189,-3.65525l0.03529,-0.28033c0,0 0.13327,-0.56647 0.69973,-0.43319z"/></g><g fill="none" stroke="#000000" stroke-linecap="round"><g><path d="M239.25955,155.32716l-1.13228,4.81264l11.32385,2.66419c0,0 0.18115,2.19309 -0.05437,3.19416c-0.24513,1.04189 -1.38873,2.93959 -1.38873,2.93959l-16.51395,-3.88529"/><path d="M235.53544,147.87753l16.51395,3.88529c0,0 0.2713,2.23317 0.03986,3.2169c-0.24839,1.05576 -1.48296,2.91685 -1.48296,2.91685l-11.32386,-2.6642l-1.13228,4.81264"/></g><path d="M231.463,165.06757l-11.60695,-2.7308c0,0 -3.43576,-1.46735 -4.8467,-4.1646c-0.9173,-1.75358 -0.13273,-4.69039 0.11805,-5.81552c0.25159,-1.12874 0.53911,-3.83179 2.10787,-5.06271c2.44421,-1.91785 6.46132,-2.18753 6.46132,-2.18753l11.89004,2.7974"/><path d="M234.1557,165.83119l-0.93247,3.96336l-13.30552,-3.13044l0.97687,-4.15208"/></g><g stroke-linecap="butt"><path d="M226.83159,146.55449c1.98043,0.46594 2.99942,3.33634 2.27598,6.41123c-0.72343,3.07488 -2.91535,5.18983 -4.89578,4.72389c-1.98043,-0.46594 -2.99943,-3.33634 -2.27599,-6.41122c0.72343,-3.07488 2.91536,-5.18984 4.89579,-4.7239z" fill="#00fff4" stroke="#000000"/><path d="M226.76918,148.0105c0.61262,0.98958 -0.37696,1.6022 -0.37696,1.6022l-0.06821,-0.02803c-0.68452,0.81628 -1.11164,1.30397 -1.5245,2.29085c0,0 -0.44917,1.07369 -1.52286,0.62452c-1.07369,-0.44917 -0.62452,-1.52286 -0.62452,-1.52286c0.27316,-0.65294 0.49818,-1.33752 0.95017,-1.8978c0.284,-0.35204 0.64527,-0.63623 0.93348,-0.98484l0.6312,-0.46101c0,0 0.98959,-0.61262 1.6022,0.37696z" fill="#ffffff" stroke="none"/></g></g><g><path d="M264.91331,152.85325c0.34645,-0.00113 0.65804,0.14923 0.87203,0.38877c0.10181,0.00791 0.19995,0.02893 0.29274,0.06137c0.12115,-0.04325 0.25159,-0.06698 0.38755,-0.06742c0.0959,-0.00031 0.18914,0.01099 0.27837,0.03258c0.19281,-0.14351 0.43161,-0.22876 0.69041,-0.2296c0.64279,-0.00209 1.16555,0.5173 1.16764,1.16007c0.00056,0.17298 -0.03664,0.33726 -0.10385,0.48505c0.06817,0.14735 0.10644,0.31139 0.107,0.48437c0.00086,0.26537 -0.08715,0.51028 -0.23604,0.70655c0.06084,0.23273 0.09359,0.47688 0.09441,0.72858c0.00019,0.05772 -0.0013,0.11503 -0.00444,0.17192c0.01637,0.21795 0.0242,0.43174 0.02687,0.6338c0.11607,0.45529 0.17849,0.93209 0.18008,1.4233c0.00154,0.47326 -0.05346,0.93352 -0.15864,1.37436c0.05223,1.28261 0.10101,2.75269 -0.16429,3.96898c0.17913,0.20396 0.28812,0.47112 0.28906,0.7639c0.0002,0.06184 -0.00443,0.12257 -0.01353,0.18184c0.07171,0.15043 0.1121,0.31872 0.11268,0.49644c0.00209,0.64279 -0.51731,1.16555 -1.16008,1.16764c-0.3107,0.00101 -0.59335,-0.11982 -0.80273,-0.31753c-0.33099,0.14576 -0.72155,0.22662 -1.18186,0.22812c-0.49665,0.00161 -0.90617,-0.0725 -1.24431,-0.20693c0.00504,0.12026 0.00867,0.23157 0.01171,0.33146c0.10216,3.3459 0.10748,7.18495 -0.04798,10.38065c0.31045,0.46108 0.49239,1.01598 0.49433,1.61355c0.00173,0.5328 -0.13984,1.03261 -0.38847,1.46294c-0.04795,0.55957 -0.49207,1.00659 -1.05132,1.05818c-0.06966,0.04085 -0.14117,0.07889 -0.21437,0.11396c-0.15267,0.16917 -0.3265,0.31793 -0.51999,0.44308c-0.54485,-0.13134 -1.22943,0.02032 -1.69919,0.06963c-0.40897,0.04292 -1.07245,-0.51464 -1.59533,-0.39608c-0.09936,0.02253 -0.20427,0.03755 -0.31074,0.05107c-0.56119,-0.52068 -0.88992,-1.28532 -0.92993,-2.17409c-0.10875,-2.41582 -0.00535,-4.83656 -0.02359,-7.25475c-0.00774,-1.02704 -0.35077,-1.98969 -0.43046,-2.9821c-0.3315,0.01081 -0.65455,0.01023 -0.97967,0.00459c-0.39974,0.08822 -0.81495,0.13536 -1.24101,0.13675c-0.49848,0.00162 -0.98251,-0.05948 -1.44464,-0.17588c-0.12528,0.00274 -0.25334,0.00651 -0.38448,0.01152c-0.31278,0.01194 -0.57774,0.13161 -0.86008,0.23891c0.02445,1.15201 0.14835,2.25343 0.11046,3.44595c-0.00473,0.14847 -0.02427,0.30087 -0.04915,0.45471c0.10923,0.30427 0.16921,0.63207 0.17032,0.97382c0.00105,0.32229 -0.05034,0.63252 -0.14615,0.9226c-0.00942,0.0536 -0.0203,0.1067 -0.03262,0.15923c0.18029,0.37695 0.28182,0.79883 0.28327,1.24445c0.00105,0.32187 -0.0502,0.6317 -0.14576,0.92144c0.09743,0.28912 0.15071,0.5986 0.15176,0.92047c0.00136,0.41799 -0.08549,0.81568 -0.24303,1.17544c0.09546,0.16823 0.15025,0.36261 0.15093,0.56982c0.00207,0.6365 -0.50722,1.15534 -1.1413,1.16743c-0.95934,0.86878 -2.50903,0.91395 -3.65851,0.26206c-0.0853,-0.04837 -0.16375,-0.10057 -0.23605,-0.15616c-0.59832,-0.04658 -1.07027,-0.54586 -1.07225,-1.15653c-0.00073,-0.22658 0.06331,-0.43823 0.17472,-0.61743c-0.03528,-0.17374 -0.06729,-0.34852 -0.1019,-0.5209c-0.40779,-2.03117 -0.17811,-4.21938 0.06652,-6.26121c0.01544,-0.12885 0.02839,-0.25931 0.03913,-0.39122c-0.1984,-0.39171 -0.31081,-0.83444 -0.31233,-1.30346c-0.00156,-0.48058 0.11347,-0.93433 0.31849,-1.33445c-0.05526,-1.22971 -0.14763,-2.50032 -0.11154,-3.72534c-0.18308,-0.37931 -0.28631,-0.80448 -0.28777,-1.25378c-0.00136,-0.41935 0.08606,-0.81826 0.24456,-1.17894c-0.16821,-0.67307 -0.26645,-1.36739 -0.34976,-2.03766c-0.20825,-1.67518 -0.06133,-3.36032 0.00139,-5.03626c0.10123,-2.70507 -0.13637,-5.7575 1.85019,-7.93349c0.00134,-0.00147 0.00268,-0.00293 0.00402,-0.0044c0.8745,-1.93215 2.77398,-3.30246 5.00694,-3.41494c1.25729,-0.43023 2.58566,-0.57964 3.90215,-0.29004c0.32347,0.07117 0.6381,0.1636 0.94362,0.27543c3.00545,0.14379 5.41634,2.56899 5.53199,5.58596c0.00142,0.00306 0.00284,0.00612 0.00426,0.00918c0.0546,0.0748 0.10706,0.15047 0.15724,0.22668c0.06671,0.10129 0.12068,0.2081 0.16534,0.319c0.25241,0.44492 0.4479,0.92642 0.57656,1.43464c0.07135,-0.01392 0.14502,-0.02132 0.22041,-0.02157zM258.46079,154.80251c-0.07299,-0.55285 -0.33991,-1.04426 -0.72999,-1.40396c-0.08695,-0.15909 -0.18869,-0.30614 -0.32371,-0.42618c-0.16347,-0.14531 -0.38785,-0.17775 -0.61534,-0.20348c-0.19578,-0.22436 -0.44251,-0.41793 -0.74436,-0.56763c-1.07867,-0.53496 -2.98236,-0.43129 -4.00074,-0.18102c-0.54116,0.13299 -1.26778,0.20137 -1.86565,0.46507c-0.28758,0.04884 -0.59205,0.10643 -0.82212,0.2224c-0.38316,0.19314 -0.72038,0.49338 -0.97916,0.83566c-0.04882,0.06456 -0.05048,0.14531 -0.0394,0.23084c-0.13181,0.04709 -0.27013,0.08431 -0.33494,0.19858c-0.20803,0.3668 -0.30285,0.80692 -0.30148,1.2286c0.00517,1.59073 1.0096,2.38717 2.34255,2.76517c0.09999,0.06293 0.20016,0.11939 0.29951,0.16867c0.25447,0.12619 0.53841,0.18326 0.82703,0.21686c0.913,0.48122 2.10482,0.36774 3.08483,0.25528c0.20292,-0.02329 1.31135,-0.20762 1.70882,-0.49731c0.36529,-0.03769 0.7167,-0.17832 1.06843,-0.2874c0.79276,-0.24585 2.06227,-2.04952 1.51647,-2.86249z" fill="#ffb900" stroke="none" stroke-linecap="butt"/><g fill="#bd8b00" stroke="none" stroke-linecap="butt"><path d="M246.56013,180.35892c-0.00189,-0.58193 0.58004,-0.58382 0.58004,-0.58382l0.76576,0.02738c0.207,0.06877 0.414,0.13753 0.621,0.2063c0.87446,0.44273 2.3376,0.66926 3.30756,0.4871c0.21014,-0.03948 0.06257,-0.42529 0.05585,-0.639c-0.01378,-0.43843 0.03035,-0.87853 -0.00281,-1.31593c-0.13449,-1.77374 -0.29913,-3.59588 -0.30976,-5.37208c0,0 -0.00189,-0.58193 0.58003,-0.58382c0.58193,-0.00189 0.58382,0.58004 0.58382,0.58004c0.00009,0.8624 0.13269,1.71231 0.20025,2.56879c0.05342,0.67712 -0.04416,1.3656 0.00716,2.04252c0.05318,0.70134 0.11786,1.3678 0.10516,2.0767c-0.0052,0.29056 0.08287,0.60351 -0.02997,0.87132c-0.13794,0.32737 -0.37026,0.64874 -0.68215,0.8188c-0.2729,0.14879 -0.61991,0.04836 -0.93049,0.06046c-1.16494,0.04536 -2.26953,-0.00343 -3.32654,-0.51819c-0.18118,-0.05923 -0.36238,-0.11845 -0.54356,-0.17768l-0.39754,0.03115c0,0 -0.58192,0.0019 -0.58381,-0.58003z"/><path d="M257.70902,180.51655c-0.00189,-0.58193 0.58004,-0.58381 0.58004,-0.58381l0.28106,0.02895c1.19428,0.39794 2.44915,0.24559 3.69449,0.24895c0.19513,0.00053 0.39057,-0.00556 0.5854,0.00562c0.0688,0.00395 0.18261,0.10547 0.20291,0.03961c0.03493,-0.11332 -0.09783,-0.22013 -0.11095,-0.33798c-0.02502,-0.22481 -0.00147,-0.4524 -0.00221,-0.67859c0,0 -0.00095,-0.29443 0.20792,-0.46511c-0.15999,-0.58077 -0.02084,-1.62918 -0.02254,-2.15294c-0.00009,-0.83213 -0.13479,-1.64592 -0.19994,-2.47186c-0.05971,-0.7569 0.0804,-1.36282 0.19266,-2.08068c0.06756,-0.43207 -0.0439,-0.87595 -0.00979,-1.31195c0.04804,-0.61438 0.19953,-1.2856 0.29022,-1.88807c0.05415,-0.35968 0.24764,-0.71525 0.19039,-1.07444c-0.06905,-0.43319 -0.58377,-0.73873 -0.58785,-1.17736c-0.01288,-1.38979 0.50011,-1.14053 1.44522,-1.24553c0,0 0.03627,-0.00012 0.09071,0.00875c0.12921,-0.08623 0.31484,-0.13466 0.5573,-0.01442c0.1215,0.06026 0.20064,0.13478 0.25056,0.21366c0.03762,0.00534 0.07523,0.01068 0.11284,0.01601c0.43733,-0.00109 0.8762,0.03071 1.30831,0.09807c0.19425,0.03028 0.39334,0.03699 0.58313,0.08825c0.05818,0.01571 0.14292,0.16857 0.14475,0.10833c0.00335,-0.11075 -0.12311,-0.19233 -0.13889,-0.302c-0.06639,-0.46139 -0.03478,-0.93337 -0.00308,-1.39844c0.1612,-2.3656 0.38425,-4.77517 -0.01673,-7.13371c0,0 -0.09754,-0.5737 0.47616,-0.67123c0.5737,-0.09753 0.67123,0.47617 0.67123,0.47617c0.41658,2.45033 0.19813,4.94962 0.03054,7.40751c-0.03735,0.54771 0.22546,1.95272 -0.12874,2.37111c-0.56734,0.67013 -2.25329,0.11412 -3.0054,0.11714c-0.23999,-0.03299 -0.47998,-0.06599 -0.71997,-0.09898l-0.04915,-0.14674c-0.09059,0.02415 -0.15978,0.02438 -0.15978,0.02438c-0.11289,-0.03625 -0.2239,-0.07905 -0.33869,-0.10874c-0.18577,-0.04805 0.29075,0.26332 0.37779,0.43432c0.11847,0.23278 0.20772,0.48523 0.24795,0.7433c0.09764,0.62625 -0.09222,1.50403 -0.18697,2.12589c-0.15751,1.03386 -0.31407,2.07689 -0.47462,3.1037c-0.19044,1.21793 0.20637,2.55826 0.2137,3.78379c0.00147,0.45239 0.04022,0.90621 0.00441,1.35718c-0.01009,0.12715 -0.16156,0.27039 -0.08571,0.37293c0.13691,0.18507 0.50864,0.12227 0.60629,0.33074c0.21559,0.46024 -0.03188,1.01619 -0.02863,1.52441l0.00095,0.29083c0,0 0.00189,0.58192 -0.58004,0.58381c-0.11405,0.00037 -0.20583,-0.02168 -0.27967,-0.0574c-0.40745,0.42631 -1.16147,0.35033 -1.65821,0.35452c-1.37881,0.01163 -2.73844,0.1252 -4.06272,-0.30747l0.08718,0.02957c0,0 -0.58193,0.0019 -0.58382,-0.58003z"/></g><g fill="none" stroke="#000000" stroke-linecap="round"><g><path d="M264.37108,164.02095l0.05515,16.96475c0,0 -2.10696,0.68545 -3.17728,0.68893c-1.0284,0.00334 -3.1239,-0.66845 -3.1239,-0.66845l-0.03782,-11.63297l-4.94402,0.01607"/><path d="M257.98971,169.37409l-4.94402,0.01607l0.03781,11.63298c0,0 -2.09184,0.78234 -3.17642,0.78587c-1.01058,0.00329 -3.12477,-0.76538 -3.12477,-0.76538l-0.05515,-16.96475"/></g><path d="M246.74119,164.13468l-0.03971,-12.21463c0,0 1.17001,-3.85241 3.59034,-5.8003c1.55343,-1.25021 4.25158,-0.91981 5.40797,-0.90996c1.1527,0.00981 4.19083,-0.09119 5.69192,1.19846c2.30888,1.98366 2.96234,5.66206 2.96234,5.66206l0.03877,11.9238"/><path d="M264.29023,153.12159l4.26542,-0.01387l0.04444,13.66875l-4.07155,0.01324"/></g><g stroke-linecap="butt"><path d="M253.11168,151.59874c3.15882,-0.01027 5.7249,1.63068 5.73151,3.66518c0.00662,2.03449 -2.54874,3.6921 -5.70756,3.70237c-3.15882,0.01027 -5.72491,-1.63069 -5.73153,-3.66518c-0.00662,-2.03449 2.54876,-3.6921 5.70758,-3.70237z" fill="#00fff4" stroke="#000000"/><path d="M248.83124,153.92321l0.59164,-0.51077c0.4047,-0.20202 0.76314,-0.48978 1.17022,-0.68693c0.64788,-0.31377 1.3656,-0.37835 2.06336,-0.49698c0,0 1.14739,-0.19507 1.34246,0.95232c0.19507,1.14739 -0.95233,1.34247 -0.95233,1.34247c-1.05462,0.1793 -1.62618,0.48524 -2.57597,0.96771l0.0119,0.07277c0,0 -0.82029,0.82564 -1.64594,0.00535c-0.82565,-0.82029 -0.00535,-1.64594 -0.00535,-1.64594z" fill="#ffffff" stroke="none"/></g></g><g><path d="M230.46264,158.70725c0.07539,0 0.14908,0.00717 0.22047,0.02086c0.127,-0.50863 0.32093,-0.99077 0.57189,-1.43651c0.0443,-0.11105 0.09792,-0.21803 0.1643,-0.31954c0.04994,-0.07637 0.10215,-0.15222 0.15651,-0.22719c0.00141,-0.00306 0.00281,-0.00612 0.00422,-0.00919c0.10584,-3.01733 2.50884,-5.45036 5.5138,-5.60392c0.30516,-0.11282 0.6195,-0.20628 0.94273,-0.2785c1.31555,-0.29388 2.6444,-0.14878 3.90308,0.27735c2.23331,0.10522 4.13724,1.46935 5.01801,3.39864c0.00134,0.00146 0.00269,0.00292 0.00403,0.00439c1.99362,2.16953 1.76594,5.22271 1.87596,7.92744c0.06816,1.67573 0.22056,3.36038 0.01776,5.03623c-0.08114,0.67054 -0.17711,1.36518 -0.34313,2.03879c0.15968,0.36016 0.24839,0.75878 0.24839,1.17813c0,0.4493 -0.10184,0.87481 -0.28368,1.25472c0.04007,1.2249 -0.04817,2.49578 -0.09944,3.72567c0.20632,0.39945 0.32283,0.85284 0.32283,1.33342c0,0.46902 -0.11096,0.91211 -0.30809,1.30447c0.01117,0.13188 0.02453,0.26229 0.04039,0.39109c0.25126,2.04102 0.48807,4.22846 0.08689,6.26095c-0.03405,0.17249 -0.06551,0.34738 -0.10022,0.52124c0.112,0.17883 0.17674,0.39028 0.17674,0.61686c0,0.61067 -0.47031,1.11148 -1.06848,1.16001c-0.07212,0.05582 -0.15042,0.10827 -0.23556,0.15692c-1.14736,0.65563 -2.69717,0.61551 -3.65933,-0.25015c-0.63413,-0.01003 -1.14509,-0.5272 -1.14509,-1.16371c0,-0.20721 0.05415,-0.40178 0.14907,-0.57031c-0.15871,-0.35924 -0.24685,-0.75665 -0.24685,-1.17464c0,-0.32187 0.05227,-0.63152 0.14876,-0.92095c-0.0965,-0.28942 -0.14876,-0.59908 -0.14876,-0.92095c0,-0.44562 0.10017,-0.86783 0.27923,-1.24536c-0.01248,-0.0525 -0.02354,-0.10556 -0.03314,-0.15913c-0.09675,-0.28976 -0.14915,-0.59982 -0.14915,-0.92212c0,-0.34175 0.05892,-0.66973 0.16715,-0.97436c-0.02538,-0.15375 -0.04542,-0.3061 -0.05062,-0.45456c-0.04177,-1.19239 0.07855,-2.29421 0.09925,-3.44629c-0.28268,-0.10638 -0.54803,-0.22518 -0.86085,-0.2361c-0.13115,-0.00458 -0.25923,-0.00795 -0.38451,-0.01028c-0.46175,0.1179 -0.94558,0.18058 -1.44406,0.18058c-0.42606,0 -0.84142,-0.04579 -1.24144,-0.13271c-0.3251,0.0067 -0.64816,0.00832 -0.97969,-0.00141c-0.07647,0.99266 -0.41636,1.95643 -0.42077,2.98349c-0.01038,2.41824 0.1009,4.83863 0,7.25478c-0.03712,0.8889 -0.36336,1.65461 -0.92286,2.1771c-0.10652,-0.01317 -0.21147,-0.02785 -0.3109,-0.05006c-0.52326,-0.11686 -1.18492,0.44286 -1.59403,0.40126c-0.46991,-0.04778 -1.155,-0.19721 -1.69941,-0.06411c-0.19391,-0.12453 -0.36822,-0.27271 -0.52143,-0.44138c-0.07332,-0.03483 -0.14495,-0.07263 -0.21475,-0.11326c-0.55942,-0.04977 -1.00498,-0.49534 -1.05475,-1.05476c-0.25002,-0.42952 -0.39323,-0.92886 -0.39323,-1.46166c0,-0.59758 0.18014,-1.15306 0.48908,-1.61515c-0.16584,-3.19518 -0.173,-7.03422 -0.08172,-10.38044c0.00272,-0.0999 0.00599,-0.21122 0.01064,-0.33149c-0.3377,0.13553 -0.74699,0.21097 -1.24364,0.21097c-0.46032,0 -0.85113,-0.07959 -1.18259,-0.22427c-0.20873,0.19839 -0.49098,0.32013 -0.80168,0.32013c-0.64278,0 -1.16387,-0.52108 -1.16387,-1.16387c0,-0.17772 0.03983,-0.34613 0.11105,-0.4968c-0.0093,-0.05924 -0.01412,-0.11995 -0.01412,-0.18179c0,-0.29278 0.10811,-0.56031 0.28658,-0.76485c-0.26925,-1.21541 -0.22525,-2.68564 -0.17719,-3.96841c-0.10662,-0.4405 -0.16311,-0.90058 -0.16311,-1.37385c0,-0.49122 0.06087,-0.96822 0.17545,-1.42388c0.002,-0.20207 0.00916,-0.41588 0.02482,-0.63388c-0.00332,-0.05687 -0.005,-0.11418 -0.005,-0.1719c0,-0.2517 0.03196,-0.49595 0.09204,-0.72888c-0.14952,-0.19578 -0.23833,-0.4404 -0.23833,-0.70577c0,-0.17298 0.03773,-0.33714 0.10542,-0.48471c-0.06769,-0.14757 -0.10542,-0.31174 -0.10542,-0.48472c0,-0.64278 0.52107,-1.16386 1.16386,-1.16386c0.2588,0 0.49788,0.08447 0.69116,0.22736c0.08916,-0.02187 0.18236,-0.03348 0.27826,-0.03348c0.13596,0 0.26648,0.02331 0.38777,0.06616c0.09268,-0.03275 0.19076,-0.05408 0.29254,-0.06232c0.21321,-0.24023 0.5243,-0.39161 0.87077,-0.39161zM236.83122,160.79344c-0.54316,0.81474 0.73221,2.61427 1.52577,2.85754c0.35208,0.10793 0.70397,0.24743 1.06938,0.28393c0.3984,0.2884 1.50743,0.46912 1.71042,0.49175c0.98038,0.10927 2.17256,0.21887 3.08399,-0.26531c0.28851,-0.03454 0.57228,-0.09251 0.82633,-0.21953c0.09918,-0.0496 0.19916,-0.10639 0.29894,-0.16965c1.3317,-0.38234 2.33354,-1.18204 2.33354,-2.77277c0,-0.42168 -0.09625,-0.86149 -0.30547,-1.22762c-0.06518,-0.11406 -0.20362,-0.15082 -0.33558,-0.19749c0.0108,-0.08557 0.00888,-0.16631 -0.04015,-0.23071c-0.2599,-0.34142 -0.59808,-0.64057 -0.98187,-0.83246c-0.23045,-0.11522 -0.5351,-0.17184 -0.82283,-0.21974c-0.59873,-0.26175 -1.32557,-0.32776 -1.86716,-0.45899c-1.01919,-0.24696 -2.9232,-0.34444 -4.00013,0.19402c-0.30136,0.15069 -0.54746,0.34506 -0.74251,0.57005c-0.22741,0.02647 -0.45167,0.05965 -0.61468,0.20549c-0.13464,0.12046 -0.23588,0.26785 -0.32232,0.42722c-0.3889,0.36097 -0.65423,0.85325 -0.72543,1.40633z" fill="#9966ff" stroke="none" stroke-linecap="butt"/><g fill="#6b48b3" stroke="none" stroke-linecap="butt"><path d="M248.90515,186.15308c0,0.58193 -0.58193,0.58193 -0.58193,0.58193l-0.39763,-0.02985c-0.18099,0.05982 -0.36199,0.11962 -0.54298,0.17944c-1.05533,0.5182 -2.15976,0.57059 -3.32485,0.52902c-0.31062,-0.01109 -0.65731,0.09046 -0.93068,-0.05743c-0.31244,-0.16904 -0.5458,-0.48967 -0.6848,-0.81659c-0.11372,-0.26744 -0.02666,-0.58066 -0.03281,-0.8712c-0.01501,-0.70885 0.04751,-1.37554 0.09841,-2.07704c0.04913,-0.67708 -0.0507,-1.36524 0.00052,-2.04253c0.06479,-0.8567 0.19461,-1.70704 0.1919,-2.56943c0,0 0.00001,-0.58192 0.58193,-0.58192c0.58193,0 0.58193,0.58192 0.58193,0.58192c-0.00485,1.77623 -0.16357,3.59889 -0.2923,5.37306c-0.03174,0.4375 0.01381,0.87747 0.00146,1.31594c-0.00602,0.21373 -0.15234,0.60002 0.05792,0.63881c0.97054,0.17901 2.43294,-0.05227 3.30596,-0.49784c0.20677,-0.06944 0.41355,-0.13889 0.62032,-0.20833l0.76567,-0.02985c0,0 0.58194,0 0.58194,0.58193z"/><path d="M237.75683,186.34697c0,0.58193 -0.58193,0.58193 -0.58193,0.58193l0.08707,-0.02987c-1.32286,0.43697 -2.68286,0.32783 -4.0617,0.32069c-0.49676,-0.00258 -1.25051,0.07585 -1.65935,-0.34913c-0.07373,0.03596 -0.16544,0.05831 -0.27949,0.05831c-0.58193,0 -0.58192,-0.58193 -0.58192,-0.58193v-0.29082c0.0016,-0.50823 -0.24767,-1.06338 -0.03358,-1.52431c0.09697,-0.20878 0.46889,-0.14718 0.6052,-0.3327c0.07552,-0.10279 -0.0764,-0.24554 -0.08692,-0.37266c-0.03727,-0.45085 0,-0.9048 0,-1.35719c0.00334,-1.22555 0.3958,-2.56716 0.2014,-3.78447c-0.16389,-1.02629 -0.32384,-2.06879 -0.48471,-3.10214c-0.09677,-0.62154 -0.28949,-1.49872 -0.19388,-2.12527c0.0394,-0.25821 0.12782,-0.51094 0.24554,-0.7441c0.08649,-0.17128 0.56198,-0.48421 0.37637,-0.43555c-0.1147,0.03008 -0.22556,0.07323 -0.33834,0.10984c0,0 -0.0692,0 -0.15986,-0.02386l-0.04866,0.14691c-0.23988,0.03377 -0.47976,0.06756 -0.71964,0.10133c-0.75213,-0.00058 -2.43624,0.56091 -3.00576,-0.10738c-0.35557,-0.41723 -0.09732,-1.82309 -0.13645,-2.37067c-0.17559,-2.45732 -0.40215,-4.9559 0.00646,-7.40758c0,0 0.09567,-0.574 0.66968,-0.47834c0.57401,0.09566 0.47834,0.66968 0.47834,0.66968c-0.3933,2.35983 -0.16242,4.76866 0.00646,7.13372c0.03321,0.46496 0.06635,0.93685 0.00146,1.39845c-0.01542,0.10972 -0.14162,0.19171 -0.13791,0.30245c0.00202,0.06024 0.08626,-0.09291 0.1444,-0.1088c0.18963,-0.05187 0.38869,-0.05922 0.58283,-0.09014c0.43188,-0.06877 0.87066,-0.102 1.30799,-0.10233c0.0376,-0.00546 0.07519,-0.01091 0.11278,-0.01637c0.04967,-0.07905 0.12857,-0.15383 0.24987,-0.21449c0.24206,-0.12103 0.42784,-0.07319 0.55733,0.01262c0.05443,-0.00904 0.09068,-0.00905 0.09068,-0.00905c0.94545,0.10192 1.45763,-0.14901 1.44926,1.24082c-0.00265,0.43865 -0.51637,0.74587 -0.58401,1.17928c-0.05608,0.35938 0.13857,0.71431 0.19388,1.07381c0.09265,0.60217 0.24632,1.2729 0.29636,1.88711c0.03552,0.43589 -0.0745,0.88012 -0.00554,1.31197c0.11458,0.7175 0.25668,1.32296 0.19942,2.08005c-0.06247,0.82615 -0.19451,1.64036 -0.1919,2.47249c0,0.52377 0.14256,1.57172 -0.01554,2.153c0.20943,0.17 0.20943,0.46443 0.20943,0.46443c0,0.22619 0.02429,0.45371 0,0.6786c-0.01273,0.11789 -0.14514,0.22513 -0.10984,0.33833c0.02051,0.0658 0.13398,-0.0361 0.20277,-0.04027c0.19478,-0.01181 0.39024,-0.00636 0.58537,-0.00752c1.24533,-0.0074 2.50069,0.14086 3.69367,-0.26096l0.28097,-0.02987c0,0 0.58192,0.00001 0.58192,0.58194z"/></g><g fill="none" stroke="#000000" stroke-linecap="round"><g><path d="M242.28645,175.20492h-4.94404v11.63304c0,0 -2.09332,0.67859 -3.12172,0.67859c-1.07033,0 -3.17951,-0.67859 -3.17951,-0.67859v-16.96485"/><path d="M248.68518,169.87366v16.96485c0,0 -2.11167,0.77553 -3.12226,0.77553c-1.08459,0 -3.17896,-0.77553 -3.17896,-0.77553v-11.63304h-4.94403"/></g><path d="M231.01935,169.84633v-11.92387c0,0 0.6415,-3.6805 2.94393,-5.67166c1.49689,-1.29452 4.53533,-1.20339 5.688,-1.21695c1.15635,-0.01361 3.85341,-0.35278 5.4109,0.89238c2.42665,1.94001 3.60917,5.78861 3.60917,5.78861v12.21469"/><path d="M230.89271,172.64236h-4.07156v-13.66882h4.26545"/></g><g stroke-linecap="butt"><path d="M247.97971,161.09815c0,2.0345 -2.56073,3.6838 -5.71957,3.6838c-3.15884,0 -5.71958,-1.64929 -5.71958,-3.6838c0,-2.0345 2.56074,-3.6838 5.71958,-3.6838c3.15884,0 5.71957,1.64929 5.71957,3.6838z" fill="#00fff4" stroke="#000000"/><path d="M246.5481,161.37085c-0.82297,0.82297 -1.64595,0 -1.64595,0l0.01166,-0.0728c-0.95136,-0.47938 -1.5239,-0.78346 -2.5791,-0.95933c0,0 -1.14803,-0.19134 -0.95669,-1.33936c0.19134,-1.14802 1.33937,-0.95669 1.33937,-0.95669c0.69815,0.11636 1.41606,0.17862 2.06495,0.49028c0.40772,0.19583 0.7671,0.48241 1.17245,0.68311l0.59331,0.50885c0,0 0.82297,0.82297 0,1.64594z" fill="#ffffff" stroke="none"/></g></g><g><path d="M210.78385,175.49125c0.07449,-0.01157 -0.58552,-0.47453 -0.51288,-0.47197c0.04739,-0.52211 0.16499,-1.0283 0.34452,-1.50729c0.02672,-0.11653 0.06328,-0.23048 0.11328,-0.34098c0.03762,-0.08313 0.07756,-0.16609 0.11977,-0.24853c0.00092,-0.00324 0.00184,-0.00648 0.00277,-0.00972c-0.35875,-2.99779 1.64212,-5.77097 4.58786,-6.38414c0.28422,-0.15834 0.58046,-0.29897 0.88878,-0.41996c1.25482,-0.49241 2.59019,-0.55309 3.89938,-0.32529c2.22298,-0.23897 4.31379,0.81662 5.48039,2.58778c0.00155,0.00124 0.0031,0.00248 0.00465,0.00371c2.30312,1.83766 2.54699,4.88959 3.07104,7.54534c0.32468,1.64539 0.73396,3.28666 0.79091,4.97377c0.02279,0.67505 0.03462,1.37618 -0.026,2.06729c0.21309,0.33137 0.36197,0.71165 0.42637,1.12602c0.069,0.44397 0.03369,0.88008 -0.08766,1.2834c0.22769,1.20422 0.33566,2.47359 0.47386,3.69676c0.26522,0.36303 0.44997,0.79314 0.52376,1.26802c0.07202,0.46346 0.03041,0.91834 -0.10413,1.33631c0.03128,0.12859 0.06453,0.2554 0.09998,0.38025c0.56169,1.97824 1.13159,4.10338 1.04727,6.17336c-0.00716,0.17568 -0.01138,0.35332 -0.01898,0.53044c0.13813,0.15951 0.23457,0.35851 0.26936,0.5824c0.09377,0.60343 -0.29406,1.17052 -0.87769,1.31033c-0.06269,0.06624 -0.13199,0.13008 -0.20865,0.19123c-1.03307,0.82404 -2.57067,1.02238 -3.65435,0.31474c-0.62814,0.08747 -1.21247,-0.34511 -1.31021,-0.97407c-0.03182,-0.20476 -0.00818,-0.40533 0.05973,-0.58644c-0.212,-0.33061 -0.36011,-0.70977 -0.4243,-1.1228c-0.04943,-0.31805 -0.04533,-0.63206 0.00557,-0.93288c-0.1398,-0.27117 -0.23899,-0.56913 -0.28841,-0.88718c-0.06843,-0.44033 -0.03428,-0.87292 0.08468,-1.27347c-0.0204,-0.04996 -0.03947,-0.10069 -0.05718,-0.15215c-0.1401,-0.27147 -0.2395,-0.5698 -0.28898,-0.88828c-0.05248,-0.33769 -0.04462,-0.67085 0.01555,-0.98848c-0.04869,-0.14803 -0.09188,-0.29548 -0.11982,-0.44138c-0.22438,-1.17183 -0.27468,-2.27906 -0.43113,-3.42066c-0.29567,-0.06171 -0.57611,-0.13836 -0.8869,-0.10112c-0.1303,0.01561 -0.25737,0.03197 -0.38153,0.0489c-0.43816,0.18741 -0.90664,0.32364 -1.39921,0.40018c-0.42101,0.06543 -0.83847,0.08396 -1.2471,0.05949c-0.32021,0.05654 -0.63918,0.10774 -0.96828,0.14905c0.07687,0.99263 -0.111,1.99717 0.04236,3.01272c0.36109,2.39115 0.8427,4.76574 1.11403,7.16874c0.09982,0.88406 -0.10497,1.69078 -0.5776,2.29299c-0.10727,0.00334 -0.21323,0.00495 -0.3149,-0.00172c-0.535,-0.03512 -1.10287,0.61957 -1.51351,0.64129c-0.47168,0.02495 -1.17159,-0.01752 -1.6891,0.19761c-0.21072,-0.09328 -0.40573,-0.21293 -0.58302,-0.35608c-0.0778,-0.02316 -0.15438,-0.04951 -0.22958,-0.07894c-0.56043,0.03672 -1.06914,-0.33515 -1.20422,-0.88028c-0.31302,-0.38603 -0.53119,-0.85746 -0.61301,-1.38394c-0.09177,-0.59049 0.00094,-1.16705 0.23526,-1.6711c-0.65452,-3.13181 -1.25112,-6.92422 -1.67476,-10.24477c-0.01265,-0.09913 -0.02652,-0.20963 -0.04039,-0.3292c-0.31288,0.18578 -0.70573,0.32317 -1.19648,0.39943c-0.45486,0.07068 -0.85326,0.05206 -1.20301,-0.04c-0.17579,0.22808 1.30711,0.48347 1.0001,0.53118c-0.63515,0.0987 -0.2684,-12.93103 0.07395,-12.98423zM216.66331,176.11603c-0.41161,0.88849 1.12497,2.47084 1.94647,2.58937c0.36449,0.05258 0.73361,0.13639 1.10028,0.11634c0.43796,0.2238 1.56159,0.23208 1.76565,0.22326c0.98553,-0.04257 2.18041,-0.11733 3.00668,-0.73574c0.27979,-0.07843 0.55127,-0.17929 0.78281,-0.34382c0.09039,-0.06423 0.18047,-0.13572 0.26936,-0.21354c1.2572,-0.58229 2.12435,-1.52635 1.88008,-3.09822c-0.06475,-0.41668 -0.2274,-0.8365 -0.49036,-1.16616c-0.08192,-0.1027 -0.22437,-0.11777 -0.36193,-0.14361c-0.00247,-0.08622 -0.01676,-0.16569 -0.0751,-0.22181c-0.30924,-0.29746 -0.68936,-0.54113 -1.09806,-0.67181c-0.24541,-0.07847 -0.55514,-0.08763 -0.84682,-0.09078c-0.63182,-0.16671 -1.36017,-0.12032 -1.91549,-0.16683c-1.04503,-0.08752 -2.94142,0.10852 -3.92289,0.80597c-0.27465,0.19518 -0.48798,0.42505 -0.64617,0.67732c-0.22064,0.06107 -0.43716,0.12829 -0.57583,0.29743c-0.11454,0.13971 -0.19196,0.3009 -0.25289,0.47165c-0.32887,0.4164 -0.51545,0.94359 -0.50087,1.50105z" fill="#676767" stroke="none" stroke-linecap="butt"/><g fill="#000000" stroke="none" stroke-linecap="butt"><path d="M232.48822,199.32084c0.08936,0.57503 -0.48566,0.6644 -0.48566,0.6644l-0.39751,0.03155c-0.16966,0.0869 -0.33932,0.1738 -0.50898,0.26071c-0.96323,0.67411 -2.04653,0.89546 -3.20418,1.03329c-0.30864,0.03674 -0.63562,0.19033 -0.92846,0.08616c-0.3347,-0.11906 -0.61452,-0.40005 -0.80208,-0.70175c-0.15343,-0.2468 -0.11551,-0.56969 -0.1662,-0.85584c-0.12368,-0.69814 -0.16429,-1.36651 -0.22171,-2.06751c-0.05543,-0.67659 -0.25974,-1.34126 -0.31313,-2.01838c-0.06754,-0.85648 -0.06983,-1.71667 -0.20494,-2.56842c0,0 -0.08936,-0.57503 0.48567,-0.66439c0.57503,-0.08936 0.66439,0.48567 0.66439,0.48567c0.26796,1.75591 0.39101,3.58132 0.53625,5.35422c0.03582,0.43718 0.14839,0.86493 0.20352,1.3001c0.02687,0.21212 -0.0584,0.6163 0.15533,0.62234c0.98652,0.02785 2.39606,-0.42526 3.1903,-0.9996c0.19366,-0.10037 0.38732,-0.20074 0.58098,-0.3011l0.752,-0.14708c0,0 0.57503,-0.08936 0.66439,0.48567z"/><path d="M221.50189,201.22435c0.08936,0.57503 -0.48567,0.66439 -0.48567,0.66439l0.08146,-0.04288c-1.24007,0.63493 -2.6007,0.73592 -3.96428,0.94059c-0.49126,0.07374 -1.22404,0.26698 -1.69328,-0.09018c-0.06734,0.04685 -0.15452,0.08302 -0.26722,0.10054c-0.57503,0.08936 -0.66439,-0.48567 -0.66439,-0.48567l-0.04466,-0.28737c-0.07646,-0.50244 -0.40803,-1.01274 -0.26726,-1.50108c0.06376,-0.22119 0.44073,-0.21744 0.54693,-0.42168c0.05884,-0.11317 -0.1132,-0.2309 -0.1431,-0.35489c-0.10607,-0.43978 -0.13894,-0.89407 -0.2084,-1.34109c-0.18489,-1.21153 -0.00311,-2.59749 -0.38213,-3.77051c-0.31954,-0.98895 -0.63767,-1.99453 -0.95532,-2.99092c-0.19107,-0.59931 -0.5162,-1.43649 -0.51794,-2.0703c-0.00072,-0.26119 0.04784,-0.52451 0.12836,-0.77298c0.05916,-0.18253 0.48098,-0.56476 0.30504,-0.48818c-0.10871,0.04733 -0.21164,0.107 -0.31745,0.16051c0,0 -0.06838,0.01061 -0.16163,0.00096l-0.02553,0.15264c-0.23184,0.0702 -0.4637,0.14042 -0.69555,0.21063c-0.74329,0.11492 -2.32121,0.92836 -2.9866,0.35545c-0.41541,-0.35769 -0.37611,-1.78652 -0.49886,-2.3216c-0.55085,-2.40122 0.03267,-7.30792 0.03267,-7.30792c-0.02627,2.39223 0.57177,4.73704 1.10183,7.04812c0.10421,0.45435 0.20942,0.91555 0.21619,1.38164c0.00161,0.11079 -0.11051,0.21118 -0.08983,0.32003c0.01124,0.05921 0.07098,-0.10506 0.12597,-0.12969c0.17941,-0.08038 0.375,-0.1182 0.56209,-0.17856c0.4162,-0.13427 0.84466,-0.23448 1.27676,-0.30196c0.03632,-0.01117 0.07262,-0.02233 0.10894,-0.0335c0.03695,-0.08573 0.10342,-0.17174 0.21397,-0.25031c0.22061,-0.15677 0.41153,-0.13803 0.55266,-0.07312c0.05239,-0.01729 0.08822,-0.02287 0.08822,-0.02287c0.94988,-0.04446 1.41745,-0.37107 1.6226,1.00356c0.06474,0.43385 -0.39571,0.81631 -0.396,1.25497c-0.00024,0.36372 0.24662,0.68457 0.35648,1.03131c0.18401,0.5808 0.43885,1.21997 0.58262,1.81922c0.10202,0.42526 0.06154,0.88112 0.196,1.29726c0.2234,0.6914 0.45677,1.26784 0.51646,2.02475c0.06513,0.82594 0.05969,1.65078 0.19004,2.47263c0.08043,0.51755 0.38222,1.53119 0.31525,2.12986c0.23305,0.13583 0.27827,0.42675 0.27827,0.42675c0.03474,0.22351 0.09367,0.4446 0.10421,0.67055c0.00552,0.11845 -0.10885,0.24475 -0.05659,0.35119c0.03037,0.06187 0.12686,-0.05625 0.19419,-0.07093c0.19066,-0.04158 0.38464,-0.0662 0.57728,-0.09732c1.22942,-0.19854 2.49266,-0.24481 3.60978,-0.82506l0.27304,-0.07265c0,0 0.57503,-0.08935 0.66439,0.48567z"/></g><g fill="none" stroke="#000000" stroke-linecap="round"><g><path d="M224.26683,189.51888l-4.88539,0.7592l1.78635,11.49507c0,0 -1.96429,0.99199 -2.9805,1.14991c-1.05764,0.16436 -3.246,-0.1823 -3.246,-0.1823l-2.6051,-16.76363"/><path d="M229.77102,183.26829l2.6051,16.76364c0,0 -1.96754,1.0906 -2.96615,1.24578c-1.07172,0.16655 -3.26035,-0.27818 -3.26035,-0.27818l-1.78635,-11.49507l-4.88541,0.7592"/></g><path d="M212.31052,185.95401l-1.83101,-11.78245c0,0 0.06871,-3.73535 2.03807,-6.05645c1.28035,-1.50903 4.29674,-1.88556 5.43365,-2.07596c1.14055,-0.19101 3.75355,-0.94031 5.48377,0.05091c2.69577,1.54438 4.45525,5.16573 4.45525,5.16573c0,0 0.73656,4.73973 1.0677,6.87059c0.28806,1.85365 0.80797,5.19922 0.80797,5.19922"/><path d="M212.61473,188.73632l-1.55828,0.85056l-0.41057,-13.55258l0.06147,-0.83445"/></g><g stroke-linecap="butt"><path d="M227.72636,174.70518c0.31241,2.01038 -1.9647,4.03332 -5.08607,4.51839c-3.12138,0.48506 -5.905,-0.75143 -6.21741,-2.76181c-0.31241,-2.01038 1.96468,-4.03333 5.08606,-4.51839c3.12138,-0.48506 5.90501,0.75144 6.21742,2.76182z" fill="#00fff4" stroke="#000000"/><path d="M226.35361,175.19448c-0.68684,0.93958 -1.62642,0.25275 -1.62642,0.25275l0.00034,-0.07373c-1.01369,-0.32761 -1.62614,-0.54016 -2.69583,-0.55191c0,0 -1.16379,-0.01278 -1.15101,-1.17657c0.01278,-1.16379 1.17657,-1.15101 1.17657,-1.15101c0.70774,0.00778 1.42669,-0.04095 2.11575,0.16737c0.43296,0.1309 0.83209,0.35889 1.26345,0.49498l0.6644,0.41169c0,0 0.93958,0.68684 0.25275,1.62643z" fill="#ffffff" stroke="none"/></g></g><g><path d="M256.58555,188.75139c-0.03163,-0.06843 -0.05604,-0.13833 -0.07358,-0.20888c-0.51498,0.09812 -1.03401,0.12437 -1.54391,0.08358c-0.11939,0.00638 -0.239,0.00259 -0.35898,-0.01507c-0.09028,-0.01329 -0.18103,-0.02886 -0.27189,-0.04675c-0.00338,0 -0.00673,0.00002 -0.01011,0.00002c-2.78331,1.16988 -6.00004,0.00943 -7.4002,-2.65383c-0.23045,-0.22967 -0.44717,-0.47578 -0.64834,-0.73889c-0.81872,-1.07085 -1.24454,-2.33796 -1.38582,-3.65929c-0.8415,-2.07138 -0.40206,-4.37196 0.97967,-5.98093c0.00077,-0.00183 0.00153,-0.00366 0.00229,-0.00549c1.13289,-2.71991 3.99988,-3.79425 6.40886,-5.02892c1.4925,-0.76495 2.95777,-1.6101 4.56406,-2.12914c0.64271,-0.20768 1.31352,-0.412 1.99463,-0.54392c0.25993,-0.29605 0.58456,-0.54383 0.96521,-0.71977c0.40784,-0.18851 0.83681,-0.27459 1.25796,-0.26891c1.09506,-0.5503 2.28571,-1.00343 3.42362,-1.4729c0.27603,-0.35488 0.63869,-0.65086 1.07493,-0.8525c0.42575,-0.19679 0.87451,-0.28196 1.31336,-0.26764c0.11502,-0.06546 0.22778,-0.13232 0.33805,-0.20076c1.74727,-1.08441 3.12252,5.04214 2.80059,5.0717c-0.12892,0.08755 -0.2588,0.16966 -0.39137,0.23668c-1.06484,0.5382 -2.11548,0.89126 -3.16994,1.35583c0.02204,0.30123 0.02553,0.59195 0.14686,0.88049c0.05087,0.12097 0.10155,0.23863 0.152,0.35333c0.30075,0.36968 0.56065,0.78257 0.76979,1.23505c0.17876,0.38674 0.31147,0.78299 0.40041,1.18257c0.14248,0.29229 0.27948,0.58485 0.40975,0.88988c0.93315,-0.34707 0.08785,-0.4429 1.02199,-0.86982c1.159,-0.52968 -0.12678,1.43832 -0.17829,3.52283c-0.04624,1.87132 1.28672,3.81823 -0.16827,4.44317c-0.09182,0.03944 -0.19423,0.08318 -0.30536,0.12942c0.2647,0.24967 0.50491,0.58953 0.71328,1.04036c0.19313,0.41784 0.28486,0.80599 0.2926,1.16757c0.1437,0.05704 -0.82635,0.53116 -0.78581,1.05561c0.03497,0.4524 1.11482,0.95767 0.8446,1.08257c-0.16132,0.07457 -0.33091,0.10906 -0.49756,0.10763c-0.04987,0.03329 -0.10296,0.06314 -0.15909,0.08908c-0.26576,0.12284 -0.55397,0.13696 -0.81451,0.06077c-0.9903,0.75435 -2.34332,1.33126 -3.5279,1.82584c-0.35512,0.2816 -0.74904,0.5259 -1.17864,0.72447c-0.4459,0.2061 -0.90442,0.35098 -1.36611,0.43814c-0.18426,0.08296 -0.38134,0.16618 -0.5858,0.24344c-0.05023,0.02687 -0.10156,0.05244 -0.15395,0.07666c-0.22848,0.1056 -0.46359,0.17907 -0.70024,0.22226c-0.11498,0.21787 -0.29977,0.40112 -0.54065,0.51246c-0.15702,0.07258 -0.32187,0.1072 -0.48422,0.10768c-0.10555,0.12336 -0.23873,0.22648 -0.39575,0.29906c-0.58347,0.26969 -1.27509,0.01532 -1.54478,-0.56816c-0.10859,-0.23493 -0.13221,-0.48738 -0.08361,-0.72277c-0.05726,-0.07175 -0.1069,-0.15149 -0.14713,-0.23854c-0.05705,-0.12342 -0.09064,-0.25167 -0.10263,-0.37974c-0.06861,-0.07039 -0.12913,-0.15047 -0.17931,-0.2394c-0.30752,-0.09275 -0.57545,-0.31162 -0.72081,-0.62611zM255.90526,182.18951c0.96745,0.15121 2.06583,-1.7615 1.95371,-2.5839c-0.04975,-0.36488 -0.07076,-0.74282 -0.19094,-1.08982c0.09463,-0.48264 -0.20661,-1.56515 -0.27124,-1.75891c-0.31214,-0.93576 -0.71285,-2.06393 -1.53476,-2.68812c-0.1524,-0.2474 -0.32408,-0.48065 -0.54597,-0.65796c-0.08663,-0.06922 -0.18014,-0.13616 -0.27942,-0.2002c-0.90579,-1.04841 -2.05204,-1.62228 -3.49599,-0.95487c-0.38278,0.17692 -0.74161,0.44882 -0.98618,0.79235c-0.07619,0.10701 -0.05148,0.24812 -0.03847,0.38747c-0.0822,0.0261 -0.15469,0.06171 -0.19258,0.13324c-0.20088,0.37916 -0.33052,0.81166 -0.34369,1.24055c-0.0079,0.25752 0.06853,0.55781 0.14577,0.83909c0.0136,0.6533 0.25864,1.34077 0.36675,1.88744c0.20344,1.02876 0.9138,2.79799 1.85442,3.54962c0.26322,0.21033 0.54291,0.35217 0.82898,0.43482c0.11944,0.19531 0.24365,0.38497 0.44442,0.47174c0.16584,0.07167 0.34211,0.10174 0.52303,0.11333c0.49083,0.20157 1.049,0.23587 1.58092,0.06845z" fill="#ff66f2" stroke="none" stroke-linecap="butt"/><g fill="none" stroke="none" stroke-linecap="butt" font-family="sans-serif" font-weight="normal" font-size="12" text-anchor="start"/><g fill="none" stroke="#000000" stroke-linecap="round"><g><path d="M266.69813,171.19115l2.07433,4.48784l-2.19606,7.95682"/><path d="M259.17415,167.61963c0,0 6.59414,-3.01074 7.81715,-2.44156c1.26977,0.59094 -0.33357,5.92434 -0.33357,5.92434l2.07434,4.48784"/></g><path d="M266.56124,183.66685l-10.8236,5.0028c0,0 -3.61004,0.96189 -6.38348,-0.29266c-1.80311,-0.81563 -2.9952,-3.61193 -3.49113,-4.65255c-0.49751,-1.04395 -1.93696,-3.34984 -1.46016,-5.28603c0.74287,-3.01669 3.74018,-5.70482 3.74018,-5.70482l11.0876,-5.12482"/><path d="M269.15241,182.6087l-10.69927,9.43079l-1.78962,-3.87186"/></g><g stroke-linecap="butt"><path d="M251.50437,171.94189c1.84678,-0.8536 4.41827,0.77887 5.7436,3.64623c1.32533,2.86736 0.90261,5.88378 -0.94416,6.73738c-1.84678,0.8536 -4.41827,-0.77886 -5.7436,-3.64622c-1.32533,-2.86736 -0.90261,-5.88379 0.94416,-6.73739z" fill="#00fff4" stroke="#000000"/><path d="M252.35256,173.12698c1.09232,0.40175 0.69057,1.49407 0.69057,1.49407l-0.07098,0.01997c-0.036,1.0647 -0.07179,1.71199 0.21129,2.74361c0,0 0.30799,1.12238 -0.81438,1.43036c-1.12237,0.30799 -1.43035,-0.81438 -1.43035,-0.81438c-0.18729,-0.68255 -0.432,-1.36034 -0.42135,-2.08013c0.00669,-0.45227 0.11604,-0.89872 0.12816,-1.35088l0.21296,-0.75204c0,0 0.40176,-1.09232 1.49408,-0.69058z" fill="#ffffff" stroke="none"/></g></g><g><path d="M244.67506,170.06492c0.34646,0 0.65756,0.15138 0.87077,0.39161c0.10178,0.00824 0.19986,0.02957 0.29254,0.06232c0.12129,-0.04285 0.25181,-0.06616 0.38777,-0.06616c0.0959,0 0.18909,0.0116 0.27825,0.03348c0.19327,-0.14289 0.43236,-0.22736 0.69117,-0.22736c0.64279,0 1.16386,0.52109 1.16386,1.16387c0,0.17298 -0.03774,0.33714 -0.10543,0.48471c0.06769,0.14757 0.10543,0.31174 0.10543,0.48472c0,0.26537 -0.08882,0.50999 -0.23834,0.70577c0.06008,0.23293 0.09204,0.47718 0.09204,0.72888c0,0.05772 -0.00168,0.11503 -0.005,0.1719c0.01566,0.218 0.0228,0.43182 0.02481,0.63388c0.11459,0.45566 0.17547,0.93266 0.17547,1.42388c0,0.47327 -0.0565,0.93334 -0.16311,1.37384c0.04806,1.28277 0.09205,2.75301 -0.1772,3.96842c0.17847,0.20453 0.28658,0.47207 0.28658,0.76485c0,0.06184 -0.00482,0.12256 -0.01412,0.18179c0.07122,0.15067 0.11105,0.31907 0.11105,0.49679c0,0.64279 -0.52108,1.16386 -1.16386,1.16386c-0.3107,0 -0.59296,-0.12174 -0.80169,-0.32012c-0.33147,0.14468 -0.72228,0.22427 -1.18259,0.22427c-0.49665,0 -0.90594,-0.07545 -1.24364,-0.21097c0.00466,0.12027 0.00793,0.23159 0.01065,0.33149c0.09128,3.34622 0.08411,7.18527 -0.08173,10.38044c0.30894,0.46209 0.48908,1.01758 0.48908,1.61516c0,0.5328 -0.14321,1.03214 -0.39324,1.46166c-0.04977,0.55942 -0.49533,1.00499 -1.05475,1.05476c-0.06979,0.04063 -0.14142,0.07843 -0.21474,0.11326c-0.15321,0.16868 -0.32754,0.31687 -0.52144,0.44139c-0.54441,-0.13311 -1.22949,0.01633 -1.6994,0.0641c-0.40911,0.0416 -1.07078,-0.51812 -1.59403,-0.40126c-0.09944,0.02221 -0.20439,0.03688 -0.3109,0.05006c-0.55949,-0.52249 -0.88574,-1.2882 -0.92285,-2.1771c-0.1009,-2.41616 0.01038,-4.83655 0,-7.25478c-0.0044,-1.02705 -0.34431,-1.99083 -0.42078,-2.98349c-0.33154,0.00973 -0.65458,0.00812 -0.97968,0.00142c-0.40002,0.08692 -0.81538,0.1327 -1.24144,0.1327c-0.49848,0 -0.98231,-0.06268 -1.44406,-0.18058c-0.12528,0.00233 -0.25336,0.00569 -0.38451,0.01027c-0.31282,0.01092 -0.57817,0.12973 -0.86085,0.23611c0.0207,1.15208 0.14103,2.2539 0.09925,3.44629c-0.0052,0.14846 -0.02524,0.30081 -0.05062,0.45456c0.10824,0.30463 0.16715,0.63262 0.16715,0.97437c0,0.3223 -0.0524,0.63235 -0.14915,0.92211c-0.00959,0.05357 -0.02065,0.10663 -0.03314,0.15913c0.17906,0.37753 0.27923,0.79974 0.27923,1.24536c0,0.32187 -0.05226,0.63153 -0.14876,0.92095c0.0965,0.28943 0.14876,0.59909 0.14876,0.92095c0,0.41799 -0.08814,0.8154 -0.24685,1.17464c0.09492,0.16853 0.14907,0.3631 0.14907,0.57031c0,0.63651 -0.51096,1.15368 -1.14509,1.16371c-0.96216,0.86566 -2.51198,0.90579 -3.65933,0.25016c-0.08514,-0.04865 -0.16343,-0.1011 -0.23556,-0.15692c-0.59817,-0.04853 -1.06848,-0.54934 -1.06848,-1.16001c0,-0.22658 0.06474,-0.43803 0.17674,-0.61686c-0.03471,-0.17386 -0.06616,-0.34874 -0.10021,-0.52123c-0.40118,-2.03249 -0.16439,-4.21994 0.08687,-6.26096c0.01586,-0.1288 0.02924,-0.2592 0.0404,-0.39108c-0.19712,-0.39236 -0.3081,-0.83545 -0.3081,-1.30447c0,-0.48058 0.11651,-0.93397 0.32283,-1.33342c-0.05127,-1.22989 -0.1395,-2.50078 -0.09943,-3.72568c-0.18185,-0.37991 -0.28369,-0.80542 -0.28369,-1.25472c0,-0.41935 0.08871,-0.81797 0.24839,-1.17813c-0.16602,-0.67361 -0.262,-1.36825 -0.34314,-2.03878c-0.2028,-1.67585 -0.05039,-3.36051 0.01777,-5.03623c0.11003,-2.70472 -0.11766,-5.7579 1.87596,-7.92744c0.00134,-0.00146 0.00269,-0.00292 0.00404,-0.00438c0.88077,-1.92929 2.7847,-3.29342 5.01801,-3.39865c1.25868,-0.42613 2.58752,-0.57123 3.90307,-0.27735c0.32324,0.07221 0.63757,0.16567 0.94274,0.27849c3.00496,0.15356 5.40794,2.58659 5.51378,5.60392c0.00141,0.00306 0.00283,0.00612 0.00423,0.00919c0.05436,0.07497 0.10656,0.15082 0.1565,0.22719c0.06637,0.10151 0.12,0.20849 0.1643,0.31954c0.25096,0.44574 0.4449,0.92788 0.5719,1.43651c0.07139,-0.01369 0.14509,-0.02085 0.22047,-0.02085zM238.21624,171.99319c-0.07119,-0.55308 -0.33652,-1.04536 -0.72543,-1.40633c-0.08643,-0.15937 -0.18768,-0.30676 -0.32232,-0.42722c-0.163,-0.14584 -0.38727,-0.17902 -0.61468,-0.20549c-0.19505,-0.22499 -0.44116,-0.41936 -0.74251,-0.57005c-1.07692,-0.53847 -2.98093,-0.44099 -4.00012,-0.19403c-0.54159,0.13124 -1.26843,0.19724 -1.86716,0.459c-0.28773,0.0479 -0.59238,0.10452 -0.82283,0.21974c-0.38379,0.19189 -0.72198,0.49104 -0.98187,0.83246c-0.04903,0.0644 -0.05095,0.14514 -0.04015,0.23071c-0.13196,0.04666 -0.27041,0.08343 -0.33558,0.19749c-0.20922,0.36613 -0.30547,0.80594 -0.30547,1.22762c0,1.59073 1.00183,2.39044 2.33354,2.77277c0.09978,0.06325 0.19978,0.12005 0.29896,0.16964c0.25405,0.12703 0.53781,0.185 0.82632,0.21954c0.91143,0.48418 2.10362,0.37458 3.084,0.26531c0.20299,-0.02263 1.31201,-0.20336 1.71041,-0.49176c0.36541,-0.0365 0.71729,-0.17599 1.06938,-0.28392c0.79355,-0.24327 2.06893,-2.04281 1.52577,-2.85755z" fill="#fffa66" stroke="none" stroke-linecap="butt"/><g fill="#a5a142" stroke="none" stroke-linecap="butt"><path d="M226.23256,197.51079c0,-0.58193 0.58193,-0.58193 0.58193,-0.58193l0.76568,0.02986c0.20677,0.06944 0.41355,0.13889 0.62033,0.20833c0.87302,0.44557 2.33541,0.67686 3.30595,0.49785c0.21026,-0.03879 0.06395,-0.42508 0.05793,-0.63881c-0.01235,-0.43847 0.03321,-0.87843 0.00146,-1.31593c-0.12873,-1.77418 -0.28744,-3.59683 -0.29229,-5.37306c0,0 0,-0.58193 0.58193,-0.58193c0.58193,0 0.58192,0.58193 0.58192,0.58193c-0.00271,0.86239 0.12712,1.71273 0.19191,2.56943c0.05122,0.67729 -0.04861,1.36544 0.00052,2.04252c0.0509,0.7015 0.11341,1.36818 0.0984,2.07703c-0.00615,0.29054 0.08092,0.60378 -0.0328,0.87122c-0.139,0.32692 -0.37237,0.64755 -0.68481,0.81659c-0.27337,0.1479 -0.62006,0.04635 -0.93068,0.05743c-1.16509,0.04157 -2.26951,-0.01081 -3.32484,-0.52901c-0.18099,-0.05982 -0.36199,-0.11963 -0.54298,-0.17945l-0.39763,0.02985c0,0 -0.58194,0 -0.58194,-0.58192z"/><path d="M237.38089,197.70465c0,-0.58193 0.58192,-0.58193 0.58192,-0.58193l0.28097,0.02987c1.19298,0.40183 2.44833,0.25357 3.69365,0.26096c0.19513,0.00116 0.39059,-0.00429 0.58537,0.00752c0.06879,0.00417 0.18227,0.10607 0.20279,0.04027c0.03529,-0.1132 -0.09711,-0.22045 -0.10984,-0.33834c-0.02429,-0.22489 0,-0.4524 0,-0.6786c0,0 0,-0.29442 0.20943,-0.46442c-0.1581,-0.58129 -0.01555,-1.62923 -0.01555,-2.15301c0.00261,-0.83213 -0.12944,-1.64634 -0.1919,-2.47249c-0.05725,-0.75709 0.08484,-1.36256 0.19942,-2.08006c0.06896,-0.43186 -0.04105,-0.87609 -0.00554,-1.31197c0.05004,-0.61422 0.20371,-1.28494 0.29636,-1.88711c0.05532,-0.3595 0.24998,-0.71444 0.19389,-1.07381c-0.06764,-0.43341 -0.58138,-0.74063 -0.58402,-1.17928c-0.00837,-1.38983 0.50382,-1.1389 1.44926,-1.24082c0,0 0.03625,0.00001 0.09068,0.00905c0.12949,-0.08581 0.31527,-0.13364 0.55734,-0.01261c0.12131,0.06065 0.2002,0.13543 0.24987,0.21447c0.0376,0.00546 0.07519,0.01092 0.11279,0.01638c0.43733,0.00033 0.8761,0.03355 1.30799,0.10232c0.19414,0.03091 0.39321,0.03827 0.58284,0.09015c0.05813,0.0159 0.14238,0.16905 0.14439,0.10881c0.00371,-0.11074 -0.12248,-0.19273 -0.1379,-0.30246c-0.06489,-0.4616 -0.03175,-0.93348 0.00146,-1.39844c0.16888,-2.36506 0.39976,-4.7739 0.00645,-7.13372c0,0 -0.09566,-0.57402 0.47834,-0.66968c0.57401,-0.09566 0.66968,0.47834 0.66968,0.47834c0.40861,2.45167 0.18204,4.95025 0.00645,7.40758c-0.03913,0.54758 0.21913,1.95344 -0.13644,2.37067c-0.56952,0.66829 -2.25364,0.1068 -3.00577,0.10738c-0.23988,-0.03377 -0.47976,-0.06756 -0.71964,-0.10133l-0.04866,-0.14691c-0.09067,0.02386 -0.15986,0.02386 -0.15986,0.02386c-0.11277,-0.03662 -0.22365,-0.07977 -0.33834,-0.10985c-0.18561,-0.04865 0.2899,0.26426 0.37638,0.43554c0.11772,0.23316 0.20614,0.48591 0.24554,0.74411c0.09561,0.62655 -0.09712,1.50373 -0.19389,2.12527c-0.16088,1.03334 -0.32082,2.07586 -0.48471,3.10215c-0.1944,1.21731 0.19805,2.55891 0.20139,3.78446c0,0.45239 0.03727,0.90634 0,1.35719c-0.01051,0.12712 -0.16243,0.26987 -0.08691,0.37266c0.13631,0.18552 0.50823,0.12392 0.6052,0.3327c0.21409,0.46094 -0.03517,1.01609 -0.03357,1.52432v0.29082c0,0 0,0.58193 -0.58193,0.58193c-0.11406,0 -0.20576,-0.02235 -0.27949,-0.0583c-0.40884,0.42498 -1.16259,0.34655 -1.65935,0.34913c-1.37884,0.00715 -2.73885,0.11629 -4.06171,-0.32069l0.08708,0.02987c0,0 -0.58193,-0.00001 -0.58193,-0.58194z"/></g><g fill="none" stroke="#000000" stroke-linecap="round"><g><path d="M244.09652,181.23079v16.96485c0,0 -2.10918,0.67859 -3.17951,0.67859c-1.0284,0 -3.12171,-0.67859 -3.12171,-0.67859v-11.63304h-4.94405"/><path d="M237.69779,186.56316h-4.94404v11.63304c0,0 -2.09437,0.77553 -3.17896,0.77553c-1.01059,0 -3.12227,-0.77553 -3.12227,-0.77553v-16.96485"/></g><path d="M226.46637,181.28722v-12.21469c0,0 1.18252,-3.84859 3.60917,-5.7886c1.55749,-1.24516 4.25455,-0.90599 5.4109,-0.89238c1.15267,0.01356 4.1911,-0.07757 5.688,1.21695c2.30242,1.99116 2.94391,5.67166 2.94391,5.67166v11.92386"/><path d="M244.05111,170.33123h4.26545v13.66882h-4.07157"/></g><g stroke-linecap="butt"><path d="M232.87757,168.77205c3.15884,0 5.71958,1.64929 5.71958,3.6838c0,2.0345 -2.56074,3.6838 -5.71958,3.6838c-3.15884,0 -5.71957,-1.64929 -5.71957,-3.6838c0,-2.0345 2.56073,-3.6838 5.71957,-3.6838z" fill="#00fff4" stroke="#000000"/><path d="M228.5896,171.08259l0.59331,-0.50884c0.40535,-0.20071 0.76472,-0.48729 1.17245,-0.68311c0.6489,-0.31166 1.36681,-0.37392 2.06496,-0.49027c0,0 1.14803,-0.19134 1.33937,0.95668c0.19134,1.14802 -0.95669,1.33936 -0.95669,1.33936c-1.05521,0.17587 -1.62774,0.47995 -2.57909,0.95933l0.01165,0.07281c0,0 -0.82298,0.82297 -1.64595,0c-0.82297,-0.82297 0,-1.64596 0,-1.64596z" fill="#ffffff" stroke="none"/></g></g><g><path d="M213.89144,187.7476c0.07539,0 0.14908,0.00717 0.22047,0.02086c0.127,-0.50863 0.32093,-0.99078 0.57189,-1.43652c0.0443,-0.11105 0.09793,-0.21803 0.1643,-0.31953c0.04994,-0.07637 0.10214,-0.15222 0.15651,-0.22719c0.00141,-0.00306 0.00281,-0.00612 0.00422,-0.00919c0.10584,-3.01733 2.50883,-5.45036 5.51379,-5.60392c0.30516,-0.11282 0.6195,-0.20628 0.94273,-0.2785c1.31555,-0.29388 2.6444,-0.14878 3.90308,0.27736c2.23331,0.10522 4.13723,1.46935 5.018,3.39864c0.00134,0.00146 0.00269,0.00292 0.00403,0.00439c1.99362,2.16953 1.76594,5.22271 1.87597,7.92744c0.06816,1.67573 0.22057,3.36038 0.01777,5.03623c-0.08114,0.67054 -0.17711,1.36517 -0.34314,2.03878c0.15968,0.36016 0.24839,0.75879 0.24839,1.17814c0,0.4493 -0.10184,0.87481 -0.28369,1.25472c0.04007,1.2249 -0.04817,2.49579 -0.09943,3.72568c0.20632,0.39945 0.32283,0.85283 0.32283,1.33342c0,0.46902 -0.11097,0.91212 -0.30809,1.30447c0.01117,0.13188 0.02454,0.26228 0.0404,0.39108c0.25126,2.04102 0.48806,4.22847 0.08687,6.26096c-0.03405,0.17249 -0.06551,0.34738 -0.10021,0.52124c0.112,0.17883 0.17674,0.39028 0.17674,0.61686c0,0.61067 -0.47031,1.11148 -1.06849,1.16c-0.07212,0.05582 -0.15041,0.10827 -0.23555,0.15693c-1.14736,0.65563 -2.69718,0.6155 -3.65934,-0.25016c-0.63413,-0.01003 -1.14509,-0.5272 -1.14509,-1.16371c0,-0.20721 0.05415,-0.40178 0.14907,-0.57031c-0.15871,-0.35924 -0.24685,-0.75664 -0.24685,-1.17464c0,-0.32187 0.05227,-0.63152 0.14876,-0.92095c-0.0965,-0.28942 -0.14876,-0.59909 -0.14876,-0.92096c0,-0.44562 0.10017,-0.86782 0.27923,-1.24535c-0.01248,-0.0525 -0.02355,-0.10556 -0.03314,-0.15913c-0.09675,-0.28976 -0.14915,-0.59982 -0.14915,-0.92212c0,-0.34175 0.05892,-0.66974 0.16716,-0.97437c-0.02538,-0.15375 -0.04543,-0.30609 -0.05063,-0.45455c-0.04177,-1.19239 0.07855,-2.29421 0.09925,-3.44629c-0.28268,-0.10638 -0.54803,-0.22519 -0.86085,-0.23611c-0.13115,-0.00458 -0.25923,-0.00794 -0.38451,-0.01027c-0.46175,0.1179 -0.94558,0.18058 -1.44406,0.18058c-0.42606,0 -0.84142,-0.04579 -1.24144,-0.13271c-0.3251,0.0067 -0.64815,0.00832 -0.97969,-0.00141c-0.07647,0.99266 -0.41637,1.95643 -0.42077,2.98349c-0.01038,2.41824 0.1009,4.83862 0,7.25478c-0.03712,0.8889 -0.36336,1.65461 -0.92285,2.17711c-0.10652,-0.01317 -0.21147,-0.02785 -0.31091,-0.05006c-0.52326,-0.11686 -1.18493,0.44285 -1.59403,0.40125c-0.46991,-0.04778 -1.155,-0.1972 -1.69941,-0.0641c-0.19391,-0.12453 -0.36822,-0.27272 -0.52143,-0.44139c-0.07332,-0.03483 -0.14495,-0.07262 -0.21474,-0.11325c-0.55942,-0.04977 -1.00498,-0.49534 -1.05475,-1.05476c-0.25002,-0.42952 -0.39323,-0.92886 -0.39323,-1.46166c0,-0.59758 0.18014,-1.15306 0.48909,-1.61515c-0.16584,-3.19518 -0.17301,-7.03423 -0.08173,-10.38045c0.00272,-0.0999 0.00599,-0.21122 0.01065,-0.33149c-0.3377,0.13553 -0.74699,0.21097 -1.24364,0.21097c-0.46032,0 -0.85113,-0.07959 -1.1826,-0.22427c-0.20873,0.19839 -0.49099,0.32013 -0.80169,0.32013c-0.64278,0 -1.16386,-0.52108 -1.16386,-1.16386c0,-0.17772 0.03983,-0.34613 0.11105,-0.4968c-0.0093,-0.05924 -0.01412,-0.11996 -0.01412,-0.18179c0,-0.29278 0.1081,-0.5603 0.28658,-0.76484c-0.26925,-1.21541 -0.22525,-2.68565 -0.17719,-3.96842c-0.10662,-0.4405 -0.16311,-0.90057 -0.16311,-1.37384c0,-0.49122 0.06087,-0.96822 0.17545,-1.42388c0.002,-0.20207 0.00916,-0.41588 0.02481,-0.63388c-0.00332,-0.05687 -0.005,-0.11419 -0.005,-0.1719c0,-0.2517 0.03196,-0.49594 0.09204,-0.72888c-0.14952,-0.19578 -0.23834,-0.4404 -0.23834,-0.70577c0,-0.17298 0.03773,-0.33714 0.10542,-0.48471c-0.06769,-0.14757 -0.10542,-0.31173 -0.10542,-0.48471c0,-0.64278 0.52107,-1.16386 1.16386,-1.16386c0.2588,0 0.49788,0.08447 0.69116,0.22736c0.08916,-0.02187 0.18236,-0.03348 0.27826,-0.03348c0.13596,0 0.26649,0.02331 0.38778,0.06616c0.09268,-0.03275 0.19076,-0.05408 0.29254,-0.06232c0.21321,-0.24023 0.5243,-0.3916 0.87076,-0.3916zM220.26001,189.83379c-0.54316,0.81474 0.73221,2.61427 1.52577,2.85754c0.35208,0.10793 0.70397,0.24743 1.06938,0.28393c0.3984,0.2884 1.50743,0.46912 1.71042,0.49175c0.98038,0.10927 2.17256,0.21887 3.08399,-0.26531c0.28851,-0.03454 0.57227,-0.09251 0.82633,-0.21954c0.09918,-0.0496 0.19917,-0.10639 0.29896,-0.16964c1.3317,-0.38234 2.33353,-1.18204 2.33353,-2.77277c0,-0.42168 -0.09625,-0.86149 -0.30547,-1.22762c-0.06518,-0.11406 -0.20363,-0.15082 -0.33558,-0.19749c0.0108,-0.08557 0.00888,-0.16631 -0.04014,-0.23071c-0.2599,-0.34142 -0.59808,-0.64057 -0.98188,-0.83246c-0.23045,-0.11522 -0.53509,-0.17183 -0.82283,-0.21974c-0.59873,-0.26175 -1.32557,-0.32776 -1.86716,-0.45899c-1.01919,-0.24696 -2.9232,-0.34444 -4.00012,0.19402c-0.30136,0.15069 -0.54747,0.34506 -0.74252,0.57005c-0.22741,0.02647 -0.45167,0.05965 -0.61468,0.20549c-0.13464,0.12046 -0.23588,0.26785 -0.32232,0.42722c-0.3889,0.36097 -0.65424,0.85324 -0.72543,1.40632z" fill="#e83323" stroke="none" stroke-linecap="butt"/><g fill="#922016" stroke="none" stroke-linecap="butt"><path d="M232.33395,215.19342c0,0.58193 -0.58193,0.58193 -0.58193,0.58193l-0.39763,-0.02985c-0.18099,0.05982 -0.36199,0.11962 -0.54298,0.17944c-1.05533,0.5182 -2.15975,0.57059 -3.32484,0.52902c-0.31062,-0.01109 -0.65731,0.09046 -0.93068,-0.05743c-0.31244,-0.16904 -0.54581,-0.48967 -0.68482,-0.81659c-0.11372,-0.26744 -0.02666,-0.58067 -0.0328,-0.87121c-0.01501,-0.70885 0.04751,-1.37553 0.09841,-2.07703c0.04913,-0.67708 -0.0507,-1.36524 0.00052,-2.04253c0.06479,-0.8567 0.19462,-1.70704 0.19191,-2.56943c0,0 0,-0.58192 0.58193,-0.58192c0.58193,0 0.58192,0.58192 0.58192,0.58192c-0.00485,1.77623 -0.16356,3.59888 -0.29229,5.37306c-0.03174,0.4375 0.01381,0.87747 0.00146,1.31593c-0.00602,0.21373 -0.15234,0.60002 0.05792,0.63881c0.97054,0.17901 2.43294,-0.05227 3.30596,-0.49784c0.20677,-0.06944 0.41355,-0.13889 0.62033,-0.20833l0.76568,-0.02987c0,0 0.58193,0.00001 0.58193,0.58193z"/><path d="M221.18562,215.3873c0,0.58193 -0.58193,0.58193 -0.58193,0.58193l0.08707,-0.02986c-1.32286,0.43697 -2.68286,0.32783 -4.0617,0.32069c-0.49676,-0.00258 -1.25051,0.07585 -1.65935,-0.34913c-0.07373,0.03596 -0.16544,0.0583 -0.27949,0.0583c-0.58193,0 -0.58192,-0.58192 -0.58192,-0.58192v-0.29082c0.0016,-0.50823 -0.24767,-1.06338 -0.03358,-1.52432c0.09697,-0.20878 0.46889,-0.14718 0.6052,-0.3327c0.07552,-0.10279 -0.0764,-0.24554 -0.08692,-0.37266c-0.03727,-0.45085 0,-0.9048 0,-1.35719c0.00334,-1.22555 0.3958,-2.56715 0.2014,-3.78446c-0.16389,-1.02629 -0.32384,-2.06879 -0.48471,-3.10214c-0.09677,-0.62154 -0.28949,-1.49872 -0.19388,-2.12527c0.0394,-0.25821 0.12782,-0.51095 0.24554,-0.74411c0.08649,-0.17128 0.56198,-0.4842 0.37637,-0.43555c-0.1147,0.03008 -0.22555,0.07323 -0.33833,0.10985c0,0 -0.0692,0 -0.15987,-0.02386l-0.04866,0.14691c-0.23988,0.03377 -0.47975,0.06756 -0.71964,0.10133c-0.75213,-0.00058 -2.43624,0.56091 -3.00576,-0.10738c-0.35557,-0.41723 -0.09731,-1.82309 -0.13644,-2.37068c-0.17559,-2.45732 -0.40216,-4.95589 0.00645,-7.40757c0,0 0.09566,-0.574 0.66967,-0.47834c0.57401,0.09566 0.47835,0.66968 0.47835,0.66968c-0.3933,2.35983 -0.16243,4.76866 0.00645,7.13373c0.03321,0.46496 0.06635,0.93684 0.00146,1.39844c-0.01542,0.10972 -0.14162,0.19172 -0.1379,0.30246c0.00202,0.06024 0.08626,-0.09291 0.1444,-0.1088c0.18963,-0.05187 0.3887,-0.05924 0.58284,-0.09015c0.43188,-0.06877 0.87065,-0.10199 1.30798,-0.10232c0.0376,-0.00546 0.07519,-0.01092 0.11279,-0.01638c0.04967,-0.07905 0.12857,-0.15383 0.24988,-0.21448c0.24206,-0.12103 0.42784,-0.07319 0.55733,0.01262c0.05443,-0.00904 0.09069,-0.00905 0.09069,-0.00905c0.94545,0.10192 1.45764,-0.14901 1.44926,1.24082c-0.00265,0.43865 -0.51638,0.74587 -0.58402,1.17928c-0.05608,0.35938 0.13857,0.71431 0.19388,1.07381c0.09265,0.60217 0.24632,1.27289 0.29636,1.88711c0.03552,0.43589 -0.07449,0.88011 -0.00553,1.31197c0.11458,0.7175 0.25666,1.32296 0.19941,2.08006c-0.06247,0.82615 -0.19452,1.64036 -0.19191,2.47249c0,0.52377 0.14256,1.57172 -0.01554,2.153c0.20943,0.17 0.20943,0.46443 0.20943,0.46443c0,0.22619 0.02429,0.45371 0,0.6786c-0.01273,0.11789 -0.14514,0.22513 -0.10985,0.33833c0.02051,0.0658 0.13399,-0.03609 0.20278,-0.04026c0.19478,-0.01181 0.39024,-0.00636 0.58537,-0.00752c1.24533,-0.0074 2.50068,0.14086 3.69366,-0.26096l0.28097,-0.02987c0,0 0.58193,0 0.58193,0.58193z"/></g><g fill="none" stroke="#000000" stroke-linecap="round"><g><path d="M225.71525,204.24526h-4.94404v11.63304c0,0 -2.09331,0.67859 -3.12172,0.67859c-1.07033,0 -3.17951,-0.67859 -3.17951,-0.67859v-16.96485"/><path d="M232.11397,198.91401v16.96485c0,0 -2.11167,0.77553 -3.12226,0.77553c-1.08459,0 -3.17896,-0.77553 -3.17896,-0.77553v-11.63304h-4.94404"/></g><path d="M214.44815,198.88667v-11.92386c0,0 0.64149,-3.6805 2.94392,-5.67166c1.49689,-1.29452 4.53533,-1.20339 5.688,-1.21695c1.15635,-0.01361 3.85341,-0.35278 5.4109,0.89238c2.42665,1.94001 3.60917,5.7886 3.60917,5.7886v12.21469"/><path d="M214.32151,201.6827h-4.07156v-13.66881h4.26545"/></g><g stroke-linecap="butt"><path d="M231.4085,190.1385c0,2.0345 -2.56073,3.68379 -5.71957,3.68379c-3.15884,0 -5.71958,-1.64928 -5.71958,-3.68379c0,-2.0345 2.56074,-3.6838 5.71958,-3.6838c3.15884,0 5.71957,1.6493 5.71957,3.6838z" fill="#00fff4" stroke="#000000"/><path d="M229.9769,190.4112c-0.82297,0.82297 -1.64595,0 -1.64595,0l0.01166,-0.0728c-0.95136,-0.47938 -1.52389,-0.78346 -2.5791,-0.95933c0,0 -1.14802,-0.19134 -0.95669,-1.33936c0.19134,-1.14802 1.33936,-0.95669 1.33936,-0.95669c0.69815,0.11636 1.41607,0.17862 2.06497,0.49028c0.40772,0.19583 0.7671,0.48241 1.17245,0.68312l0.5933,0.50884c0,0 0.82297,0.82298 0,1.64595z" fill="#ffffff" stroke="none"/></g></g><g><path d="M232.15245,190.87333c0.07399,-0.01443 0.1477,-0.02151 0.22039,-0.02175c0.02724,-0.52354 0.12525,-1.0339 0.28621,-1.51945c0.02221,-0.11748 0.05436,-0.23275 0.10006,-0.34509c0.03439,-0.08453 0.07111,-0.16895 0.11011,-0.25295c0.0008,-0.00328 0.00159,-0.00655 0.00239,-0.00983c-0.47395,-2.98175 1.41862,-5.82994 4.33856,-6.55612c0.27791,-0.16917 0.56852,-0.32111 0.87195,-0.45389c1.23492,-0.54038 2.56696,-0.65245 3.88395,-0.47525c2.21213,-0.32441 4.34205,0.64985 5.576,2.37476c0.0016,0.00118 0.0032,0.00235 0.0048,0.00353c2.3722,1.74759 2.73344,4.78786 3.3594,7.42146c0.38781,1.63165 0.86001,3.25595 0.9819,4.93962c0.04878,0.67366 0.08761,1.37382 0.05366,2.06676c0.2257,0.32291 0.38911,0.69717 0.46941,1.10876c0.08605,0.44099 0.06757,0.87812 -0.03816,1.28582c0.27391,1.19456 0.43069,2.45882 0.6159,3.67577c0.279,0.35255 0.48018,0.77522 0.57221,1.24691c0.08982,0.46034 0.06577,0.91649 -0.05257,1.33933c0.03621,0.1273 0.07431,0.25272 0.11454,0.3761c0.63748,1.95513 1.2888,4.05674 1.28428,6.12844c-0.00039,0.17582 0.00223,0.3535 0.00146,0.53078c0.14417,0.15408 0.24821,0.34921 0.2916,0.5716c0.11695,0.59937 -0.24875,1.18097 -0.82656,1.34315c-0.0601,0.0686 -0.1269,0.13508 -0.20114,0.19913c-1.00056,0.86322 -2.52938,1.12063 -3.63951,0.45525c-0.62431,0.11159 -1.22486,-0.29815 -1.34676,-0.92288c-0.03968,-0.20337 -0.02379,-0.40471 0.03709,-0.5883c-0.22457,-0.3222 -0.38717,-0.69537 -0.46722,-1.10563c-0.06164,-0.31591 -0.06965,-0.62984 -0.03037,-0.9324c-0.15015,-0.26558 -0.26073,-0.55951 -0.32237,-0.87542c-0.08534,-0.43737 -0.06788,-0.87095 0.03557,-1.27578c-0.02231,-0.04914 -0.04332,-0.09911 -0.063,-0.14984c-0.15045,-0.26587 -0.26126,-0.56015 -0.32298,-0.87649c-0.06545,-0.33542 -0.07043,-0.66863 -0.02254,-0.98834c-0.05435,-0.14605 -0.10321,-0.29173 -0.13675,-0.43645c-0.26934,-1.16232 -0.36225,-2.26679 -0.56256,-3.40152c-0.29782,-0.05027 -0.58102,-0.11606 -0.89014,-0.06688c-0.1296,0.02062 -0.25594,0.04185 -0.37936,0.06356c-0.43062,0.20415 -0.89351,0.35833 -1.38276,0.45379c-0.41817,0.08159 -0.83461,0.1162 -1.24387,0.1075c-0.3178,0.06884 -0.63457,0.13228 -0.96183,0.18623c0.11505,0.98893 -0.03399,1.99996 0.15838,3.00885c0.45292,2.37546 1.02564,4.72975 1.38933,7.12051c0.13379,0.87956 -0.03976,1.69357 -0.48884,2.31354c-0.10707,0.00747 -0.21289,0.01316 -0.31474,0.01041c-0.53595,-0.01449 -1.07818,0.66158 -1.48768,0.6991c-0.47036,0.0431 -1.17138,0.02763 -1.68023,0.26253c-0.21416,-0.08508 -0.41363,-0.19715 -0.59631,-0.33336c-0.07863,-0.02015 -0.15618,-0.04352 -0.23246,-0.07004c-0.55859,0.05829 -1.08125,-0.29371 -1.23723,-0.83324c-0.32765,-0.37368 -0.56383,-0.83636 -0.66586,-1.3593c-0.11444,-0.58651 -0.04401,-1.16622 0.17072,-1.67892c-0.77467,-3.10428 -1.5169,-6.87089 -2.06813,-10.17266c-0.01646,-0.09857 -0.03458,-0.20845 -0.05304,-0.32739c-0.3055,0.19769 -0.69275,0.35011 -1.18021,0.44522c-0.4518,0.08816 -0.85062,0.08489 -1.20365,0.00636c-0.16688,0.23469 -0.4206,0.40823 -0.72555,0.46773c-0.63088,0.1231 -1.24212,-0.28854 -1.36521,-0.91943c-0.03403,-0.17443 -0.02718,-0.34735 0.01387,-0.50887c-0.02047,-0.05636 -0.03682,-0.11503 -0.04867,-0.17572c-0.05607,-0.28736 -0.0012,-0.57064 0.1348,-0.80557c-0.49703,-1.14135 -0.73539,-2.5928 -0.93389,-3.86104c-0.189,-0.41193 -0.33256,-0.85267 -0.42319,-1.31718c-0.09407,-0.48213 -0.12568,-0.96195 -0.10047,-1.43112c-0.03672,-0.19871 -0.07066,-0.40994 -0.09704,-0.6269c-0.01415,-0.05518 -0.02677,-0.11111 -0.03782,-0.16776c-0.0482,-0.24704 -0.06361,-0.49289 -0.04925,-0.73302c-0.18425,-0.16352 -0.31826,-0.38661 -0.36908,-0.64706c-0.03313,-0.16978 -0.02753,-0.33813 0.01064,-0.49594c-0.0947,-0.13188 -0.16317,-0.28577 -0.19629,-0.45555c-0.1231,-0.63088 0.28854,-1.24211 0.91943,-1.36521c0.25402,-0.04957 0.50484,-0.01244 0.7219,0.09079c0.08332,-0.03854 0.17258,-0.06779 0.2667,-0.08615c0.13344,-0.02604 0.26601,-0.02815 0.39326,-0.00932c0.0847,-0.04989 0.17687,-0.08961 0.27519,-0.11719c0.16326,-0.27661 0.43961,-0.48477 0.77965,-0.55112zM238.80268,191.70128c-0.37708,0.90368 1.2193,2.42566 2.04476,2.51246c0.36624,0.03851 0.73832,0.10803 1.10395,0.07388c0.44627,0.20676 1.56937,0.17176 1.77294,0.1551c0.98316,-0.0805 2.17426,-0.20124 2.9761,-0.85101c0.27656,-0.08915 0.54396,-0.20039 0.76899,-0.37372c0.08785,-0.06767 0.17511,-0.14256 0.26093,-0.22375c1.23383,-0.63029 2.06399,-1.60705 1.75935,-3.16835c-0.08076,-0.41388 -0.25945,-0.82711 -0.53492,-1.14639c-0.08581,-0.09947 -0.22874,-0.10904 -0.36719,-0.12957c-0.00579,-0.08605 -0.02313,-0.16493 -0.08358,-0.21875c-0.32047,-0.28534 -0.7097,-0.51417 -1.12313,-0.62902c-0.24824,-0.06896 -0.5581,-0.06618 -0.84968,-0.0581c-0.63778,-0.14225 -1.36379,-0.06785 -1.92049,-0.09293c-1.04762,-0.04721 -2.93506,0.22174 -3.88894,0.95648c-0.26692,0.20561 -0.47124,0.44352 -0.6196,0.7017c-0.21812,0.06953 -0.4319,0.14504 -0.56395,0.31939c-0.10907,0.14402 -0.18022,0.30807 -0.23454,0.48104c-0.31258,0.42876 -0.47873,0.96274 -0.44269,1.51922z" fill="#2900ff" stroke="none" stroke-linecap="butt"/><g fill="#140079" stroke="none" stroke-linecap="butt"><path d="M255.50966,214.27932c0.11144,0.57116 -0.45972,0.6826 -0.45972,0.6826l-0.39599,0.04685c-0.16619,0.09337 -0.33237,0.18674 -0.49856,0.28011c-0.93655,0.71071 -2.01051,0.97363 -3.16199,1.15595c-0.307,0.0486 -0.62781,0.21467 -0.92445,0.12186c-0.33903,-0.10608 -0.62947,-0.37607 -0.82851,-0.67033c-0.16282,-0.24071 -0.13737,-0.56483 -0.19904,-0.84881c-0.15048,-0.69286 -0.2168,-1.35917 -0.30118,-2.05743c-0.08145,-0.67396 -0.31121,-1.33025 -0.39064,-2.00482c-0.10048,-0.85325 -0.1359,-1.71272 -0.30371,-2.55863c0,0 -0.11144,-0.57116 0.45971,-0.68259c0.57116,-0.11144 0.6826,0.45971 0.6826,0.45971c0.3354,1.74428 0.52867,3.5636 0.74209,5.32959c0.05263,0.43548 0.1816,0.85858 0.25344,1.2913c0.03502,0.21092 -0.03461,0.61809 0.17919,0.61589c0.98686,-0.01017 2.3779,-0.51723 3.14943,-1.12175c0.18965,-0.10775 0.3793,-0.21551 0.56895,-0.32326l0.74579,-0.17594c0,0 0.57116,-0.11144 0.6826,0.45972z"/><path d="M244.60479,216.60458c0.11144,0.57116 -0.45971,0.68261 -0.45971,0.68261l0.07975,-0.04599c-1.2147,0.68222 -2.57042,0.83555 -3.92511,1.0926c-0.48806,0.0926 -1.21285,0.31393 -1.6955,-0.02489c-0.06548,0.04941 -0.15121,0.0889 -0.26315,0.11074c-0.57116,0.11144 -0.6826,-0.45971 -0.6826,-0.45971l-0.05569,-0.28544c-0.09576,-0.49912 -0.44674,-0.99627 -0.32488,-1.48968c0.05519,-0.22349 0.43203,-0.23425 0.53029,-0.44244c0.05444,-0.11535 -0.12201,-0.22636 -0.15667,-0.34911c-0.12293,-0.43537 -0.17328,-0.88805 -0.25991,-1.33207c-0.23142,-1.20351 -0.10315,-2.59544 -0.52708,-3.75298c-0.35739,-0.97591 -0.71402,-1.9685 -1.06982,-2.95191c-0.214,-0.59151 -0.57114,-1.41553 -0.5973,-2.0488c-0.01077,-0.26097 0.0276,-0.52597 0.09849,-0.77736c0.05208,-0.18467 0.45887,-0.58286 0.28601,-0.49956c-0.10681,0.05149 -0.20736,0.11507 -0.31104,0.17261c0,0 -0.06791,0.01325 -0.16147,0.0072l-0.01964,0.15351c-0.22897,0.07908 -0.45794,0.15819 -0.68691,0.23727c-0.73831,0.14346 -2.28373,1.01708 -2.97069,0.47022c-0.42889,-0.34142 -0.44465,-1.77071 -0.58792,-2.30067c-0.64292,-2.37822 -1.34379,-4.78715 -1.41225,-7.2717c0,0 -0.01603,-0.5817 0.56567,-0.59774c0.58171,-0.01603 0.59774,0.56568 0.59774,0.56568c0.0659,2.39147 0.75381,4.71151 1.37249,7.00046c0.12163,0.45 0.24453,0.90679 0.26924,1.37228c0.00588,0.11065 -0.10228,0.21529 -0.07744,0.32327c0.01351,0.05873 0.06688,-0.10771 0.12089,-0.13445c0.17618,-0.08722 0.37016,-0.13257 0.55479,-0.20009c0.41072,-0.1502 0.835,-0.26683 1.26417,-0.35091c0.03585,-0.01255 0.07172,-0.02512 0.10757,-0.03768c0.03361,-0.08709 0.09672,-0.1756 0.20416,-0.25836c0.2144,-0.16515 0.40591,-0.15377 0.54944,-0.09435c0.05168,-0.0193 0.08727,-0.02625 0.08727,-0.02625c0.94746,-0.08102 1.40212,-0.42539 1.66006,0.94031c0.0814,0.43104 -0.36398,0.83095 -0.34737,1.26929c0.01378,0.36346 0.27281,0.67455 0.39594,1.01681c0.20625,0.57328 0.48552,1.20216 0.65226,1.79543c0.11833,0.42102 0.09543,0.8781 0.24582,1.28875c0.24986,0.68228 0.50527,1.24932 0.59407,2.00337c0.0969,0.82282 0.12322,1.64725 0.28515,2.46348c0.1003,0.51407 0.44092,1.51532 0.39706,2.11613c0.23811,0.12674 0.29449,0.41573 0.29449,0.41573c0.04332,0.22201 0.11073,0.44066 0.12996,0.66603c0.01008,0.11814 -0.09934,0.24876 -0.04303,0.3531c0.03274,0.06064 0.12461,-0.06108 0.19132,-0.07835c0.18892,-0.04889 0.3818,-0.08097 0.5731,-0.11948c1.22086,-0.24575 2.48137,-0.34064 3.57532,-0.96349l0.27004,-0.08311c0,0 0.57117,-0.11145 0.6826,0.45971z"/></g><g fill="none" stroke="#000000" stroke-linecap="round"><g><path d="M246.91682,204.80131l-4.85254,0.94681l2.2278,11.41773c0,0 -1.92462,1.06691 -2.93399,1.26386c-1.05052,0.20497 -3.25062,-0.05714 -3.25062,-0.05714l-3.24886,-16.65086"/><path d="M252.17615,198.34334l3.24886,16.65086c0,0 -1.92407,1.16557 -2.91596,1.35911c-1.06451,0.20771 -3.26864,-0.15238 -3.26864,-0.15238l-2.22779,-11.41773l-4.85253,0.94681"/></g><path d="M234.83206,201.69962l-2.28349,-11.70316c0,0 -0.07521,-3.73524 1.80328,-6.13047c1.22127,-1.55722 4.22092,-2.04966 5.34965,-2.28371c1.13234,-0.2348 3.71454,-1.0842 5.48165,-0.16036c2.75326,1.43939 4.65093,4.99029 4.65093,4.99029l2.33918,11.98861"/><path d="M235.24322,204.46815l-3.99621,0.77973l-2.61766,-13.41583l4.1865,-0.81686"/></g><g stroke-linecap="butt"><path d="M249.80318,189.86535c0.38962,1.99685 -1.80788,4.10601 -4.90825,4.71094c-3.10037,0.60494 -5.92956,-0.52343 -6.31918,-2.52028c-0.38962,-1.99685 1.80787,-4.10601 4.90824,-4.71095c3.10037,-0.60494 5.92957,0.52344 6.31919,2.52029z" fill="#00fff4" stroke="#000000"/><path d="M248.45029,190.40716c-0.65014,0.96535 -1.61548,0.31521 -1.61548,0.31521l-0.0025,-0.07369c-1.02555,-0.28832 -1.64574,-0.47712 -2.71509,-0.44766c0,0 -1.16342,0.03206 -1.19547,-1.13136c-0.03206,-1.16342 1.13136,-1.19547 1.13136,-1.19547c0.70751,-0.01949 1.42406,-0.09588 2.12063,0.08575c0.43768,0.11412 0.8453,0.32658 1.28158,0.44594l0.67976,0.3858c0,0 0.96535,0.65014 0.31521,1.61549z" fill="#ffffff" stroke="none"/></g></g><g><path d="M269.23456,201.92644c0.00466,0.12027 0.00793,0.23159 0.01065,0.33149c0.09128,3.34622 0.08411,7.18526 -0.08173,10.38044c0.30894,0.46209 0.48908,1.01757 0.48908,1.61515c0,0.5328 -0.14321,1.03215 -0.39323,1.46167c-0.04977,0.55942 -0.49534,1.00498 -1.05476,1.05475c-0.06979,0.04063 -0.14142,0.07843 -0.21474,0.11326c-0.15321,0.16868 -0.32753,0.31687 -0.52143,0.4414c-0.54442,-0.13311 -1.2295,0.01632 -1.69941,0.0641c-0.40911,0.0416 -1.07078,-0.51812 -1.59404,-0.40126c-0.09944,0.02221 -0.20439,0.03689 -0.3109,0.05006c-0.5595,-0.52249 -0.88574,-1.28821 -0.92286,-2.17711c-0.10089,-2.41616 0.01038,-4.83655 0,-7.25478c-0.00441,-1.02705 -0.34431,-1.99081 -0.42078,-2.98348c-0.33153,0.00973 -0.65458,0.00811 -0.97969,0.00141c-0.40002,0.08692 -0.81538,0.13271 -1.24144,0.13271c-0.49848,0 -0.98231,-0.06268 -1.44406,-0.18058c-0.12529,0.00233 -0.25335,0.00569 -0.3845,0.01027c-0.31282,0.01092 -0.57817,0.12973 -0.86086,0.23611c0.02071,1.15208 0.14103,2.25391 0.09926,3.44629c-0.0052,0.14846 -0.02525,0.30079 -0.05063,0.45455c0.10823,0.30463 0.16715,0.63262 0.16715,0.97437c0,0.3223 -0.05241,0.63236 -0.14916,0.92212c-0.00959,0.05357 -0.02065,0.10663 -0.03313,0.15913c0.17906,0.37753 0.27923,0.79975 0.27923,1.24536c0,0.32187 -0.05226,0.63153 -0.14876,0.92095c0.0965,0.28943 0.14876,0.59908 0.14876,0.92095c0,0.41799 -0.08814,0.8154 -0.24685,1.17465c0.09492,0.16853 0.14907,0.3631 0.14907,0.57031c0,0.63651 -0.51096,1.15368 -1.14508,1.16371c-0.96216,0.86566 -2.51199,0.90579 -3.65934,0.25016c-0.08514,-0.04865 -0.16342,-0.1011 -0.23555,-0.15693c-0.59817,-0.04853 -1.06849,-0.54934 -1.06849,-1.16001c0,-0.22658 0.06474,-0.43803 0.17674,-0.61686c-0.03471,-0.17386 -0.06616,-0.34874 -0.10021,-0.52123c-0.40118,-2.03249 -0.16439,-4.21993 0.08687,-6.26096c0.01586,-0.1288 0.02924,-0.25921 0.0404,-0.39109c-0.19712,-0.39236 -0.3081,-0.83545 -0.3081,-1.30447c0,-0.48058 0.11652,-0.93396 0.32285,-1.33341c-0.05127,-1.22989 -0.13951,-2.50079 -0.09944,-3.72568c-0.18185,-0.37991 -0.28368,-0.80542 -0.28368,-1.25472c0,-0.41935 0.0887,-0.81797 0.24838,-1.17813c-0.16602,-0.67361 -0.262,-1.36824 -0.34314,-2.03878c-0.2028,-1.67585 -0.05039,-3.3605 0.01777,-5.03623c0.11003,-2.70472 -0.11766,-5.75791 1.87596,-7.92744c0.00134,-0.00146 0.00269,-0.00292 0.00404,-0.00438c0.88077,-1.92929 2.7847,-3.29342 5.01801,-3.39864c1.25868,-0.42613 2.58753,-0.57124 3.90308,-0.27735c0.32324,0.07221 0.63757,0.16567 0.94274,0.2785c3.00496,0.15356 5.40795,2.58658 5.5138,5.60391c0.00141,0.00306 0.00281,0.00612 0.00422,0.00919c0.05437,0.07497 0.10656,0.15081 0.1565,0.22718c0.06637,0.10151 0.12,0.20849 0.16431,0.31955c0.25096,0.44574 0.51482,15.18537 0.17712,15.04985zM263.39098,190.2205c-0.07119,-0.55308 -0.33652,-1.04536 -0.72543,-1.40633c-0.08643,-0.15937 -0.18768,-0.30676 -0.32232,-0.42722c-0.163,-0.14584 -0.38727,-0.17901 -0.61467,-0.20548c-0.19505,-0.22499 -0.44116,-0.41938 -0.74252,-0.57006c-1.07693,-0.53847 -2.98094,-0.44098 -4.00013,-0.19402c-0.54159,0.13124 -1.26843,0.19725 -1.86716,0.459c-0.28773,0.0479 -0.59238,0.10451 -0.82282,0.21973c-0.38379,0.19189 -0.72198,0.49104 -0.98188,0.83247c-0.04903,0.0644 -0.05094,0.14514 -0.04015,0.23071c-0.13196,0.04666 -0.27041,0.08343 -0.33559,0.19749c-0.20922,0.36613 -0.30546,0.80594 -0.30546,1.22762c0,1.59073 1.00183,2.39044 2.33353,2.77278c0.09978,0.06325 0.19978,0.12004 0.29896,0.16963c0.25405,0.12703 0.53781,0.18501 0.82632,0.21954c0.91143,0.48418 2.10362,0.37457 3.084,0.2653c0.20299,-0.02263 1.31201,-0.20334 1.71042,-0.49174c0.36541,-0.0365 0.71729,-0.17599 1.06937,-0.28393c0.79356,-0.24327 2.06893,-2.0428 1.52577,-2.85754z" fill="#00ff2b" stroke="none" stroke-linecap="butt"/><g fill="#007714" stroke="none" stroke-linecap="butt"><path d="M251.40729,215.73809c0,-0.58193 0.58193,-0.58193 0.58193,-0.58193l0.76568,0.02987c0.20677,0.06944 0.41355,0.13888 0.62033,0.20831c0.87302,0.44557 2.33541,0.67686 3.30595,0.49785c0.21026,-0.03879 0.06394,-0.42508 0.05793,-0.63881c-0.01235,-0.43847 0.03321,-0.87843 0.00146,-1.31593c-0.12873,-1.77418 -0.28744,-3.59684 -0.29229,-5.37306c0,0 0,-0.58193 0.58192,-0.58193c0.58193,0 0.58193,0.58193 0.58193,0.58193c-0.00271,0.86239 0.12713,1.71273 0.19191,2.56943c0.05122,0.67729 -0.04861,1.36546 0.00051,2.04254c0.0509,0.7015 0.11342,1.36818 0.09841,2.07703c-0.00615,0.29054 0.08091,0.60378 -0.03281,0.87122c-0.139,0.32692 -0.37237,0.64754 -0.68481,0.81658c-0.27337,0.1479 -0.62006,0.04635 -0.93068,0.05743c-1.16509,0.04157 -2.26951,-0.01081 -3.32484,-0.52901c-0.18099,-0.05982 -0.36199,-0.11963 -0.54298,-0.17945l-0.39763,0.02987c0,0 -0.58193,0 -0.58193,-0.58193z"/></g><g fill="none" stroke="#000000" stroke-linecap="round"><g><path d="M269.27126,199.4581v16.96484c0,0 -2.10918,0.6786 -3.17951,0.6786c-1.02841,0 -3.12171,-0.6786 -3.12171,-0.6786v-11.63304h-4.94405"/><path d="M262.87253,204.79046h-4.94405v11.63304c0,0 -2.09437,0.77554 -3.17895,0.77554c-1.01059,0 -3.12227,-0.77554 -3.12227,-0.77554v-16.96484"/></g><path d="M251.6411,199.51453v-12.2147c0,0 1.18252,-3.84859 3.60917,-5.7886c1.55748,-1.24516 4.25455,-0.90599 5.4109,-0.89238c1.15267,0.01356 4.1911,-0.07756 5.688,1.21696c2.30243,1.99116 2.94391,5.67166 2.94391,5.67166v11.92386"/></g><g stroke-linecap="butt"><path d="M258.05231,186.99935c3.15884,0 5.71958,1.64929 5.71958,3.6838c0,2.0345 -2.56074,3.6838 -5.71958,3.6838c-3.15884,0 -5.71957,-1.64929 -5.71957,-3.6838c0,-2.0345 2.56073,-3.6838 5.71957,-3.6838z" fill="#00fff4" stroke="#000000"/><path d="M253.76434,189.3099l0.59331,-0.50884c0.40535,-0.20071 0.76472,-0.48729 1.17245,-0.68312c0.6489,-0.31166 1.36682,-0.37392 2.06496,-0.49028c0,0 1.14803,-0.19134 1.33936,0.95669c0.19133,1.14802 -0.95669,1.33936 -0.95669,1.33936c-1.05521,0.17587 -1.62774,0.47995 -2.5791,0.95933l0.01165,0.07281c0,0 -0.82298,0.82297 -1.64595,0c-0.82297,-0.82297 0,-1.64595 0,-1.64595z" fill="#ffffff" stroke="none"/></g></g></g><path d="M213.01943,221.96914c-1.65685,0 -3,-1.34315 -3,-3v-77.93828c0,-1.65685 1.34315,-3 3,-3h53.96114c1.65685,0 3,1.34315 3,3v77.93828c0,1.65685 -1.34315,3 -3,3zM262.96734,217.21427c1.38071,0 2.5,-1.11929 2.5,-2.5v-69.42854c0,-1.38071 -1.11929,-2.5 -2.5,-2.5h-45.93468c-1.38071,0 -2.5,1.11929 -2.5,2.5v69.42854c0,1.38071 1.11929,2.5 2.5,2.5z" fill="#ff6767" stroke="none" stroke-width="0" stroke-linecap="butt"/><path d="M213.01943,221.96914c-1.65685,0 -3,-1.34315 -3,-3v-77.93828c0,-1.65685 1.34315,-3 3,-3h53.96114c1.65685,0 3,1.34315 3,3v77.93828c0,1.65685 -1.34315,3 -3,3z" fill="url(#color-2)" stroke="none" stroke-width="NaN" stroke-linecap="butt"/><path d="M214.07078,221.72212l0.26613,-1.63154l-1.12736,-1.15546l1.55798,-0.23804l0.69675,-1.48442l0.69675,1.48442l1.55798,0.23804l-1.12736,1.15546l0.26613,1.63154l-1.3935,-0.77031z" fill="#000000" stroke="none" stroke-width="0" stroke-linecap="butt"/><path d="M219.24055,221.72212l0.26613,-1.63154l-1.12736,-1.15546l1.55798,-0.23804l0.69675,-1.48442l0.69675,1.48442l1.55798,0.23804l-1.12736,1.15546l0.26613,1.63154l-1.3935,-0.77031z" fill="#000000" stroke="none" stroke-width="0" stroke-linecap="butt"/><text transform="translate(223.60284,221.37117) scale(0.0984,0.0984)" font-size="40" xml:space="preserve" fill="#000000" stroke="none" stroke-width="1" stroke-linecap="butt" font-family="Sans Serif" font-weight="normal" text-anchor="start"><tspan x="0" dy="0">16/27</tspan></text><text transform="translate(214.5139,142.06931) scale(0.10938,0.10938)" font-size="40" xml:space="preserve" fill="#000000" stroke="none" stroke-width="1" stroke-linecap="butt" font-family="Sans Serif" font-weight="normal" text-anchor="start"><tspan x="0" dy="0">The Gang</tspan></text><text transform="translate(239.57666,220.8475) scale(0.09461,0.09461)" font-size="40" xml:space="preserve" fill="#000000" stroke="none" stroke-width="1" stroke-linecap="butt" font-family="Sans Serif" font-weight="normal" text-anchor="start"><tspan x="0" dy="0">Core Collection</tspan></text></g></g></svg>