<svg version="1.1" xmlns="http://www.w3.org/2000/svg" xmlns:xlink="http://www.w3.org/1999/xlink" width="144.94428" height="187.97782" viewBox="0,0,144.94428,187.97782"><g transform="translate(-167.52786,-86.13609)"><g stroke-miterlimit="10"><g><g fill="none"><g stroke="#3e0909" stroke-width="4" stroke-linecap="round"><path d="M232.76629,172.15424l-1.51459,71.78638"/><path d="M189.79686,215.66156l42.66057,-28.86677l44.28857,28.33881"/><path d="M209.9135,269.94981l20.47344,-29.80736l14.91761,31.97146"/></g><g stroke="none" stroke-width="1" stroke-linecap="butt" font-family="sans-serif" font-weight="normal" font-size="12" text-anchor="start"><g/></g></g><path d="M293.65377,146.40983c0.55609,-4.84935 0.28154,-15.14725 0.28154,-15.14725c0,0 -5.73865,-11.03762 -9.42319,-15.81458c-3.31131,-4.29306 -11.68419,-11.55083 -11.68419,-11.55083l-9.98044,-7.71353c0,0 14.67466,-4.58296 21.01736,-1.40035c3.09388,1.55243 13.1345,7.80044 18.83649,16.91632c5.76276,9.21304 7.17599,21.30711 8.16044,25.23616c2.00315,7.99483 1.57113,25.60988 1.57113,25.60988c0,0 -2.19522,6.7893 -6.9241,11.26166c-4.95072,4.68218 -12.52688,7.10626 -16.34214,9.40502c-5.32143,3.20627 -17.2847,3.76608 -17.2847,3.76608c0,0 8.96783,-6.96008 12.1455,-11.38567c3.02905,-4.21861 6.496,-14.57678 6.496,-14.57678c0,0 2.55013,-9.54659 3.13031,-14.60611z" fill="#297500" stroke="#297500" stroke-width="NaN" stroke-linecap="butt"/><path d="M239.75708,87.89565c23.2652,-0.49084 42.52329,17.97137 43.01414,41.23657c0.49084,23.2652 -17.97141,42.52329 -41.23658,43.01414c-23.26521,0.49085 -42.52328,-17.97138 -43.01416,-41.23653c-0.4909,-23.2652 17.97135,-42.5233 41.23653,-43.01415z" fill="#5aff00" stroke="#297500" stroke-width="3.5" stroke-linecap="butt"/><path d="M189.47654,161.24129c0,0 3.46695,10.35817 6.496,14.57678c3.17767,4.42559 12.1455,11.38568 12.1455,11.38568c0,0 -11.96327,-0.55983 -17.2847,-3.76609c-3.81526,-2.29877 -11.39144,-4.72284 -16.34214,-9.40502c-4.72888,-4.47237 -6.9241,-11.26166 -6.9241,-11.26166c0,0 -0.43203,-17.61507 1.57114,-25.60989c0.98445,-3.92904 2.39768,-16.02312 8.16044,-25.23615c5.70198,-9.11588 15.74261,-15.36389 18.83649,-16.91632c6.34269,-3.18259 21.01735,1.40035 21.01735,1.40035l-9.98044,7.71353c0,0 -8.37288,7.25778 -11.68419,11.55085c-3.68454,4.77697 -9.42319,15.81458 -9.42319,15.81458c0,0 -0.27455,10.2979 0.28154,15.14725c0.58019,5.05951 3.13031,14.60611 3.13031,14.60611z" fill="#297500" stroke="#297500" stroke-width="NaN" stroke-linecap="butt"/><path d="M241.00553,115.11473c-36.99482,0 -46.21676,-5.27643 -46.21676,-12.61915c0,-7.34272 9.22194,-13.9712 46.21676,-13.9712c36.99482,0 45.04671,6.40314 45.04671,13.74586c0,7.34272 -8.05189,12.84449 -45.04671,12.84449z" fill="#5aff00" stroke="#297500" stroke-width="3.5" stroke-linecap="butt"/><path d="M276.88087,116.6246c-0.50868,0.33912 -0.94377,0.31023 -1.27328,0.16891c-0.23789,0.1837 -0.53619,0.29297 -0.85999,0.29297c-0.24498,0 -0.47536,-0.06254 -0.67603,-0.17254c-0.19686,0.10792 -0.4223,0.17016 -0.66209,0.17249c0.30181,0.25831 0.49308,0.64204 0.49308,1.07044c0,0.77784 -0.63055,1.40839 -1.40839,1.40839c-0.18554,0 -0.36269,-0.03589 -0.52491,-0.10108l-1.77235,-0.66463l0.00874,-0.0233c-0.02642,-0.00648 -0.05279,-0.01324 -0.07912,-0.0203c-0.25411,0.36777 -0.67867,0.60875 -1.15952,0.60875c-0.22383,0 -0.43547,-0.05221 -0.6234,-0.14512l-1.67163,-0.78149c-0.0122,0.0003 -0.02444,0.00047 -0.03671,0.00047h-1.57739v-0.39433l-0.21767,-0.06218c-0.79081,0.07124 -1.56889,0.06045 -2.34264,-0.00783c-0.25773,0.28516 -0.63052,0.46434 -1.04516,0.46434c-0.18554,0 -0.36269,-0.03589 -0.52491,-0.10108l-1.74364,-0.65386c-0.4499,-0.14547 -0.87722,-0.34884 -1.28245,-0.59689c-0.44255,-0.11188 -0.88896,-0.22659 -1.34072,-0.33982c-0.01072,0.05525 -0.02702,0.11054 -0.04946,0.16585c-0.44272,1.09059 -1.89208,1.43699 -2.96976,1.91027c-3.85859,1.69456 -8.79753,0.02613 -12.44809,-1.51878c-0.01126,0.00117 -0.02255,0.0022 -0.03387,0.0031l-0.05327,0.00484c-1.91944,1.04597 -4.11753,1.60686 -6.83711,2.01221c-0.62056,0.0925 -4.15274,0.5343 -4.77967,0.03051c-0.89091,-0.71591 -1.31553,-1.449 -1.37248,-2.14957c-1.00784,-0.10642 -2.0153,-0.22958 -3.01929,-0.35508c-0.76812,-0.09602 -2.27985,-0.05075 -3.64282,-0.26157c-1.59816,0.03477 -3.18915,0.03064 -4.73799,0.04709l-0.00748,-0.00276v0.00279h-1.80274c-0.22431,0 -0.43636,-0.05244 -0.62459,-0.14572c-0.67467,0.19408 -1.32635,0.371 -1.91794,0.54222l-1.54612,0.44175c-0.13213,0.04103 -0.27257,0.06313 -0.41819,0.06313c-0.77784,0 -1.40839,-0.63055 -1.40839,-1.40839c0,-0.22435 0.05246,-0.43644 0.14577,-0.62469c-0.05626,-0.06123 -0.10717,-0.12743 -0.15199,-0.1979c-0.21571,0.1829 -0.41203,0.35684 -0.57557,0.51997l-0.0747,0.0313l0.01523,0.01903l-1.11794,0.89436c-0.24238,0.19733 -0.55166,0.31564 -0.88858,0.31564c-0.52525,0 -0.98335,-0.28754 -1.22547,-0.71378c-0.00581,-0.0014 -0.01164,-0.00283 -0.01749,-0.00428c-1.36634,-0.34158 -1.02475,-1.70792 -1.02475,-1.70792l0.33198,-1.18964c0.56971,-1.12362 0.8852,-2.34866 1.59825,-2.60528l1.29026,-1.50531c0.25834,-0.30509 0.6442,-0.49877 1.07529,-0.49877c0.77784,0 1.40839,0.63055 1.40839,1.40839c0,0.16839 -0.02955,0.32987 -0.08375,0.47955c0.15649,-0.13927 0.31348,-0.27807 0.47105,-0.41656l0.85115,-1.27673c0.25077,-0.3883 0.68736,-0.64533 1.18397,-0.64533c0.63355,0 1.16939,0.41832 1.34638,0.99383l0.44041,1.32124l-0.07387,0.02463l0.12796,0.19515c-0.00051,0.11039 -0.00025,0.22005 0.00041,0.32879c0.14457,-0.07071 0.28812,-0.13812 0.43172,-0.20088c0.61261,-0.3987 1.33358,-0.75695 2.30758,-1.1758l1.7498,-0.87491c0.19572,-0.10304 0.41865,-0.16136 0.65519,-0.16136c0.77784,0 1.40839,0.63055 1.40839,1.40839c0,0.522 -0.284,0.97769 -0.70591,1.22096l-0.72035,0.43221l2.17779,-0.27222c0.08035,-0.01336 0.16202,-0.0233 0.24471,-0.03059l0.32809,-0.04101c0.06429,-0.00898 0.12997,-0.01363 0.19672,-0.01363c0.11824,0 0.23307,0.01457 0.34281,0.04201c0.36109,0.00771 0.72276,0.01601 1.06367,-0.0316c3.46091,-0.4833 6.82244,-0.46109 10.3113,-0.46109h1.80274c0.72294,0 1.31866,0.54471 1.39914,1.24608c1.54994,-0.35799 3.72393,0.01218 5.22962,-0.11326l2.22592,-0.22259c0.05219,-0.00586 0.10523,-0.00888 0.15899,-0.00888c0.06619,0 0.13134,0.00456 0.1951,0.01341l0.49629,-0.41357c-0.04651,-0.13982 -0.0717,-0.28941 -0.0717,-0.44487c0,-0.77784 0.63055,-1.40839 1.40839,-1.40839c0.16727,0 0.32771,0.02916 0.47656,0.08267l1.26953,0.42318c0.23627,0.05289 0.47025,0.11392 0.70213,0.18214c0.12105,-0.62417 0.65428,-1.10125 1.30503,-1.13657l2.801,-0.17506l0.02455,0.39285c2.17603,-0.26879 4.0742,-0.00353 6.37348,0.72352c0.10976,-0.02746 0.22463,-0.04204 0.34289,-0.04204c0.04898,0 0.09737,0.0025 0.14506,0.00738l0.55207,0.05018c-0.02579,-0.04428 -0.0508,-0.08907 -0.07499,-0.13437c-0.05065,-0.07769 -0.09384,-0.16068 -0.12856,-0.24797c-2.96189,-5.88969 4.52003,-4.37915 8.7466,-2.84252c-0.00105,-0.0071 -0.00208,-0.01423 -0.0031,-0.02136l-0.09702,-0.21758l-0.3939,0.05627l-0.22192,-1.55341c-0.01157,-0.07268 -0.01758,-0.14722 -0.01758,-0.22316c0,-0.77784 0.63055,-1.40839 1.40839,-1.40839c0.58491,0 1.08654,0.35656 1.2994,0.86417l0.92764,2.08047c0.08912,0.17987 0.17752,0.35704 0.26509,0.53184c0.19796,0.22869 0.37708,0.49421 0.54472,0.77883c0.58013,0.05965 0.97455,0.53296 0.97455,0.53296c1.44286,1.7746 1.76594,3.68334 3.01934,5.52861l0.45068,0.67603c0,0 0.78124,1.17185 -0.39062,1.95308zM219.04793,111.93646c0.00042,0.00001 0.00086,0.00003 0.00127,0.00006l-0.00009,-0.00077zM264.77691,108.82956c-0.64557,-0.15345 -1.32028,-0.17763 -1.96902,-0.31066l0.25839,0.2871c0.16166,0.16334 0.32432,0.33635 0.47932,0.50619h2.18831v0.30413c0.00953,-0.00041 0.01905,-0.0008 0.02856,-0.00116c0.20531,-0.16233 0.4569,-0.26868 0.73175,-0.296c-0.5682,-0.17887 -1.13815,-0.35192 -1.71732,-0.48959z" fill="#5aff00" stroke="none" stroke-width="0" stroke-linecap="butt"/><g fill="#5aff00" stroke="#297500" stroke-width="3.5" stroke-linecap="butt"><path d="M226.54111,135.10757c2.69647,0 4.8824,2.18593 4.8824,4.8824c0,2.69647 -2.18593,4.8824 -4.8824,4.8824c-2.69647,0 -4.8824,-2.18593 -4.8824,-4.8824c0,-2.69647 2.18593,-4.8824 4.8824,-4.8824z"/><g><path d="M259.60268,139.73961c0,2.69647 -2.18593,4.8824 -4.88242,4.8824c-2.69649,0 -4.8824,-2.18592 -4.8824,-4.8824c0,-2.69649 2.18593,-4.88242 4.8824,-4.88242c2.69649,0 4.88242,2.18593 4.88242,4.88242z"/></g></g><path d="M220.33078,151.69073c0,0 14.61172,2.73629 21.08557,2.73629c5.85837,0 16.09585,-2.73629 16.09585,-2.73629c0,0 2.25342,5.30899 2.25342,7.40409c0,0.86136 -11.25662,7.91206 -21.69899,7.57861c-9.81921,-0.31355 -18.86255,-7.95766 -18.86255,-8.86628c0,-1.98213 1.12671,-6.11642 1.12671,-6.11642z" fill="#5aff00" stroke="#297500" stroke-width="2.5" stroke-linecap="butt"/><path d="M262.98478,124.48874l-11.2671,3.54109" fill="#5aff00" stroke="#297500" stroke-width="2" stroke-linecap="round"/><path d="M220.33078,121.59149l11.74997,8.20888" fill="#5aff00" stroke="#297500" stroke-width="2" stroke-linecap="round"/><path d="M257.02933,154.26606l-4.02396,6.5993l-4.50684,-4.82875l-2.89725,6.92122l-4.50684,-5.95546l-3.863,7.40409l-3.05822,-8.69176l-5.95546,7.08217l-2.57533,-9.49655" fill="#5aff00" stroke="#297500" stroke-width="2" stroke-linecap="round"/><path d="M225.64242,153.46128l-5.15067,5.79451" fill="#5aff00" stroke="#297500" stroke-width="2" stroke-linecap="round"/><path d="M293.65377,146.40983c0.55609,-4.84935 0.28154,-15.14725 0.28154,-15.14725c0,0 -5.73865,-11.03762 -9.42319,-15.81458c-3.31131,-4.29306 -11.68419,-11.55083 -11.68419,-11.55083l-9.98044,-7.71353c0,0 14.67466,-4.58296 21.01736,-1.40035c3.09388,1.55243 13.1345,7.80044 18.83649,16.91632c5.76276,9.21304 7.17599,21.30711 8.16044,25.23616c2.00315,7.99483 1.57113,25.60988 1.57113,25.60988c0,0 -2.19522,6.7893 -6.9241,11.26166c-4.95072,4.68218 -12.52688,7.10626 -16.34214,9.40502c-5.32143,3.20627 -17.2847,3.76608 -17.2847,3.76608c0,0 8.96783,-6.96008 12.1455,-11.38567c3.02905,-4.21861 6.496,-14.57678 6.496,-14.57678c0,0 2.55013,-9.54659 3.13031,-14.60611z" fill="#3e0909" stroke="#3e0909" stroke-width="NaN" stroke-linecap="butt"/><path d="M239.75708,87.89565c23.2652,-0.49084 42.52329,17.97137 43.01414,41.23657c0.49084,23.2652 -17.97141,42.52329 -41.23658,43.01414c-23.26521,0.49085 -42.52328,-17.97138 -43.01416,-41.23653c-0.4909,-23.2652 17.97135,-42.5233 41.23653,-43.01415z" fill="#f20000" stroke="#3e0909" stroke-width="3.5" stroke-linecap="butt"/><path d="M189.47654,161.24129c0,0 3.46695,10.35817 6.496,14.57678c3.17767,4.42559 12.1455,11.38568 12.1455,11.38568c0,0 -11.96327,-0.55983 -17.2847,-3.76609c-3.81526,-2.29877 -11.39144,-4.72284 -16.34214,-9.40502c-4.72888,-4.47237 -6.9241,-11.26166 -6.9241,-11.26166c0,0 -0.43203,-17.61507 1.57114,-25.60989c0.98445,-3.92904 2.39768,-16.02312 8.16044,-25.23615c5.70198,-9.11588 15.74261,-15.36389 18.83649,-16.91632c6.34269,-3.18259 21.01735,1.40035 21.01735,1.40035l-9.98044,7.71353c0,0 -8.37288,7.25778 -11.68419,11.55085c-3.68454,4.77697 -9.42319,15.81458 -9.42319,15.81458c0,0 -0.27455,10.2979 0.28154,15.14725c0.58019,5.05951 3.13031,14.60611 3.13031,14.60611z" fill="#3e0909" stroke="#3e0909" stroke-width="NaN" stroke-linecap="butt"/><path d="M241.00553,115.11473c-36.99482,0 -46.21676,-5.27643 -46.21676,-12.61915c0,-7.34272 9.22194,-13.9712 46.21676,-13.9712c36.99482,0 45.04671,6.40314 45.04671,13.74586c0,7.34272 -8.05189,12.84449 -45.04671,12.84449z" fill="#f20000" stroke="#3e0909" stroke-width="3.5" stroke-linecap="butt"/><path d="M276.88087,116.6246c-0.50868,0.33912 -0.94377,0.31023 -1.27328,0.16891c-0.23789,0.1837 -0.53619,0.29297 -0.85999,0.29297c-0.24498,0 -0.47536,-0.06254 -0.67603,-0.17254c-0.19686,0.10792 -0.4223,0.17016 -0.66209,0.17249c0.30181,0.25831 0.49308,0.64204 0.49308,1.07044c0,0.77784 -0.63055,1.40839 -1.40839,1.40839c-0.18554,0 -0.36269,-0.03589 -0.52491,-0.10108l-1.77235,-0.66463l0.00874,-0.0233c-0.02642,-0.00648 -0.05279,-0.01324 -0.07912,-0.0203c-0.25411,0.36777 -0.67867,0.60875 -1.15952,0.60875c-0.22383,0 -0.43547,-0.05221 -0.6234,-0.14512l-1.67163,-0.78149c-0.0122,0.0003 -0.02444,0.00047 -0.03671,0.00047h-1.57739v-0.39433l-0.21767,-0.06218c-0.79081,0.07124 -1.56889,0.06045 -2.34264,-0.00783c-0.25773,0.28516 -0.63052,0.46434 -1.04516,0.46434c-0.18554,0 -0.36269,-0.03589 -0.52491,-0.10108l-1.74364,-0.65386c-0.4499,-0.14547 -0.87722,-0.34884 -1.28245,-0.59689c-0.44255,-0.11188 -0.88896,-0.22659 -1.34072,-0.33982c-0.01072,0.05525 -0.02702,0.11054 -0.04946,0.16585c-0.44272,1.09059 -1.89208,1.43699 -2.96976,1.91027c-3.85859,1.69456 -8.79753,0.02613 -12.44809,-1.51878c-0.01126,0.00117 -0.02255,0.0022 -0.03387,0.0031l-0.05327,0.00484c-1.91944,1.04597 -4.11753,1.60686 -6.83711,2.01221c-0.62056,0.0925 -4.15274,0.5343 -4.77967,0.03051c-0.89091,-0.71591 -1.31553,-1.449 -1.37248,-2.14957c-1.00784,-0.10642 -2.0153,-0.22958 -3.01929,-0.35508c-0.76812,-0.09602 -2.27985,-0.05075 -3.64282,-0.26157c-1.59816,0.03477 -3.18915,0.03064 -4.73799,0.04709l-0.00748,-0.00276v0.00279h-1.80274c-0.22431,0 -0.43636,-0.05244 -0.62459,-0.14572c-0.67467,0.19408 -1.32635,0.371 -1.91794,0.54222l-1.54612,0.44175c-0.13213,0.04103 -0.27257,0.06313 -0.41819,0.06313c-0.77784,0 -1.40839,-0.63055 -1.40839,-1.40839c0,-0.22435 0.05246,-0.43644 0.14577,-0.62469c-0.05626,-0.06123 -0.10717,-0.12743 -0.15199,-0.1979c-0.21571,0.1829 -0.41203,0.35684 -0.57557,0.51997l-0.0747,0.0313l0.01523,0.01903l-1.11794,0.89436c-0.24238,0.19733 -0.55166,0.31564 -0.88858,0.31564c-0.52525,0 -0.98335,-0.28754 -1.22547,-0.71378c-0.00581,-0.0014 -0.01164,-0.00283 -0.01749,-0.00428c-1.36634,-0.34158 -1.02475,-1.70792 -1.02475,-1.70792l0.33198,-1.18964c0.56971,-1.12362 0.8852,-2.34866 1.59825,-2.60528l1.29026,-1.50531c0.25834,-0.30509 0.6442,-0.49877 1.07529,-0.49877c0.77784,0 1.40839,0.63055 1.40839,1.40839c0,0.16839 -0.02955,0.32987 -0.08375,0.47955c0.15649,-0.13927 0.31348,-0.27807 0.47105,-0.41656l0.85115,-1.27673c0.25077,-0.3883 0.68736,-0.64533 1.18397,-0.64533c0.63355,0 1.16939,0.41832 1.34638,0.99383l0.44041,1.32124l-0.07387,0.02463l0.12796,0.19515c-0.00051,0.11039 -0.00025,0.22005 0.00041,0.32879c0.14457,-0.07071 0.28812,-0.13812 0.43172,-0.20088c0.61261,-0.3987 1.33358,-0.75695 2.30758,-1.1758l1.7498,-0.87491c0.19572,-0.10304 0.41865,-0.16136 0.65519,-0.16136c0.77784,0 1.40839,0.63055 1.40839,1.40839c0,0.522 -0.284,0.97769 -0.70591,1.22096l-0.72035,0.43221l2.17779,-0.27222c0.08035,-0.01336 0.16202,-0.0233 0.24471,-0.03059l0.32809,-0.04101c0.06429,-0.00898 0.12997,-0.01363 0.19672,-0.01363c0.11824,0 0.23307,0.01457 0.34281,0.04201c0.36109,0.00771 0.72276,0.01601 1.06367,-0.0316c3.46091,-0.4833 6.82244,-0.46109 10.3113,-0.46109h1.80274c0.72294,0 1.31866,0.54471 1.39914,1.24608c1.54994,-0.35799 3.72393,0.01218 5.22962,-0.11326l2.22592,-0.22259c0.05219,-0.00586 0.10523,-0.00888 0.15899,-0.00888c0.06619,0 0.13134,0.00456 0.1951,0.01341l0.49629,-0.41357c-0.04651,-0.13982 -0.0717,-0.28941 -0.0717,-0.44487c0,-0.77784 0.63055,-1.40839 1.40839,-1.40839c0.16727,0 0.32771,0.02916 0.47656,0.08267l1.26953,0.42318c0.23627,0.05289 0.47025,0.11392 0.70213,0.18214c0.12105,-0.62417 0.65428,-1.10125 1.30503,-1.13657l2.801,-0.17506l0.02455,0.39285c2.17603,-0.26879 4.0742,-0.00353 6.37348,0.72352c0.10976,-0.02746 0.22463,-0.04204 0.34289,-0.04204c0.04898,0 0.09737,0.0025 0.14506,0.00738l0.55207,0.05018c-0.02579,-0.04428 -0.0508,-0.08907 -0.07499,-0.13437c-0.05065,-0.07769 -0.09384,-0.16068 -0.12856,-0.24797c-2.96189,-5.88969 4.52003,-4.37915 8.7466,-2.84252c-0.00105,-0.0071 -0.00208,-0.01423 -0.0031,-0.02136l-0.09702,-0.21758l-0.3939,0.05627l-0.22192,-1.55341c-0.01157,-0.07268 -0.01758,-0.14722 -0.01758,-0.22316c0,-0.77784 0.63055,-1.40839 1.40839,-1.40839c0.58491,0 1.08654,0.35656 1.2994,0.86417l0.92764,2.08047c0.08912,0.17987 0.17752,0.35704 0.26509,0.53184c0.19796,0.22869 0.37708,0.49421 0.54472,0.77883c0.58013,0.05965 0.97455,0.53296 0.97455,0.53296c1.44286,1.7746 1.76594,3.68334 3.01934,5.52861l0.45068,0.67603c0,0 0.78124,1.17185 -0.39062,1.95308zM219.04793,111.93646c0.00042,0.00001 0.00086,0.00003 0.00127,0.00006l-0.00009,-0.00077zM264.77691,108.82956c-0.64557,-0.15345 -1.32028,-0.17763 -1.96902,-0.31066l0.25839,0.2871c0.16166,0.16334 0.32432,0.33635 0.47932,0.50619h2.18831v0.30413c0.00953,-0.00041 0.01905,-0.0008 0.02856,-0.00116c0.20531,-0.16233 0.4569,-0.26868 0.73175,-0.296c-0.5682,-0.17887 -1.13815,-0.35192 -1.71732,-0.48959z" fill="#f20000" stroke="none" stroke-width="0.5" stroke-linecap="butt"/><g fill="#f20000" stroke="#3e0909" stroke-width="3.5" stroke-linecap="butt"><path d="M226.54111,135.10757c2.69647,0 4.8824,2.18593 4.8824,4.8824c0,2.69647 -2.18593,4.8824 -4.8824,4.8824c-2.69647,0 -4.8824,-2.18593 -4.8824,-4.8824c0,-2.69647 2.18593,-4.8824 4.8824,-4.8824z"/><g><path d="M259.60267,139.73961c0,2.69647 -2.18593,4.8824 -4.88242,4.8824c-2.69649,0 -4.8824,-2.18592 -4.8824,-4.8824c0,-2.69649 2.18593,-4.88242 4.8824,-4.88242c2.69649,0 4.88242,2.18593 4.88242,4.88242z"/></g></g><path d="M220.33078,151.69073c0,0 14.61172,2.73629 21.08557,2.73629c5.85837,0 16.09585,-2.73629 16.09585,-2.73629c0,0 2.25342,5.30899 2.25342,7.40409c0,0.86136 -11.25662,7.91206 -21.69899,7.57861c-9.81921,-0.31355 -18.86255,-7.95766 -18.86255,-8.86628c0,-1.98213 1.12671,-6.11642 1.12671,-6.11642z" fill="#989898" stroke="#3e0909" stroke-width="2.5" stroke-linecap="butt"/><path d="M262.98478,124.48874l-11.2671,3.54109" fill="none" stroke="#3e0909" stroke-width="2" stroke-linecap="round"/><path d="M220.33078,121.59149l11.74997,8.20888" fill="none" stroke="#3e0909" stroke-width="2" stroke-linecap="round"/><path d="M257.02932,154.26606l-4.02396,6.5993l-4.50684,-4.82875l-2.89725,6.92122l-4.50684,-5.95546l-3.863,7.40409l-3.05822,-8.69176l-5.95546,7.08217l-2.57533,-9.49655" fill="none" stroke="#3e0909" stroke-width="2" stroke-linecap="round"/><path d="M225.64242,153.46128l-5.15067,5.79451" fill="none" stroke="#3e0909" stroke-width="2" stroke-linecap="round"/></g></g></g></svg>