<svg version="1.1" xmlns="http://www.w3.org/2000/svg" xmlns:xlink="http://www.w3.org/1999/xlink" width="31.13599" height="31.16854" viewBox="0,0,31.13599,31.16854"><g transform="translate(-223.16375,-91.69615)"><g data-paper-data="{&quot;isPaintingLayer&quot;:true}" fill="#000000" fill-rule="nonzero" stroke="none" stroke-width="0" stroke-linecap="butt" stroke-linejoin="miter" stroke-miterlimit="10" stroke-dasharray="" stroke-dashoffset="0" style="mix-blend-mode: normal"><g><path d="M232.66776,102.62575c0,6.03625 -2.12754,10.9296 -4.752,10.9296c-2.62446,0 -4.752,-4.89335 -4.752,-10.9296c0,-6.03625 2.12754,-10.92959 4.752,-10.92959c2.62446,0 4.752,4.89334 4.752,10.92959z"/><path d="M254.29975,103.34895c0,6.03625 -2.12754,10.92959 -4.75199,10.92959c-2.62446,0 -4.752,-4.89335 -4.752,-10.92959c0,-6.03625 2.12754,-10.9296 4.752,-10.9296c2.62446,0 4.75199,4.89335 4.75199,10.9296z"/><path d="M230.51682,120.2647c0,-1.43594 1.16406,-2.6 2.6,-2.6c1.43594,0 2.6,1.16406 2.6,2.6c0,1.43594 -1.16406,2.6 -2.6,2.6c-1.43594,0 -2.6,-1.16406 -2.6,-2.6z"/></g></g></g></svg>