<svg height="577" width="433" viewBox="0 0 433 577" xmlns="http://www.w3.org/2000/svg">
<path stroke-linejoin="round" stroke-width="0.25" stroke="#23242e" fill-rule="evenodd" fill="#23242e" d="M219.5 118.96C219.67 118.91 219.83 118.86 220 118.82C219.75 119.71 219.5 120.61 219.25 121.5C222.86 121.03 226.47 120.55 230.08 120.08C230.16 120.05 230.23 120.02 230.3 119.99C238.37 120.79 246.43 121.59 254.5 122.39C263.93 127.04 269.3 134.21 274.08 143C274.08 143.33 274.08 143.67 274.08 144C274.19 144.17 274.31 144.33 274.42 144.5C275.78 145.92 277.14 147.33 278.5 148.75C277.72 148.75 276.94 148.75 276.15 148.75C277.52 150.33 278.89 151.92 280.26 153.5C276.67 150 272.94 144.49 268.48 142.27C265.62 140.84 263.4 141.88 260.52 139.73C258.6 138.31 260.17 132.97 257.14 132.2C256.21 131.96 255.62 142.66 256.25 143.87C257.85 141.29 263.42 141.23 261.68 144.92C260.71 146.96 257.86 145.78 256.76 147.51C255.71 149.16 256.68 151.42 255.92 153.15C255.33 154.51 253.33 154.28 252.72 155.4C251.18 158.24 255.2 160.56 254.31 162.62C254.2 162.85 254.02 162.87 253.83 163.02C248.6 167.24 249.77 160.82 243.94 170.71C241.89 174.18 241.67 184.48 236.68 185.96C230.5 187.79 241.8 171.61 236.07 168.21C228.29 163.58 227.47 176.6 223.86 175.79C220.78 175.1 227.44 164.39 224.69 162.6C222.42 161.12 218.55 170.76 216.54 172.25C218.11 171.5 219.68 170.75 221.25 170C220.17 173.24 221.19 180.51 226.25 180.47C226.97 180.46 228.53 169.93 230.73 173.02C231.43 173.99 228.77 192.23 229.25 195.5C230.94 194.61 233.65 186.85 236.73 193.02C239.69 198.93 233.23 203.27 233.61 208.17C234.14 214.93 256.2 217.5 261.38 217.5C262.42 218.8 263.46 220.09 264.5 221.39C259.6 224.83 256.55 220.26 251.98 219.26C242.87 217.25 229.15 221.79 224.84 211C224.73 210.89 224.61 210.78 224.5 210.66C224 210.5 223.5 210.33 223 210.16C218.55 209.85 217.98 205.12 214.75 204.87C210.97 204.57 210.99 210.15 207.89 208.82C204.67 207.44 205.64 198.34 201.24 198.2C198.26 198.1 194.47 205.35 189.61 205.77C185.48 206.13 183.21 201.2 179.65 200.64C177.77 200.34 178.86 204.28 176.61 204.77C172.98 205.56 171.07 201.74 167.94 202.73C165.04 203.64 161.54 211.2 165.43 212.78C167.63 213.68 173.26 211.81 175.5 211.4C175.67 211.26 175.83 211.13 176 211C176.17 210.83 176.33 210.67 176.5 210.5C176.67 210.35 176.83 210.19 177 210.04C177.17 209.98 177.33 209.93 177.5 209.87C179.51 209.93 191.17 209.67 189.91 213.16C188.96 215.75 186.92 211.88 185.83 212.11C184.12 212.46 186.29 215.28 183.66 215.91C180.37 216.69 176.48 215.23 173 215.65C158.19 214 154.67 225.9 148.66 237.38C147.45 239.68 142.5 245.62 143.48 248C143.55 249.76 142.55 251.95 142.09 253.84C141.01 258.4 135.85 251.24 132.67 251.11C128.74 250.95 130.4 255.45 126 250.49C122.76 247.86 122.86 239.44 121.91 235.84C116.29 214.57 125.43 199.13 131.01 179C133.35 170.57 134.27 156.67 143.5 152.73C143.75 153.43 144 154.13 144.25 154.83C152.31 147.72 160.36 140.61 168.42 133.5C170.63 128.67 194.28 122.23 199.75 122.2C202.46 122.19 204.77 124.58 207.25 124.52C210.83 124.42 214.51 120.7 218 119.8C218.5 119.52 219 119.24 219.5 118.96ZM217.38 126.73C211.68 127.16 182.97 134.35 184.6 140.14C184.7 140.49 191.77 143.67 192.73 143.53C193.75 143.38 196.02 139.54 197.02 141.76C199.28 146.8 185.66 148.49 190.89 153.88C196.38 159.56 203.96 143.22 205.17 141.37C206.01 140.1 209.03 140.54 209.81 138.67C210.41 137.24 209.5 135.52 210.43 134.2C214.83 127.96 222.97 141.85 226.11 139.87C231.28 136.59 218.26 126.67 217.38 126.73ZM139.37 181.06C137.84 181.59 134.38 206.55 146.57 199.79C151.65 196.97 141.91 180.17 139.37 181.06ZM190.36 183.25C188.19 183.65 188.18 186.65 185.15 186.82C183.91 186.89 178.89 185.47 178.48 186.73C176.62 192.36 182.71 191.33 184.12 192.05C185.94 193 185.63 197.24 188.34 197.93C189.71 198.27 191.36 194.69 191.99 197.75C192.15 198.54 191.77 200.17 193.18 199.86C197.04 199.03 195.46 182.31 190.36 183.25ZM158.92 346C159.79 346.16 160.67 346.32 161.54 346.48C161.76 348.32 161.98 350.16 162.2 352C161.94 354 161.68 356 161.42 358C161.24 358.28 161.06 358.56 160.88 358.84C160.76 359.06 160.63 359.28 160.5 359.5C160.47 359.67 160.44 359.83 160.42 360C160.21 360.17 160 360.33 159.79 360.5C159.76 360.59 159.73 360.69 159.7 360.78C159.62 360.8 159.54 360.82 159.46 360.84C159.49 359.53 161.31 347.98 159.36 348.25C152.95 349.17 138.1 371.3 145.13 376.12C148.63 378.53 157.79 363.29 159.46 360.84C159.4 361.23 159.33 361.61 159.26 362C159.24 362.17 159.22 362.33 159.2 362.5C158.1 364.79 157 367.09 155.9 369.38C155.7 369.59 155.5 369.79 155.3 370C155.27 370.09 155.23 370.19 155.2 370.28C155.07 370.52 154.93 370.76 154.8 371C154.76 371.09 154.73 371.19 154.7 371.28C154.63 371.52 154.57 371.76 154.5 372C154.47 372.09 154.45 372.19 154.42 372.28C154.25 372.49 154.07 372.69 153.9 372.89C153.77 373.09 153.63 373.3 153.5 373.5C153.47 373.67 153.44 373.83 153.42 374C153.23 374.11 153.04 374.23 152.85 374.34C152.7 374.51 152.54 374.69 152.38 374.87C152.23 375.24 152.08 375.62 151.93 376C151.92 376.17 151.92 376.33 151.92 376.5C151.77 376.67 151.62 376.83 151.48 377C151.46 377.17 151.44 377.33 151.42 377.5C151.26 378 151.11 378.5 150.95 379C150.94 379.17 150.93 379.33 150.92 379.5C150.69 381.17 150.46 382.83 150.24 384.5C150.24 385 150.24 385.5 150.24 386C150.46 386.5 150.69 387 150.92 387.5C150.92 387.83 150.93 388.17 150.94 388.5C151.1 389 151.26 389.5 151.42 390C151.4 390.17 151.38 390.33 151.37 390.5C151.52 391.17 151.68 391.83 151.84 392.5C152.03 393 152.22 393.5 152.42 394C152.41 394.17 152.4 394.33 152.4 394.5C152.57 394.83 152.74 395.17 152.92 395.5C152.91 395.67 152.9 395.83 152.89 396C153.07 396.33 153.24 396.67 153.42 397C153.41 397.17 153.4 397.33 153.4 397.5C153.57 397.83 153.74 398.17 153.92 398.5C153.91 398.67 153.91 398.83 153.91 399C154.06 399.33 154.21 399.67 154.36 400C154.54 400.33 154.73 400.67 154.92 401C154.93 401.17 154.94 401.33 154.95 401.5C155.1 401.67 155.26 401.83 155.42 402C155.42 402.17 155.42 402.33 155.43 402.5C155.59 402.83 155.75 403.17 155.92 403.5C155.92 403.67 155.92 403.83 155.93 404C156.08 404.5 156.23 405 156.38 405.5C156.56 405.83 156.74 406.17 156.92 406.5C156.93 406.67 156.95 406.83 156.96 407C157.09 407.17 157.22 407.33 157.35 407.5C157.52 407.89 157.69 408.27 157.86 408.66C158.02 408.77 158.18 408.89 158.34 409C158.53 409.37 158.71 409.74 158.9 410.11C159.07 410.24 159.24 410.37 159.42 410.5C159.44 410.67 159.47 410.83 159.5 411C159.63 411.21 159.76 411.42 159.89 411.63C160.07 411.75 160.24 411.88 160.42 412C160.44 412.17 160.46 412.33 160.48 412.5C160.63 412.67 160.77 412.83 160.92 413C160.94 413.17 160.96 413.33 160.98 413.5C161.11 413.67 161.23 413.83 161.35 414C161.76 414.9 162.16 415.79 162.56 416.69C165.21 420.8 167.85 424.91 170.5 429.02C170.67 429.19 170.84 429.35 171.01 429.51C171.17 429.72 171.34 429.92 171.5 430.13C171.83 430.37 172.17 430.61 172.5 430.85C172.53 430.9 172.56 430.95 172.58 431C172.72 431.17 172.86 431.33 173 431.5C173.17 431.58 173.33 431.67 173.5 431.75C173.33 431.67 173.17 431.58 173 431.5C172.99 431.33 172.97 431.17 172.96 431C173.31 431 173.65 431 174 431C174.67 431.67 175.33 432.33 176 433C176 433.33 176 433.67 176 434C175.83 434.08 175.67 434.17 175.5 434.25C175.67 434.17 175.83 434.08 176 434C177.33 435.33 178.67 436.67 180 438C180.17 438.17 180.33 438.33 180.5 438.5C180.67 438.64 180.83 438.78 181 438.92C181.17 438.92 181.33 438.92 181.5 438.92C179.67 436.94 177.83 434.97 176 433C176 432.67 176 432.33 176 432C180.42 435.67 184.83 439.33 189.25 443C193.55 442.14 209.26 449.34 206.5 451.58C206.47 451.72 206.44 451.86 206.42 452C206.94 452.63 207.47 453.25 208 453.88C206.86 460.03 217.71 460.42 221.17 459.89C229.57 458.61 233.86 444.68 244.25 441.5C243.51 439.28 243.99 433.47 244.27 432.48C245 429.84 251.84 424.83 253.77 423.06C255.53 421.44 255.49 418 256.77 416.02C260.22 410.63 264.75 405.81 268.07 400.84C269.68 398.42 269.03 387.66 271.77 387.02C275.43 386.16 274.69 396.19 275.21 398.23C275.66 400.03 280.32 403.55 282 404.79C292.61 412.65 292.48 394.34 299.57 399.17C300.92 400.09 299.66 402.48 300.41 403.78C302.08 406.64 306.95 408.98 307.96 411.83C308.77 414.15 299.07 424.39 295.95 425.69C294.47 426.31 291.82 424.71 291.01 425.3C289.78 426.2 291.13 428.72 290.12 429.89C289.3 430.84 287.22 430.26 286.26 431.03C284.6 432.36 285.65 435.16 284.72 436.57C283.28 438.76 273.77 438.71 276.19 444.55C276.53 445.37 277.27 445.58 278.08 445.72C278.56 445.8 309.73 434.82 310.53 434.29C311.57 433.59 316.79 425.66 317.23 424.1C319 417.96 312.65 402.19 318.14 398.33C320.53 396.65 321.21 401.56 322.78 401.94C325.17 402.52 328.94 400.74 330.95 402.73C335.68 407.39 330.51 413.81 333.24 418.68C334.2 420.38 337.59 420.46 338.95 421.7C344.29 426.57 346.51 431.27 348.49 438.31C348.77 439.29 350.87 439.88 349.73 441.57C349.24 442.28 347.1 441.55 346.34 442.15C345.58 442.74 346.37 444.3 345.64 444.81C344.52 445.58 341.57 444.74 340.23 444.93C336.09 445.52 333.87 453.08 332.83 456.63C332.45 457.94 329.99 460.56 330.08 461.24C331 469.01 340.5 456.12 340.65 456.15C344.49 456.77 341.09 463.89 341.27 465.1C341.46 466.44 343.17 471.08 344.15 471.67C344.45 471.84 347.38 472.68 346.88 473.59C345.08 476.81 331.04 473.71 328.75 473.78C312.88 474.24 296.77 476.9 280 475.8C285.09 473.53 281.91 470.61 285.06 467.34C289.03 463.2 295.56 457.19 300.54 453.78C304.48 451.08 308.52 454.54 312.65 453.81C319.46 452.61 321.25 446.74 324.89 441.65C328.45 436.66 330.16 416.24 323.58 413.26C319.85 411.57 318.72 432.74 314.85 435.58C309.58 439.46 275.43 445.24 272.41 449.67C271.22 451.42 273.41 453.31 273.28 455.11C273.09 457.57 269.5 471.77 268.64 473.5C268.32 468.5 271.89 455.18 271.08 454.69C267.13 452.31 263.13 469.2 261.72 470.5C261.77 469.17 262.22 465.9 260.7 465.08C253.76 461.33 228.85 465.97 221.11 468.83C218.16 469.91 209.1 472.16 210.58 476.5C208.65 478.58 201.22 477.4 198.25 477.37C186.75 477.28 175.25 477.27 163.75 477.18C124.3 476.88 83.64 477.35 44.25 477.35C38.67 477.35 4.79 479 2.34 476.94C1.2 475.99 1.78 457.11 1.79 454.25C1.81 443.44 -2.23 417.09 11.34 414.71C13.78 414.28 18.93 414.52 21.64 413.39C25.9 411.62 26.53 404.36 30 403C30.38 402.83 30.76 402.67 31.13 402.5C31.23 402 31.32 401.5 31.42 401C31.44 400.86 31.47 400.72 31.5 400.58C39.47 377.04 75.28 397.91 90.73 393.48C100.1 390.8 110.17 386.18 119 384.42C119.14 384.28 119.28 384.14 119.42 384C120.55 378.19 142.24 356.2 147.22 351.51C149.42 349.45 156.01 344.77 158.92 346ZM108.31 392.54C102.73 394.98 95.66 418.69 90.75 419.16C85.16 419.69 97.01 403.13 96.02 400.81C94.59 397.45 88.65 402.94 87.81 402.81C86.04 402.53 73.12 399.52 71.63 402.89C69.78 407.06 76.59 438.1 78.29 444.43C78.89 446.65 80.72 454.84 82.9 455.9C84.71 456.77 84.25 448.94 86.41 448.16C88.68 447.34 90.02 449.2 91.89 449.77C95.35 450.82 100.61 447.26 104.13 448.18C109.06 449.48 112.63 455.65 117.36 457.83C122.21 460.07 128.66 457.15 133.76 458.96C137.64 460.35 144.9 464.82 149.09 463.28C152.24 462.11 147.55 456.87 150.94 455.73C154.08 454.67 159.09 458.13 161.79 456.05C163.12 455.02 162.66 453.53 161.97 452.28C160.14 448.96 145.27 452.54 141.8 453.6C128.44 457.66 122.38 452.07 111.73 445.52C109.38 444.07 106.02 443.65 104.02 441.73C97.93 435.88 109.02 406.33 111.45 399.18C112.14 397.15 111.85 391 108.31 392.54ZM43.88 395.16C38.48 397.07 41.11 407.82 41.96 411.76C45.17 426.49 46.99 442.8 49.44 457.76C49.95 460.88 46.55 474.84 50.27 475.55C54.98 476.45 55.47 469.16 56.18 465.84C58.39 455.4 53.05 445.54 51.49 435.25C51.2 433.3 50 422.32 54.64 424.16C57.79 425.4 56.84 433.03 57.18 435.65C58.3 444.35 63.24 457.09 66.72 465.61C67.72 468.05 69.9 478.64 74.48 475.37C76.94 473.62 73.15 468.21 72.56 466.2C69.91 457.19 66.38 447.62 65.68 438.23C65.25 432.43 65.84 399.97 61.11 398.69C59.34 398.21 55.55 411.62 55.01 415.77C54.9 416.57 54.4 417.58 53.32 416.87C50.91 415.3 52.09 392.25 43.88 395.16ZM29.25 460.98C33.73 454.44 39.34 420.63 25.31 422.17C20.13 422.73 26.71 431.99 27.09 435.25C28.02 443.21 25.44 453.73 29.25 460.98ZM187.75 442C187.67 442.08 187.58 442.17 187.5 442.25C187.58 442.33 187.67 442.42 187.75 442.5C187.83 442.42 187.92 442.33 188 442.25C187.92 442.17 187.83 442.08 187.75 442ZM360.28 446.98C361.12 446.63 362.23 446.23 362.72 447.42C362.92 447.9 364.98 472.86 364.89 473.17C364.39 474.8 362.33 475.65 360.75 475.64C354.58 475.62 357.36 448.2 360.28 446.98ZM203.88 462.69C197.72 463.43 170.47 461.86 167.42 463.71C166.02 464.57 166.5 467.81 166.72 469.1C168.83 481.27 180.33 474.27 186.78 472.57C189.41 471.87 192.16 472.68 194.75 471.54C195.53 471.2 212.7 461.63 203.88 462.69Z"></path>
<path stroke-linejoin="round" stroke-width="0.25" stroke="#242b3d" fill-rule="evenodd" fill="#242b3d" d="M280.26 153.5C281.93 155.1 286.88 164.62 285.56 166.75C284.56 168.36 282.4 167.64 281.37 169.84C280.89 170.88 280.83 174.18 280.11 174.77C278.13 176.41 274.38 171.67 273.46 174.33C272.74 176.42 278.28 185.96 273.2 186.86C272.82 186.93 272.49 186.77 272.23 186.52C268.77 183.36 270.81 172.2 267.11 168.11C265.27 166.08 267.05 163.59 264.02 161.72C263.54 161.43 262.48 160.61 262.05 161.33C260.33 164.17 264.94 166.42 264.84 168.74C264.65 173.27 259.79 173.57 263.11 182.73C264.94 187.79 273.2 189.53 275.63 192.75C276.52 193.94 272.9 200.41 273.05 202.24C273.25 204.77 275.95 214.84 275.84 215.13C275.44 216.26 273.28 215.88 272.36 216.61C267.38 220.55 266.65 204.19 262.31 204.61C258.52 204.98 262.38 215.45 261.38 217.5C256.2 217.5 234.14 214.93 233.61 208.17C233.23 203.27 239.69 198.93 236.73 193.02C233.65 186.85 230.94 194.61 229.25 195.5C228.77 192.23 231.43 173.99 230.73 173.02C228.53 169.93 226.97 180.46 226.25 180.47C221.19 180.51 220.17 173.24 221.25 170C219.68 170.75 218.11 171.5 216.54 172.25C218.55 170.76 222.42 161.12 224.69 162.6C227.44 164.39 220.78 175.1 223.86 175.79C227.47 176.6 228.29 163.58 236.07 168.21C241.8 171.61 230.5 187.79 236.68 185.96C241.67 184.48 241.89 174.18 243.94 170.71C249.77 160.82 248.6 167.24 253.83 163.02C254.02 162.87 254.2 162.85 254.31 162.62C255.2 160.56 251.18 158.24 252.72 155.4C253.33 154.28 255.33 154.51 255.92 153.15C256.68 151.42 255.71 149.16 256.76 147.51C257.86 145.78 260.71 146.96 261.68 144.92C263.42 141.23 257.85 141.29 256.25 143.87C255.62 142.66 256.21 131.96 257.14 132.2C260.17 132.97 258.6 138.31 260.52 139.73C263.4 141.88 265.62 140.84 268.48 142.27C272.94 144.49 276.67 150 280.26 153.5ZM223 210.16C223.5 210.33 224 210.5 224.5 210.66C224 210.5 223.5 210.33 223 210.16ZM224.5 210.66C224.61 210.78 224.73 210.89 224.84 211C224.73 210.89 224.61 210.78 224.5 210.66ZM267 343.34C274.56 343.33 280.65 357.11 285.16 361.84C285.28 361.99 285.39 362.13 285.5 362.28C295.49 365.5 299.2 373.17 307.48 378.19C313.15 381.63 328.81 385.57 335.77 387.45C341.73 389.05 345.65 384.22 351.14 385.2C356.73 386.19 360.9 394.14 367 392.94C374.28 391.5 379.84 386.2 388.1 388.21C397.54 390.51 394.57 401.18 400.97 405.71C406.59 409.69 422.63 408.68 429.68 416.55C432.14 419.3 430.68 428.24 430.65 431.75C430.53 445.54 433.52 463.1 430.48 476.25C429.95 478.52 423.01 477.41 421.25 477.41C411.34 477.4 401.42 477.5 391.52 477.33C360.96 476.81 330.32 477.34 299.75 477.4C289.36 477.42 270.98 481.07 261.5 476.58C261.57 474.56 261.64 472.53 261.72 470.5C263.13 469.2 267.13 452.31 271.08 454.69C271.89 455.18 268.32 468.5 268.64 473.5C268.47 478.01 276.68 475.87 280 475.8C296.77 476.9 312.88 474.24 328.75 473.78C331.04 473.71 345.08 476.81 346.88 473.59C347.38 472.68 344.45 471.84 344.15 471.67C343.17 471.08 341.46 466.44 341.27 465.1C341.09 463.89 344.49 456.77 340.65 456.15C340.5 456.12 331 469.01 330.08 461.24C329.99 460.56 332.45 457.94 332.83 456.63C333.87 453.08 336.09 445.52 340.23 444.93C341.57 444.74 344.52 445.58 345.64 444.81C346.37 444.3 345.58 442.74 346.34 442.15C347.1 441.55 349.24 442.28 349.73 441.57C350.87 439.88 348.77 439.29 348.49 438.31C346.51 431.27 344.29 426.57 338.95 421.7C337.59 420.46 334.2 420.38 333.24 418.68C330.51 413.81 335.68 407.39 330.95 402.73C328.94 400.74 325.17 402.52 322.78 401.94C321.21 401.56 320.53 396.65 318.14 398.33C312.65 402.19 319 417.96 317.23 424.1C316.79 425.66 311.57 433.59 310.53 434.29C309.73 434.82 278.56 445.8 278.08 445.72C277.27 445.58 276.53 445.37 276.19 444.55C273.77 438.71 283.28 438.76 284.72 436.57C285.65 435.16 284.6 432.36 286.26 431.03C287.22 430.26 289.3 430.84 290.12 429.89C291.13 428.72 289.78 426.2 291.01 425.3C291.82 424.71 294.47 426.31 295.95 425.69C299.07 424.39 308.77 414.15 307.96 411.83C306.95 408.98 302.08 406.64 300.41 403.78C299.66 402.48 300.92 400.09 299.57 399.17C292.48 394.34 292.61 412.65 282 404.79C280.32 403.55 275.66 400.03 275.21 398.23C274.69 396.19 275.43 386.16 271.77 387.02C269.03 387.66 269.68 398.42 268.07 400.84C264.75 405.81 260.22 410.63 256.77 416.02C255.49 418 255.53 421.44 253.77 423.06C251.84 424.83 245 429.84 244.27 432.48C243.99 433.47 243.51 439.28 244.25 441.5C233.86 444.68 229.57 458.61 221.17 459.89C217.71 460.42 206.86 460.03 208 453.88C223.15 461.54 216.05 448.28 229.23 443.8C231.96 442.87 231.65 437.98 234.5 438.42C235.02 437.94 235.54 437.47 236.06 437C235.87 437.92 235.69 438.83 235.5 439.75C239.98 434.5 244.46 429.25 248.93 424C248.99 423.87 249.04 423.74 249.1 423.61C249.22 423.59 249.35 423.58 249.48 423.56C249.52 423.37 249.56 423.19 249.6 423C250.69 421.83 251.79 420.67 252.88 419.5C253.01 419.83 253.13 420.17 253.25 420.5C253.22 420 253.18 419.5 253.15 419C253.29 418.5 253.42 418 253.56 417.5C253.63 417.83 253.69 418.17 253.75 418.5C253.69 418.17 253.63 417.83 253.56 417.5C253.71 417.01 253.85 416.53 254 416.04C254.08 416.36 254.17 416.68 254.25 417C254.33 416.68 254.41 416.36 254.49 416.04C254.65 415.7 254.81 415.36 254.97 415.01C255.14 414.66 255.32 414.31 255.49 413.95C255.54 413.8 255.59 413.65 255.65 413.5C255.76 413.18 255.88 412.87 256 412.55C261.58 403.78 269.89 373.32 266.25 363.5C266.14 364.5 266.03 365.5 265.92 366.5C265.47 367.83 265.03 369.17 264.58 370.5C264.14 363.85 259.72 345.88 267 343.34ZM119.42 384C119.28 384.14 119.14 384.28 119 384.42C119.14 384.28 119.28 384.14 119.42 384ZM30.66 402.5C30.82 402.5 30.98 402.5 31.13 402.5C30.76 402.67 30.38 402.83 30 403C30.22 402.83 30.44 402.67 30.66 402.5ZM230.58 445.58C230.86 445.54 231.14 445.51 231.42 445.47C231.14 445.51 230.86 445.54 230.58 445.58ZM360.28 446.98C357.36 448.2 354.58 475.62 360.75 475.64C362.33 475.65 364.39 474.8 364.89 473.17C364.98 472.86 362.92 447.9 362.72 447.42C362.23 446.23 361.12 446.63 360.28 446.98Z"></path>
<path stroke-linejoin="round" stroke-width="0.25" stroke="#c08d73" fill-rule="evenodd" fill="#c08d73" d="M203.61 205.5C203.76 205.62 203.92 205.74 204.08 205.86C204.06 206.07 204.04 206.29 204.02 206.5C204.01 206.64 204.01 206.78 204 206.92C204.19 206.94 204.38 206.97 204.57 207C204.66 207.33 204.75 207.67 204.85 208C206.75 215.49 214.24 210.47 216.54 214.7C217.81 217.03 214.62 219.73 214.97 222.25C215.25 224.26 217.56 225.03 217.62 227.25C217.76 232.46 214.98 238.98 216.28 243.97C216.92 246.44 219.49 250.13 218.9 252.68C218.5 254.39 209.75 261.36 207.76 261.31C204.59 261.24 191.03 256.19 195.19 268.1C197.48 274.68 202.53 267.81 206.72 268.99C208.69 269.55 210.01 272.42 211.79 273.48C215.22 275.53 219.65 276 223.35 277.89C225.79 279.14 227.63 281.13 230.15 282.16C230.84 282.44 234.5 281.63 233.74 283.6C232.72 286.22 222.59 282.93 220.62 282.73C207.98 281.45 199.43 285.99 188.12 289.83C185.61 290.68 176.31 289.95 177.74 295.25C178.64 298.59 186.61 295.31 188.77 294.87C196.36 293.32 213.13 287.62 220.65 293.13C221.42 293.7 219.97 294.83 219.45 295.17C216.83 296.9 201.31 295.45 201.74 300.08C202.15 304.4 212.13 303.85 215.13 304.26C217.79 304.62 226.4 314.49 226.38 317.82C226.37 320.84 212.12 327.11 209.25 327.96C185.34 335.03 182.4 333.03 161.75 318.9C161.65 329.5 171.26 334.48 175.66 343.08C181.22 353.98 189.95 364.12 197.82 372.95C201.48 377.05 199.67 381.91 201.73 385.53C204.34 390.11 215.55 403.84 219.74 407.5C222.7 410.08 227.55 414.83 231.35 415.83C233.97 416.51 240.05 415.05 241.68 417.05C246.69 423.2 242.04 430.53 237 435.51C236.83 435.67 236.67 435.84 236.5 436C236.35 436.17 236.21 436.33 236.06 436.5C236.06 436.67 236.06 436.83 236.06 437C235.54 437.47 235.02 437.94 234.5 438.42C232.18 436.03 241.54 429.7 234.51 424.25C232.14 422.41 219.77 420.18 216.76 420.03C214.09 419.89 211.85 422.03 208.9 421.24C203.87 419.89 199.6 410.29 194.92 407.86C194.76 407.77 186.35 412.21 183.75 412.09C179.04 411.87 169.65 405.89 165.77 411.02C162.95 414.73 172.49 420.05 170.35 423.75C174.68 423.34 173.2 429.03 174 431C173.65 431 173.31 431 172.96 431C172.81 430.95 172.65 430.9 172.5 430.85C172.17 430.61 171.83 430.37 171.5 430.13C171.54 429.92 171.57 429.72 171.61 429.51C171.41 429.37 171.21 429.23 171.01 429.08C170.84 429.06 170.67 429.04 170.5 429.02C167.85 424.91 165.21 420.8 162.56 416.69C163.08 416.38 163.6 416.06 164.11 415.75C163.9 415.5 163.7 415.25 163.49 415C163.31 414.72 163.13 414.43 162.96 414.15C162.62 413.27 162.29 412.38 161.95 411.5C161.79 411.22 161.62 410.94 161.46 410.65C161.31 410.36 161.15 410.07 161 409.78C158.88 403.18 156.75 396.59 154.63 390C154.45 389.83 154.27 389.67 154.08 389.5C152.99 375.84 160.16 368.24 163.96 356.23C164.87 353.34 166.1 342.74 161 344.49C167.64 330.86 155.56 316.77 150.37 305.66C148.38 301.4 149.91 295.25 146.93 291.55C144.12 288.07 137.11 290.52 134.53 286.23C131.14 280.61 133.58 274.23 132.38 268.34C131.06 261.9 127.57 256.83 126 250.49C130.4 255.45 128.74 250.95 132.67 251.11C135.85 251.24 141.01 258.4 142.09 253.84C142.55 251.95 143.55 249.76 143.48 248C144.74 246 145.99 244 147.25 242C147.08 243 146.92 244 146.75 245C147.22 244.29 147.69 243.58 148.16 242.88C148.25 242.75 148.33 242.63 148.42 242.5C148.59 242.11 148.76 241.73 148.93 241.34C149.1 241.01 149.27 240.67 149.44 240.34C149.61 240.01 149.78 239.67 149.95 239.34C150.11 239 150.28 238.67 150.44 238.34C150.62 238.06 150.8 237.78 150.98 237.5C157.72 223.39 160.82 219.46 176 219.16C177 219.28 178 219.4 179 219.52C189 223.66 186.28 224.75 176.5 227.5C171.64 229.35 169.63 225.13 164.52 226.31C160.75 227.17 158.93 236.25 162.5 236.87C163 237.06 163.5 237.24 164 237.42C171.43 240.36 185.89 241.59 193.48 236.06C195.09 234.88 194.38 232.92 195.52 231.77C196.82 230.43 199.84 231.63 200.65 229.16C201.01 228.07 201.16 219.82 200.98 218.77C199.89 212.29 193.95 210.3 200 204.25C202.18 202.07 202.21 204.04 203.61 205.5ZM197.57 281.25C191.91 280.56 180.51 286.57 179.6 284.66C176.23 277.57 190.92 278.11 192.7 273.95C193.76 271.47 190.56 267.47 190.66 264.77C190.93 257.56 195.95 254.36 193.16 247.15C191.84 243.75 186.03 245.31 183.25 244.95C173.65 243.71 164.45 237.57 156.46 245.72C155.06 247.14 157.22 249.38 156.21 251C155.35 252.38 152.48 250.86 152.11 252.8C151.87 254.08 153.73 254.88 153.79 256.17C153.99 260.64 149.39 261.71 150.7 267.12C151.64 270.96 155.73 272.54 156.25 277.37C157.14 285.68 155.34 293.89 158.7 301.57C158.98 302.2 164.3 306.87 164.77 306.98C166.81 307.46 168.26 303.96 171.24 304.78C178.7 306.84 183.97 311.21 192.69 307.91C193.34 307.67 193.35 297.79 190.75 297.41C183.77 296.39 173.36 310.77 171.75 301.07C171.31 298.45 174.61 288.74 177.01 287.27C179.77 285.59 184.78 287.54 187.99 286.74C190.9 286 189.82 284.78 191.3 283.05C192.3 281.88 195.96 282.2 197.57 281.25ZM255.92 244.56C260.76 246.96 261.2 253.72 266 254.75C262.84 256.4 266.94 257.46 267.5 259.48C261.68 263.23 256.97 294.11 245.37 289.9C242.98 289.03 243.99 285.08 242.61 284.24C240.86 283.18 239.28 284.63 238.21 282.08C236.88 278.91 238.77 275.73 238.23 272.49C237.04 265.38 225.82 253.5 231.77 246.03C234.57 242.51 251.34 244.45 255.92 244.56ZM168.75 424.03C168.67 423.94 168.58 423.84 168.5 423.75C168.58 423.83 168.67 423.92 168.75 424C168.69 423.92 168.64 423.83 168.58 423.75C168.64 423.84 168.69 423.94 168.75 424.03Z"></path>
<path stroke-linejoin="round" stroke-width="0.25" stroke="#8a6a64" fill-rule="evenodd" fill="#8a6a64" d="M223 210.16C223.5 210.33 224 210.5 224.5 210.66C224.61 210.78 224.73 210.89 224.84 211C229.15 221.79 242.87 217.25 251.98 219.26C256.55 220.26 259.6 224.83 264.5 221.39C266.03 224.47 258.08 224.48 256.43 224.58C255.46 224.19 254.48 223.81 253.5 223.42C243.82 218.35 237.04 221.94 226.83 219.39C222.57 218.33 224.79 210.75 218.44 210.75C219.33 211.31 228.82 221.78 228.82 221.81C229.73 225.72 221.68 226.01 224.69 231.08C228.57 237.59 234.52 233.81 239.15 235.15C242.91 236.25 244.23 239.81 249.25 238.91C251.14 238.58 250.32 235.91 251.83 235.61C252.16 235.54 255.69 239.64 263.11 237.42C263.45 236.61 263.79 235.81 264.13 235C264.12 234.69 264.11 234.39 264.1 234.08C271.54 231.33 275.91 237.49 267.83 240.97C261.15 243.85 254.08 239.13 247.85 242.75C250.54 243.35 253.23 243.96 255.92 244.56C251.34 244.45 234.57 242.51 231.77 246.03C225.82 253.5 237.04 265.38 238.23 272.49C238.77 275.73 236.88 278.91 238.21 282.08C239.28 284.63 240.86 283.18 242.61 284.24C243.99 285.08 242.98 289.03 245.37 289.9C256.97 294.11 261.68 263.23 267.5 259.48C271 262.04 263.86 267.33 263.09 269.34C260.6 275.9 259.48 284.7 256.73 290.48C255.2 293.71 251.23 296.2 251.11 300.33C251.06 301.82 253.25 302.49 253.73 303.9C254.32 305.65 251.71 306.96 252.88 308.4C254.15 309.97 255.61 307 256.74 307.12C260.46 307.49 259.94 315.65 260.07 318C260.35 322.82 254.91 322.95 255.11 327.25C255.27 330.77 259.8 329.01 259.93 332.75C260.38 345.52 257.82 351.86 262.89 363.86C264.1 366.72 261.68 371.34 263.75 373.5C264.03 372.5 264.31 371.5 264.58 370.5C265.03 369.17 265.47 367.83 265.92 366.5C266.38 373.43 264.61 385.65 260.92 391.67C259.06 394.71 255.82 398.22 255.09 401.84C254.29 405.86 254.72 410.98 254.54 415.01C254.36 415.36 254.18 415.7 254 416.04C253.85 416.53 253.71 417.01 253.56 417.5C253.42 418 253.29 418.5 253.15 419C253.06 419.17 252.97 419.33 252.88 419.5C251.79 420.67 250.69 421.83 249.6 423C249.43 423.2 249.26 423.41 249.1 423.61C249.04 423.74 248.99 423.87 248.93 424C244.46 429.25 239.98 434.5 235.5 439.75C235.69 438.83 235.87 437.92 236.06 437C236.06 436.83 236.06 436.67 236.06 436.5C236.21 436.33 236.35 436.17 236.5 436C236.67 435.84 236.83 435.67 237 435.51C242.04 430.53 246.69 423.2 241.68 417.05C240.05 415.05 233.97 416.51 231.35 415.83C227.55 414.83 222.7 410.08 219.74 407.5C215.55 403.84 204.34 390.11 201.73 385.53C199.67 381.91 201.48 377.05 197.82 372.95C189.95 364.12 181.22 353.98 175.66 343.08C171.26 334.48 161.65 329.5 161.75 318.9C182.4 333.03 185.34 335.03 209.25 327.96C212.12 327.11 226.37 320.84 226.38 317.82C226.4 314.49 217.79 304.62 215.13 304.26C212.13 303.85 202.15 304.4 201.74 300.08C201.31 295.45 216.83 296.9 219.45 295.17C219.97 294.83 221.42 293.7 220.65 293.13C213.13 287.62 196.36 293.32 188.77 294.87C186.61 295.31 178.64 298.59 177.74 295.25C176.31 289.95 185.61 290.68 188.12 289.83C199.43 285.99 207.98 281.45 220.62 282.73C222.59 282.93 232.72 286.22 233.74 283.6C234.5 281.63 230.84 282.44 230.15 282.16C227.63 281.13 225.79 279.14 223.35 277.89C219.65 276 215.22 275.53 211.79 273.48C210.01 272.42 208.69 269.55 206.72 268.99C202.53 267.81 197.48 274.68 195.19 268.1C191.03 256.19 204.59 261.24 207.76 261.31C209.75 261.36 218.5 254.39 218.9 252.68C219.49 250.13 216.92 246.44 216.28 243.97C214.98 238.98 217.76 232.46 217.62 227.25C217.56 225.03 215.25 224.26 214.97 222.25C214.62 219.73 217.81 217.03 216.54 214.7C214.24 210.47 206.75 215.49 204.85 208C204.75 207.67 204.66 207.33 204.57 207C204.4 206.62 204.24 206.24 204.08 205.86C203.92 205.74 203.76 205.62 203.61 205.5C202.21 204.04 202.18 202.07 200 204.25C193.95 210.3 199.89 212.29 200.98 218.77C201.16 219.82 201.01 228.07 200.65 229.16C199.84 231.63 196.82 230.43 195.52 231.77C194.38 232.92 195.09 234.88 193.48 236.06C185.89 241.59 171.43 240.36 164 237.42C163.5 237.24 163 237.06 162.5 236.87C154.67 227.1 175.54 225.94 173.95 229.57C172.08 229.53 158.66 231.98 163.61 235.6C168.13 238.9 171.17 234.22 173.62 234.73C175.04 235.02 174.96 237.16 176.43 237.78C179.89 239.22 190.57 237.73 193.1 234.84C194.09 233.71 193.38 232.2 194.31 231.05C195.36 229.75 198.26 229.77 198.33 227.72C198.53 221.6 177.94 228.93 176.5 227.5C186.28 224.75 189 223.66 179 219.52C178 219.4 177 219.28 176 219.16C160.82 219.46 157.72 223.39 150.98 237.5C150.8 237.78 150.62 238.06 150.44 238.34C150.28 238.67 150.11 239 149.95 239.34C149.78 239.67 149.61 240.01 149.44 240.34C149.27 240.67 149.1 241.01 148.93 241.34C148.76 241.73 148.59 242.11 148.42 242.5C148.33 242.63 148.25 242.75 148.16 242.88C147.69 243.58 147.22 244.29 146.75 245C146.92 244 147.08 243 147.25 242C145.99 244 144.74 246 143.48 248C142.5 245.62 147.45 239.68 148.66 237.38C154.67 225.9 158.19 214 173 215.65C175.2 216.61 189.72 217.71 190.91 214.16C192.94 208.06 180.38 207.94 177.5 209.87C177.33 209.93 177.17 209.98 177 210.04C176.83 210.19 176.67 210.35 176.5 210.5C176.33 210.67 176.17 210.83 176 211C175.83 211.13 175.67 211.26 175.5 211.4C173.26 211.81 167.63 213.68 165.43 212.78C161.54 211.2 165.04 203.64 167.94 202.73C171.07 201.74 172.98 205.56 176.61 204.77C178.86 204.28 177.77 200.34 179.65 200.64C183.21 201.2 185.48 206.13 189.61 205.77C194.47 205.35 198.26 198.1 201.24 198.2C205.64 198.34 204.67 207.44 207.89 208.82C210.99 210.15 210.97 204.57 214.75 204.87C217.98 205.12 218.55 209.85 223 210.16ZM204.02 206.5C204.01 206.64 204.01 206.78 204 206.92C204.01 206.78 204.01 206.64 204.02 206.5ZM175.75 228C175.83 228.08 175.92 228.17 176 228.25C175.92 228.42 175.83 228.6 175.75 228.77C175.67 228.6 175.58 228.42 175.5 228.25C175.58 228.17 175.67 228.08 175.75 228ZM218.84 260.33C207.45 261.98 220.35 274.69 224.96 272.2C226.07 271.6 226.24 259.26 218.84 260.33ZM178.75 331C176.57 330.15 165.43 322.39 164.27 325.02C163.19 327.45 172.69 337.47 174.75 338.5C174.53 333.28 173.72 332.1 178.75 331ZM179.71 336.61C176.43 337.56 186.25 347.03 188.5 347.78C191.44 348.77 215.15 358.12 215.23 358.4C217.62 366.4 202.25 356.66 203.26 361.1C204.78 367.73 214.66 362.69 217.22 362.46C220.07 362.21 223.58 367.28 226.67 363.48C231.29 357.77 219.92 357.46 221.28 355.44C221.97 354.42 226.44 354.53 227.57 353.74C228.29 353.24 228.83 350.9 229.76 350.04C232.13 347.82 242.18 344.11 242.42 340.75C242.89 334.35 218.24 335.96 215.02 342.22C214.62 342.99 213.08 343 212.25 343.06C209.16 343.28 203.02 345.81 200.37 345.23C198.93 344.92 192.2 332.99 179.71 336.61ZM154.08 389.5C154.27 389.67 154.45 389.83 154.63 390C156.75 396.59 158.88 403.18 161 409.78C161.15 410.07 161.31 410.36 161.46 410.65C161.62 410.94 161.79 411.22 161.95 411.5C161.88 411.99 161.82 412.48 161.75 412.97C160.85 411.64 159.95 410.3 159.05 408.96C158.71 408.47 158.38 407.97 158.04 407.47C156.09 399.09 151.28 390.62 151.86 381.75C152.07 378.56 157.3 371.47 155.9 369.38C157 367.09 158.1 364.79 159.2 362.5C164.51 364.56 162.6 343.5 161.54 346.48C160.67 346.32 159.79 346.16 158.92 346C159.28 345.64 159.64 345.28 160 344.92C160.33 344.77 160.67 344.63 161 344.49C166.1 342.74 164.87 353.34 163.96 356.23C160.16 368.24 152.99 375.84 154.08 389.5ZM161.54 346.48C161.76 348.32 161.98 350.16 162.2 352C161.98 350.16 161.76 348.32 161.54 346.48ZM161.42 358C161.24 358.28 161.06 358.56 160.88 358.84C161.06 358.56 161.24 358.28 161.42 358ZM160.88 358.84C160.76 359.06 160.63 359.28 160.5 359.5C160.63 359.28 160.76 359.06 160.88 358.84ZM160.42 360C160.21 360.17 160 360.33 159.79 360.5C160 360.33 160.21 360.17 160.42 360ZM159.46 360.84C159.54 360.82 159.62 360.8 159.7 360.78C159.55 361.19 159.41 361.59 159.26 362C159.33 361.61 159.4 361.23 159.46 360.84ZM155.9 369.38C155.7 369.59 155.5 369.79 155.3 370C155.5 369.79 155.7 369.59 155.9 369.38ZM155.2 370.28C155.07 370.52 154.93 370.76 154.8 371C154.93 370.76 155.07 370.52 155.2 370.28ZM154.7 371.28C154.63 371.52 154.57 371.76 154.5 372C154.57 371.76 154.63 371.52 154.7 371.28ZM154.42 372.28C154.25 372.49 154.07 372.69 153.9 372.89C154.07 372.69 154.25 372.49 154.42 372.28ZM153.9 372.89C153.77 373.09 153.63 373.3 153.5 373.5C153.63 373.3 153.77 373.09 153.9 372.89ZM153.42 374C153.23 374.11 153.04 374.23 152.85 374.34C153.04 374.23 153.23 374.11 153.42 374ZM152.85 374.34C152.7 374.51 152.54 374.69 152.38 374.87C152.54 374.69 152.7 374.51 152.85 374.34ZM152.38 374.87C152.23 375.24 152.08 375.62 151.93 376C152.08 375.62 152.23 375.24 152.38 374.87ZM151.92 376.5C151.77 376.67 151.62 376.83 151.48 377C151.62 376.83 151.77 376.67 151.92 376.5ZM151.42 377.5C151.26 378 151.11 378.5 150.95 379C151.11 378.5 151.26 378 151.42 377.5ZM150.92 379.5C150.69 381.17 150.46 382.83 150.24 384.5C150.46 382.83 150.69 381.17 150.92 379.5ZM150.24 386C150.46 386.5 150.69 387 150.92 387.5C150.69 387 150.46 386.5 150.24 386ZM150.94 388.5C151.1 389 151.26 389.5 151.42 390C151.26 389.5 151.1 389 150.94 388.5ZM151.37 390.5C151.52 391.17 151.68 391.83 151.84 392.5C151.68 391.83 151.52 391.17 151.37 390.5ZM151.84 392.5C152.03 393 152.22 393.5 152.42 394C152.22 393.5 152.03 393 151.84 392.5ZM152.4 394.5C152.57 394.83 152.74 395.17 152.92 395.5C152.74 395.17 152.57 394.83 152.4 394.5ZM152.89 396C153.07 396.33 153.24 396.67 153.42 397C153.24 396.67 153.07 396.33 152.89 396ZM153.4 397.5C153.57 397.83 153.74 398.17 153.92 398.5C153.74 398.17 153.57 397.83 153.4 397.5ZM153.91 399C154.06 399.33 154.21 399.67 154.36 400C154.21 399.67 154.06 399.33 153.91 399ZM154.36 400C154.54 400.33 154.73 400.67 154.92 401C154.73 400.67 154.54 400.33 154.36 400ZM154.95 401.5C155.1 401.67 155.26 401.83 155.42 402C155.26 401.83 155.1 401.67 154.95 401.5ZM155.43 402.5C155.59 402.83 155.75 403.17 155.92 403.5C155.75 403.17 155.59 402.83 155.43 402.5ZM155.93 404C156.08 404.5 156.23 405 156.38 405.5C156.23 405 156.08 404.5 155.93 404ZM156.38 405.5C156.56 405.83 156.74 406.17 156.92 406.5C156.74 406.17 156.56 405.83 156.38 405.5ZM156.96 407C157.09 407.17 157.22 407.33 157.35 407.5C157.22 407.33 157.09 407.17 156.96 407ZM157.35 407.5C157.58 407.49 157.81 407.48 158.04 407.47C157.98 407.87 157.92 408.26 157.86 408.66C157.69 408.27 157.52 407.89 157.35 407.5ZM157.86 408.66C158.02 408.77 158.18 408.89 158.34 409C158.18 408.89 158.02 408.77 157.86 408.66ZM158.34 409C158.57 408.99 158.81 408.97 159.05 408.96C159 409.34 158.95 409.73 158.9 410.11C158.71 409.74 158.53 409.37 158.34 409ZM158.9 410.11C159.07 410.24 159.24 410.37 159.42 410.5C159.24 410.37 159.07 410.24 158.9 410.11ZM159.5 411C159.63 411.21 159.76 411.42 159.89 411.63C159.76 411.42 159.63 411.21 159.5 411ZM159.89 411.63C160.07 411.75 160.24 411.88 160.42 412C160.24 411.88 160.07 411.75 159.89 411.63ZM160.48 412.5C160.63 412.67 160.77 412.83 160.92 413C160.77 412.83 160.63 412.67 160.48 412.5ZM160.98 413.5C161.11 413.67 161.23 413.83 161.35 414C161.23 413.83 161.11 413.67 160.98 413.5ZM162.96 414.15C163.13 414.43 163.31 414.72 163.49 415C163.7 415.25 163.9 415.5 164.11 415.75C163.6 416.06 163.08 416.38 162.56 416.69C162.16 415.79 161.76 414.9 161.35 414C161.89 414.05 162.42 414.1 162.96 414.15ZM171.01 429.08C171.21 429.23 171.41 429.37 171.61 429.51C171.41 429.51 171.21 429.51 171.01 429.51C171.01 429.37 171.01 429.23 171.01 429.08ZM180 438C180.17 438 180.33 438 180.5 438C180.5 438.17 180.5 438.33 180.5 438.5C180.33 438.33 180.17 438.17 180 438Z"></path>
<path stroke-linejoin="round" stroke-width="0.25" stroke="#141620" fill-rule="evenodd" fill="#141620" d="M217.38 126.73C218.26 126.67 231.28 136.59 226.11 139.87C222.97 141.85 214.83 127.96 210.43 134.2C209.5 135.52 210.41 137.24 209.81 138.67C209.03 140.54 206.01 140.1 205.17 141.37C203.96 143.22 196.38 159.56 190.89 153.88C185.66 148.49 199.28 146.8 197.02 141.76C196.02 139.54 193.75 143.38 192.73 143.53C191.77 143.67 184.7 140.49 184.6 140.14C182.97 134.35 211.68 127.16 217.38 126.73ZM139.37 181.06C141.91 180.17 151.65 196.97 146.57 199.79C134.38 206.55 137.84 181.59 139.37 181.06ZM190.36 183.25C195.46 182.31 197.04 199.03 193.18 199.86C191.77 200.17 192.15 198.54 191.99 197.75C191.36 194.69 189.71 198.27 188.34 197.93C185.63 197.24 185.94 193 184.12 192.05C182.71 191.33 176.62 192.36 178.48 186.73C178.89 185.47 183.91 186.89 185.15 186.82C188.18 186.65 188.19 183.65 190.36 183.25ZM173 215.65C176.48 215.23 180.37 216.69 183.66 215.91C186.29 215.28 184.12 212.46 185.83 212.11C186.92 211.88 188.96 215.75 189.91 213.16C191.17 209.67 179.51 209.93 177.5 209.87C180.38 207.94 192.94 208.06 190.91 214.16C189.72 217.71 175.2 216.61 173 215.65ZM177 210.04C176.83 210.19 176.67 210.35 176.5 210.5C176.67 210.35 176.83 210.19 177 210.04ZM176.5 210.5C176.33 210.67 176.17 210.83 176 211C176.17 210.83 176.33 210.67 176.5 210.5ZM176 211C175.83 211.13 175.67 211.26 175.5 211.4C175.67 211.26 175.83 211.13 176 211ZM159.46 360.84C157.79 363.29 148.63 378.53 145.13 376.12C138.1 371.3 152.95 349.17 159.36 348.25C161.31 347.98 159.49 359.53 159.46 360.84ZM108.31 392.54C111.85 391 112.14 397.15 111.45 399.18C109.02 406.33 97.93 435.88 104.02 441.73C106.02 443.65 109.38 444.07 111.73 445.52C122.38 452.07 128.44 457.66 141.8 453.6C145.27 452.54 160.14 448.96 161.97 452.28C162.66 453.53 163.12 455.02 161.79 456.05C159.09 458.13 154.08 454.67 150.94 455.73C147.55 456.87 152.24 462.11 149.09 463.28C144.9 464.82 137.64 460.35 133.76 458.96C128.66 457.15 122.21 460.07 117.36 457.83C112.63 455.65 109.06 449.48 104.13 448.18C100.61 447.26 95.35 450.82 91.89 449.77C90.02 449.2 88.68 447.34 86.41 448.16C84.25 448.94 84.71 456.77 82.9 455.9C80.72 454.84 78.89 446.65 78.29 444.43C76.59 438.1 69.78 407.06 71.63 402.89C73.12 399.52 86.04 402.53 87.81 402.81C88.65 402.94 94.59 397.45 96.02 400.81C97.01 403.13 85.16 419.69 90.75 419.16C95.66 418.69 102.73 394.98 108.31 392.54ZM43.88 395.16C52.09 392.25 50.91 415.3 53.32 416.87C54.4 417.58 54.9 416.57 55.01 415.77C55.55 411.62 59.34 398.21 61.11 398.69C65.84 399.97 65.25 432.43 65.68 438.23C66.38 447.62 69.91 457.19 72.56 466.2C73.15 468.21 76.94 473.62 74.48 475.37C69.9 478.64 67.72 468.05 66.72 465.61C63.24 457.09 58.3 444.35 57.18 435.65C56.84 433.03 57.79 425.4 54.64 424.16C50 422.32 51.2 433.3 51.49 435.25C53.05 445.54 58.39 455.4 56.18 465.84C55.47 469.16 54.98 476.45 50.27 475.55C46.55 474.84 49.95 460.88 49.44 457.76C46.99 442.8 45.17 426.49 41.96 411.76C41.11 407.82 38.48 397.07 43.88 395.16ZM280 475.8C276.68 475.87 268.47 478.01 268.64 473.5C269.5 471.77 273.09 457.57 273.28 455.11C273.41 453.31 271.22 451.42 272.41 449.67C275.43 445.24 309.58 439.46 314.85 435.58C318.72 432.74 319.85 411.57 323.58 413.26C330.16 416.24 328.45 436.66 324.89 441.65C321.25 446.74 319.46 452.61 312.65 453.81C308.52 454.54 304.48 451.08 300.54 453.78C295.56 457.19 289.03 463.2 285.06 467.34C281.91 470.61 285.09 473.53 280 475.8ZM29.25 460.98C25.44 453.73 28.02 443.21 27.09 435.25C26.71 431.99 20.13 422.73 25.31 422.17C39.34 420.63 33.73 454.44 29.25 460.98ZM203.88 462.69C212.7 461.63 195.53 471.2 194.75 471.54C192.16 472.68 189.41 471.87 186.78 472.57C180.33 474.27 168.83 481.27 166.72 469.1C166.5 467.81 166.02 464.57 167.42 463.71C170.47 461.86 197.72 463.43 203.88 462.69ZM261.72 470.5C261.64 472.53 261.57 474.56 261.5 476.58C244.53 476.56 227.56 476.53 210.58 476.5C209.1 472.16 218.16 469.91 221.11 468.83C228.85 465.97 253.76 461.33 260.7 465.08C262.22 465.9 261.77 469.17 261.72 470.5Z"></path>
<path stroke-linejoin="round" stroke-width="0.25" stroke="#d8a082" fill-rule="evenodd" fill="#d8a082" d="M197.57 281.25C195.96 282.2 192.3 281.88 191.3 283.05C189.82 284.78 190.9 286 187.99 286.74C184.78 287.54 179.77 285.59 177.01 287.27C174.61 288.74 171.31 298.45 171.75 301.07C173.36 310.77 183.77 296.39 190.75 297.41C193.35 297.79 193.34 307.67 192.69 307.91C183.97 311.21 178.7 306.84 171.24 304.78C168.26 303.96 166.81 307.46 164.77 306.98C164.3 306.87 158.98 302.2 158.7 301.57C155.34 293.89 157.14 285.68 156.25 277.37C155.73 272.54 151.64 270.96 150.7 267.12C149.39 261.71 153.99 260.64 153.79 256.17C153.73 254.88 151.87 254.08 152.11 252.8C152.48 250.86 155.35 252.38 156.21 251C157.22 249.38 155.06 247.14 156.46 245.72C164.45 237.57 173.65 243.71 183.25 244.95C186.03 245.31 191.84 243.75 193.16 247.15C195.95 254.36 190.93 257.56 190.66 264.77C190.56 267.47 193.76 271.47 192.7 273.95C190.92 278.11 176.23 277.57 179.6 284.66C180.51 286.57 191.91 280.56 197.57 281.25ZM234.5 438.42C231.65 437.98 231.96 442.87 229.23 443.8C216.05 448.28 223.15 461.54 208 453.88C207.47 453.25 206.94 452.63 206.42 452C206.44 451.86 206.47 451.72 206.5 451.58C209.26 449.34 193.55 442.14 189.25 443C184.83 439.33 180.42 435.67 176 432C175.67 431.69 175.33 431.39 175 431.08C174.67 431.06 174.33 431.03 174 431C173.2 429.03 174.68 423.34 170.35 423.75C172.49 420.05 162.95 414.73 165.77 411.02C169.65 405.89 179.04 411.87 183.75 412.09C186.35 412.21 194.76 407.77 194.92 407.86C199.6 410.29 203.87 419.89 208.9 421.24C211.85 422.03 214.09 419.89 216.76 420.03C219.77 420.18 232.14 422.41 234.51 424.25C241.54 429.7 232.18 436.03 234.5 438.42Z"></path>
<path stroke-linejoin="round" stroke-width="0.25" stroke="#353d57" fill-rule="evenodd" fill="#353d57" d="M274.08 143C282.95 149.65 286.91 158.91 290.48 168.97C297.93 189.94 314.36 204.47 310.73 229.01C309.05 240.4 294.37 250.9 295.24 261C292.37 262.23 290.6 260.43 291.25 257C293.49 257.7 296.23 260.36 295.75 254.86C294.11 259.01 289.05 253.62 288.56 259.25C288.4 261.15 293.31 274.19 288.5 273.87C284.68 273.63 282.65 246.53 281.27 241.46C280.06 237.05 272 225.05 267.22 224.06C263.81 223.36 260.1 226.04 256.43 224.58C258.08 224.48 266.03 224.47 264.5 221.39C263.46 220.09 262.42 218.8 261.38 217.5C262.38 215.45 258.52 204.98 262.31 204.61C266.65 204.19 267.38 220.55 272.36 216.61C273.28 215.88 275.44 216.26 275.84 215.13C275.95 214.84 273.25 204.77 273.05 202.24C272.9 200.41 276.52 193.94 275.63 192.75C273.2 189.53 264.94 187.79 263.11 182.73C259.79 173.57 264.65 173.27 264.84 168.74C264.94 166.42 260.33 164.17 262.05 161.33C262.48 160.61 263.54 161.43 264.02 161.72C267.05 163.59 265.27 166.08 267.11 168.11C270.81 172.2 268.77 183.36 272.23 186.52C272.49 186.77 272.82 186.93 273.2 186.86C278.28 185.96 272.74 176.42 273.46 174.33C274.38 171.67 278.13 176.41 280.11 174.77C280.83 174.18 280.89 170.88 281.37 169.84C282.4 167.64 284.56 168.36 285.56 166.75C286.88 164.62 281.93 155.1 280.26 153.5C278.89 151.92 277.52 150.33 276.15 148.75C276.94 148.75 277.72 148.75 278.5 148.75C277.14 147.33 275.78 145.92 274.42 144.5C274.31 144.33 274.19 144.17 274.08 144C274.08 143.67 274.08 143.33 274.08 143ZM285.16 361.84C285.28 361.99 285.39 362.13 285.5 362.28C285.39 362.13 285.28 361.99 285.16 361.84Z"></path>
<path stroke-linejoin="round" stroke-width="0.25" stroke="#8d7b82" fill-rule="evenodd" fill="#8d7b82" d="M253.5 223.42C254.48 223.81 255.46 224.19 256.43 224.58C260.1 226.04 263.81 223.36 267.22 224.06C272 225.05 280.06 237.05 281.27 241.46C282.65 246.53 284.68 273.63 288.5 273.87C293.31 274.19 288.4 261.15 288.56 259.25C289.05 253.62 294.11 259.01 295.75 254.86C296.23 260.36 293.49 257.7 291.25 257C290.6 260.43 292.37 262.23 295.24 261C296.9 263.26 293.43 284.25 290.86 287.49C286.49 292.99 282.67 293.25 277.56 297.61C269.32 304.64 259.15 334.03 267 343.34C259.72 345.88 264.14 363.85 264.58 370.5C264.31 371.5 264.03 372.5 263.75 373.5C261.68 371.34 264.1 366.72 262.89 363.86C257.82 351.86 260.38 345.52 259.93 332.75C259.8 329.01 255.27 330.77 255.11 327.25C254.91 322.95 260.35 322.82 260.07 318C259.94 315.65 260.46 307.49 256.74 307.12C255.61 307 254.15 309.97 252.88 308.4C251.71 306.96 254.32 305.65 253.73 303.9C253.25 302.49 251.06 301.82 251.11 300.33C251.23 296.2 255.2 293.71 256.73 290.48C259.48 284.7 260.6 275.9 263.09 269.34C263.86 267.33 271 262.04 267.5 259.48C266.94 257.46 262.84 256.4 266 254.75C261.2 253.72 260.76 246.96 255.92 244.56C253.23 243.96 250.54 243.35 247.85 242.75C254.08 239.13 261.15 243.85 267.83 240.97C275.91 237.49 271.54 231.33 264.1 234.08C262.64 233.29 258.91 229.67 258.17 229.61C255.91 229.41 254.4 231.2 251.83 229.92C249.75 228.89 252.62 227.19 250.16 226.59C248.64 226.23 240.78 228.2 241.19 224.25C241.56 220.67 251.52 223.55 253.5 223.42Z"></path>
<path stroke-linejoin="round" stroke-width="0.25" stroke="#7d5e57" fill-rule="evenodd" fill="#7d5e57" d="M203.61 205.5C203.76 205.62 203.92 205.74 204.08 205.86C203.92 205.74 203.76 205.62 203.61 205.5ZM204.08 205.86C204.24 206.24 204.4 206.62 204.57 207C204.38 206.97 204.19 206.94 204 206.92C204.01 206.78 204.01 206.64 204.02 206.5C204.04 206.29 204.06 206.07 204.08 205.86ZM204.57 207C204.66 207.33 204.75 207.67 204.85 208C204.75 207.67 204.66 207.33 204.57 207ZM176 219.16C177 219.28 178 219.4 179 219.52C178 219.4 177 219.28 176 219.16ZM173.95 229.57C172.04 231.81 165.22 230.88 164.59 233.84C163.82 237.49 173.08 233.1 174.29 233.57C176.29 234.36 175.43 235.58 176.52 236.71C179.96 240.3 184.36 235.18 186.84 234.35C188.32 233.86 191.06 235.87 191.91 233.66C196.37 221.95 178.39 229.68 173.95 229.57C175.54 225.94 154.67 227.1 162.5 236.87C158.93 236.25 160.75 227.17 164.52 226.31C169.63 225.13 171.64 229.35 176.5 227.5C177.94 228.93 198.53 221.6 198.33 227.72C198.26 229.77 195.36 229.75 194.31 231.05C193.38 232.2 194.09 233.71 193.1 234.84C190.57 237.73 179.89 239.22 176.43 237.78C174.96 237.16 175.04 235.02 173.62 234.73C171.17 234.22 168.13 238.9 163.61 235.6C158.66 231.98 172.08 229.53 173.95 229.57ZM175.75 228C175.67 228.08 175.58 228.17 175.5 228.25C175.58 228.42 175.67 228.6 175.75 228.77C175.83 228.6 175.92 228.42 176 228.25C175.92 228.17 175.83 228.08 175.75 228ZM264.13 235C263.79 235.81 263.45 236.61 263.11 237.42C263.45 236.61 263.79 235.81 264.13 235ZM162.5 236.87C163 237.06 163.5 237.24 164 237.42C163.5 237.24 163 237.06 162.5 236.87ZM150.98 237.5C150.8 237.78 150.62 238.06 150.44 238.34C150.62 238.06 150.8 237.78 150.98 237.5ZM150.44 238.34C150.28 238.67 150.11 239 149.95 239.34C150.11 239 150.28 238.67 150.44 238.34ZM149.95 239.34C149.78 239.67 149.61 240.01 149.44 240.34C149.61 240.01 149.78 239.67 149.95 239.34ZM149.44 240.34C149.27 240.67 149.1 241.01 148.93 241.34C149.1 241.01 149.27 240.67 149.44 240.34ZM148.93 241.34C148.76 241.73 148.59 242.11 148.42 242.5C148.59 242.11 148.76 241.73 148.93 241.34ZM148.42 242.5C148.33 242.63 148.25 242.75 148.16 242.88C148.25 242.75 148.33 242.63 148.42 242.5ZM218.84 261.59C221.1 261.07 224.8 263.68 221.98 265.73C218.85 268.02 214.76 262.55 218.84 261.59ZM219.34 262.59C217.89 263.11 219.02 265.05 220.17 264.89C222.06 264.62 221.43 261.84 219.34 262.59ZM179.71 336.61C192.2 332.99 198.93 344.92 200.37 345.23C203.02 345.81 209.16 343.28 212.25 343.06C213.08 343 214.62 342.99 215.02 342.22C218.24 335.96 242.89 334.35 242.42 340.75C242.18 344.11 232.13 347.82 229.76 350.04C228.83 350.9 228.29 353.24 227.57 353.74C226.44 354.53 221.97 354.42 221.28 355.44C219.92 357.46 231.29 357.77 226.67 363.48C223.58 367.28 220.07 362.21 217.22 362.46C214.66 362.69 204.78 367.73 203.26 361.1C202.25 356.66 217.62 366.4 215.23 358.4C215.15 358.12 191.44 348.77 188.5 347.78C186.25 347.03 176.43 337.56 179.71 336.61ZM161 344.49C160.67 344.63 160.33 344.77 160 344.92C160.33 344.77 160.67 344.63 161 344.49ZM159.2 362.5C159.22 362.33 159.24 362.17 159.26 362C159.41 361.59 159.55 361.19 159.7 360.78C159.73 360.69 159.76 360.59 159.79 360.5C160 360.33 160.21 360.17 160.42 360C160.44 359.83 160.47 359.67 160.5 359.5C160.63 359.28 160.76 359.06 160.88 358.84C161.06 358.56 161.24 358.28 161.42 358C161.68 356 161.94 354 162.2 352C161.98 350.16 161.76 348.32 161.54 346.48C162.6 343.5 164.51 364.56 159.2 362.5ZM256 412.55C255.88 412.87 255.76 413.18 255.65 413.5C255.59 413.65 255.54 413.8 255.49 413.95C255.32 414.31 255.14 414.66 254.97 415.01C254.83 415.01 254.68 415.01 254.54 415.01C254.72 410.98 254.29 405.86 255.09 401.84C255.82 398.22 259.06 394.71 260.92 391.67C264.61 385.65 266.38 373.43 265.92 366.5C266.03 365.5 266.14 364.5 266.25 363.5C269.89 373.32 261.58 403.78 256 412.55ZM155.9 369.38C157.3 371.47 152.07 378.56 151.86 381.75C151.28 390.62 156.09 399.09 158.04 407.47C157.81 407.48 157.58 407.49 157.35 407.5C157.22 407.33 157.09 407.17 156.96 407C156.95 406.83 156.93 406.67 156.92 406.5C156.74 406.17 156.56 405.83 156.38 405.5C156.23 405 156.08 404.5 155.93 404C155.92 403.83 155.92 403.67 155.92 403.5C155.75 403.17 155.59 402.83 155.43 402.5C155.42 402.33 155.42 402.17 155.42 402C155.26 401.83 155.1 401.67 154.95 401.5C154.94 401.33 154.93 401.17 154.92 401C154.73 400.67 154.54 400.33 154.36 400C154.21 399.67 154.06 399.33 153.91 399C153.91 398.83 153.91 398.67 153.92 398.5C153.74 398.17 153.57 397.83 153.4 397.5C153.4 397.33 153.41 397.17 153.42 397C153.24 396.67 153.07 396.33 152.89 396C152.9 395.83 152.91 395.67 152.92 395.5C152.74 395.17 152.57 394.83 152.4 394.5C152.4 394.33 152.41 394.17 152.42 394C152.22 393.5 152.03 393 151.84 392.5C151.68 391.83 151.52 391.17 151.37 390.5C151.38 390.33 151.4 390.17 151.42 390C151.26 389.5 151.1 389 150.94 388.5C150.93 388.17 150.92 387.83 150.92 387.5C150.69 387 150.46 386.5 150.24 386C150.24 385.5 150.24 385 150.24 384.5C150.46 382.83 150.69 381.17 150.92 379.5C150.93 379.33 150.94 379.17 150.95 379C151.11 378.5 151.26 378 151.42 377.5C151.44 377.33 151.46 377.17 151.48 377C151.62 376.83 151.77 376.67 151.92 376.5C151.92 376.33 151.92 376.17 151.93 376C152.08 375.62 152.23 375.24 152.38 374.87C152.54 374.69 152.7 374.51 152.85 374.34C153.04 374.23 153.23 374.11 153.42 374C153.44 373.83 153.47 373.67 153.5 373.5C153.63 373.3 153.77 373.09 153.9 372.89C154.07 372.69 154.25 372.49 154.42 372.28C154.45 372.19 154.47 372.09 154.5 372C154.57 371.76 154.63 371.52 154.7 371.28C154.73 371.19 154.76 371.09 154.8 371C154.93 370.76 155.07 370.52 155.2 370.28C155.23 370.19 155.27 370.09 155.3 370C155.5 369.79 155.7 369.59 155.9 369.38ZM154.08 389.5C154.27 389.67 154.45 389.83 154.63 390C154.45 389.83 154.27 389.67 154.08 389.5ZM158.04 407.47C158.38 407.97 158.71 408.47 159.05 408.96C158.81 408.97 158.57 408.99 158.34 409C158.18 408.89 158.02 408.77 157.86 408.66C157.92 408.26 157.98 407.87 158.04 407.47ZM159.05 408.96C159.95 410.3 160.85 411.64 161.75 412.97C161.82 412.48 161.88 411.99 161.95 411.5C162.29 412.38 162.62 413.27 162.96 414.15C162.42 414.1 161.89 414.05 161.35 414C161.23 413.83 161.11 413.67 160.98 413.5C160.96 413.33 160.94 413.17 160.92 413C160.77 412.83 160.63 412.67 160.48 412.5C160.46 412.33 160.44 412.17 160.42 412C160.24 411.88 160.07 411.75 159.89 411.63C159.76 411.42 159.63 411.21 159.5 411C159.47 410.83 159.44 410.67 159.42 410.5C159.24 410.37 159.07 410.24 158.9 410.11C158.95 409.73 159 409.34 159.05 408.96ZM161 409.78C161.15 410.07 161.31 410.36 161.46 410.65C161.31 410.36 161.15 410.07 161 409.78ZM161.46 410.65C161.62 410.94 161.79 411.22 161.95 411.5C161.79 411.22 161.62 410.94 161.46 410.65ZM162.96 414.15C163.13 414.43 163.31 414.72 163.49 415C163.31 414.72 163.13 414.43 162.96 414.15ZM254.54 415.01C254.52 415.36 254.51 415.7 254.49 416.04C254.33 416.04 254.16 416.04 254 416.04C254.18 415.7 254.36 415.36 254.54 415.01ZM249.6 423C249.56 423.19 249.52 423.37 249.48 423.56C249.35 423.58 249.22 423.59 249.1 423.61C249.26 423.41 249.43 423.2 249.6 423ZM168.75 424.03C168.69 423.94 168.64 423.84 168.58 423.75C168.64 423.83 168.69 423.92 168.75 424C168.67 423.92 168.58 423.83 168.5 423.75C168.58 423.84 168.67 423.94 168.75 424.03ZM249.1 423.61C249.04 423.74 248.99 423.87 248.93 424C248.99 423.87 249.04 423.74 249.1 423.61ZM170.5 429.02C170.67 429.04 170.84 429.06 171.01 429.08C171.01 429.23 171.01 429.37 171.01 429.51C170.84 429.35 170.67 429.19 170.5 429.02ZM171.01 429.51C171.21 429.51 171.41 429.51 171.61 429.51C171.57 429.72 171.54 429.92 171.5 430.13C171.34 429.92 171.17 429.72 171.01 429.51ZM176 432C175.67 431.69 175.33 431.39 175 431.08C175.33 431.39 175.67 431.69 176 432ZM180.5 438C180.33 438 180.17 438 180 438C180.17 438 180.33 438 180.5 438ZM180.5 438C180.67 438.17 180.83 438.33 181 438.5C180.83 438.5 180.67 438.5 180.5 438.5C180.5 438.33 180.5 438.17 180.5 438ZM181 438.5C181.17 438.64 181.33 438.78 181.5 438.92C181.33 438.92 181.17 438.92 181 438.92C181 438.78 181 438.64 181 438.5ZM231.42 445.47C231.14 445.51 230.86 445.54 230.58 445.58C230.86 445.54 231.14 445.51 231.42 445.47Z"></path>
<path stroke-linejoin="round" stroke-width="0.25" stroke="#5a4a4b" fill-rule="evenodd" fill="#5a4a4b" d="M230.5 116.34C231 116.39 231.5 116.43 232 116.47C231.5 116.43 231 116.39 230.5 116.34ZM228.5 116.85C228.76 116.9 229.02 116.95 229.28 117C229.02 116.95 228.76 116.9 228.5 116.85ZM234.75 118C234.92 118 235.08 118 235.25 118C235.33 118.08 235.42 118.17 235.5 118.25C235.42 118.33 235.33 118.42 235.25 118.5C235.08 118.72 234.92 118.93 234.75 119.15C234.67 118.85 234.58 118.55 234.5 118.25C234.58 118.17 234.67 118.08 234.75 118ZM230.3 119.99C230.23 120.02 230.16 120.05 230.08 120.08C230.16 120.05 230.23 120.02 230.3 119.99ZM236.25 118.5C236.42 118.5 236.58 118.5 236.75 118.5C236.83 118.58 236.92 118.67 237 118.75C236.92 118.96 236.83 119.17 236.75 119.38C236.58 119.37 236.42 119.36 236.25 119.35C236.17 119.15 236.08 118.95 236 118.75C236.08 118.67 236.17 118.58 236.25 118.5ZM242.5 118.5C242.72 118.83 243.93 120.12 243.12 120.38C241.82 120.81 242.29 118.86 242.5 118.5ZM229 119.4C227.17 119.4 225.33 119.4 223.5 119.4C225.33 119.4 227.17 119.4 229 119.4ZM254.3 122C254.37 122.13 254.43 122.26 254.5 122.39C254.43 122.26 254.37 122.13 254.3 122ZM168.42 133.5C160.36 140.61 152.31 147.72 144.25 154.83C144 154.13 143.75 153.43 143.5 152.73C144.5 151.98 145.5 151.24 146.5 150.5C146.67 150.58 146.83 150.67 147 150.75C146.83 150.67 146.67 150.58 146.5 150.5C147.17 149.95 147.83 149.39 148.5 148.84C148.58 149.06 148.67 149.28 148.75 149.5C148.67 149.28 148.58 149.06 148.5 148.84C153.17 144.49 157.83 140.13 162.5 135.78C162.17 136.69 161.83 137.59 161.5 138.5C161.33 138.67 161.17 138.83 161 139C160.83 139.17 160.67 139.33 160.5 139.5C160.33 139.67 160.17 139.83 160 140C159.83 140.08 159.67 140.17 159.5 140.25C159.67 140.17 159.83 140.08 160 140C160.17 139.83 160.33 139.67 160.5 139.5C160.67 139.33 160.83 139.17 161 139C161.17 138.83 161.33 138.67 161.5 138.5C162.67 137.3 163.83 136.09 165 134.89C166.14 134.43 167.28 133.96 168.42 133.5ZM166.25 135C166.17 135.08 166.08 135.17 166 135.25C166.08 135.33 166.17 135.42 166.25 135.5C166.33 135.42 166.42 135.33 166.5 135.25C166.42 135.17 166.33 135.08 166.25 135ZM274.08 144C274.19 144.17 274.31 144.33 274.42 144.5C274.31 144.33 274.19 144.17 274.08 144ZM155 145C154.83 145.17 154.67 145.33 154.5 145.5C154.33 145.67 154.17 145.83 154 146C153.83 146.17 153.67 146.33 153.5 146.5C153.33 146.58 153.17 146.67 153 146.75C153.17 146.67 153.33 146.58 153.5 146.5C153.67 146.33 153.83 146.17 154 146C154.17 145.83 154.33 145.67 154.5 145.5C154.67 145.33 154.83 145.17 155 145C155.08 144.83 155.17 144.67 155.25 144.5C155.17 144.67 155.08 144.83 155 145ZM152.25 146.5C152.17 146.58 152.08 146.67 152 146.75C152.08 146.83 152.17 146.92 152.25 147C152.33 146.92 152.42 146.83 152.5 146.75C152.42 146.67 152.33 146.58 152.25 146.5ZM150.75 147.5C150.67 147.58 150.58 147.67 150.5 147.75C150.58 147.83 150.67 147.92 150.75 148C150.83 147.92 150.92 147.83 151 147.75C150.92 147.67 150.83 147.58 150.75 147.5ZM151.75 147.5C151.67 147.58 151.58 147.67 151.5 147.75C151.58 147.83 151.67 147.92 151.75 148C151.83 147.92 151.92 147.83 152 147.75C151.92 147.67 151.83 147.58 151.75 147.5ZM149.75 149C149.67 149.08 149.58 149.17 149.5 149.25C149.58 149.33 149.67 149.42 149.75 149.5C149.83 149.42 149.92 149.33 150 149.25C149.92 149.17 149.83 149.08 149.75 149ZM148 150.5C147.83 150.58 147.67 150.67 147.5 150.75C147.67 150.67 147.83 150.58 148 150.5C148.08 150.33 148.17 150.17 148.25 150C148.17 150.17 148.08 150.33 148 150.5ZM145.75 152C145.67 152.08 145.58 152.17 145.5 152.25C145.58 152.33 145.67 152.42 145.75 152.5C145.83 152.42 145.92 152.33 146 152.25C145.92 152.17 145.83 152.08 145.75 152ZM253.5 223.42C251.52 223.55 241.56 220.67 241.19 224.25C240.78 228.2 248.64 226.23 250.16 226.59C252.62 227.19 249.75 228.89 251.83 229.92C254.4 231.2 255.91 229.41 258.17 229.61C258.91 229.67 262.64 233.29 264.1 234.08C264.11 234.39 264.12 234.69 264.13 235C263.79 235.81 263.45 236.61 263.11 237.42C255.69 239.64 252.16 235.54 251.83 235.61C250.32 235.91 251.14 238.58 249.25 238.91C244.23 239.81 242.91 236.25 239.15 235.15C234.52 233.81 228.57 237.59 224.69 231.08C221.68 226.01 229.73 225.72 228.82 221.81C228.82 221.78 219.33 211.31 218.44 210.75C224.79 210.75 222.57 218.33 226.83 219.39C237.04 221.94 243.82 218.35 253.5 223.42ZM173.95 229.57C178.39 229.68 196.37 221.95 191.91 233.66C191.06 235.87 188.32 233.86 186.84 234.35C184.36 235.18 179.96 240.3 176.52 236.71C175.43 235.58 176.29 234.36 174.29 233.57C173.08 233.1 163.82 237.49 164.59 233.84C165.22 230.88 172.04 231.81 173.95 229.57ZM218.84 260.33C226.24 259.26 226.07 271.6 224.96 272.2C220.35 274.69 207.45 261.98 218.84 260.33ZM218.84 261.59C214.76 262.55 218.85 268.02 221.98 265.73C224.8 263.68 221.1 261.07 218.84 261.59ZM219.34 262.59C221.43 261.84 222.06 264.62 220.17 264.89C219.02 265.05 217.89 263.11 219.34 262.59ZM31.5 400.58C31.47 400.72 31.44 400.86 31.42 401C31.07 401.17 30.73 401.33 30.38 401.5C30.76 401.19 31.13 400.89 31.5 400.58ZM172.5 430.85C172.65 430.9 172.81 430.95 172.96 431C172.83 431 172.71 431 172.58 431C172.56 430.95 172.53 430.9 172.5 430.85ZM237 435.51C236.83 435.67 236.67 435.84 236.5 436C236.67 435.84 236.83 435.67 237 435.51ZM236.5 436C236.35 436.17 236.21 436.33 236.06 436.5C236.21 436.33 236.35 436.17 236.5 436ZM230.58 445.58C230.86 445.54 231.14 445.51 231.42 445.47C231.14 445.51 230.86 445.54 230.58 445.58Z"></path>
<path stroke-linejoin="round" stroke-width="0.25" stroke="#3a3236" fill-rule="evenodd" fill="#3a3236" d="M230.5 116.34C231 116.39 231.5 116.43 232 116.47C235.5 117.15 239 117.82 242.5 118.5C242.29 118.86 241.82 120.81 243.12 120.38C243.93 120.12 242.72 118.83 242.5 118.5C246.43 119.67 250.37 120.83 254.3 122C254.37 122.13 254.43 122.26 254.5 122.39C246.43 121.59 238.37 120.79 230.3 119.99C230.23 120.02 230.16 120.05 230.08 120.08C226.47 120.55 222.86 121.03 219.25 121.5C219.5 120.61 219.75 119.71 220 118.82C222.83 118.16 225.67 117.51 228.5 116.85C228.76 116.9 229.02 116.95 229.28 117C229.69 116.78 230.09 116.56 230.5 116.34ZM234.75 118C234.67 118.08 234.58 118.17 234.5 118.25C234.58 118.55 234.67 118.85 234.75 119.15C234.92 118.93 235.08 118.72 235.25 118.5C235.33 118.42 235.42 118.33 235.5 118.25C235.42 118.17 235.33 118.08 235.25 118C235.08 118 234.92 118 234.75 118ZM236.25 118.5C236.17 118.58 236.08 118.67 236 118.75C236.08 118.95 236.17 119.15 236.25 119.35C236.42 119.36 236.58 119.37 236.75 119.38C236.83 119.17 236.92 118.96 237 118.75C236.92 118.67 236.83 118.58 236.75 118.5C236.58 118.5 236.42 118.5 236.25 118.5ZM219.5 118.96C219 119.24 218.5 119.52 218 119.8C218.5 119.52 219 119.24 219.5 118.96ZM229 119.4C227.17 119.4 225.33 119.4 223.5 119.4C225.33 119.4 227.17 119.4 229 119.4ZM165 134.89C163.83 136.09 162.67 137.3 161.5 138.5C161.83 137.59 162.17 136.69 162.5 135.78C162.48 135.77 162.46 135.76 162.44 135.75C163.29 135.46 164.15 135.18 165 134.89ZM166.25 135C166.33 135.08 166.42 135.17 166.5 135.25C166.42 135.33 166.33 135.42 166.25 135.5C166.17 135.42 166.08 135.33 166 135.25C166.08 135.17 166.17 135.08 166.25 135ZM161.5 138.5C161.33 138.67 161.17 138.83 161 139C161.17 138.83 161.33 138.67 161.5 138.5ZM161 139C160.83 139.17 160.67 139.33 160.5 139.5C160.67 139.33 160.83 139.17 161 139ZM160.5 139.5C160.33 139.67 160.17 139.83 160 140C160.17 139.83 160.33 139.67 160.5 139.5ZM160 140C159.83 140.08 159.67 140.17 159.5 140.25C159.67 140.17 159.83 140.08 160 140ZM155 145C155.08 144.83 155.17 144.67 155.25 144.5C155.17 144.67 155.08 144.83 155 145ZM155 145C154.83 145.17 154.67 145.33 154.5 145.5C154.67 145.33 154.83 145.17 155 145ZM154.5 145.5C154.33 145.67 154.17 145.83 154 146C154.17 145.83 154.33 145.67 154.5 145.5ZM154 146C153.83 146.17 153.67 146.33 153.5 146.5C153.67 146.33 153.83 146.17 154 146ZM152.25 146.5C152.33 146.58 152.42 146.67 152.5 146.75C152.42 146.83 152.33 146.92 152.25 147C152.17 146.92 152.08 146.83 152 146.75C152.08 146.67 152.17 146.58 152.25 146.5ZM153.5 146.5C153.33 146.58 153.17 146.67 153 146.75C153.17 146.67 153.33 146.58 153.5 146.5ZM150.75 147.5C150.83 147.58 150.92 147.67 151 147.75C150.92 147.83 150.83 147.92 150.75 148C150.67 147.92 150.58 147.83 150.5 147.75C150.58 147.67 150.67 147.58 150.75 147.5ZM151.75 147.5C151.83 147.58 151.92 147.67 152 147.75C151.92 147.83 151.83 147.92 151.75 148C151.67 147.92 151.58 147.83 151.5 147.75C151.58 147.67 151.67 147.58 151.75 147.5ZM148.5 148.84C148.58 149.06 148.67 149.28 148.75 149.5C148.67 149.28 148.58 149.06 148.5 148.84ZM149.75 149C149.83 149.08 149.92 149.17 150 149.25C149.92 149.33 149.83 149.42 149.75 149.5C149.67 149.42 149.58 149.33 149.5 149.25C149.58 149.17 149.67 149.08 149.75 149ZM148 150.5C148.08 150.33 148.17 150.17 148.25 150C148.17 150.17 148.08 150.33 148 150.5ZM146.5 150.5C146.67 150.58 146.83 150.67 147 150.75C146.83 150.67 146.67 150.58 146.5 150.5ZM148 150.5C147.83 150.58 147.67 150.67 147.5 150.75C147.67 150.67 147.83 150.58 148 150.5ZM145.75 152C145.83 152.08 145.92 152.17 146 152.25C145.92 152.33 145.83 152.42 145.75 152.5C145.67 152.42 145.58 152.33 145.5 152.25C145.58 152.17 145.67 152.08 145.75 152ZM256 412.55C255.88 412.87 255.76 413.18 255.65 413.5C255.76 413.18 255.88 412.87 256 412.55ZM255.49 413.95C255.32 414.31 255.14 414.66 254.97 415.01C255.14 414.66 255.32 414.31 255.49 413.95ZM254.54 415.01C254.68 415.01 254.83 415.01 254.97 415.01C254.81 415.36 254.65 415.7 254.49 416.04C254.51 415.7 254.52 415.36 254.54 415.01ZM254 416.04C254.16 416.04 254.33 416.04 254.49 416.04C254.41 416.36 254.33 416.68 254.25 417C254.17 416.68 254.08 416.36 254 416.04ZM253.56 417.5C253.63 417.83 253.69 418.17 253.75 418.5C253.69 418.17 253.63 417.83 253.56 417.5ZM253.15 419C253.18 419.5 253.22 420 253.25 420.5C253.13 420.17 253.01 419.83 252.88 419.5C252.97 419.33 253.06 419.17 253.15 419ZM249.6 423C249.56 423.19 249.52 423.37 249.48 423.56C249.52 423.37 249.56 423.19 249.6 423ZM172.58 431C172.71 431 172.83 431 172.96 431C172.97 431.17 172.99 431.33 173 431.5C172.86 431.33 172.72 431.17 172.58 431ZM174 431C174.33 431.03 174.67 431.06 175 431.08C175.33 431.39 175.67 431.69 176 432C176 432.33 176 432.67 176 433C175.33 432.33 174.67 431.67 174 431ZM173 431.5C173.17 431.58 173.33 431.67 173.5 431.75C173.33 431.67 173.17 431.58 173 431.5ZM176 433C177.83 434.97 179.67 436.94 181.5 438.92C181.33 438.78 181.17 438.64 181 438.5C180.83 438.33 180.67 438.17 180.5 438C180.33 438 180.17 438 180 438C178.67 436.67 177.33 435.33 176 434C176 433.67 176 433.33 176 433ZM176 434C175.83 434.08 175.67 434.17 175.5 434.25C175.67 434.17 175.83 434.08 176 434ZM187.75 442C187.83 442.08 187.92 442.17 188 442.25C187.92 442.33 187.83 442.42 187.75 442.5C187.67 442.42 187.58 442.33 187.5 442.25C187.58 442.17 187.67 442.08 187.75 442ZM206.5 451.58C206.47 451.72 206.44 451.86 206.42 452C206.44 451.86 206.47 451.72 206.5 451.58Z"></path>
<path stroke-linejoin="round" stroke-width="0.25" stroke="#a57a6d" fill-rule="evenodd" fill="#a57a6d" d="M178.75 331C173.72 332.1 174.53 333.28 174.75 338.5C172.69 337.47 163.19 327.45 164.27 325.02C165.43 322.39 176.57 330.15 178.75 331ZM180.5 438.5C180.67 438.5 180.83 438.5 181 438.5C181 438.64 181 438.78 181 438.92C180.83 438.78 180.67 438.64 180.5 438.5Z"></path>
<path stroke-linejoin="round" stroke-width="0.25" stroke="#64616e" fill-rule="evenodd" fill="#64616e" d="M31.42 401C31.32 401.5 31.23 402 31.13 402.5C30.98 402.5 30.82 402.5 30.66 402.5C30.57 402.17 30.48 401.83 30.38 401.5C30.73 401.33 31.07 401.17 31.42 401ZM30.66 402.5C30.44 402.67 30.22 402.83 30 403C30.22 402.83 30.44 402.67 30.66 402.5Z"></path>
</svg>