<svg version="1.1" xmlns="http://www.w3.org/2000/svg" xmlns:xlink="http://www.w3.org/1999/xlink" width="55.32241" height="125.48983" viewBox="0,0,55.32241,125.48983"><g transform="translate(-212.3388,-118.25508)"><g stroke="#3e0909" stroke-miterlimit="10"><g><g><path d="M239.45332,135.78722c14.31037,-0.30191 26.15597,11.05415 26.45789,25.36451c0.30191,14.31037 -11.05417,26.15596 -25.36451,26.45789c-14.31038,0.30193 -26.15597,-11.05415 -26.4579,-25.36449c-0.30195,-14.31036 11.05413,-26.15598 25.36449,-26.4579z" fill="#f20000" stroke-width="3.5" stroke-linecap="butt"/><path d="M242.12445,226.83474l-0.80157,-37.99153" fill="none" stroke-width="4" stroke-linecap="round"/><path d="M218.0475,211.58918l23.43885,-14.99775l22.57726,15.27717" fill="none" stroke-width="4" stroke-linecap="round"/><path d="M234.68727,241.74492l7.89485,-16.92027l10.83516,15.77495" fill="none" stroke-width="4" stroke-linecap="round"/></g><g fill="none" stroke-linecap="round"><g stroke-width="3.5"><path d="M251.70593,159.83376l0.13694,11.7859"/><path d="M230.66823,164.62774l12.81976,-0.14898"/><path d="M221.33629,159.1898l0.13694,11.78591"/></g><path d="M227.32706,154.31169l-8.63976,-1.2667" stroke-width="2"/><path d="M249.87296,153.88446l9.96346,-0.85411" stroke-width="2"/></g><path d="M219.02366,146.25508c0,0 0.33024,-13.90585 1.80189,-19.0566c1.04983,-3.67439 6.19811,-8.9434 6.19811,-8.9434c0,0 -1.11632,6.89268 -0.69017,10.21669c0.40622,3.16854 3.19017,9.28331 3.19017,9.28331z" fill="#3e0909" stroke-width="NaN" stroke-linecap="butt"/><path d="M249.52366,139.25508c0,0 2.78395,-6.11477 3.19017,-9.28331c0.42615,-3.32401 -0.69017,-10.21669 -0.69017,-10.21669c0,0 5.14829,5.269 6.19811,8.9434c1.47164,5.15076 1.80189,19.0566 1.80189,19.0566z" fill="#3e0909" stroke-width="NaN" stroke-linecap="butt"/></g></g></g></svg>