<svg version="1.1" xmlns="http://www.w3.org/2000/svg" xmlns:xlink="http://www.w3.org/1999/xlink" width="63.96114" height="87.93828" viewBox="0,0,63.96114,87.93828"><defs><linearGradient x1="240" y1="138.03086" x2="240" y2="221.96914" gradientUnits="userSpaceOnUse" id="color-1"><stop offset="0" stop-color="#870000"/><stop offset="1" stop-color="#290b0b"/></linearGradient><linearGradient x1="240" y1="137.76678" x2="240" y2="222.23322" gradientUnits="userSpaceOnUse" id="color-2"><stop offset="0" stop-color="#880872" stop-opacity="0.49804"/><stop offset="0.25472" stop-color="#0d378d" stop-opacity="0.49804"/><stop offset="0.49057" stop-color="#238d0d" stop-opacity="0.49804"/><stop offset="0.72406" stop-color="#886408" stop-opacity="0.49804"/><stop offset="1" stop-color="#880808" stop-opacity="0.49804"/></linearGradient></defs><g transform="translate(-208.01943,-136.03086)"><g stroke-miterlimit="10"><path d="M213.01943,221.96914c-1.65685,0 -3,-1.34315 -3,-3v-77.93828c0,-1.65685 1.34315,-3 3,-3h53.96114c1.65685,0 3,1.34315 3,3v77.93828c0,1.65685 -1.34315,3 -3,3z" fill="#9763ff" stroke="#000000" stroke-width="4"/><path d="M213.01943,221.96914c-1.65685,0 -3,-1.34315 -3,-3v-77.93828c0,-1.65685 1.34315,-3 3,-3h53.96114c1.65685,0 3,1.34315 3,3v77.93828c0,1.65685 -1.34315,3 -3,3z" fill="url(#color-1)" stroke="none" stroke-width="0"/><g stroke="#000000" stroke-width="2.5"><path d="M212.54372,200.30264v-20.90212h8.70921v20.90212z" fill="#ff0000"/><path d="M240.56939,214.46741c0,6.09263 -2.2138,5.12676 -4.77912,5.12676c-2.56531,0 -4.51071,0.96587 -4.51071,-5.12676c0,-3.17036 -0.75342,-8.1827 0.1482,-10.19497c0.83107,-1.85479 3.26628,-1.31545 4.49671,-1.31545c1.26896,0 3.49623,-0.70643 4.33457,1.25245c0.85645,2.00116 0.31034,7.17912 0.31034,10.25797z" fill="#ff0000"/><path d="M228.06496,214.76924c0,6.09263 -2.21381,5.12676 -4.77912,5.12676c-2.56531,0 -4.51071,0.96587 -4.51071,-5.12676c0,-3.17036 -0.75342,-8.1827 0.1482,-10.19497c0.83107,-1.85479 3.26629,-1.31545 4.49671,-1.31545c1.26896,0 3.49623,-0.70643 4.33457,1.25245c0.85645,2.00116 0.31034,7.17913 0.31034,10.25797z" fill="#ff0000"/><path d="M242.73568,193.03156c0,14.58284 -6.07419,12.46296 -13.20898,12.46296c-7.13478,0 -12.62837,2.11988 -12.62837,-12.46296c0,-14.58284 5.78388,-26.40457 12.91867,-26.40457c7.13478,0 12.91867,11.82173 12.91867,26.40457z" fill="#ff0000"/><path d="M228.80093,184.04543v-6.67707h11.90259v6.67707z" fill="#00ffe5"/></g><g stroke="#000000" stroke-width="2.5"><path d="M238.0487,205.15439v-20.90212h8.70921v20.90212z" fill="#0f00ff"/><path d="M266.07437,219.31916c0,2.82797 -2.63976,0.93904 -4.78467,1.14174c-2.47614,0.234 -4.50516,2.12292 -4.50516,-1.14174c0,-3.17036 -0.75342,-8.1827 0.1482,-10.19497c0.83107,-1.85479 3.26628,-1.31545 4.49671,-1.31545c1.26896,0 3.49623,-0.70643 4.33457,1.25245c0.85645,2.00116 0.31034,7.17912 0.31034,10.25797z" fill="#0f00ff"/><path d="M253.56993,219.62099c0,2.70686 -2.68478,-0.15059 -4.72282,0.15103c-2.5492,0.37728 -4.56701,3.23473 -4.56701,-0.15103c0,-3.17036 -0.75342,-8.1827 0.1482,-10.19497c0.83107,-1.85479 3.26629,-1.31545 4.49671,-1.31545c1.26896,0 3.49623,-0.70643 4.33457,1.25245c0.85645,2.00116 0.31034,7.17913 0.31034,10.25797z" fill="#0f00ff"/><path d="M268.24066,197.88331c0,14.58284 -6.07419,12.46296 -13.20898,12.46296c-7.13478,0 -12.62837,2.11988 -12.62837,-12.46296c0,-14.58284 5.78388,-26.40457 12.91867,-26.40457c7.13478,0 12.91867,11.82173 12.91867,26.40457z" fill="#0f00ff"/><path d="M254.30591,188.89718v-6.67707h11.90259v6.67707z" fill="#00ffe5"/></g><g stroke="#000000" stroke-width="1.5"><g><path d="M237.63384,160.07169l-3.86504,2.92337l-6.71585,-8.87915l3.86504,-2.92337z" fill="#ff8000"/><path d="M246.96599,172.06282c0,0 -3.28906,-0.54858 -5.66559,-2.44782c-2.56078,-2.04648 -7.51998,-6.30029 -7.51998,-6.30029l4.17842,-3.1604z" fill="#d2d2d2"/></g><path d="M234.41252,150.87703c1.60095,2.78527 0.49974,6.42211 -2.4596,8.12312c-2.95935,1.70101 -6.6562,0.82204 -8.25714,-1.96323c-1.60095,-2.78527 -0.49974,-6.42211 2.4596,-8.12312c2.95935,-1.70101 6.6562,-0.82204 8.25714,1.96323z" fill="#ff0000"/></g><path d="M213.01943,221.96914c-1.65685,0 -3,-1.34315 -3,-3v-77.93828c0,-1.65685 1.34315,-3 3,-3h53.96114c1.65685,0 3,1.34315 3,3v77.93828c0,1.65685 -1.34315,3 -3,3zM262.96734,217.21427c1.38071,0 2.5,-1.11929 2.5,-2.5v-69.42854c0,-1.38071 -1.11929,-2.5 -2.5,-2.5h-45.93468c-1.38071,0 -2.5,1.11929 -2.5,2.5v69.42854c0,1.38071 1.11929,2.5 2.5,2.5z" fill="#dc2020" stroke="none" stroke-width="0"/><path d="M213.01943,221.96914c-1.65685,0 -3,-1.34315 -3,-3v-77.93828c0,-1.65685 1.34315,-3 3,-3h53.96114c1.65685,0 3,1.34315 3,3v77.93828c0,1.65685 -1.34315,3 -3,3z" fill="url(#color-2)" stroke="none" stroke-width="NaN"/><path d="M214.07078,221.72212l0.26613,-1.63154l-1.12736,-1.15546l1.55798,-0.23804l0.69675,-1.48442l0.69675,1.48442l1.55798,0.23804l-1.12736,1.15546l0.26613,1.63154l-1.3935,-0.77031z" fill="#000000" stroke="none" stroke-width="0"/><path d="M219.24055,221.72212l0.26613,-1.63154l-1.12736,-1.15546l1.55798,-0.23804l0.69675,-1.48442l0.69675,1.48442l1.55798,0.23804l-1.12736,1.15546l0.26613,1.63154l-1.3935,-0.77031z" fill="#000000" stroke="none" stroke-width="0"/><text transform="translate(223.60284,221.37117) scale(0.0984,0.0984)" font-size="40" xml:space="preserve" fill="#000000" stroke="none" stroke-width="1" font-family="Sans Serif" font-weight="normal" text-anchor="start"><tspan x="0" dy="0">17/27</tspan></text><text transform="translate(214.5139,142.06931) scale(0.10938,0.10938)" font-size="40" xml:space="preserve" fill="#000000" stroke="none" stroke-width="1" font-family="Sans Serif" font-weight="normal" text-anchor="start"><tspan x="0" dy="0">Murder In Progress</tspan></text><text transform="translate(239.57666,220.8475) scale(0.09461,0.09461)" font-size="40" xml:space="preserve" fill="#000000" stroke="none" stroke-width="1" font-family="Sans Serif" font-weight="normal" text-anchor="start"><tspan x="0" dy="0">Core Collection</tspan></text></g></g></svg>