<svg version="1.1" xmlns="http://www.w3.org/2000/svg" xmlns:xlink="http://www.w3.org/1999/xlink" width="445.40088" height="316.85568" viewBox="0,0,445.40088,316.85568"><defs><linearGradient x1="326.40193" y1="206.31937" x2="407.76557" y2="206.31937" gradientUnits="userSpaceOnUse" id="color-1"><stop offset="0" stop-color="#eb3737"/><stop offset="1" stop-color="#eb2b2b"/></linearGradient><linearGradient x1="326.40193" y1="206.31937" x2="407.76557" y2="206.31937" gradientUnits="userSpaceOnUse" id="color-2"><stop offset="0" stop-color="#e88d8d"/><stop offset="0.49057" stop-color="#eb3737"/><stop offset="1" stop-color="#e88d8d"/></linearGradient><linearGradient x1="326.40193" y1="227.78996" x2="407.76557" y2="227.78996" gradientUnits="userSpaceOnUse" id="color-3"><stop offset="0" stop-color="#15bd1a"/><stop offset="1" stop-color="#21a800"/></linearGradient><linearGradient x1="326.40193" y1="227.78996" x2="407.76557" y2="227.78996" gradientUnits="userSpaceOnUse" id="color-4"><stop offset="0" stop-color="#58ff5d"/><stop offset="0.49528" stop-color="#15bd1a"/><stop offset="1" stop-color="#58ff5d"/></linearGradient><linearGradient x1="326.40193" y1="249.85769" x2="407.76557" y2="249.85769" gradientUnits="userSpaceOnUse" id="color-5"><stop offset="0" stop-color="#526abd"/><stop offset="1" stop-color="#3564aa"/></linearGradient><linearGradient x1="326.40193" y1="249.85769" x2="407.76557" y2="249.85769" gradientUnits="userSpaceOnUse" id="color-6"><stop offset="0" stop-color="#8098f2"/><stop offset="0.48821" stop-color="#526abd"/><stop offset="0.99057" stop-color="#8098f2"/></linearGradient><linearGradient x1="326.40193" y1="271.96296" x2="407.76557" y2="271.96296" gradientUnits="userSpaceOnUse" id="color-7"><stop offset="0" stop-color="#c9b75a"/><stop offset="1" stop-color="#b09440"/></linearGradient><linearGradient x1="326.40193" y1="271.96296" x2="407.76557" y2="271.96296" gradientUnits="userSpaceOnUse" id="color-8"><stop offset="0" stop-color="#eadfa8"/><stop offset="0.48821" stop-color="#bdaf6d"/><stop offset="0.99057" stop-color="#eadfa8"/></linearGradient><linearGradient x1="326.40193" y1="293.4847" x2="407.76557" y2="293.4847" gradientUnits="userSpaceOnUse" id="color-9"><stop offset="0" stop-color="#2c2eba"/><stop offset="1" stop-color="#4014b9"/></linearGradient><linearGradient x1="326.40193" y1="293.4847" x2="407.76557" y2="293.4847" gradientUnits="userSpaceOnUse" id="color-10"><stop offset="0" stop-color="#7f5ed9"/><stop offset="0.49292" stop-color="#4014b9"/><stop offset="0.99057" stop-color="#7f5ed9"/></linearGradient><linearGradient x1="326.40193" y1="314.97943" x2="407.76557" y2="314.97943" gradientUnits="userSpaceOnUse" id="color-11"><stop offset="0" stop-color="#c9601a"/><stop offset="1" stop-color="#c9591a"/></linearGradient><linearGradient x1="326.40193" y1="314.97943" x2="407.76557" y2="314.97943" gradientUnits="userSpaceOnUse" id="color-12"><stop offset="0" stop-color="#ea9b66"/><stop offset="0.48821" stop-color="#c96e32"/><stop offset="1" stop-color="#ea9b66"/></linearGradient><linearGradient x1="156.96525" y1="206.31937" x2="238.32889" y2="206.31937" gradientUnits="userSpaceOnUse" id="color-13"><stop offset="0" stop-color="#e88d8d"/><stop offset="0.49057" stop-color="#eb3737"/><stop offset="1" stop-color="#e88d8d"/></linearGradient><linearGradient x1="156.96525" y1="227.78996" x2="238.32889" y2="227.78996" gradientUnits="userSpaceOnUse" id="color-14"><stop offset="0" stop-color="#58ff5d"/><stop offset="0.49528" stop-color="#15bd1a"/><stop offset="1" stop-color="#58ff5d"/></linearGradient><linearGradient x1="156.96525" y1="249.85769" x2="238.32889" y2="249.85769" gradientUnits="userSpaceOnUse" id="color-15"><stop offset="0" stop-color="#8098f2"/><stop offset="0.48821" stop-color="#526abd"/><stop offset="0.99057" stop-color="#8098f2"/></linearGradient><linearGradient x1="156.96525" y1="271.96296" x2="238.32889" y2="271.96296" gradientUnits="userSpaceOnUse" id="color-16"><stop offset="0" stop-color="#eadfa8"/><stop offset="0.48821" stop-color="#bdaf6d"/><stop offset="0.99057" stop-color="#eadfa8"/></linearGradient><linearGradient x1="156.96525" y1="293.4847" x2="238.32889" y2="293.4847" gradientUnits="userSpaceOnUse" id="color-17"><stop offset="0" stop-color="#7f5ed9"/><stop offset="0.49292" stop-color="#4014b9"/><stop offset="0.99057" stop-color="#7f5ed9"/></linearGradient><linearGradient x1="156.96525" y1="314.97943" x2="238.32889" y2="314.97943" gradientUnits="userSpaceOnUse" id="color-18"><stop offset="0" stop-color="#ea9b66"/><stop offset="0.48821" stop-color="#c96e32"/><stop offset="1" stop-color="#ea9b66"/></linearGradient><linearGradient x1="106.02937" y1="162.21019" x2="175.47381" y2="162.21019" gradientUnits="userSpaceOnUse" id="color-19"><stop offset="0" stop-color="#8a8a8a"/><stop offset="0.5" stop-color="#555555"/><stop offset="1" stop-color="#8a8a8a"/></linearGradient><linearGradient x1="106.02936" y1="53.46894" x2="175.4738" y2="53.46894" gradientUnits="userSpaceOnUse" id="color-20"><stop offset="0" stop-color="#8a8a8a"/><stop offset="0.5" stop-color="#555555"/><stop offset="1" stop-color="#8a8a8a"/></linearGradient><linearGradient x1="106.02936" y1="106.13643" x2="175.4738" y2="106.13643" gradientUnits="userSpaceOnUse" id="color-21"><stop offset="0" stop-color="#555555"/><stop offset="1" stop-color="#6f6f6f"/></linearGradient><linearGradient x1="106.02936" y1="106.13643" x2="175.4738" y2="106.13643" gradientUnits="userSpaceOnUse" id="color-22"><stop offset="0" stop-color="#8a8a8a"/><stop offset="0.5" stop-color="#555555"/><stop offset="1" stop-color="#8a8a8a"/></linearGradient><linearGradient x1="139.68077" y1="40.26061" x2="151.20251" y2="40.26061" gradientUnits="userSpaceOnUse" id="color-23"><stop offset="0" stop-color="#ebda85"/><stop offset="1" stop-color="#b0a236"/></linearGradient><linearGradient x1="111.67561" y1="40.26061" x2="123.19735" y2="40.26061" gradientUnits="userSpaceOnUse" id="color-24"><stop offset="0" stop-color="#ebda85"/><stop offset="1" stop-color="#b0a236"/></linearGradient><linearGradient x1="69.50913" y1="206.39831" x2="150.87277" y2="206.39831" gradientUnits="userSpaceOnUse" id="color-25"><stop offset="0" stop-color="#e88d8d"/><stop offset="0.49057" stop-color="#eb3737"/><stop offset="1" stop-color="#e88d8d"/></linearGradient><linearGradient x1="69.50913" y1="227.8689" x2="150.87277" y2="227.8689" gradientUnits="userSpaceOnUse" id="color-26"><stop offset="0" stop-color="#58ff5d"/><stop offset="0.49528" stop-color="#15bd1a"/><stop offset="1" stop-color="#58ff5d"/></linearGradient><linearGradient x1="69.50913" y1="249.93663" x2="150.87277" y2="249.93663" gradientUnits="userSpaceOnUse" id="color-27"><stop offset="0" stop-color="#8098f2"/><stop offset="0.48821" stop-color="#526abd"/><stop offset="0.99057" stop-color="#8098f2"/></linearGradient><linearGradient x1="69.50913" y1="272.0419" x2="150.87277" y2="272.0419" gradientUnits="userSpaceOnUse" id="color-28"><stop offset="0" stop-color="#eadfa8"/><stop offset="0.48821" stop-color="#bdaf6d"/><stop offset="0.99057" stop-color="#eadfa8"/></linearGradient><linearGradient x1="69.50913" y1="293.56364" x2="150.87277" y2="293.56364" gradientUnits="userSpaceOnUse" id="color-29"><stop offset="0" stop-color="#7f5ed9"/><stop offset="0.49292" stop-color="#4014b9"/><stop offset="0.99057" stop-color="#7f5ed9"/></linearGradient><linearGradient x1="69.50913" y1="315.05837" x2="150.87277" y2="315.05837" gradientUnits="userSpaceOnUse" id="color-30"><stop offset="0" stop-color="#ea9b66"/><stop offset="0.48821" stop-color="#c96e32"/><stop offset="1" stop-color="#ea9b66"/></linearGradient><linearGradient x1="242.27049" y1="206.20265" x2="323.63413" y2="206.20265" gradientUnits="userSpaceOnUse" id="color-31"><stop offset="0" stop-color="#eb3636" stop-opacity="0.50196"/><stop offset="1" stop-color="#eb2a2a" stop-opacity="0.50196"/></linearGradient><linearGradient x1="242.27049" y1="206.20265" x2="323.63413" y2="206.20265" gradientUnits="userSpaceOnUse" id="color-32"><stop offset="0" stop-color="#e88d8d"/><stop offset="0.49057" stop-color="#eb3737"/><stop offset="1" stop-color="#e88d8d"/></linearGradient><linearGradient x1="242.27049" y1="227.67324" x2="323.63413" y2="227.67324" gradientUnits="userSpaceOnUse" id="color-33"><stop offset="0" stop-color="#15bd1a" stop-opacity="0.50196"/><stop offset="1" stop-color="#22a800" stop-opacity="0.50196"/></linearGradient><linearGradient x1="242.27049" y1="227.67324" x2="323.63413" y2="227.67324" gradientUnits="userSpaceOnUse" id="color-34"><stop offset="0" stop-color="#58ff5d"/><stop offset="0.49528" stop-color="#15bd1a"/><stop offset="1" stop-color="#58ff5d"/></linearGradient><linearGradient x1="242.27049" y1="249.74097" x2="323.63413" y2="249.74097" gradientUnits="userSpaceOnUse" id="color-35"><stop offset="0" stop-color="#5168bd" stop-opacity="0.50196"/><stop offset="1" stop-color="#3564ab" stop-opacity="0.50196"/></linearGradient><linearGradient x1="242.27049" y1="249.74097" x2="323.63413" y2="249.74097" gradientUnits="userSpaceOnUse" id="color-36"><stop offset="0" stop-color="#8098f2"/><stop offset="0.48821" stop-color="#526abd"/><stop offset="0.99057" stop-color="#8098f2"/></linearGradient><linearGradient x1="242.27049" y1="271.84624" x2="323.63413" y2="271.84624" gradientUnits="userSpaceOnUse" id="color-37"><stop offset="0" stop-color="#c9b75b" stop-opacity="0.50196"/><stop offset="1" stop-color="#b0943f" stop-opacity="0.50196"/></linearGradient><linearGradient x1="242.27049" y1="271.84624" x2="323.63413" y2="271.84624" gradientUnits="userSpaceOnUse" id="color-38"><stop offset="0" stop-color="#eadfa8"/><stop offset="0.48821" stop-color="#bdaf6d"/><stop offset="0.99057" stop-color="#eadfa8"/></linearGradient><linearGradient x1="242.27049" y1="293.36798" x2="323.63413" y2="293.36798" gradientUnits="userSpaceOnUse" id="color-39"><stop offset="0" stop-color="#2d2fba" stop-opacity="0.50196"/><stop offset="1" stop-color="#4114ba" stop-opacity="0.50196"/></linearGradient><linearGradient x1="242.27049" y1="293.36798" x2="323.63413" y2="293.36798" gradientUnits="userSpaceOnUse" id="color-40"><stop offset="0" stop-color="#7f5ed9"/><stop offset="0.49292" stop-color="#4014b9"/><stop offset="0.99057" stop-color="#7f5ed9"/></linearGradient><linearGradient x1="242.27049" y1="314.86271" x2="323.63413" y2="314.86271" gradientUnits="userSpaceOnUse" id="color-41"><stop offset="0" stop-color="#c9601a" stop-opacity="0.50196"/><stop offset="1" stop-color="#c95a1a" stop-opacity="0.50196"/></linearGradient><linearGradient x1="242.27049" y1="314.86271" x2="323.63413" y2="314.86271" gradientUnits="userSpaceOnUse" id="color-42"><stop offset="0" stop-color="#ea9b66"/><stop offset="0.48821" stop-color="#c96e32"/><stop offset="1" stop-color="#ea9b66"/></linearGradient><linearGradient x1="156.96525" y1="335.5656" x2="238.32889" y2="335.5656" gradientUnits="userSpaceOnUse" id="color-43"><stop offset="0" stop-color="#404040"/><stop offset="0.49057" stop-color="#2b2b2b"/><stop offset="1" stop-color="#404040"/></linearGradient><linearGradient x1="69.50913" y1="336.34238" x2="150.87277" y2="336.34238" gradientUnits="userSpaceOnUse" id="color-44"><stop offset="0" stop-color="#404040"/><stop offset="0.49057" stop-color="#2b2b2b"/><stop offset="1" stop-color="#404040"/></linearGradient></defs><g transform="translate(-10.9802,-28.37306)"><g stroke-miterlimit="10"><path d="M333.90193,214.95573c-4.14214,0 -7.5,-3.35786 -7.5,-7.5v-2.27273c0,-4.14214 3.35786,-7.5 7.5,-7.5h66.36364c4.14214,0 7.5,3.35786 7.5,7.5v2.27273c0,4.14214 -3.35786,7.5 -7.5,7.5z" fill="url(#color-1)" stroke="url(#color-2)" stroke-width="0.5"/><path d="M333.90193,236.42632c-4.14214,0 -7.5,-3.35786 -7.5,-7.5v-2.27273c0,-4.14214 3.35786,-7.5 7.5,-7.5h66.36364c4.14214,0 7.5,3.35786 7.5,7.5v2.27273c0,4.14214 -3.35786,7.5 -7.5,7.5z" fill="url(#color-3)" stroke="url(#color-4)" stroke-width="0.5"/><path d="M333.90193,258.49406c-4.14214,0 -7.5,-3.35786 -7.5,-7.5v-2.27273c0,-4.14214 3.35786,-7.5 7.5,-7.5h66.36364c4.14214,0 7.5,3.35786 7.5,7.5v2.27273c0,4.14214 -3.35786,7.5 -7.5,7.5z" fill="url(#color-5)" stroke="url(#color-6)" stroke-width="0.5"/><path d="M333.90193,280.59932c-4.14214,0 -7.5,-3.35786 -7.5,-7.5v-2.27273c0,-4.14214 3.35786,-7.5 7.5,-7.5h66.36364c4.14214,0 7.5,3.35786 7.5,7.5v2.27273c0,4.14214 -3.35786,7.5 -7.5,7.5z" fill="url(#color-7)" stroke="url(#color-8)" stroke-width="0.5"/><path d="M333.90193,302.12105c-4.14214,0 -7.5,-3.35786 -7.5,-7.5v-2.27273c0,-4.14214 3.35786,-7.5 7.5,-7.5h66.36364c4.14214,0 7.5,3.35786 7.5,7.5v2.27273c0,4.14214 -3.35786,7.5 -7.5,7.5z" fill="url(#color-9)" stroke="url(#color-10)" stroke-width="0.5"/><path d="M333.90193,323.6158c-4.14214,0 -7.5,-3.35786 -7.5,-7.5v-2.27273c0,-4.14214 3.35786,-7.5 7.5,-7.5h66.36364c4.14214,0 7.5,3.35786 7.5,7.5v2.27273c0,4.14214 -3.35786,7.5 -7.5,7.5z" fill="url(#color-11)" stroke="url(#color-12)" stroke-width="0.5"/><path d="M164.46525,214.95573c-4.14214,0 -7.5,-3.35786 -7.5,-7.5v-2.27273c0,-4.14214 3.35786,-7.5 7.5,-7.5h66.36364c4.14214,0 7.5,3.35786 7.5,7.5v2.27273c0,4.14214 -3.35786,7.5 -7.5,7.5z" fill="#2b2b2b" stroke="url(#color-13)" stroke-width="0.5"/><text transform="translate(185.54987,210.00193) scale(0.30688,0.30688)" font-size="40" xml:space="preserve" fill="#ffffff" stroke="none" stroke-width="1" font-family="Sans Serif" font-weight="normal" text-anchor="start"><tspan x="0" dy="0">Text</tspan></text><path d="M164.46525,236.42632c-4.14214,0 -7.5,-3.35786 -7.5,-7.5v-2.27273c0,-4.14214 3.35786,-7.5 7.5,-7.5h66.36364c4.14214,0 7.5,3.35786 7.5,7.5v2.27273c0,4.14214 -3.35786,7.5 -7.5,7.5z" fill="#2b2b2b" stroke="url(#color-14)" stroke-width="0.5"/><path d="M164.46525,258.49406c-4.14214,0 -7.5,-3.35786 -7.5,-7.5v-2.27273c0,-4.14214 3.35786,-7.5 7.5,-7.5h66.36364c4.14214,0 7.5,3.35786 7.5,7.5v2.27273c0,4.14214 -3.35786,7.5 -7.5,7.5z" fill="#2b2b2b" stroke="url(#color-15)" stroke-width="0.5"/><path d="M164.46525,280.59932c-4.14214,0 -7.5,-3.35786 -7.5,-7.5v-2.27273c0,-4.14214 3.35786,-7.5 7.5,-7.5h66.36364c4.14214,0 7.5,3.35786 7.5,7.5v2.27273c0,4.14214 -3.35786,7.5 -7.5,7.5z" fill="#2b2b2b" stroke="url(#color-16)" stroke-width="0.5"/><path d="M164.46525,302.12105c-4.14214,0 -7.5,-3.35786 -7.5,-7.5v-2.27273c0,-4.14214 3.35786,-7.5 7.5,-7.5h66.36364c4.14214,0 7.5,3.35786 7.5,7.5v2.27273c0,4.14214 -3.35786,7.5 -7.5,7.5z" fill="#2b2b2b" stroke="url(#color-17)" stroke-width="0.5"/><path d="M164.46525,323.6158c-4.14214,0 -7.5,-3.35786 -7.5,-7.5v-2.27273c0,-4.14214 3.35786,-7.5 7.5,-7.5h66.36364c4.14214,0 7.5,3.35786 7.5,7.5v2.27273c0,4.14214 -3.35786,7.5 -7.5,7.5z" fill="#2b2b2b" stroke="url(#color-18)" stroke-width="0.5"/><text transform="translate(185.54987,231.47252) scale(0.30688,0.30688)" font-size="40" xml:space="preserve" fill="#ffffff" stroke="none" stroke-width="1" font-family="Sans Serif" font-weight="normal" text-anchor="start"><tspan x="0" dy="0">Text</tspan></text><text transform="translate(185.54987,253.54025) scale(0.30688,0.30688)" font-size="40" xml:space="preserve" fill="#ffffff" stroke="none" stroke-width="1" font-family="Sans Serif" font-weight="normal" text-anchor="start"><tspan x="0" dy="0">Text</tspan></text><text transform="translate(185.54987,275.64552) scale(0.30688,0.30688)" font-size="40" xml:space="preserve" fill="#ffffff" stroke="none" stroke-width="1" font-family="Sans Serif" font-weight="normal" text-anchor="start"><tspan x="0" dy="0">Text</tspan></text><text transform="translate(185.54987,297.16725) scale(0.30688,0.30688)" font-size="40" xml:space="preserve" fill="#ffffff" stroke="none" stroke-width="1" font-family="Sans Serif" font-weight="normal" text-anchor="start"><tspan x="0" dy="0">Text</tspan></text><text transform="translate(185.54987,318.66198) scale(0.30688,0.30688)" font-size="40" xml:space="preserve" fill="#ffffff" stroke="none" stroke-width="1" font-family="Sans Serif" font-weight="normal" text-anchor="start"><tspan x="0" dy="0">Text</tspan></text><text transform="translate(354.98655,318.66198) scale(0.30688,0.30688)" font-size="40" xml:space="preserve" fill="#ffffff" stroke="none" stroke-width="1" font-family="Sans Serif" font-weight="normal" text-anchor="start"><tspan x="0" dy="0">Text</tspan></text><text transform="translate(354.98655,297.16725) scale(0.30688,0.30688)" font-size="40" xml:space="preserve" fill="#ffffff" stroke="none" stroke-width="1" font-family="Sans Serif" font-weight="normal" text-anchor="start"><tspan x="0" dy="0">Text</tspan></text><text transform="translate(354.98655,275.64552) scale(0.30688,0.30688)" font-size="40" xml:space="preserve" fill="#ffffff" stroke="none" stroke-width="1" font-family="Sans Serif" font-weight="normal" text-anchor="start"><tspan x="0" dy="0">Text</tspan></text><text transform="translate(354.98655,253.54025) scale(0.30688,0.30688)" font-size="40" xml:space="preserve" fill="#ffffff" stroke="none" stroke-width="1" font-family="Sans Serif" font-weight="normal" text-anchor="start"><tspan x="0" dy="0">Text</tspan></text><text transform="translate(354.98655,231.47252) scale(0.30688,0.30688)" font-size="40" xml:space="preserve" fill="#ffffff" stroke="none" stroke-width="1" font-family="Sans Serif" font-weight="normal" text-anchor="start"><tspan x="0" dy="0">Text</tspan></text><text transform="translate(354.98655,210.00193) scale(0.30688,0.30688)" font-size="40" xml:space="preserve" fill="#ffffff" stroke="none" stroke-width="1" font-family="Sans Serif" font-weight="normal" text-anchor="start"><tspan x="0" dy="0">Text</tspan></text><path d="M113.52937,186.93241c-4.14213,0 -7.5,-3.35787 -7.5,-7.5v-34.44444c0,-4.14213 3.35787,-7.5 7.5,-7.5h54.44444c4.14213,0 7.5,3.35787 7.5,7.5v34.44444c0,4.14213 -3.35787,7.5 -7.5,7.5z" fill="#555555" stroke="url(#color-19)" stroke-width="0.5"/><path d="M186.32852,185.68612v-25h25v25z" fill="#8a8a8a" stroke="none" stroke-width="0"/><path d="M186.32852,160.68612v-25h25v25z" fill="#555555" stroke="none" stroke-width="0"/><path d="M113.52936,78.19115c-4.14213,0 -7.5,-3.35787 -7.5,-7.5v-34.44444c0,-4.14213 3.35787,-7.5 7.5,-7.5h54.44444c4.14213,0 7.5,3.35787 7.5,7.5v34.44445c0,4.14213 -3.35787,7.5 -7.5,7.5z" fill="#555555" stroke="url(#color-20)" stroke-width="0.5"/><path d="M115.6475,69.74022c-3.2015,0 -5.79683,-2.59533 -5.79683,-5.79684v-25.7637c0,-3.2015 2.59533,-5.79684 5.79683,-5.79684h25.76371c3.2015,0 5.79683,2.59533 5.79683,5.79684v25.7637c0,3.2015 -2.59533,5.79684 -5.79683,5.79684z" fill="#5e5e5e" stroke="#000000" stroke-width="0"/><path d="M113.52936,130.85865c-4.14213,0 -7.5,-3.35787 -7.5,-7.5v-34.44444c0,-4.14213 3.35787,-7.5 7.5,-7.5h54.44444c4.14213,0 7.5,3.35787 7.5,7.5v34.44445c0,4.14213 -3.35787,7.5 -7.5,7.5z" fill="url(#color-21)" stroke="url(#color-22)" stroke-width="0.5"/><path d="M210.89373,54.14521v-25h25v25z" fill="#5e5e5e" stroke="none" stroke-width="0"/><path d="M140.98084,69.74022c-3.2015,0 -5.79683,-2.59533 -5.79683,-5.79684v-25.7637c0,-3.2015 2.59533,-5.79684 5.79683,-5.79684h25.76371c3.2015,0 5.79683,2.59533 5.79683,5.79684v25.7637c0,3.2015 -2.59533,5.79684 -5.79683,5.79684z" fill="#464646" stroke="#000000" stroke-width="0"/><path d="M210.89373,79.24619v-25h25v25z" fill="#464646" stroke="none" stroke-width="0"/><path d="M145.96794,49.76291l5.76087,11.52174h-11.52174z" fill="#aaaaaa" stroke="none" stroke-width="0"/><path d="M117.96279,49.76291l5.76087,11.52174h-11.52174z" fill="#aaaaaa" stroke="none" stroke-width="0"/><path d="M295.08396,78.46894v-25h25v25z" fill="#aaaaaa" stroke="none" stroke-width="0"/><path d="M145.44164,34.49974l5.76087,11.52174h-11.52174z" fill="url(#color-23)" stroke="none" stroke-width="0"/><path d="M117.43648,34.49974l5.76087,11.52174h-11.52174z" fill="url(#color-24)" stroke="none" stroke-width="0"/><text transform="translate(141.44717,67.72262) scale(0.14614,0.14614)" font-size="40" xml:space="preserve" fill="#ffffff" stroke="none" stroke-width="1" font-family="Sans Serif" font-weight="normal" text-anchor="start"><tspan x="0" dy="0">Text</tspan></text><text transform="translate(111.74115,67.94001) scale(0.14614,0.14614)" font-size="40" xml:space="preserve" fill="#ffffff" stroke="none" stroke-width="1" font-family="Sans Serif" font-weight="normal" text-anchor="start"><tspan x="0" dy="0">Text</tspan></text><text transform="translate(130.92794,75.54871) scale(0.14614,0.14614)" font-size="40" xml:space="preserve" fill="#ffffff" stroke="none" stroke-width="1" font-family="Sans Serif" font-weight="normal" text-anchor="start"><tspan x="0" dy="0">Text</tspan></text><text transform="translate(134.99074,107.89011) scale(0.14614,0.14614)" font-size="40" xml:space="preserve" fill="#ffffff" stroke="none" stroke-width="1" font-family="Sans Serif" font-weight="normal" text-anchor="start"><tspan x="0" dy="0">Text</tspan></text><text transform="translate(134.99076,163.96387) scale(0.14614,0.14614)" font-size="40" xml:space="preserve" fill="#ffffff" stroke="none" stroke-width="1" font-family="Sans Serif" font-weight="normal" text-anchor="start"><tspan x="0" dy="0">Text</tspan></text><path d="M320.08396,53.46894v-25h25v25z" fill="#b0a236" stroke="none" stroke-width="0"/><path d="M320.08396,78.46894v-25h25v25z" fill="#ebda85" stroke="none" stroke-width="0"/><text transform="translate(123.40781,67.94001) scale(0.14614,0.14614)" font-size="40" xml:space="preserve" fill="#9e9e9e" stroke="none" stroke-width="1" font-family="Sans Serif" font-weight="normal" text-anchor="start"><tspan x="0" dy="0">Text</tspan></text><text transform="translate(153.96337,67.94001) scale(0.14614,0.14614)" font-size="40" xml:space="preserve" fill="#9e9e9e" stroke="none" stroke-width="1" font-family="Sans Serif" font-weight="normal" text-anchor="start"><tspan x="0" dy="0">Text</tspan></text><text transform="translate(143.77818,75.54871) scale(0.14614,0.14614)" font-size="40" xml:space="preserve" fill="#9e9e9e" stroke="none" stroke-width="1" font-family="Sans Serif" font-weight="normal" text-anchor="start"><tspan x="0" dy="0">Text</tspan></text><text transform="translate(134.99074,113.47835) scale(0.14614,0.14614)" font-size="40" xml:space="preserve" fill="#9e9e9e" stroke="none" stroke-width="1" font-family="Sans Serif" font-weight="normal" text-anchor="start"><tspan x="0" dy="0">Text</tspan></text><text transform="translate(134.99076,169.55211) scale(0.14614,0.14614)" font-size="40" xml:space="preserve" fill="#9e9e9e" stroke="none" stroke-width="1" font-family="Sans Serif" font-weight="normal" text-anchor="start"><tspan x="0" dy="0">Text</tspan></text><path d="M265.07421,78.46894v-25h25v25z" fill="#9e9e9e" stroke="none" stroke-width="0"/><text transform="translate(143.85456,43.39361) scale(0.14614,0.14614)" font-size="40" xml:space="preserve" fill="#303030" stroke="none" stroke-width="1" font-family="Sans Serif" font-weight="normal" text-anchor="start"><tspan x="0" dy="0">x</tspan></text><text transform="translate(115.8494,43.49565) scale(0.14614,0.14614)" font-size="40" xml:space="preserve" fill="#303030" stroke="none" stroke-width="1" font-family="Sans Serif" font-weight="normal" text-anchor="start"><tspan x="0" dy="0">x</tspan></text><text transform="translate(116.37571,58.39361) scale(0.14614,0.14614)" font-size="40" xml:space="preserve" fill="#686868" stroke="none" stroke-width="1" font-family="Sans Serif" font-weight="normal" text-anchor="start"><tspan x="0" dy="0">x</tspan></text><text transform="translate(144.38087,58.69973) scale(0.14614,0.14614)" font-size="40" xml:space="preserve" fill="#686868" stroke="none" stroke-width="1" font-family="Sans Serif" font-weight="normal" text-anchor="start"><tspan x="0" dy="0">x</tspan></text><text transform="translate(123.40781,62.08993) scale(0.14614,0.14614)" font-size="40" xml:space="preserve" fill="#b0a236" stroke="none" stroke-width="1" font-family="Sans Serif" font-weight="normal" text-anchor="start"><tspan x="0" dy="0">Text</tspan></text><text transform="translate(153.96337,61.21165) scale(0.14614,0.14614)" font-size="40" xml:space="preserve" fill="#b0a236" stroke="none" stroke-width="1" font-family="Sans Serif" font-weight="normal" text-anchor="start"><tspan x="0" dy="0">Text</tspan></text><path d="M373.97065,53.85669v25h-25v-25z" fill="#303030" stroke="none" stroke-width="0"/><path d="M373.97065,29.14521v25h-25v-25z" fill="#686868" stroke="none" stroke-width="0"/><path d="M265.37405,53.56482v25h-25v-25z" fill="#b0a236" stroke="none" stroke-width="0"/><path d="M240.03394,185.68612v-25h25v25z" fill="#9e9e9e" stroke="none" stroke-width="0"/><g stroke="none" stroke-width="0"><path d="M240.03394,160.94253v-25h25v25z" fill="#ffffff"/><g fill="none"><path d="M240.03394,160.94253v-12.5v-12.5h12.5h12.5v12.5v12.5h-12.5z"/></g></g><path d="M186.32852,106.53558v-25h25v25z" fill="#555555" stroke="none" stroke-width="0"/><path d="M214.25637,106.53558v-25h25v25z" fill="#6f6f6f" stroke="none" stroke-width="0"/><path d="M186.32852,131.54687v-25h25v25z" fill="#8a8a8a" stroke="none" stroke-width="0"/><path d="M240.03394,131.33081v-25h25v25z" fill="#9e9e9e" stroke="none" stroke-width="0"/><g stroke="none" stroke-width="0"><path d="M239.74077,106.26464v-25h25v25z" fill="#ffffff"/><g fill="none"><path d="M239.74077,106.26464v-12.5v-12.5h12.5h12.5v12.5v12.5h-12.5z"/></g></g><path d="M186.32852,53.77114v-25h25v25z" fill="#555555" stroke="none" stroke-width="0"/><path d="M186.32852,78.78243v-25h25v25z" fill="#8a8a8a" stroke="none" stroke-width="0"/><g stroke="none" stroke-width="0"><path d="M240.37405,53.37306v-25h25v25z" fill="#ffffff"/><g fill="none"><path d="M240.37405,53.37306v-12.5v-12.5h12.5h12.5v12.5v12.5h-12.5z"/></g></g><text transform="translate(14.10139,120.73871) scale(0.5,0.5)" font-size="40" xml:space="preserve" fill="#ffffff" stroke="none" stroke-width="1" font-family="Sans Serif" font-weight="normal" text-anchor="start"><tspan x="0" dy="0">15/10/5</tspan></text><path d="M20.65915,96.44855c-2.76142,0 -5,-2.23857 -5,-5v-27.35738c0,-2.76143 2.23858,-5 5,-5h59.44444c2.76143,0 5,2.23857 5,5v27.35738c0,2.76143 -2.23857,5 -5,5z" fill-opacity="0.25098" fill="#00ffff" stroke="none" stroke-width="0"/><path d="M23.60951,91.69612c-1.38071,0 -2.5,-1.11929 -2.5,-2.5v-22.85251c0,-1.38071 1.11929,-2.5 2.5,-2.5h53.54372c1.38071,0 2.5,1.11929 2.5,2.5v22.85251c0,1.38071 -1.11929,2.5 -2.5,2.5z" fill-opacity="0.25098" fill="#00ffff" stroke="none" stroke-width="0"/><path d="M18.4802,100.01595c-4.14214,0 -7.5,-3.35786 -7.5,-7.5v-29.49217c0,-4.14214 3.35786,-7.5 7.5,-7.5h63.80235c4.14214,0 7.5,3.35786 7.5,7.5v29.49217c0,4.14214 -3.35786,7.5 -7.5,7.5z" fill-opacity="0.25098" fill="#00ffff" stroke="none" stroke-width="0"/><path d="M413.9261,216.38157v-20.12441h20.12441v20.12441z" fill="#eb3737" stroke="none" stroke-width="0"/><path d="M413.9261,238.39584v-20.12441h20.1244v20.12441z" fill="#15bd1a" stroke="none" stroke-width="0"/><path d="M413.9261,260.59306v-20.12441h20.1244v20.12441z" fill="#526abd" stroke="none" stroke-width="0"/><path d="M413.9261,281.75479v-20.12441h20.1244v20.12441z" fill="#c9b75a" stroke="none" stroke-width="0"/><path d="M413.9261,303.76906v-20.12441h20.1244v20.12441z" fill="#2c2eba" stroke="none" stroke-width="0"/><path d="M413.9261,325.67776v-20.12441h20.1244v20.12441z" fill="#c9601a" stroke="none" stroke-width="0"/><path d="M77.00913,215.03467c-4.14214,0 -7.5,-3.35786 -7.5,-7.5v-2.27273c0,-4.14214 3.35786,-7.5 7.5,-7.5h66.36364c4.14214,0 7.5,3.35786 7.5,7.5v2.27273c0,4.14214 -3.35786,7.5 -7.5,7.5z" fill-opacity="0.50196" fill="#2b2b2b" stroke="url(#color-25)" stroke-width="0.5"/><text transform="translate(98.09375,210.08087) scale(0.30688,0.30688)" font-size="40" xml:space="preserve" fill="#ffffff" stroke="none" stroke-width="1" font-family="Sans Serif" font-weight="normal" text-anchor="start"><tspan x="0" dy="0">Text</tspan></text><path d="M77.00913,236.50526c-4.14214,0 -7.5,-3.35786 -7.5,-7.5v-2.27273c0,-4.14214 3.35786,-7.5 7.5,-7.5h66.36364c4.14214,0 7.5,3.35786 7.5,7.5v2.27273c0,4.14214 -3.35786,7.5 -7.5,7.5z" fill-opacity="0.50196" fill="#2b2b2b" stroke="url(#color-26)" stroke-width="0.5"/><path d="M77.00913,258.573c-4.14214,0 -7.5,-3.35786 -7.5,-7.5v-2.27273c0,-4.14214 3.35786,-7.5 7.5,-7.5h66.36364c4.14214,0 7.5,3.35786 7.5,7.5v2.27273c0,4.14214 -3.35786,7.5 -7.5,7.5z" fill-opacity="0.50196" fill="#2b2b2b" stroke="url(#color-27)" stroke-width="0.5"/><path d="M77.00913,280.67826c-4.14214,0 -7.5,-3.35786 -7.5,-7.5v-2.27273c0,-4.14214 3.35786,-7.5 7.5,-7.5h66.36364c4.14214,0 7.5,3.35786 7.5,7.5v2.27273c0,4.14214 -3.35786,7.5 -7.5,7.5z" fill-opacity="0.50196" fill="#2b2b2b" stroke="url(#color-28)" stroke-width="0.5"/><path d="M77.00913,302.19999c-4.14214,0 -7.5,-3.35786 -7.5,-7.5v-2.27273c0,-4.14214 3.35786,-7.5 7.5,-7.5h66.36364c4.14214,0 7.5,3.35786 7.5,7.5v2.27273c0,4.14214 -3.35786,7.5 -7.5,7.5z" fill-opacity="0.50196" fill="#2b2b2b" stroke="url(#color-29)" stroke-width="0.5"/><path d="M77.00913,323.69474c-4.14214,0 -7.5,-3.35786 -7.5,-7.5v-2.27273c0,-4.14214 3.35786,-7.5 7.5,-7.5h66.36364c4.14214,0 7.5,3.35786 7.5,7.5v2.27273c0,4.14214 -3.35786,7.5 -7.5,7.5z" fill-opacity="0.50196" fill="#2b2b2b" stroke="url(#color-30)" stroke-width="0.5"/><text transform="translate(98.09375,231.55146) scale(0.30688,0.30688)" font-size="40" xml:space="preserve" fill="#ffffff" stroke="none" stroke-width="1" font-family="Sans Serif" font-weight="normal" text-anchor="start"><tspan x="0" dy="0">Text</tspan></text><text transform="translate(98.09375,253.61919) scale(0.30688,0.30688)" font-size="40" xml:space="preserve" fill="#ffffff" stroke="none" stroke-width="1" font-family="Sans Serif" font-weight="normal" text-anchor="start"><tspan x="0" dy="0">Text</tspan></text><text transform="translate(98.09375,275.72446) scale(0.30688,0.30688)" font-size="40" xml:space="preserve" fill="#ffffff" stroke="none" stroke-width="1" font-family="Sans Serif" font-weight="normal" text-anchor="start"><tspan x="0" dy="0">Text</tspan></text><text transform="translate(98.09375,297.24619) scale(0.30688,0.30688)" font-size="40" xml:space="preserve" fill="#ffffff" stroke="none" stroke-width="1" font-family="Sans Serif" font-weight="normal" text-anchor="start"><tspan x="0" dy="0">Text</tspan></text><text transform="translate(98.09375,318.74092) scale(0.30688,0.30688)" font-size="40" xml:space="preserve" fill="#ffffff" stroke="none" stroke-width="1" font-family="Sans Serif" font-weight="normal" text-anchor="start"><tspan x="0" dy="0">Text</tspan></text><path d="M249.77049,214.83901c-4.14214,0 -7.5,-3.35786 -7.5,-7.5v-2.27273c0,-4.14214 3.35786,-7.5 7.5,-7.5h66.36364c4.14214,0 7.5,3.35786 7.5,7.5v2.27273c0,4.14214 -3.35786,7.5 -7.5,7.5z" fill="url(#color-31)" stroke="url(#color-32)" stroke-width="0.5"/><path d="M249.77049,236.3096c-4.14214,0 -7.5,-3.35786 -7.5,-7.5v-2.27273c0,-4.14214 3.35786,-7.5 7.5,-7.5h66.36364c4.14214,0 7.5,3.35786 7.5,7.5v2.27273c0,4.14214 -3.35786,7.5 -7.5,7.5z" fill="url(#color-33)" stroke="url(#color-34)" stroke-width="0.5"/><path d="M249.77049,258.37734c-4.14214,0 -7.5,-3.35786 -7.5,-7.5v-2.27273c0,-4.14214 3.35786,-7.5 7.5,-7.5h66.36364c4.14214,0 7.5,3.35786 7.5,7.5v2.27273c0,4.14214 -3.35786,7.5 -7.5,7.5z" fill="url(#color-35)" stroke="url(#color-36)" stroke-width="0.5"/><path d="M249.77049,280.4826c-4.14214,0 -7.5,-3.35786 -7.5,-7.5v-2.27273c0,-4.14214 3.35786,-7.5 7.5,-7.5h66.36364c4.14214,0 7.5,3.35786 7.5,7.5v2.27273c0,4.14214 -3.35786,7.5 -7.5,7.5z" fill="url(#color-37)" stroke="url(#color-38)" stroke-width="0.5"/><path d="M249.77049,302.00433c-4.14214,0 -7.5,-3.35786 -7.5,-7.5v-2.27273c0,-4.14214 3.35786,-7.5 7.5,-7.5h66.36364c4.14214,0 7.5,3.35786 7.5,7.5v2.27273c0,4.14214 -3.35786,7.5 -7.5,7.5z" fill="url(#color-39)" stroke="url(#color-40)" stroke-width="0.5"/><path d="M249.77049,323.49908c-4.14214,0 -7.5,-3.35786 -7.5,-7.5v-2.27273c0,-4.14214 3.35786,-7.5 7.5,-7.5h66.36364c4.14214,0 7.5,3.35786 7.5,7.5v2.27273c0,4.14214 -3.35786,7.5 -7.5,7.5z" fill="url(#color-41)" stroke="url(#color-42)" stroke-width="0.5"/><text transform="translate(270.85511,318.54526) scale(0.30688,0.30688)" font-size="40" xml:space="preserve" fill="#ffffff" stroke="none" stroke-width="1" font-family="Sans Serif" font-weight="normal" text-anchor="start"><tspan x="0" dy="0">Text</tspan></text><text transform="translate(270.85511,297.05053) scale(0.30688,0.30688)" font-size="40" xml:space="preserve" fill="#ffffff" stroke="none" stroke-width="1" font-family="Sans Serif" font-weight="normal" text-anchor="start"><tspan x="0" dy="0">Text</tspan></text><text transform="translate(270.85511,275.5288) scale(0.30688,0.30688)" font-size="40" xml:space="preserve" fill="#ffffff" stroke="none" stroke-width="1" font-family="Sans Serif" font-weight="normal" text-anchor="start"><tspan x="0" dy="0">Text</tspan></text><text transform="translate(270.85511,253.42353) scale(0.30688,0.30688)" font-size="40" xml:space="preserve" fill="#ffffff" stroke="none" stroke-width="1" font-family="Sans Serif" font-weight="normal" text-anchor="start"><tspan x="0" dy="0">Text</tspan></text><text transform="translate(270.85511,231.3558) scale(0.30688,0.30688)" font-size="40" xml:space="preserve" fill="#ffffff" stroke="none" stroke-width="1" font-family="Sans Serif" font-weight="normal" text-anchor="start"><tspan x="0" dy="0">Text</tspan></text><text transform="translate(270.85511,209.88521) scale(0.30688,0.30688)" font-size="40" xml:space="preserve" fill="#ffffff" stroke="none" stroke-width="1" font-family="Sans Serif" font-weight="normal" text-anchor="start"><tspan x="0" dy="0">Text</tspan></text><path d="M436.25668,216.78317v-20.12441h20.1244v20.12441z" fill="#e88d8d" stroke="none" stroke-width="0"/><path d="M436.25668,238.79744v-20.12441h20.1244v20.12441z" fill="#58ff5d" stroke="none" stroke-width="0"/><path d="M436.25668,260.99466v-20.12441h20.1244v20.12441z" fill="#8098f2" stroke="none" stroke-width="0"/><path d="M436.25668,282.15638v-20.12441h20.1244v20.12441z" fill="#eadfa8" stroke="none" stroke-width="0"/><path d="M436.25668,304.17065v-20.12441h20.1244v20.12441z" fill="#7f5ed9" stroke="none" stroke-width="0"/><path d="M436.25668,326.07936v-20.12441h20.1244v20.12441z" fill="#e99a65" stroke="none" stroke-width="0"/><path d="M164.46525,344.20197c-4.14214,0 -7.5,-3.35786 -7.5,-7.5v-2.27273c0,-4.14214 3.35786,-7.5 7.5,-7.5h66.36364c4.14214,0 7.5,3.35786 7.5,7.5v2.27273c0,4.14214 -3.35786,7.5 -7.5,7.5z" fill="#2b2b2b" stroke="url(#color-43)" stroke-width="0.5"/><text transform="translate(185.54987,339.24817) scale(0.30688,0.30688)" font-size="40" xml:space="preserve" fill="#ffffff" stroke="none" stroke-width="1" font-family="Sans Serif" font-weight="normal" text-anchor="start"><tspan x="0" dy="0">Text</tspan></text><path d="M77.00913,344.97874c-4.14214,0 -7.5,-3.35786 -7.5,-7.5v-2.27273c0,-4.14214 3.35786,-7.5 7.5,-7.5h66.36364c4.14214,0 7.5,3.35786 7.5,7.5v2.27273c0,4.14214 -3.35786,7.5 -7.5,7.5z" fill-opacity="0.50196" fill="#2c2c2c" stroke="url(#color-44)" stroke-width="0.5"/><text transform="translate(98.09375,340.02494) scale(0.30688,0.30688)" font-size="40" xml:space="preserve" fill="#ffffff" stroke="none" stroke-width="1" font-family="Sans Serif" font-weight="normal" text-anchor="start"><tspan x="0" dy="0">Text</tspan></text></g></g></svg>