<svg version="1.1" xmlns="http://www.w3.org/2000/svg" xmlns:xlink="http://www.w3.org/1999/xlink" width="63.72867" height="54.14072" viewBox="0,0,63.72867,54.14072"><defs><linearGradient x1="208.38566" y1="180" x2="271.61433" y2="180" gradientUnits="userSpaceOnUse" id="color-1"><stop offset="0.01887" stop-color="#8a8a8a"/><stop offset="0.49292" stop-color="#555555"/><stop offset="1" stop-color="#8a8a8a"/></linearGradient><linearGradient x1="208.38566" y1="180" x2="271.61433" y2="180" gradientUnits="userSpaceOnUse" id="color-2"><stop offset="0.01887" stop-color="#8a8a8a"/><stop offset="0.49292" stop-color="#555555"/><stop offset="1" stop-color="#8a8a8a"/></linearGradient></defs><g transform="translate(-208.13566,-152.92964)"><g stroke-miterlimit="10"><path d="M213.82747,206.82036c-3.00543,0 -5.44181,-2.43638 -5.44181,-5.44181v-42.7571c0,-3.00543 2.43638,-5.44181 5.44181,-5.44181h52.34505c3.00543,0 5.44181,2.43638 5.44181,5.44181v42.7571c0,3.00543 -2.43638,5.44181 -5.44181,5.44181z" fill-opacity="0.50196" fill="#545454" stroke="url(#color-1)" stroke-width="0.5"/><path d="M213.82747,206.82036c-3.00543,0 -5.44181,-2.43638 -5.44181,-5.44181v-7.02976h63.22868v7.02976c0,3.00543 -2.43638,5.44181 -5.44181,5.44181z" fill="#8a8a8a" stroke="url(#color-2)" stroke-width="0"/><text transform="translate(211.76592,203.53898) scale(0.25607,0.25607)" font-size="40" xml:space="preserve" fill="#000000" stroke="none" stroke-width="1" font-family="Sans Serif" font-weight="normal" text-anchor="start"><tspan x="0" dy="0">Card</tspan></text></g></g></svg>